<svg id="Illustration_1_" xmlns="http://www.w3.org/2000/svg" viewBox="0 0 500 437.208">
  <defs>
    <style>
      .cls-1 {
        fill: #354367;
      }

      .cls-2 {
        fill: rgba(0,0,0,0.1);
      }

      .cls-3 {
        fill: #ff8820;
      }

      .cls-16, .cls-4 {
        fill: #fff;
      }

      .cls-5 {
        fill: #24ca6c;
      }

      .cls-6 {
        fill: #ffb17a;
      }

      .cls-7 {
        fill: #d5dbde;
      }

      .cls-8 {
        fill: #eef4f8;
      }

      .cls-9 {
        fill: #1abffe;
      }

      .cls-10 {
        opacity: 0.1;
      }

      .cls-11 {
        fill: #0caae6;
      }

      .cls-12 {
        fill: #d1aa00;
      }

      .cls-13 {
        fill: #ffcf00;
      }

      .cls-14 {
        fill: #37456c;
      }

      .cls-15 {
        opacity: 0.2;
      }

      .cls-16 {
        opacity: 0.5;
      }

      .cls-17 {
        fill: #2b2a41;
        opacity: 0.7;
      }

      .cls-18 {
        fill: #232942;
      }

      .cls-19 {
        fill: #fedd4f;
      }
    </style>
  </defs>
  <g id="_x30_3_1_">
    <g id="_x30_3_x5F_Illustration_1_">
      <g id="Bg_1_">
        <path id="Shape_113_" class="cls-1" d="M209,406h75.8v40.582H209Z" transform="translate(-48.969 -95.127)"/>
        <path id="Shape_112_" class="cls-1" d="M105,406h75.8v40.582H105Z" transform="translate(-24.602 -95.127)"/>
        <path id="Shape_111_" class="cls-1" d="M313,406h75.8v40.582H313Z" transform="translate(-73.337 -95.127)"/>
        <path id="Shape_110_" class="cls-1" d="M208,290h75.8v40.582H208Z" transform="translate(-48.735 -67.948)"/>
        <path id="Shape_109_" class="cls-1" d="M104,290h75.8v40.582H104Z" transform="translate(-24.368 -67.948)"/>
        <path id="Shape_108_" class="cls-1" d="M0,290H75.8v40.582H0Z" transform="translate(0 -67.948)"/>
        <path id="Shape_107_" class="cls-1" d="M0,174H75.8v40.582H0Z" transform="translate(0 -40.769)"/>
        <path id="Shape_106_" class="cls-1" d="M137,348h75.8v40.582H137Z" transform="translate(-32.1 -81.538)"/>
        <path id="Shape_105_" class="cls-1" d="M241,348h75.8v40.582H241Z" transform="translate(-56.467 -81.538)"/>
        <path id="Shape_104_" class="cls-1" d="M33,232h75.8v40.582H33Z" transform="translate(-7.732 -54.358)"/>
        <path id="Shape_103_" class="cls-1" d="M33,348h75.8v40.582H33Z" transform="translate(-7.732 -81.538)"/>
        <path id="Shape_102_" class="cls-1" d="M33,116h75.8v40.582H33Z" transform="translate(-7.732 -27.179)"/>
        <path id="Shape_101_" class="cls-1" d="M416,290h75.8v40.582H416Z" transform="translate(-97.47 -67.948)"/>
        <path id="Shape_100_" class="cls-1" d="M312,290h75.8v40.582H312Z" transform="translate(-73.103 -67.948)"/>
        <path id="Shape_99_" class="cls-1" d="M345,348h75.8v40.582H345Z" transform="translate(-80.835 -81.538)"/>
        <path id="Shape_98_" class="cls-1" d="M449,348h75.8v40.582H449Z" transform="translate(-105.202 -81.538)"/>
        <path id="Shape_97_" class="cls-1" d="M208,174h75.8v40.582H208Z" transform="translate(-48.735 -40.769)"/>
        <path id="Shape_96_" class="cls-1" d="M104,174h75.8v40.582H104Z" transform="translate(-24.368 -40.769)"/>
        <path id="Shape_95_" class="cls-1" d="M137,232h75.8v40.582H137Z" transform="translate(-32.1 -54.358)"/>
        <path id="Shape_94_" class="cls-1" d="M241,232h75.8v40.582H241Z" transform="translate(-56.467 -54.358)"/>
        <path id="Shape_93_" class="cls-1" d="M416,174h75.8v40.582H416Z" transform="translate(-97.47 -40.769)"/>
        <path id="Shape_92_" class="cls-1" d="M312,174h75.8v40.582H312Z" transform="translate(-73.103 -40.769)"/>
        <path id="Shape_91_" class="cls-1" d="M345,232h75.8v40.582H345Z" transform="translate(-80.835 -54.358)"/>
        <path id="Shape_90_" class="cls-1" d="M449,232h75.8v40.582H449Z" transform="translate(-105.202 -54.358)"/>
        <path id="Shape_89_" class="cls-1" d="M208,58h75.8V98.582H208Z" transform="translate(-48.735 -13.59)"/>
        <path id="Shape_88_" class="cls-1" d="M104,58h75.8V98.582H104Z" transform="translate(-24.368 -13.59)"/>
        <path id="Shape_87_" class="cls-1" d="M137,116h75.8v40.582H137Z" transform="translate(-32.1 -27.179)"/>
        <path id="Shape_86_" class="cls-1" d="M241,116h75.8v40.582H241Z" transform="translate(-56.467 -27.179)"/>
        <path id="Shape_85_" class="cls-1" d="M241,0h75.8V40.582H241Z" transform="translate(-56.467)"/>
        <path id="Shape_84_" class="cls-1" d="M416,58h75.8V98.582H416Z" transform="translate(-97.47 -13.59)"/>
        <path id="Shape_83_" class="cls-1" d="M312,58h75.8V98.582H312Z" transform="translate(-73.103 -13.59)"/>
        <path id="Shape_82_" class="cls-1" d="M345,116h75.8v40.582H345Z" transform="translate(-80.835 -27.179)"/>
        <path id="Shape_81_" class="cls-1" d="M346,0h75.8V40.582H346Z" transform="translate(-81.069)"/>
        <path id="Shape_80_" class="cls-1" d="M449,116h75.8v40.582H449Z" transform="translate(-105.202 -27.179)"/>
        <path id="Shape_79_" class="cls-1" d="M520,290h75.8v40.582H520Z" transform="translate(-121.838 -67.948)"/>
        <path id="Shape_78_" class="cls-1" d="M520,174h75.8v40.582H520Z" transform="translate(-121.838 -40.769)"/>
        <path id="Shape_77_" class="cls-1" d="M553,232h75.8v40.582H553Z" transform="translate(-129.57 -54.358)"/>
        <path id="Shape_76_" class="cls-1" d="M520,58h75.8V98.582H520Z" transform="translate(-121.838 -13.59)"/>
        <path id="Shape_75_" class="cls-1" d="M553,116h75.8v40.582H553Z" transform="translate(-129.57 -27.179)"/>
        <rect id="Shape_74_" class="cls-1" width="75.804" height="40.582" transform="translate(344.564)"/>
        <path id="Shape_73_" class="cls-1" d="M554,0h75.8V40.582H554Z" transform="translate(-129.804)"/>
      </g>
      <g id="List_3_" transform="translate(198.315 195.253)">
        <path id="Shape_71_" class="cls-2" d="M0,72H47.473v5.36H0Z" transform="translate(0 -16.87)"/>
        <path id="Shape_70_" class="cls-3" d="M1.3,0h44.87a1.432,1.432,0,0,1,1.3,1.531V54.364a1.432,1.432,0,0,1-1.3,1.531H1.3A1.432,1.432,0,0,1,0,54.364V1.531A1.432,1.432,0,0,1,1.3,0Z"/>
        <rect id="Shape_69_" class="cls-4" width="32.159" height="4.594" transform="translate(7.657 34.456)"/>
        <rect id="Shape_68_" class="cls-4" width="32.159" height="22.205" transform="translate(7.657 7.657)"/>
        <rect id="Shape_67_" class="cls-4" width="32.159" height="4.594" transform="translate(7.657 43.645)"/>
      </g>
      <g id="List_2_" transform="translate(254.211 127.106)">
        <path id="Shape_65_" class="cls-2" d="M0,72H47.473v5.36H0Z" transform="translate(0 -16.87)"/>
        <path id="Shape_64_" class="cls-5" d="M1.3,0h44.87a1.432,1.432,0,0,1,1.3,1.531V54.364a1.432,1.432,0,0,1-1.3,1.531H1.3A1.432,1.432,0,0,1,0,54.364V1.531A1.432,1.432,0,0,1,1.3,0Z"/>
        <rect id="Shape_63_" class="cls-4" width="24.502" height="4.594" transform="translate(15.314 39.051)"/>
        <rect id="Shape_62_" class="cls-4" width="4.594" height="4.594" transform="translate(7.657 39.051)"/>
        <rect id="Shape_61_" class="cls-4" width="24.502" height="4.594" transform="translate(15.314 29.862)"/>
        <rect id="Shape_60_" class="cls-4" width="4.594" height="4.594" transform="translate(7.657 29.862)"/>
        <rect id="Shape_59_" class="cls-4" width="24.502" height="4.594" transform="translate(15.314 20.674)"/>
        <rect id="Shape_58_" class="cls-4" width="4.594" height="4.594" transform="translate(7.657 20.674)"/>
        <rect id="Shape_57_" class="cls-4" width="24.502" height="4.594" transform="translate(15.314 11.485)"/>
        <rect id="Shape_56_" class="cls-4" width="4.594" height="4.594" transform="translate(7.657 11.485)"/>
      </g>
      <g id="Woman_1_" transform="translate(324.655 38.25)">
        <path id="Shape_55_" class="cls-6" d="M128.043,445.832c3.338,9.334,7.236,17.81,9.035,22.534,3.79,8.836-13.515,11.914-16.08,3.063-.567-3.247-3.905-12.588-8.17-23.476C105.4,428.994,125.462,438.611,128.043,445.832Z" transform="translate(-26.052 -102.328)"/>
        <path id="Shape_54_" class="cls-6" d="M53.869,455.39c-.881,11.761-1.884,20.444-2.925,23.729-2.029,10.168,13.4,13.178,13.783,2.3a160.2,160.2,0,0,1,4-23.27C72.6,441.6,54.619,445.444,53.869,455.39Z" transform="translate(-11.893 -104.658)"/>
        <path id="Shape_53_" class="cls-7" d="M56.473,511.75v4.387c0,3.568-47.473,3.331-47.473-.658V511Z" transform="translate(-2.109 -119.694)"/>
        <path id="Shape_52_" class="cls-8" d="M54.942,492.006a111.156,111.156,0,0,1,1.531,15.36C56.473,510.98,9,510.735,9,506.7c0-6.041,3.469-14.694,18.377-14.694q14.472,0,13.783-2.006-.505,5.869,6.891,6.011Q54.976,495.873,54.942,492.006Z" transform="translate(-2.109 -114.773)"/>
        <path id="Shape_51_" class="cls-7" d="M25.959,491.661a1.917,1.917,0,0,1,2.91-2.5,15.013,15.013,0,0,1,3.553,10.306,1.914,1.914,0,1,1-3.828,0A11.2,11.2,0,0,0,25.959,491.661Z" transform="translate(-5.974 -114.421)"/>
        <path id="Shape_50_" class="cls-7" d="M35.959,490.661a1.917,1.917,0,0,1,2.91-2.5,15.013,15.013,0,0,1,3.553,10.306,1.914,1.914,0,1,1-3.828,0A11.2,11.2,0,0,0,35.959,490.661Z" transform="translate(-8.317 -114.187)"/>
        <path id="Shape_49_" class="cls-7" d="M45,489.71a1.913,1.913,0,0,1,2.825-2.58,13.656,13.656,0,0,1,3.56,9.717,1.914,1.914,0,1,1-3.828,0A9.812,9.812,0,0,0,45,489.71Z" transform="translate(-10.426 -113.955)"/>
        <g id="Mask_5_" transform="translate(55.13 153.217)">
          <g id="Shape_48_" transform="translate(0 0)">
            <path id="path-1_2_" class="cls-9" d="M29.862,7.67c3.813,14.043,19.464,22.779,15.314,49C40.567,83.091,28.5,116.429,32.159,126.353c3.27,9.074,12.711,25.322,14.548,40.582a102.136,102.136,0,0,0,6.126,26.034c1.83,6.417-20.031,11.891-23.737,3.063C21.639,177.471,13.683,152.2,10.72,145.5Q5.77,134.228,0,7.67,26.267-7.56,29.862,7.67Z" transform="translate(0 -0.055)"/>
          </g>
          <path id="Shape_47_" class="cls-10" d="M25.839,93.641c.406-1.738.727-3.224.942-4.387,1.531-7.274,7.328-23.178,9.954-25.268,3.354-1.884-7.243,52.466-12.251,80.4q-5,27.933,4.594,56.662l-11.585-32.3c-.544-13.178-2.534-15.2.1-28.951C19.3,127.982,23.863,108.825,25.839,93.641Z" transform="translate(-3.81 -15.023)"/>
        </g>
        <path id="Shape_46_" class="cls-11" d="M104.952,446.293a51.805,51.805,0,0,0,24.2-6.034,2.294,2.294,0,0,1,3.1.965,2.456,2.456,0,0,1,.2.513l2,8.017a2.3,2.3,0,0,1-1.126,2.573,51.5,51.5,0,0,1-26.386,6.577h0a2.292,2.292,0,0,1-2.205-1.738l-2-8.017a2.3,2.3,0,0,1,1.677-2.787A2.058,2.058,0,0,1,104.952,446.293Z" transform="translate(-24.056 -103.057)"/>
        <path id="Shape_45_" class="cls-6" d="M58.049,386.74,57.36,406.3l21.93-5.574Z" transform="translate(-13.44 -90.579)"/>
        <path id="Shape_44_" class="cls-9" d="M64.543,355.081c.054-.85-4.043-2.167-12.251-3.828,1.462-35.85.084-74.112,0-88.055.084-24.632,9.946-44.548,13.017-53.6,2.848-10.36,24.5,43.522,24.5,58.959,0,15.368-6.983,42.925-9.188,58.193-2.833,14.793-.314,16.018,0,32.159-.314,9.839-2.626,26.133-6.126,40.582-2.351,7.534-25.237,7.894-24.5-3.828.773-10.812,1.455-24.234,2.3-38.285C60.416,356.428,64.6,355.632,64.543,355.081Z" transform="translate(-11.71 -48.767)"/>
        <path id="Shape_43_" class="cls-7" d="M138.239,502c0,3.476-.253,5.513-.766,6.126-3.323,2.167-16.83.413-25.268,2.3C103.652,513.072,90,512.1,90,508.891v-3.828Z" transform="translate(-21.087 -117.585)"/>
        <path id="Shape_42_" class="cls-8" d="M132.113,478q8.189,17.4,5.36,20.674c-3.27,2.175-16.792.413-25.268,2.3C103.675,503.62,90,502.648,90,499.44c0-3.652,1.639-12.4,11.485-13.783,9.763-.069,11.868-4.273,14.548-4.594,2.489-.383,4.9,5.237,11.485,3.828Q133.365,482.858,132.113,478Z" transform="translate(-21.087 -111.962)"/>
        <path id="Shape_41_" class="cls-7" d="M101.959,486.661a1.917,1.917,0,0,1,2.91-2.5c3.231,3.767,5.084,6.853,5.084,10.306a1.914,1.914,0,1,1-3.828,0C106.124,492.274,104.593,489.732,101.959,486.661Z" transform="translate(-23.781 -113.25)"/>
        <path id="Shape_40_" class="cls-7" d="M110.959,483.661a1.917,1.917,0,0,1,2.91-2.5c1.011,1.179,1.378,1.623,1.96,2.412,1.968,2.657,3.124,5.214,3.124,7.894a1.914,1.914,0,1,1-3.828,0c0-1.685-.842-3.56-2.366-5.613C112.245,485.17,111.916,484.772,110.959,483.661Z" transform="translate(-25.89 -112.547)"/>
        <path id="Shape_39_" class="cls-7" d="M118.959,480.661a1.917,1.917,0,0,1,2.91-2.5c3.315,3.867,5.084,6.792,5.084,10.306a1.914,1.914,0,1,1-3.828,0C123.124,486.22,121.669,483.816,118.959,480.661Z" transform="translate(-27.764 -111.844)"/>
        <path id="Shape_38_" class="cls-11" d="M47.189,451.445A57.088,57.088,0,0,0,73.6,453.757h0a2.3,2.3,0,0,1,2.6,1.945,2.441,2.441,0,0,1,.015.528l-.72,8.247a2.294,2.294,0,0,1-1.93,2.067,58.929,58.929,0,0,1-14.441.582,59.462,59.462,0,0,1-14.119-3.078,2.3,2.3,0,0,1-1.539-2.374l.72-8.247a2.3,2.3,0,0,1,2.489-2.09A2.042,2.042,0,0,1,47.189,451.445Z" transform="translate(-10.182 -105.713)"/>
        <path id="Shape_37_" class="cls-4" d="M2.3,168H25.268a2.294,2.294,0,0,1,2.3,2.3v22.971a7.66,7.66,0,0,1-7.657,7.657H7.657A7.66,7.66,0,0,1,0,193.268V170.3A2.294,2.294,0,0,1,2.3,168Z" transform="translate(0 -39.328)"/>
        <path id="Shape_36_" class="cls-6" d="M48.034,194.529c-1.34.107-11.853,3.828-14.548,3.828-2.573,0-9.587-4.908-9.954-6.891C22.482,189.184,22,176.282,22,173.855c0-1.309,5.1.268,10.72,2.611v-2.611q8.407,1.309,10.72,3.063c2.052,1.225,5.337,6.018,5.36,7.619C48.914,186.1,49.611,194.636,48.034,194.529Z" transform="translate(-5.155 -40.589)"/>
        <path id="Shape_35_" class="cls-4" d="M61.46,91.107c10.651-11.585-29.38-16.746-19.908-32.925,9-16.263.712-35.253,9.188-45.942,4.426-5.957,12.09-7.573,18.377-6.891,5.758-6.524,26.149-9.119,36.753,3.828,11.1,12.718,2.588,22.312,16.08,30.628,13.522,8.285,19.824,23.79,9.188,36.753-10.574,12.894-6.738,19.686,0,32.159,6.746,12.381,3.109,42.113-36.753,42.113-20.842,0-48.744-15.436-52.833-29.862C37.732,108.129,56.284,96.49,61.46,91.107Z" transform="translate(-9.393 0.046)"/>
        <path id="Shape_34_" class="cls-10" d="M71.908,111.582Q82.636,99.545,101.77,71q-.8,22.167,13.017,40.582c14,18.415,7.986,40.582-31.394,40.582C62.138,152.164,52,145.15,52,134.553,52,123.205,66.839,116.383,71.908,111.582Z" transform="translate(-12.184 -16.6)"/>
        <path id="Shape_33_" class="cls-3" d="M102.58,187.776a4,4,0,0,1-1.386,5.513,4.123,4.123,0,0,1-1.256.49,117.058,117.058,0,0,1-12.289,1.608q-13.576,1.217-20.873-.49a4.191,4.191,0,0,1-3.247-4.074v-1.149a3.73,3.73,0,0,1,3.744-3.721,3.338,3.338,0,0,1,.391.023c.161.015.322.031.482.054-.015-.176-.031-.352-.031-.528.123-9.877-6.126-28.369-6.126-35,0-6.44,11.485-17.129,11.485-26.577,0-6.263,4.158-13.377,26.8-8.423,12.067,8.423,25.2,64.617.766,70.758A4.55,4.55,0,0,1,102.58,187.776Z" transform="translate(-14.524 -26.638)"/>
        <path id="Combined-Shape_7_" class="cls-2" d="M82.846,183.816v.038q-11.2-20.088-4.587-20.084h.084C80.534,173.7,82.67,183,82.846,183.816Z" transform="translate(-17.762 -38.337)"/>
        <path id="Combined-Shape_2_" class="cls-2" d="M65.312,203.855c6.531,3.645,25.62,4.6,32.634-1.707q2.389-2.332,3.277-15.858,2.24,15.965-2.534,19.686c-6.861,5.36-32.466,5.972-33.691-1.531C64.959,204.246,65.067,204.046,65.312,203.855Z" transform="translate(-15.227 -43.613)"/>
        <path id="Shape_32_" class="cls-3" d="M77.989,172.662c-.2-.934-7.833-34.089-9.2-42.879C67.537,121.038,70.868,116,77.223,116c2.611,0,7.312,3.492,13.79,3.828q6.478.333,7.665-3.828,2.412,64.33-3.063,69.678c-7.136,6.417-26.73,5.322-32.948,1.531a8.544,8.544,0,0,1-3.047-4.112l-2.565-.237a2.251,2.251,0,0,1-2.044-2.205v-9.6a2.259,2.259,0,0,1,2.3-2.221c.084,0,.168.008.253.015l5.1.75C66.871,168.06,77.782,174.729,77.989,172.662Z" transform="translate(-12.889 -27.144)"/>
        <g id="Mask_4_" transform="translate(63.43 59.738)">
          <g id="Shape_31_" transform="translate(0 0.001)">
            <path id="path-3_1_" class="cls-6" d="M16.808,5.353q-.241,14.38,5.36,23.737.264,3.48-5.36,5.36C11.233,36.739-1.546,32.566-.038,29.09a16.257,16.257,0,0,0,0-16.845C-1.684,9.113,16.57-8.812,16.808,5.353Z" transform="translate(0.16 0.028)"/>
          </g>
          <g id="Shape_30_" transform="translate(0.018 0)">
            <path id="path-5_1_" class="cls-10" d="M2.319,21.425A16.175,16.175,0,0,0-.032,12.244C-1.617,9.228,15.313-7.572,16.721,3.975c-.253.475-.505.957-.766,1.44A48.759,48.759,0,0,1,2.319,21.425Z" transform="translate(0.137 0.028)"/>
          </g>
        </g>
        <path id="Shape_29_" class="cls-6" d="M91.274,74.3c-6.884,6.2-15.123,9.877-22.5,8.836-14.9-2.588-19.319-27.389-15.222-40.651q13.794-7.339,19-14.763,3.79,16.344,29.2,33.116l-.015.023h.054c2.887,0,6.838,2.933,3.032,8.415C101.71,73.746,94,75.438,91.274,74.3Z" transform="translate(-12.208 -6.46)"/>
      </g>
      <g id="Man_1_" transform="translate(49.643 13.017)">
        <path id="Shape_28_" class="cls-12" d="M88,538v4.594c0,11.371,17.4,6.57,22.205,6.891,5.628-.322,37.519,3.515,37.519-6.891v-3.828Z" transform="translate(-21.257 -126.055)"/>
        <path id="Shape_27_" class="cls-12" d="M27,520.188a81.38,81.38,0,0,0,.766,9.188c2.4,11.141,21.279,1.639,28.331,0,7.075-1.478,27.565-4.533,27.565-13.783V511Z" transform="translate(-6.965 -119.729)"/>
        <path id="Shape_26_" class="cls-13" d="M92.594,516A34.243,34.243,0,0,0,88,533.611c0,11.371,17.4,6.57,22.205,6.891,5.628-.322,37.519,3.515,37.519-6.891,0-9.7-3.032-13.254-15.314-13.783q-12.5.528-17.611-3.828-3.388,5.41-11.485,5.36Q94.849,521.406,92.594,516Z" transform="translate(-21.257 -120.9)"/>
        <path id="Shape_25_" class="cls-13" d="M28.461,504.888q-3.09,7.236-.766,17.611c2.4,11.141,21.279,1.639,28.331,0,7.075-1.478,27.565-4.533,27.565-13.783,0-9.487-10.881-13.714-22.205-8.423Q50.831,505.818,28.461,504.888Z" transform="translate(-6.894 -116.68)"/>
        <g id="Mask_3_" transform="translate(16.972 213.618)">
          <g id="Shape_24_" transform="translate(0 0)">
            <path id="path-7_1_" class="cls-9" d="M0,6.888q0,14.2,3.063,168.453,2.676,6.122,15.314,6.126,12.163,0,19.142-6.126L45.176,6.888Q0-6.918,0,6.888Z" transform="translate(0 0.015)"/>
          </g>
          <g id="Shape_23_" transform="translate(1.531 5.578)">
            <path id="path-9_1_" class="cls-10" d="M42.237,83.487l-4.25,93.56a21.936,21.936,0,0,1-3.936,2.749q-8.936-92.148-9.081-92.335C25.124,86.351,2,22.484,2,9.36Q2-5.353,42.237,83.487Z" transform="translate(-2 -7.27)"/>
          </g>
        </g>
        <path id="Shape_22_" class="cls-9" d="M25,285.971c0,13.4,38.292,77.19,38.285,78.1q-.011.391,9.954,98.775,2.446,4.594,13.783,4.594t18.377-4.594q-1.861-95.8-1.531-101.838-.322-6.891-16.845-82.7Q25,271.366,25,285.971Z" transform="translate(-6.496 -64.685)"/>
        <path id="Shape_21_" class="cls-4" d="M17,292q.459,19.939.766,23.737c-.306,16.462,41.531-.13,61.256-10.72,4.969-3.3,12.251,1.73,12.251,0q0-3.124-3.063-13.017Z" transform="translate(-4.622 -68.417)"/>
        <path id="Shape_20_" class="cls-13" d="M128,91h47.473v55.9H128Z" transform="translate(-30.629 -21.322)"/>
        <path id="Shape_19_" class="cls-4" d="M138,106h32.159v4.594H138Z" transform="translate(-32.972 -24.836)"/>
        <path id="Shape_18_" class="cls-4" d="M138,118h32.159v4.594H138Z" transform="translate(-32.972 -27.648)"/>
        <path id="Shape_17_" class="cls-4" d="M138,130h32.159v4.594H138Z" transform="translate(-32.972 -30.459)"/>
        <path id="Shape_16_" class="cls-4" d="M138,142h32.159v4.594H138Z" transform="translate(-32.972 -33.271)"/>
        <path id="Shape_15_" class="cls-6" d="M133.561,110.891c.391,2.856-5.49,4.089-10.72,6.891v2.3a23.31,23.31,0,0,1-3.828,10.72q-.7,1.263-5.36,4.594-4.835.345-6.891-2.3-1.872-1.964.766-6.891,4.64-12.186,5.36-17.611.322-2.6,9.954-4.594v5.36C126.234,108.632,133.125,107.714,133.561,110.891Z" transform="translate(-25.471 -24.368)"/>
        <path id="Shape_14_" class="cls-14" d="M85.976,147.017c1.547-2.626,14.8-13.017,16.08-13.017,1.646,0,10.72,6.738,10.72,10.72,0,4.686-7.121,33.27-9.188,34.456C101.742,180.3,84.606,150.271,85.976,147.017Z" transform="translate(-20.765 -31.397)"/>
        <g id="Mask_2_" transform="translate(0 96.999)">
          <g id="Shape_13_" transform="translate(0 0)">
            <path id="path-11_1_" class="cls-13" d="M.961,35.382C3.947,69.31,9.039,121.6,9.384,131.094c-.345,4.587,78.1,4.525,78.1-4.594,0-5.038-3.139-99.64-7.657-108.729Q74.659,9.352,59.92,5.519,35.72-.407,25.463.925C10.969,3.536-.509,16.538.961,35.382Z" transform="translate(-0.834 -0.681)"/>
          </g>
          <g id="Shape_12_" class="cls-15" transform="translate(50.663 39.026)">
            <path id="path-13_1_" d="M100.606,81.06c.329,5.9.628,11.838.9,17.55C87.421,89.552,67,70.838,67,55.746,67,42.829,86.655,62.99,100.606,81.06Z" transform="translate(-67 -51.649)"/>
          </g>
        </g>
        <path id="Shape_11_" class="cls-6" d="M193.494,173.1c-.26.513-16.034,7.42-16.845,8.423-1.975.5-14.119-.926-3.063-12.251-.322-3.155,1.845-8.752,3.828-10.72,1.685-1.508,1.294-9.135,3.828-9.954,1.715-.413.789,8.078.773,10.72h3.055V144c1.034.9,7.3,11.378,8.423,17.611C194.788,166.588,194.2,172.063,193.494,173.1Z" transform="translate(-40.235 -33.74)"/>
        <path id="Shape_10_" class="cls-13" d="M69.422,139.752c5.651-2.58,17.037.681,25.268,14.548,8.178,14.25,17.734,29.311,19.142,29.1,1.286-.115,28.8-14.548,30.628-14.548,1.6.222,7.55,3.3,6.891,12.251-.911,9.051-32.787,30.643-39.051,32.159-6.378,1.325-43.162-28.43-49-45.942C57.508,150.066,63.809,142.869,69.422,139.752Z" transform="translate(-14.93 -32.555)"/>
        <path id="Shape_9_" class="cls-4" d="M39.126,119l26.8,4.594,1.531,6.126a78.809,78.809,0,0,1-19.908,1.531Q37.464,129.976,33,125.126Z" transform="translate(-8.371 -27.882)"/>
        <path id="Shape_8_" class="cls-6" d="M38.594,87.394q7.144,11.428,1.531,22.971-.413,2.3,4,4.426t22.795.168V92.753C66.925,87.554,29.88,75.1,38.594,87.394Z" transform="translate(-9.37 -19.247)"/>
        <path id="Oval_5_" class="cls-8" d="M102.188,71.674C97.074,71.674,93,67.011,93,61.337S97.074,51,102.188,51s9.188,4.663,9.188,10.337S107.3,71.674,102.188,71.674Zm0-2.3c3.767,0,6.891-3.568,6.891-8.04s-3.124-8.04-6.891-8.04S95.3,56.865,95.3,61.337,98.421,69.377,102.188,69.377Z" transform="translate(-22.429 -11.949)"/>
        <ellipse id="Oval-_1_" class="cls-16" cx="8.04" cy="9.188" rx="8.04" ry="9.188" transform="translate(71.337 40.582)"/>
        <g id="Mask_1_" transform="translate(16.207 11.485)">
          <g id="Shape_7_">
            <path id="path-15_2_" class="cls-6" d="M26.8,0C46.24,0,64.319,7.642,64.319,42.113c0,34.418-21.7,33.4-37.519,25.268C10.413,58.515,0,51.355,0,31.394,0,12.351,7.7,0,26.8,0Z"/>
          </g>
          <path id="Shape_6_" class="cls-17" d="M62.21,54.976q1.711,5.972,6.126,8.423c3.92,2.335,7.657-1.922,7.657-.766,0,26.24-20.544,23.982-22.971,22.205s-3.545-4.717-3.1-8.989Q52.218,53.613,62.21,54.976Z" transform="translate(-11.674 -12.862)"/>
        </g>
        <path id="Shape_5_" class="cls-18" d="M16.57,55.582a13.034,13.034,0,0,1-3.124-15A6.511,6.511,0,0,1,14.5,28.645,13.024,13.024,0,0,1,26.845,11.485c.13,0,.26,0,.383.008a10.719,10.719,0,0,1,8.806-4.6,10.849,10.849,0,0,1,2.129.214A11.873,11.873,0,0,1,56.677,3.874,16.845,16.845,0,1,1,68.415,33.66q-1.562,2.3,1.309,19.939a4.392,4.392,0,0,1-3.063,4.594,4.593,4.593,0,0,1-5.36-1.531q-3.388-5.892-4.579-5.888c-2.4,0-4.632,3.461-5.107,8.7A14.936,14.936,0,1,1,24.342,71.064,13.032,13.032,0,0,1,16.57,55.582Z" transform="translate(-2.982)"/>
        <path id="Shape_4_" class="cls-4" d="M64.3,71.152a1.149,1.149,0,0,1-2.3,0,7.3,7.3,0,0,1,5.85-7.374c4.992-1.355,29-4.778,34.51-4.778a1.149,1.149,0,0,1,0,2.3c-5.291,0-29.1,3.4-33.913,4.694A5.069,5.069,0,0,0,64.3,71.152Z" transform="translate(-15.165 -13.824)"/>
        <path id="Shape_3_" class="cls-6" d="M68.849,66.023c-6.072.636-6.6,6.746-5.23,10.3s8.89,7.443,12.037,4.985S74.928,65.388,68.849,66.023Z" transform="translate(-15.398 -15.464)"/>
      </g>
      <g id="Bubble_2_" transform="translate(276.417 9.188)">
        <path id="Shape_2_" class="cls-7" d="M22.971,0H46.708a22.971,22.971,0,0,1,0,45.942H22.971A22.971,22.971,0,0,1,22.971,0Z"/>
        <path id="Shape_1_" class="cls-4" d="M27.971,5H50.942A23.737,23.737,0,0,1,74.678,28.737V50.942H27.971A22.971,22.971,0,0,1,27.971,5Z" transform="translate(-1.172 -1.172)"/>
        <circle id="Oval_4_" class="cls-19" cx="14.931" cy="14.931" r="14.931" transform="translate(23.737 12.251)"/>
        <circle id="Oval_3_" class="cls-18" cx="2.68" cy="2.68" r="2.68" transform="translate(29.862 21.44)"/>
        <circle id="Oval_2_" class="cls-18" cx="2.68" cy="2.68" r="2.68" transform="translate(42.113 21.44)"/>
        <path id="Oval_1_" class="cls-18" d="M48.891,45.912c3.208,0,6.126-2.182,6.126-4.594,0-2.971-13.017-2.971-13.017,0C42,43.73,44.917,45.912,48.891,45.912Z" transform="translate(-9.841 -9.159)"/>
      </g>
    </g>
  </g>
</svg>
