<svg xmlns="http://www.w3.org/2000/svg" viewBox="0 0 51.563 57.033">
  <defs>
    <style>
      .cls-1 {
        fill: #d0e9ff;
      }

      .cls-2 {
        fill: #bce9f7;
      }

      .cls-3 {
        fill: #a1deff;
      }

      .cls-4 {
        fill: #1abffe;
      }
    </style>
  </defs>
  <g id="Group_1761" data-name="Group 1761" transform="translate(0 -13.6)">
    <path id="Path_2610" data-name="Path 2610" class="cls-1" d="M0,70.633V39.466A25.781,25.781,0,1,1,25.781,65.333a25.58,25.58,0,0,1-13.117-3.594Z" transform="translate(0 0)"/>
    <path id="Path_2611" data-name="Path 2611" class="cls-2" d="M165,13.6V65.333A25.866,25.866,0,0,0,165,13.6Z" transform="translate(-139.219 0)"/>
    <g id="Group_1434" data-name="Group 1434" transform="translate(18.75 26.141)">
      <path id="Path_2612" data-name="Path 2612" class="cls-3" d="M129.375,110.844h-4.687v-7.838h2.344a2.351,2.351,0,1,0-2.344-2.351H120a7.031,7.031,0,1,1,9.375,6.652Z" transform="translate(-120 -93.6)"/>
      <rect id="Rectangle_532" data-name="Rectangle 532" class="cls-3" width="4.688" height="4.703" transform="translate(4.688 21.947)"/>
    </g>
    <g id="Group_1435" data-name="Group 1435" transform="translate(25.781 26.141)">
      <path id="Path_2613" data-name="Path 2613" class="cls-4" d="M167.344,100.654A2.35,2.35,0,0,1,165,103.006v7.838h2.344v-3.538A7.058,7.058,0,0,0,165,93.6v4.7A2.35,2.35,0,0,1,167.344,100.654Z" transform="translate(-165 -93.6)"/>
      <rect id="Rectangle_533" data-name="Rectangle 533" class="cls-4" width="2.344" height="4.703" transform="translate(0 21.947)"/>
    </g>
  </g>
</svg>
