<svg xmlns="http://www.w3.org/2000/svg" viewBox="0 0 339.527 294.619">
  <defs>
    <style>
      .cls-1 {
        fill: #f6f8fe;
      }
    </style>
  </defs>
  <path id="Path_965" data-name="Path 965" class="cls-1" d="M315.732,90.426c-4.322-4.183-11.433-.139-15.894,3.9s-8.923,7.947-13.385,11.991c-3.346,3.067-6.971,6.135-11.433,6.832s-9.76-2.091-9.9-6.553c3.067-2.928,9.063,1.394,11.851-1.673,2.51-2.788-1.115-6.692-4.322-8.5-5.856-3.346-11.851-6.832-18.683-7.808-6.692-.976-14.361,1.394-17.846,7.111-2.928,5.019-2.37,11.433-5.438,16.452-1.813,3.067-4.88,5.3-6.971,8.366-2.091,2.928-2.928,7.39-.418,10.039,2.091,2.091,5.577,2.091,7.668,4.183,1.534,1.673,2.091,4.322,4.183,5.159,2.37.976,5.019-1.255,5.577-3.764s-.279-5.159-.7-7.668c-1.255-7.529,2.649-16.87,10.178-17.986,1.673,0,2.37,2.51,1.534,4.043s-2.231,2.649-3.067,4.183a5.707,5.707,0,0,0,3.346,7.808c3.346.837,8.784.139,8.366,3.486-.418,3.625-7.111,1.255-9.2,4.183-1.255,1.673-.139,4.183-.139,6.274,0,4.183-4.6,6.832-8.784,7.25-4.183.279-8.366-.976-12.548-.558s-8.644,3.346-8.5,7.529a113.821,113.821,0,0,1-17.846,6.553c.279,4.462,8.784,4.88,8.784,9.481,0,2.649-3.346,4.183-6.135,3.9-2.649-.139-5.438-1.255-8.087-.558-4.6,1.255-6.135,7.529-3.625,11.572,2.51,3.9,7.668,5.577,12.409,5.159,1.813-.139,3.9-.7,5.019-2.091s1.255-3.346,1.673-5.019a11.3,11.3,0,0,1,8.226-7.947c2.231-.558,4.88-.558,6.135-2.51a18.191,18.191,0,0,1,9.2,13.8c1.673,2.091,5.3-.558,4.88-3.207s-2.649-4.462-4.462-6.414-3.346-4.88-1.952-7.111a25.808,25.808,0,0,1,17.568,18.822,4.863,4.863,0,0,0,2.928-7.25c.976-2.091,4.322-.837,5.3,1.115s.837,4.6,2.37,6.414c4.043,5.3,15.058-1.115,18.4,4.6,2.37,4.043-2.928,8.784-7.668,8.644-4.6-.139-8.923-2.788-13.524-3.207-5.159-.558-10.178,1.673-15.2,2.231-5.159.558-11.433-1.394-12.548-6.414-.279-1.394-.139-2.788-.837-4.043-.976-1.673-3.346-2.091-5.3-1.813-8.5.976-17.149,9.76-24.26,4.88-4.462,8.784-15.476,11.991-21.611,19.8-6.692,8.366-6.135,21.332.418,29.837,6.414,8.5,17.986,12.548,28.582,11.154,2.37-.279,5.019-.837,7.25.139s3.625,3.067,5.577,4.6c1.813,1.534,5.019,2.37,6.553.418a15.267,15.267,0,0,0,1.255,13.664c2.789,4.322,7.947,7.668,7.808,12.827,0,2.649-1.534,5.019-2.37,7.529-3.346,11.712,10.457,21.193,12.688,33.183.558,3.207.558,7.111,3.346,8.923a9.056,9.056,0,0,0,4.322,1.115c7.668.558,17.428-1.813,18.962-9.341a34.075,34.075,0,0,0,.139-6.553,18.455,18.455,0,0,1,10.039-15.755c1.534-.837,3.346-1.394,4.6-2.649,2.788-2.789,2.231-7.39.7-11.015-1.394-3.625-3.486-7.25-3.067-11.154.837-6.274,7.529-9.481,12.548-13.245a36.18,36.18,0,0,0,14.221-23.7C307.645,246.3,299,248.116,293.7,243.1a21.763,21.763,0,0,1-4.043-6.414c-3.346-6.971-6.553-13.8-9.9-20.774a4.448,4.448,0,0,1-.558-2.928c.976-2.51,4.88-.418,6.274,1.813A218.588,218.588,0,0,1,299.7,240.447a57.332,57.332,0,0,0,23.7-10.317c2.231-1.673,4.462-3.625,5.159-6.274s-.7-6.135-3.346-6.553a24.679,24.679,0,0,0-3.207.139c-6.414.7-11.991-4.183-16.313-9.2,2.928-3.207,8.087-1.394,12.13.418a88.757,88.757,0,0,0,22.169,6.832,15.084,15.084,0,0,1,5.577,1.534,13.663,13.663,0,0,1,3.207,2.37,66.476,66.476,0,0,1,18.683,30.255c3.346.7,5.716-3.346,6-6.832s-.139-7.39,2.37-9.76c1.952-1.952,5.159-2.091,6.832-4.322,2.091-2.649.976-7.111,3.486-9.481,3.207-2.928,8.226.7,9.9,4.6s2.231,8.784,5.856,11.154c1.952-.279,3.765-.558,5.716-.837a44.085,44.085,0,0,0,9.341,26.909c3.207-1.673,1.813-6.692-.279-9.76s-4.043-7.668-1.115-9.9c4.043,0,5.856,5.577,9.76,6.553s7.39-3.625,6.692-7.668c-.7-3.9-4.043-6.832-7.529-8.784-3.207-3.486,1.394-8.923,6-9.76s9.62.558,13.8-1.534c5.019-2.51,6.692-9.063,5.577-14.5s-4.322-10.178-6.971-15.058c-2.231-4.183-3.346-10.736.976-12.548,1.115-.558,2.51-.418,3.765-.558,16.592-.7,30.395-18.265,27.048-34.577-.7-3.067-1.812-6.135-4.043-8.366-3.9-4.043-10.6-5.019-13.664-9.76-3.625-5.856.837-13.664,6.692-17.428,5.716-3.764,12.827-5.438,18.265-9.76,1.394,0,2.231-1.394,2.51-2.928a16.8,16.8,0,0,0,0-2.649,5.989,5.989,0,0,1,4.183-5.577,5.9,5.9,0,0,1,6.553,2.51c1.673,2.649.976,6-.279,8.784s-2.928,5.577-3.207,8.5c-.279,3.067,1.394,6.553,4.462,6.971,3.764.418,6.135-4.043,6.414-7.668.279-3.764-.418-7.808,1.534-11.015,3.067-4.74,11.433-5.856,11.712-11.572.139-4.6-5.577-7.25-6.692-11.712-.418-1.813,0-3.625.139-5.577a20.935,20.935,0,0,0-7.808-18.265A21.168,21.168,0,0,0,481.788,44c-2.091.7-4.183,1.813-6.414,2.37-3.207.837-6.553.558-9.9.418-6-.418-11.851-.837-17.846-1.255-5.3-.418-11.015-.7-15.616,1.813-6.832,3.625-10.736,12.688-18.544,13.524-5.438.7-10.317-3.067-15.476-5.159a25.845,25.845,0,0,0-25.1,3.9c-2.649-1.255-1.813-5.159-2.649-7.947-.976-2.928-4.043-4.6-7.111-4.88s-6,.7-8.923,1.534c-6.274,2.091-13.385,5.438-13.943,11.991-.139,1.813.279,3.764-.558,5.438-1.115,2.37-4.043,3.207-5.856,5.019-2.231,2.231-2.51,5.577-2.649,8.784-.139,3.067-.139,6.414-1.952,9.063C327.444,91.4,317.963,92.657,315.732,90.426Z" transform="translate(-176.283 -42.946)"/>
</svg>
