<svg xmlns="http://www.w3.org/2000/svg" viewBox="0 0 216.637 352.373">
  <defs>
    <style>
      .cls-1 {
        fill: #f6f8fe;
      }
    </style>
  </defs>
  <path id="Path_963" data-name="Path 963" class="cls-1" d="M82.555,64.353a16.585,16.585,0,0,0-7.808-.976c-2.37,2.231-6.553,2.789-9.76,3.067a46.936,46.936,0,0,0-11.293-8.226C51.045,56.824,47.838,55.429,47,52.5c-1.394-4.6-9.341-6.553-14.082-5.438-6-1.673-12.827.418-17.707,4.462-2.091,1.673.279,6,2.091,8.087s4.183,4.322,3.625,6.971C18.7,67.7,15.631,67.838,13.26,67.7c-1.534,0-2.928-.418-4.322.139a2.639,2.639,0,0,0-1.952,3.067c-.976,1.673-2.091,2.51-.976,4.183.837,1.255,2.37,2.231,2.37,3.764A2.985,2.985,0,0,1,6.289,81.5c-1.115.558-2.231.837-3.346,1.394C-.264,84.848-.264,89.449.154,93.214c2.091,2.51,2.37,6.832,1.394,9.9-.418,1.115-.976,2.37-.558,3.625.418,1.394,2.091,1.813,3.346,2.231,2.928.7,6.414,1.394,8.644-.558,6.135-5.019,15.616-2.51,23.423-.7,2.649.558,5.438,1.534,7.111,3.9,2.091,3.067,1.255,7.25-.558,10.457-1.673,3.207-4.183,6.135-5.3,9.62-.976,3.346-.7,6.832-.418,10.178.418,4.183.837,8.644,3.207,12.13a23.1,23.1,0,0,1,3.9,13.385c-.139,3.486-1.394,7.111-1.115,10.6.558,6.414,6.135,11.293,11.851,14.361a27.526,27.526,0,0,1,13.106,15.2c.976,3.207,1.394,6.692,2.231,9.9a28.448,28.448,0,0,0,9.62,14.5c3.346,2.649,8.784,3.625,13.106,4.322,2.231.418,4.6.7,6.135,2.231.7.7,1.255,1.534,2.091,2.231,3.486,3.486,10.039,2.091,13.524,5.438a25.652,25.652,0,0,1,2.37,3.067,10.955,10.955,0,0,0,9.063,3.9c-.837,2.649,2.37,5.716,1.394,8.226-.837,2.091-3.067,2.928-4.74,4.462-2.789,2.649-3.207,6.971-2.091,10.6,1.255,3.625,3.764,6.553,6.274,9.481,4.74,5.3,10.457,7.808,15.616,12.688,4.74,4.462,5.856,11.851,4.74,18.265s-3.9,12.548-5.856,18.822c-3.764,11.712-4.74,24.539-1.115,36.251s12.13,22.169,23.423,26.77c1.255.558,2.789-.418,3.764-1.394a3.164,3.164,0,0,0,.418-3.764c-2.091-3.764-5.716-6.971-8.366-10.317a6.225,6.225,0,0,1-1.673-3.625c.139-1.534,1.394-2.649,2.37-3.764a10.527,10.527,0,0,0,2.231-6.414c0-2.231-1.255-4.322-1.255-6.414.139-2.091,1.255-4.462,3.346-5.159a22.294,22.294,0,0,0,2.928-.7c2.928-1.255,2.51-5.856,4.6-8.226.976-1.115,2.51-1.673,3.764-2.37,5.716-2.788,10.457-8.226,11.015-14.5.418-5.019-1.394-11.154,2.37-14.5,3.486-3.067,8.923-.976,13.524-1.813,1.813-.279,3.067-2.091,4.043-3.764a9.437,9.437,0,0,0,.7-5.577c-.418-2.37-1.394-4.6-1.115-6.832.279-3.207,2.928-5.856,4.88-8.366a26.665,26.665,0,0,0,4.88-10.457c.976-4.322-1.813-9.481-5.716-11.572s-8.5-2.231-12.967-2.37-9.2-.418-12.827-3.067c-3.346-2.37-5.159-6.135-7.808-9.341-4.462-5.3-10.875-8.226-17.149-11.154-2.37-1.115-5.019-2.231-7.39-1.394a23.249,23.249,0,0,1-2.788,1.115c-2.788.558-5.019-2.091-7.39-3.346-5.159-2.788-12.409,1.255-12.967,6.971-2.649.976-7.529.139-9.063-2.231-1.115-1.673-1.534-4.043-3.346-4.88-.976-.418-2.231-.279-3.067-.976-1.394-1.115-.279-3.346,0-5.019.418-2.788-1.673-5.438-4.322-6.692-2.51-1.255-5.577-1.394-8.366-1.394-2.789-.139-5.856-.279-8.366-1.534-5.019-2.51-6.971-9.2-4.88-14.361,2.231-5.159,7.808-8.226,13.385-8.087,5.438.139,11.154,4.183,11.154,9.62,0,1.394,2.231,1.534,3.486.837a4.831,4.831,0,0,0,2.091-3.346,34.85,34.85,0,0,1,.7-4.043,7.8,7.8,0,0,1,7.25-5.3c3.346,0,5.716-3.346,8.087-5.577,2.37-2.37,3.764-5.856,2.788-9.063-.558-1.673-1.673-3.486-1.115-5.159.418-1.394,1.813-2.091,3.067-2.649a26.868,26.868,0,0,1,11.433-2.091c3.346.139,5.159-1.952,6.832-4.88,1.255-2.091,1.813-4.74,3.764-6.135,2.928-2.091,7.111-.279,10.736-.558,5.3-.418,9.481-6.414,7.947-11.433-.7-2.51-2.37-4.462-3.764-6.553a27.466,27.466,0,0,1-3.9-9.62c-.7-3.207-.837-6.692-2.928-9.063-3.207.139-7.25,0-10.039,1.534-.558-3.346-1.255-6.832-3.207-9.481-2.091-2.649-6-4.183-8.923-2.51-2.789,1.673-3.486,5.577-2.928,8.784s1.813,6.414,1.813,9.62c-.139,3.346-2.37,6.971-5.716,6.832-1.673,0-3.207-1.115-4.462-2.37-1.673-1.673-3.067-3.9-5.3-5.019-1.673-.837-3.625-.837-5.438-1.255a12.2,12.2,0,0,1-8.784-14.779c1.673-6.135,9.063-10.039,15.2-8.087,7.39-2.649,10.317-11.991,7.39-19.241S127.728,78.713,119.921,78.3c-2.231-.139-4.6.139-6.832-.418-6.274-1.534-9.62-8.5-15.058-11.991C94.824,63.655,86.6,65.886,82.555,64.353Z" transform="translate(0.038 -46.484)"/>
</svg>
