<svg xmlns="http://www.w3.org/2000/svg" viewBox="0 0 78.985 68.077">
  <defs>
    <style>
      .cls-1 {
        fill: #f6f8fe;
      }
    </style>
  </defs>
  <path id="Path_968" data-name="Path 968" class="cls-1" d="M380.818,231.289c-2.091,2.37-4.043,5.159-6.971,5.856-1.812.418-3.625,0-5.438.418-5.3,1.255-6.414,8.226-5.3,13.524,1.255,5.3,3.625,10.736,1.673,15.755a7.917,7.917,0,0,0-.976,3.067,4.663,4.663,0,0,0,1.952,3.207c4.74,3.625,11.572.976,16.87-1.813s11.572-6,16.87-3.067c5.577,3.067,6.135,10.875,9.62,16.173,3.067,4.74,9.76,7.529,14.5,4.6a13.5,13.5,0,0,0,3.9-4.043c2.37-3.067,4.74-6.274,7.111-9.341,3.207-4.043,6.414-8.5,6.971-13.664,1.115-9.9-7.668-17.846-15.616-23.981-.418-3.207-.837-6.414-2.51-9.2-3.207-5.577-9.9-6.135-8.087,1.673-5.159.139-9.341-7.529-15.2-8.226C393.505,221.39,385.279,226.27,380.818,231.289Z" transform="translate(-362.719 -222.132)"/>
</svg>
