<svg xmlns="http://www.w3.org/2000/svg" viewBox="0 0 83.745 97.486">
  <defs>
    <style>
      .cls-1 {
        fill: #f6f8fe;
      }
    </style>
  </defs>
  <path id="Path_964" data-name="Path 964" class="cls-1" d="M130.456,49.492c-2.37,3.625.279,8.644,3.764,11.293s7.947,4.183,10.736,7.668c4.462,5.438,3.207,13.664.7,20.217-2.51,6.692-5.856,13.385-5.019,20.356a25.316,25.316,0,0,0,3.486,9.341c1.673,2.788,4.043,5.438,7.25,6.135,4.043.976,8.087-1.394,11.015-4.183,3.067-2.788,5.716-6.135,9.341-7.947,5.3-2.649,12.13-1.673,16.731-5.3,5.716-4.6,4.88-13.245,6.414-20.5,2.649-11.991,13.106-20.914,17.149-32.486a17.4,17.4,0,0,0,1.255-7.111c-.139-7.808-6.692-14.221-14.082-16.87-9.063-3.207-18.265-1.255-27.467-1.673-5.019-.279-10.6-2.37-15.476-.279-7.529,3.207-5.3,10.6-10.317,15.058C141.749,47.261,133.8,44.333,130.456,49.492Z" transform="translate(-129.551 -27.24)"/>
</svg>
