<svg xmlns="http://www.w3.org/2000/svg" viewBox="0 0 30.813 83.023">
  <defs>
    <style>
      .cls-1 {
        fill: #303c5e;
      }

      .cls-2 {
        fill: #ffbb80;
      }

      .cls-3 {
        fill: #fff;
      }

      .cls-4 {
        fill: none;
        stroke: #0f1e51;
        stroke-miterlimit: 10;
        stroke-width: 0.25px;
      }
    </style>
  </defs>
  <g id="Group_589" data-name="Group 589" transform="translate(0 0)">
    <path id="Path_1053" data-name="Path 1053" class="cls-1" d="M59.048,139.8s-.279,5.3-.7,5.716a1.584,1.584,0,0,1-2.231-.279c-.418-.7,1.115-5.3,1.115-5.3Z" transform="translate(-51.519 -62.837)"/>
    <path id="Path_1054" data-name="Path 1054" class="cls-1" d="M67.975,106.3l1.673,10.317-1.255,20.774-1.115,15.476c-.139.7.279,1.115-.418,1.255h0a1.523,1.523,0,0,1-1.813-1.673l.418-16.313.558-15.058-3.625.279L60.725,139.2l-2.091,14.082L57.1,153.7l.418-15.337,1.673-20.5.976-6.692,3.486-.7Z" transform="translate(-51.105 -76.045)"/>
    <path id="Path_1055" data-name="Path 1055" class="cls-1" d="M64.891,139.818l3.764,1.952-.279.418a3.53,3.53,0,0,1-2.37-.279L62.8,140.515V139.4Z" transform="translate(-48.857 -62.995)"/>
    <g id="Group_588" data-name="Group 588" transform="translate(5.577 7.668)">
      <path id="Path_1056" data-name="Path 1056" class="cls-1" d="M56.8,93.167A3.067,3.067,0,1,0,59.867,90.1,3.007,3.007,0,0,0,56.8,93.167Z" transform="translate(-56.8 -90.1)"/>
      <path id="Path_1057" data-name="Path 1057" class="cls-2" d="M63.449,98.694s.7,4.88.279,5.3-2.231-.837-2.37-1.115c-.139-1.255-.558-5.577-.558-5.577Z" transform="translate(-55.223 -87.261)"/>
      <path id="Path_1058" data-name="Path 1058" class="cls-2" d="M58.951,97.684c.7,2.649,3.067,4.462,5.3,3.9,2.37-.558,3.625-3.207,3.067-5.856-.7-2.649-3.067-4.462-5.3-3.9C59.648,92.386,58.254,94.9,58.951,97.684Z" transform="translate(-56.023 -89.458)"/>
      <path id="Path_1059" data-name="Path 1059" class="cls-3" d="M64.89,99.615s-.139,3.486-.418,3.207a23.985,23.985,0,0,1-2.091-2.788L58.894,104.5l1.534,8.087-2.928,4.88c6.274,5.159,12.548.279,12.548.279l-1.394-6.692a3.066,3.066,0,0,1,.279-1.952l.558-1.115a3.066,3.066,0,0,0,.279-1.952l-.558-2.928.139-4.6Z" transform="translate(-56.524 -86.788)"/>
      <path id="Path_1060" data-name="Path 1060" class="cls-1" d="M61.01,93.87c1.115-.139,2.37-.279,3.486-.418.558-.139,1.115-.139,1.534-.279A4.234,4.234,0,0,0,63.1,91.5a5.99,5.99,0,0,0-3.207,1.394c-.279.279-.7.558-.837.976a4.952,4.952,0,0,0-.558,1.255c0,1.534.139,3.486,1.394,4.6.139-.418.558-1.255.418-1.673s-.837-.7-.976-1.115a1.583,1.583,0,0,1,.418-1.115c.418-.139.837.837,1.115,1.115A10.218,10.218,0,0,0,61.01,93.87Z" transform="translate(-56.13 -89.548)"/>
      <path id="Path_1061" data-name="Path 1061" class="cls-4" d="M64.11,94.973A1.494,1.494,0,0,0,65.5,96.367c.7,0,.976-.837.837-1.673A1.494,1.494,0,0,0,64.946,93.3C64.249,93.3,63.97,94.137,64.11,94.973Z" transform="translate(-53.932 -88.838)"/>
      <path id="Path_1062" data-name="Path 1062" class="cls-4" d="M62.108,95.573A1.494,1.494,0,0,0,63.5,96.967a1.408,1.408,0,0,0,.837-1.673A1.494,1.494,0,0,0,62.944,93.9,1.408,1.408,0,0,0,62.108,95.573Z" transform="translate(-54.718 -88.602)"/>
    </g>
    <path id="Path_1063" data-name="Path 1063" class="cls-3" d="M75.739,85.8,72.114,96.257l-6.135,7.529-.279,4.88,9.2-10.457s3.067-10.317,2.788-10.736A15.89,15.89,0,0,0,75.739,85.8Z" transform="translate(-47.714 -84.127)"/>
    <path id="Path_1064" data-name="Path 1064" class="cls-3" d="M62.981,102.755l-.7-1.255-1.673,1.952-5.3,9.76L53.5,122s1.952,1.255,2.091.7a50.836,50.836,0,0,1,3.067-8.5,72.525,72.525,0,0,1,4.6-7.111Z" transform="translate(-52.524 -77.937)"/>
    <circle id="Ellipse_60" data-name="Ellipse 60" class="cls-2" cx="1.534" cy="1.534" r="1.534" transform="translate(27.746)"/>
    <circle id="Ellipse_61" data-name="Ellipse 61" class="cls-2" cx="1.534" cy="1.534" r="1.534" transform="translate(0 44.198)"/>
  </g>
</svg>
