<svg xmlns="http://www.w3.org/2000/svg" viewBox="0 0 31.789 75.773">
  <defs>
    <style>
      .cls-1 {
        fill: #303c5e;
      }

      .cls-2 {
        fill: #fdfefe;
      }

      .cls-3 {
        fill: #ffbb80;
      }

      .cls-4 {
        fill: #46debf;
      }

      .cls-5 {
        fill: #27234c;
      }
    </style>
  </defs>
  <g id="Group_636" data-name="Group 636" transform="translate(0 0)">
    <path id="Path_1127" data-name="Path 1127" class="cls-1" d="M400.688,235.537s-.418,4.183-.837,4.74A1.584,1.584,0,0,1,397.62,240c-.418-.7,1.115-5.3,1.115-5.3Z" transform="translate(-388.279 -164.848)"/>
    <path id="Path_1128" data-name="Path 1128" class="cls-1" d="M413.237,200l1.255,11.015-.976,20.5-2.091,16.87a1.637,1.637,0,0,1-1.255,1.394h0a1.685,1.685,0,0,1-1.952-1.673l.418-16.592.558-15.2-3.625.279L403.9,233.044,401.8,248.8a2.112,2.112,0,0,1-2.091,1.813h0a2.343,2.343,0,0,1-2.51-2.51l1.813-15.755-.279-25.933,4.322-.139,3.486-.7Z" transform="translate(-388.419 -178.529)"/>
    <path id="Path_1129" data-name="Path 1129" class="cls-1" d="M407.47,235.018l4.74,2.37-.7.139a4.752,4.752,0,0,1-3.067-.418l-3.346-1.394V234.6Z" transform="translate(-385.302 -164.887)"/>
    <path id="Path_1130" data-name="Path 1130" class="cls-1" d="M408.288,193.3l1.673.976a6.821,6.821,0,0,1,3.346,4.462l1.115,5.716-6.692,2.37-2.231-6Z" transform="translate(-385.144 -181.17)"/>
    <path id="Path_1131" data-name="Path 1131" class="cls-1" d="M391.8,222.937l8.366-25.375a5.9,5.9,0,0,1,4.88-4.043l2.928-.418,5.716.139,2.37,2.928.7,16.173a6.52,6.52,0,0,1-6.832,4.183c-5.438-.279-8.923-6.274-8.923-6.274v-1.394c-2.789,6-7.111,14.918-7.111,14.918Z" transform="translate(-390.545 -181.249)"/>
    <path id="Path_1132" data-name="Path 1132" class="cls-2" d="M404.4,194.173l2.231,10.039,1.673-10.457-.7-.976-1.813-.279Z" transform="translate(-385.578 -181.485)"/>
    <path id="Path_1133" data-name="Path 1133" class="cls-3" d="M390.9,216.191a2.091,2.091,0,1,0,4.183,0,2.091,2.091,0,1,0-4.183,0Z" transform="translate(-390.9 -172.97)"/>
    <path id="Path_1134" data-name="Path 1134" class="cls-2" d="M409.156,193.931l.139-1.813L407.2,191.7l-3.207.139-.7,1.813,2.649,2.51.7-1.115a17.405,17.405,0,0,1,1.673,1.115Z" transform="translate(-386.011 -181.801)"/>
    <path id="Path_1135" data-name="Path 1135" class="cls-1" d="M407.846,194.276l-1.115-.976-.976.837.7,1.952L404.5,207.8l1.952,1.534,1.534-1.394-.837-11.991Z" transform="translate(-385.538 -181.17)"/>
    <path id="Path_1136" data-name="Path 1136" class="cls-4" d="M415.793,198.1l-9.9.837L404.5,211.206l9.341-.976Z" transform="translate(-385.538 -179.278)"/>
    <path id="Path_1137" data-name="Path 1137" class="cls-3" d="M411.3,203.752a1.693,1.693,0,1,0,1.673-1.952A1.955,1.955,0,0,0,411.3,203.752Z" transform="translate(-382.857 -177.819)"/>
    <path id="Path_1138" data-name="Path 1138" class="cls-3" d="M402.7,190.177c-.139,3.207,1.952,5.856,4.74,6s5.159-2.37,5.3-5.577-1.952-5.856-4.74-6A5.641,5.641,0,0,0,402.7,190.177Z" transform="translate(-386.25 -184.6)"/>
    <path id="Path_1139" data-name="Path 1139" class="cls-5" d="M411.368,187.21a5.686,5.686,0,0,1-6.135.418,6.192,6.192,0,0,1-1.534-1.115,5.126,5.126,0,0,1,3.765-1.813A4.722,4.722,0,0,1,411.368,187.21Z" transform="translate(-385.854 -184.561)"/>
    <path id="Path_1140" data-name="Path 1140" class="cls-5" d="M404.691,185.5a5.688,5.688,0,0,1-.837,5.856l-.837.837a6.512,6.512,0,0,1-.418-2.37A6.4,6.4,0,0,1,404.691,185.5Z" transform="translate(-386.287 -184.245)"/>
  </g>
</svg>
