<svg xmlns="http://www.w3.org/2000/svg" viewBox="0 0 63.717 71.56">
  <defs>
    <style>
      .cls-1 {
        fill: #202a46;
      }

      .cls-2 {
        fill: #303c5e;
      }

      .cls-3 {
        fill: #fdfefe;
      }

      .cls-4 {
        fill: #46debf;
      }

      .cls-5 {
        fill: #ffbb80;
      }

      .cls-6 {
        fill: #fff;
      }

      .cls-7 {
        fill: #ff8820;
      }
    </style>
  </defs>
  <g id="Group_584" data-name="Group 584" transform="translate(0 0)">
    <g id="Group_582" data-name="Group 582" transform="translate(34.717)">
      <path id="Path_996" data-name="Path 996" class="cls-1" d="M293.491,78.4,291.4,95.968l4.6-.139s2.928-3.625,2.928-4.322c0-.558,2.928-2.37,1.255-4.322C298.65,85.092,293.491,78.4,293.491,78.4Z" transform="translate(-279.549 -64.57)"/>
      <path id="Path_997" data-name="Path 997" class="cls-2" d="M298.623,75.8l-4.043.837a2.91,2.91,0,0,0-1.534,2.231L289.7,102.012l2.37.139,3.346-18.683Z" transform="translate(-280.219 -65.595)"/>
      <path id="Path_998" data-name="Path 998" class="cls-2" d="M294.076,81.4l-.976,9.2.837,17.289,1.813,14.221a1.513,1.513,0,0,0,1.115,1.115h0a1.3,1.3,0,0,0,1.534-1.394l-.418-13.943-.418-12.827,3.067.279,1.394,13.8,1.813,19.1a1.782,1.782,0,0,0,1.673,1.534h0a1.907,1.907,0,0,0,2.091-2.091l-1.534-19.1-.976-17.01-2.37-5.019-2.928-.7Z" transform="translate(-278.879 -63.387)"/>
      <path id="Path_999" data-name="Path 999" class="cls-3" d="M294.255,78.236a2.632,2.632,0,0,1,3.486-2.091c.7.139,5.577.418,5.577.418l1.534,2.789-.7,2.37.7,12.688s-5.856,1.673-7.808.837A16.161,16.161,0,0,1,293,92.318l.837-13.245Z" transform="translate(-278.918 -65.521)"/>
      <path id="Path_1000" data-name="Path 1000" class="cls-2" d="M296.643,110.818,292.6,112.77l.558.139a5.763,5.763,0,0,0,2.649-.279l2.789-1.255V110.4Z" transform="translate(-279.076 -51.953)"/>
      <path id="Path_1001" data-name="Path 1001" class="cls-2" d="M301.3,115.5a30.828,30.828,0,0,0,.7,4.043,1.378,1.378,0,0,0,1.952-.279c.418-.558-.976-4.462-.976-4.462Z" transform="translate(-275.646 -50.219)"/>
      <path id="Path_1002" data-name="Path 1002" class="cls-3" d="M295.5,75.912c0-.139.279-1.394.279-1.394a33.881,33.881,0,0,1,3.764,0c.139.279.558,4.322.558,4.322s-2.928-.139-3.067-.139a11.054,11.054,0,0,1-1.255-.558Z" transform="translate(-277.932 -66.125)"/>
      <path id="Path_1003" data-name="Path 1003" class="cls-4" d="M295.7,75.5l1.813.139-.976,1.534Z" transform="translate(-277.854 -65.713)"/>
      <path id="Path_1004" data-name="Path 1004" class="cls-4" d="M294.9,87.754l.7,1.534,1.534-1.394V76.6l-.558.139Z" transform="translate(-278.169 -65.279)"/>
      <path id="Path_1005" data-name="Path 1005" class="cls-5" d="M298.485,68.5a3.749,3.749,0,0,0-4.043,3.346l-.139,2.37a3.711,3.711,0,1,0,7.39.7l.139-2.37A3.714,3.714,0,0,0,298.485,68.5Z" transform="translate(-278.408 -68.475)"/>
      <path id="Path_1006" data-name="Path 1006" class="cls-2" d="M301.456,72.412a3.7,3.7,0,0,0-3.346-3.9,3.806,3.806,0,0,0-2.51.7,6.088,6.088,0,0,0,2.091,1.394l1.673.837A9.612,9.612,0,0,0,301.456,72.412Z" transform="translate(-277.893 -68.48)"/>
      <path id="Path_1007" data-name="Path 1007" class="cls-2" d="M300.013,71.952A4.454,4.454,0,0,0,299.6,70a1.982,1.982,0,0,0-.279.837,2.9,2.9,0,0,0,.139,1.534c.139.279.139.558.418.7a.137.137,0,0,1,.139.139Z" transform="translate(-276.451 -67.881)"/>
      <path id="Path_1008" data-name="Path 1008" class="cls-2" d="M306.847,76.3c-.976.7-22.447,16.313-22.447,16.313l.558,1.952,22.866-13.106.7-2.37Z" transform="translate(-282.309 -65.397)"/>
      <path id="Path_1009" data-name="Path 1009" class="cls-2" d="M298.4,76l.976,23.981,6.414-1.813-2.928-18.962-.418-1.673a2.883,2.883,0,0,0-1.952-1.394Z" transform="translate(-276.789 -65.516)"/>
      <path id="Path_1010" data-name="Path 1010" class="cls-5" d="M292.625,96.413a1.813,1.813,0,1,1-1.813-1.813A1.846,1.846,0,0,1,292.625,96.413Z" transform="translate(-280.495 -58.183)"/>
      <path id="Path_1011" data-name="Path 1011" class="cls-5" d="M286.525,89.313a1.813,1.813,0,1,1-1.813-1.813A1.846,1.846,0,0,1,286.525,89.313Z" transform="translate(-282.9 -60.982)"/>
    </g>
    <g id="Group_583" data-name="Group 583" transform="translate(0 1.952)">
      <path id="Path_1012" data-name="Path 1012" class="cls-6" d="M272.162,83.2l18.544,11.433.558-1.952S273.974,78.734,273,78.037L271.6,77.2H268.4l-.7,2.789a13.4,13.4,0,0,0,.976,2.789A16.834,16.834,0,0,0,272.162,83.2Z" transform="translate(-254.176 -66.995)"/>
      <path id="Path_1013" data-name="Path 1013" class="cls-6" d="M272.082,77.1l-4.043.279a7.235,7.235,0,0,0-2.51,2.231L258,89.788l8.784,9.341.837-4.043-5.856-5.3,6.692-7.25Z" transform="translate(-258 -67.034)"/>
      <path id="Path_1014" data-name="Path 1014" class="cls-2" d="M274.894,90l1.673,1.394v16.731l-1.812,14.221a1.513,1.513,0,0,1-1.115,1.115h0a1.3,1.3,0,0,1-1.534-1.394l.418-13.943.418-12.827-3.067.279-1.394,13.8-1.813,19.1A1.782,1.782,0,0,1,265,130.019h0a1.907,1.907,0,0,1-2.091-2.091l1.534-19.1.976-17.01,2.37-5.019,2.928-.7Z" transform="translate(-256.072 -63.486)"/>
      <path id="Path_1015" data-name="Path 1015" class="cls-6" d="M274.739,80.457c-.279-1.673-1.255-3.486-2.928-2.928-.7.139-5.577.418-5.577.418L264.7,80.736l.7,2.37-.7,12.688s5.856,1.673,7.808.837c1.813-.837,3.486-1.813,3.486-1.813l-.558-10.875Z" transform="translate(-255.359 -66.905)"/>
      <path id="Path_1016" data-name="Path 1016" class="cls-2" d="M271.352,112.318l4.043,1.952-.558.139a5.763,5.763,0,0,1-2.649-.279l-2.788-1.255V111.9Z" transform="translate(-253.506 -53.314)"/>
      <path id="Path_1017" data-name="Path 1017" class="cls-2" d="M265.771,116.9a30.829,30.829,0,0,1-.7,4.043,1.378,1.378,0,0,1-1.952-.279c-.418-.558.976-4.462.976-4.462Z" transform="translate(-256.012 -51.619)"/>
      <path id="Path_1018" data-name="Path 1018" class="cls-3" d="M272.1,77.312c0-.139-.279-1.394-.279-1.394a33.882,33.882,0,0,0-3.764,0c-.139.279-.558,4.322-.558,4.322s2.928-.139,3.067-.139a11.056,11.056,0,0,0,1.255-.558Z" transform="translate(-254.255 -67.525)"/>
      <path id="Path_1019" data-name="Path 1019" class="cls-7" d="M271.713,76.7l-1.813.139.976,1.534Z" transform="translate(-253.308 -67.192)"/>
      <path id="Path_1020" data-name="Path 1020" class="cls-7" d="M272.77,88.954l-.837,1.534L270.4,89.093V77.8l.558.139Z" transform="translate(-253.111 -66.758)"/>
      <path id="Path_1021" data-name="Path 1021" class="cls-5" d="M269.955,70A3.749,3.749,0,0,1,274,73.349l.139,2.37a3.711,3.711,0,1,1-7.39.7l-.139-2.37A3.566,3.566,0,0,1,269.955,70Z" transform="translate(-254.619 -69.836)"/>
      <path id="Path_1022" data-name="Path 1022" class="cls-2" d="M266.5,73.812a3.7,3.7,0,0,1,3.346-3.9,3.806,3.806,0,0,1,2.51.7A6.088,6.088,0,0,1,270.267,72l-1.673.837A5.754,5.754,0,0,1,266.5,73.812Z" transform="translate(-254.651 -69.88)"/>
      <path id="Path_1023" data-name="Path 1023" class="cls-2" d="M266.5,73.352a4.453,4.453,0,0,1,.418-1.952,2.355,2.355,0,0,1,.279.7,2.9,2.9,0,0,1-.139,1.534c-.139.279-.139.558-.418.7a.137.137,0,0,0-.139.139Z" transform="translate(-254.649 -69.281)"/>
      <circle id="Ellipse_56" data-name="Ellipse 56" class="cls-5" cx="1.813" cy="1.813" r="1.813" transform="translate(7.668 28.749)"/>
      <circle id="Ellipse_57" data-name="Ellipse 57" class="cls-5" cx="1.813" cy="1.813" r="1.813" transform="translate(34.577 24.008)"/>
    </g>
  </g>
</svg>
