<svg xmlns="http://www.w3.org/2000/svg" viewBox="0 0 35.396 76.191">
  <defs>
    <style>
      .cls-1 {
        fill: #303c5e;
      }

      .cls-2 {
        fill: #eac1ce;
      }

      .cls-3 {
        fill: #46debf;
      }

      .cls-4 {
        fill: #ffbb80;
      }

      .cls-5 {
        fill: #fdfefe;
      }

      .cls-6 {
        fill: #ff8820;
      }
    </style>
  </defs>
  <g id="Group_581" data-name="Group 581" transform="translate(0 0)">
    <path id="Path_983" data-name="Path 983" class="cls-1" d="M376.2,71.5s.279,5.159.7,5.577a1.584,1.584,0,0,0,2.231-.279c.418-.7-1.115-5.159-1.115-5.159Z" transform="translate(-351.261 -1.23)"/>
    <path id="Path_984" data-name="Path 984" class="cls-1" d="M370.352,38.9,368.4,47.126l.558,21.611,2.091,15.616c.139.7-.279.976.418,1.115h0a1.546,1.546,0,0,0,1.813-1.534V53.4l1.813.139,1.394,17.428,2.928,13.664,1.534.279-.418-14.919-.139-22.866L378.02,43.5l-3.346-.7Z" transform="translate(-354.336 -14.082)"/>
    <path id="Path_985" data-name="Path 985" class="cls-1" d="M371.325,71.518,367.7,73.47l.279.418a3.53,3.53,0,0,0,2.37-.279l3.207-1.394V71.1Z" transform="translate(-354.612 -1.387)"/>
    <path id="Path_986" data-name="Path 986" class="cls-2" d="M376.856,31.958,371,31.4l1.813,5.856Z" transform="translate(-353.311 -17.039)"/>
    <path id="Path_987" data-name="Path 987" class="cls-1" d="M380,27.4a5.3,5.3,0,1,1-5.3-5.3A5.209,5.209,0,0,1,380,27.4Z" transform="translate(-353.942 -20.706)"/>
    <path id="Path_988" data-name="Path 988" class="cls-1" d="M379.356,24.028a2.928,2.928,0,1,1-2.928-2.928A2.945,2.945,0,0,1,379.356,24.028Z" transform="translate(-352.325 -21.1)"/>
    <path id="Path_989" data-name="Path 989" class="cls-3" d="M374.679,31.4s-9.063,8.5-9.2,8.226c-.139-.418-4.322-7.808-4.322-7.808l-1.255.7,4.043,9.76a1.486,1.486,0,0,0,1.952.837l8.923-3.764Z" transform="translate(-357.687 -17.039)"/>
    <path id="Path_990" data-name="Path 990" class="cls-4" d="M374.162,22.8a4.4,4.4,0,0,0-4.462,4.462V30.05a4.462,4.462,0,0,0,8.923,0V27.262A4.586,4.586,0,0,0,374.162,22.8Z" transform="translate(-353.823 -20.43)"/>
    <path id="Path_991" data-name="Path 991" class="cls-1" d="M373.767,22.8a4.4,4.4,0,0,1,4.462,4.462v2.231a3.849,3.849,0,0,1-2.37-3.625,2.067,2.067,0,0,1,.139-.976,4.213,4.213,0,0,1-2.231.7,3.7,3.7,0,0,1-3.067-1.534A3.893,3.893,0,0,1,373.767,22.8Z" transform="translate(-353.429 -20.43)"/>
    <path id="Path_992" data-name="Path 992" class="cls-3" d="M369.734,42.036l-1.394-1.952a3.029,3.029,0,0,1-.139-3.067l.837-1.534c1.115-1.534,1.255-3.9,2.51-4.183l8.923.837.279.139c.7.418,1.115,3.486.139,6.553a22.093,22.093,0,0,1-2.649,4.183l2.37,6.832a3.725,3.725,0,0,1-2.789,1.255c-2.37.139-7.668-.139-9.341-1.255Z" transform="translate(-354.555 -17.079)"/>
    <path id="Path_993" data-name="Path 993" class="cls-5" d="M377.1,32.1" transform="translate(-350.906 -16.763)"/>
    <path id="Path_994" data-name="Path 994" class="cls-3" d="M377.888,32.1l6.832,10.875-2.51,11.572-1.813.279.279-11.572L375.1,35.725Z" transform="translate(-351.694 -16.763)"/>
    <path id="Path_995" data-name="Path 995" class="cls-6" d="M384.963,47.7,375.9,50.907l1.534,8.644,9.342-3.486Z" transform="translate(-351.379 -10.613)"/>
    <circle id="Ellipse_54" data-name="Ellipse 54" class="cls-2" cx="1.534" cy="1.534" r="1.534" transform="translate(28.285 37.366)"/>
    <g id="Group_580" data-name="Group 580" transform="translate(0 10.363)">
      <rect id="Rectangle_230" data-name="Rectangle 230" class="cls-1" width="7.39" height="0.418" transform="matrix(0.77, -0.638, 0.638, 0.77, 0, 4.717)"/>
    </g>
    <circle id="Ellipse_55" data-name="Ellipse 55" class="cls-4" cx="1.534" cy="1.534" r="1.534" transform="translate(0.958 12.688)"/>
  </g>
</svg>
