<svg xmlns="http://www.w3.org/2000/svg" viewBox="0 0 31.65 74.803">
  <defs>
    <style>
      .cls-1 {
        fill: #303c5e;
      }

      .cls-2 {
        fill: #fdfefe;
      }

      .cls-3 {
        fill: #ffbb80;
      }

      .cls-4 {
        fill: #46debf;
      }

      .cls-5 {
        fill: #ff8820;
      }

      .cls-6 {
        fill: #27234c;
      }
    </style>
  </defs>
  <g id="Group_598" data-name="Group 598" transform="translate(0 0)">
    <path id="Path_1087" data-name="Path 1087" class="cls-1" d="M191.7,180.137s.418,4.183.837,4.74a1.584,1.584,0,0,0,2.231-.279c.418-.7-1.115-5.3-1.115-5.3Z" transform="translate(-172.459 -110.418)"/>
    <path id="Path_1088" data-name="Path 1088" class="cls-1" d="M183.255,145.1,182,155.975l.976,20.356,2.091,16.731a1.636,1.636,0,0,0,1.255,1.394h0a1.523,1.523,0,0,0,1.813-1.673l-.418-16.313-.558-15.058,3.625.279L192.457,178l2.091,15.616a2.112,2.112,0,0,0,2.091,1.813h0a2.343,2.343,0,0,0,2.51-2.51l-1.813-15.616.279-25.654-4.322-.139-3.486-.7Z" transform="translate(-176.284 -123.902)"/>
    <path id="Path_1089" data-name="Path 1089" class="cls-1" d="M186.14,179.618l-4.74,2.37.7.139a4.752,4.752,0,0,0,3.067-.418l3.207-1.394V179.2Z" transform="translate(-176.52 -110.458)"/>
    <path id="Path_1090" data-name="Path 1090" class="cls-1" d="M185.8,138.4l-1.673.976a6.267,6.267,0,0,0-3.207,4.322l-1.115,5.716,6.692,2.37,2.091-5.856Z" transform="translate(-177.151 -126.543)"/>
    <path id="Path_1091" data-name="Path 1091" class="cls-1" d="M206.539,167.619l-8.226-25.1a5.74,5.74,0,0,0-4.74-3.9l-2.928-.418-5.716.139-2.231,2.928L182,157.3s1.255,4.322,6.832,4.183c5.438-.279,8.784-6.135,8.784-6.135v-1.394c2.788,6,7.111,14.779,7.111,14.779Z" transform="translate(-176.284 -126.622)"/>
    <path id="Path_1092" data-name="Path 1092" class="cls-2" d="M188.3,139.234l-2.231,9.9L184.4,138.815l.7-.976,1.813-.139Z" transform="translate(-175.337 -126.819)"/>
    <path id="Path_1093" data-name="Path 1093" class="cls-3" d="M201.783,161.1A2.091,2.091,0,1,1,199.691,159,1.973,1.973,0,0,1,201.783,161.1Z" transform="translate(-170.133 -118.425)"/>
    <path id="Path_1094" data-name="Path 1094" class="cls-2" d="M184.139,138.991,184,137.318l1.952-.418,3.207.139.7,1.813-2.649,2.37s-.558-1.115-.7-1.115a17.408,17.408,0,0,0-1.673,1.115Z" transform="translate(-175.495 -127.134)"/>
    <path id="Path_1095" data-name="Path 1095" class="cls-4" d="M184.739,139.376l1.115-.976.976.837-.7,1.952,1.813,11.433-1.813,1.673L184.6,152.9l.837-11.851Z" transform="translate(-175.259 -126.543)"/>
    <path id="Path_1096" data-name="Path 1096" class="cls-5" d="M179,143.2l9.9.7,1.255,12.13-9.2-.976Z" transform="translate(-177.466 -124.651)"/>
    <path id="Path_1097" data-name="Path 1097" class="cls-3" d="M181.246,148.752a1.773,1.773,0,0,1-1.673,1.952,1.865,1.865,0,0,1-1.673-1.952,1.773,1.773,0,0,1,1.673-1.952A1.955,1.955,0,0,1,181.246,148.752Z" transform="translate(-177.9 -123.231)"/>
    <path id="Path_1098" data-name="Path 1098" class="cls-3" d="M191.662,135.339c.139,3.207-1.952,5.856-4.6,5.856-2.788.139-5.019-2.37-5.159-5.438-.139-3.207,1.952-5.856,4.6-5.856C189.152,129.762,191.522,132.132,191.662,135.339Z" transform="translate(-176.325 -129.896)"/>
    <path id="Path_1099" data-name="Path 1099" class="cls-6" d="M182.4,132.41a5.981,5.981,0,0,0,6.135.418,6.191,6.191,0,0,0,1.534-1.115A5.125,5.125,0,0,0,186.3,129.9,4.446,4.446,0,0,0,182.4,132.41Z" transform="translate(-176.126 -129.894)"/>
    <path id="Path_1100" data-name="Path 1100" class="cls-6" d="M187.533,130.7a5.724,5.724,0,0,0,.837,5.856l.837.837a4.475,4.475,0,0,0,.279-2.37A5.753,5.753,0,0,0,187.533,130.7Z" transform="translate(-174.288 -129.579)"/>
  </g>
</svg>
