<svg xmlns="http://www.w3.org/2000/svg" viewBox="0 0 63.717 71.56">
  <defs>
    <style>
      .cls-1 {
        fill: #27234c;
      }

      .cls-2 {
        fill: #fdfefe;
      }

      .cls-3 {
        fill: #e48f9b;
      }

      .cls-4 {
        fill: #eac1ce;
      }
    </style>
  </defs>
  <g id="Group_587" data-name="Group 587" transform="translate(0 0)">
    <g id="Group_585" data-name="Group 585" transform="translate(34.717)">
      <path id="Path_1024" data-name="Path 1024" class="cls-1" d="M60.491,33.4,58.4,50.968l4.6-.139s2.928-3.625,2.928-4.322c0-.558,2.928-2.37,1.255-4.322C65.65,40.092,60.491,33.4,60.491,33.4Z" transform="translate(-46.549 -19.57)"/>
      <path id="Path_1025" data-name="Path 1025" class="cls-1" d="M65.623,30.8l-4.043.837a2.91,2.91,0,0,0-1.534,2.231L56.7,57.012l2.37.139,3.346-18.683Z" transform="translate(-47.219 -20.595)"/>
      <path id="Path_1026" data-name="Path 1026" class="cls-1" d="M61.076,36.4,60.1,45.6l.837,17.289,1.813,14.221a1.513,1.513,0,0,0,1.115,1.115h0A1.3,1.3,0,0,0,65.4,76.833L64.98,62.891l-.418-12.827,3.067.279,1.394,13.8,1.813,19.1a1.782,1.782,0,0,0,1.673,1.534h0A1.907,1.907,0,0,0,74.6,82.689L72.927,63.727l-.976-17.01L69.581,41.7,66.653,41Z" transform="translate(-45.879 -18.387)"/>
      <path id="Path_1027" data-name="Path 1027" class="cls-2" d="M61.255,33.236a2.632,2.632,0,0,1,3.486-2.091c.7.139,5.577.418,5.577.418l1.534,2.789-.7,2.37.7,12.688s-5.856,1.673-7.808.837A19.768,19.768,0,0,1,60,47.318l.837-13.245Z" transform="translate(-45.918 -20.521)"/>
      <path id="Path_1028" data-name="Path 1028" class="cls-1" d="M63.643,65.818,59.6,67.77l.558.139a5.763,5.763,0,0,0,2.649-.279L65.6,66.376V65.4Z" transform="translate(-46.076 -6.953)"/>
      <path id="Path_1029" data-name="Path 1029" class="cls-1" d="M68.3,70.5A30.832,30.832,0,0,0,69,74.54a1.378,1.378,0,0,0,1.952-.279c.418-.558-.976-4.462-.976-4.462Z" transform="translate(-42.646 -5.219)"/>
      <path id="Path_1030" data-name="Path 1030" class="cls-2" d="M62.5,30.912c0-.139.279-1.394.279-1.394a33.88,33.88,0,0,1,3.764,0c.139.279.558,4.322.558,4.322s-2.928-.139-3.067-.139a11.057,11.057,0,0,1-1.255-.558Z" transform="translate(-44.932 -21.125)"/>
      <path id="Path_1031" data-name="Path 1031" class="cls-3" d="M62.7,30.5l1.813.139-.976,1.534Z" transform="translate(-44.854 -20.713)"/>
      <path id="Path_1032" data-name="Path 1032" class="cls-3" d="M61.9,42.754l.7,1.534,1.534-1.394V31.6l-.558.139Z" transform="translate(-45.169 -20.279)"/>
      <path id="Path_1033" data-name="Path 1033" class="cls-4" d="M65.485,23.5a3.749,3.749,0,0,0-4.043,3.346l-.139,2.37a3.711,3.711,0,0,0,7.39.7l.139-2.37A3.714,3.714,0,0,0,65.485,23.5Z" transform="translate(-45.408 -23.475)"/>
      <path id="Path_1034" data-name="Path 1034" class="cls-1" d="M68.456,27.412a3.7,3.7,0,0,0-3.346-3.9,3.806,3.806,0,0,0-2.51.7A6.088,6.088,0,0,0,64.691,25.6l1.673.837A9.612,9.612,0,0,0,68.456,27.412Z" transform="translate(-44.893 -23.48)"/>
      <path id="Path_1035" data-name="Path 1035" class="cls-1" d="M67.013,26.952A4.453,4.453,0,0,0,66.6,25a2.355,2.355,0,0,0-.279.7,2.9,2.9,0,0,0,.139,1.534c.139.279.139.558.418.7a.137.137,0,0,1,.139.139Z" transform="translate(-43.451 -22.881)"/>
      <path id="Path_1036" data-name="Path 1036" class="cls-1" d="M73.847,31.3C72.871,32,51.4,47.613,51.4,47.613l.558,1.952L74.823,36.459l.7-2.37Z" transform="translate(-49.309 -20.397)"/>
      <path id="Path_1037" data-name="Path 1037" class="cls-1" d="M65.4,31l.976,23.981,6.414-1.813L69.862,34.207l-.418-1.673a2.883,2.883,0,0,0-1.952-1.394Z" transform="translate(-43.789 -20.516)"/>
      <path id="Path_1038" data-name="Path 1038" class="cls-4" d="M59.625,51.413A1.813,1.813,0,1,1,57.813,49.6,1.846,1.846,0,0,1,59.625,51.413Z" transform="translate(-47.495 -13.183)"/>
      <path id="Path_1039" data-name="Path 1039" class="cls-4" d="M53.525,44.313A1.813,1.813,0,1,1,51.713,42.5,1.846,1.846,0,0,1,53.525,44.313Z" transform="translate(-49.9 -15.982)"/>
    </g>
    <g id="Group_586" data-name="Group 586" transform="translate(0 1.952)">
      <path id="Path_1040" data-name="Path 1040" class="cls-1" d="M39.162,38.2,57.705,49.628l.558-1.952S40.974,33.734,40,33.037L38.6,32.2H35.4l-.7,2.789a13.4,13.4,0,0,0,.976,2.789A16.834,16.834,0,0,0,39.162,38.2Z" transform="translate(-21.176 -21.995)"/>
      <path id="Path_1041" data-name="Path 1041" class="cls-1" d="M39.082,32.1l-4.043.279a7.236,7.236,0,0,0-2.51,2.231L25,44.788l8.784,9.341.837-4.043-5.856-5.3,6.692-7.25Z" transform="translate(-25 -22.034)"/>
      <path id="Path_1042" data-name="Path 1042" class="cls-1" d="M41.894,45,43.567,46.4V63.129L41.755,77.351a1.513,1.513,0,0,1-1.115,1.115h0a1.3,1.3,0,0,1-1.534-1.394l.418-13.943L39.942,50.3l-3.067.279-1.394,13.8-1.813,19.1A1.782,1.782,0,0,1,32,85.019h0A1.907,1.907,0,0,1,29.9,82.928l1.534-19.1.976-17.01,2.37-5.019,2.928-.7Z" transform="translate(-23.072 -18.486)"/>
      <path id="Path_1043" data-name="Path 1043" class="cls-1" d="M41.739,35.457c-.279-1.673-1.255-3.486-2.928-2.928-.7.139-5.577.418-5.577.418L31.7,35.736l.7,2.37-.7,12.688s5.856,1.673,7.808.837c1.813-.837,3.486-1.813,3.486-1.813L42.3,38.8Z" transform="translate(-22.359 -21.905)"/>
      <path id="Path_1044" data-name="Path 1044" class="cls-1" d="M38.352,67.318,42.4,69.27l-.558.139a5.763,5.763,0,0,1-2.649-.279L36.4,67.876V66.9Z" transform="translate(-20.506 -8.314)"/>
      <path id="Path_1045" data-name="Path 1045" class="cls-1" d="M32.771,71.9a30.832,30.832,0,0,1-.7,4.043,1.378,1.378,0,0,1-1.952-.279C29.7,75.1,31.1,71.2,31.1,71.2Z" transform="translate(-23.011 -6.619)"/>
      <path id="Path_1046" data-name="Path 1046" class="cls-2" d="M39.1,32.312c0-.139-.279-1.394-.279-1.394a33.881,33.881,0,0,0-3.764,0c-.139.279-.558,2.928-.558,2.928S37.567,35.1,37.707,35.1a11.057,11.057,0,0,0,1.255-.558Z" transform="translate(-21.255 -22.525)"/>
      <path id="Path_1047" data-name="Path 1047" class="cls-3" d="M38.713,31.7l-1.813.139.976,1.534Z" transform="translate(-20.308 -22.192)"/>
      <path id="Path_1048" data-name="Path 1048" class="cls-4" d="M36.955,25A3.749,3.749,0,0,1,41,28.349l.139,2.37a3.711,3.711,0,0,1-7.39.7l-.139-2.37A3.566,3.566,0,0,1,36.955,25Z" transform="translate(-21.619 -24.836)"/>
      <path id="Path_1049" data-name="Path 1049" class="cls-1" d="M33.5,28.812a3.7,3.7,0,0,1,3.346-3.9,3.806,3.806,0,0,1,2.51.7A6.088,6.088,0,0,1,37.267,27l-1.673.837A5.755,5.755,0,0,1,33.5,28.812Z" transform="translate(-21.651 -24.88)"/>
      <path id="Path_1050" data-name="Path 1050" class="cls-1" d="M33.5,28.352a4.453,4.453,0,0,1,.418-1.952,1.982,1.982,0,0,1,.279.837,2.9,2.9,0,0,1-.139,1.534c-.139.279-.139.558-.418.7a.137.137,0,0,0-.139.139Z" transform="translate(-21.649 -24.281)"/>
      <circle id="Ellipse_58" data-name="Ellipse 58" class="cls-4" cx="1.813" cy="1.813" r="1.813" transform="translate(7.668 28.749)"/>
      <circle id="Ellipse_59" data-name="Ellipse 59" class="cls-4" cx="1.813" cy="1.813" r="1.813" transform="translate(34.577 24.008)"/>
      <path id="Path_1051" data-name="Path 1051" class="cls-2" d="M34.5,33.118,38.962,43.3,39.24,38l-.418-5.3Z" transform="translate(-21.255 -21.797)"/>
      <path id="Path_1052" data-name="Path 1052" class="cls-3" d="M39.77,43.954l-.837,1.534L37.4,44.093V32.8l.558.139Z" transform="translate(-20.111 -21.758)"/>
    </g>
  </g>
</svg>
