<svg xmlns="http://www.w3.org/2000/svg" xmlns:xlink="http://www.w3.org/1999/xlink" viewBox="0 0 50 40">
  <defs>
    <style>
      .cls-1 {
        fill: url(#linear-gradient);
      }

      .cls-2 {
        fill: url(#linear-gradient-2);
      }

      .cls-3 {
        fill: url(#radial-gradient);
      }

      .cls-4 {
        fill: #231f1f;
      }
    </style>
    <linearGradient id="linear-gradient" x1="-4.183" y1="0.143" x2="-3.174" y2="0.794" gradientUnits="objectBoundingBox">
      <stop offset="0" stop-color="#909ca9"/>
      <stop offset="1" stop-color="#ededee"/>
    </linearGradient>
    <linearGradient id="linear-gradient-2" x1="-8.133" y1="37.388" x2="-6.64" y2="37.388" gradientUnits="objectBoundingBox">
      <stop offset="0" stop-color="#939fab"/>
      <stop offset="1" stop-color="#dcdee1"/>
    </linearGradient>
    <radialGradient id="radial-gradient" cx="-292.284" cy="193.623" r="2.997" gradientTransform="matrix(-0.683, -0.103, -0.203, 1.353, -1075.231, -73.88)" gradientUnits="userSpaceOnUse">
      <stop offset="0" stop-color="#ee352c"/>
      <stop offset="1" stop-color="#a91d22"/>
    </radialGradient>
  </defs>
  <g id="microsoft-sql-server-seeklogo.com" transform="translate(0 0.001)">
    <g id="Group_1809" data-name="Group 1809" transform="translate(17.994 -0.001)">
      <path id="Path_3508" data-name="Path 3508" class="cls-1" d="M348.419,463.277l-5.522,1.784-4.8,2.1-1.344.351c-.342.322-.7.648-1.089.979-.426.363-.822.694-1.127.933a8.363,8.363,0,0,0-1.093,1.074,4.856,4.856,0,0,0-.81,1.355,2.254,2.254,0,0,0,.326,2.044,7.31,7.31,0,0,0,3.018,2.242,19.313,19.313,0,0,0,2.654.88,35.485,35.485,0,0,0,5.659.8,6.521,6.521,0,0,0,.73,0,9.8,9.8,0,0,0,.538-1.012,25.409,25.409,0,0,0,1.957-5.125,24.047,24.047,0,0,0,.5-3.552c.029-.4.042-1.743.017-2.2a15.273,15.273,0,0,0-.209-1.937.442.442,0,0,1-.013-.169,7.3,7.3,0,0,1,.747-.223l-.138-.322h0Zm-1.26.731a13.237,13.237,0,0,1,.217,2.069,1.1,1.1,0,0,1,0,.281c-.033,0-.705-.392-1.185-.69-.417-.26-1.21-.781-1.336-.88-.042-.029-.038-.033.3-.149C345.735,464.446,347.113,464.008,347.159,464.008Zm-2.813.917a1.389,1.389,0,0,1,.363.194,25.965,25.965,0,0,0,2.529,1.392c.154.066.171.041-.184.281a18.25,18.25,0,0,1-2.867,1.524c-.2.091-.376.161-.38.161a1.063,1.063,0,0,1,.05-.227,12.059,12.059,0,0,0,.447-2.9c0-.413,0-.413.042-.425C344.337,464.925,344.341,464.925,344.346,464.925Zm-.58.219a8.81,8.81,0,0,1-.025,1.2,10.415,10.415,0,0,1-.384,1.8,2.734,2.734,0,0,1-.1.289,7.311,7.311,0,0,1-.776-.747,5.587,5.587,0,0,1-.768-1.107,3.457,3.457,0,0,1-.234-.562C341.549,465.97,343.749,465.127,343.766,465.144Zm-2.73,1.061a.016.016,0,0,1,.013,0,.77.77,0,0,1,.063.149,5.564,5.564,0,0,0,.693,1.227,7.019,7.019,0,0,0,.964,1.028c.1.083.192.161.2.173s.033.021-.647.277c-.789.3-1.649.595-2.634.909l-.705.227c-.038.012-.025-.008.083-.178a23.127,23.127,0,0,0,1.649-3.287c.071-.182.142-.363.154-.4a.149.149,0,0,1,.092-.107A.409.409,0,0,1,341.036,466.205Zm-.835.343a9.2,9.2,0,0,1-.409.855c-.4.781-.847,1.549-1.44,2.482-.1.161-.2.31-.209.326s-.029.021-.1-.107a3.758,3.758,0,0,1-.321-.958,3.815,3.815,0,0,1,.021-1.231c.054-.256.05-.252.175-.314C338.457,467.333,340.185,466.531,340.2,466.548Zm7.2.289v.173a22.239,22.239,0,0,1-.246,3.106c-.025.161-.046.293-.05.3s-.121-.033-.263-.074a10.833,10.833,0,0,1-1.92-.814,8.509,8.509,0,0,1-.977-.595s.179-.095.384-.2a24.662,24.662,0,0,0,2.283-1.326c.255-.169.639-.442.722-.516Zm-10.351,1.222c.017,0,.012.033-.013.182-.017.107-.038.306-.046.442a3.029,3.029,0,0,0,.367,1.66,3.409,3.409,0,0,1,.146.314c-.029.025-2.792.826-3.66,1.061l-.5.136c-.029.008-.033,0-.021-.066a4.328,4.328,0,0,1,1.215-2.069,5.392,5.392,0,0,1,1.373-1.041c.426-.239,1.081-.6,1.131-.615C337.042,468.059,337.046,468.059,337.05,468.059Zm6.511,1.152a1.682,1.682,0,0,1,.225.12,12.649,12.649,0,0,0,3.2,1.231l.1.021-.134.074c-.555.306-2.379,1.057-4.245,1.747-.271.1-.538.2-.589.219a.3.3,0,0,1-.1.029s.075-.149.171-.326a20.269,20.269,0,0,0,1.315-2.961C343.536,469.286,343.557,469.216,343.561,469.212Zm-.664.215a1.181,1.181,0,0,1-.071.19,26.047,26.047,0,0,1-1.448,2.887c-.154.273-.284.492-.288.492s-.129-.074-.28-.165a8.559,8.559,0,0,1-2.183-1.838l-.075-.091.38-.1a27.445,27.445,0,0,0,3.664-1.251C342.76,469.48,342.893,469.426,342.9,469.426Zm4.124,1.425h0c0,.095-.209.946-.384,1.561-.146.516-.271.921-.5,1.635-.1.314-.188.574-.192.574a.276.276,0,0,1-.054-.012,17.587,17.587,0,0,1-3.393-.946c-.292-.116-.71-.3-.735-.322a4.9,4.9,0,0,1,.559-.26c1.9-.822,3.869-1.755,4.545-2.156A.546.546,0,0,1,347.021,470.851Zm-9.52.322c.008.008-.522.764-1.265,1.792-.259.359-.559.781-.672.938s-.284.4-.38.553l-.175.268-.188-.157a6.917,6.917,0,0,1-.776-.785,3.377,3.377,0,0,1-.7-1.334c-.046-.2-.046-.3,0-.31.063-.017,1.177-.277,2.22-.516.58-.132,1.252-.289,1.494-.347S337.5,471.173,337.5,471.173Zm.534.2.134.149a7.821,7.821,0,0,0,1.957,1.586,1.1,1.1,0,0,1,.225.145c-.029.021-2.579.917-3.76,1.321-.664.231-1.21.417-1.214.417a.71.71,0,0,1-.084-.054l-.075-.054.121-.173c.392-.562.885-1.177,1.957-2.457Zm3.331,2.358s.188.062.413.145a13.465,13.465,0,0,0,1.548.475,17.309,17.309,0,0,0,2.341.4c.092.008.142.017.125.029s-.643.219-1.094.359c-.718.223-2.909.863-4.7,1.371-.33.095-.614.173-.63.178a.333.333,0,0,1-.179-.045,2.994,2.994,0,0,1,.221-.277,24.54,24.54,0,0,0,1.695-2.255C341.249,473.907,341.366,473.738,341.366,473.734Zm-.735.021s-.292.475-.81,1.284c-.221.343-.467.731-.555.867s-.209.339-.28.454l-.121.211-.063-.017c-.15-.041-1.206-.409-1.486-.52a10.38,10.38,0,0,1-.973-.442,4.063,4.063,0,0,1-.718-.45c.008,0,.58-.157,1.269-.343,1.828-.492,2.842-.776,3.506-.983A1.68,1.68,0,0,1,340.631,473.754Zm5.2,1.206h0c.017.041-.659,1.9-.906,2.486-.054.132-.075.165-.1.161-.071,0-1.052-.14-1.649-.227-1.039-.157-2.784-.458-3.222-.557l-.1-.021.622-.141c1.336-.3,1.978-.458,2.629-.657a18.7,18.7,0,0,0,2.458-.937A2.032,2.032,0,0,1,345.827,474.96Z" transform="translate(-332.514 -450.54)"/>
      <path id="Path_3509" data-name="Path 3509" class="cls-2" d="M462.276,82.734a26.721,26.721,0,0,0-2.529.9,15.857,15.857,0,0,0-2.909,1.445,2.195,2.195,0,0,0-.563.558.383.383,0,0,0-.025.14l.559.524,1.331.421,3.168.562,3.623.615.038-.31c-.012,0-.021,0-.033,0l-.476-.074-.1-.169c-.493-.859-1.035-1.925-1.352-2.643a13.564,13.564,0,0,1-.609-1.664c-.071-.281-.079-.3-.125-.3h0Zm-.067.211h0s.021.12.038.256a8.552,8.552,0,0,0,.4,1.739c.154.454.154.43-.025.376-.426-.116-2.333-.442-3.715-.632-.221-.029-.409-.058-.409-.062-.017-.017,1-.541,1.444-.747C460.523,83.614,462.092,82.966,462.209,82.945Zm-4.023,1.85.163.054a25.112,25.112,0,0,0,4.336.818l.259.025a1.932,1.932,0,0,1-.263.136c-.593.293-1.244.653-1.694.929a1.735,1.735,0,0,1-.271.149c-.017,0-.1-.017-.2-.029l-.167-.025-.417-.4c-.735-.706-1.311-1.251-1.532-1.458Zm-.167.128.589.727c.321.4.647.793.718.88a1.356,1.356,0,0,1,.125.161c-.017.012-.851-.149-1.294-.248s-.643-.153-.922-.24l-.23-.074v-.058c0-.277.359-.69.96-1.111Zm5,.991c.017,0,.038.037.088.149.142.31.584,1.144.693,1.305.034.054.092.058-.5-.037-1.415-.227-1.87-.3-1.87-.31a.433.433,0,0,1,.1-.062,8.152,8.152,0,0,0,1.273-.871c.1-.078.184-.153.2-.165s.013-.012.017-.008Z" transform="translate(-452.064 -82.734)"/>
      <path id="Path_3510" data-name="Path 3510" class="cls-3" d="M395.024,167.757a.408.408,0,0,0,0,.359,1.636,1.636,0,0,0,.392.458s1.857,1.792,2.083,2.048a5.708,5.708,0,0,1,1.515,3.923,6.3,6.3,0,0,1-.659,2.969c-.868,1.875-2.7,3.944-5.526,6.24l.413-.136a13.291,13.291,0,0,1,1.482-.871,53.1,53.1,0,0,1,6.891-3.052,86.667,86.667,0,0,1,13.986-3.709l.38-.058-.058-.091a12.733,12.733,0,0,0-.839-1.169,10,10,0,0,0-2.963-2.441,22.134,22.134,0,0,0-6.432-2.135c-.505-.1-1.615-.289-2.517-.425-1.912-.293-3.147-.5-4.508-.727-.488-.083-1.219-.206-1.7-.31a10.909,10.909,0,0,1-1.106-.293C395.55,168.224,395.116,168.108,395.024,167.757Zm1.077,1.032a1.179,1.179,0,0,1,.159.05c.159.054.363.116.605.182q.275.075.551.145c.25.062.459.12.463.12.029.029.451,1.363.593,1.875.054.194.1.359.092.359a.835.835,0,0,1-.1-.161,8.625,8.625,0,0,0-2.154-2.408A1.77,1.77,0,0,1,396.1,168.79Zm2.053.562a1.658,1.658,0,0,1,.225.037c.71.157,1.983.4,2.8.533a1.03,1.03,0,0,1,.246.054.422.422,0,0,1-.113.07c-.138.07-.693.4-.876.52a7.979,7.979,0,0,0-1.181.933c-.121.12-.225.219-.225.219s-.025-.07-.046-.157a13.291,13.291,0,0,0-.747-2.024,1.758,1.758,0,0,1-.083-.19C398.15,169.355,398.15,169.351,398.154,169.351Zm3.614.681a1.577,1.577,0,0,1,.15.458,6.694,6.694,0,0,1,.2,1.892,3.526,3.526,0,0,1-.025.355l-.013.041-.217-.07c-.447-.14-1.173-.351-1.795-.525-.355-.095-.643-.182-.643-.19a9.81,9.81,0,0,1,.739-.731A19.354,19.354,0,0,1,401.769,170.033Zm.288.041c.013-.012,1.728.281,2.508.43.58.111,1.423.285,1.473.306.025.008-.063.058-.342.182a18.178,18.178,0,0,0-2.734,1.47c-.213.14-.392.256-.4.256a2.231,2.231,0,0,1-.008-.264,5.715,5.715,0,0,0-.451-2.247A.62.62,0,0,1,402.057,170.074Zm4.437.867a3.077,3.077,0,0,1-.092.545,10.3,10.3,0,0,1-1.052,2.387,2.72,2.72,0,0,1-.175.281,1.787,1.787,0,0,1-.25-.132,13.656,13.656,0,0,0-1.636-.793c-.167-.07-.313-.128-.317-.136-.029-.025,1.315-.9,2.024-1.326C405.558,171.429,406.477,170.925,406.493,170.941Zm.317.05c.038,0,.8.207,1.194.322a24.793,24.793,0,0,1,2.842,1.028l.3.136-.213.05A31.354,31.354,0,0,0,406.126,174c-.121.05-.23.091-.238.091a1.057,1.057,0,0,1,.088-.211,8.3,8.3,0,0,0,.805-2.75C406.785,171.053,406.8,170.991,406.81,170.991Zm-7.563,1.718c.013-.012.593.124.906.211.476.132,1.486.467,1.486.492,0,0-.113.1-.246.215-.547.45-1.073.925-1.7,1.528-.188.178-.346.322-.355.322s-.012-.025-.008-.058a9.215,9.215,0,0,0-.058-2.49C399.256,172.812,399.244,172.713,399.248,172.709Zm12.191.012a7.91,7.91,0,0,1-.442.681c-.25.355-.618.826-1.448,1.858-.438.545-.931,1.16-1.093,1.367s-.3.38-.309.38a1.427,1.427,0,0,1-.117-.165,8.565,8.565,0,0,0-1.69-1.846c-.125-.1-.263-.215-.309-.248a.463.463,0,0,1-.083-.07c0-.012.709-.314,1.248-.529.943-.38,2.229-.834,3.193-1.127C410.892,172.866,411.431,172.713,411.439,172.721Zm.321.083a.967.967,0,0,1,.238.116,14.144,14.144,0,0,1,2.792,2.073c.221.215.768.776.76.781s-.192.017-.417.033a41.542,41.542,0,0,0-6.169,1.016c-.146.033-.275.062-.284.062s.154-.161.359-.355a10.576,10.576,0,0,0,2.533-3.337c.1-.2.179-.376.188-.388Zm-9.295.942c.058.012.6.264,1.01.467.376.186.939.483.968.508,0,0-.2.107-.442.227-.785.388-1.457.756-2.158,1.177-.2.12-.367.219-.371.219s-.013-.017.1-.219a8.566,8.566,0,0,0,.847-2.276C402.436,173.787,402.453,173.745,402.466,173.745Zm-.543.1a7.807,7.807,0,0,1-.217.8,10.112,10.112,0,0,1-.739,1.677c-.067.116-.167.285-.221.38l-.1.165-.234-.223a3.065,3.065,0,0,0-.776-.566,1.122,1.122,0,0,1-.2-.116c0-.033.714-.673,1.26-1.136C401.084,174.489,401.911,173.832,401.923,173.844Zm3.318,1.35.2.132a15.864,15.864,0,0,1,1.44,1.053c.238.194.7.6.789.7l.05.054-.338.095c-1.912.524-3.389.991-5.113,1.619-.192.07-.355.128-.367.128s-.046.021.384-.372a18.189,18.189,0,0,0,2.8-3.188l.146-.223Zm-.872.215c.008.008-.563.805-.906,1.255-.409.537-1.135,1.437-1.636,2.024-.209.244-.388.446-.4.45s-.017-.058-.017-.153a3.432,3.432,0,0,0-.355-1.487c-.1-.19-.113-.235-.092-.256.079-.07,1.294-.756,2.062-1.165C403.547,175.806,404.356,175.4,404.369,175.41Zm-5.276,1.28a1.853,1.853,0,0,1,.217.107,4.589,4.589,0,0,1,.718.479,1.241,1.241,0,0,1-.242.2c-.4.281-1,.731-1.348,1.008-.367.289-.38.3-.338.235a7.056,7.056,0,0,0,.91-1.817A.7.7,0,0,1,399.093,176.69Zm1.407,1.09c.021,0,.046.033.159.2a2.961,2.961,0,0,1,.468,1.2l.008.083-.572.219c-1.023.392-1.966.781-2.6,1.07-.179.083-.492.231-.7.33s-.371.182-.371.178.129-.1.288-.215a16.761,16.761,0,0,0,3.139-2.862c.088-.1.167-.2.175-.2Zm-.647.157a8.754,8.754,0,0,1-.785.876,13.818,13.818,0,0,1-2.592,2.069l-.25.157c-.029.016.008-.025.442-.492.275-.293.484-.541.722-.847a1.4,1.4,0,0,1,.417-.392C398.422,178.87,399.836,177.921,399.853,177.937Z" transform="translate(-390.785 -164.911)"/>
    </g>
    <path id="Path_3511" data-name="Path 3511" class="cls-4" d="M8.989,793.022c-.077,0-.154.007-.23.007a3.441,3.441,0,0,0-3.217,2.082,5.434,5.434,0,0,0,.006,3.963A3.472,3.472,0,0,0,8.47,801.1c.314.051.524.222,1.133.924l.748.867h1.357l-.9-.9a9.581,9.581,0,0,1-.9-.961c0-.038.191-.12.422-.19a3.089,3.089,0,0,0,1.836-1.7,3.545,3.545,0,0,0,.461-1.829c.134-2.653-1.279-4.311-3.633-4.292Zm1.19,6.937a3.224,3.224,0,0,1-2.244.152,2.877,2.877,0,0,1-1.555-1.653,4.646,4.646,0,0,1,.09-3.025,2.582,2.582,0,0,1,2.45-1.589c1.65,0,2.589,1,2.712,2.88.1,1.569-.434,2.746-1.451,3.234Zm23.441-4.671a1.458,1.458,0,0,0-1.3.677l-.23.356V795.4h-.985v5.545h.984v-1.772c0-1.621.02-1.81.249-2.254a1.232,1.232,0,0,1,1.383-.766l.352.1v-.961H33.62Zm-5.787-.051a2.864,2.864,0,0,0-.6.07,3.233,3.233,0,0,0-1.28,5.052,3.073,3.073,0,0,0,3.358.474c.224-.094.467-.2.467-.2v-.872l-.467.24a2.235,2.235,0,0,1-2.5-.081,2.485,2.485,0,0,1-.671-1.468h3.972V797.7a2.215,2.215,0,0,0-2.277-2.462h0Zm-1.606,2.432a2.263,2.263,0,0,1,.691-1.324,1.5,1.5,0,0,1,.857-.271,1.38,1.38,0,0,1,.832.278,2.15,2.15,0,0,1,.582,1.31H26.227v.007Zm-23.749-1c-1.068-.64-1.542-1.1-1.484-1.646.166-1.506,2.047-1.3,3.088-.728l.007-1.013a4.055,4.055,0,0,0-1.4-.26A2.382,2.382,0,0,0,.22,794.25c-.563,1.234-.065,2.164,1.738,3.2,1.012.583,1.46,1.089,1.46,1.64,0,1.139-1.389,1.537-2.821.822-.295-.145-.544-.266-.557-.266a8.659,8.659,0,0,0-.025,1.1,6.183,6.183,0,0,0,1.1.309c1.637.323,3.127-.437,3.268-1.671.123-1.158-.3-1.766-1.9-2.714h0Zm39.861-1.445a3.019,3.019,0,0,0-.609.07,2.778,2.778,0,0,0-2.008,2.874,2.747,2.747,0,0,0,.735,2.17,3.079,3.079,0,0,0,3.365.475c.223-.094.466-.2.466-.2v-.874l-.466.241a2.237,2.237,0,0,1-2.5-.083,2.454,2.454,0,0,1-.672-1.468h3.965v-.748a2.213,2.213,0,0,0-2.277-2.455h0Zm-1.606,2.432a2.3,2.3,0,0,1,.692-1.33,1.488,1.488,0,0,1,.856-.272,1.381,1.381,0,0,1,.832.279,2.164,2.164,0,0,1,.582,1.317H40.733v.006Zm-18.056-.975c-1.068-.639-1.54-1.1-1.483-1.646.166-1.507,2.047-1.3,3.088-.728l.007-1.013a4.036,4.036,0,0,0-1.4-.258,2.383,2.383,0,0,0-2.469,1.228c-.563,1.234-.057,2.164,1.74,3.2,1.011.582,1.458,1.082,1.458,1.633,0,1.14-1.388,1.544-2.82.822-.293-.145-.543-.265-.557-.265a8.661,8.661,0,0,0-.025,1.1,6.756,6.756,0,0,0,1.093.309c1.639.324,3.129-.436,3.269-1.669.122-1.152-.3-1.76-1.9-2.709h0Zm25.451-1.406a1.452,1.452,0,0,0-1.3.678l-.23.354v-.923h-.985v5.544H46.6v-1.772c0-1.62.02-1.81.249-2.253a1.232,1.232,0,0,1,1.383-.766l.352.1v-.963h-.455Zm-33.284,1.374v-3.532h-.993v7.823h4.177v-.924H14.842v-3.367Zm22.968,1.1-.819,2.108-.787-2.119-.8-2.349H34.388c.659,1.848,1.375,3.728,2.1,5.55.313.007.627,0,.94,0l1.105-2.747,1.126-2.8h-.972s-.429,1.113-.877,2.36h0Zm-20.679-6.765a.547.547,0,0,0,.4-.16.526.526,0,0,0,.166-.392.518.518,0,0,0-.166-.392.555.555,0,0,0-.4-.152.547.547,0,0,0-.4.158.525.525,0,0,0-.16.392.508.508,0,0,0,.16.392.542.542,0,0,0,.4.153h0Zm-.352-.9a.528.528,0,0,1,.712,0,.472.472,0,0,1,.147.348.488.488,0,0,1-.5.493.47.47,0,0,1-.352-.139.485.485,0,0,1-.147-.354A.466.466,0,0,1,16.779,790.086Zm.237.4h.065c.046,0,.09.043.128.126l.077.171h.121l-.1-.19c-.039-.076-.077-.12-.122-.133a.234.234,0,0,0,.134-.07.174.174,0,0,0,.044-.127.161.161,0,0,0-.057-.134.324.324,0,0,0-.205-.056h-.2v.709H17v-.3Zm0-.33h.09a.231.231,0,0,1,.135.032c.024.019.031.044.031.089,0,.082-.051.12-.147.12h-.11v-.241h0ZM.61,790.422c0-.247-.007-.43-.013-.539H.6a1.6,1.6,0,0,0,.083.286l.954,2.108H1.8l.954-2.126a1.91,1.91,0,0,0,.083-.266h.007c-.019.21-.026.393-.026.539v1.86h.326v-2.765H2.734l-.877,1.923q-.048.114-.134.341H1.71a2.191,2.191,0,0,0-.128-.328l-.857-1.943H.291v2.765H.6v-1.854H.61Zm3.249.005h.282v1.722H3.859ZM4,789.8a.21.21,0,0,0,.211-.2.182.182,0,0,0-.064-.145A.206.206,0,0,0,4,789.389a.209.209,0,0,0-.211.2.174.174,0,0,0,.065.145A.213.213,0,0,0,4,789.8H4Zm2.149,2.392v-.3a.816.816,0,0,1-.491.171.64.64,0,0,1-.494-.2.781.781,0,0,1-.186-.544.813.813,0,0,1,.2-.575.648.648,0,0,1,.5-.209.823.823,0,0,1,.474.153v-.323a.983.983,0,0,0-.461-.1.991.991,0,0,0-.755.3,1.105,1.105,0,0,0-.28.784,1,1,0,0,0,.255.71.912.912,0,0,0,.691.284,1.137,1.137,0,0,0,.55-.139Zm.806-.918a.887.887,0,0,1,.147-.537.4.4,0,0,1,.326-.171.378.378,0,0,1,.242.064v-.33a.513.513,0,0,0-.191-.025.49.49,0,0,0-.308.109.666.666,0,0,0-.216.334H6.948v-.4H6.629v1.974h.32v-1.013Zm1.836,1.052a.949.949,0,0,0,.723-.286,1.235,1.235,0,0,0,.019-1.513.886.886,0,0,0-.7-.272,1.007,1.007,0,0,0-.722.26,1.07,1.07,0,0,0-.293.8,1.022,1.022,0,0,0,.255.728.934.934,0,0,0,.716.285h0Zm-.455-1.608a.633.633,0,0,1,.48-.19.6.6,0,0,1,.474.19,1.049,1.049,0,0,1,.012,1.133.585.585,0,0,1-.48.2.627.627,0,0,1-.486-.2.794.794,0,0,1-.179-.557.769.769,0,0,1,.179-.575Zm2.846,1.436a.517.517,0,0,0,.186-.405.491.491,0,0,0-.147-.361,1.134,1.134,0,0,0-.372-.215,1.165,1.165,0,0,1-.3-.165.269.269,0,0,1-.083-.2.238.238,0,0,1,.1-.2.4.4,0,0,1,.257-.075.759.759,0,0,1,.455.14v-.317a.947.947,0,0,0-.429-.094.766.766,0,0,0-.506.164.538.538,0,0,0-.07.765,1.036,1.036,0,0,0,.358.221,1.347,1.347,0,0,1,.326.184.24.24,0,0,1,.083.189c0,.184-.128.279-.377.279a.8.8,0,0,1-.519-.189v.341a.951.951,0,0,0,.491.121.874.874,0,0,0,.55-.184Zm1.523-1.9a1.007,1.007,0,0,0-.723.26,1.076,1.076,0,0,0-.293.8,1.025,1.025,0,0,0,.255.728,1.049,1.049,0,0,0,1.439,0,1.056,1.056,0,0,0,.269-.759,1.076,1.076,0,0,0-.249-.753.907.907,0,0,0-.7-.272h0Zm.621,1.038a.843.843,0,0,1-.16.557.586.586,0,0,1-.48.2.627.627,0,0,1-.486-.2.8.8,0,0,1-.179-.557.806.806,0,0,1,.192-.582.635.635,0,0,1,.48-.19.61.61,0,0,1,.472.19.955.955,0,0,1,.16.582h0Zm.864.988h.319v-1.709h.467V790.3h-.467V790c0-.277.109-.417.333-.417a.446.446,0,0,1,.21.051v-.285a.591.591,0,0,0-.23-.031.6.6,0,0,0-.428.158.663.663,0,0,0-.205.513v.324H13.85v.266h.338v1.7Zm1.311-.539c0,.386.172.583.524.583a.58.58,0,0,0,.3-.065v-.271a.336.336,0,0,1-.205.064.274.274,0,0,1-.23-.083.459.459,0,0,1-.071-.285v-1.114h.506V790.3H15.82v-.582c-.11.038-.218.07-.32.1v.48h-.345v.266H15.5v1.171Zm34.328,3.639a.552.552,0,0,0-.4-.152.543.543,0,0,0-.4.16.53.53,0,0,0-.16.392.515.515,0,0,0,.159.392.567.567,0,0,0,.4.152.553.553,0,0,0,.4-.158A.532.532,0,0,0,50,795.77a.546.546,0,0,0-.172-.393Zm-.051.748a.519.519,0,0,1-.7,0,.49.49,0,0,1-.147-.356.466.466,0,0,1,.141-.348.5.5,0,0,1,.857.348A.454.454,0,0,1,49.777,796.124Zm-.288-.323a.277.277,0,0,0,.134-.07.173.173,0,0,0,.044-.128.161.161,0,0,0-.057-.133.324.324,0,0,0-.205-.056h-.2v.708h.1v-.3h.064c.044,0,.088.043.128.126l.076.17h.122l-.1-.19c-.033-.083-.071-.121-.11-.133Zm-.07-.064h-.11V795.5h.09a.227.227,0,0,1,.134.031c.026.019.032.044.032.089,0,.082-.051.12-.147.12Zm-17.845-5.518h.09v-.709H31.9v-.089h-.563v.089h.237v.709Zm.543-.533a1.263,1.263,0,0,0-.005-.157.433.433,0,0,0,.025.082l.275.608h.044l.276-.614c.007-.019.013-.044.026-.076-.006.063-.006.114-.006.152v.537h.1v-.8h-.115l-.249.55c-.006.02-.026.058-.038.1h-.007a.576.576,0,0,0-.037-.094l-.249-.557h-.129v.8h.09v-.533h.005Z" transform="translate(0 -762.897)"/>
  </g>
</svg>
