<svg xmlns="http://www.w3.org/2000/svg" viewBox="0 0 50 7">
  <defs>
    <style>
      .cls-1 {
        fill: #f80000;
      }
    </style>
  </defs>
  <g id="Oracle_logo" transform="translate(-715.061 -719.668)">
    <g id="g16337" transform="translate(715.06 719.668)">
      <path id="path16197" class="cls-1" d="M735.873,724.223h3.186l-1.684-3.027-3.092,5.473h-1.407l3.76-6.574a.865.865,0,0,1,.738-.426.848.848,0,0,1,.723.415l3.775,6.585h-1.407l-.664-1.223h-3.225Zm14.616,1.223v-5.711h-1.194V726a.694.694,0,0,0,.173.465.579.579,0,0,0,.436.2h5.445l.7-1.223Zm-19.753-1.024a2.358,2.358,0,0,0,0-4.687h-5.224v6.934h1.194v-5.711h3.951a1.131,1.131,0,0,1,0,2.247l-3.366-.006,3.564,3.47h1.734l-2.4-2.247Zm-12.571,2.247a3.488,3.488,0,0,1,0-6.934h3.608a3.488,3.488,0,0,1,0,6.934Zm3.528-1.223a2.258,2.258,0,0,0,0-4.488h-3.448a2.258,2.258,0,0,0,0,4.488Zm22.673,1.223a3.488,3.488,0,0,1,0-6.934h4.286l-.7,1.223h-3.508a2.257,2.257,0,0,0,0,4.488h4.305l-.7,1.223Zm14.6-1.223a2.054,2.054,0,0,1-1.932-1.633h5.1l.7-1.223h-5.807a2.06,2.06,0,0,1,1.932-1.632h3.5l.708-1.223h-4.291a3.488,3.488,0,0,0,0,6.934h3.681l.7-1.223h-4.305" transform="translate(-715.06 -719.668)"/>
      <path id="path16199" class="cls-1" d="M1335.478,720.759a.551.551,0,1,1,.545.614A.578.578,0,0,1,1335.478,720.759Zm.545.786a.786.786,0,1,0-.694-.78A.742.742,0,0,0,1336.023,721.545Zm-.064-1.245a.456.456,0,0,1,.2.028.246.246,0,0,1,.154.244.243.243,0,0,1-.01.072.226.226,0,0,1-.094.149c-.01.006-.015.011-.035.022l.178.36h-.173l-.159-.332h-.109v.332h-.154V720.3Zm.055.4c.05-.006.1-.006.129-.055a.135.135,0,0,0-.04-.183.322.322,0,0,0-.144-.017h-.045v.255h.1" transform="translate(-1286.721 -719.957)"/>
    </g>
  </g>
</svg>
