<svg xmlns="http://www.w3.org/2000/svg" xmlns:xlink="http://www.w3.org/1999/xlink" viewBox="0 0 90 90">
  <defs>
    <style>
      .cls-1 {
        fill: url(#linear-gradient);
      }

      .cls-2 {
        fill: #46debf;
      }

      .cls-3 {
        fill: #1abffe;
      }

      .cls-4 {
        fill: #ff8820;
      }

      .cls-5 {
        fill: #e7e8ec;
      }

      .cls-6 {
        fill: #00a9e9;
      }
    </style>
    <linearGradient id="linear-gradient" x1="0.5" x2="0.5" y2="1" gradientUnits="objectBoundingBox">
      <stop offset="0" stop-color="#f1f3f8"/>
      <stop offset="1" stop-color="#f1f3f8" stop-opacity="0"/>
    </linearGradient>
  </defs>
  <g id="_1" data-name="1" transform="translate(-836 -1819)">
    <path id="Path_653" data-name="Path 653" class="cls-1" d="M67.417,0c24.82,0,22.47,20.147,22.47,45S47.3,90,22.477,90,.007,69.853.007,45,42.6,0,67.417,0Z" transform="translate(836.053 1819)"/>
    <g id="networking" transform="translate(833.929 1827.018)">
      <path id="Path_654" data-name="Path 654" class="cls-2" d="M17.384,32.915a5.343,5.343,0,1,0-5.4,0A6.658,6.658,0,0,0,8,39V52.33H21.365V39a6.658,6.658,0,0,0-3.981-6.087Z" transform="translate(1.995 6.992)"/>
      <path id="Path_655" data-name="Path 655" class="cls-3" d="M31.284,56.322V53L28.6,51.82a12.556,12.556,0,0,0-.629-2.007l1.48-2.547a14.976,14.976,0,0,0-1.927-2.686l-2.843.649A12.265,12.265,0,0,0,23.012,44l-.272-2.963A14.371,14.371,0,0,0,19.647,40L17.71,42.242H15.646L13.708,40a14.369,14.369,0,0,0-3.093,1.037L10.343,44A12.29,12.29,0,0,0,8.677,45.23L5.834,44.58a14.984,14.984,0,0,0-1.927,2.686l1.48,2.547a12.551,12.551,0,0,0-.629,2.007L2.071,53v3.319L4.758,57.5a12.568,12.568,0,0,0,.629,2.007l-1.48,2.547a14.979,14.979,0,0,0,1.927,2.686l2.843-.649a12.265,12.265,0,0,0,1.667,1.23l.272,2.963a14.384,14.384,0,0,0,3.093,1.037l1.937-2.242H17.71l1.937,2.242a14.389,14.389,0,0,0,3.093-1.037l.272-2.963a12.3,12.3,0,0,0,1.667-1.229l2.843.649a14.981,14.981,0,0,0,1.927-2.686l-1.48-2.547A12.557,12.557,0,0,0,28.6,57.5ZM16.678,60.527a5.865,5.865,0,1,1,0-11.73,6.066,6.066,0,0,1,3.947,1.518,5.683,5.683,0,0,1,1.933,4.347A5.873,5.873,0,0,1,16.678,60.527Z" transform="translate(0 12.657)"/>
      <path id="Path_656" data-name="Path 656" class="cls-4" d="M36.384,11.915a5.343,5.343,0,1,0-5.4,0A6.658,6.658,0,0,0,27,18V31.331H40.365V18a6.658,6.658,0,0,0-3.981-6.087Z" transform="translate(8.389 0)"/>
      <path id="Path_657" data-name="Path 657" class="cls-3" d="M50.284,34.322V31L47.6,29.82a12.556,12.556,0,0,0-.629-2.007l1.48-2.547a14.976,14.976,0,0,0-1.927-2.686l-2.843.649A12.266,12.266,0,0,0,42.012,22l-.272-2.963A14.37,14.37,0,0,0,38.647,18L36.71,20.242H34.646L32.708,18a14.369,14.369,0,0,0-3.093,1.037L29.343,22a12.29,12.29,0,0,0-1.667,1.229l-2.843-.649a14.984,14.984,0,0,0-1.927,2.686l1.48,2.547a12.551,12.551,0,0,0-.629,2.007L21.071,31v3.319L23.758,35.5a12.568,12.568,0,0,0,.629,2.007l-1.48,2.547a14.979,14.979,0,0,0,1.927,2.686l2.843-.649a12.265,12.265,0,0,0,1.667,1.23l.272,2.963a14.384,14.384,0,0,0,3.093,1.037l1.937-2.242H36.71l1.937,2.242a14.389,14.389,0,0,0,3.093-1.037l.272-2.963a12.3,12.3,0,0,0,1.667-1.229l2.843.649a14.981,14.981,0,0,0,1.927-2.686l-1.48-2.547A12.556,12.556,0,0,0,47.6,35.5ZM35.678,38.527a5.865,5.865,0,1,1,5.881-5.865A5.873,5.873,0,0,1,35.678,38.527Z" transform="translate(6.394 5.333)"/>
      <path id="Path_658" data-name="Path 658" class="cls-2" d="M55.384,33.915a5.343,5.343,0,1,0-5.4,0A6.658,6.658,0,0,0,46,40V53.33H59.365V40a6.658,6.658,0,0,0-3.981-6.087Z" transform="translate(14.782 7.324)"/>
      <path id="Path_659" data-name="Path 659" class="cls-3" d="M69.284,56.322V53L66.6,51.82a12.557,12.557,0,0,0-.629-2.007l1.48-2.547a14.976,14.976,0,0,0-1.927-2.686l-2.843.649A12.266,12.266,0,0,0,61.012,44l-.272-2.963A14.371,14.371,0,0,0,57.647,40L55.71,42.242H53.646L51.708,40a14.369,14.369,0,0,0-3.093,1.037L48.343,44a12.29,12.29,0,0,0-1.667,1.229l-2.843-.649a14.984,14.984,0,0,0-1.927,2.686l1.48,2.547a12.551,12.551,0,0,0-.629,2.007L40.071,53v3.319L42.758,57.5a12.567,12.567,0,0,0,.629,2.007l-1.48,2.547a14.979,14.979,0,0,0,1.927,2.686l2.843-.649a12.265,12.265,0,0,0,1.667,1.23l.272,2.963a14.384,14.384,0,0,0,3.093,1.037l1.937-2.242H55.71l1.937,2.242a14.389,14.389,0,0,0,3.093-1.037l.272-2.963a12.3,12.3,0,0,0,1.667-1.229l2.843.649a14.98,14.98,0,0,0,1.927-2.686l-1.48-2.547A12.557,12.557,0,0,0,66.6,57.5ZM54.678,60.527a5.865,5.865,0,1,1,5.881-5.865A5.873,5.873,0,0,1,54.678,60.527Z" transform="translate(12.787 12.657)"/>
      <g id="Group_452" data-name="Group 452" transform="translate(9.545 9.452)">
        <path id="Path_660" data-name="Path 660" class="cls-5" d="M10.071,26.413,7.663,25.256A36.086,36.086,0,0,1,26.143,7.7l1.042,2.455A33.416,33.416,0,0,0,10.071,26.413Z" transform="translate(-7.663 -7.549)"/>
        <path id="Path_661" data-name="Path 661" class="cls-5" d="M34.73,63.085A36.185,36.185,0,0,1,24,61.467l.794-2.546a33.847,33.847,0,0,0,20.441-.181l.839,2.53A36.144,36.144,0,0,1,34.73,63.085Z" transform="translate(-2.166 9.444)"/>
        <path id="Path_662" data-name="Path 662" class="cls-5" d="M59.094,26.8A33.339,33.339,0,0,0,41.482,10.053L42.5,7.586A36,36,0,0,1,61.515,25.67Z" transform="translate(3.717 -7.586)"/>
      </g>
      <path id="Path_663" data-name="Path 663" class="cls-6" d="M53.019,45a8,8,0,1,0,8.019,8A8.008,8.008,0,0,0,53.019,45Zm0,13.862A5.865,5.865,0,1,1,58.9,53,5.873,5.873,0,0,1,53.019,58.862Z" transform="translate(14.446 14.322)"/>
      <path id="Path_664" data-name="Path 664" class="cls-6" d="M34.019,23a8,8,0,1,0,8.019,8A8.008,8.008,0,0,0,34.019,23Zm0,13.862A5.865,5.865,0,1,1,39.9,31,5.873,5.873,0,0,1,34.019,36.862Z" transform="translate(8.052 6.998)"/>
      <path id="Path_665" data-name="Path 665" class="cls-6" d="M15.019,45a8,8,0,1,0,8.019,8A8.008,8.008,0,0,0,15.019,45Zm0,13.862A5.865,5.865,0,1,1,20.9,53a5.873,5.873,0,0,1-5.881,5.865Z" transform="translate(1.659 14.322)"/>
    </g>
  </g>
</svg>
