<svg xmlns="http://www.w3.org/2000/svg" xmlns:xlink="http://www.w3.org/1999/xlink" viewBox="0 0 90 90">
  <defs>
    <style>
      .cls-1 {
        fill: url(#linear-gradient);
      }

      .cls-2 {
        fill: #1abffe;
      }

      .cls-3 {
        fill: #00a9e9;
      }

      .cls-4 {
        fill: #e3eef2;
      }

      .cls-5 {
        fill: #fff;
      }

      .cls-6 {
        fill: #ff8820;
      }

      .cls-7 {
        fill: #46debf;
      }
    </style>
    <linearGradient id="linear-gradient" x1="0.5" x2="0.5" y2="1" gradientUnits="objectBoundingBox">
      <stop offset="0" stop-color="#f1f3f8"/>
      <stop offset="1" stop-color="#f1f3f8" stop-opacity="0"/>
    </linearGradient>
  </defs>
  <g id="_1" data-name="1" transform="translate(-836 -1819)">
    <path id="Path_653" data-name="Path 653" class="cls-1" d="M67.417,0c24.82,0,22.47,20.147,22.47,45S47.3,90,22.477,90,.007,69.853.007,45,42.6,0,67.417,0Z" transform="translate(836.053 1819)"/>
    <g id="forecast" transform="translate(832 1827.007)">
      <path id="Path_681" data-name="Path 681" class="cls-2" d="M4,33.989a32.143,32.143,0,0,1,64.286,0L79,50H66.946v20H41.5v12H4Z" transform="translate(0 0)"/>
      <path id="Path_682" data-name="Path 682" class="cls-3" d="M36.143,2.108c-.557-.046-1.123-.055-1.687-.075A32.056,32.056,0,0,0,4,33.976v48H6.679v-48A32.046,32.046,0,0,1,36.143,2.108Z" transform="translate(0 0.013)"/>
      <ellipse id="Ellipse_47" data-name="Ellipse 47" class="cls-4" cx="28.125" cy="27.997" rx="28.125" ry="27.997" transform="translate(9.357 4.669)"/>
      <ellipse id="Ellipse_48" data-name="Ellipse 48" class="cls-5" cx="25.446" cy="25.33" rx="25.446" ry="25.33" transform="translate(12.036 7.335)"/>
      <path id="Path_683" data-name="Path 683" class="cls-2" d="M37.32,33.939V31.348l-2.6-.922a8.214,8.214,0,0,0-.772-1.862l1.184-2.482a10.734,10.734,0,0,0-1.843-1.834l-2.493,1.179a8.3,8.3,0,0,0-1.871-.769l-.927-2.593h-2.6l-.926,2.593a8.3,8.3,0,0,0-1.871.769L20.1,24.248a10.738,10.738,0,0,0-1.843,1.834l1.184,2.482a8.213,8.213,0,0,0-.772,1.862l-2.6.922v2.591l2.6.922a8.214,8.214,0,0,0,.772,1.862l-1.184,2.482A10.741,10.741,0,0,0,20.1,41.04l2.493-1.179a8.3,8.3,0,0,0,1.871.769l.927,2.593h2.6l.926-2.593a8.294,8.294,0,0,0,1.871-.769l2.493,1.179a10.726,10.726,0,0,0,1.843-1.834l-1.184-2.482a8.215,8.215,0,0,0,.772-1.862ZM26.692,35.31a2.666,2.666,0,1,1,2.679-2.666A2.672,2.672,0,0,1,26.692,35.31Z" transform="translate(4.093 6.687)"/>
      <path id="Path_684" data-name="Path 684" class="cls-6" d="M41.319,10h-6.7v2.666h2.794l-8.04,6.225-4.521-4.5a1.34,1.34,0,0,0-1.783-.1l-6.7,5.333,1.673,2.083,5.761-4.588,4.51,4.489a1.343,1.343,0,0,0,1.769.109l9.892-7.659V18h2.679V11.333A1.336,1.336,0,0,0,41.319,10Z" transform="translate(4.199 2.668)"/>
      <g id="Group_454" data-name="Group 454" transform="translate(45.518 26)">
        <path id="Path_685" data-name="Path 685" class="cls-7" d="M43,20h2.679V32H43Z" transform="translate(-32.286 -20)"/>
        <path id="Path_686" data-name="Path 686" class="cls-7" d="M39,23h2.679v8H39Z" transform="translate(-33.643 -19)"/>
        <path id="Path_687" data-name="Path 687" class="cls-7" d="M35,25h2.679v5.333H35Z" transform="translate(-35 -18.334)"/>
      </g>
      <path id="Path_688" data-name="Path 688" class="cls-3" d="M25.357,26a5.333,5.333,0,1,0,5.357,5.333A5.345,5.345,0,0,0,25.357,26Zm0,8a2.666,2.666,0,1,1,2.679-2.666A2.672,2.672,0,0,1,25.357,34Z" transform="translate(5.429 7.999)"/>
    </g>
  </g>
</svg>
