<svg id="Unofficial_JavaScript_logo_2" xmlns="http://www.w3.org/2000/svg" viewBox="0 0 50 50">
  <defs>
    <style>
      .cls-1 {
        fill: #ffcf00;
      }

      .cls-2 {
        fill: #f4c600;
      }

      .cls-3 {
        fill: #fff;
      }
    </style>
  </defs>
  <rect id="Rectangle_621" data-name="Rectangle 621" class="cls-1" width="50" height="50" rx="5"/>
  <path id="Rectangle_622" data-name="Rectangle 622" class="cls-2" d="M0,0H20a5,5,0,0,1,5,5V45a5,5,0,0,1-5,5H0a0,0,0,0,1,0,0V0A0,0,0,0,1,0,0Z" transform="translate(25)"/>
  <path id="Path_3446" data-name="Path 3446" class="cls-3" d="M186.3,302.263a5.117,5.117,0,0,0,4.635,2.853c1.947,0,3.19-.973,3.19-2.317,0-1.611-1.278-2.182-3.421-3.119l-1.175-.5c-3.39-1.444-5.643-3.254-5.643-7.079,0-3.524,2.685-6.206,6.881-6.206a6.945,6.945,0,0,1,6.683,3.762L193.794,292a3.2,3.2,0,0,0-3.024-2.013A2.044,2.044,0,0,0,188.522,292c0,1.41.873,1.98,2.889,2.853l1.175.5c3.992,1.712,6.246,3.457,6.246,7.381,0,4.23-3.323,6.548-7.786,6.548-4.363,0-7.183-2.079-8.562-4.8Zm-16.6.407c.738,1.31,1.41,2.417,3.024,2.417,1.544,0,2.517-.6,2.517-2.952V286.158h4.7V302.2c0,4.865-2.852,7.079-7.016,7.079a7.294,7.294,0,0,1-7.048-4.292Z" transform="translate(-153.715 -264.2)"/>
</svg>
