<svg xmlns="http://www.w3.org/2000/svg" xmlns:xlink="http://www.w3.org/1999/xlink" viewBox="0 0 120 46.2">
  <defs>
    <style>
      .cls-1, .cls-4 {
        fill: #fff;
      }

      .cls-2 {
        fill: none;
      }

      .cls-3 {
        clip-path: url(#clip-path);
      }

      .cls-4 {
        fill-rule: evenodd;
      }

      .cls-5 {
        clip-path: url(#clip-path-2);
      }

      .cls-6 {
        clip-path: url(#clip-path-3);
      }

      .cls-7 {
        clip-path: url(#clip-path-4);
      }
    </style>
    <clipPath id="clip-path">
      <rect id="Rectangle_640" data-name="Rectangle 640" class="cls-1" width="120" height="46.2"/>
    </clipPath>
    <clipPath id="clip-path-2">
      <path id="Path_2854" data-name="Path 2854" class="cls-2" d="M22.673-169.328A22.89,22.89,0,0,0,0-146.228H0a22.89,22.89,0,0,0,22.673,23.1h0a22.363,22.363,0,0,0,15.349-6.1H30.787a18.187,18.187,0,0,1-8.114,1.9h0a18.728,18.728,0,0,1-18.55-18.9h0a18.728,18.728,0,0,1,18.55-18.9h0a18.536,18.536,0,0,1,16.856,11h4.456a22.707,22.707,0,0,0-21.312-15.2Z" transform="translate(0.001 169.328)"/>
    </clipPath>
    <clipPath id="clip-path-3">
      <path id="Path_2856" data-name="Path 2856" class="cls-2" d="M22.814-57.464a22.362,22.362,0,0,0,15.349-6.1H30.928a18.187,18.187,0,0,1-8.114,1.9h0A18.357,18.357,0,0,1,8.929-68.031h0A23.1,23.1,0,0,1,.192-79.025h0A22.855,22.855,0,0,0,22.814-57.464" transform="translate(-0.192 79.025)"/>
    </clipPath>
    <clipPath id="clip-path-4">
      <rect id="Rectangle_606" data-name="Rectangle 606" class="cls-1" width="2.57" height="21.624"/>
    </clipPath>
  </defs>
  <g id="Logo_Small_1" data-name="Logo Small – 1" class="cls-3">
    <path id="Path_2844" data-name="Path 2844" class="cls-1" d="M107.613-133.2h-4.99v4.233h4.99v8.181a15.4,15.4,0,0,0,.268,3.021h0a9.487,9.487,0,0,0,.8,2.4h0c.141.293.307.612.507.954h0a7.974,7.974,0,0,0,.732,1.059h0a10.561,10.561,0,0,0,3.609,2.927h0a10.024,10.024,0,0,0,4.38.954h0a10.635,10.635,0,0,0,2.39-.262h0V-114.2c-.076.031-.152.061-.23.09h0a5.727,5.727,0,0,1-1.19.317h0a6.992,6.992,0,0,1-1.083.089h0a5.718,5.718,0,0,1-2.6-.616h0a7.288,7.288,0,0,1-2.3-1.918h0a5.162,5.162,0,0,1-.966-1.838h0a8.106,8.106,0,0,1-.307-2.3h0v-8.589h4.667V-133.2h-4.667V-134.9a4.109,4.109,0,0,0-1.123-2.962,4.073,4.073,0,0,0-2.891-1.272h0Zm23.667,2.764a8.124,8.124,0,0,0-1.712.144h0a10.269,10.269,0,0,0-4.746,2.127h0a10.482,10.482,0,0,0-3.843,8.124h0v.145a10.494,10.494,0,0,0,.136,1.694h0a10.847,10.847,0,0,0,.42,1.724h0a9.543,9.543,0,0,0,.639,1.465h0a14.974,14.974,0,0,0,1,1.607h0a10.3,10.3,0,0,0,8.072,3.917h.146a10.907,10.907,0,0,0,3.322-.512h0a9.22,9.22,0,0,0,3.009-1.66h0a10.5,10.5,0,0,0,3-3.716h0a10.49,10.49,0,0,0,.965-4.5h0v-.15a11.4,11.4,0,0,0-.507-3.389h0a9.253,9.253,0,0,0-1.663-3.071h0a10.387,10.387,0,0,0-3.672-3h0a10.279,10.279,0,0,0-4.429-.959h-.146Zm-2.175,16.5a6.01,6.01,0,0,1-1.9-1.247h0a6.552,6.552,0,0,1-1.585-2.221h0a6.578,6.578,0,0,1-.512-2.584h0a6.081,6.081,0,0,1,.1-1.049h0a7.817,7.817,0,0,1,.3-1.1h0a5.087,5.087,0,0,1,.39-.9h0a8.45,8.45,0,0,1,.707-1.079h0a6.269,6.269,0,0,1,4.736-2.271h0a5.9,5.9,0,0,1,2.2.418h0a6.148,6.148,0,0,1,1.99,1.317h0a6.913,6.913,0,0,1,1.556,2.191h0a5.994,5.994,0,0,1,.483,2.539h0a6.243,6.243,0,0,1-.107,1.113h0c-.063.308-.122.551-.175.735h0a6.964,6.964,0,0,1-.917,1.878h0a6.308,6.308,0,0,1-1.483,1.5h0a6.164,6.164,0,0,1-1.7.88h0a5.47,5.47,0,0,1-1.668.268h-.4a5.622,5.622,0,0,1-2.019-.383M88.488-129.41a10.976,10.976,0,0,0-3.731,3.141h0a6.416,6.416,0,0,0-.9,1.441h0a4.628,4.628,0,0,0-.39.83h0q-.183.477-.366,1.089h0a14.6,14.6,0,0,0-.429,3.96h0v9.466h4.155V-119.4a7.546,7.546,0,0,1,1.1-4.2h0a6.492,6.492,0,0,1,3.346-2.495h0a4.571,4.571,0,0,1,.941-.238h0a5.533,5.533,0,0,1,.829-.069h0a5.752,5.752,0,0,1,.834.069h0a4.732,4.732,0,0,1,.951.238h0a6.5,6.5,0,0,1,3.341,2.495h0a7.544,7.544,0,0,1,1.1,4.2h0v9.918h4.155v-9.466a14.586,14.586,0,0,0-.429-3.96h0c-.122-.408-.249-.765-.371-1.074h0c-.127-.313-.254-.592-.385-.845h0c-.108-.194-.224-.413-.361-.656h0a5.584,5.584,0,0,0-.527-.785h0a10.177,10.177,0,0,0-8.3-4.164h0a10.14,10.14,0,0,0-4.556,1.023" transform="translate(-53.267 147.373)"/>
    <path id="Path_2850" data-name="Path 2850" class="cls-1" d="M337.849-119.967h0v.089a10.492,10.492,0,0,0,.136,1.694h0a10.9,10.9,0,0,0,.419,1.724h0a9.541,9.541,0,0,0,.639,1.465h0a14.972,14.972,0,0,0,1,1.607h0a10.3,10.3,0,0,0,8.072,3.917h.146a10.906,10.906,0,0,0,3.322-.512h0a9.218,9.218,0,0,0,3.01-1.66h0a10.506,10.506,0,0,0,3-3.716h0a10.483,10.483,0,0,0,.966-4.5h0v-.15a11.406,11.406,0,0,0-.507-3.389h0a11.059,11.059,0,0,0-1.663-3.071h0c-5.084-5.269-9.746-.44-10.238.453h0a5.746,5.746,0,0,1,2.049-.369h0a5.9,5.9,0,0,1,2.2.418h0a6.143,6.143,0,0,1,1.99,1.317h0a6.918,6.918,0,0,1,1.556,2.191h0a6,6,0,0,1,.483,2.539h0a6.248,6.248,0,0,1-.107,1.113h0c-.063.308-.122.551-.175.735h0a6.982,6.982,0,0,1-.917,1.878h0a6.306,6.306,0,0,1-1.483,1.5h0a6.162,6.162,0,0,1-1.7.88h0a5.472,5.472,0,0,1-1.668.268H348a5.619,5.619,0,0,1-2.019-.383h0a6.011,6.011,0,0,1-1.9-1.247h0a6.552,6.552,0,0,1-1.585-2.221h0a6.578,6.578,0,0,1-.512-2.584H342v-14.906a4.21,4.21,0,0,0-4.155-4.233h0Z" transform="translate(-247.373 147.357)"/>
    <g id="Group_1697" data-name="Group 1697" transform="translate(90.482 8.244)">
      <path id="Path_2851" data-name="Path 2851" class="cls-4" d="M-11.362-73.531a12.736,12.736,0,0,1-1.954-1.858,15,15,0,0,1-1-1.607,9.562,9.562,0,0,1-.639-1.465,10.837,10.837,0,0,1-.419-1.724,10.489,10.489,0,0,1-.137-1.694v-.089h0V-101.12h.213l.106.007.1.009.1.012.1.015.1.017.1.02.1.023.1.025.1.027.1.03.1.032.1.035.095.037.094.039.092.041.091.043.09.045.089.048.088.05.086.052.085.054.084.056.082.058.081.06.079.062.078.064h0l.076.065.074.067.073.069.071.071.07.073.068.074.066.076.065.077.063.079.061.08.059.082.057.083.055.085c.018.028.036.057.053.086s.035.058.051.087l.049.089h0c.016.03.032.06.047.09l.045.092c.015.031.029.062.043.093s.028.062.04.094.026.063.039.1l.036.1c.012.032.023.065.034.1l.032.1c.011.035.02.066.029.1l.027.1c.009.033.017.067.024.1s.015.068.022.1.013.069.02.1.012.069.017.1.01.07.015.1.008.07.012.106.007.071.009.106.005.071.007.107,0,.072,0,.108v15.021H-11.4q0,.32.028.632Z" transform="translate(15.511 101.12)"/>
    </g>
    <path id="Path_2852" data-name="Path 2852" class="cls-2" d="M0-169.328H120v46.2H0Z" transform="translate(0 169.328)"/>
    <path id="Path_2854-2" data-name="Path 2854" class="cls-2" d="M22.673-169.328A22.89,22.89,0,0,0,0-146.228H0a22.89,22.89,0,0,0,22.673,23.1h0a22.363,22.363,0,0,0,15.349-6.1H30.787a18.187,18.187,0,0,1-8.114,1.9h0a18.728,18.728,0,0,1-18.55-18.9h0a18.728,18.728,0,0,1,18.55-18.9h0a18.536,18.536,0,0,1,16.856,11h4.456a22.707,22.707,0,0,0-21.312-15.2Z" transform="translate(0 169.328)"/>
    <g id="Group_1700" data-name="Group 1700" class="cls-5" transform="translate(-0.001)">
      <g id="Group_1699" data-name="Group 1699" transform="translate(-22.46 17.701) rotate(-38.257)">
        <path id="Path_2853" data-name="Path 2853" class="cls-1" d="M28.6,0l94.248,74.278-28.6,36.29L0,36.286Z" transform="translate(0 0)"/>
      </g>
    </g>
    <g id="Group_1702" data-name="Group 1702" class="cls-6" transform="translate(0.051 24.639)">
      <g id="Group_1701" data-name="Group 1701" transform="matrix(0.611, 0.792, -0.792, 0.611, 75.158, -82.678)">
        <path id="Path_2855" data-name="Path 2855" class="cls-1" d="M0,95,73.313,0l36.575,28.222-73.313,95Z" transform="translate(0 0)"/>
      </g>
    </g>
    <g id="Group_1715" data-name="Group 1715" transform="translate(19.48 8.246)">
      <path id="Rectangle_601" data-name="Rectangle 601" class="cls-1" d="M0,0H.57a5.011,5.011,0,0,1,5,5.022V6.6H5A5.011,5.011,0,0,1,0,1.577Z" transform="translate(0)"/>
      <path id="Rectangle_602" data-name="Rectangle 602" class="cls-1" d="M0,0H.57a5.011,5.011,0,0,1,5,5.022V21.614H5a5.011,5.011,0,0,1-5-5.022Z" transform="translate(0 8.035)"/>
      <g id="Mask_Group_1" data-name="Mask Group 1" class="cls-7" transform="translate(3 8.035)">
        <path id="Rectangle_607" data-name="Rectangle 607" class="cls-1" d="M0,0H.57a5.011,5.011,0,0,1,5,5.022V21.614H5a5.011,5.011,0,0,1-5-5.022Z" transform="translate(-3)"/>
      </g>
      <g id="Mask_Group_2" data-name="Mask Group 2" class="cls-7" transform="translate(3)">
        <path id="Rectangle_608" data-name="Rectangle 608" class="cls-1" d="M0,0H.57a5.011,5.011,0,0,1,5,5.022V6.6H5A5.011,5.011,0,0,1,0,1.577Z" transform="translate(-3)"/>
      </g>
    </g>
    <g id="Group_1716" data-name="Group 1716" transform="translate(114.48 8.246)">
      <path id="Rectangle_601-2" data-name="Rectangle 601" class="cls-1" d="M0,0H.57a5.011,5.011,0,0,1,5,5.022V6.6H5A5.011,5.011,0,0,1,0,1.577Z" transform="translate(0)"/>
      <path id="Rectangle_602-2" data-name="Rectangle 602" class="cls-1" d="M0,0H.57a5.011,5.011,0,0,1,5,5.022V21.614H5a5.011,5.011,0,0,1-5-5.022Z" transform="translate(0 8.035)"/>
      <g id="Mask_Group_1-2" data-name="Mask Group 1" class="cls-7" transform="translate(3 8.035)">
        <path id="Rectangle_607-2" data-name="Rectangle 607" class="cls-1" d="M0,0H.57a5.011,5.011,0,0,1,5,5.022V21.614H5a5.011,5.011,0,0,1-5-5.022Z" transform="translate(-3)"/>
      </g>
      <g id="Mask_Group_2-2" data-name="Mask Group 2" class="cls-7" transform="translate(3)">
        <path id="Rectangle_608-2" data-name="Rectangle 608" class="cls-1" d="M0,0H.57a5.011,5.011,0,0,1,5,5.022V6.6H5A5.011,5.011,0,0,1,0,1.577Z" transform="translate(-3)"/>
      </g>
    </g>
  </g>
</svg>
