<svg xmlns="http://www.w3.org/2000/svg" xmlns:xlink="http://www.w3.org/1999/xlink" viewBox="0 0 120 46">
  <defs>
    <style>
      .cls-1 {
        fill: none;
      }

      .cls-2 {
        fill: #14ba5c;
      }

      .cls-3, .cls-7 {
        fill: #07a7e3;
      }

      .cls-4 {
        clip-path: url(#clip-path);
      }

      .cls-5 {
        fill: #24ca6c;
      }

      .cls-6 {
        fill: #1abffe;
      }

      .cls-7 {
        fill-rule: evenodd;
      }

      .cls-8 {
        clip-path: url(#clip-path-2);
      }

      .cls-9 {
        fill: #ff8820;
      }

      .cls-10 {
        clip-path: url(#clip-path-3);
      }

      .cls-11 {
        fill: #f0780f;
      }

      .cls-12 {
        clip-path: url(#clip-path-4);
      }

      .cls-13 {
        clip-path: url(#clip-path-6);
      }
    </style>
    <clipPath id="clip-path">
      <rect id="Rectangle_610" data-name="Rectangle 610" width="120" height="46"/>
    </clipPath>
    <clipPath id="clip-path-2">
      <path id="Path_2854" data-name="Path 2854" class="cls-1" d="M22.673-169.328A22.838,22.838,0,0,0,0-146.328H0a22.838,22.838,0,0,0,22.673,23h0A22.415,22.415,0,0,0,38.022-129.4H30.787a18.252,18.252,0,0,1-8.114,1.892h0a18.686,18.686,0,0,1-18.55-18.818h0a18.686,18.686,0,0,1,18.55-18.818h0a18.539,18.539,0,0,1,16.856,10.952h4.456a22.7,22.7,0,0,0-21.312-15.136Z" transform="translate(0.001 169.328)"/>
    </clipPath>
    <clipPath id="clip-path-3">
      <path id="Path_2856" data-name="Path 2856" class="cls-1" d="M22.814-57.557a22.415,22.415,0,0,0,15.349-6.074H30.928a18.252,18.252,0,0,1-8.114,1.892h0a18.391,18.391,0,0,1-13.885-6.34h0A23.015,23.015,0,0,1,.192-79.025h0A22.812,22.812,0,0,0,22.814-57.557" transform="translate(-0.192 79.025)"/>
    </clipPath>
    <clipPath id="clip-path-4">
      <rect id="Rectangle_606" data-name="Rectangle 606" class="cls-2" width="2.57" height="21.53"/>
    </clipPath>
    <clipPath id="clip-path-6">
      <rect id="Rectangle_606-2" data-name="Rectangle 606" class="cls-3" width="2.57" height="21.53"/>
    </clipPath>
  </defs>
  <g id="Logo_Small_1" data-name="Logo Small – 1" class="cls-4">
    <path id="Path_2844" data-name="Path 2844" class="cls-5" d="M107.613-133.223h-4.99v4.215h4.99v8.146a15.268,15.268,0,0,0,.268,3.008h0a9.417,9.417,0,0,0,.8,2.385h0c.141.292.307.609.507.95h0a7.939,7.939,0,0,0,.732,1.054h0a10.552,10.552,0,0,0,3.609,2.914h0a10.061,10.061,0,0,0,4.38.95h0a10.679,10.679,0,0,0,2.39-.261h0v-4.45c-.076.031-.152.061-.23.09h0a5.747,5.747,0,0,1-1.19.316h0a7.022,7.022,0,0,1-1.083.089h0a5.738,5.738,0,0,1-2.6-.613h0a7.281,7.281,0,0,1-2.3-1.91h0a5.132,5.132,0,0,1-.966-1.83h0a8.038,8.038,0,0,1-.307-2.286h0v-8.552h4.667v-4.215h-4.667v-1.7a4.081,4.081,0,0,0-1.123-2.949,4.081,4.081,0,0,0-2.891-1.266h0Zm23.667,2.752a8.158,8.158,0,0,0-1.712.143h0a10.29,10.29,0,0,0-4.746,2.118h0a10.419,10.419,0,0,0-3.843,8.089h0v.144a10.4,10.4,0,0,0,.136,1.687h0a10.761,10.761,0,0,0,.42,1.717h0a9.48,9.48,0,0,0,.639,1.459h0a14.9,14.9,0,0,0,1,1.6h0a10.312,10.312,0,0,0,8.072,3.9h.146a10.951,10.951,0,0,0,3.322-.51h0a9.232,9.232,0,0,0,3.009-1.653h0a10.464,10.464,0,0,0,3-3.7h0a10.407,10.407,0,0,0,.965-4.478h0v-.149a11.309,11.309,0,0,0-.507-3.374h0a9.2,9.2,0,0,0-1.663-3.058h0a10.378,10.378,0,0,0-3.672-2.988h0a10.317,10.317,0,0,0-4.429-.955h-.146ZM129.1-114.04a6.013,6.013,0,0,1-1.9-1.242h0a6.524,6.524,0,0,1-1.585-2.211h0a6.525,6.525,0,0,1-.512-2.573h0a6.029,6.029,0,0,1,.1-1.044h0a7.756,7.756,0,0,1,.3-1.1h0a5.054,5.054,0,0,1,.39-.9h0a8.41,8.41,0,0,1,.707-1.074h0a6.279,6.279,0,0,1,4.736-2.261h0a5.923,5.923,0,0,1,2.2.416h0a6.151,6.151,0,0,1,1.99,1.311h0a6.884,6.884,0,0,1,1.556,2.182h0a5.946,5.946,0,0,1,.483,2.528h0a6.19,6.19,0,0,1-.107,1.108h0c-.063.307-.122.549-.175.732h0a6.922,6.922,0,0,1-.917,1.87h0a6.294,6.294,0,0,1-1.483,1.494h0a6.173,6.173,0,0,1-1.7.876h0a5.492,5.492,0,0,1-1.668.267h-.4a5.643,5.643,0,0,1-2.019-.381m-40.613-15.41a10.964,10.964,0,0,0-3.731,3.127h0a6.384,6.384,0,0,0-.9,1.435h0a4.6,4.6,0,0,0-.39.826h0q-.183.475-.366,1.084h0a14.475,14.475,0,0,0-.429,3.943h0v9.425h4.155v-9.875a7.488,7.488,0,0,1,1.1-4.181h0a6.49,6.49,0,0,1,3.346-2.484h0a4.588,4.588,0,0,1,.941-.237h0a5.556,5.556,0,0,1,.829-.069h0a5.776,5.776,0,0,1,.834.069h0a4.75,4.75,0,0,1,.951.237h0a6.5,6.5,0,0,1,3.341,2.484h0a7.486,7.486,0,0,1,1.1,4.181h0v9.875h4.155v-9.425a14.463,14.463,0,0,0-.429-3.943h0c-.122-.406-.249-.762-.371-1.069h0c-.127-.312-.254-.589-.385-.841h0c-.108-.193-.224-.411-.361-.653h0a5.558,5.558,0,0,0-.527-.782h0a10.192,10.192,0,0,0-8.3-4.146h0a10.177,10.177,0,0,0-4.556,1.019" transform="translate(-53.267 147.337)"/>
    <path id="Path_2850" data-name="Path 2850" class="cls-6" d="M337.849-120.05h0v.089a10.4,10.4,0,0,0,.136,1.687h0a10.811,10.811,0,0,0,.419,1.717h0a9.478,9.478,0,0,0,.639,1.459h0a14.9,14.9,0,0,0,1,1.6h0a10.312,10.312,0,0,0,8.072,3.9h.146a10.949,10.949,0,0,0,3.322-.51h0a9.23,9.23,0,0,0,3.01-1.653h0a10.469,10.469,0,0,0,3-3.7h0a10.4,10.4,0,0,0,.966-4.478h0v-.149a11.311,11.311,0,0,0-.507-3.374h0a11,11,0,0,0-1.663-3.058h0c-5.084-5.246-9.746-.438-10.238.451h0a5.769,5.769,0,0,1,2.049-.367h0a5.921,5.921,0,0,1,2.2.416h0a6.146,6.146,0,0,1,1.99,1.311h0a6.888,6.888,0,0,1,1.556,2.182h0a5.947,5.947,0,0,1,.483,2.528h0a6.2,6.2,0,0,1-.107,1.108h0c-.063.307-.122.549-.175.732h0a6.939,6.939,0,0,1-.917,1.87h0a6.292,6.292,0,0,1-1.483,1.494h0a6.172,6.172,0,0,1-1.7.876h0a5.494,5.494,0,0,1-1.668.267H348a5.64,5.64,0,0,1-2.019-.381h0a6.013,6.013,0,0,1-1.9-1.242h0a6.524,6.524,0,0,1-1.585-2.211h0a6.525,6.525,0,0,1-.512-2.573H342V-134.9a4.2,4.2,0,0,0-4.155-4.215h0Z" transform="translate(-247.373 147.321)"/>
    <g id="Group_1697" data-name="Group 1697" transform="translate(90.482 8.208)">
      <path id="Path_2851" data-name="Path 2851" class="cls-7" d="M-11.362-73.65a12.713,12.713,0,0,1-1.954-1.85,14.929,14.929,0,0,1-1-1.6,9.5,9.5,0,0,1-.639-1.459,10.751,10.751,0,0,1-.419-1.717,10.4,10.4,0,0,1-.137-1.687v-.089h0V-101.12h.213l.106.007.1.009.1.012.1.015.1.017.1.02.1.023.1.025.1.027.1.03.1.032.1.035.095.037.094.039.092.041.091.043.09.045.089.048.088.05.086.052.085.054.084.056.082.058.081.06.079.062.078.064h0l.076.065.074.067.073.069.071.071.07.073.068.074.066.076.065.077.063.079.061.08.059.082.057.083.055.085c.018.028.036.057.053.086s.035.058.051.087l.049.089h0c.016.03.032.06.047.09l.045.092c.015.031.029.062.043.093s.028.062.04.094.026.063.039.095l.036.1c.012.032.023.065.034.1l.032.1c.011.035.02.066.029.1l.027.1c.009.033.017.067.024.1s.015.068.022.1.013.069.02.1.012.069.017.1.01.07.015.1.008.07.012.106.007.071.009.106.005.071.007.107,0,.072,0,.108v14.956H-11.4q0,.319.028.629Z" transform="translate(15.511 101.12)"/>
    </g>
    <path id="Path_2852" data-name="Path 2852" class="cls-1" d="M0-169.328H120v46H0Z" transform="translate(0 169.328)"/>
    <path id="Path_2854-2" data-name="Path 2854" class="cls-1" d="M22.673-169.328A22.838,22.838,0,0,0,0-146.328H0a22.838,22.838,0,0,0,22.673,23h0A22.415,22.415,0,0,0,38.022-129.4H30.787a18.252,18.252,0,0,1-8.114,1.892h0a18.686,18.686,0,0,1-18.55-18.818h0a18.686,18.686,0,0,1,18.55-18.818h0a18.539,18.539,0,0,1,16.856,10.952h4.456a22.7,22.7,0,0,0-21.312-15.136Z" transform="translate(0 169.328)"/>
    <g id="Group_1700" data-name="Group 1700" class="cls-8" transform="translate(-0.001)">
      <g id="Group_1699" data-name="Group 1699" transform="translate(-22.46 17.625) rotate(-38.257)">
        <path id="Path_2853" data-name="Path 2853" class="cls-9" d="M28.549.06,122.8,74.338,94.324,110.471.076,36.189Z" transform="translate(0 0)"/>
      </g>
    </g>
    <g id="Group_1702" data-name="Group 1702" class="cls-10" transform="translate(0.051 24.532)">
      <g id="Group_1701" data-name="Group 1701" transform="matrix(0.611, 0.792, -0.792, 0.611, 75.158, -82.32)">
        <path id="Path_2855" data-name="Path 2855" class="cls-11" d="M-.2,94.846l73.313-95,36.417,28.1-73.313,95Z" transform="translate(0 0)"/>
      </g>
    </g>
    <g id="Group_1715" data-name="Group 1715" transform="translate(19.48 8.21)">
      <path id="Rectangle_601" data-name="Rectangle 601" class="cls-5" d="M0,0H.57a5,5,0,0,1,5,5V6.57H5a5,5,0,0,1-5-5Z" transform="translate(0)"/>
      <path id="Rectangle_602" data-name="Rectangle 602" class="cls-5" d="M0,0H.57a5,5,0,0,1,5,5V21.52H5a5,5,0,0,1-5-5Z" transform="translate(0 8)"/>
      <g id="Mask_Group_1" data-name="Mask Group 1" class="cls-12" transform="translate(3 8)">
        <path id="Rectangle_607" data-name="Rectangle 607" class="cls-2" d="M0,0H.57a5,5,0,0,1,5,5V21.52H5a5,5,0,0,1-5-5Z" transform="translate(-3)"/>
      </g>
      <g id="Mask_Group_2" data-name="Mask Group 2" class="cls-12" transform="translate(3)">
        <path id="Rectangle_608" data-name="Rectangle 608" class="cls-2" d="M0,0H.57a5,5,0,0,1,5,5V6.57H5a5,5,0,0,1-5-5Z" transform="translate(-3)"/>
      </g>
    </g>
    <g id="Group_1716" data-name="Group 1716" transform="translate(114.48 8.21)">
      <path id="Rectangle_601-2" data-name="Rectangle 601" class="cls-6" d="M0,0H.57a5,5,0,0,1,5,5V6.57H5a5,5,0,0,1-5-5Z" transform="translate(0)"/>
      <path id="Rectangle_602-2" data-name="Rectangle 602" class="cls-6" d="M0,0H.57a5,5,0,0,1,5,5V21.52H5a5,5,0,0,1-5-5Z" transform="translate(0 8)"/>
      <g id="Mask_Group_1-2" data-name="Mask Group 1" class="cls-13" transform="translate(3 8)">
        <path id="Rectangle_607-2" data-name="Rectangle 607" class="cls-3" d="M0,0H.57a5,5,0,0,1,5,5V21.52H5a5,5,0,0,1-5-5Z" transform="translate(-3)"/>
      </g>
      <g id="Mask_Group_2-2" data-name="Mask Group 2" class="cls-13" transform="translate(3)">
        <path id="Rectangle_608-2" data-name="Rectangle 608" class="cls-3" d="M0,0H.57a5,5,0,0,1,5,5V6.57H5a5,5,0,0,1-5-5Z" transform="translate(-3)"/>
      </g>
    </g>
  </g>
</svg>
