<svg xmlns="http://www.w3.org/2000/svg" xmlns:xlink="http://www.w3.org/1999/xlink" viewBox="0 0 120 46">
  <defs>
    <style>
      .cls-1 {
        fill: #24ca6c;
      }

      .cls-2 {
        fill: none;
      }

      .cls-3 {
        fill: #14ba5c;
      }

      .cls-4 {
        fill: #1abffe;
      }

      .cls-5 {
        fill: #f0780f;
      }

      .cls-6 {
        clip-path: url(#clip-Logo_Small);
      }

      .cls-7 {
        clip-path: url(#clip-path);
      }

      .cls-8 {
        clip-path: url(#clip-path-2);
      }

      .cls-9 {
        clip-path: url(#clip-path-3);
      }

      .cls-10 {
        clip-path: url(#clip-path-4);
      }

      .cls-11 {
        clip-path: url(#clip-path-5);
      }

      .cls-12 {
        clip-path: url(#clip-path-6);
      }

      .cls-13, .cls-16 {
        fill: #07a7e3;
      }

      .cls-14 {
        clip-path: url(#clip-path-7);
      }

      .cls-15 {
        clip-path: url(#clip-path-8);
      }

      .cls-16 {
        fill-rule: evenodd;
      }

      .cls-17 {
        clip-path: url(#clip-path-9);
      }

      .cls-18 {
        fill: #ff8820;
      }

      .cls-19 {
        clip-path: url(#clip-path-10);
      }
    </style>
    <clipPath id="clip-path">
      <path id="Path_2844" data-name="Path 2844" class="cls-1" d="M107.613-133.223h-4.99v4.215h4.99v8.146a15.268,15.268,0,0,0,.268,3.008h0a9.417,9.417,0,0,0,.8,2.385h0c.141.292.307.609.507.95h0a7.94,7.94,0,0,0,.732,1.054h0a10.552,10.552,0,0,0,3.609,2.914h0a10.061,10.061,0,0,0,4.38.95h0a10.679,10.679,0,0,0,2.39-.261h0v-4.45c-.076.031-.152.061-.23.09h0a5.748,5.748,0,0,1-1.19.316h0a7.021,7.021,0,0,1-1.083.089h0a5.738,5.738,0,0,1-2.6-.613h0a7.281,7.281,0,0,1-2.3-1.91h0a5.132,5.132,0,0,1-.966-1.83h0a8.038,8.038,0,0,1-.307-2.286h0v-8.552h4.667v-4.215h-4.667v-1.7a4.081,4.081,0,0,0-4.014-4.215h0ZM72.749-109.612H78.32v-23.866a5.628,5.628,0,0,0-5.571-5.651h0Zm58.532-20.859a8.158,8.158,0,0,0-1.712.143h0a10.29,10.29,0,0,0-4.746,2.118h0a10.419,10.419,0,0,0-3.843,8.089h0v.144a10.406,10.406,0,0,0,.136,1.687h0a10.76,10.76,0,0,0,.42,1.717h0a9.48,9.48,0,0,0,.639,1.459h0a14.9,14.9,0,0,0,1,1.6h0a10.312,10.312,0,0,0,8.072,3.9h.146a10.951,10.951,0,0,0,3.322-.51h0a9.232,9.232,0,0,0,3.009-1.653h0a10.464,10.464,0,0,0,3-3.7h0a10.407,10.407,0,0,0,.965-4.478h0v-.149a11.309,11.309,0,0,0-.507-3.374h0a9.2,9.2,0,0,0-1.663-3.058h0a10.378,10.378,0,0,0-3.672-2.988h0a10.317,10.317,0,0,0-4.429-.955h-.146Zm-2.175,16.431a6.013,6.013,0,0,1-1.9-1.242h0a6.524,6.524,0,0,1-1.585-2.211h0a6.525,6.525,0,0,1-.512-2.573h0a6.027,6.027,0,0,1,.1-1.044h0a7.753,7.753,0,0,1,.3-1.1h0a5.051,5.051,0,0,1,.39-.9h0a8.41,8.41,0,0,1,.707-1.074h0a6.279,6.279,0,0,1,4.736-2.261h0a5.923,5.923,0,0,1,2.2.416h0a6.15,6.15,0,0,1,1.99,1.311h0a6.884,6.884,0,0,1,1.556,2.182h0a5.946,5.946,0,0,1,.483,2.528h0a6.192,6.192,0,0,1-.107,1.108h0c-.063.307-.122.549-.175.732h0a6.921,6.921,0,0,1-.917,1.87h0a6.294,6.294,0,0,1-1.483,1.494h0a6.173,6.173,0,0,1-1.7.876h0a5.492,5.492,0,0,1-1.668.267h-.4a5.643,5.643,0,0,1-2.019-.381M88.488-129.452a10.964,10.964,0,0,0-3.731,3.127h0a6.384,6.384,0,0,0-.9,1.435h0a4.6,4.6,0,0,0-.39.826h0q-.183.475-.366,1.084h0a14.475,14.475,0,0,0-.429,3.943h0v9.425h4.155v-9.875a7.488,7.488,0,0,1,1.1-4.181h0a6.49,6.49,0,0,1,3.346-2.484h0a4.587,4.587,0,0,1,.941-.237h0a5.558,5.558,0,0,1,.829-.069h0a5.777,5.777,0,0,1,.834.069h0a4.75,4.75,0,0,1,.951.237h0a6.5,6.5,0,0,1,3.341,2.484h0a7.486,7.486,0,0,1,1.1,4.181h0v9.875h4.155v-9.425a14.463,14.463,0,0,0-.429-3.943h0c-.122-.406-.249-.762-.371-1.069h0c-.127-.312-.254-.589-.385-.841h0c-.108-.193-.224-.411-.361-.653h0a5.559,5.559,0,0,0-.527-.782h0a10.192,10.192,0,0,0-8.3-4.146h0a10.177,10.177,0,0,0-4.556,1.019" transform="translate(-72.749 139.135)"/>
    </clipPath>
    <clipPath id="clip-path-2">
      <path id="Path_2846" data-name="Path 2846" class="cls-2" d="M427.293-109.6h5.571v-23.866a5.628,5.628,0,0,0-5.571-5.651h0Z" transform="translate(-427.293 139.113)"/>
    </clipPath>
    <clipPath id="clip-path-3">
      <path id="Path_2847" data-name="Path 2847" class="cls-3" d="M83.351-107.465h2.732V-131.33a5.679,5.679,0,0,0-2.732-4.856h0Z" transform="translate(-83.351 136.187)"/>
    </clipPath>
    <clipPath id="clip-path-4">
      <rect id="Rectangle_597" data-name="Rectangle 597" class="cls-3" width="2.733" height="28.722"/>
    </clipPath>
    <clipPath id="clip-path-5">
      <path id="Path_2848" data-name="Path 2848" class="cls-2" d="M437.893-107.466h2.732v-23.865a5.679,5.679,0,0,0-2.732-4.857h0Z" transform="translate(-437.893 136.188)"/>
    </clipPath>
    <clipPath id="clip-path-6">
      <rect id="Rectangle_599" data-name="Rectangle 599" class="cls-2" width="2.733" height="28.722"/>
    </clipPath>
    <clipPath id="clip-path-7">
      <path id="Path_2850" data-name="Path 2850" class="cls-4" d="M337.849-120.05h0v.089a10.4,10.4,0,0,0,.136,1.687h0a10.814,10.814,0,0,0,.419,1.717h0a9.481,9.481,0,0,0,.639,1.459h0a14.9,14.9,0,0,0,1,1.6h0a10.312,10.312,0,0,0,8.072,3.9h.146a10.949,10.949,0,0,0,3.322-.51h0a9.23,9.23,0,0,0,3.01-1.653h0a10.469,10.469,0,0,0,3-3.7h0a10.4,10.4,0,0,0,.966-4.478h0v-.149a11.309,11.309,0,0,0-.507-3.374h0a11,11,0,0,0-1.663-3.058h0c-5.084-5.246-9.746-.438-10.238.451h0a5.769,5.769,0,0,1,2.049-.367h0a5.921,5.921,0,0,1,2.2.416h0a6.145,6.145,0,0,1,1.99,1.311h0a6.888,6.888,0,0,1,1.556,2.182h0a5.946,5.946,0,0,1,.483,2.528h0a6.193,6.193,0,0,1-.107,1.108h0c-.063.307-.122.549-.175.732h0a6.937,6.937,0,0,1-.917,1.87h0a6.291,6.291,0,0,1-1.483,1.494h0a6.172,6.172,0,0,1-1.7.876h0a5.494,5.494,0,0,1-1.668.267H348a5.64,5.64,0,0,1-2.019-.381h0a6.013,6.013,0,0,1-1.9-1.242h0a6.524,6.524,0,0,1-1.585-2.211h0a6.524,6.524,0,0,1-.512-2.573H342V-134.9a4.2,4.2,0,0,0-4.155-4.215h0Z" transform="translate(-337.849 139.113)"/>
    </clipPath>
    <clipPath id="clip-path-8">
      <path id="Path_2852" data-name="Path 2852" class="cls-2" d="M0-169.328H120v46H0Z" transform="translate(0 169.328)"/>
    </clipPath>
    <clipPath id="clip-path-9">
      <path id="Path_2854" data-name="Path 2854" class="cls-2" d="M22.673-169.328A22.838,22.838,0,0,0,0-146.328H0a22.838,22.838,0,0,0,22.673,23h0A22.415,22.415,0,0,0,38.022-129.4H30.787a18.252,18.252,0,0,1-8.114,1.892h0a18.686,18.686,0,0,1-18.55-18.818h0a18.686,18.686,0,0,1,18.55-18.818h0a18.539,18.539,0,0,1,16.856,10.952h4.456A22.7,22.7,0,0,0,22.673-169.328Z" transform="translate(0 169.328)"/>
    </clipPath>
    <clipPath id="clip-path-10">
      <path id="Path_2856" data-name="Path 2856" class="cls-5" d="M22.814-57.557a22.415,22.415,0,0,0,15.349-6.074H30.928a18.252,18.252,0,0,1-8.114,1.892h0a18.391,18.391,0,0,1-13.885-6.34h0A23.015,23.015,0,0,1,.192-79.025h0A22.812,22.812,0,0,0,22.814-57.557" transform="translate(-0.192 79.025)"/>
    </clipPath>
    <clipPath id="clip-Logo_Small">
      <rect width="120" height="46"/>
    </clipPath>
  </defs>
  <g id="Logo_Small" data-name="Logo Small" class="cls-6">
    <g id="Group_1704" data-name="Group 1704" transform="translate(0 169.328)">
      <g id="Group_1686" data-name="Group 1686" class="cls-7" transform="translate(19.482 -161.126)">
        <g id="Group_1685" data-name="Group 1685" transform="translate(76.483 -56.97) rotate(63.414)">
          <path id="Path_2843" data-name="Path 2843" class="cls-1" d="M.664,107.644,54.368.332,95.5,20.919,41.8,128.231Z" transform="translate(0 0)"/>
        </g>
      </g>
      <g id="Group_1688" data-name="Group 1688" class="cls-8" transform="translate(114.429 -161.12)">
        <g id="Group_1687" data-name="Group 1687" transform="translate(24.107 28.011) rotate(152.541)">
          <path id="Path_2845" data-name="Path 2845" class="cls-4" d="M106.226,96.02-.254,40.685,20.957-.132,127.438,55.2Z" transform="translate(0 0)"/>
        </g>
      </g>
      <g id="Group_1691" data-name="Group 1691" class="cls-9" transform="translate(22.321 -160.325)">
        <g id="Group_1690" data-name="Group 1690" transform="translate(0 0)">
          <g id="Group_1689" data-name="Group 1689" class="cls-10">
            <rect id="Rectangle_596" data-name="Rectangle 596" class="cls-3" width="2.733" height="28.722"/>
          </g>
        </g>
      </g>
      <g id="Group_1694" data-name="Group 1694" class="cls-11" transform="translate(117.267 -160.325)">
        <g id="Group_1693" data-name="Group 1693" transform="translate(0 0)">
          <g id="Group_1692" data-name="Group 1692" class="cls-12">
            <path id="Path_2857" data-name="Path 2857" class="cls-13" d="M0,0H2.733V28.722H0Z"/>
          </g>
        </g>
      </g>
      <g id="Group_1696" data-name="Group 1696" class="cls-14" transform="translate(90.476 -161.12)">
        <g id="Group_1695" data-name="Group 1695" transform="matrix(0.65, -0.76, 0.76, 0.65, -112.856, 18.332)">
          <path id="Path_2849" data-name="Path 2849" class="cls-4" d="M34.715-.263l78.05,91.149-34.94,29.919L-.225,29.657Z" transform="translate(0 0)"/>
        </g>
      </g>
      <g id="Group_1698" data-name="Group 1698" class="cls-15" transform="translate(0 -169.328)">
        <g id="Group_1697" data-name="Group 1697" transform="translate(90.476 8.208)">
          <path id="Path_2851" data-name="Path 2851" class="cls-16" d="M-11.362-73.65A12.713,12.713,0,0,1-13.316-75.5a14.93,14.93,0,0,1-1-1.6,9.5,9.5,0,0,1-.639-1.459,10.751,10.751,0,0,1-.419-1.717,10.4,10.4,0,0,1-.137-1.687v-.089h0V-101.12l.107,0,.106,0,.106.007.1.009.1.012.1.015.1.017.1.02.1.023.1.025.1.027.1.03.1.032.1.035.095.037.094.039.092.041.091.043.09.045.089.048.088.05.086.052.085.054.084.056.082.058.081.06.079.062.078.064h0l.076.065.074.067.073.069.071.071.07.073.068.074.066.076.065.077.063.079.061.08.059.082.057.083.055.085c.018.028.036.057.053.086s.035.058.051.087.033.059.049.089h0c.016.03.032.06.047.09s.03.061.045.092.029.062.043.093.028.062.04.094.026.063.039.095l.036.1c.012.032.023.065.034.1s.021.065.032.1.02.066.029.1.018.067.027.1.017.067.024.1.015.068.022.1.013.069.02.1.012.069.017.1.01.07.015.1.008.07.012.106.007.071.009.106.005.071.007.107,0,.072,0,.108,0,.072,0,.108v14.848h-.028q0,.319.028.629Z" transform="translate(15.517 101.12)"/>
        </g>
      </g>
      <g id="Group_1700" data-name="Group 1700" class="cls-17" transform="translate(0 -169.328)">
        <g id="Group_1699" data-name="Group 1699" transform="matrix(0.785, -0.619, 0.619, 0.785, -22.023, 17.625)">
          <path id="Path_2853" data-name="Path 2853" class="cls-18" d="M28.206-.211l94.248,74.278L93.981,110.2-.267,35.918Z" transform="translate(0 0)"/>
        </g>
      </g>
      <g id="Group_1702" data-name="Group 1702" class="cls-19" transform="translate(0.051 -144.796)">
        <g id="Group_1701" data-name="Group 1701" transform="translate(75.159 -83.469) rotate(52.342)">
          <path id="Path_2855" data-name="Path 2855" class="cls-5" d="M.71,95.549l73.313-95,36.417,28.1-73.313,95Z" transform="translate(0 0)"/>
        </g>
      </g>
    </g>
  </g>
</svg>
