<svg xmlns="http://www.w3.org/2000/svg" viewBox="0 0 50 47">
  <defs>
    <style>
      .cls-1 {
        fill: #3b486a;
      }

      .cls-2 {
        fill: #303c5e;
      }

      .cls-3 {
        fill: #74ceff;
      }

      .cls-4 {
        fill: #1abffe;
      }

      .cls-5 {
        fill: #ff8820;
      }

      .cls-6 {
        fill: #f70;
      }
    </style>
  </defs>
  <g id="hierarchical-structure" transform="translate(0 -16)">
    <path id="Path_3373" data-name="Path 3373" class="cls-1" d="M98.281,266.281v2.938a1.465,1.465,0,1,1-2.93,0v-2.937a1.452,1.452,0,0,0-1.465-1.469H80.605v4.406a1.465,1.465,0,1,1-2.93,0v-4.406H64.395a1.452,1.452,0,0,0-1.465,1.469v2.938a1.465,1.465,0,1,1-2.93,0v-2.937a4.394,4.394,0,0,1,4.395-4.406H77.676v-4.406a1.465,1.465,0,1,1,2.93,0v4.406H93.887A4.394,4.394,0,0,1,98.281,266.281Z" transform="translate(-54.141 -216.5)"/>
    <path id="Path_3374" data-name="Path 3374" class="cls-2" d="M275.141,266.281v2.938a1.465,1.465,0,1,1-2.93,0v-2.937a1.452,1.452,0,0,0-1.465-1.469H257.465v4.406A1.453,1.453,0,0,1,256,270.688V256a1.452,1.452,0,0,1,1.465,1.469v4.406h13.281A4.394,4.394,0,0,1,275.141,266.281Z" transform="translate(-231 -216.5)"/>
    <g id="Group_1791" data-name="Group 1791" transform="translate(0 51.25)">
      <path id="Path_3375" data-name="Path 3375" class="cls-3" d="M13.184,387.75H1.465A1.466,1.466,0,0,1,0,386.281v-8.812A1.466,1.466,0,0,1,1.465,376H13.184a1.466,1.466,0,0,1,1.465,1.469v8.813A1.466,1.466,0,0,1,13.184,387.75Z" transform="translate(0 -376)"/>
      <path id="Path_3376" data-name="Path 3376" class="cls-3" d="M194.184,376H182.465A1.452,1.452,0,0,0,181,377.469v8.813a1.453,1.453,0,0,0,1.465,1.469h11.719a1.453,1.453,0,0,0,1.465-1.469v-8.812A1.452,1.452,0,0,0,194.184,376Z" transform="translate(-163.324 -376)"/>
    </g>
    <g id="Group_1792" data-name="Group 1792" transform="translate(25 51.25)">
      <path id="Path_3377" data-name="Path 3377" class="cls-4" d="M375.184,387.75H363.465A1.466,1.466,0,0,1,362,386.281v-8.812A1.466,1.466,0,0,1,363.465,376h11.719a1.466,1.466,0,0,1,1.465,1.469v8.813A1.466,1.466,0,0,1,375.184,387.75Z" transform="translate(-351.648 -376)"/>
      <path id="Path_3378" data-name="Path 3378" class="cls-4" d="M263.324,377.469v8.813a1.453,1.453,0,0,1-1.465,1.469H256V376h5.859A1.452,1.452,0,0,1,263.324,377.469Z" transform="translate(-256 -376)"/>
    </g>
    <path id="Path_3379" data-name="Path 3379" class="cls-5" d="M147.428,31.275l-2.109-1.234a15.405,15.405,0,0,0,0-1.645l2.109-1.234a1.461,1.461,0,0,0,.557-2l-2.93-5.111a1.477,1.477,0,0,0-2.021-.529l-2.139,1.263a9.753,9.753,0,0,0-1.406-.823v-2.5A1.452,1.452,0,0,0,138.023,16h-5.859a1.452,1.452,0,0,0-1.465,1.469v2.5a9.744,9.744,0,0,0-1.406.823l-2.139-1.263a1.477,1.477,0,0,0-2.021.529l-2.93,5.111a1.461,1.461,0,0,0,.557,2l2.109,1.234a15.405,15.405,0,0,0,0,1.645l-2.109,1.234a1.461,1.461,0,0,0-.557,2l2.93,5.111a1.477,1.477,0,0,0,2.021.529l2.139-1.263a9.742,9.742,0,0,0,1.406.822v2.5a1.453,1.453,0,0,0,1.465,1.469h5.859a1.453,1.453,0,0,0,1.465-1.469v-2.5a9.742,9.742,0,0,0,1.406-.822l2.139,1.263a1.477,1.477,0,0,0,2.021-.529l2.93-5.111A1.461,1.461,0,0,0,147.428,31.275Zm-12.334,2.35a4.406,4.406,0,1,1,4.395-4.406A4.395,4.395,0,0,1,135.094,33.625Z" transform="translate(-110.093)"/>
    <path id="Path_3380" data-name="Path 3380" class="cls-6" d="M268.892,33.273l-2.93,5.111a1.477,1.477,0,0,1-2.021.529L261.8,37.649a9.742,9.742,0,0,1-1.406.822v2.5a1.453,1.453,0,0,1-1.465,1.469H256V33.625a4.406,4.406,0,0,0,0-8.812V16h2.93a1.452,1.452,0,0,1,1.465,1.469v2.5a9.744,9.744,0,0,1,1.406.823l2.139-1.263a1.477,1.477,0,0,1,2.021.529l2.93,5.111a1.461,1.461,0,0,1-.557,2L266.226,28.4a15.405,15.405,0,0,1,0,1.645l2.109,1.234A1.461,1.461,0,0,1,268.892,33.273Z" transform="translate(-231.001)"/>
  </g>
</svg>
