<svg xmlns="http://www.w3.org/2000/svg" xmlns:xlink="http://www.w3.org/1999/xlink" viewBox="0 0 90 90">
  <defs>
    <style>
      .cls-1 {
        fill: url(#linear-gradient);
      }

      .cls-2 {
        fill: #76d9ff;
      }

      .cls-3 {
        fill: #46ccff;
      }

      .cls-4 {
        fill: #b1e9ff;
      }

      .cls-5 {
        fill: #ff8820;
      }

      .cls-6 {
        fill: #e87713;
      }

      .cls-7 {
        fill: #ff9b43;
      }
    </style>
    <linearGradient id="linear-gradient" x1="0.5" x2="0.5" y2="1" gradientUnits="objectBoundingBox">
      <stop offset="0" stop-color="#f1f3f8"/>
      <stop offset="1" stop-color="#f1f3f8" stop-opacity="0"/>
    </linearGradient>
  </defs>
  <g id="_1" data-name="1" transform="translate(-836 -1819)">
    <path id="Path_653" data-name="Path 653" class="cls-1" d="M67.417,0c24.82,0,22.47,20.147,22.47,45S47.3,90,22.477,90,.007,69.853.007,45,42.6,0,67.417,0Z" transform="translate(836.053 1819)"/>
    <g id="_3d-modeling" data-name="3d-modeling" transform="translate(805 1829)">
      <path id="Path_3395" data-name="Path 3395" class="cls-2" d="M231.824.309A2.317,2.317,0,0,0,230.667,0L226,9.531l4.667,9.711,16.194,9.039h4.806l11.538.567,2.147-8.774a2.334,2.334,0,0,0-.861-.859Z" transform="translate(-164.667)"/>
      <path id="Path_3396" data-name="Path 3396" class="cls-3" d="M378.011,159.927l2.856,9.2,11.152-.8a2.35,2.35,0,0,0,.315-1.176v-37.5a2.35,2.35,0,0,0-.315-1.176l-13.685,8.207L376,142.748v11.3" transform="translate(-291.333 -108.399)"/>
      <path id="Path_3397" data-name="Path 3397" class="cls-2" d="M231.824,356.418l32.667-18.906a2.335,2.335,0,0,0,.861-.859l-14.007-8.4-3.632-.282-17.045,9.512L226,348.426l4.667,8.3a2.329,2.329,0,0,0,.594-.077A2.3,2.3,0,0,0,231.824,356.418Z" transform="translate(-164.667 -276.727)"/>
      <path id="Path_3398" data-name="Path 3398" class="cls-4" d="M54.052,323.386l-7.018,1-6.979-.5-7.028,8.9a2.334,2.334,0,0,0,.861.859l32.667,18.906a2.323,2.323,0,0,0,1.157.309V333.614Z" transform="translate(-1.712 -272.857)"/>
      <path id="Path_3399" data-name="Path 3399" class="cls-3" d="M45,136.68l-5.833-8.186-7.851-.021A2.351,2.351,0,0,0,31,129.648v37.5a2.35,2.35,0,0,0,.315,1.176l14.007-8.4,2.006-5.879,0-11.3Z" transform="translate(0 -108.398)"/>
      <path id="Path_3400" data-name="Path 3400" class="cls-4" d="M66.554.309,33.888,19.215a2.335,2.335,0,0,0-.861.859l13.685,8.207h4.806l16.194-9.039V0A2.317,2.317,0,0,0,66.554.309Z" transform="translate(-1.712)"/>
      <path id="Path_3401" data-name="Path 3401" class="cls-5" d="M142,216.044l-19.8-11.049a2.345,2.345,0,0,1-1.2-2.049V180.887l10.5,1.172L142,192.606l4.667,11.719Z" transform="translate(-76 -152.606)"/>
      <path id="Path_3402" data-name="Path 3402" class="cls-6" d="M256,216.044l19.8-11.049a2.345,2.345,0,0,0,1.2-2.049V180.887l-15.167,1.172L256,192.606Z" transform="translate(-190 -152.606)"/>
      <path id="Path_3403" data-name="Path 3403" class="cls-7" d="M140.867,108.454,121,119.541l21,11.719,21-11.719-19.867-11.086A2.324,2.324,0,0,0,140.867,108.454Z" transform="translate(-76 -91.259)"/>
      <path id="Path_3404" data-name="Path 3404" class="cls-5" d="M277,119.541l-19.867-11.086A2.325,2.325,0,0,0,256,108.16v23.1Z" transform="translate(-190 -91.26)"/>
    </g>
  </g>
</svg>
