<svg xmlns="http://www.w3.org/2000/svg" xmlns:xlink="http://www.w3.org/1999/xlink" viewBox="0 0 90 90">
  <defs>
    <style>
      .cls-1 {
        fill: url(#linear-gradient);
      }

      .cls-2 {
        fill: #b1e9ff;
      }

      .cls-3 {
        fill: #46ccff;
      }

      .cls-4 {
        fill: #74ceff;
      }

      .cls-5 {
        fill: #05aded;
      }
    </style>
    <linearGradient id="linear-gradient" x1="0.5" x2="0.5" y2="1" gradientUnits="objectBoundingBox">
      <stop offset="0" stop-color="#f1f3f8"/>
      <stop offset="1" stop-color="#f1f3f8" stop-opacity="0"/>
    </linearGradient>
  </defs>
  <g id="_1" data-name="1" transform="translate(-836 -1819)">
    <path id="Path_653" data-name="Path 653" class="cls-1" d="M67.417,0c24.82,0,22.47,20.147,22.47,45S47.3,90,22.477,90,.007,69.853.007,45,42.6,0,67.417,0Z" transform="translate(836.053 1819)"/>
    <g id="link" transform="translate(836 1829)">
      <path id="Path_3314" data-name="Path 3314" class="cls-2" d="M212.188,65.647A20.975,20.975,0,0,0,215.4,40.026l.033-.033a22.374,22.374,0,0,0-3.248-4.176,21.081,21.081,0,0,0-29.831,0l-6.629,6.629a20.914,20.914,0,0,0-5.4,20.517c.132.663,1.723,5.038,2.32,5.3a20.124,20.124,0,0,0,11.27,9.015v.066l4.673,6.331,8.85-6.331v-.132a20.36,20.36,0,0,0,8.121-4.939ZM197.273,63.99l-7.126-2.95-6,2.817-.133.066a9.684,9.684,0,0,1-2.884-6.2,9.055,9.055,0,0,1,2.884-6.994l6.629-6.629a9.454,9.454,0,0,1,13.225.033l.066.066a9.222,9.222,0,0,1-.033,13.159Z" transform="translate(-143.035 -25.004)"/>
      <path id="Path_3315" data-name="Path 3315" class="cls-3" d="M239.066,105.656a20.36,20.36,0,0,1-8.121,4.939v.132l-8.85,6.331-4.673-6.331v-.066a20.752,20.752,0,0,1-8.187-5l8.419-8.419,6-2.817,7.126,2.95,6.629-6.629a9.222,9.222,0,0,0,.033-13.159l-.066-.066,8.32-8.32a22.381,22.381,0,0,1,3.248,4.176l-.033.033A20.975,20.975,0,0,1,245.7,99.027Z" transform="translate(-176.542 -58.384)"/>
      <g id="Group_1782" data-name="Group 1782" transform="translate(6.653)">
        <path id="Path_3316" data-name="Path 3316" class="cls-4" d="M90.332,184.411a21.446,21.446,0,0,1-13.523,0l-6.463,6.463c-4.375,4.375-9.91,3.281-13.225-.033-3.348-3.281-4.475-8.784-.033-13.225l6.629-6.629a9.445,9.445,0,0,1,13.192,0l.1.1c3.315,3.248,8.817,4.309,13.159-.033l.133-.133a19.711,19.711,0,0,0-1.823-4.011l.033-.033a22.282,22.282,0,0,0-3.281-4.143,20.841,20.841,0,0,0-8.154-5.1,18.457,18.457,0,0,0-4.21-.961,21.4,21.4,0,0,0-9.314.962A21.125,21.125,0,0,0,55.43,162.7L48.8,169.33a21.044,21.044,0,0,0-5.436,20.55c.166.63,1.757,5,2.353,5.27A20.76,20.76,0,0,0,48.8,199.16a21.126,21.126,0,0,0,29.831,0l6.629-6.629A21.471,21.471,0,0,0,90.332,184.411Z" transform="translate(-42.582 -132.067)"/>
        <path id="Path_3317" data-name="Path 3317" class="cls-4" d="M355.541,7.961,336.184,27.318a4.687,4.687,0,1,1-6.629-6.629L348.912,1.332a4.789,4.789,0,0,1,6.629,0A4.7,4.7,0,0,1,355.541,7.961Z" transform="translate(-283.562 0)"/>
      </g>
      <g id="Group_1783" data-name="Group 1783" transform="translate(12.872 1.332)">
        <path id="Path_3318" data-name="Path 3318" class="cls-5" d="M336.938,34.512,362.924,8.526a4.7,4.7,0,0,1,0,6.629L343.567,34.512A4.7,4.7,0,0,1,336.938,34.512Z" transform="translate(-297.163 -8.526)"/>
        <path id="Path_3319" data-name="Path 3319" class="cls-5" d="M262.545,204.617l-.066-.066,8.286-8.286a22.292,22.292,0,0,1,3.281,4.143l-.033.033a19.709,19.709,0,0,1,1.823,4.011l-.132.133C271.362,208.925,265.86,207.865,262.545,204.617Z" transform="translate(-234.338 -166.93)"/>
        <path id="Path_3320" data-name="Path 3320" class="cls-5" d="M118.839,343.119l-6.629,6.629a21.126,21.126,0,0,1-29.831,0l8.32-8.32c3.315,3.315,8.85,4.408,13.225.033L110.387,335a21.446,21.446,0,0,0,13.523,0A21.47,21.47,0,0,1,118.839,343.119Z" transform="translate(-82.379 -283.987)"/>
      </g>
      <path id="Path_3321" data-name="Path 3321" class="cls-2" d="M27.787,333.184,7.961,353.01a4.7,4.7,0,0,1-6.629,0,4.789,4.789,0,0,1,0-6.629l19.826-19.826a4.687,4.687,0,1,1,6.629,6.629Z" transform="translate(0 -274.377)"/>
      <path id="Path_3322" data-name="Path 3322" class="cls-3" d="M34.981,340.567,15.155,360.393a4.7,4.7,0,0,1-6.629,0l26.455-26.455A4.7,4.7,0,0,1,34.981,340.567Z" transform="translate(-7.194 -281.76)"/>
    </g>
  </g>
</svg>
