<svg xmlns="http://www.w3.org/2000/svg" xmlns:xlink="http://www.w3.org/1999/xlink" viewBox="0 0 90 90">
  <defs>
    <style>
      .cls-1 {
        fill: url(#linear-gradient);
      }

      .cls-2 {
        fill: #74ceff;
      }

      .cls-3 {
        fill: #05aded;
      }

      .cls-4 {
        fill: #e7eaf4;
      }

      .cls-5 {
        fill: #dee1eb;
      }

      .cls-6 {
        fill: #17ace8;
      }
    </style>
    <linearGradient id="linear-gradient" x1="0.5" x2="0.5" y2="1" gradientUnits="objectBoundingBox">
      <stop offset="0" stop-color="#f1f3f8"/>
      <stop offset="1" stop-color="#f1f3f8" stop-opacity="0"/>
    </linearGradient>
  </defs>
  <g id="_1" data-name="1" transform="translate(-836 -1819)">
    <path id="Path_653" data-name="Path 653" class="cls-1" d="M67.417,0c24.82,0,22.47,20.147,22.47,45S47.3,90,22.477,90,.007,69.853.007,45,42.6,0,67.417,0Z" transform="translate(836.053 1819)"/>
    <g id="dashboard" transform="translate(836 1773)">
      <path id="Path_3323" data-name="Path 3323" class="cls-2" d="M100.625,67.923v41.538a2.3,2.3,0,0,1-2.344,2.308H32.344A2.3,2.3,0,0,1,30,109.462V67.923A6.968,6.968,0,0,1,37.031,61H93.594A6.968,6.968,0,0,1,100.625,67.923Z" transform="translate(-25.313)"/>
      <path id="Path_3324" data-name="Path 3324" class="cls-3" d="M291.313,67.923v41.538a2.3,2.3,0,0,1-2.344,2.308H256V61h28.281A6.968,6.968,0,0,1,291.313,67.923Z" transform="translate(-216)"/>
      <path id="Path_3325" data-name="Path 3325" class="cls-4" d="M121.25,93.308v43.846H60V93.308A2.3,2.3,0,0,1,62.344,91h56.563A2.3,2.3,0,0,1,121.25,93.308Z" transform="translate(-50.625 -25.385)"/>
      <path id="Path_3326" data-name="Path 3326" class="cls-5" d="M286.625,93.308v43.846H256V91h28.281A2.3,2.3,0,0,1,286.625,93.308Z" transform="translate(-216 -25.385)"/>
      <path id="Path_3327" data-name="Path 3327" class="cls-2" d="M158.328,153.308H125.85a2.35,2.35,0,0,1-2.03-1.156A20.579,20.579,0,0,1,121,141.769,20.956,20.956,0,0,1,142.094,121a21.214,21.214,0,0,1,18.377,10.581h0a20.466,20.466,0,0,1-.114,20.576A2.352,2.352,0,0,1,158.328,153.308Z" transform="translate(-102.094 -50.769)"/>
      <path id="Path_3328" data-name="Path 3328" class="cls-3" d="M277.094,141.769a20.7,20.7,0,0,1-2.812,10.385,2.45,2.45,0,0,1-2.062,1.154H256V121a21.236,21.236,0,0,1,18.375,10.569A20.53,20.53,0,0,1,277.094,141.769Z" transform="translate(-216 -50.769)"/>
      <path id="Path_3329" data-name="Path 3329" class="cls-4" d="M181.7,159.215a16.476,16.476,0,0,0-14.3-8.215A16.3,16.3,0,0,0,151,167.154a16.117,16.117,0,0,0,1.594,6.923h29.625a16.117,16.117,0,0,0,1.594-6.923A16.362,16.362,0,0,0,181.7,159.215Z" transform="translate(-127.406 -76.154)"/>
      <path id="Path_3330" data-name="Path 3330" class="cls-5" d="M272.406,167.154a16.117,16.117,0,0,1-1.594,6.923H256V151a16.214,16.214,0,0,1,16.406,16.154Z" transform="translate(-216 -76.154)"/>
      <path id="Path_3331" data-name="Path 3331" class="cls-2" d="M77.656,361H2.344A2.3,2.3,0,0,0,0,363.308v4.615a6.968,6.968,0,0,0,7.031,6.923H72.969A6.968,6.968,0,0,0,80,367.923v-4.615A2.3,2.3,0,0,0,77.656,361Z" transform="translate(0 -253.846)"/>
      <g id="Group_1784" data-name="Group 1784" transform="translate(24.397 70.231)">
        <path id="Path_3332" data-name="Path 3332" class="cls-2" d="M245.688,123.308v4.615a2.344,2.344,0,0,1-4.687,0v-4.615a2.344,2.344,0,0,1,4.688,0Z" transform="translate(-227.741 -121)"/>
        <path id="Path_3333" data-name="Path 3333" class="cls-2" d="M161.8,164.022a2.354,2.354,0,0,1-1.657-.676l-3.317-3.266a2.282,2.282,0,0,1,0-3.263,2.369,2.369,0,0,1,3.314,0l3.317,3.266a2.282,2.282,0,0,1,0,3.263A2.355,2.355,0,0,1,161.8,164.022Z" transform="translate(-156.142 -150.734)"/>
      </g>
      <path id="Path_3334" data-name="Path 3334" class="cls-3" d="M306.977,164.022a2.355,2.355,0,0,1-1.657-.676,2.282,2.282,0,0,1,0-3.263l3.317-3.266a2.369,2.369,0,0,1,3.314,0,2.282,2.282,0,0,1,0,3.263l-3.317,3.266A2.355,2.355,0,0,1,306.977,164.022Z" transform="translate(-257.035 -80.504)"/>
      <path id="Path_3335" data-name="Path 3335" class="cls-2" d="M128.031,245.615h-4.687a2.308,2.308,0,1,1,0-4.615h4.688a2.308,2.308,0,1,1,0,4.615Z" transform="translate(-102.094 -152.308)"/>
      <path id="Path_3336" data-name="Path 3336" class="cls-3" d="M338.031,245.615h-4.687a2.308,2.308,0,1,1,0-4.615h4.688a2.308,2.308,0,1,1,0,4.615Z" transform="translate(-279.281 -152.308)"/>
      <path id="Path_3337" data-name="Path 3337" class="cls-6" d="M250.125,214.307l-4.687,9.231a2.37,2.37,0,0,1-2.109,1.292,2.588,2.588,0,0,1-1.031-.231,2.319,2.319,0,0,1-1.078-3.092l2.109-4.154,2.578-5.077a2.389,2.389,0,0,1,3.14-1.061A2.318,2.318,0,0,1,250.125,214.307Z" transform="translate(-203.328 -126.907)"/>
      <path id="Path_3338" data-name="Path 3338" class="cls-3" d="M296,363.308v4.615a6.968,6.968,0,0,1-7.031,6.923H256V361h37.656A2.3,2.3,0,0,1,296,363.308Z" transform="translate(-216 -253.846)"/>
      <g id="Group_1785" data-name="Group 1785" transform="translate(40 70.231)">
        <path id="Path_3339" data-name="Path 3339" class="cls-3" d="M262.8,214.307l-4.687,9.231A2.37,2.37,0,0,1,256,224.83v-7.477l2.578-5.077a2.389,2.389,0,0,1,3.14-1.061A2.318,2.318,0,0,1,262.8,214.307Z" transform="translate(-256 -197.138)"/>
        <path id="Path_3340" data-name="Path 3340" class="cls-3" d="M258.344,123.308v4.615A2.3,2.3,0,0,1,256,130.231V121A2.3,2.3,0,0,1,258.344,123.308Z" transform="translate(-256 -121)"/>
      </g>
    </g>
  </g>
</svg>
