<svg xmlns="http://www.w3.org/2000/svg" xmlns:xlink="http://www.w3.org/1999/xlink" viewBox="0 0 90 90">
  <defs>
    <style>
      .cls-1 {
        fill: url(#linear-gradient);
      }

      .cls-2 {
        fill: #47df89;
      }

      .cls-3 {
        fill: #24ca6c;
      }

      .cls-4 {
        fill: #fff;
      }

      .cls-5 {
        fill: #e7eaf4;
      }

      .cls-6 {
        fill: #00cc71;
      }

      .cls-7 {
        fill: #00ab5e;
      }
    </style>
    <linearGradient id="linear-gradient" x1="0.5" x2="0.5" y2="1" gradientUnits="objectBoundingBox">
      <stop offset="0" stop-color="#f1f3f8"/>
      <stop offset="1" stop-color="#f1f3f8" stop-opacity="0"/>
    </linearGradient>
  </defs>
  <g id="_1" data-name="1" transform="translate(-836 -1819)">
    <path id="Path_653" data-name="Path 653" class="cls-1" d="M67.417,0c24.82,0,22.47,20.147,22.47,45S47.3,90,22.477,90,.007,69.853.007,45,42.6,0,67.417,0Z" transform="translate(836.053 1819)"/>
    <g id="shield" transform="translate(793.353 1829)">
      <path id="Path_3421" data-name="Path 3421" class="cls-2" d="M109.647,13.3V54.515a14.246,14.246,0,0,1-7.839,12.752L82.721,78.431l-.068.033a14.552,14.552,0,0,1-13.014,0l-.132-.072L50.486,67.267a14.243,14.243,0,0,1-7.839-12.752V13.3a4.918,4.918,0,0,1,3.64-4.738L75.366.1,75.4.1a3,3,0,0,1,1.5,0l.06.017,29.049,8.449A4.917,4.917,0,0,1,109.647,13.3Z"/>
      <path id="Path_3422" data-name="Path 3422" class="cls-3" d="M289.5,13.3V54.515a14.246,14.246,0,0,1-7.839,12.752L262.57,78.431l-.068.033A14.5,14.5,0,0,1,256,80V0a2.968,2.968,0,0,1,.751.1l.06.017,29.049,8.449A4.917,4.917,0,0,1,289.5,13.3Z" transform="translate(-179.849)"/>
      <path id="Path_3423" data-name="Path 3423" class="cls-4" d="M167.846,137.165a20.178,20.178,0,1,1-20.179-20.08A20.153,20.153,0,0,1,167.846,137.165Z" transform="translate(-71.521 -98.79)"/>
      <path id="Path_3424" data-name="Path 3424" class="cls-5" d="M276.174,137.165A20.153,20.153,0,0,1,256,157.246V117.085A20.153,20.153,0,0,1,276.174,137.165Z" transform="translate(-179.849 -98.79)"/>
      <path id="Path_3425" data-name="Path 3425" class="cls-6" d="M214.765,206.32l-8.511,7.838-1.107,1.019c-.02.017-.041.033-.06.05L205,215.3c-.031.025-.064.047-.1.07l-.093.063c-.033.022-.068.041-.1.061s-.063.036-.094.052-.074.034-.111.052-.061.028-.093.041-.082.028-.122.042l-.088.03c-.044.012-.09.022-.135.033-.027,0-.053.012-.08.017-.052.011-.1.017-.155.023-.02,0-.042.006-.064.008a2.05,2.05,0,0,1-.22.011c-.079,0-.155,0-.232-.011l-.066-.011c-.055-.006-.11-.012-.163-.023l-.082-.02c-.049-.011-.1-.022-.144-.038-.03-.008-.06-.02-.089-.03s-.088-.031-.13-.048-.063-.028-.093-.044-.08-.036-.119-.058-.064-.036-.1-.055-.072-.044-.108-.069-.061-.044-.093-.067-.068-.052-.1-.078-.06-.052-.088-.078-.042-.038-.063-.056l-4.2-4.183a2.335,2.335,0,0,1,0-3.314,2.362,2.362,0,0,1,3.33,0l2.6,2.588,2.644-2.435,5.31-4.891a2.364,2.364,0,0,1,3.329.128A2.336,2.336,0,0,1,214.765,206.32Z" transform="translate(-130.108 -170.653)"/>
      <path id="Path_3426" data-name="Path 3426" class="cls-7" d="M264.506,206.32l-8.511,7.838V207.77l5.31-4.891a2.364,2.364,0,0,1,3.329.128A2.336,2.336,0,0,1,264.506,206.32Z" transform="translate(-179.849 -170.653)"/>
    </g>
  </g>
</svg>
