<svg xmlns="http://www.w3.org/2000/svg" xmlns:xlink="http://www.w3.org/1999/xlink" viewBox="0 0 519.458 367.402">
  <defs>
    <style>
      .cls-1 {
        fill: #e7eaf4;
      }

      .cls-2 {
        fill: #fff;
      }

      .cls-3 {
        fill: #303c5e;
      }

      .cls-4 {
        fill: #1abffe;
      }

      .cls-5 {
        fill: url(#linear-gradient);
      }

      .cls-6, .cls-7, .cls-8 {
        fill: none;
        stroke: #303c5e;
      }

      .cls-6 {
        stroke-miterlimit: 10;
      }

      .cls-6, .cls-7 {
        stroke-width: 2px;
      }

      .cls-8 {
        stroke-linecap: round;
        stroke-linejoin: round;
        stroke-width: 3px;
        stroke-dasharray: 0 6;
      }

      .cls-9 {
        fill: #212c4a;
      }

      .cls-10 {
        fill: #344064;
      }

      .cls-11 {
        fill: #424f72;
      }
    </style>
    <linearGradient id="linear-gradient" x1="0.5" x2="0.5" y2="1" gradientUnits="objectBoundingBox">
      <stop offset="0" stop-color="#24ca6c"/>
      <stop offset="1" stop-color="#47dfc0"/>
    </linearGradient>
  </defs>
  <g id="Group_1721" data-name="Group 1721" transform="translate(-60.543 -171.903)">
    <g id="Group_1678" data-name="Group 1678" transform="translate(491.854 282.231)">
      <path id="Path_2772" data-name="Path 2772" class="cls-1" d="M490.746,389.993a16.634,16.634,0,0,1-16.636,16.63H419.236a16.634,16.634,0,0,1-16.636-16.63V267.13a16.634,16.634,0,0,1,16.636-16.63h54.75a16.634,16.634,0,0,1,16.636,16.63V389.993Z" transform="translate(-402.6 -250.5)"/>
      <g id="Group_1599" data-name="Group 1599" transform="translate(8.442 12.41)">
        <path id="Path_2773" data-name="Path 2773" class="cls-2" d="M480.661,372.938a1.244,1.244,0,0,1-1.241,1.241H410.642a1.244,1.244,0,0,1-1.241-1.241v-111.2a1.335,1.335,0,0,1,1.241-1.241H479.42a1.335,1.335,0,0,1,1.241,1.241Z" transform="translate(-409.4 -260.5)"/>
      </g>
      <path id="Path_2774" data-name="Path 2774" class="cls-3" d="M446.4,364.85a6.952,6.952,0,1,1-6.952-6.95A6.94,6.94,0,0,1,446.4,364.85Z" transform="translate(-395.379 -224.613)"/>
      <g id="_20170921001719_PHP-logo" data-name="20170921001719!PHP-logo" transform="translate(-25.486 -388.73)">
        <g id="Group_1777" data-name="Group 1777" transform="translate(44.632 445.499)">
          <path id="Path_3293" data-name="Path 3293" class="cls-4" d="M188.746,958.968h7.415q3.265.028,4.731,1.872a6.253,6.253,0,0,1,.968,5.039,9.636,9.636,0,0,1-.858,2.863,8.509,8.509,0,0,1-1.771,2.533,6.183,6.183,0,0,1-2.961,1.817,13.7,13.7,0,0,1-3.265.385h-3.32l-1.051,5.231h-3.846l3.957-19.741h0m3.237,3.139-1.66,8.26a2.024,2.024,0,0,0,.332.028h.387a14.617,14.617,0,0,0,4.427-.523q1.771-.578,2.38-4.02.5-2.891-1-3.331a12.461,12.461,0,0,0-3.68-.413q-.332.028-.636.028h-.581l.028-.028" transform="translate(-184.789 -953.709)"/>
          <path id="Path_3294" data-name="Path 3294" class="cls-4" d="M255.7,938.722h3.818l-1.079,5.259h3.431a6.911,6.911,0,0,1,4.206,1.156q1.411,1.1.83,4.185l-1.854,9.169h-3.874l1.771-8.755a2.473,2.473,0,0,0-.166-1.955,2.359,2.359,0,0,0-1.909-.578l-3.071-.028-2.269,11.316h-3.818l3.984-19.769h0" transform="translate(-234.243 -938.722)"/>
          <path id="Path_3295" data-name="Path 3295" class="cls-4" d="M314.412,958.968h7.415q3.265.028,4.731,1.872a6.253,6.253,0,0,1,.968,5.039,9.636,9.636,0,0,1-.858,2.863,8.509,8.509,0,0,1-1.771,2.533,6.183,6.183,0,0,1-2.961,1.817,13.7,13.7,0,0,1-3.265.385h-3.32l-1.051,5.231h-3.846l3.957-19.741h0m3.237,3.139-1.66,8.26a2.024,2.024,0,0,0,.332.028h.387a14.617,14.617,0,0,0,4.427-.523q1.771-.578,2.38-4.02.5-2.891-1-3.331a12.461,12.461,0,0,0-3.68-.413q-.332.028-.636.028h-.581l.028-.028" transform="translate(-277.653 -953.709)"/>
        </g>
      </g>
    </g>
    <g id="Group_1677" data-name="Group 1677" transform="translate(172.295 399.137)">
      <g id="Group_1601" data-name="Group 1601">
        <path id="Path_2776" data-name="Path 2776" class="cls-5" d="M145.2,382.676h93.484s0-8.191-13.532-8.191c0,0,5.463-21.718-12.167-21.718S192,373.12,192,373.12s10.18-28.42-8.815-28.42-12.167,22.587-12.167,22.587-6.828-5.833-16.264,0A19.292,19.292,0,0,0,145.2,382.676Z" transform="translate(-145.2 -344.7)"/>
        <line id="Line_78" data-name="Line 78" class="cls-6" x2="0.497" y2="27.179" transform="translate(35.507 10.797)"/>
        <line id="Line_79" data-name="Line 79" class="cls-6" y1="19.36" x2="5.214" transform="translate(62.695 18.616)"/>
      </g>
      <path id="Path_2837" data-name="Path 2837" class="cls-7" d="M0,10.549,7.2,0" transform="translate(36.003 15.513)"/>
    </g>
    <g id="Group_1676" data-name="Group 1676" transform="translate(390.01 301.451)">
      <path id="Path_2777" data-name="Path 2777" class="cls-5" d="M343.452,402.145h51.522S421.914,264.266,391.5,266c-19.74,1.117-19.864,122.491-19.864,122.491s3.849-52-15.022-46.539c-22.471,6.578-6.828,31.647-6.828,31.647S336.5,348.16,323.215,363.3C311.3,376.952,343.452,402.145,343.452,402.145Z" transform="translate(-320.566 -265.987)"/>
      <line id="Line_81" data-name="Line 81" class="cls-6" x2="6.207" y2="45.918" transform="translate(37.039 90.24)"/>
      <line id="Line_82" data-name="Line 82" class="cls-6" x2="31.906" y2="32.888" transform="translate(11.34 103.271)"/>
      <line id="Line_83" data-name="Line 83" class="cls-6" x1="12.291" y2="111.942" transform="translate(60.999 24.216)"/>
      <line id="Line_84" data-name="Line 84" class="cls-6" x1="15.643" y1="5.585" transform="translate(11.34 113.82)"/>
      <line id="Line_85" data-name="Line 85" class="cls-6" x2="8.442" y2="21.346" transform="translate(60.999 37.496)"/>
      <line id="Line_86" data-name="Line 86" class="cls-6" y1="13.279" x2="11.049" transform="translate(65.096 86.144)"/>
    </g>
    <g id="Group_1675" data-name="Group 1675" transform="translate(517.056 196.599)">
      <g id="Group_1604" data-name="Group 1604">
        <line id="Line_87" data-name="Line 87" class="cls-8" y1="54.905" transform="translate(18.871 23.901)"/>
        <line id="Line_112" data-name="Line 112" class="cls-8" x1="90.427" transform="translate(-71.556 24.806)"/>
      </g>
    </g>
    <g id="Group_1673" data-name="Group 1673" transform="translate(157.025 171.903)">
      <path id="Path_2780" data-name="Path 2780" class="cls-9" d="M295.824,375.859H219.1L224.066,339h66.792Z" transform="translate(-112.084 -118.84)"/>
      <path id="Path_2781" data-name="Path 2781" class="cls-3" d="M313.768,376.294H207a7.735,7.735,0,0,1,7.7-7.694h91.374a7.817,7.817,0,0,1,7.7,7.694Z" transform="translate(-115.006 -111.705)"/>
      <path id="Path_2782" data-name="Path 2782" class="cls-10" d="M423.657,169.915V379.03a8.317,8.317,0,0,1-8.318,8.315H141.218a8.317,8.317,0,0,1-8.318-8.315V169.915a8.317,8.317,0,0,1,8.318-8.315H415.463A8.291,8.291,0,0,1,423.657,169.915Z" transform="translate(-132.9 -161.6)"/>
      <path id="Path_2783" data-name="Path 2783" class="cls-3" d="M423.657,169.915V350.486H132.9V169.915a8.317,8.317,0,0,1,8.318-8.315H415.463A8.291,8.291,0,0,1,423.657,169.915Z" transform="translate(-132.9 -161.6)"/>
      <rect id="Rectangle_552" data-name="Rectangle 552" class="cls-2" width="260.092" height="156.991" transform="translate(15.27 16.134)"/>
      <path id="Path_2784" data-name="Path 2784" class="cls-11" d="M286.309,328.912a5.245,5.245,0,0,1-5.214,5.212h-50.28a5.245,5.245,0,0,1-5.214-5.212h0a5.245,5.245,0,0,1,5.214-5.212h50.28a5.245,5.245,0,0,1,5.214,5.212Z" transform="translate(-110.514 -122.528)"/>
      <g id="_20170921001719_PHP-logo-2" data-name="20170921001719!PHP-logo" transform="translate(50.343 -376.402)">
        <g id="Group_1777-2" data-name="Group 1777" transform="translate(44.632 445.499)">
          <path id="Path_3293-2" data-name="Path 3293" class="cls-4" d="M192.7,958.968h14.83q6.53.055,9.463,3.744t1.937,10.077a19.272,19.272,0,0,1-1.715,5.727,17.019,17.019,0,0,1-3.542,5.066,12.365,12.365,0,0,1-5.921,3.634,27.407,27.407,0,0,1-6.53.771h-6.641l-2.1,10.463h-7.692l7.913-39.482h0m6.475,6.277-3.32,16.52a4.055,4.055,0,0,0,.664.055h.775a29.235,29.235,0,0,0,8.854-1.046q3.542-1.156,4.759-8.04,1-5.782-1.992-6.663a24.924,24.924,0,0,0-7.36-.826q-.664.055-1.273.055h-1.162l.055-.055" transform="translate(-184.789 -948.451)"/>
          <path id="Path_3294-2" data-name="Path 3294" class="cls-4" d="M259.68,938.722h7.637l-2.158,10.518h6.862q5.644.11,8.411,2.313,2.822,2.2,1.66,8.37l-3.708,18.337h-7.747l3.542-17.511q.553-2.753-.332-3.91t-3.818-1.156l-6.142-.055-4.538,22.632h-7.637l7.969-39.537h0" transform="translate(-216.774 -938.722)"/>
          <path id="Path_3295-2" data-name="Path 3295" class="cls-4" d="M318.368,958.968H333.2q6.53.055,9.463,3.744T344.6,972.79a19.272,19.272,0,0,1-1.715,5.727,17.02,17.02,0,0,1-3.542,5.066,12.365,12.365,0,0,1-5.921,3.634,27.407,27.407,0,0,1-6.53.771H320.25l-2.1,10.463h-7.692l7.913-39.482h0m6.474,6.277-3.32,16.52a4.055,4.055,0,0,0,.664.055h.775a29.235,29.235,0,0,0,8.854-1.046q3.542-1.156,4.759-8.04,1-5.782-1.992-6.663a24.924,24.924,0,0,0-7.36-.826q-.664.055-1.273.055h-1.162l.055-.055" transform="translate(-244.851 -948.451)"/>
        </g>
      </g>
    </g>
    <g id="Group_1670" data-name="Group 1670" transform="translate(60.543 399.553)">
      <path id="Path_2790" data-name="Path 2790" class="cls-5" d="M168.2,475.1H117.674s-14.9-65.527,9.559-66.4,11.546,52.372,11.546,52.372,5.835-20.849,22.968-15.885C175.652,449.16,168.2,475.1,168.2,475.1Z" transform="translate(-113.181 -408.692)"/>
      <line id="Line_103" data-name="Line 103" class="cls-6" x2="0.497" y2="55.847" transform="translate(15.294 10.559)"/>
      <line id="Line_104" data-name="Line 104" class="cls-6" x1="3.724" y2="16.878" transform="translate(40.621 49.528)"/>
    </g>
    <g id="Group_1669" data-name="Group 1669" transform="translate(443.064 495.069)">
      <path id="Path_2791" data-name="Path 2791" class="cls-5" d="M363.3,465.809h84.421s-.869-19.857-15.519-17.747c-5.214.745-8.939,8.687-8.939,8.687S428.23,422,408.738,422s-7.077,32.267-7.077,32.267-2.855-17-16.884-14.024c-14.029,2.854-5.835,18.616-5.835,18.616S363.8,451.289,363.3,465.809Z" transform="translate(-363.3 -422)"/>
      <line id="Line_105" data-name="Line 105" class="cls-6" x2="5.338" y2="34.749" transform="translate(44.321 9.06)"/>
      <line id="Line_106" data-name="Line 106" class="cls-6" x2="8.194" y2="17.375" transform="translate(21.602 26.434)"/>
    </g>
  </g>
</svg>
