<svg xmlns="http://www.w3.org/2000/svg" viewBox="0 0 500 330.521">
  <defs>
    <style>
      .cls-1 {
        fill: #f2f5f9;
      }

      .cls-2 {
        fill: #eaf0f8;
      }

      .cls-3 {
        fill: #37456c;
      }

      .cls-4 {
        fill: #ff8820;
      }

      .cls-5 {
        fill: #ffcf00;
      }

      .cls-6 {
        fill: rgba(0,0,0,0.11);
      }

      .cls-7 {
        fill: #f34f6b;
      }

      .cls-8 {
        fill: #f0f3f7;
      }

      .cls-9 {
        fill: #ffb67e;
      }

      .cls-10 {
        opacity: 0.1;
      }

      .cls-11, .cls-12 {
        fill: #eef4f8;
      }

      .cls-12 {
        opacity: 0.5;
      }

      .cls-13 {
        fill: #f3f3f3;
      }

      .cls-14 {
        fill: #24ca6c;
      }

      .cls-15 {
        fill: #47df89;
      }

      .cls-16 {
        fill: #1abffe;
      }

      .cls-17 {
        fill: rgba(0,0,0,0.1);
      }

      .cls-18 {
        fill: #9ae3a3;
      }

      .cls-19 {
        fill: #fff;
      }
    </style>
  </defs>
  <g id="Illustration_1_" transform="translate(-0.002)">
    <g id="_x30_1_1_" transform="translate(0.002)">
      <g id="_x30_1_x5F_Illustration_1_" transform="translate(0)">
        <path id="Shape_121_" class="cls-1" d="M55.151,41.278C142.258-17.342,197.668,83.6,283.4,83.271c84.838.332,160.845-43.3,196.416-2.709,35.226,40.814,1.761,77.354-35.219,149.683q-8.747,16.844,0,87.371H82.243Q-32.468,100.65,55.151,41.278Z" transform="translate(-4.876 -7.413)"/>
        <path id="Combined-Shape_1_" class="cls-2" d="M479.818,94.107C444.246,53.517,368.24,97.148,283.4,96.816,197.669,97.148,142.259-3.8,55.152,54.824q-35.619,24.139-37.8,74.313-2.469-60.571,37.8-87.859C142.259-17.342,197.669,83.6,283.4,83.271c84.838.332,160.845-43.3,196.416-2.709,12.442,14.42,16.316,28.3,14.487,43.422C492.971,113.891,488.467,104.124,479.818,94.107Z" transform="translate(-4.877 -7.413)"/>
        <path id="Shape_120_" class="cls-3" d="M27.389,458H494.725a10.159,10.159,0,1,1,0,20.319H27.389a10.159,10.159,0,1,1,0-20.319Z" transform="translate(-4.884 -147.798)"/>
        <g id="Woman_5_" transform="translate(16.393)">
          <path id="Shape_119_" class="cls-4" d="M134.064,7.01C147.271,10.3,157.052,22.087,157.052,35.9c0,6.17-1.686,12.991-4.741,17.61-.63-.82-1.239-1.626-1.829-2.4l-2.669,62.034a45.283,45.283,0,0,1-45.25,43.32A40.322,40.322,0,0,1,62.23,116.15c0-.982.034-1.957.108-2.939L67.621,40.9A44.134,44.134,0,0,1,111.646,0,39.18,39.18,0,0,1,134.064,7.01Z" transform="translate(-20.221)"/>
          <g id="Group_11_" transform="translate(112.36 118.974)">
            <g id="Shape_118_" transform="translate(0.088 2.262)">
              <path id="path-1_7_" class="cls-5" d="M-.77,0Q22.261,4.846,22.258,19.642c0,14.711-.826,45.291-.677,55.538-.149,9.658,8.249,37.983,8.128,53.507.02,2.377-7.118,3.2-8.128,0-2.371-8.209-18-38.41-18.287-47.411Q3.578,71.746-.77,0Z" transform="translate(0.77)"/>
            </g>
            <path id="Shape_112_" class="cls-6" d="M8.347,102.119C5.706,95.611,3.721,89.847,3.62,86.691Q3.884,77.943.24,16.78,16.272,36.428,19.2,43.682c3.82,9.164-2.4,28.894-10.159,56.554A12.589,12.589,0,0,1,8.347,102.119Z" transform="translate(0.532 -3.153)"/>
          </g>
          <path id="Shape_111_" class="cls-7" d="M207.323,367.7c.122,14.562,12.456,26.435,8.8,34.542-3.644,8.412-9.245,12.279-10.837,10.159-1.727-1.747-4.016-37.475-6.1-44.7C198.22,364.457,207.357,363.7,207.323,367.7Z" transform="translate(-64.397 -117.779)"/>
          <g id="Group-_1_" transform="translate(0 121.236)">
            <g id="Shape_110_">
              <path id="path-3_7_" class="cls-5" d="M63.888,0Q47.4,4.673,40.183,11.514C32.936,18.26-.645,63.192.222,69.084c1.7,10.491,45.257,25.013,48.765,25.06,3.468-.047,8.832-10.254,5.418-10.837-2.77-1.192-22.7-15.862-23.028-17.61q.335-1.7,32.51-27.092V0Z" transform="translate(-0.206)"/>
            </g>
            <path id="Shape_106_" class="cls-8" d="M25.425,105.31l-9.692,15.51L.23,111.128Z" transform="translate(-0.214 -33.984)"/>
          </g>
          <path id="Shape_104_" class="cls-3" d="M66.009,402.2c-4.01-19.777-7.071-29.178-2.032-53.507,4.524-24.545,27.769-42.047,27.769-54.184,0-12.571,47.411-12.571,47.411,0,0,12.13,26.665,66.084,31.833,107.69H124.257q-6.888-21.711-8.128-21.674-.833-.041-4.064,21.674Z" transform="translate(-19.937 -91.996)"/>
          <g id="Group_10_" transform="translate(52.846 121.236)">
            <g id="Shape_103_" transform="translate(0)">
              <path id="path-5_7_" class="cls-5" d="M65.605,81.276c7.755-27.661,12.625-36.554,8.8-45.718Q70.7,26.374,58.832,0H10.067Q-.773,29.33-.77,39.622c0,10.248,8.392,21.613,18.964,41.654C28.808,101.27,61.182,97.307,65.605,81.276Z" transform="translate(0.77)"/>
            </g>
          </g>
          <g id="Group_9_" transform="translate(63.682 77.889)">
            <g id="Shape_97_" transform="translate(0)">
              <path id="path-7_2_" class="cls-9" d="M6.68,0l29.8,20.319V31.156q0,7.386,11.514,12.191Q41.463,56.89,23.613,56.893T-.77,43.347q9.479-1.361,10.837-10.159Q11.611,24.044,6.68,0Z" transform="translate(0.77)"/>
            </g>
            <g id="Shape_96_" transform="translate(7.45)">
              <path id="path-9_2_" class="cls-10" d="M43.607,38.586c-.291.014-.576.02-.867.02-11.372,0-22.554-7.3-29.5-20.969Q12.313,10.139,10.23,0l29.8,20.319V31.156A9.946,9.946,0,0,0,43.607,38.586Z" transform="translate(-10.23)"/>
            </g>
          </g>
          <path id="Shape_95_" class="cls-11" d="M179.093,74.105l13.715,5.96,1.355,6.773L177.23,75.324h0a1.333,1.333,0,0,1,1.334-1.334A1.608,1.608,0,0,1,179.093,74.105Z" transform="translate(-57.332 -23.877)"/>
          <path id="Shape_94_" class="cls-9" d="M92.759,87.024a5.383,5.383,0,0,0-.677,0c-4.1,0-8.2-6.82-10.159-14.9-2.6-8.283,3.21-12.388,7.45-8.8q29.391-.132,48.088-14.9A18.944,18.944,0,0,0,142.2,43c.65,1.429,1.341,2.75,2.032,4.064q3.444,6.075,14.223,20.319c-1.158,27.552-14.6,50.12-32.51,50.12C112.123,117.5,98.6,106.754,92.759,87.024Z" transform="translate(-26.367 -13.876)"/>
          <g id="Group_8_" transform="translate(63.005 48.163)">
            <circle id="Oval_7_" class="cls-12" cx="11.175" cy="11.175" r="11.175" transform="translate(18.287 3.312)"/>
            <path id="Oval_6_" class="cls-11" d="M36.437,27.383A11.175,11.175,0,1,0,25.262,16.207,11.178,11.178,0,0,0,36.437,27.383Zm0,2.032A13.207,13.207,0,1,1,49.645,16.207,13.207,13.207,0,0,1,36.437,29.415Z" transform="translate(-6.975 -1.72)"/>
            <circle id="Oval_5_" class="cls-12" cx="11.175" cy="11.175" r="11.175" transform="translate(50.797 4.667)"/>
            <path id="Oval_4_" class="cls-11" d="M84.437,29.383A11.175,11.175,0,1,0,73.262,18.207,11.178,11.178,0,0,0,84.437,29.383Zm0,2.032A13.207,13.207,0,1,1,97.645,18.207,13.207,13.207,0,0,1,84.437,31.415Z" transform="translate(-22.465 -2.365)"/>
            <path id="Shape_93_" class="cls-13" d="M60.239,18.1l8.134.542a1.093,1.093,0,0,1,1.016,1.084h0a.947.947,0,0,1-.948.948H68.38l-8.134-.542a1.093,1.093,0,0,1-1.016-1.084h0a.947.947,0,0,1,.948-.948Z" transform="translate(-18.592 -6.593)"/>
            <path id="Shape_92_" class="cls-11" d="M1.059,1.239,17.517,9.163,16.162,13.9-.77,2.39h0A1.279,1.279,0,0,1,.51,1.11,1.279,1.279,0,0,1,1.059,1.239Z" transform="translate(0.77 -1.11)"/>
          </g>
          <path id="Shape_91_" class="cls-7" d="M71.729,311.725c3.468-.047,6.258,9.733,8.8,12.191,2.608,2.323,9.611,3.326,12.191,2.032,2.371-.711,7.843-10.837,9.482-14.9,2.215-4-3.515-10.22-5.418-12.191-2.106-1.409-16.228,2.614-19.642,2.032C74.377,299.7,68.22,311.678,71.729,311.725Z" transform="translate(-22.947 -96.345)"/>
        </g>
        <g id="Flowers_1_" transform="translate(0 136.124)">
          <path id="Shape_90_" class="cls-14" d="M49.933,119.876c-15.422-17.664-29.889-10.837-32.1-22.053C15.262,86.586,26.357,85.8,26.587,76.9c-.23-8.683-22.954-6.841-25.1-15.835C-.911,52.1,7.372,50.04,16.075,46.931,25.273,43.795-3.336,27.7-.844,11.3,2.015-4.524,24.02-4.422,27.759,15.829,31.8,35.491,35.344,41.661,40.6,33.358c5.506-7.8,20.468-4.9,14.007,18.1C48.3,74.456,66.012,64.947,70.367,76.9,74.3,89.065,61.312,91.612,49.933,119.876Z" transform="translate(0.998 0.019)"/>
          <path id="Shape_89_" class="cls-15" d="M76.769,135.72c-11.927-17.684-10.146-23.556-6.1-28.047,4.01-4.463,6.367-3.475,8.236-7.051s-7.484-11.094-4.118-16.248c3.339-5,11.859,3.813,11.9-1.991C86.644,76.49,78.611,74.879,76,64.76c-2.533-10,14.277-15.016,18.463-1.07,4.118,13.932-2.574,19.879,2.594,20.691,5.147.969,10.993-1.978,11.6,4.443.542,6.455-14.223,10.308-14.189,16.248C94.433,110.911,108.636,123.813,76.769,135.72Z" transform="translate(-21.143 -17.77)"/>
          <path id="Shape_88_" class="cls-16" d="M56.554,165H82.677a2.029,2.029,0,0,1,2.032,2.032,2.089,2.089,0,0,1-.135.731L80.253,179a.694.694,0,0,0-.014.454l14.691,45.2a2.03,2.03,0,0,1-1.307,2.56,1.979,1.979,0,0,1-.63.1H46.232a2.028,2.028,0,0,1-1.93-2.662l14.691-45.2a.7.7,0,0,0-.014-.454l-4.321-11.236a2.04,2.04,0,0,1,1.165-2.628A2.088,2.088,0,0,1,56.554,165Z" transform="translate(-13.587 -53.233)"/>
        </g>
        <g id="Woman_4_" transform="translate(344.213 4.735)">
          <path id="Shape_87_" class="cls-3" d="M3.23,409.657c.982-5.229,20.685-69.606,24.383-77.212s65.2-16.716,68.407-.677c3.386,14.447,29.808,40.875,25.06,77.889Z" transform="translate(-0.513 -104.19)"/>
          <g id="Mask_7_" transform="translate(0 125.983)">
            <g id="Shape_86_" transform="translate(0 58.889)">
              <path id="path-11_2_" class="cls-9" d="M1.935,120.542c-.224-11.771-6-52.728,0-74.5,2.154-7.735,2.811-19.3,2.709-31.833C5.193-8.463,30.714-1.311,29.027,16.238c-1.449,13.431-2.377,22.52-2.709,27.092.42,15.226-9.055,66.572-10.159,77.212Z" transform="translate(0.782 0.053)"/>
            </g>
            <g id="Shape_85_" transform="translate(6.804 0)">
              <path id="path-13_2_" class="cls-17" d="M45.137-87Q14.283-55.76,9.918-40.266c-2.052,6.516.664,14.183,8.934,28.338q4.714,8.067,10.708,27.2Z" transform="translate(-9.263 87)"/>
            </g>
          </g>
          <g id="Mask_6_" transform="translate(5.523 125.983)">
            <g id="Shape_84_" transform="translate(0)">
              <path id="path-15_2_" class="cls-11" d="M-.528,73.148C-.243,50.215-1.672,24.715,1.3,15.578,4.633,6.272,15.917,1.978,29.748,0,27.5,32.4,25,57.387,23.246,74.95,21.9,88.428-.683,85.488-.528,73.148Z" transform="translate(0.628)"/>
            </g>
            <g id="Shape_83_" transform="translate(1.281)">
              <path id="path-17_2_" class="cls-10" d="M37.137,0Q6.283,31.24,1.918,46.734c-2.052,6.516.664,14.183,8.934,28.338q4.714,8.067,10.708,27.2Z" transform="translate(-1.263)"/>
            </g>
          </g>
          <path id="Shape_82_" class="cls-11" d="M40.286,186Q20.272,214.528,15.9,230.024c-4.612,14.657,15.564,37.516,15.578,58.248-.014,20.773,67.588,20.773,68.407,0-.02-9.963,13.458-31.454,9.482-62.989Q107.714,213.447,84.988,186Z" transform="translate(-4.381 -60.017)"/>
          <path id="Shape_81_" class="cls-9" d="M187.833,275.673q10.932,24.9,3.386,30.478-13.746-10.464-14.9-11.514c-2.472-2.5-8.514-9.15-10.837-11.514C158.357,274.487,177.193,250.5,187.833,275.673Z" transform="translate(-52.365 -85.346)"/>
          <path id="Shape_80_" class="cls-11" d="M118.23,185.983q20.888-.681,31.156,11.514c10.031,12.2,16.052,33.533,23.705,52.829.156.576-20.062,10.525-22.351,7.45-9.489-10.4-17.23-23.672-23.705-37.251Q118.349,201.242,118.23,185.983Z" transform="translate(-37.623 -60)"/>
          <g id="Group_7_" transform="translate(42.675 146.979)">
            <path id="Shape_79_" class="cls-15" d="M37.713,16h68.725L80.145,90.279a3.387,3.387,0,0,1-3.19,2.255H8.23L34.523,18.255A3.374,3.374,0,0,1,37.713,16Z" transform="translate(-2.131 -5.163)"/>
            <path id="Shape_78_" class="cls-18" d="M59.958,45h44.715a.679.679,0,0,1,.677.677.623.623,0,0,1-.041.224l-3.42,9.706a1.35,1.35,0,0,1-1.273.9H55.907a.679.679,0,0,1-.677-.677.622.622,0,0,1,.041-.224l3.42-9.706A1.335,1.335,0,0,1,59.958,45Z" transform="translate(-17.298 -14.522)"/>
            <path id="Shape_77_" class="cls-14" d="M28.149,6H95.364a3.407,3.407,0,0,1,2.391.989l5.771,5.784H34.915a3.381,3.381,0,0,0-3.19,2.255L5.324,89.308.217,84.045a3.392,3.392,0,0,1-.8-3.522L24.959,8.255A3.387,3.387,0,0,1,28.149,6Z" transform="translate(0.774 -1.936)"/>
            <path id="Shape_76_" class="cls-5" d="M127.664,3a2.6,2.6,0,0,1,2.608,2.608,2.7,2.7,0,0,1-.156.894L128.68,10.45h-7.45L122.666,6.5A5.325,5.325,0,0,1,127.664,3Z" transform="translate(-38.597 -0.968)"/>
            <path id="Shape_75_" class="cls-5" d="M113.664,0a2.6,2.6,0,0,1,2.608,2.608,2.7,2.7,0,0,1-.156.894L114.68,7.45h-7.45L108.666,3.5A5.325,5.325,0,0,1,113.664,0Z" transform="translate(-34.079)"/>
          </g>
          <path id="Shape_74_" class="cls-9" d="M90.006,301.9q-3.617-.671-12.191-2.709c-8.3-2.282-18.24-24.268-14.9-28.446,2.946-4.728,8.27-3.732,10.159-3.386,2.222-.345,1.6-2.858,9.482,0,7.85,2.167,16.215,16.391,16.255,21,4.26-1.294,41.39-2.411,50.8,0,9.374,2.54,8.791,18.179,8.8,18.287Q149.158,318.089,90.006,301.9Z" transform="translate(-19.559 -85.835)"/>
          <g id="Mask_5_" transform="translate(35.905 74.551)">
            <g id="Shape_73_" transform="translate(0 0)">
              <path id="path-19_2_" class="cls-9" d="M6.68,21.016c0-27.939,29.8-27.939,29.8,0q0,27.583,7.45,30.478c0,8.2-12.2,14.9-25.06,14.9S-.77,59.7-.77,51.495Q6.677,48.6,6.68,21.016Z" transform="translate(0.77 -0.063)"/>
            </g>
            <g id="Shape_72_" transform="translate(3.569 0)">
              <path id="path-21_2_" class="cls-10" d="M39.1,37.36c-8.128,7.762-18.016,12.1-26.658,12.1A21.81,21.81,0,0,1,4.5,47.973q3.881-7.051,3.881-26.956c0-27.939,29.8-27.939,29.8,0A121.588,121.588,0,0,0,39.1,37.36Z" transform="translate(-4.5 -0.063)"/>
            </g>
          </g>
          <g id="Group_6_" transform="translate(2.698 6.773)">
            <g id="Shape_71_" transform="translate(12.177 0.006)">
              <path id="path-23_3_" class="cls-9" d="M68.975,77.212c-8.4,16.573-24.234,26.415-37.251,26.415-18.334,0-31.535-22.561-32.51-50.12C-1.511,25.947,9.116,0,36.465,0,63.943,0,74.4,20.529,74.394,52.152c4.9-3.339,12.469.3,9.482,10.159-1.727,4.971-8.392,14.9-14.223,14.9C69.334,77.212,69.056,77.11,68.975,77.212Z" transform="translate(0.821)"/>
            </g>
            <path id="Shape_70_" class="cls-10" d="M14.076,53.809C9.22,56.321,17.5,50.11,24.3,40.926,18.187,45.146,3.91,50.9-18.786,58.36q-.549-36.279,21.9-51.542C25.8-8.334,46.986,5.9,49.851,9.852c5.967-.657-10.119,22.324-10.952,23.5C31.76,43.378,18.844,51.81,14.076,53.809Z" transform="translate(18.799 0.009)"/>
          </g>
          <path id="Shape_68_" class="cls-3" d="M60.906,33.347C54.113,43.48,40.844,51.81,36.076,53.809,31.22,56.321,39.5,50.11,46.3,40.926,40.187,45.146,25.91,50.9,3.214,58.36Q2.665,22.07,25.124,6.818C47.807-8.334,68.993,5.9,71.858,9.852c.061.075.088.142,0,0,5.967-.657,12.706,1.727,18.253,9.855q13.126,18.632,0,43.957C75.353,51.208,65.661,41.2,60.906,33.347Z" transform="translate(-0.503 0.009)"/>
        </g>
        <g id="Woman_3_" transform="translate(171.476 93.448)">
          <path id="Shape_67_" class="cls-19" d="M50.209,41.306C39.5,64.4,20.3,60.894,39.372,80.589c18.287,19.7,22.222,19.418,7.45,33.865-15.253,14.955-14.84,24.444,3.386,36.574,17.948,12.713,54.746,15.022,86.694,2.709,32.4-12.6,32.314-32.686,17.61-46.734-14.86-13.837-25.067-20.583-12.869-29.8,12.794-9.272,21.89-26.36,6.773-35.9-15.016-9.069-5.981-23.441-22.351-30.478C109.6,3.669,85.272-5.448,71.2,4.055,56.494,13.9,60.45,18.684,50.209,41.306Z" transform="translate(-10.213 0.028)"/>
          <path id="Shape_66_" class="cls-4" d="M141.768,184.837c9.828,11.548,37.658,88.049,25.06,88.049H2.923c-11.467,0,16.147-76.5,25.06-88.049Q29.75,182.967,65.911,174H103.84Q141.125,184.078,141.768,184.837Z" transform="translate(-0.178 -56.131)"/>
          <g id="Mask_4_" transform="translate(65.733 79.259)">
            <g id="Shape_65_" transform="translate(0 0)">
              <path id="path-25_2_" class="cls-9" d="M5.685,10.815c0-14.426,25.019-14.426,25.019,0a63.634,63.634,0,0,0,6.455,27.769c0,4.077-1.314,19.662-18.964,19.662S-.77,42.661-.77,38.584A63.612,63.612,0,0,0,5.685,10.815Z" transform="translate(0.77 0.005)"/>
            </g>
            <g id="Shape_64_" transform="translate(4.788 0.007)">
              <path id="path-27_2_" class="cls-10" d="M34.8,25.766A24.057,24.057,0,0,1,21.153,30.48c-5.249,0-10.295-2.025-14.853-5.344A62.005,62.005,0,0,0,7.966,10.825c0-14.426,25.019-14.426,25.019,0A62.09,62.09,0,0,0,34.8,25.766Z" transform="translate(-6.3 -0.005)"/>
            </g>
          </g>
          <path id="Shape_63_" class="cls-9" d="M109.127,116.052c-19.235,0-35.68-27.227-35.9-45.379,3.021-2.492,7.315-6.089,9.482-8.128C86.654,59.227,93.441,49.075,93.549,49c1.714.1,15.192,28.047,50.12,28.446C140.208,95.063,125.585,116.052,109.127,116.052Z" transform="translate(-23.752 -15.793)"/>
        </g>
        <g id="Macbook_1_" transform="translate(184.379 222.154)">
          <path id="Shape_62_" class="cls-3" d="M6,0H136.044a6.775,6.775,0,0,1,6.773,6.773v74.5a6.775,6.775,0,0,1-6.773,6.773H6A6.775,6.775,0,0,1-.77,81.276V6.773A6.771,6.771,0,0,1,6,0Z" transform="translate(0.77)"/>
          <circle id="Shape_60_" class="cls-19" cx="6.773" cy="6.773" r="6.773" transform="translate(65.021 37.251)"/>
        </g>
      </g>
    </g>
  </g>
</svg>
