<svg xmlns="http://www.w3.org/2000/svg" viewBox="0 0 596 492">
  <defs>
    <style>
      .cls-1 {
        fill: #354367;
      }

      .cls-2 {
        fill: #435486;
      }

      .cls-3 {
        fill: #e7eaf4;
      }

      .cls-4 {
        fill: #37456c;
      }

      .cls-5 {
        fill: #fff;
      }

      .cls-6 {
        fill: #47df89;
      }

      .cls-7 {
        fill: #ffb67e;
      }

      .cls-8 {
        fill: #d5dbde;
      }

      .cls-9 {
        fill: #eef4f8;
      }

      .cls-10 {
        fill: #1abffe;
      }

      .cls-11 {
        fill: #0ba4de;
      }

      .cls-12 {
        fill: #ff8820;
      }

      .cls-13 {
        fill: #19b15b;
      }

      .cls-14 {
        fill: #24ca6c;
      }

      .cls-15 {
        fill: #324374;
      }

      .cls-16 {
        opacity: 0.2;
      }

      .cls-17, .cls-19 {
        opacity: 0.1;
      }

      .cls-18 {
        opacity: 0.702;
      }
    </style>
  </defs>
  <g id="_x30_6_2_" transform="translate(-0.002 0.001)">
    <g id="_x30_6_x5F_Illustration_1_" transform="translate(0.002 -0.001)">
      <path id="Shape_58_" class="cls-1" d="M108.5,217.823C-70.524,163.157-30.273-46.624,175.58-13.468c205.784,33.086,320.817,118.4,356.875,196.73,35.39,77.566,11.254,216.228-139.534,216.228C242.089,399.5,286.75,272.316,108.5,217.823Z" transform="translate(49.193 17.001)"/>
      <g id="iPhone_1_" transform="translate(202.655 15.62)">
        <path id="Shape_57_" class="cls-2" d="M-20.066-17H143.553a36.089,36.089,0,0,1,36.014,36.167V423.214a36.089,36.089,0,0,1-36.014,36.167H-20.066A36.089,36.089,0,0,1-56.08,423.214V19.167A36.089,36.089,0,0,1-20.066-17Z" transform="translate(56.08 17)"/>
        <path id="Shape_56_" class="cls-3" d="M3.154-1Q6.247-1,6.247,2.1c0,9.415,6.151,13.415,15.456,13.415h85.5c9.946,0,15.456-4,15.456-13.415q0-3.1,3.093-3.1h21.633a20.624,20.624,0,0,1,20.6,20.643V425.235a20.624,20.624,0,0,1-20.6,20.643H-18.478a20.624,20.624,0,0,1-20.6-20.643V19.643A20.624,20.624,0,0,1-18.478-1Z" transform="translate(53.808 14.884)"/>
        <path id="Shape_55_" class="cls-4" d="M-24.748,483H87.011a4.339,4.339,0,0,1,0,8.677H-24.748a4.337,4.337,0,0,1-4.332-4.339A4.337,4.337,0,0,1-24.748,483Z" transform="translate(52.471 -49.138)"/>
        <path id="Shape_54_" class="cls-4" d="M-24.748,463H156.318a4.339,4.339,0,0,1,0,8.677H-24.748a4.337,4.337,0,0,1-4.332-4.339A4.337,4.337,0,0,1-24.748,463Z" transform="translate(52.471 -46.493)"/>
        <path id="Shape_53_" class="cls-4" d="M-24.748,443H156.318a4.339,4.339,0,0,1,0,8.677H-24.748a4.337,4.337,0,0,1-4.332-4.339A4.337,4.337,0,0,1-24.748,443Z" transform="translate(52.471 -43.847)"/>
        <path id="Shape_52_" class="cls-4" d="M-24.748,423H156.318a4.339,4.339,0,0,1,0,8.677H-24.748a4.337,4.337,0,0,1-4.332-4.339A4.337,4.337,0,0,1-24.748,423Z" transform="translate(52.471 -41.202)"/>
        <path id="Shape_51_" class="cls-4" d="M-24.748,403H156.318a4.339,4.339,0,0,1,0,8.677H-24.748a4.337,4.337,0,0,1-4.332-4.339A4.337,4.337,0,0,1-24.748,403Z" transform="translate(52.471 -38.556)"/>
        <path id="Shape_50_" class="cls-4" d="M90.252,353h81.437a4.337,4.337,0,0,1,4.332,4.339v21.693a4.337,4.337,0,0,1-4.332,4.339H90.252a4.337,4.337,0,0,1-4.332-4.339V357.339A4.337,4.337,0,0,1,90.252,353Z" transform="translate(37.101 -31.942)"/>
        <path id="Shape_49_" class="cls-4" d="M-24.748,353H56.688a4.337,4.337,0,0,1,4.332,4.339v21.693a4.337,4.337,0,0,1-4.332,4.339H-24.748a4.337,4.337,0,0,1-4.332-4.339V357.339A4.337,4.337,0,0,1-24.748,353Z" transform="translate(52.471 -31.942)"/>
        <path id="Shape_48_" class="cls-5" d="M-24.748,168H156.318a4.337,4.337,0,0,1,4.332,4.339V311.174a4.337,4.337,0,0,1-4.332,4.339H-24.748a4.337,4.337,0,0,1-4.332-4.339V172.339A4.337,4.337,0,0,1-24.748,168Z" transform="translate(52.471 -7.471)"/>
        <path id="Shape_47_" class="cls-4" d="M-14.748,298h163.74a4.339,4.339,0,0,1,0,8.677H-14.748a4.337,4.337,0,0,1-4.332-4.339A4.337,4.337,0,0,1-14.748,298Z" transform="translate(51.135 -24.667)"/>
        <path id="Shape_46_" class="cls-4" d="M-14.748,178h163.74a4.337,4.337,0,0,1,4.332,4.339v86.772a4.337,4.337,0,0,1-4.332,4.339H-14.748a4.337,4.337,0,0,1-4.332-4.339V182.339A4.337,4.337,0,0,1-14.748,178Z" transform="translate(51.135 -8.794)"/>
        <path id="Shape_45_" class="cls-4" d="M-14.748,318H45.03a4.339,4.339,0,0,1,0,8.677H-14.748a4.337,4.337,0,0,1-4.332-4.339A4.337,4.337,0,0,1-14.748,318Z" transform="translate(51.135 -27.313)"/>
        <path id="Shape_44_" class="cls-5" d="M-20.417,38h172.4a8.677,8.677,0,0,1,0,17.354h-172.4a8.674,8.674,0,0,1-8.663-8.677A8.674,8.674,0,0,1-20.417,38Z" transform="translate(52.471 9.725)"/>
      </g>
      <path id="Shape_43_" class="cls-6" d="M170.168,438.024V449.7c-.745-1.814-1.464-3.575-1.785-4.365-2.166-5.345-4.02-10.326-5.588-15.116-4.15,2.2-12.883,2.2-22.412-.356-12.475-3.349-21.589-9.814-20.351-14.448s12.354-5.666,24.838-2.317a50.465,50.465,0,0,1,14.858,6.421,123.838,123.838,0,0,1-3.5-25.147c-4.531.764-12.961-3.141-20.914-10.066-9.746-8.486-15.109-18.3-11.973-21.919s13.584.33,23.339,8.825a52.25,52.25,0,0,1,9.807,11.081c1.135-8.365,4.756-17.129,10.795-27.064.139-.234.286-.46.425-.694-4-2.534-8.542-9.692-11.488-18.769-3.994-12.3-3.543-23.481,1.014-24.964s11.479,7.3,15.464,19.6a55.344,55.344,0,0,1,2.625,12.747c1.014-1.423,2.079-2.889,3.214-4.434,2.088-2.837,8.715-11.619,11.548-15.367-3.691-3.063-7.719-9.068-10.725-16.513-4.843-12-5.163-23.177-.728-24.973s11.956,6.473,16.8,18.474a56.974,56.974,0,0,1,3.309,11.3,226.282,226.282,0,0,0,13.636-21.094c-4.245-2.23-9.5-8.2-13.671-16.062-6.064-11.428-7.555-22.509-3.335-24.756s12.562,5.189,18.635,16.608a56.373,56.373,0,0,1,4.618,11.419c1.022-2.473,1.949-4.955,2.79-7.488a85.054,85.054,0,0,0,3.578-15.237c-4.687-.677-11.748-5.371-18.133-12.469-8.646-9.614-12.77-20.01-9.218-23.22s13.446,1.987,22.092,11.6a59.48,59.48,0,0,1,5.649,7.324,80.067,80.067,0,0,0-5.683-22.891c-4.5-.252-11.133-7.714-15.776-18.161-5.259-11.818-5.969-22.986-1.6-24.93s12.172,6.057,17.431,17.875c4.21,9.467,5.5,18.509,3.613,22.734a84.844,84.844,0,0,1,6.368,25.32,58.16,58.16,0,0,1,6.6-8.157c8.975-9.311,19.042-14.153,22.482-10.829S257.773,232.79,248.8,242.1c-6.991,7.245-14.633,11.792-19.3,11.87a88.176,88.176,0,0,1-3.968,17.623c-.91,2.742-1.915,5.432-3.032,8.1a55.734,55.734,0,0,1,11.488-5.154c12.285-4,23.443-3.549,24.925,1.015s-7.286,11.5-19.571,15.489c-9.85,3.2-18.973,3.549-22.967,1.215a231.456,231.456,0,0,1-14.615,22.578,55.41,55.41,0,0,1,12.666-2.542c12.865-1.128,23.643,1.831,24.058,6.6s-9.677,9.562-22.551,10.69c-10.006.876-18.748-.72-22.334-3.714-2.807,3.714-9.478,12.547-11.557,15.385q-1.78,2.434-3.361,4.642a54.384,54.384,0,0,1,12.311-4.851c12.475-3.349,23.6-2.308,24.838,2.317s-7.875,11.1-20.351,14.448c-11.141,2.985-21.191,2.482-24.1-.954-.121.2-.243.39-.355.59-5.467,9-8.811,16.877-10.032,24.244a49.933,49.933,0,0,1,9.218-7.445v18.509a23.624,23.624,0,0,1-9.625,1.3,119.942,119.942,0,0,0,3.708,25.685,38.719,38.719,0,0,1,5.917-9.45v18.066a10.193,10.193,0,0,1-3.292.364C167.855,431.751,168.947,434.823,170.168,438.024Zm0,26.1c-4.661.868-11.47.408-18.739-1.545-12.475-3.349-21.589-9.814-20.351-14.448s12.354-5.666,24.838-2.317a51.42,51.42,0,0,1,14.251,6.022v12.287Z" transform="translate(32.486 -7.997)"/>
      <g id="Woman_1_" transform="translate(410.581 162.265)">
        <path id="Shape_42_" class="cls-7" d="M14.115,322.749c-.6,6.994-.381,12.1-1.057,14.213-1.533,7.61,10.11,9.866,10.4,1.718.329-4.191.243-8.721,1.23-13.328C27.622,311.685,16.619,293.29,14.115,322.749Z" transform="translate(46.855 -25.857)"/>
        <path id="Shape_41_" class="cls-8" d="M20.735,356.564v3.289c0,2.673-35.815,2.49-35.815-.495V356Z" transform="translate(50.597 -32.339)"/>
        <path id="Shape_40_" class="cls-9" d="M19.583,343.5A82.067,82.067,0,0,1,20.735,355c0,2.707-35.815,2.525-35.815-.5,0-4.521,2.616-11,13.862-11q10.916,0,10.4-1.5c-.251,2.933,1.481,4.425,5.2,4.5Q19.613,346.389,19.583,343.5Z" transform="translate(50.597 -30.486)"/>
        <path id="Shape_39_" class="cls-8" d="M-3.734,343.37a1.425,1.425,0,0,1,.156-2.022,1.456,1.456,0,0,1,2.036.156,11.2,11.2,0,0,1,2.677,7.714A1.441,1.441,0,0,1-.312,350.65a1.441,1.441,0,0,1-1.447-1.432A8.3,8.3,0,0,0-3.734,343.37Z" transform="translate(49.127 -30.356)"/>
        <path id="Shape_38_" class="cls-8" d="M3.266,342.37a1.425,1.425,0,0,1,.156-2.022,1.456,1.456,0,0,1,2.036.156,11.2,11.2,0,0,1,2.677,7.714,1.447,1.447,0,0,1-2.894,0A8.3,8.3,0,0,0,3.266,342.37Z" transform="translate(48.192 -30.223)"/>
        <path id="Shape_37_" class="cls-8" d="M9.3,342.4a1.423,1.423,0,0,1,.1-2.022,1.449,1.449,0,0,1,2.045.1,10.178,10.178,0,0,1,2.686,7.272,1.447,1.447,0,0,1-2.894,0A7.344,7.344,0,0,0,9.3,342.4Z" transform="translate(47.389 -30.223)"/>
        <path id="Shape_36_" class="cls-7" d="M102.49,291.475c-5.241-2.273-3.015-12.235,6.064-9.545,3.795,2.282,8.092,3.627,12.129,5.206,7.407,2.889,1.707,13.458-5.2,9.545C113.891,295.4,109.014,294,102.49,291.475Z" transform="translate(35.256 -22.481)"/>
        <path id="Shape_35_" class="cls-8" d="M136.445,295q2.43,1.666,2.6,2.6c-.277,3.046-7.91,10.335-11.263,16.487-3.37,6-9.417,14.109-11.263,13.016l-2.6-2.6Z" transform="translate(33.356 -24.27)"/>
        <path id="Shape_34_" class="cls-9" d="M121.916,288c9.3,2.412,13.463,3.861,13.862,6.074-.277,3.046-7.91,10.335-11.263,16.487-3.37,6-9.417,14.109-11.263,13.016-2.3-2.282-6.8-7.584-2.6-13.884,4.462-6.239,4.678-10.43,6.064-12.148.7-1.753,3.535.425,6.064-4.339C123.675,290.282,123.9,289.093,121.916,288Z" transform="translate(34.023 -23.344)"/>
        <path id="Shape_33_" class="cls-8" d="M110.127,310.838a1.5,1.5,0,0,1-1.507-1.475,1.464,1.464,0,0,1,1.464-1.492c3.855-.017,6.619.425,8.681,2.161a1.483,1.483,0,1,1-1.906,2.273C115.551,311.185,113.272,310.82,110.127,310.838Z" transform="translate(34.064 -25.973)"/>
        <path id="Shape_32_" class="cls-8" d="M112.127,304.837a1.5,1.5,0,0,1-1.507-1.475,1.464,1.464,0,0,1,1.464-1.492c1.213-.009,1.655,0,2.417.052a10.432,10.432,0,0,1,6.264,2.117,1.483,1.483,0,1,1-1.906,2.273,7.759,7.759,0,0,0-4.531-1.414A17.2,17.2,0,0,0,112.127,304.837Z" transform="translate(33.797 -25.178)"/>
        <path id="Shape_31_" class="cls-8" d="M115.127,299.837a1.5,1.5,0,0,1-1.507-1.475,1.469,1.469,0,0,1,1.464-1.492c3.951-.026,6.584.4,8.681,2.161a1.483,1.483,0,1,1-1.906,2.273C120.525,300.159,118.359,299.82,115.127,299.837Z" transform="translate(33.396 -24.517)"/>
        <path id="Shape_30_" class="cls-10" d="M16.261,132.807c.771,10.387-6.324,17.424-13,37.312C-3.933,190.094.338,224.977-.2,233.463c.537,7.749,9.781,67.717,10.4,72.021,2.2,5.371,11.3,6.031,13,0,2.426-5.744-1.291-59.031-1.733-72.021.442-13.736,8.369-55.4,10.4-54.667,2.79-.729-.39,39.733,2.6,51.2,3.179,10.621,40.692,33.624,49.382,39.048,8.152,5.51,16.036-4.356,12.129-11.28-4.713-7.671-40.909-32.887-40.718-35.577-.191-1.7,11.938-32.019,6.931-52.063-6.056-19.958-12.423-23.854-13-35.577C49.616,121.579,16.764,122.594,16.261,132.807Z" transform="translate(48.712 -1.781)"/>
        <path id="Shape_29_" class="cls-11" d="M10.074,327.062a38.043,38.043,0,0,0,8.109.937,31.917,31.917,0,0,0,7.208-.833h0a2.6,2.6,0,0,1,3.119,1.952,2.68,2.68,0,0,1,.069.59v3.306a2.6,2.6,0,0,1-1.915,2.508,32.009,32.009,0,0,1-8.482,1.154A39.045,39.045,0,0,1,8.9,335.47h0a2.606,2.606,0,0,1-1.984-2.525v-3.332a2.6,2.6,0,0,1,2.6-2.6A2,2,0,0,1,10.074,327.062Z" transform="translate(47.657 -28.504)"/>
        <path id="Shape_28_" class="cls-11" d="M98.725,290.334a37.88,37.88,0,0,0,5.311-6.213,32.058,32.058,0,0,0,3.344-6.456,2.6,2.6,0,0,1,3.361-1.5,2.95,2.95,0,0,1,.52.269L114,278.281a2.6,2.6,0,0,1,1,2.994,32.552,32.552,0,0,1-3.786,7.688,39.375,39.375,0,0,1-6.186,7.029,2.6,2.6,0,0,1-3.205.234l-2.764-1.866a2.6,2.6,0,0,1-.7-3.61A3.213,3.213,0,0,1,98.725,290.334Z" transform="translate(35.495 -21.756)"/>
        <path id="Shape_27_" class="cls-7" d="M-36.127,22.577C-38.12,15.453-39.264,10.672-39.619,9.9-41.152,6.385-51.713,2.81-54.347.354-54.936-2.327-57.925-17-54.347-17c3.985,0,11.886,13.415,15.594,13.016,2.278.4,2.53-7.063,3.465-6.942,2.746-.121,3.361,14.213,2.6,17.354.277,1.059,2.53,6.109,5.449,12.287C-22.067,29.666-33.988,30.23-36.127,22.577Z" transform="translate(56.076 17)"/>
        <path id="Shape_26_" class="cls-7" d="M96.606,159.269a35.1,35.1,0,0,1,2.478,7.272c1.984,2.421,15.594,10.23,15.594,14.751,0,5.068-.052,10.413-1.733,10.413-2.166,0-8.594-8.486-14.728-12.148-.936-.972-.364,5.05-3.465,5.206-2.781-.156.58-12.99,0-13.016a74.094,74.094,0,0,1-5.675-6.534C82.536,157.056,92.586,150.271,96.606,159.269Z" transform="translate(36.964 -5.751)"/>
        <path id="Shape_25_" class="cls-12" d="M21.183,75Q9.916,91.244,9.92,99.3c0,9.267,7.65,16.322,7.8,26.9-.147,9.181,32.54,9.562,32.921,0-.381-6.473,4.332-16.4,4.332-26.9q0-9.775-14.728-24.3Z" transform="translate(47.256 4.831)"/>
        <path id="Shape_24_" class="cls-12" d="M-37.224,22.8l-.866-1.735c-.3-1.753.468-3.2,1.733-3.471l7.8-2.6a3.366,3.366,0,0,1,3.465,1.735l.866,3.471c1.256.6,2.4,1.484,2.6,2.6,5.553,11.107,9.331,25.607,11.263,27.767a34.439,34.439,0,0,0,6.931,6.074,3.3,3.3,0,0,0,.866.868,59.694,59.694,0,0,0,17.327,9.545l-10.4,19.09C2.126,84.312-8.227,76.234-16.431,68.789c-.121-.677-.676-1.128-1.733-1.735-3.829-4.382-7.442-8.582-8.663-11.28-4.037-10.959-8.88-21.311-11.263-28.635A7.345,7.345,0,0,1-37.224,22.8Z" transform="translate(53.681 12.777)"/>
        <path id="Shape_23_" class="cls-12" d="M93.435,150.492c.944.963,1.222,4.234,0,5.206l-7.8,3.471a2.939,2.939,0,0,1-3.465-1.735l-.866-2.6a7.043,7.043,0,0,1-2.6,0c-6.255-8.6-10.708-20.765-12.129-22.561-1.481-2.829-2.183-4.625-5.2-12.148C58.1,110.75,52.475,95.652,44.92,75c10.717,2.117,17.7,4.512,20.792,6.942,3.37,3.5,7.572,22.049,10.4,33.841,1.975,8.1,1.559,9.727,2.6,12.148.927,1.293,12.38,11.515,16.461,20.825C95.272,148.9,94.7,149.485,93.435,150.492Z" transform="translate(42.578 4.831)"/>
        <path id="Shape_22_" class="cls-5" d="M16.032,75.815C24.921,65.532-9.941,61.011-1.294,47.18,6.147,32.646-1.069,16.037,6.5,6.4,10.167,1.486,16.838.071,22.1.323,27.33-5.031,45.1-7.3,54.152,3.794c9.85,11.341,2.426,19.732,13.862,26.9,12.094,7.35,17.6,20.912,8.663,32.106-9.547,11.411-6.212,17.354,0,28.635,5.536,10.447,2.365,36.444-32.055,36.444-18.453,0-42.754-13.493-45.916-26.032C-5.02,90.54,11.138,80.362,16.032,75.815Z" transform="translate(48.94 15.296)"/>
      </g>
      <g id="Card_1_" transform="translate(201.694 75.496) rotate(10)">
        <path id="Shape_21_" class="cls-5" d="M4.332,0,185.407.05a4.34,4.34,0,0,1,4.333,4.34l.016,60.738a4.334,4.334,0,0,1-4.331,4.337L4.351,69.416a4.34,4.34,0,0,1-4.333-4.34L0,4.338A4.334,4.334,0,0,1,4.332,0Z" transform="translate(0 0)"/>
        <ellipse id="Oval_1_" class="cls-10" cx="25.999" cy="26.038" rx="25.999" ry="26.038" transform="translate(8.666 8.679)"/>
        <path id="Shape_20_" class="cls-10" d="M4.332,0,55.449.015a4.338,4.338,0,0,1,0,8.677L4.334,8.678A4.338,4.338,0,0,1,4.332,0Z" transform="translate(69.324 47.741)"/>
        <path id="Shape_19_" class="cls-10" d="M4.332,0l103.1.028a4.338,4.338,0,0,1,0,8.677L4.334,8.678A4.338,4.338,0,0,1,4.332,0Z" transform="translate(69.319 30.388)"/>
        <path id="Shape_18_" class="cls-10" d="M4.332,0l103.1.028a4.338,4.338,0,0,1,0,8.677L4.334,8.678A4.338,4.338,0,0,1,4.332,0Z" transform="translate(69.315 13.034)"/>
      </g>
      <g id="Man_1_" transform="translate(0 23.334)">
        <path id="Shape_17_" class="cls-13" d="M27.412,305.413c-.962,1.961-1.542,3.115-1.733,3.471-3.179,4.772-10.474,1.961-18.193-.868C.52,305.525-9.8,300.475-8.108,297.6c.321-.521.892-1.388,1.733-2.6Z" transform="translate(49.622 -24.175)"/>
        <path id="Shape_16_" class="cls-14" d="M7.753,271l10.4,6.074c-.944.885-2.443,3.375-4.332,7.81-4.349,5.692,16.79,11.957,13.862,17.354-3.179,4.772-10.474,1.961-18.193-.868C2.52,298.88-7.8,294.7-6.108,291.825-4.324,288.918.121,282.09,7.753,271Z" transform="translate(49.355 -21.001)"/>
        <path id="Shape_15_" class="cls-13" d="M-25.747,252.561q-1.988,2.1-2.6,2.6c-4.557,2.994-10.31-2.334-16.461-6.942-6.342-4.616-13.636-14.4-10.4-16.487A17.822,17.822,0,0,1-52.6,230Z" transform="translate(55.998 -15.577)"/>
        <path id="Shape_14_" class="cls-14" d="M-32.277,214l7.8,9.545c-1.326.356-3.665,2.091-7.8,5.206-5.493,3.887,11.9,17.589,6.931,21.693-4.557,2.994-10.31-2.334-16.461-6.942-6.342-4.616-13.636-13.528-10.4-15.619C-50.037,225.94-43.323,221.306-32.277,214Z" transform="translate(55.597 -13.461)"/>
        <g id="Mask_3_" transform="translate(14.66 107.692)">
          <g id="Shape_13_" transform="translate(0 0)">
            <path id="path-1_1_" class="cls-15" d="M25.357-17,53.947,5.561C38.569,38.543,28.892,56.574,24.491,60.227,8.8,72.87-37.774,92.333-44.817,92.333c-6.29,0-15.005-11.246-9.53-19.09C-51.653,69.009-3.336,44.409.233,37.667,2.347,33.554,10.915,15.253,25.357-17Z" transform="translate(56.077 17)"/>
          </g>
          <g id="Shape_12_" transform="translate(44.822 4.955)">
            <path id="path-3_1_" class="cls-16" d="M44.791,39.385C38.432,51.663,34,58.822,31.406,60.983,23.946,67,9.513,74.545-4.34,80.81-.225,68.731,3.18,58.024,3.847,54a65.276,65.276,0,0,0,.225-12.434,12.635,12.635,0,0,0,3.076-3.141c2-3.9,9.8-20.539,22.906-49.712L52.2,6.316Q48.026,25.684,44.791,39.385Z" transform="translate(4.34 11.29)"/>
          </g>
        </g>
        <path id="Shape_11_" class="cls-2" d="M31.174,129.171c-6.446,13.84-1.2,37.269-3.006,48.046S5.028,246.54,2.845,251.408s11.9,17.068,16.625,7.766S56,203.223,60.362,193.773q4.366-9.45,16.157-64.238L47.938,106.81A62.759,62.759,0,0,0,31.174,129.171Z" transform="translate(48.164 0.718)"/>
        <path id="Shape_10_" class="cls-7" d="M148.309,88.509c1.04.547,6.151-10.378,8.663-12.148,3.076-1.163,16.227-6.933,13.862-2.6a159.747,159.747,0,0,1-11.263,13.016c-1.014.807,6.186.078,5.2,1.735C163.7,90,150.7,96.423,147.443,96.319c-3.413.451-56.85,3.228-60.644-4.339-2.772-4.616,1.759-9.58,13.862-14.751Z" transform="translate(37.018 5.3)"/>
        <g id="Mask_2_" transform="translate(95.2 59.968)">
          <g id="Shape_9_" transform="translate(0 0)">
            <path id="path-5_1_" class="cls-5" d="M-55.218,30.725C-48.764,21.267-44.345,8.98-37.025-2.249-31.645-9.208-23.579-14.171-12.767-17L1.095-7.455C-.673,8.945-3.991,20.781-9.3,28.122c-6.922,10.595-12.3,17.745-17.327,25.164C-31.852,60.531-61.6,39.645-55.218,30.725Z" transform="translate(56.111 17)"/>
          </g>
          <g id="Shape_8_" class="cls-17" transform="translate(30.393 19.043)">
            <path id="path-7_1_" d="M3.124,11.961C1.252,20.083-1.295,26.434-4.613,31.025c-.745,1.145-1.481,2.247-2.192,3.315C-12.765,29.645-18,25.029-19.341,22.347c-3.647-6.022-1.282-15.22,6.064-17.354C-5.86,4.437-.29,8.9,3.124,11.961Z" transform="translate(21.03 -4.946)"/>
          </g>
        </g>
        <path id="Shape_7_" class="cls-5" d="M120.581,108.247c-4.869-3.419-29.742-20.574-32.921-26.9-3.647-6.022-1.282-15.22,6.064-17.354,8.126-.607,14.043,4.816,17.327,7.81,1.516,2.907,7.676,10.9,18.193,24.3C127.563,106.858,124.8,110.945,120.581,108.247Z" transform="translate(37.024 6.388)"/>
        <path id="Shape_6_" class="cls-7" d="M165.478,105.339c.91.434,9.668-2.5,11.263-.868,1.672,1.293-7.156,4.859-5.2,6.942,1.655,1.145,15.655,14.8,15.594,15.619-.165,1.571-11.444.174-13.862,0-1.135-.477-7.771-13.589-9.53-13.884-22.464,2.525-35.338,2.187-38.986-.868-2.876-2.785.191-6.595,9.53-11.28Z" transform="translate(31.979 1.486)"/>
        <g id="Mask_1_" transform="translate(138.545 44.37)">
          <g id="Shape_5_" transform="translate(0 0)">
            <path id="path-9_1_" class="cls-7" d="M-56.08-1.378c5.423-7.7,4.843-12.808,5.2-14.751.476-4.026,17.336,7.358,13,12.148-1.542,3.263-3.743,8.365-4.332,12.148-2.434.113-6.9-.677-9.53-2.6A14.95,14.95,0,0,1-56.08-1.378Z" transform="translate(56.08 16.976)"/>
          </g>
          <g id="Shape_4_" class="cls-18" transform="translate(4.427 0)">
            <path id="path-11_1_" class="cls-19" d="M-50.97-10.584a40.328,40.328,0,0,0,.771-5.545c.476-4.026,17.336,7.358,13,12.148a75.968,75.968,0,0,0-2.989,7.159C-45.217-.354-49.489-5.369-50.97-10.584Z" transform="translate(50.97 16.976)"/>
          </g>
        </g>
        <path id="Shape_3_" class="cls-7" d="M111.569-1.271c10.11-5.224,23.669,1.545,26.857,13.884,4.514,12.99-.849,30.37-10.4,30.37-9.062,0-21.676-9.25-24.258-19.09C101.693,14.131,102.446,4.595,111.569-1.271Z" transform="translate(34.773 15.25)"/>
        <path id="Shape_2_" class="cls-4" d="M110.174,25.5c-2.252-.069-1.611-4.417-5.2-4.339-3.344-.078,6.272,9.154,2.6,11.28C92.422,42.8,81.463,18.432,87.649,16.827c6.281-1.406,1.282-9.528,2.6-13.884C91.5-2.359,98.6-.823,102.377-4c3.188-2.968-.58-9.719,6.064-13.016,6.913-.946,11.938,5.467,14.728,6.942,3.171,2.161,12.51-4.868,15.594,6.074,3.9,11.749-6.316,14.153-14.728,13.884-8.2.269-16.7-5.71-13.862,1.735C112.955,18.528,112.677,25.435,110.174,25.5Z" transform="translate(37.035 17.109)"/>
        <path id="Shape_1_" class="cls-7" d="M110.461,30.468c-.182-.659-1.949-5.423-6.931-2.6-5.441,2.907-1.2,10.126,4.332,11.28C113.311,40.126,110.782,31.145,110.461,30.468Z" transform="translate(35.015 11.277)"/>
      </g>
    </g>
  </g>
</svg>
