<svg xmlns="http://www.w3.org/2000/svg" viewBox="0 0 529.341 360">
  <defs>
    <style>
      .cls-1 {
        fill: #263253;
      }

      .cls-2 {
        fill: #e7eaf4;
      }

      .cls-3 {
        fill: #fff;
      }

      .cls-4 {
        fill: #37456c;
      }

      .cls-5 {
        fill: #49a2fe;
      }

      .cls-6 {
        fill: #435486;
      }

      .cls-7 {
        fill: #24ca6c;
      }

      .cls-8 {
        fill: #ffcf00;
      }

      .cls-9 {
        fill: #ff8820;
      }

      .cls-10 {
        fill: #f0f2f8;
      }

      .cls-11 {
        fill: #bcc4db;
      }

      .cls-12 {
        fill: #2d395c;
      }

      .cls-13 {
        fill: #ba5f0e;
        opacity: 0.2;
      }

      .cls-14 {
        fill: #ffbb80;
      }

      .cls-15 {
        fill: #eef4f8;
      }

      .cls-16 {
        opacity: 0.1;
      }

      .cls-17 {
        fill: #f6ab69;
      }

      .cls-18 {
        fill: #1abffe;
      }

      .cls-19 {
        fill: #d5dbde;
      }

      .cls-20 {
        fill: #eabe00;
      }
    </style>
  </defs>
  <g id="_x30_5_1_" transform="translate(-0.003 -0.025)">
    <g id="_x30_5_x5F_Illustration_1_" transform="translate(0.003 0.025)">
      <path id="Shape_96_" class="cls-1" d="M54.812,307.925C29.832,279.5,6.69,290.491,3.037,272.462c-4.007-18.114,13.752-19.369,14.185-34.044-.433-13.632-36.8-10.66-40.427-24.823C-26.85,198.857-13.587,195.538.2,190.19c14.844-4.7-30.93-30.59-26.951-56.739,4.575-25.7,39.788-25.54,46.1,7.092,6.128,31.59,11.816,41.519,20.568,28.37,8.468-12.766,32.405-8.1,21.987,29.079-10.007,36.845,18.348,21.54,25.533,40.427C93.515,258.349,72.72,262.441,54.812,307.925Z" transform="translate(26.997 -0.84)"/>
      <g id="Bg_1_" transform="translate(63.369 33.317)">
        <path id="Shape_95_" class="cls-2" d="M-19.558-44H377.618a7.1,7.1,0,0,1,7.092,7.092V241.115a7.1,7.1,0,0,1-7.092,7.092H-19.558a7.1,7.1,0,0,1-7.092-7.092V-36.908A7.09,7.09,0,0,1-19.558-44Z" transform="translate(26.65 45.418)"/>
        <path id="Shape_94_" class="cls-3" d="M163.9,167h75.889a3.548,3.548,0,0,1,3.546,3.546v53.193a3.548,3.548,0,0,1-3.546,3.546H163.9a3.548,3.548,0,0,1-3.546-3.546V170.546A3.548,3.548,0,0,1,163.9,167Z" transform="translate(-27.722 -15.931)"/>
        <path id="Shape_93_" class="cls-4" d="M173.9,177h61.7a3.547,3.547,0,0,1,3.546,3.546v31.916a3.547,3.547,0,0,1-3.546,3.546H173.9a3.547,3.547,0,0,1-3.546-3.546V180.546A3.547,3.547,0,0,1,173.9,177Z" transform="translate(-30.629 -18.839)"/>
        <path id="Shape_92_" class="cls-4" d="M203.9,237h6.383a3.546,3.546,0,0,1,0,7.092H203.9a3.546,3.546,0,0,1,0-7.092Z" transform="translate(-39.352 -36.284)"/>
        <path id="Shape_91_" class="cls-4" d="M227.9,237h6.383a3.546,3.546,0,1,1,0,7.092H227.9a3.546,3.546,0,0,1,0-7.092Z" transform="translate(-46.33 -36.284)"/>
        <path id="Shape_90_" class="cls-4" d="M251.9,237h6.383a3.546,3.546,0,0,1,0,7.092H251.9a3.546,3.546,0,0,1,0-7.092Z" transform="translate(-53.308 -36.284)"/>
        <path id="Shape_89_" class="cls-3" d="M163.9,263h75.889a3.548,3.548,0,0,1,3.546,3.546v53.193a3.548,3.548,0,0,1-3.546,3.546H163.9a3.547,3.547,0,0,1-3.546-3.546V266.546A3.547,3.547,0,0,1,163.9,263Z" transform="translate(-27.722 -43.844)"/>
        <path id="Shape_88_" class="cls-4" d="M173.9,273h61.7a3.547,3.547,0,0,1,3.546,3.546v31.916a3.547,3.547,0,0,1-3.546,3.546H173.9a3.548,3.548,0,0,1-3.546-3.546V276.546A3.547,3.547,0,0,1,173.9,273Z" transform="translate(-30.629 -46.752)"/>
        <path id="Shape_87_" class="cls-4" d="M203.9,333h6.383a3.546,3.546,0,0,1,0,7.092H203.9a3.546,3.546,0,0,1,0-7.092Z" transform="translate(-39.352 -64.197)"/>
        <path id="Shape_86_" class="cls-4" d="M227.9,333h6.383a3.546,3.546,0,0,1,0,7.092H227.9a3.546,3.546,0,0,1,0-7.092Z" transform="translate(-46.33 -64.197)"/>
        <path id="Shape_85_" class="cls-4" d="M251.9,333h6.383a3.546,3.546,0,0,1,0,7.092H251.9a3.546,3.546,0,0,1,0-7.092Z" transform="translate(-53.308 -64.197)"/>
        <path id="Shape_84_" class="cls-3" d="M291.9,71h75.889a3.547,3.547,0,0,1,3.546,3.546v53.193a3.547,3.547,0,0,1-3.546,3.546H291.9a3.548,3.548,0,0,1-3.546-3.546V74.546A3.548,3.548,0,0,1,291.9,71Z" transform="translate(-64.939 11.981)"/>
        <path id="Shape_83_" class="cls-4" d="M301.9,81h61.7a3.547,3.547,0,0,1,3.546,3.546v31.916a3.547,3.547,0,0,1-3.546,3.546H301.9a3.548,3.548,0,0,1-3.546-3.546V84.546A3.548,3.548,0,0,1,301.9,81Z" transform="translate(-67.846 9.074)"/>
        <path id="Shape_82_" class="cls-4" d="M331.9,141h6.383a3.546,3.546,0,0,1,0,7.092H331.9a3.546,3.546,0,1,1,0-7.092Z" transform="translate(-76.569 -8.372)"/>
        <path id="Shape_81_" class="cls-4" d="M355.9,141h6.383a3.546,3.546,0,0,1,0,7.092H355.9a3.546,3.546,0,0,1,0-7.092Z" transform="translate(-83.547 -8.372)"/>
        <path id="Shape_80_" class="cls-4" d="M379.9,141h6.383a3.546,3.546,0,0,1,0,7.092H379.9a3.546,3.546,0,1,1,0-7.092Z" transform="translate(-90.525 -8.372)"/>
        <path id="Shape_79_" class="cls-3" d="M291.9,167h75.889a3.548,3.548,0,0,1,3.546,3.546v53.193a3.548,3.548,0,0,1-3.546,3.546H291.9a3.548,3.548,0,0,1-3.546-3.546V170.546A3.548,3.548,0,0,1,291.9,167Z" transform="translate(-64.939 -15.931)"/>
        <path id="Shape_78_" class="cls-4" d="M301.9,177h61.7a3.547,3.547,0,0,1,3.546,3.546v31.916a3.547,3.547,0,0,1-3.546,3.546H301.9a3.548,3.548,0,0,1-3.546-3.546V180.546A3.548,3.548,0,0,1,301.9,177Z" transform="translate(-67.846 -18.839)"/>
        <path id="Shape_77_" class="cls-4" d="M331.9,237h6.383a3.546,3.546,0,0,1,0,7.092H331.9a3.546,3.546,0,1,1,0-7.092Z" transform="translate(-76.569 -36.284)"/>
        <path id="Shape_76_" class="cls-4" d="M355.9,237h6.383a3.546,3.546,0,1,1,0,7.092H355.9a3.546,3.546,0,0,1,0-7.092Z" transform="translate(-83.547 -36.284)"/>
        <path id="Shape_75_" class="cls-4" d="M379.9,237h6.383a3.546,3.546,0,1,1,0,7.092H379.9a3.546,3.546,0,1,1,0-7.092Z" transform="translate(-90.525 -36.284)"/>
        <path id="Shape_74_" class="cls-3" d="M291.9,263h75.889a3.547,3.547,0,0,1,3.546,3.546v53.193a3.547,3.547,0,0,1-3.546,3.546H291.9a3.548,3.548,0,0,1-3.546-3.546V266.546A3.548,3.548,0,0,1,291.9,263Z" transform="translate(-64.939 -43.844)"/>
        <path id="Shape_73_" class="cls-4" d="M301.9,273h61.7a3.547,3.547,0,0,1,3.546,3.546v31.916a3.547,3.547,0,0,1-3.546,3.546H301.9a3.548,3.548,0,0,1-3.546-3.546V276.546A3.548,3.548,0,0,1,301.9,273Z" transform="translate(-67.846 -46.752)"/>
        <path id="Shape_72_" class="cls-4" d="M331.9,333h6.383a3.546,3.546,0,0,1,0,7.092H331.9a3.546,3.546,0,1,1,0-7.092Z" transform="translate(-76.569 -64.197)"/>
        <path id="Shape_71_" class="cls-4" d="M355.9,333h6.383a3.546,3.546,0,0,1,0,7.092H355.9a3.546,3.546,0,0,1,0-7.092Z" transform="translate(-83.547 -64.197)"/>
        <path id="Shape_70_" class="cls-4" d="M379.9,333h6.383a3.546,3.546,0,0,1,0,7.092H379.9a3.546,3.546,0,1,1,0-7.092Z" transform="translate(-90.525 -64.197)"/>
        <path id="Shape_69_" class="cls-3" d="M419.9,71h75.889a3.547,3.547,0,0,1,3.546,3.546v53.193a3.547,3.547,0,0,1-3.546,3.546H419.9a3.547,3.547,0,0,1-3.546-3.546V74.546A3.547,3.547,0,0,1,419.9,71Z" transform="translate(-102.156 11.981)"/>
        <path id="Shape_68_" class="cls-4" d="M429.9,81h61.7a3.548,3.548,0,0,1,3.546,3.546v31.916a3.548,3.548,0,0,1-3.546,3.546H429.9a3.548,3.548,0,0,1-3.546-3.546V84.546A3.548,3.548,0,0,1,429.9,81Z" transform="translate(-105.063 9.074)"/>
        <path id="Shape_67_" class="cls-4" d="M459.9,141h6.383a3.546,3.546,0,0,1,0,7.092H459.9a3.546,3.546,0,0,1,0-7.092Z" transform="translate(-113.786 -8.372)"/>
        <path id="Shape_66_" class="cls-5" d="M483.9,141h6.383a3.546,3.546,0,0,1,0,7.092H483.9a3.546,3.546,0,0,1,0-7.092Z" transform="translate(-120.764 -8.372)"/>
        <path id="Shape_65_" class="cls-4" d="M507.9,141h6.383a3.546,3.546,0,1,1,0,7.092H507.9a3.546,3.546,0,0,1,0-7.092Z" transform="translate(-127.742 -8.372)"/>
        <path id="Shape_64_" class="cls-3" d="M419.9,167h75.889a3.548,3.548,0,0,1,3.546,3.546v53.193a3.548,3.548,0,0,1-3.546,3.546H419.9a3.547,3.547,0,0,1-3.546-3.546V170.546A3.548,3.548,0,0,1,419.9,167Z" transform="translate(-102.156 -15.931)"/>
        <path id="Shape_63_" class="cls-4" d="M429.9,177h61.7a3.548,3.548,0,0,1,3.546,3.546v31.916a3.548,3.548,0,0,1-3.546,3.546H429.9a3.547,3.547,0,0,1-3.546-3.546V180.546A3.548,3.548,0,0,1,429.9,177Z" transform="translate(-105.063 -18.839)"/>
        <path id="Shape_62_" class="cls-4" d="M459.9,237h6.383a3.546,3.546,0,0,1,0,7.092H459.9a3.546,3.546,0,0,1,0-7.092Z" transform="translate(-113.786 -36.284)"/>
        <path id="Shape_61_" class="cls-5" d="M483.9,237h6.383a3.546,3.546,0,1,1,0,7.092H483.9a3.546,3.546,0,0,1,0-7.092Z" transform="translate(-120.764 -36.284)"/>
        <path id="Shape_60_" class="cls-5" d="M507.9,237h6.383a3.546,3.546,0,1,1,0,7.092H507.9a3.546,3.546,0,0,1,0-7.092Z" transform="translate(-127.742 -36.284)"/>
        <path id="Shape_59_" class="cls-3" d="M-3.1,71H97.609a3.548,3.548,0,0,1,3.546,3.546v121.99a3.548,3.548,0,0,1-3.546,3.546H-3.1a3.548,3.548,0,0,1-3.546-3.546V74.546A3.547,3.547,0,0,1-3.1,71Z" transform="translate(20.835 11.981)"/>
        <path id="Shape_58_" class="cls-4" d="M77.9,214h32.625a3.548,3.548,0,0,1,3.546,3.546v9.929a3.548,3.548,0,0,1-3.546,3.546H77.9a3.548,3.548,0,0,1-3.546-3.546v-9.929A3.548,3.548,0,0,1,77.9,214Z" transform="translate(-2.717 -29.597)"/>
        <path id="Shape_57_" class="cls-4" d="M11.9,214H44.521a3.548,3.548,0,0,1,3.546,3.546v9.929a3.548,3.548,0,0,1-3.546,3.546H11.9a3.548,3.548,0,0,1-3.546-3.546v-9.929A3.548,3.548,0,0,1,11.9,214Z" transform="translate(16.473 -29.597)"/>
        <path id="Shape_56_" class="cls-4" d="M13.315,185H54.451a4.965,4.965,0,0,1,0,9.929H13.315a4.965,4.965,0,0,1,0-9.929Z" transform="translate(16.473 -21.165)"/>
        <path id="Shape_55_" class="cls-4" d="M13.315,165h76.6a4.965,4.965,0,0,1,0,9.929h-76.6a4.965,4.965,0,0,1,0-9.929Z" transform="translate(16.473 -15.35)"/>
        <path id="Shape_54_" class="cls-4" d="M13.315,145h76.6a4.965,4.965,0,0,1,0,9.929h-76.6a4.965,4.965,0,1,1,0-9.929Z" transform="translate(16.473 -9.535)"/>
        <path id="Shape_53_" class="cls-4" d="M67.315,111H91.429a4.965,4.965,0,0,1,0,9.929H67.315a4.965,4.965,0,1,1,0-9.929Z" transform="translate(0.773 0.351)"/>
        <path id="Shape_52_" class="cls-4" d="M67.315,91h38.3a4.965,4.965,0,1,1,0,9.929h-38.3a4.965,4.965,0,1,1,0-9.929Z" transform="translate(0.773 6.166)"/>
        <circle id="Oval_4_" class="cls-4" cx="15.603" cy="15.603" r="15.603" transform="translate(24.823 93.62)"/>
        <path id="Shape_51_" class="cls-4" d="M244.315,29h26.951a4.965,4.965,0,0,1,0,9.929H244.315a4.965,4.965,0,0,1,0-9.929Z" transform="translate(-50.692 24.193)"/>
        <path id="Shape_50_" class="cls-4" d="M182.315,29h26.951a4.965,4.965,0,0,1,0,9.929H182.315a4.965,4.965,0,0,1,0-9.929Z" transform="translate(-32.665 24.193)"/>
        <path id="Shape_49_" class="cls-4" d="M120.315,29h26.951a4.965,4.965,0,0,1,0,9.929H120.315a4.965,4.965,0,1,1,0-9.929Z" transform="translate(-14.638 24.193)"/>
        <path id="Shape_48_" class="cls-4" d="M3.989,21H55.054a10.639,10.639,0,1,1,0,21.277H3.989A10.639,10.639,0,0,1,3.989,21Z" transform="translate(20.835 26.519)"/>
        <path id="Shape_47_" class="cls-6" d="M-19.558-46H377.618a7.1,7.1,0,0,1,7.092,7.092v26.242H-26.65V-38.908A7.09,7.09,0,0,1-19.558-46Z" transform="translate(26.65 46)"/>
        <circle id="Oval_3_" class="cls-7" cx="7.447" cy="7.447" r="7.447" transform="translate(58.158 9.22)"/>
        <circle id="Oval_2_" class="cls-8" cx="7.447" cy="7.447" r="7.447" transform="translate(36.171 9.22)"/>
        <circle id="Oval_1_" class="cls-9" cx="7.447" cy="7.447" r="7.447" transform="translate(14.185 9.22)"/>
      </g>
      <path id="Shape_46_" class="cls-1" d="M612.117,170.752c.894-2.369,1.7-4.653,2.433-6.887a7.959,7.959,0,0,1-2.433-.234v-14.5a31.5,31.5,0,0,1,4.582,7.4,97.889,97.889,0,0,0,3.036-20.994,19.037,19.037,0,0,1-7.61-.979V119.523a40.567,40.567,0,0,1,7.284,5.915c-1-6.021-3.738-12.461-8.213-19.816-.1-.163-.2-.319-.291-.482-2.383,2.809-10.617,3.22-19.731.78-10.213-2.738-17.674-8.022-16.66-11.809s10.114-4.631,20.334-1.894a45.17,45.17,0,0,1,10.078,3.965q-1.3-1.819-2.752-3.794c-1.7-2.312-7.163-9.532-9.461-12.575-2.936,2.447-10.093,3.752-18.284,3.036-10.532-.922-18.8-4.83-18.462-8.738s9.156-6.319,19.7-5.4a45.048,45.048,0,0,1,10.369,2.078,190.038,190.038,0,0,1-11.965-18.454c-3.27,1.908-10.738,1.631-18.8-.993-10.057-3.27-17.235-8.936-16.022-12.66s10.348-4.1,20.4-.83a45.287,45.287,0,0,1,9.4,4.213c-.915-2.184-1.738-4.383-2.482-6.624a72.464,72.464,0,0,1-3.248-14.4c-3.823-.071-10.085-3.78-15.8-9.7-7.348-7.61-11.022-15.979-8.2-18.7s11.057,1.241,18.4,8.851a47.548,47.548,0,0,1,5.4,6.667,68.993,68.993,0,0,1,5.213-20.7C566.789-16,567.853-23.4,571.3-31.127c4.305-9.66,10.688-16.2,14.27-14.61s2.993,10.717-1.312,20.377c-3.823,8.525-9.255,14.625-12.937,14.83a65.418,65.418,0,0,0-4.653,18.71,48.089,48.089,0,0,1,4.624-5.986c7.078-7.858,15.171-12.107,18.086-9.483s-.468,11.114-7.546,18.979c-5.227,5.8-11,9.632-14.844,10.192a69.412,69.412,0,0,0,2.929,12.454c.688,2.064,1.44,4.092,2.284,6.121a45.624,45.624,0,0,1,3.78-9.334c4.965-9.341,11.795-15.419,15.256-13.575s2.234,10.9-2.731,20.235c-3.419,6.426-7.717,11.305-11.192,13.128a186.386,186.386,0,0,0,11.163,17.242,46.047,46.047,0,0,1,2.709-9.234c3.965-9.809,10.121-16.568,13.752-15.1s3.362,10.6-.6,20.412c-2.461,6.085-5.759,10.993-8.781,13.5,2.319,3.064,7.745,10.241,9.454,12.561.929,1.255,1.8,2.461,2.631,3.624A44.737,44.737,0,0,1,609.8,83.494c3.27-10.057,8.937-17.235,12.66-16.022s4.1,10.348.83,20.4c-2.411,7.419-6.128,13.27-9.4,15.341.113.191.234.376.348.567,4.943,8.121,7.908,15.284,8.837,22.121a43.126,43.126,0,0,1,8.029-9.057c7.979-6.936,16.532-10.163,19.107-7.213s-1.816,10.979-9.8,17.915c-6.518,5.667-13.412,8.858-17.121,8.227a101.14,101.14,0,0,1-2.865,20.554,41.262,41.262,0,0,1,12.163-5.248c10.213-2.738,19.32-1.887,20.334,1.894s-6.447,9.071-16.66,11.809c-7.8,2.092-14.951,2.092-18.348.291-1.284,3.922-2.8,7.986-4.575,12.355-.22.546-.688,1.681-1.2,2.922v-9.6Zm0,11.816a42.649,42.649,0,0,1,11.4-4.752c10.213-2.738,19.32-1.887,20.334,1.894s-6.447,9.071-16.66,11.809c-5.816,1.56-11.27,1.958-15.078,1.312Z" transform="translate(-137.387 45.975)"/>
      <g id="Man_2_" transform="translate(98.759 110.618)">
        <path id="Shape_45_" class="cls-10" d="M82.653-44.917,156.6-27.846a3.551,3.551,0,0,1,2.66,4.255L147.293,28.241a3.551,3.551,0,0,1-4.255,2.66L69.092,13.829a3.551,3.551,0,0,1-2.66-4.255L78.4-42.258A3.551,3.551,0,0,1,82.653-44.917Z" transform="translate(-1.026 45.009)"/>
        <path id="Shape_44_" class="cls-11" d="M92.106-32.918l60.122,13.88a3.551,3.551,0,0,1,2.66,4.255l-7.178,31.1a3.551,3.551,0,0,1-4.255,2.66L83.332,5.091A3.551,3.551,0,0,1,80.673.835l7.178-31.1A3.55,3.55,0,0,1,92.106-32.918Z" transform="translate(-5.166 41.52)"/>
        <path id="Shape_43_" class="cls-11" d="M110.788,32.293l6.22,1.433a3.548,3.548,0,0,1-1.6,6.915l-6.22-1.433a3.548,3.548,0,0,1,1.6-6.915Z" transform="translate(-12.685 22.559)"/>
        <path id="Shape_42_" class="cls-11" d="M134.168,37.692l6.22,1.433a3.548,3.548,0,1,1-1.6,6.915l-6.22-1.433a3.548,3.548,0,0,1,1.6-6.915Z" transform="translate(-19.483 20.989)"/>
        <path id="Shape_41_" class="cls-11" d="M157.558,43.093l6.22,1.433a3.548,3.548,0,1,1-1.6,6.915l-6.22-1.433a3.548,3.548,0,0,1,1.6-6.915Z" transform="translate(-26.284 19.419)"/>
        <path id="Shape_40_" class="cls-12" d="M34.35,297.674v2.837c0,3.036,8.944,1.631,14.894.709,6.5-1.525,12.766-2.617,12.766-7.092V292Z" transform="translate(8.276 -52.979)"/>
        <path id="Shape_39_" class="cls-4" d="M35.059,273q-.713,16.192-.709,19.859c0,3.036,8.944,1.631,14.894.709,6.5-1.525,12.766-2.617,12.766-7.092,0-5.17-17.355-.688-17.022-6.383q-.33-5.947,0-7.092Z" transform="translate(8.276 -47.455)"/>
        <path id="Shape_38_" class="cls-12" d="M3.4,290.546c-.34,1.007-.574,1.716-.709,2.128-1.653,3.986-7.908,2.872-14.185,2.128-6.263-1.206-15.142-2.936-14.185-5.674.128-.34.369-1.05.709-2.128Z" transform="translate(25.751 -51.525)"/>
        <path id="Shape_37_" class="cls-4" d="M-16.878,261l9.22,3.546c-.624.475-1.433,2.688-2.837,6.383-2.007,5.305,15.83,7.022,14.185,12.057-1.653,3.986-7.908,2.872-14.185,2.128-6.263-1.206-15.142-2.936-14.185-5.674C-23.764,277.05-21.275,270.944-16.878,261Z" transform="translate(25.46 -43.966)"/>
        <g id="Mask_3_" transform="translate(3.496 107.102)">
          <g id="Shape_36_" transform="translate(0 0)">
            <path id="path-1_1_" class="cls-9" d="M1.67-46Q-24.778,59.993-26.7,68.188c-1.631,7.88,13.639,9.142,14.894,4.255,1.532-3.043,17.022-32.029,34.753-93.62q1.681-6.841,0-24.823Z" transform="translate(26.822 46)"/>
          </g>
          <g id="Shape_35_" transform="translate(16.938 0)">
            <path id="path-3_1_" class="cls-13" d="M23.408-46a4.92,4.92,0,0,1,1.518,2.128c2.277,5.724-2.6,8.319-.709,14.894.546,2.057.759,11.632.78,24.178C17.756,18.6,11.1,36.322,5.9,48.875,3.167,33.967-.38,15.257-2.94.306Q2.092-19.875,8.614-46Z" transform="translate(2.94 46)"/>
          </g>
        </g>
        <path id="Shape_34_" class="cls-9" d="M8.35,127.986c0,12.738,16.2,90.017,16.313,98.585-.113,8.518,14.6,8.518,14.894,0-.291-5.2,2.128-86.372,2.128-98.585A48.865,48.865,0,0,0,36.72,106H16.152A33.641,33.641,0,0,0,8.35,127.986Z" transform="translate(15.836 1.102)"/>
        <path id="Shape_33_" class="cls-14" d="M62.645,22.719c.525-.66-5.511-8.6-5.674-11.348.163-2.419.986-14.156,2.837-10.639C61.34,2.86,63.716,8.7,65.482,13.5c.142,1.348,2.369-4.135,2.837-2.837,1.043,1.418.759,13.291-.709,15.6C66.773,28.9,46.794,61.018,39.95,61.018q-6.883,0-5.674-15.6Z" transform="translate(8.35 31.899)"/>
        <g id="Mask_2_" transform="translate(23.476 61.71)">
          <g id="Shape_32_" transform="translate(0 0)">
            <path id="path-5_1_" class="cls-15" d="M-23.813,5.775c-.05-9.206-2.837-19.476-2.837-30.5q0-10.6,9.22-21.277H-3.954Q5.812-28.276,5.975-17.63c.092,10.6-.163,17.894,0,25.533C5.8,14.853-23.863,14.853-23.813,5.775Z" transform="translate(26.65 46)"/>
          </g>
          <g id="Shape_31_" class="cls-16" transform="translate(11.329 12.698)">
            <path id="path-7_1_" d="M7.265-26.978q3.255,8.447,3.355,14.554.021,2.309.021,4.411c-6.823-.4-13.312-1.1-15.625-2.284-5.227-2.674-7.823-9.965-3.546-14.894,4.915-3.965,11.376-3,14.894-2.128C6.605-27.227,6.91-27.113,7.265-26.978Z" transform="translate(10.677 28.096)"/>
          </g>
        </g>
        <path id="Shape_30_" class="cls-15" d="M61.769,76.54c-5.149,0-29.746-.27-34.753-2.837-5.227-2.674-7.823-9.965-3.546-14.894,4.915-3.965,11.376-3,14.894-2.128q3.606,1.4,23.4,7.8Q67.418,76.536,61.769,76.54Z" transform="translate(12.064 15.668)"/>
        <path id="Shape_29_" class="cls-14" d="M98.727,45.092c.9-.482,4.624-7.092,6.383-7.092,1.851,0-1.567,7.036.709,7.092,1.709-.057,17.8.631,18.44,1.418.539.8-7.114,6.135-8.511,7.092-1.128.6-12.419-3.8-13.476-2.837Q83.539,71.331,78.159,71.334q-5.426,0-.709-12.057Z" transform="translate(-3.617 20.873)"/>
        <g id="Mask_1_" transform="translate(31.203 46.763)">
          <g id="Shape_28_" transform="translate(0.003 0)">
            <path id="path-9_2_" class="cls-14" d="M-25.261-31.128Q-23.059-29-18.169-29q4.266,0,6.383-2.128a21.578,21.578,0,0,1-2.128-8.511c.248-4.9-13.965-7.936-12.766-5.674Q-25.126-42.185-25.261-31.128Z" transform="translate(26.751 46.075)"/>
          </g>
          <path id="Shape_27_" class="cls-17" d="M-26.752-45.5c-.27-1.88,13.071,1.121,12.837,5.865a22.556,22.556,0,0,0,.95,5.525A26.19,26.19,0,0,1-26.752-45.5Z" transform="translate(26.756 46.073)"/>
        </g>
        <path id="Shape_26_" class="cls-14" d="M16.41-19.6c8.277-4.27,19.376,1.262,21.987,11.348,3.7,10.617-.7,24.823-8.511,24.823-7.419,0-17.745-7.561-19.859-15.6C8.317-7.007,8.942-14.8,16.41-19.6Z" transform="translate(15.577 38.043)"/>
        <path id="Shape_25_" class="cls-18" d="M12.2-.279c-1.844-.057-1.319-3.61-4.255-3.546-2.738-.064,5.135,7.483,2.128,9.22C-2.332,13.856-11.3-6.059-6.24-7.371-1.1-8.52-5.191-15.159-4.113-18.719c1.028-4.333,6.837-3.078,9.929-5.674,2.61-2.426-.475-7.944,4.965-10.639,5.66-.773,9.773,4.468,12.057,5.674,2.6,1.766,10.241-3.979,12.766,4.965,3.192,9.6-5.17,11.568-12.057,11.348-6.717.22-13.674-4.667-11.348,1.418C14.477-5.981,14.25-.336,12.2-.279Z" transform="translate(20.497 42.13)"/>
        <path id="Shape_24_" class="cls-14" d="M15.176,11.831C15.027,11.292,13.58,7.4,9.5,9.7c-4.454,2.376-.986,8.277,3.546,9.22C17.51,19.725,15.432,12.384,15.176,11.831Z" transform="translate(16.102 29.311)"/>
      </g>
      <g id="Woman_1_" transform="translate(323.952 81.27)">
        <path id="Shape_23_" class="cls-3" d="M-23.488-16.736,100.211-45.3a3.551,3.551,0,0,1,4.255,2.66l3.192,13.823A3.551,3.551,0,0,1,105-24.559L-18.7,3.995a3.551,3.551,0,0,1-4.255-2.66l-3.192-13.823A3.544,3.544,0,0,1-23.488-16.736Z" transform="translate(26.239 45.389)"/>
        <path id="Shape_22_" class="cls-14" d="M222.442,254.647c-4.192-1.872-2.376-10.014,4.965-7.8,3.163,1.851,6.667,2.95,9.929,4.255,6.085,2.348,1.426,10.986-4.255,7.8C231.832,257.845,227.847,256.7,222.442,254.647Z" transform="translate(-45.423 -39.471)"/>
        <path id="Shape_21_" class="cls-19" d="M252.79,260q1.989,1.362,2.128,2.128c-.227,2.489-6.475,8.447-9.22,13.476-2.759,4.9-7.709,11.532-9.22,10.639l-2.128-2.128Z" transform="translate(-49.529 -43.405)"/>
        <path id="Shape_20_" class="cls-15" d="M239.99,253c7.61,1.972,11.022,3.156,11.348,4.965-.227,2.489-6.475,8.447-9.22,13.476-2.759,4.9-7.709,11.532-9.22,10.639-1.887-1.865-5.568-6.2-2.128-11.348,3.653-5.1,3.83-8.525,4.965-9.929.574-1.433,2.894.348,4.965-3.546C241.43,254.865,241.615,253.894,239.99,253Z" transform="translate(-48.077 -41.37)"/>
        <path id="Shape_19_" class="cls-19" d="M230.284,275.3a1.225,1.225,0,0,1-1.234-1.206,1.2,1.2,0,0,1,1.2-1.22c3.156-.014,5.419.348,7.107,1.766a1.213,1.213,0,1,1-1.56,1.858C234.724,275.579,232.859,275.281,230.284,275.3Z" transform="translate(-47.988 -47.147)"/>
        <path id="Shape_18_" class="cls-19" d="M232.284,269.295a1.225,1.225,0,0,1-1.234-1.206,1.2,1.2,0,0,1,1.2-1.22c.993-.007,1.355,0,1.979.043a8.549,8.549,0,0,1,5.128,1.731,1.213,1.213,0,1,1-1.56,1.858,6.359,6.359,0,0,0-3.709-1.156A14.116,14.116,0,0,0,232.284,269.295Z" transform="translate(-48.57 -45.402)"/>
        <path id="Shape_17_" class="cls-19" d="M235.284,264.3a1.225,1.225,0,0,1-1.234-1.206,1.2,1.2,0,0,1,1.2-1.22c3.234-.021,5.39.326,7.107,1.766a1.213,1.213,0,1,1-1.56,1.858C239.7,264.558,237.93,264.281,235.284,264.3Z" transform="translate(-49.442 -43.949)"/>
        <path id="Shape_16_" class="cls-14" d="M118.329,304.872c-.489,5.716-.312,9.887-.865,11.617-1.255,6.22,8.277,8.064,8.511,1.4.27-3.426.2-7.128,1.007-10.894C129.386,295.829,120.378,280.793,118.329,304.872Z" transform="translate(-15.511 -52.709)"/>
        <path id="Shape_15_" class="cls-19" d="M118.67,341.461v2.688c0,2.185-29.32,2.036-29.32-.4V341Z" transform="translate(-7.37 -66.957)"/>
        <path id="Shape_14_" class="cls-15" d="M117.717,328.224a66.976,66.976,0,0,1,.943,9.4c0,2.213-29.32,2.064-29.32-.411,0-3.7,2.142-8.993,11.348-8.993q8.936,0,8.511-1.227c-.206,2.4,1.213,3.617,4.255,3.681Q117.752,330.586,117.717,328.224Z" transform="translate(-7.367 -62.883)"/>
        <path id="Shape_13_" class="cls-19" d="M100.633,327.938a1.164,1.164,0,0,1,.128-1.653,1.194,1.194,0,0,1,1.667.128,9.147,9.147,0,0,1,2.192,6.305,1.185,1.185,0,0,1-2.369,0A6.809,6.809,0,0,0,100.633,327.938Z" transform="translate(-10.567 -62.597)"/>
        <path id="Shape_12_" class="cls-19" d="M107.633,326.938a1.164,1.164,0,0,1,.128-1.653,1.194,1.194,0,0,1,1.667.128,9.147,9.147,0,0,1,2.192,6.305,1.185,1.185,0,0,1-2.369,0A6.808,6.808,0,0,0,107.633,326.938Z" transform="translate(-12.603 -62.306)"/>
        <path id="Shape_11_" class="cls-19" d="M113.654,326.967a1.161,1.161,0,0,1,.078-1.652,1.194,1.194,0,0,1,1.674.078,8.311,8.311,0,0,1,2.2,5.943,1.185,1.185,0,0,1-2.369,0A6,6,0,0,0,113.654,326.967Z" transform="translate(-14.347 -62.307)"/>
        <path id="Shape_10_" class="cls-14" d="M161.618,227.749q-4.107-4.415,6.766-11.589l6.029,7.4Q165.711,232.153,161.618,227.749Z" transform="translate(-28.055 -30.659)"/>
        <path id="Shape_9_" class="cls-8" d="M145.227,207.595q2.458-5.638,1.872-6.064-.617-.457-4.816,3.7c-5.348-6.787-17.2-32.547-18.986-32.341-1.447-.213.894,31.5.709,41.136.184,8.823.638,43.391-.709,47.519-1.5,4-10.624,3.553-12.057,0-.518-3.135-4.8-42.32-4.965-47.519.163-6.014-5.894-32.427-4.965-46.1,1.837-13.461,6.029-19.341,5.674-26.242.17-7.319,22.887-8.022,22.7.709.284,8.319,10.114,10.738,15.6,24.823,5.844,14.029,10.823,26.838,10.639,28.37.184,1.5,27.426,14.433,34.044,16.313,6.468,1.4,2.837,12.312-2.128,12.057C183.469,224.184,154.284,212.843,145.227,207.595Z" transform="translate(-10.819 -7.355)"/>
        <path id="Shape_8_" class="cls-20" d="M113.932,309.052a31.194,31.194,0,0,0,6.639.766,26.166,26.166,0,0,0,5.9-.681,2.129,2.129,0,0,1,2.553,1.6,2.188,2.188,0,0,1,.057.482v2.7a2.126,2.126,0,0,1-1.567,2.05,26.243,26.243,0,0,1-6.943.943,32.013,32.013,0,0,1-7.6-.986,2.131,2.131,0,0,1-1.624-2.064v-2.723a2.125,2.125,0,0,1,2.128-2.128A1.641,1.641,0,0,1,113.932,309.052Z" transform="translate(-13.766 -57.655)"/>
        <path id="Shape_7_" class="cls-20" d="M219.664,254.251a31.533,31.533,0,0,0,3.3-5.809,26.452,26.452,0,0,0,1.681-5.7,2.131,2.131,0,0,1,2.922-1.589l2.489,1.057a2.13,2.13,0,0,1,1.277,2.248,26.238,26.238,0,0,1-1.844,6.759,32.11,32.11,0,0,1-3.88,6.61,2.129,2.129,0,0,1-2.539.688l-2.511-1.064a2.122,2.122,0,0,1-1.128-2.787A2.5,2.5,0,0,1,219.664,254.251Z" transform="translate(-45.142 -37.876)"/>
        <path id="Shape_6_" class="cls-14" d="M42.8,23.535c-.787-4.213-1.553-7.22-2.305-7.759-2.142-2.419-4.979-1.553-9.929,0-4.617.95-9.22-6.021-9.22-7.8,0-1.44,8.6,1.348,12.766,1.418,6.936-.071-1.028-4.291,0-5.674C35.8.776,42.1,8.145,44.046,10.1c.582.837,2.106,5.716,3.936,11.781C51.1,32.216,44.634,33.387,42.8,23.535Z" transform="translate(12.402 31.31)"/>
        <path id="Shape_5_" class="cls-14" d="M106.492,4.354c-3.326-5.227-6.383-8.929-8.085-8.908-3.794-.057-7.823-6.014-7.092-7.092,1.667-1.865,4.88,3.624,7.092,2.837,2.036-.362,2.248-1.489,4.965-9.22,2.8-7.9,8.326-5.716,7.092,2.128-.652,7.915-7.525,6.348-4.965,11.348a65.8,65.8,0,0,0,5.653,6.844C119.138,11.22,113.294,15.029,106.492,4.354Z" transform="translate(-7.916 38.873)"/>
        <path id="Shape_4_" class="cls-9" d="M46.466,24.95l-.709-1.418a3.01,3.01,0,0,1,2.128-2.837l3.546-.709A1.845,1.845,0,0,1,53.559,21.4l.709,2.837A3.532,3.532,0,0,1,56.4,27.078c3.426,10.277,5.305,24.008,7.092,26.951,1.291,3.163,9.6,9.518,24.823,19.15l-4.255,18.44c-19.447-14.2-29.88-24.561-31.207-31.207-1.9-6.9-6.638-21.894-8.511-31.916C44.133,27.383,45.069,26.142,46.466,24.95Z" transform="translate(5.726 26.391)"/>
        <path id="Shape_3_" class="cls-9" d="M108.491,12.816l-1.418-2.128a1.814,1.814,0,0,1,0-2.837l2.837-2.128c1.036-.979,2.39-.816,2.837,0l2.128,2.128a6.32,6.32,0,0,1,2.837.709c8,9.263,19.4,24.859,21.277,30.5q2.83,7.745-7.092,42.555L119.839,65.3c3.929-9.355,5.837-16.22,5.674-20.568.163-4.638-10-17.4-17.022-28.37A3.168,3.168,0,0,1,108.491,12.816Z" transform="translate(-12.326 30.723)"/>
        <path id="Shape_2_" class="cls-9" d="M104.605,93.546q-4.255,12.032-4.255,17.731c0,6.334,7.213,8.809,6.383,15.6-1.8,8.036,22.6,7.128,22.7,0-.1-4.014,1.213-14.774.709-20.568q-.936-5.8-12.057-16.313Z" transform="translate(-10.568 6.023)"/>
        <path id="Shape_1_" class="cls-3" d="M90.939,29.981C85.1,40.442,68.328,43.8,76.044,51.967c7.39,7.865,13.114,17.781,6.383,23.4-6.546,5.631-19.44,26.214-6.383,33.334,12.731,6.816,24.412-4.4,32.625-4.255,8.44-.149,27.66,10.568,27.66,0,0-10.866-18.7-20.568-11.348-27.66,7.979-6.525.426-14.27-5.674-17.731-5.412-4.028,6.1-13.369,0-21.987C113.9,28,96.882,19.3,90.939,29.981Z" transform="translate(-1.866 24.906)"/>
      </g>
    </g>
  </g>
</svg>
