<svg xmlns="http://www.w3.org/2000/svg" viewBox="0 0 295.002 295.002" width="100%" height="100%"  xmlns:xlink="http://www.w3.org/1999/xlink">
<rect id="svgEditorBackground" x="0" y="0" width="295.00201416015625" height="295.00201416015625" style="fill:none;stroke:white;"/>
  <defs id="svgEditorDefs"><linearGradient gradientUnits="objectBoundingBox" id="lgrd2-peachpuff-sienna-h" spreadMethod="pad" x1="0%" x2="1.2%" y1="0%" y2="100%"><stop offset="0.28" style="stop-color: rgb(254, 254, 255); stop-opacity: 1;"/><stop offset="0.745455" style="stop-color: rgb(255, 255, 255); stop-opacity: 1;"/></linearGradient></defs>
  <defs>
    <style>
      .cls-1 {
        fill: #fbfbfe ;
      }
    </style>
  </defs>
  <path id="Subtraction_1" data-name="Subtraction 1" class="cls-1" d="M-8726.5,7093l-147.5,0v-146.83200000000033a148.687,148.687,0,0,0,3,29.059000000000196a146.682,146.682,0,0,0,8.594999999999345,27.686999999999898a147.5,147.5,0,0,0,13.600000000000364,25.05500000000029a148.508,148.508,0,0,0,18.012000000000626,21.829999999999927a148.608,148.608,0,0,0,21.828999999999724,18.01000000000022a147.491,147.491,0,0,0,25.05500000000029,13.600000000000364a146.746,146.746,0,0,0,27.688000000000102,8.595000000000255a148.6,148.6,0,0,0,29.726000000000568,3h0ZM-8579,7093h-147.45999999999913a30.506,30.506,0,0,0,8.192999999999302,-1.0720000000001164a25.341,25.341,0,0,0,6.8070000000006985,-3.037999999999556a32.569,32.569,0,0,0,10.170000000000073,-10.918999999999869a78.923,78.923,0,0,0,6.9650000000001455,-15.61200000000008c1.9729999999999563,-5.75,3.649999999999636,-11.792000000000371,5.425999999999476,-18.188000000000102l0,-0.005000000000109139h0c4.753000000000611,-17.115999999999985,9.666999999999462,-34.814000000000306,20.427999999999884,-45.86700000000019a48.6,48.6,0,0,1,9.837999999999738,-7.699999999999818a74.845,74.845,0,0,1,11.54700000000048,-5.600000000000364c8.104999999999563,-3.1760000000003856,16.85699999999997,-5.38799999999992,25.322000000000116,-7.52599999999984h0.0059999999994033715c11.27599999999984,-2.84900000000016,21.924999999999272,-5.539999999999964,29.799999999999272,-10.176000000000386a26.942,26.942,0,0,0,9.433000000000902,-8.666000000000167a21.736,21.736,0,0,0,2.6049999999995634,-5.9080000000003565a27.029,27.029,0,0,0,0.9140000000006694,-6.858000000000175l0,147.14099999999962ZM-8874,6944.867h0v-146.8670000000002h146.89500000000044a130.658,130.658,0,0,0,-26.906999999999243,3a144.6,144.6,0,0,0,-26.647000000000844,8.595000000000255a156.43,156.43,0,0,0,-24.91899999999987,13.600000000000364a161.788,161.788,0,0,0,-22.326999999999316,18.011000000000422a159.279,159.279,0,0,0,-18.869000000000597,21.829999999999927a150.977,150.977,0,0,0,-14.549000000000888,25.05500000000029a141.451,141.451,0,0,0,-9.36199999999917,27.686999999999898a135.642,135.642,0,0,0,-3.3150000000005093,29.089999999999236ZM-8579,6944.839h0a119.223,119.223,0,0,0,-3.311999999999898,-26.850999999999658a139.774,139.774,0,0,0,-9.36199999999917,-26.64800000000014a160.747,160.747,0,0,0,-14.549000000000888,-24.91899999999987a174.024,174.024,0,0,0,-18.8700000000008,-22.327000000000226a174.012,174.012,0,0,0,-22.325999999999112,-18.86999999999989a160.837,160.837,0,0,0,-24.91899999999987,-14.547999999999774a139.8,139.8,0,0,0,-26.648999999999432,-9.363000000000284a119.264,119.264,0,0,0,-26.939000000000306,-3.311999999999898h146.92599999999948Z" transform="translate(8874.001 -6798)" style="fill:url(#lgrd2-peachpuff-sienna-h);"/>
</svg>