<svg xmlns="http://www.w3.org/2000/svg" viewBox="0 0 466.234 420">
  <defs>
    <style>
      .cls-1 {
        fill: #f2f5f9;
      }

      .cls-2, .cls-9 {
        fill: #37456c;
      }

      .cls-3 {
        fill: #e7eaf4;
      }

      .cls-4 {
        fill: #1abffe;
      }

      .cls-5 {
        fill: #fff;
      }

      .cls-6 {
        fill: #ffb17a;
      }

      .cls-7 {
        opacity: 0.1;
      }

      .cls-10, .cls-8 {
        fill: #f0f3f7;
      }

      .cls-9 {
        opacity: 0.4;
      }

      .cls-10 {
        opacity: 0.5;
      }

      .cls-11 {
        fill: #24ca6c;
      }

      .cls-12 {
        fill: #47df89;
      }

      .cls-13 {
        fill: #ffcf00;
      }

      .cls-14 {
        fill: #303c5e;
        font-size: 21px;
        font-family: ArialMT, Arial;
      }
    </style>
  </defs>
  <g id="_x30_7_1_" transform="translate(0)">
    <g id="_x30_7_x5F_Illustration_1_">
      <path id="Shape_27_" class="cls-1" d="M92.2,301.232C-53.126,256.483-20.453,84.769,146.651,111.906c167.053,27.079,260.426,96.919,289.7,161.036,28.723,63.493,9.134,176.995-113.266,176.995C200.649,449.937,236.9,345.836,92.2,301.232Z" transform="translate(0 -29.937)"/>
      <g id="iPhone_2_" transform="translate(99.456)">
        <path id="Shape_21_" class="cls-2" d="M30.163,0H167.288A30.207,30.207,0,0,1,197.47,30.234V368a30.207,30.207,0,0,1-30.183,30.234H30.163A30.207,30.207,0,0,1-.02,368V30.234A30.207,30.207,0,0,1,30.163,0Z" transform="translate(0.02)"/>
        <path id="Shape_20_" class="cls-3" d="M52.376,16a2.29,2.29,0,0,1,2.592,2.59c0,7.87,5.155,11.215,12.953,11.215h71.656c8.335,0,12.953-3.344,12.953-11.215A2.29,2.29,0,0,1,155.121,16h18.13a17.262,17.262,0,0,1,17.266,17.257V372.318a17.262,17.262,0,0,1-17.266,17.257H34.246A17.262,17.262,0,0,1,16.98,372.318V33.257A17.262,17.262,0,0,1,34.246,16Z" transform="translate(-4.637 -4.394)"/>
      </g>
      <g id="Man_1_" transform="translate(111.8 49.326)">
        <path id="Combined-Shape_1_" class="cls-4" d="M173.51,323.2v79.43a17.262,17.262,0,0,1-17.266,17.257h-139A17.262,17.262,0,0,1-.02,402.629V315.14A226.063,226.063,0,0,1,34.105,306h79.867Q155.238,312.964,173.51,323.2Z" transform="translate(0.02 -84.031)"/>
        <ellipse id="Oval_11_" class="cls-5" cx="14.158" cy="14.145" rx="14.158" ry="14.145" transform="translate(7.261 293.057)"/>
        <ellipse id="Oval_10_" class="cls-5" cx="14.158" cy="14.145" rx="14.158" ry="14.145" transform="translate(50.825 293.057)"/>
        <ellipse id="Oval_9_" class="cls-5" cx="14.158" cy="14.145" rx="14.158" ry="14.145" transform="translate(94.389 293.057)"/>
        <ellipse id="Oval_8_" class="cls-5" cx="14.158" cy="14.145" rx="14.158" ry="14.145" transform="translate(137.953 293.057)"/>
        <g id="Mask_2_" transform="translate(34.125 153.811)">
          <g id="Shape_19_" transform="translate(0 0)">
            <path id="path-1_1_" class="cls-6" d="M14.5,21.047c-4.821-26.738,69.332-29.255,62.442,0q-6.458,29.019,2.9,47.15Q75.317,89.959,44.27,89.959T-.02,68.2Q19.017,47.556,14.5,21.047Z" transform="translate(0.02 -0.039)"/>
          </g>
          <g id="Shape_18_" transform="translate(13.919 0)">
            <path id="path-3_1_" class="cls-7" d="M80.285,52.979a40.207,40.207,0,0,1-22.777,7.239c-13.773,0-27.38-5.825-38.358-16.923a54.221,54.221,0,0,0,.6-22.248c-4.821-26.738,69.332-29.255,62.442,0Q78.165,39.131,80.285,52.979Z" transform="translate(-19.15 -0.039)"/>
          </g>
        </g>
        <path id="Shape_17_" class="cls-8" d="M171.538,150.955l30.2,12.194-1.452,7.254-36.3-18.86h0A8.5,8.5,0,0,1,171.538,150.955Z" transform="translate(-44.905 -41.283)"/>
        <ellipse id="Oval_7_" class="cls-2" cx="32.673" cy="32.642" rx="32.673" ry="32.642" transform="translate(100.197 54.404)"/>
        <ellipse id="Oval_6_" class="cls-2" cx="25.412" cy="25.389" rx="25.412" ry="25.389" transform="translate(15.247 114.611)"/>
        <ellipse id="Oval_5_" class="cls-2" cx="32.673" cy="32.642" rx="32.673" ry="32.642" transform="translate(4.356 76.166)"/>
        <g id="Mask_1_" transform="translate(30.495 50.052)">
          <g id="Shape_16_" transform="translate(0.726)">
            <path id="path-5_2_" class="cls-6" d="M-.02,63.834C-.02,45.235,4.373,0,60.244,0c54.513,0,61.541,26.085,58.085,69.637C115.926,113.668,93,149.43,62.422,149.43,30.758,149.43-.02,118.637-.02,63.834Z" transform="translate(0.02)"/>
          </g>
          <path id="Shape_15_" class="cls-9" d="M-.86,76.986C2.763,73.17,7.99,70.392,15.164,69c2.127-.384.225,52.692,19.865,59.917,19.713,6.92,22.646-11.933,46.352-11.693,15.4-.16,21.695,8.03,28.019,13.5-9.983,23.017-26.908,38.38-47.144,38.38-32.085,0-63.277-31.018-63.277-86.22,0-1.755.036-3.736.16-5.9Z" transform="translate(1.02 -18.947)"/>
        </g>
        <path id="Shape_14_" class="cls-5" d="M145.413,165l11.668.769a1.525,1.525,0,0,1,1.43,1.523h0a1.336,1.336,0,0,1-1.336,1.335h-.087l-11.668-.769a1.525,1.525,0,0,1-1.43-1.523h0A1.336,1.336,0,0,1,145.326,165Z" transform="translate(-39.429 -45.311)"/>
        <path id="Shape_13_" class="cls-2" d="M37.07,38.482a31.61,31.61,0,0,1,48.857-19.9A42.44,42.44,0,1,1,88,69.079a31.468,31.468,0,0,1-17.048,6.956A32.674,32.674,0,1,1,37.07,38.482Z" transform="translate(-1.624)"/>
        <path id="Shape_12_" class="cls-5" d="M51.538,139.955l30.2,12.194L80.283,159.4l-36.3-18.86h0A8.5,8.5,0,0,1,51.538,139.955Z" transform="translate(-12.033 -38.263)"/>
        <path id="Shape_11_" class="cls-6" d="M51.66,153.559c0-13.093-12.525-21.044-21.049-11.077s-.791,37.59,10.463,37.59S51.66,166.659,51.66,153.559Z" transform="translate(-7.378 -37.896)"/>
        <ellipse id="Oval_4_" class="cls-10" cx="18.152" cy="18.135" rx="18.152" ry="18.135" transform="translate(118.349 108.808)"/>
        <ellipse id="Oval_3_" class="cls-10" cx="18.152" cy="18.135" rx="18.152" ry="18.135" transform="translate(68.25 105.907)"/>
        <path id="Oval_2_" class="cls-5" d="M180.036,184.837a17.8,17.8,0,1,0-17.818-17.8A17.812,17.812,0,0,0,180.036,184.837Zm0,3.235a21.036,21.036,0,1,1,21.056-21.036A21.043,21.043,0,0,1,180.036,188.073Z" transform="translate(-43.535 -40.093)"/>
        <path id="Oval_1_" class="cls-5" d="M111.036,180.837a17.8,17.8,0,1,0-17.818-17.8A17.812,17.812,0,0,0,111.036,180.837Zm0,3.235a21.036,21.036,0,1,1,21.056-21.036A21.043,21.043,0,0,1,111.036,184.073Z" transform="translate(-24.634 -38.995)"/>
      </g>
      <g id="Flowers_2_" transform="translate(41.206 211.8)">
        <path id="Shape_10_" class="cls-11" d="M54.358,128.389c-16.533-18.918-32.041-11.606-34.416-23.619-2.752-12.034,9.141-12.876,9.388-22.407-.247-9.3-24.606-7.326-26.908-16.96-2.57-9.6,6.31-11.809,15.639-15.139C27.915,46.906-2.747,29.671-.082,12.109,2.982-4.843,26.572-4.735,30.58,16.954c4.327,21.058,8.132,27.666,13.766,18.773,5.9-8.356,21.942-5.245,15.015,19.382-6.76,24.634,12.227,14.45,16.9,27.253C80.482,95.391,66.549,98.118,54.358,128.389Z" transform="translate(0.247 0.019)"/>
        <path id="Shape_9_" class="cls-12" d="M78.178,141.444C65.392,122.5,67.3,116.215,71.636,111.406c4.3-4.78,6.825-3.721,8.829-7.551s-8.023-11.882-4.414-17.4c3.58-5.353,12.713,4.084,12.757-2.133C88.764,78,80.16,76.283,77.357,65.445,74.642,54.739,92.663,49.363,97.15,64.3c4.414,14.921-2.759,21.29,2.781,22.161,5.518,1.037,11.784-2.118,12.43,4.759.581,6.913-15.247,11.04-15.211,17.4C97.114,114.873,112.346,128.692,78.178,141.444Z" transform="translate(-18.548 -15.119)"/>
        <path id="Shape_8_" class="cls-13" d="M58.2,165h28a2.174,2.174,0,0,1,2.178,2.176,2.235,2.235,0,0,1-.145.783L83.6,179.994a.743.743,0,0,0-.015.486l15.748,48.412a2.174,2.174,0,0,1-1.4,2.742,2.123,2.123,0,0,1-.675.109H47.138a2.174,2.174,0,0,1-2.178-2.176,2.151,2.151,0,0,1,.109-.675L60.817,180.48a.744.744,0,0,0-.015-.486L56.17,167.96A2.176,2.176,0,0,1,58.2,165Z" transform="translate(-12.137 -45.297)"/>
      </g>
      <g id="Woman_1_" transform="translate(248.3 236.376)">
        <path id="Shape_7_" class="cls-13" d="M34.544,202c-6.585,0-10.971,3.388-9.141,9.459s22.087,8.792,30.858,4.526S41.129,202,34.544,202Z" transform="translate(-6.83 -55.371)"/>
        <path id="Shape_6_" class="cls-13" d="M167.449,193c2.839.007,14.521-.479,14.521,7.979,0,7.74-14.652,7.247-14.521,7.254C167.318,208.225,164.349,193.006,167.449,193Z" transform="translate(-45.47 -52.898)"/>
        <path id="Shape_5_" class="cls-2" d="M130.929,195.964c-.508,9.836-14.688,18.149-20.286,18.149H70.709c-16.736,0-53.729-22.763-53.729-42.8,0-3.264,1.975-5.4,5.082-6.529,10.709-2.249,25.572,2.329,42.838,12.332a56.879,56.879,0,0,0,21.085,6.971c21.165-13.122,53.7-24.939,53.7-10.6C139.685,181.355,136.026,189.255,130.929,195.964Z" transform="translate(-4.637 -44.997)"/>
        <path id="Shape_4_" class="cls-6" d="M13.775,106.192C10.181,99.9-.02,94.919-.02,88.057-.02,81.224,2.151,75,4.336,75c2.607,0,6.527,11.911,7.987,13.057,1.423,1.182,1.067-7.682,3.63-5.8,2.715,1.458,1.517,18.918,4.356,22.487C22.51,107.788,17.921,113.076,13.775,106.192Z" transform="translate(0.02 -20.495)"/>
        <path id="Shape_3_" class="cls-13" d="M19.433,111.84c.566-.334-2.941-1.538,0-4.352l5.082-2.176q4.149-2.176,3.63,3.627c.392-.116,1,.232,1.452.725,2.352,3.083,7.449,14.617,7.261,13.782.189-.754,18.42-47.658,22.508-46.425,4.342,2.1,4.356,21.4,4.356,31.192,0,9.916-18.892,34.093-31.947,34.093-12.67,0-9.01-18.323-13.069-25.389C17.465,114.988,17.894,113.319,19.433,111.84Z" transform="translate(-4.912 -21.043)"/>
        <path id="Shape_2_" class="cls-13" d="M83.145,151.715c0,12.636,53.838,20.064,53.838,0q0-20.064-17.919-71.444L72.98,77Q83.141,139.075,83.145,151.715Z" transform="translate(-19.977 -21.044)"/>
        <path id="Shape_1_" class="cls-5" d="M78.722,79.871c8.219-10.293-24.011-14.82-16.017-28.66,6.883-14.544.2-31.17,7.21-40.825C73.3,5.475,79.47,4.053,84.334,4.307c4.836-5.361,21.259-7.631,29.631,3.475,9.1,11.36,2.244,19.752,12.815,26.926,11.181,7.355,16.264,20.927,8.009,32.135-8.822,11.425-5.743,17.366,0,28.66,5.119,10.46,2.185,36.48-29.631,36.48-17.055,0-39.527-13.514-42.446-26.056C59.256,94.611,74.2,84.419,78.722,79.871Z" transform="translate(-16.81 0.139)"/>
      </g>
      <g id="Group_1933" data-name="Group 1933" transform="translate(323.041 140)">
        <path id="Path_1369" data-name="Path 1369" class="cls-3" d="M188.709,0H135.684C110.709,0,90.6,18.828,90.6,41.882V56.227c0,23.182,20.237,41.882,45.084,41.882h-.359v11.015L149.8,98.109h38.911c24.976,0,45.084-18.828,45.084-41.882V41.882C233.793,18.828,213.557,0,188.709,0Z" transform="translate(-90.6)"/>
        <g id="Group" transform="translate(10.864 28.309)">
          <text id="HELLO" class="cls-14" transform="translate(22.286 16)"><tspan x="0" y="0">HELLO</tspan></text>
          <text id="MY_FRIEND_" data-name="MY FRIEND!" class="cls-14" transform="translate(0 38.542)"><tspan x="0" y="0">MY FRIEND!</tspan></text>
        </g>
      </g>
    </g>
  </g>
</svg>
