<svg xmlns="http://www.w3.org/2000/svg" viewBox="0 0 58.666 58.378">
  <defs>
    <style>
      .cls-1 {
        fill: #1abffe;
      }

      .cls-2 {
        fill: #a1deff;
      }
    </style>
  </defs>
  <g id="Group_1758" data-name="Group 1758" transform="translate(-0.522)">
    <path id="Path_2592" data-name="Path 2592" class="cls-1" d="M54.189,22.453a25.018,25.018,0,0,0-2.333-5.821l2-4.657-7-6.819-4.667,2a22.513,22.513,0,0,0-5.833-2.329L34.689,0H24.855L23.022,4.823a25.131,25.131,0,0,0-5.833,2.329l-4.667-2L5.689,11.975l2,4.657a22.412,22.412,0,0,0-2.333,5.821L.522,24.283V34.1l4.833,1.83a25.018,25.018,0,0,0,2.333,5.821l-2,4.657,7,6.819,4.667-2a22.513,22.513,0,0,0,5.833,2.329l1.833,4.823h9.667l1.833-4.823a25.131,25.131,0,0,0,5.833-2.329l4.667,2,7-6.819-2-4.657a22.412,22.412,0,0,0,2.333-5.821l4.833-1.83V24.283Zm-24.5,18.628a11.975,11.975,0,1,1,12-11.975A11.938,11.938,0,0,1,29.689,41.081Z"/>
    <g id="Group_1430" data-name="Group 1430" transform="translate(11.772 11.227)">
      <path id="Path_2593" data-name="Path 2593" class="cls-2" d="M125.134,124.568a11.888,11.888,0,0,1-16.833,0l-4.333,4.324a18.012,18.012,0,0,0,25.5-25.447l-4.333,4.324A11.828,11.828,0,0,1,125.134,124.568Z" transform="translate(-98.717 -98.206)"/>
      <path id="Path_2594" data-name="Path 2594" class="cls-2" d="M76.3,75.77a18.042,18.042,0,0,0,0,25.447l4.333-4.324a11.891,11.891,0,0,1,16.833-16.8L101.8,75.77A18.134,18.134,0,0,0,76.3,75.77Z" transform="translate(-71.053 -70.531)"/>
    </g>
  </g>
</svg>
