<svg xmlns="http://www.w3.org/2000/svg" viewBox="0 0 26.5 26.445">
  <defs>
    <style>
      .cls-1 {
        fill: #ff8820;
      }
    </style>
  </defs>
  <path id="Path_2596" data-name="Path 2596" class="cls-1" d="M360.767,214.212a8.056,8.056,0,0,0,0-2.827l1.667-1.663-1.667-4.158h-2.333a22.606,22.606,0,0,0-2-2v-2.329l-4.167-1.663-1.667,1.663a8.105,8.105,0,0,0-2.833,0l-1.667-1.663-4.167,1.663v2.329a22.6,22.6,0,0,0-2,2H337.6l-1.667,4.158,1.667,1.663a8.057,8.057,0,0,0,0,2.827l-1.667,1.663,1.667,4.158h2.333a22.6,22.6,0,0,0,2,2v2.329l4.167,1.663,1.667-1.663a8.106,8.106,0,0,0,2.833,0l1.667,1.663,4.167-1.663v-2.329a22.6,22.6,0,0,0,2-2h2.333l1.667-4.158Zm-13.5,3.659a5.376,5.376,0,1,1,7-2.994A5.223,5.223,0,0,1,347.267,217.871Z" transform="translate(-335.934 -199.576)"/>
</svg>
