<svg xmlns="http://www.w3.org/2000/svg" viewBox="0 0 26.5 26.445">
  <defs>
    <style>
      .cls-1 {
        fill: #46debf;
      }
    </style>
  </defs>
  <path id="Path_2595" data-name="Path 2595" class="cls-1" d="M223.886,351.093a8.056,8.056,0,0,0,0-2.827l1.667-1.663-1.667-4.158h-2.333a22.6,22.6,0,0,0-2-2V338.12l-4.167-1.663-1.667,1.663a8.105,8.105,0,0,0-2.833,0l-1.667-1.663-4.167,1.663v2.329a22.611,22.611,0,0,0-2,2H200.72l-1.667,4.158,1.667,1.663a8.056,8.056,0,0,0,0,2.827l-1.667,1.663,1.667,4.158h2.333a22.6,22.6,0,0,0,2,2v2.329l4.167,1.663,1.667-1.663a8.105,8.105,0,0,0,2.833,0l1.667,1.663,4.167-1.663V358.91a22.606,22.606,0,0,0,2-2h2.333l1.667-4.158Zm-13.333,3.493a5.376,5.376,0,1,1,7-2.994A5.315,5.315,0,0,1,210.553,354.586Z" transform="translate(-199.053 -336.457)"/>
</svg>
