<svg xmlns="http://www.w3.org/2000/svg" viewBox="0 0 48.294 78.492">
  <defs>
    <style>
      .cls-1 {
        fill: #e3e0d6;
      }

      .cls-2 {
        fill: #ffbb80;
      }

      .cls-3 {
        fill: #f7f5ef;
      }
    </style>
  </defs>
  <g id="Arm" transform="translate(-109.143 -11.187)">
    <path id="Path_1354" data-name="Path 1354" class="cls-1" d="M177.6,113.467l14.729,6.02,1.153-6.148L181.058,108.6Z" transform="translate(-50.511 -76.472)"/>
    <path id="Path_1405" data-name="Path 1405" class="cls-2" d="M355.733,163.091s-4,11.49-1.915,13.715,3.708-6.877,4.867-4.45,2.55,10.72,5.331,11.934c2.781,1.416,10.187-10.693.915-24.852Z" transform="translate(296.539 395.439) rotate(-138)"/>
    <path id="Path_3534" data-name="Path 3534" class="cls-3" d="M128,85.618c-8.807,9.238-19.6,1.629-18.814-11.89.318-5.5,5.891-10.577,9.7-17.2A171.479,171.479,0,0,0,128,37.685l13.287,5.232s-2.88,13.734-6.634,26.344C132.7,75.826,131.133,82.329,128,85.618Z"/>
  </g>
</svg>
