<svg xmlns="http://www.w3.org/2000/svg" xmlns:xlink="http://www.w3.org/1999/xlink" viewBox="0 0 124.406 290.245">
  <defs>
    <style>
      .cls-1 {
        fill: #f7bc18;
      }

      .cls-2 {
        fill: #f7f5ef;
      }

      .cls-3 {
        fill: #303c5e;
      }

      .cls-4 {
        fill: #ffbb80;
      }

      .cls-5 {
        clip-path: url(#clip-path);
      }

      .cls-6 {
        fill: url(#linear-gradient);
      }

      .cls-7 {
        fill: none;
        stroke: #212b4a;
        stroke-miterlimit: 10;
        stroke-width: 2px;
      }

      .cls-8 {
        fill: #e3e0d6;
      }
    </style>
    <clipPath id="clip-path">
      <path id="Path_1350" data-name="Path 1350" d="M156.337,108.215a19.379,19.379,0,1,1-13.32-23.951A19.33,19.33,0,0,1,156.337,108.215Z" transform="translate(-118.308 -83.516)"/>
    </clipPath>
    <linearGradient id="linear-gradient" x1="0.5" x2="0.5" y2="1" gradientUnits="objectBoundingBox">
      <stop offset="0" stop-color="#e3e0d6"/>
      <stop offset="1" stop-color="#e3e0d6" stop-opacity="0"/>
    </linearGradient>
  </defs>
  <g id="Man" transform="translate(0 0)">
    <path id="Path_1343" data-name="Path 1343" class="cls-1" d="M112.759,288.092c-.64,5.251-1.153,11.143-5,14.985a23.971,23.971,0,0,1-5.123,3.458c-3.33,1.793-6.66,3.714-9.99,5.507-.9.512-2.049,1.153-2.049,2.305-.128,1.537,1.665,2.434,3.074,2.562,2.946.256,5.892-.9,8.581-2.177l9.99-4.355A8.081,8.081,0,0,0,116.858,305a61.075,61.075,0,0,0,1.921-9.862,14.469,14.469,0,0,0,0-5.251,5.367,5.367,0,0,0-2.946-3.842C114.424,285.4,113.015,286.426,112.759,288.092Z" transform="translate(-74.942 -26.7)"/>
    <path id="Path_1344" data-name="Path 1344" class="cls-1" d="M159.573,287.192c.64,5.251,1.153,11.143,5,14.985a23.971,23.971,0,0,0,5.123,3.458c3.33,1.793,6.66,3.714,9.99,5.507.9.512,2.049,1.153,2.049,2.305.128,1.537-1.665,2.434-3.074,2.562-2.946.256-5.892-.9-8.581-2.177l-9.99-4.355a8.081,8.081,0,0,1-4.611-5.379,61.075,61.075,0,0,1-1.921-9.862,14.469,14.469,0,0,1,0-5.251,5.367,5.367,0,0,1,2.946-3.842C157.908,284.5,159.317,285.526,159.573,287.192Z" transform="translate(-57.331 -26.953)"/>
    <path id="Path_1345" data-name="Path 1345" class="cls-2" d="M181.64,195.666,178.182,159.8l11.783,5.123c8.325,3.586,17.8-1.025,1.665-23.182l-13.7-16.266a16.947,16.947,0,0,0-15.626-8.453l-39.577,2.049a19.72,19.72,0,0,0-11.911,4.867L82.89,148.789A13.365,13.365,0,0,0,86.733,171.2l35.094,14.345,2.305,32.532,58.148-8.709Zm-73.9-38.552,8.325-9.478,3.586,17.8Z" transform="translate(-78.374 -76.444)"/>
    <path id="Path_1346" data-name="Path 1346" class="cls-3" d="M115.124,178.905l59.685-2.305L176.6,325.685l-16.01.64L149.962,197.861H139.331L116.789,325.173H102.7Z" transform="translate(-71.543 -57.378)"/>
    <path id="Path_1347" data-name="Path 1347" class="cls-4" d="M155.884,108.692c-1.441,5.073-.014,10.272-4.485,12.843-4.125,2.378-13.776,1.505-19.012,0a19.379,19.379,0,0,1,10.631-37.271C153.392,87.21,158.83,98.446,155.884,108.692Z" transform="translate(-67.16 -83.516)"/>
    <path id="Path_1348" data-name="Path 1348" class="cls-4" d="M134.244,131.423h0a7.024,7.024,0,0,1-7.044-7.044V100.3h13.961v24.079A6.917,6.917,0,0,1,134.244,131.423Z" transform="translate(-64.663 -78.803)"/>
    <g id="Group_687" data-name="Group 687" transform="translate(51.148)">
      <g id="Group_686" data-name="Group 686" class="cls-5">
        <path id="Path_1349" data-name="Path 1349" class="cls-3" d="M151.914,84.427c-3.714-4.483-12.808-3.842-19.084-3.586a19.449,19.449,0,0,0-6.532,37.527c5-4.611,8.325-12.936,8.2-22.158C140.259,95.442,148.712,88.782,151.914,84.427Z" transform="translate(-119.521 -84.319)"/>
      </g>
    </g>
    <path id="Path_1351" data-name="Path 1351" class="cls-4" d="M133.716,103.161a6.325,6.325,0,1,1-4.355-7.813A6.383,6.383,0,0,1,133.716,103.161Z" transform="translate(-66.312 -80.255)"/>
    <path id="Path_1353" data-name="Path 1353" class="cls-6" d="M150.881,116.512A3.836,3.836,0,0,0,149.6,116l8.453,41.626,11.783,5.123a15.485,15.485,0,0,0,3.2,1.025Z" transform="translate(-58.373 -74.394)"/>
    <line id="Line_51" data-name="Line 51" class="cls-7" x1="9.606" y2="11.271" transform="translate(45.886 130.365)"/>
    <line id="Line_52" data-name="Line 52" class="cls-7" x1="10.246" y1="10.887" transform="translate(88.537 128.572)"/>
    <path id="Path_1355" data-name="Path 1355" class="cls-8" d="M118.831,156.8,108.2,170.248l5.123,2.305,10.246-13.32Z" transform="translate(-69.998 -62.937)"/>
    <path id="Path_1404" data-name="Path 1404" class="cls-4" d="M293.326,129.036s-.826-11.649-3.487-13.487-3.07,5.515-3.07,5.515-11.461-12.46-16.372-6.945,8.288,17.126,13.2,21.824Z" transform="translate(363.062 145.265) rotate(163)"/>
  </g>
</svg>
