<svg id="Group_685" data-name="Group 685" xmlns="http://www.w3.org/2000/svg" xmlns:xlink="http://www.w3.org/1999/xlink" viewBox="0 0 482.093 407.294">
  <defs>
    <style>
      .cls-1 {
        fill: #fbfbfe;
      }

      .cls-2 {
        fill: #ffbb80;
      }

      .cls-15, .cls-16, .cls-3 {
        fill: #303c5e;
      }

      .cls-4 {
        fill: #f7f5ef;
      }

      .cls-5 {
        fill: #212b4a;
      }

      .cls-6 {
        fill: #ffba80;
      }

      .cls-7 {
        fill: url(#linear-gradient);
      }

      .cls-20, .cls-23, .cls-8 {
        fill: none;
        stroke-miterlimit: 10;
      }

      .cls-8 {
        stroke: #212b4a;
        stroke-width: 2px;
      }

      .cls-13, .cls-9 {
        fill: #f7bc18;
      }

      .cls-10 {
        clip-path: url(#clip-path);
      }

      .cls-11 {
        fill: url(#linear-gradient-2);
      }

      .cls-12 {
        fill: #e3e0d6;
      }

      .cls-13, .cls-16 {
        font-size: 21px;
        font-family: ArialMT, Arial;
      }

      .cls-14 {
        clip-path: url(#clip-path-2);
      }

      .cls-15 {
        opacity: 0.096;
      }

      .cls-17 {
        fill: #273353;
      }

      .cls-18 {
        fill: #546188;
      }

      .cls-19, .cls-21 {
        fill: url(#linear-gradient-3);
      }

      .cls-20 {
        stroke: #7defe9;
      }

      .cls-20, .cls-23 {
        stroke-linecap: round;
        stroke-linejoin: round;
      }

      .cls-21, .cls-24 {
        opacity: 0.75;
      }

      .cls-22 {
        fill: url(#linear-gradient-5);
      }

      .cls-23 {
        stroke: #6cefe8;
      }

      .cls-24 {
        fill: #15ccbe;
      }

      .cls-25 {
        fill: url(#linear-gradient-6);
      }
    </style>
    <linearGradient id="linear-gradient" x1="1.253" y1="-0.128" x2="-0.069" y2="0.787" gradientUnits="objectBoundingBox">
      <stop offset="0" stop-color="#e3e0d6"/>
      <stop offset="0.998" stop-color="#e3e0d6" stop-opacity="0"/>
      <stop offset="1" stop-color="#fff" stop-opacity="0"/>
    </linearGradient>
    <clipPath id="clip-path">
      <path id="Path_1350" data-name="Path 1350" d="M156.337,108.215a19.379,19.379,0,1,1-13.32-23.951A19.33,19.33,0,0,1,156.337,108.215Z" transform="translate(-118.308 -83.516)"/>
    </clipPath>
    <linearGradient id="linear-gradient-2" x1="0.5" x2="0.5" y2="1" gradientUnits="objectBoundingBox">
      <stop offset="0" stop-color="#e3e0d6"/>
      <stop offset="1" stop-color="#e3e0d6" stop-opacity="0"/>
    </linearGradient>
    <clipPath id="clip-path-2">
      <path id="Path_1368" data-name="Path 1368" d="M231.784,11.1h53.025c24.976,0,45.084,18.828,45.084,41.882V67.327c0,23.182-20.237,41.882-45.084,41.882H258.169v11.015L243.7,109.209H231.784c-24.976,0-45.084-18.828-45.084-41.882V52.982C186.7,29.8,206.937,11.1,231.784,11.1Z" transform="translate(-186.7 -11.1)"/>
    </clipPath>
    <linearGradient id="linear-gradient-3" x1="0.5" x2="0.5" y2="1" gradientUnits="objectBoundingBox">
      <stop offset="0" stop-color="#24ca6c"/>
      <stop offset="1" stop-color="#47dfc0"/>
    </linearGradient>
    <linearGradient id="linear-gradient-5" x1="0.5" x2="0.5" y2="1" gradientUnits="objectBoundingBox">
      <stop offset="0" stop-color="#35e280"/>
      <stop offset="1" stop-color="#47dfc0"/>
    </linearGradient>
    <linearGradient id="linear-gradient-6" x1="0.5" x2="0.5" y2="1" gradientUnits="objectBoundingBox">
      <stop offset="0" stop-color="#24ca6c"/>
      <stop offset="1" stop-color="#27c6a6"/>
    </linearGradient>
  </defs>
  <path id="Path_1330" data-name="Path 1330" class="cls-1" d="M311.559,288.4c-40.729,0-75.311,5.379-87.607,12.936-12.3-7.557-46.877-12.936-87.607-12.936C85.37,288.4,44,296.853,44,307.356s41.37,18.956,92.346,18.956c40.729,0,75.311-5.379,87.607-12.936,12.3,7.557,46.877,12.936,87.607,12.936,50.976,0,92.346-8.453,92.346-18.956S362.663,288.4,311.559,288.4Z" transform="translate(12.355 80.983)"/>
  <g id="Group_685-2" data-name="Group 685" transform="translate(259.874 115.912)">
    <path id="Path_1331" data-name="Path 1331" class="cls-2" d="M284.9,288.448c0,2.69,0,5.636-1.537,7.941-1.921,2.69-5.251,3.458-8.453,4.227-4.611,1.025-9.222,2.049-13.7,3.074-.128.64.64,1.281,1.409,1.409,3.458.9,7.172.128,10.759-.512,4.1-.768,8.325-1.281,12.552-1.665,1.921-.128,4.1-.512,4.867-2.177.64-1.281.128-2.69-.128-4.1-.768-4.227.128-8.581-.768-12.68-.128-.512-.256-1.025-.768-1.153-.256-.128-.512,0-.768,0C284.77,283.709,284.9,285.246,284.9,288.448Z" transform="translate(-186.533 -36.515)"/>
    <path id="Path_1332" data-name="Path 1332" class="cls-3" d="M287.191,296.3a16.207,16.207,0,0,1-10.759,2.946c-.256,0-1.665-.256-1.921-.256-.256-.768-.128-1.537-.768-1.409a63.112,63.112,0,0,0-8.581,1.409c-.9.128-4.355.512-4.739,1.281a1.843,1.843,0,0,0,.512,1.921,4.618,4.618,0,0,0,1.921,1.025c3.33,1.025,7.044.64,10.5.256,4.355-.512,8.581-1.025,12.936-1.537a8.181,8.181,0,0,0,4.227-1.281c1.793-1.281,2.177-3.714,2.049-5.892C292.314,290.662,288.344,295.4,287.191,296.3Z" transform="translate(-186.776 -33.606)"/>
    <path id="Path_1333" data-name="Path 1333" class="cls-4" d="M246.5,112.4l.64,5.892,11.4,1.537,1.921-6.4-2.305-1.025Z" transform="translate(-190.657 -84.35)"/>
    <path id="Path_1334" data-name="Path 1334" class="cls-2" d="M232.827,297.8c-.384,2.69-.768,5.636-2.562,7.557-2.177,2.305-5.764,2.818-8.966,3.074-4.611.384-9.35.768-14.089,1.153-.256.64.512,1.281,1.153,1.537,3.33,1.409,7.172,1.025,10.759.9,4.227-.128,8.453-.128,12.552,0,1.921.128,4.1,0,5.123-1.537.768-1.153.512-2.69.512-4.1-.256-4.227,1.153-8.453.9-12.68a1.3,1.3,0,0,0-.64-1.281.816.816,0,0,0-.768,0C233.339,293.19,233.211,294.6,232.827,297.8Z" transform="translate(-201.704 -33.828)"/>
    <path id="Path_1335" data-name="Path 1335" class="cls-5" d="M286.371,184.8s-.9,32.276-.768,50.079c.128,17.675,14.217,54.434,14.6,64.68s-1.537,16.266-1.537,16.266l-24.719,1.537L256.4,189.8Z" transform="translate(-187.877 -64.021)"/>
    <path id="Path_1336" data-name="Path 1336" class="cls-2" d="M269.79,98.736a19.641,19.641,0,0,0-23.951,14.217,17.625,17.625,0,0,0-.512,6.788l10.5,1.281-6.148,9.222a19.25,19.25,0,0,0,10.246,6.532,19.649,19.649,0,0,0,9.862-38.04Z" transform="translate(-191.021 -88.362)"/>
    <path id="Path_1337" data-name="Path 1337" class="cls-2" d="M262.19,119.865l-2.69,22.03,12.3,3.586,2.818-27.281Z" transform="translate(-187.007 -82.722)"/>
    <path id="Path_1338" data-name="Path 1338" class="cls-3" d="M296.849,187.856l-47.39-.256c-4.611,18.572-23.695,126.8-25.36,137.814,3.97.64,20.877,1.793,20.877,1.793s9.862-11.911,17.931-47.518c8.453-37.656,30.355-80.05,32.02-83.124A14.809,14.809,0,0,0,296.849,187.856Z" transform="translate(-196.947 -63.234)"/>
    <path id="Path_1339" data-name="Path 1339" class="cls-3" d="M233.7,305.792a16.033,16.033,0,0,1-11.143,1.537,9.434,9.434,0,0,1-1.793-.512c-.128-.768,0-1.537-.64-1.537a65.956,65.956,0,0,0-8.709.256c-.9,0-4.355-.128-4.867.64a1.763,1.763,0,0,0,.256,2.049,5.745,5.745,0,0,0,1.665,1.281c3.2,1.409,6.916,1.537,10.374,1.537,4.355,0,8.709.128,13.064.128a8.281,8.281,0,0,0,4.355-.768c1.921-1.025,2.69-3.458,2.818-5.636C239.466,300.8,234.983,305.024,233.7,305.792Z" transform="translate(-201.938 -30.804)"/>
    <path id="Path_1340" data-name="Path 1340" class="cls-4" d="M268.605,132.693c3.97-1.153,23.054-1.793,23.054-1.793l4.611,37.015,6.532,35.862-47.9-.128,3.074-22.542.768-11.783-16.522,18.315a8.689,8.689,0,0,1-13.7-1.025L202.9,148.447l19.98-10.631,15.37,14.345Z" transform="translate(-202.9 -79.156)"/>
    <path id="Path_1341" data-name="Path 1341" class="cls-3" d="M282.56,122.689A19.667,19.667,0,0,0,249.9,103.6l26.384,29.074A18.927,18.927,0,0,0,282.56,122.689Z" transform="translate(-189.702 -88.363)"/>
    <circle id="Ellipse_68" data-name="Ellipse 68" class="cls-6" cx="7.172" cy="7.172" r="7.172" transform="translate(69.804 21.902)"/>
    <circle id="Ellipse_69" data-name="Ellipse 69" class="cls-2" cx="6.532" cy="6.532" r="6.532" transform="translate(6.276 47.262)"/>
    <circle id="Ellipse_70" data-name="Ellipse 70" class="cls-3" cx="9.222" cy="9.222" r="9.222" transform="translate(84.661)"/>
    <path id="Path_1342" data-name="Path 1342" class="cls-7" d="M247.2,164.535l-.768,11.911L244,193.865,263.852,147.5Z" transform="translate(-191.359 -74.494)"/>
    <line id="Line_50" data-name="Line 50" class="cls-8" x2="19.468" y2="10.374" transform="translate(57.892 130.257)"/>
  </g>
  <g id="Group_688" data-name="Group 688" transform="translate(100.381 106.967)">
    <circle id="Ellipse_71" data-name="Ellipse 71" class="cls-2" cx="7.044" cy="7.044" r="7.044" transform="translate(132.34 19.192)"/>
    <path id="Path_1343" data-name="Path 1343" class="cls-9" d="M112.759,288.092c-.64,5.251-1.153,11.143-5,14.985a23.971,23.971,0,0,1-5.123,3.458c-3.33,1.793-6.66,3.714-9.99,5.507-.9.512-2.049,1.153-2.049,2.305-.128,1.537,1.665,2.434,3.074,2.562,2.946.256,5.892-.9,8.581-2.177l9.99-4.355A8.081,8.081,0,0,0,116.858,305a61.075,61.075,0,0,0,1.921-9.862,14.469,14.469,0,0,0,0-5.251,5.367,5.367,0,0,0-2.946-3.842C114.424,285.4,113.015,286.426,112.759,288.092Z" transform="translate(-74.942 -26.7)"/>
    <path id="Path_1344" data-name="Path 1344" class="cls-9" d="M159.573,287.192c.64,5.251,1.153,11.143,5,14.985a23.971,23.971,0,0,0,5.123,3.458c3.33,1.793,6.66,3.714,9.99,5.507.9.512,2.049,1.153,2.049,2.305.128,1.537-1.665,2.434-3.074,2.562-2.946.256-5.892-.9-8.581-2.177l-9.99-4.355a8.081,8.081,0,0,1-4.611-5.379,61.075,61.075,0,0,1-1.921-9.862,14.469,14.469,0,0,1,0-5.251,5.367,5.367,0,0,1,2.946-3.842C157.908,284.5,159.317,285.526,159.573,287.192Z" transform="translate(-57.331 -26.953)"/>
    <path id="Path_1345" data-name="Path 1345" class="cls-4" d="M181.64,195.666,178.182,159.8l11.783,5.123a14.719,14.719,0,0,0,20.109-9.734l11.271-41.754L208.921,108.7,191.63,141.745l-13.7-16.266a16.947,16.947,0,0,0-15.626-8.453l-39.577,2.049a19.72,19.72,0,0,0-11.911,4.867L82.89,148.789A13.365,13.365,0,0,0,86.733,171.2l35.094,14.345,2.305,32.532,58.148-8.709Zm-73.9-38.552,8.325-9.478,3.586,17.8Z" transform="translate(-78.374 -76.444)"/>
    <path id="Path_1346" data-name="Path 1346" class="cls-3" d="M115.124,178.905l59.685-2.305L176.6,325.685l-16.01.64L149.962,197.861H139.331L116.789,325.173H102.7Z" transform="translate(-71.543 -57.378)"/>
    <path id="Path_1347" data-name="Path 1347" class="cls-2" d="M156.337,108.215a19.379,19.379,0,1,1-13.32-23.951A19.33,19.33,0,0,1,156.337,108.215Z" transform="translate(-67.16 -83.516)"/>
    <path id="Path_1348" data-name="Path 1348" class="cls-2" d="M134.244,131.423h0a7.024,7.024,0,0,1-7.044-7.044V100.3h13.961v24.079A6.917,6.917,0,0,1,134.244,131.423Z" transform="translate(-64.663 -78.803)"/>
    <g id="Group_687" data-name="Group 687" transform="translate(51.148)">
      <g id="Group_686" data-name="Group 686" class="cls-10">
        <path id="Path_1349" data-name="Path 1349" class="cls-3" d="M151.914,84.427c-3.714-4.483-12.808-3.842-19.084-3.586a19.449,19.449,0,0,0-6.532,37.527c5-4.611,8.325-12.936,8.2-22.158C140.259,95.442,148.712,88.782,151.914,84.427Z" transform="translate(-119.521 -84.319)"/>
      </g>
    </g>
    <path id="Path_1351" data-name="Path 1351" class="cls-2" d="M133.716,103.161a6.325,6.325,0,1,1-4.355-7.813A6.383,6.383,0,0,1,133.716,103.161Z" transform="translate(-66.312 -80.255)"/>
    <path id="Path_1352" data-name="Path 1352" class="cls-4" d="M136,102.2a6.171,6.171,0,0,0,12.3,0Z" transform="translate(-62.192 -78.269)"/>
    <path id="Path_1353" data-name="Path 1353" class="cls-11" d="M150.881,116.512A3.836,3.836,0,0,0,149.6,116l8.453,41.626,11.783,5.123a15.485,15.485,0,0,0,3.2,1.025Z" transform="translate(-58.373 -74.394)"/>
    <line id="Line_51" data-name="Line 51" class="cls-8" x1="9.606" y2="11.271" transform="translate(45.886 130.365)"/>
    <line id="Line_52" data-name="Line 52" class="cls-8" x1="10.246" y1="10.887" transform="translate(88.537 128.572)"/>
    <path id="Path_1354" data-name="Path 1354" class="cls-12" d="M177.6,113.467l14.729,6.02,1.153-6.148L181.058,108.6Z" transform="translate(-50.511 -76.472)"/>
    <path id="Path_1355" data-name="Path 1355" class="cls-12" d="M118.831,156.8,108.2,170.248l5.123,2.305,10.246-13.32Z" transform="translate(-69.998 -62.937)"/>
    <path id="Path_1356" data-name="Path 1356" class="cls-2" d="M127.989,167.545a7.044,7.044,0,1,1-7.044-7.044A6.944,6.944,0,0,1,127.989,167.545Z" transform="translate(-68.398 -61.899)"/>
  </g>
  <path id="Path_1364" data-name="Path 1364" class="cls-1" d="M74.8,105.309A14.307,14.307,0,0,0,61.35,95.831a13.263,13.263,0,0,0-7.685,2.305,19.8,19.8,0,0,0-36.375-1.793,12.137,12.137,0,0,0-3.842-.512A14.182,14.182,0,0,0,0,105.309Z" transform="translate(0 23.924)"/>
  <path id="Path_1365" data-name="Path 1365" class="cls-1" d="M392.8,134.909a14.307,14.307,0,0,0-13.448-9.478,13.263,13.263,0,0,0-7.685,2.305,19.8,19.8,0,0,0-36.375-1.793,12.137,12.137,0,0,0-3.842-.512A14.182,14.182,0,0,0,318,134.909Z" transform="translate(89.294 32.236)"/>
  <g id="Group_697" data-name="Group 697" transform="translate(239.125 14.217)">
    <path id="Path_1366" data-name="Path 1366" class="cls-4" d="M231.784,11.1h53.025c24.976,0,45.084,18.828,45.084,41.882V67.327c0,23.182-20.237,41.882-45.084,41.882H258.169v11.015L243.7,109.209H231.784c-24.976,0-45.084-18.828-45.084-41.882V52.982C186.7,29.8,206.937,11.1,231.784,11.1Z" transform="translate(-186.7 -11.1)"/>
    <g id="Group" transform="translate(19.741 29.74)">
      <text id="BONJOUR" class="cls-13" transform="translate(1.281 16)"><tspan x="0" y="0">BONJOUR</tspan></text>
      <text id="MON_AMI_" data-name="MON AMI!" class="cls-13" transform="translate(0 38.542)"><tspan x="0" y="0">MON AMI!</tspan></text>
    </g>
    <g id="Group_696" data-name="Group 696">
      <g id="Group_695" data-name="Group 695" class="cls-14">
        <path id="Path_1367" data-name="Path 1367" class="cls-15" d="M197.009,4.6H143.984C119.009,4.6,98.9,23.428,98.9,46.482V60.827c0,23.182,20.237,41.882,45.084,41.882h26.641v11.015L185.1,102.709h11.911c24.976,0,45.084-18.828,45.084-41.882V46.61C242.093,23.428,221.985,4.6,197.009,4.6Z" transform="translate(-211.354 -12.925)"/>
      </g>
    </g>
  </g>
  <g id="Group_698" data-name="Group 698" transform="translate(116.04)">
    <path id="Path_1369" data-name="Path 1369" class="cls-4" d="M188.709,0H135.684C110.709,0,90.6,18.828,90.6,41.882V56.227c0,23.182,20.237,41.882,45.084,41.882h26.641v11.015L176.8,98.109h11.911c24.976,0,45.084-18.828,45.084-41.882V41.882C233.793,18.828,213.557,0,188.709,0Z" transform="translate(-90.6)"/>
    <g id="Group-2" data-name="Group" transform="translate(10.864 28.309)">
      <text id="HELLO" class="cls-16" transform="translate(22.286 16)"><tspan x="0" y="0">HELLO</tspan></text>
      <text id="MY_FRIEND_" data-name="MY FRIEND!" class="cls-16" transform="translate(0 38.542)"><tspan x="0" y="0">MY FRIEND!</tspan></text>
    </g>
  </g>
  <g id="Group_699" data-name="Group 699" transform="translate(6.114 183.335)">
    <path id="Path_326" data-name="Path 326" class="cls-3" d="M281.7,262.6l4.745,32.376s3.738,5.036,17.9,5.036,17.9-5.036,17.9-5.036l4.745-32.376Z" transform="translate(-271.123 -138.055)"/>
    <path id="Path_327" data-name="Path 327" class="cls-17" d="M304.347,280.323c8.34,0,15.745-1.079,20.418-2.662l2.085-14.461H281.7l2.085,14.461C288.6,279.316,296.007,280.323,304.347,280.323Z" transform="translate(-271.123 -138.223)"/>
    <path id="Path_328" data-name="Path 328" class="cls-3" d="M328.442,268.888c0,3.813-11.575,6.835-25.81,6.835s-25.81-3.094-25.81-6.835L275.6,258.6h54.064Z" transform="translate(-269.408 -136.933)"/>
    <ellipse id="Ellipse_36" data-name="Ellipse 36" class="cls-18" cx="27.032" cy="7.195" rx="27.032" ry="7.195" transform="translate(6.192 114.472)"/>
    <ellipse id="Ellipse_37" data-name="Ellipse 37" class="cls-3" cx="24.156" cy="5.396" rx="24.156" ry="5.396" transform="translate(9.068 116.127)"/>
    <path id="Path_329" data-name="Path 329" class="cls-17" d="M280.775,257.951c3.091-2.23,12.222-3.813,23.078-3.813,10.784,0,19.986,1.583,23.078,3.813a2.119,2.119,0,0,0,1.078-1.655c0-3.022-10.784-5.4-24.156-5.4s-24.156,2.446-24.156,5.4C279.625,256.872,280.056,257.447,280.775,257.951Z" transform="translate(-270.557 -134.773)"/>
    <g id="Group_184" data-name="Group 184" transform="translate(21.718)">
      <path id="Path_330" data-name="Path 330" class="cls-19" d="M327.754,168.063c1.725-6.259-.359-11.224-2.66-16.835a32.749,32.749,0,0,1-1.8-17.411c1.15-7.986,3.81-15.684.791-23.455-2.876-7.339-5.608-16.979-13.516-20.073-7.693-3.31-13.516,4.317-13.372,11.3s4.1,13.31,2.085,20.217c-1.51,5.684-3.451,12.375-.5,17.771,3.523,6.691,10.065,11.439,7.621,19.569-.935,2.95-2.588,5.4-2.876,8.346-.431,4.461,1.869,5.54,3.882,9.065,8.483,14.893-7.046,20.864-.935,37.268a1.076,1.076,0,0,0,1.078.719h0a1.018,1.018,0,0,0,1.007-.935c1.941-18.274,14.954-12.015,15.1-26.836,0-2.734-.791-5.54-.5-8.274C323.44,174.251,326.747,172.092,327.754,168.063Z" transform="translate(-297.196 -89.492)"/>
      <path id="Path_331" data-name="Path 331" class="cls-20" d="M315.6,206.4s.719,8.346,6.83,9.425" transform="translate(-302.369 -122.289)"/>
      <path id="Path_332" data-name="Path 332" class="cls-20" d="M307.5,150.1s.431,9.353,8.268,11.871" transform="translate(-300.092 -106.495)"/>
      <path id="Path_333" data-name="Path 333" class="cls-20" d="M328.68,132.4s-.359,9.713-7.98,11.224" transform="translate(-303.802 -101.529)"/>
      <path id="Path_334" data-name="Path 334" class="cls-20" d="M329.686,174.7s1.869,10.648-4.385,13.382" transform="translate(-305.095 -113.396)"/>
      <path id="Path_335" data-name="Path 335" class="cls-20" d="M325.378,224.5s0,9.713-9.778,10.648" transform="translate(-302.369 -127.367)"/>
      <path id="Path_336" data-name="Path 336" class="cls-20" d="M312.3,113.6s.719,9.785,6.542,11.439" transform="translate(-301.441 -96.255)"/>
      <path id="Path_337" data-name="Path 337" class="cls-20" d="M312.633,104.3c6.686,6.619,6.183,21.728,5.68,28.635-.431,5.036-3.091,16.835,0,25.4,3.307,9.065,6.255,18.706,2.516,31.225-2.588,8.706-11.144,12.95-9.418,28.779" transform="translate(-301.127 -93.646)"/>
      <path id="Path_338" data-name="Path 338" class="cls-21" d="M326.569,202.516v.863c-.072,9.713-5.752,10.36-10.137,14.821.5-2.59.647-5.828,2.372-7.914,1.869-2.086,4.457-2.518,6.327-5.108A10.832,10.832,0,0,0,326.569,202.516Zm1.51-34.678a32.749,32.749,0,0,1-1.8-17.411,14.408,14.408,0,0,1,.288-1.727,12.286,12.286,0,0,0-6.83,6.475c-4.314,9.065-.935,15.253,2.8,22.088,3.02,5.612,1.078,10.792,1.725,16.692a22.109,22.109,0,0,0,2.157,6.259,24.651,24.651,0,0,1-.288-5.108c.359-4.245,3.667-6.4,4.673-10.36C332.465,178.414,330.38,173.45,328.079,167.838Zm-16.032,47.629a13.931,13.931,0,0,1-1.438-4.1c-1.941,5.036-4.1,10.288-1.8,17.7v.072l.431,1.3c0,.072.072.144.144.216v.072c.072.072.144.144.144.216h0a1.507,1.507,0,0,0,.791.288h0a.816.816,0,0,0,.575-.216.8.8,0,0,0,.431-.719v-.072a24.947,24.947,0,0,1,1.51-6.691c-.431.288-.791.5-1.222.791C313.053,221.294,313.988,219.567,312.047,215.466Z" transform="translate(-300.182 -106.102)"/>
    </g>
    <g id="Group_186" data-name="Group 186" transform="translate(30.779 36.463)">
      <path id="Path_339" data-name="Path 339" class="cls-22" d="M351.267,179.043c-3.81-6.979-3.81-11.583-3.379-19.066.431-7.626-1.869-17.771-11.215-19.5-6.974-1.3-12.653,1.583-15.241,7.051-4.314,9.065-.935,15.253,2.8,22.088,3.02,5.612,1.078,10.792,1.725,16.692s5.9,8.706,1.51,14.821c-1.869,2.518-4.457,2.95-6.327,5.108-1.869,2.3-1.869,5.972-2.516,8.706-1.725,6.835-8.34,5.828-8.627,12.735,0,.5.431,1.007.791,1.007s.647.072.935-.432c1.582-2.806,4.17-2.374,7.046-3.669,2.157-.935,2.8-3.6,7.98-4.245,6.758-.791,12.869,3.6,16.248-5.468,1.294-3.166.863-5.9,1.51-9.065.647-4.245,3.379-6.763,6.111-9.713C355.293,190.7,354.646,185.159,351.267,179.043Z" transform="translate(-309.856 -140.172)"/>
      <g id="Group_185" data-name="Group 185" transform="translate(0.791 6.351)">
        <path id="Path_340" data-name="Path 340" class="cls-23" d="M334,164s4.457,7.842,10.64,8.418" transform="translate(-317.393 -153.208)"/>
        <path id="Path_341" data-name="Path 341" class="cls-23" d="M340.4,197.9s-.359,14.173,4.17,17.123" transform="translate(-319.189 -162.718)"/>
        <path id="Path_342" data-name="Path 342" class="cls-23" d="M357.724,184.7s-.5,12.159-8.124,14.317" transform="translate(-321.777 -159.015)"/>
        <path id="Path_343" data-name="Path 343" class="cls-23" d="M346.354,233.1s-3.882,11.727-14.954,9.785" transform="translate(-316.662 -172.593)"/>
        <path id="Path_344" data-name="Path 344" class="cls-23" d="M349.382,149s3.163,9.209-1.582,13.6" transform="translate(-321.271 -149)"/>
        <path id="Path_345" data-name="Path 345" class="cls-23" d="M310.9,231.766c1.007-3.813,6.614-5.18,8.268-6.259,17.9-11.655,24.875-34.175,16.032-72.306" transform="translate(-310.9 -150.178)"/>
      </g>
      <path id="Path_346" data-name="Path 346" class="cls-24" d="M309.8,259.908c0,.5.431,1.007.791,1.007h.072c1.15-.863-.288-2.086,1.438-6.115A6.735,6.735,0,0,0,309.8,259.908Z" transform="translate(-309.8 -172.33)"/>
    </g>
    <g id="Group_188" data-name="Group 188" transform="translate(0 70.116)">
      <path id="Path_347" data-name="Path 347" class="cls-25" d="M298.989,224.182c-2.085-4.533-.144-10.288-2.157-13.6-2.516-4.1-6.758-1.007-11.647-6.619-4.1-4.748-1.15-11.3-10.5-16.26-2.876-1.511-6.183-.791-7.261,2.446-1.366,3.022.791,7.41,1.8,10.288.935,2.446,2.085,4.317,1.654,7.051v.072c-.575,2.086-1.941,3.238-1.222,5.756,1.582,6.044,10.137,5.54,14.451,9.281,3.091,2.662.288,5.828,3.307,9.857,2.948,4.029,4.457-.36,9.849,9.137a.727.727,0,0,0,.935.288h0a.756.756,0,0,0,.359-.648C297.7,231.017,302.081,230.8,298.989,224.182Z" transform="translate(-266.988 -186.948)"/>
      <g id="Group_187" data-name="Group 187" transform="translate(3.244 4.642)">
        <path id="Path_348" data-name="Path 348" class="cls-23" d="M271.5,198s.5,4.677,4.961,6.115" transform="translate(-271.5 -194.69)"/>
        <path id="Path_349" data-name="Path 349" class="cls-23" d="M275,216.5s4.457,5.108,9.993,3.094" transform="translate(-272.484 -199.88)"/>
        <path id="Path_350" data-name="Path 350" class="cls-23" d="M297.9,216.9s3.379,5.54.863,8.13" transform="translate(-278.92 -199.993)"/>
        <path id="Path_351" data-name="Path 351" class="cls-23" d="M304.438,231.5s2.013,6.835-1.438,9.353" transform="translate(-280.354 -204.088)"/>
        <path id="Path_352" data-name="Path 352" class="cls-23" d="M283.2,202.3s2.876,7.123.431,9.713" transform="translate(-274.788 -195.897)"/>
        <path id="Path_353" data-name="Path 353" class="cls-23" d="M288.8,230.8s2.588,4.317,9.849,3.885" transform="translate(-276.362 -203.892)"/>
        <path id="Path_354" data-name="Path 354" class="cls-23" d="M295.7,243.7s.719,4.389,7.836,5.4" transform="translate(-278.302 -207.511)"/>
        <path id="Path_355" data-name="Path 355" class="cls-23" d="M299.975,243.4c-.288-9.353-5.248-10.073-5.1-15.612.144-4.317,0-8.418-5.248-11.511-8.987-5.4-12.725-11.008-14.523-22.879" transform="translate(-272.512 -193.4)"/>
      </g>
    </g>
  </g>
  <g id="Group_700" data-name="Group 700" transform="translate(407.114 200.117)">
    <path id="Path_326-2" data-name="Path 326" class="cls-3" d="M281.7,262.6l3.631,25.623s2.861,3.986,13.7,3.986,13.7-3.986,13.7-3.986l3.631-25.623Z" transform="translate(-273.605 -164.034)"/>
    <path id="Path_327-2" data-name="Path 327" class="cls-17" d="M299.031,276.752a50.784,50.784,0,0,0,15.625-2.107l1.6-11.445H281.7l1.6,11.445C286.982,275.954,292.649,276.752,299.031,276.752Z" transform="translate(-273.605 -164.292)"/>
    <path id="Path_328-2" data-name="Path 328" class="cls-3" d="M316.038,266.742c0,3.018-8.858,5.409-19.751,5.409s-19.751-2.448-19.751-5.409L275.6,258.6h41.374Z" transform="translate(-270.862 -162.311)"/>
    <ellipse id="Ellipse_36-2" data-name="Ellipse 36" class="cls-18" cx="20.687" cy="5.694" rx="20.687" ry="5.694" transform="translate(4.738 90.595)"/>
    <ellipse id="Ellipse_37-2" data-name="Ellipse 37" class="cls-3" cx="18.486" cy="4.27" rx="18.486" ry="4.27" transform="translate(6.939 91.905)"/>
    <path id="Path_329-2" data-name="Path 329" class="cls-17" d="M280.52,256.48c2.366-1.765,9.353-3.018,17.661-3.018,8.253,0,15.3,1.253,17.661,3.018a1.684,1.684,0,0,0,.825-1.31c0-2.391-8.253-4.27-18.486-4.27s-18.486,1.936-18.486,4.27C279.64,255.626,279.97,256.081,280.52,256.48Z" transform="translate(-272.701 -158.995)"/>
    <g id="Group_184-2" data-name="Group 184" transform="translate(16.62)">
      <path id="Path_330-2" data-name="Path 330" class="cls-19" d="M320.581,151.674c1.32-4.954-.275-8.883-2.036-13.324a26.745,26.745,0,0,1-1.375-13.779c.88-6.32,2.916-12.413.605-18.562-2.2-5.808-4.291-13.438-10.343-15.886-5.887-2.619-10.343,3.416-10.233,8.939s3.136,10.534,1.6,16c-1.155,4.5-2.641,9.794-.385,14.064,2.7,5.3,7.7,9.053,5.832,15.488-.715,2.334-1.981,4.27-2.2,6.6-.33,3.53,1.43,4.384,2.971,7.174,6.492,11.786-5.392,16.512-.715,29.495a.824.824,0,0,0,.825.569h0a.79.79,0,0,0,.77-.74c1.485-14.463,11.444-9.509,11.554-21.238,0-2.164-.605-4.384-.385-6.548C317.28,156.571,319.811,154.863,320.581,151.674Z" transform="translate(-297.196 -89.492)"/>
      <path id="Path_331-2" data-name="Path 331" class="cls-20" d="M315.6,206.4s.55,6.6,5.227,7.459" transform="translate(-305.475 -139.833)"/>
      <path id="Path_332-2" data-name="Path 332" class="cls-20" d="M307.5,150.1s.33,7.4,6.327,9.395" transform="translate(-301.831 -115.59)"/>
      <path id="Path_333-2" data-name="Path 333" class="cls-20" d="M326.807,132.4s-.275,7.687-6.107,8.883" transform="translate(-307.769 -107.969)"/>
      <path id="Path_334-2" data-name="Path 334" class="cls-20" d="M328.656,174.7s1.43,8.427-3.356,10.591" transform="translate(-309.838 -126.183)"/>
      <path id="Path_335-2" data-name="Path 335" class="cls-20" d="M323.082,224.5s0,7.687-7.482,8.427" transform="translate(-305.475 -147.627)"/>
      <path id="Path_336-2" data-name="Path 336" class="cls-20" d="M312.3,113.6s.55,7.744,5.007,9.053" transform="translate(-303.99 -99.873)"/>
      <path id="Path_337-2" data-name="Path 337" class="cls-20" d="M312.293,104.3c5.117,5.238,4.732,17.2,4.346,22.662-.33,3.986-2.366,13.324,0,20.1,2.531,7.174,4.787,14.8,1.926,24.712-1.981,6.89-8.528,10.249-7.207,22.776" transform="translate(-303.488 -95.868)"/>
      <path id="Path_338-2" data-name="Path 338" class="cls-21" d="M322.168,191.291v.683c-.055,7.687-4.4,8.2-7.758,11.729.385-2.05.5-4.612,1.816-6.263,1.431-1.651,3.411-1.993,4.842-4.043A8.671,8.671,0,0,0,322.168,191.291Zm1.155-27.445a26.744,26.744,0,0,1-1.375-13.779,11.759,11.759,0,0,1,.22-1.367,9.542,9.542,0,0,0-5.227,5.125c-3.3,7.174-.715,12.071,2.146,17.48,2.311,4.441.825,8.541,1.32,13.21a17.9,17.9,0,0,0,1.651,4.954,20.166,20.166,0,0,1-.22-4.043c.275-3.359,2.806-5.068,3.576-8.2C326.679,172.216,325.084,168.287,323.323,163.846ZM311.054,201.54a11.277,11.277,0,0,1-1.1-3.246c-1.486,3.986-3.136,8.142-1.375,14.007v.057l.33,1.025c0,.057.055.114.11.171v.057c.055.057.11.114.11.171h0a1.13,1.13,0,0,0,.605.228h0a.613.613,0,0,0,.44-.171.638.638,0,0,0,.33-.569v-.057a20.313,20.313,0,0,1,1.155-5.3c-.33.228-.605.4-.935.626C311.824,206.152,312.54,204.785,311.054,201.54Z" transform="translate(-301.974 -114.987)"/>
    </g>
    <g id="Group_186-2" data-name="Group 186" transform="translate(23.555 28.857)">
      <path id="Path_339-2" data-name="Path 339" class="cls-22" d="M341.58,170.935c-2.916-5.523-2.916-9.167-2.586-15.089.33-6.036-1.43-14.064-8.583-15.431-5.337-1.025-9.683,1.253-11.664,5.58-3.3,7.174-.715,12.071,2.146,17.48,2.311,4.441.825,8.541,1.32,13.21s4.511,6.89,1.155,11.73c-1.431,1.993-3.411,2.335-4.842,4.043-1.43,1.822-1.43,4.726-1.926,6.89-1.32,5.409-6.382,4.612-6.6,10.078,0,.4.33.8.605.8s.5.057.715-.342c1.21-2.221,3.191-1.879,5.392-2.9,1.651-.74,2.146-2.847,6.107-3.359,5.172-.626,9.848,2.847,12.434-4.327.99-2.505.66-4.669,1.155-7.174.5-3.359,2.586-5.352,4.677-7.687C344.661,180.16,344.166,175.775,341.58,170.935Z" transform="translate(-309.89 -140.172)"/>
      <g id="Group_185-2" data-name="Group 185" transform="translate(0.605 5.026)">
        <path id="Path_340-2" data-name="Path 340" class="cls-23" d="M334,164s3.411,6.206,8.143,6.662" transform="translate(-321.291 -155.459)"/>
        <path id="Path_341-2" data-name="Path 341" class="cls-23" d="M340.4,197.9s-.275,11.217,3.191,13.552" transform="translate(-324.165 -170.057)"/>
        <path id="Path_342-2" data-name="Path 342" class="cls-23" d="M355.817,184.7s-.385,9.623-6.217,11.331" transform="translate(-328.308 -164.373)"/>
        <path id="Path_343-2" data-name="Path 343" class="cls-23" d="M342.844,233.1s-2.971,9.281-11.444,7.744" transform="translate(-320.121 -185.214)"/>
        <path id="Path_344-2" data-name="Path 344" class="cls-23" d="M349.01,149s2.421,7.288-1.21,10.762" transform="translate(-327.498 -149)"/>
        <path id="Path_345-2" data-name="Path 345" class="cls-23" d="M310.9,215.378c.77-3.018,5.062-4.1,6.327-4.954,13.7-9.224,19.036-27.046,12.269-57.224" transform="translate(-310.9 -150.809)"/>
      </g>
      <path id="Path_346-2" data-name="Path 346" class="cls-24" d="M309.8,258.843c0,.4.33.8.605.8h.055c.88-.683-.22-1.651,1.1-4.84A5.407,5.407,0,0,0,309.8,258.843Z" transform="translate(-309.8 -189.532)"/>
    </g>
    <g id="Group_188-2" data-name="Group 188" transform="translate(0 55.491)">
      <path id="Path_347-2" data-name="Path 347" class="cls-25" d="M291.477,216.415c-1.6-3.587-.11-8.142-1.651-10.762-1.926-3.246-5.172-.8-8.913-5.238-3.136-3.758-.88-8.939-8.033-12.868-2.2-1.2-4.732-.626-5.557,1.936-1.045,2.391.605,5.865,1.375,8.142.715,1.936,1.6,3.416,1.265,5.58v.057c-.44,1.651-1.486,2.562-.935,4.555,1.21,4.783,7.758,4.384,11.059,7.345,2.366,2.107.22,4.612,2.531,7.8,2.256,3.189,3.411-.285,7.538,7.231a.546.546,0,0,0,.715.228h0a.6.6,0,0,0,.275-.512C290.487,221.825,293.843,221.654,291.477,216.415Z" transform="translate(-266.988 -186.948)"/>
      <g id="Group_187-2" data-name="Group 187" transform="translate(2.483 3.674)">
        <path id="Path_348-2" data-name="Path 348" class="cls-23" d="M271.5,198a5.992,5.992,0,0,0,3.8,4.84" transform="translate(-271.5 -195.381)"/>
        <path id="Path_349-2" data-name="Path 349" class="cls-23" d="M275,216.5s3.411,4.043,7.648,2.448" transform="translate(-273.074 -203.347)"/>
        <path id="Path_350-2" data-name="Path 350" class="cls-23" d="M297.9,216.9s2.586,4.384.66,6.434" transform="translate(-283.375 -203.519)"/>
        <path id="Path_351-2" data-name="Path 351" class="cls-23" d="M304.1,231.5s1.541,5.409-1.1,7.4" transform="translate(-285.669 -209.806)"/>
        <path id="Path_352-2" data-name="Path 352" class="cls-23" d="M283.2,202.3s2.2,5.637.33,7.687" transform="translate(-276.763 -197.232)"/>
        <path id="Path_353-2" data-name="Path 353" class="cls-23" d="M288.8,230.8s1.981,3.416,7.537,3.075" transform="translate(-279.282 -209.505)"/>
        <path id="Path_354-2" data-name="Path 354" class="cls-23" d="M295.7,243.7s.55,3.473,6,4.27" transform="translate(-282.386 -215.06)"/>
        <path id="Path_355-2" data-name="Path 355" class="cls-23" d="M294.136,232.973c-.22-7.4-4.016-7.972-3.906-12.356.11-3.416,0-6.662-4.016-9.11-6.877-4.27-9.738-8.712-11.114-18.107" transform="translate(-273.119 -193.4)"/>
      </g>
    </g>
  </g>
</svg>
