<svg xmlns="http://www.w3.org/2000/svg" xmlns:xlink="http://www.w3.org/1999/xlink" viewBox="0 0 120.255 280.368">
  <defs>
    <style>
      .cls-1 {
        fill: #ffbb80;
      }

      .cls-2 {
        fill: #303c5e;
      }

      .cls-3 {
        fill: #212b4a;
      }

      .cls-4 {
        fill: #f7f5ef;
      }

      .cls-5 {
        fill: #ffba80;
      }

      .cls-6 {
        fill: url(#linear-gradient);
      }

      .cls-7 {
        fill: none;
        stroke: #212b4a;
        stroke-miterlimit: 10;
        stroke-width: 2px;
      }
    </style>
    <linearGradient id="linear-gradient" x1="1.253" y1="-0.128" x2="-0.069" y2="0.787" gradientUnits="objectBoundingBox">
      <stop offset="0" stop-color="#e3e0d6"/>
      <stop offset="0.998" stop-color="#e3e0d6" stop-opacity="0"/>
      <stop offset="1" stop-color="#fff" stop-opacity="0"/>
    </linearGradient>
  </defs>
  <g id="Woman" transform="translate(7.878 0)">
    <path id="Path_1331" data-name="Path 1331" class="cls-1" d="M284.9,288.448c0,2.69,0,5.636-1.537,7.941-1.921,2.69-5.251,3.458-8.453,4.227-4.611,1.025-9.222,2.049-13.7,3.074-.128.64.64,1.281,1.409,1.409,3.458.9,7.172.128,10.759-.512,4.1-.768,8.325-1.281,12.552-1.665,1.921-.128,4.1-.512,4.867-2.177.64-1.281.128-2.69-.128-4.1-.768-4.227.128-8.581-.768-12.68-.128-.512-.256-1.025-.768-1.153-.256-.128-.512,0-.768,0C284.77,283.709,284.9,285.246,284.9,288.448Z" transform="translate(-186.533 -36.515)"/>
    <path id="Path_1332" data-name="Path 1332" class="cls-2" d="M287.191,296.3a16.207,16.207,0,0,1-10.759,2.946c-.256,0-1.665-.256-1.921-.256-.256-.768-.128-1.537-.768-1.409a63.112,63.112,0,0,0-8.581,1.409c-.9.128-4.355.512-4.739,1.281a1.843,1.843,0,0,0,.512,1.921,4.618,4.618,0,0,0,1.921,1.025c3.33,1.025,7.044.64,10.5.256,4.355-.512,8.581-1.025,12.936-1.537a8.181,8.181,0,0,0,4.227-1.281c1.793-1.281,2.177-3.714,2.049-5.892C292.314,290.662,288.344,295.4,287.191,296.3Z" transform="translate(-186.776 -33.606)"/>
    <path id="Path_1334" data-name="Path 1334" class="cls-1" d="M232.827,297.8c-.384,2.69-.768,5.636-2.562,7.557-2.177,2.305-5.764,2.818-8.966,3.074-4.611.384-9.35.768-14.089,1.153-.256.64.512,1.281,1.153,1.537,3.33,1.409,7.172,1.025,10.759.9,4.227-.128,8.453-.128,12.552,0,1.921.128,4.1,0,5.123-1.537.768-1.153.512-2.69.512-4.1-.256-4.227,1.153-8.453.9-12.68a1.3,1.3,0,0,0-.64-1.281.816.816,0,0,0-.768,0C233.339,293.19,233.211,294.6,232.827,297.8Z" transform="translate(-201.704 -33.828)"/>
    <path id="Path_1335" data-name="Path 1335" class="cls-3" d="M286.371,184.8s-.9,32.276-.768,50.079c.128,17.675,14.217,54.434,14.6,64.68s-1.537,16.266-1.537,16.266l-24.719,1.537L256.4,189.8Z" transform="translate(-187.877 -64.021)"/>
    <path id="Path_1336" data-name="Path 1336" class="cls-1" d="M269.79,98.736a19.641,19.641,0,0,0-23.951,14.217,17.625,17.625,0,0,0-.512,6.788s.78,7.919,2.969,12.533,3.226,4.29,5.787,5.923,27.106-5.008,29.8-15.639A19.588,19.588,0,0,0,269.79,98.736Z" transform="translate(-191.021 -88.362)"/>
    <path id="Path_1337" data-name="Path 1337" class="cls-1" d="M262.19,119.865l-2.69,22.03,12.3,3.586,2.818-27.281Z" transform="translate(-187.007 -82.722)"/>
    <path id="Path_1338" data-name="Path 1338" class="cls-2" d="M296.849,187.856l-47.39-.256c-4.611,18.572-23.695,126.8-25.36,137.814,3.97.64,20.877,1.793,20.877,1.793s9.862-11.911,17.931-47.518c8.453-37.656,30.355-80.05,32.02-83.124A14.809,14.809,0,0,0,296.849,187.856Z" transform="translate(-196.947 -63.234)"/>
    <path id="Path_1339" data-name="Path 1339" class="cls-2" d="M233.7,305.792a16.033,16.033,0,0,1-11.143,1.537,9.434,9.434,0,0,1-1.793-.512c-.128-.768,0-1.537-.64-1.537a65.956,65.956,0,0,0-8.709.256c-.9,0-4.355-.128-4.867.64a1.763,1.763,0,0,0,.256,2.049,5.745,5.745,0,0,0,1.665,1.281c3.2,1.409,6.916,1.537,10.374,1.537,4.355,0,8.709.128,13.064.128a8.281,8.281,0,0,0,4.355-.768c1.921-1.025,2.69-3.458,2.818-5.636C239.466,300.8,234.983,305.024,233.7,305.792Z" transform="translate(-201.938 -30.804)"/>
    <path id="Path_1403" data-name="Path 1403" class="cls-1" d="M293.048,130.776s-.549-13.389-3.209-15.227-3.07,5.515-3.07,5.515-11.461-12.46-16.372-6.945,6.958,16.136,11.87,20.834l8.6,3.268Z" transform="translate(-277.108 -67.932)"/>
    <path id="Path_1340" data-name="Path 1340" class="cls-4" d="M268.605,132.693c3.97-1.153,23.054-1.793,23.054-1.793l4.611,37.015,6.532,35.862-47.9-.128,3.074-22.542.768-11.783-16.522,18.315a8.689,8.689,0,0,1-13.7-1.025L202.9,148.447l19.98-10.631,15.37,14.345Z" transform="translate(-202.9 -79.156)"/>
    <path id="Path_1341" data-name="Path 1341" class="cls-2" d="M282.56,122.689A19.667,19.667,0,0,0,249.9,103.6l26.384,29.074A18.927,18.927,0,0,0,282.56,122.689Z" transform="translate(-189.702 -88.363)"/>
    <circle id="Ellipse_68" data-name="Ellipse 68" class="cls-5" cx="7.172" cy="7.172" r="7.172" transform="translate(69.804 21.902)"/>
    <circle id="Ellipse_70" data-name="Ellipse 70" class="cls-2" cx="9.222" cy="9.222" r="9.222" transform="translate(84.661)"/>
    <path id="Path_1342" data-name="Path 1342" class="cls-6" d="M247.2,164.535l-.768,11.911L244,193.865,263.852,147.5Z" transform="translate(-191.359 -74.494)"/>
    <line id="Line_50" data-name="Line 50" class="cls-7" x2="19.468" y2="10.374" transform="translate(57.892 130.257)"/>
  </g>
</svg>
