<svg xmlns="http://www.w3.org/2000/svg" xmlns:xlink="http://www.w3.org/1999/xlink" viewBox="0 0 90 90.003">
  <defs>
    <style>
      .cls-1 {
        fill: url(#linear-gradient);
      }

      .cls-2 {
        fill: #ff8820;
      }

      .cls-3 {
        fill: #f6b882;
      }

      .cls-4 {
        fill: #1abffe;
      }

      .cls-5 {
        fill: #ffcda1;
      }

      .cls-6 {
        fill: #303c5e;
      }

      .cls-7 {
        fill: #00a9e9;
      }

      .cls-8 {
        fill: #f0b77d;
      }

      .cls-9 {
        fill: #ffbb80;
      }
    </style>
    <linearGradient id="linear-gradient" x1="0.5" x2="0.5" y2="1" gradientUnits="objectBoundingBox">
      <stop offset="0" stop-color="#f1f3f8"/>
      <stop offset="1" stop-color="#f1f3f8" stop-opacity="0"/>
    </linearGradient>
  </defs>
  <g id="_1" data-name="1" transform="translate(-836 -1819)">
    <path id="Path_653" data-name="Path 653" class="cls-1" d="M67.417,0c24.82,0,22.47,20.147,22.47,45S47.3,90,22.477,90,.007,69.853.007,45,42.6,0,67.417,0Z" transform="translate(836.053 1819)"/>
    <g id="design" transform="translate(834 1827)">
      <path id="Path_689" data-name="Path 689" class="cls-2" d="M2,2H28.667V36.667H2Z" transform="translate(0)"/>
      <path id="Path_690" data-name="Path 690" class="cls-3" d="M2,28l8.148,14.667H20.519L28.667,28Z" transform="translate(0 8.667)"/>
      <path id="Path_691" data-name="Path 691" class="cls-4" d="M62,62.295H48.667L42,40.961,53.91,21.905a1.678,1.678,0,0,1,2.846,0l11.91,19.056Z" transform="translate(13.333 6.372)"/>
      <path id="Path_692" data-name="Path 692" class="cls-5" d="M17,2h6.667V36.667H17Z" transform="translate(5)"/>
      <path id="Path_693" data-name="Path 693" class="cls-5" d="M7,2h6.667V36.667H7Z" transform="translate(1.667)"/>
      <path id="Path_694" data-name="Path 694" class="cls-6" d="M46,52H62V65.333H46Z" transform="translate(14.667 16.667)"/>
      <path id="Path_695" data-name="Path 695" class="cls-6" d="M54,37.328V21.793a1.663,1.663,0,0,0-2.667,0V37.328a2.667,2.667,0,1,0,2.667,0Z" transform="translate(16 6.375)"/>
      <path id="Path_696" data-name="Path 696" class="cls-6" d="M25,82A13.7,13.7,0,0,1,11,68.667V62h2.8v6.667A10.956,10.956,0,0,0,25,79.333,10.956,10.956,0,0,0,36.2,68.667v-52C36.2,8.579,43.108,2,51.6,2S67,8.579,67,16.667V26H64.2V16.667a12.324,12.324,0,0,0-12.6-12,12.324,12.324,0,0,0-12.6,12v52A13.7,13.7,0,0,1,25,82Z" transform="translate(3)"/>
      <path id="Path_697" data-name="Path 697" class="cls-7" d="M64.546,32.74A23.974,23.974,0,0,1,46.214,55.065l1.049,3.355H60.6l6.667-21.333Z" transform="translate(14.738 10.247)"/>
      <path id="Path_698" data-name="Path 698" class="cls-8" d="M18.482,39H8.111L13.3,48.333Z" transform="translate(2.037 12.333)"/>
      <path id="Path_699" data-name="Path 699" class="cls-9" d="M26.953,31.085,28.667,28H2l8.148,14.667h.422A24,24,0,0,1,26.953,31.085Z" transform="translate(0 8.667)"/>
      <path id="Path_700" data-name="Path 700" class="cls-6" d="M8.111,39,13.3,48.333,18.482,39Z" transform="translate(2.037 12.333)"/>
    </g>
  </g>
</svg>
