<svg xmlns="http://www.w3.org/2000/svg" xmlns:xlink="http://www.w3.org/1999/xlink" viewBox="0 0 90 90">
  <defs>
    <style>
      .cls-1 {
        fill: url(#linear-gradient);
      }

      .cls-2 {
        fill: #ff8820;
      }

      .cls-3 {
        fill: #303c5e;
      }

      .cls-4 {
        fill: #1abffe;
      }

      .cls-5 {
        fill: #f7bc18;
      }

      .cls-6 {
        fill: #46debf;
      }

      .cls-7 {
        fill: #00a9e9;
      }

      .cls-8 {
        fill: #df7416;
      }

      .cls-9 {
        fill: #32bca0;
      }

      .cls-10 {
        opacity: 0.2;
      }

      .cls-11 {
        fill: #fff;
      }
    </style>
    <linearGradient id="linear-gradient" x1="0.5" x2="0.5" y2="1" gradientUnits="objectBoundingBox">
      <stop offset="0" stop-color="#f1f3f8"/>
      <stop offset="1" stop-color="#f1f3f8" stop-opacity="0"/>
    </linearGradient>
  </defs>
  <g id="_1" data-name="1" transform="translate(-836 -1819)">
    <path id="Path_653" data-name="Path 653" class="cls-1" d="M67.417,0c24.82,0,22.47,20.147,22.47,45S47.3,90,22.477,90,.007,69.853.007,45,42.6,0,67.417,0Z" transform="translate(836.053 1819)"/>
    <g id="document" transform="translate(834 1827)">
      <path id="Path_721" data-name="Path 721" class="cls-2" d="M35,22H71V35.333H35Z" transform="translate(11 6.667)"/>
      <path id="Path_722" data-name="Path 722" class="cls-3" d="M35,2H71V15.333H35Z" transform="translate(11)"/>
      <path id="Path_723" data-name="Path 723" class="cls-4" d="M35,12H71V25.333H35Z" transform="translate(11 3.333)"/>
      <path id="Path_724" data-name="Path 724" class="cls-5" d="M35,32H71V45.333H35Z" transform="translate(11 10)"/>
      <path id="Path_725" data-name="Path 725" class="cls-6" d="M34.667,17H16V58.333H44V27.667Z" transform="translate(4.667 5)"/>
      <path id="Path_726" data-name="Path 726" class="cls-2" d="M27.667,24H9V65.333H37V34.667Z" transform="translate(2.333 7.333)"/>
      <path id="Path_727" data-name="Path 727" class="cls-4" d="M20.667,31H2V72.333H30V41.667Z" transform="translate(0 9.667)"/>
      <path id="Path_728" data-name="Path 728" class="cls-7" d="M16,41.667h9.333L16,31Z" transform="translate(4.667 9.667)"/>
      <path id="Path_729" data-name="Path 729" class="cls-8" d="M23,34.667h9.333L23,24Z" transform="translate(7 7.333)"/>
      <path id="Path_730" data-name="Path 730" class="cls-9" d="M30,27.667h9.333L30,17Z" transform="translate(9.333 5)"/>
      <path id="Path_731" data-name="Path 731" class="cls-10" d="M46,6h8V8.667H46Z" transform="translate(14.667 1.333)"/>
      <path id="Path_732" data-name="Path 732" class="cls-10" d="M46,16h8v2.667H46Z" transform="translate(14.667 4.667)"/>
      <path id="Path_733" data-name="Path 733" class="cls-10" d="M46,26h8v2.667H46Z" transform="translate(14.667 8)"/>
      <path id="Path_734" data-name="Path 734" class="cls-10" d="M46,36h8v2.667H46Z" transform="translate(14.667 11.333)"/>
      <g id="Group_458" data-name="Group 458" transform="translate(6 44.667)">
        <path id="Path_735" data-name="Path 735" class="cls-11" d="M5,34H15.667v2.667H5Z" transform="translate(-5 -34)"/>
        <path id="Path_736" data-name="Path 736" class="cls-11" d="M5,40H18.333v2.667H5Z" transform="translate(-5 -32)"/>
        <path id="Path_737" data-name="Path 737" class="cls-11" d="M5,44H25v2.667H5Z" transform="translate(-5 -30.667)"/>
        <path id="Path_738" data-name="Path 738" class="cls-11" d="M5,48H25v2.667H5Z" transform="translate(-5 -29.333)"/>
        <path id="Path_739" data-name="Path 739" class="cls-11" d="M5,52H25v2.667H5Z" transform="translate(-5 -28)"/>
        <path id="Path_740" data-name="Path 740" class="cls-11" d="M5,56H15.667v2.667H5Z" transform="translate(-5 -26.667)"/>
        <path id="Path_741" data-name="Path 741" class="cls-11" d="M16,56h5.333v2.667H16Z" transform="translate(-1.333 -26.667)"/>
      </g>
    </g>
  </g>
</svg>
