<svg xmlns="http://www.w3.org/2000/svg" xmlns:xlink="http://www.w3.org/1999/xlink" viewBox="0 0 560 276.506">
  <defs>
    <style>
      .cls-1 {
        fill: #f7f5ef;
      }

      .cls-2 {
        fill: #303c5e;
      }

      .cls-3 {
        fill: #fff;
      }

      .cls-4 {
        fill: #ffbb80;
      }

      .cls-5 {
        fill: #f4ad70;
      }

      .cls-6 {
        fill: #1abffe;
      }

      .cls-7 {
        fill: #46debf;
      }

      .cls-8 {
        opacity: 0.5;
        fill: url(#linear-gradient);
      }

      .cls-9 {
        fill: #0baeed;
      }

      .cls-10 {
        fill: url(#linear-gradient-2);
      }

      .cls-11 {
        fill: #31c9aa;
      }

      .cls-12 {
        fill: #787f95;
      }

      .cls-13 {
        fill: #eff2f7;
      }

      .cls-14 {
        fill: url(#linear-gradient-3);
      }

      .cls-15 {
        fill: #524f63;
      }

      .cls-16 {
        fill: url(#linear-gradient-4);
      }

      .cls-17 {
        fill: #3b4972;
        opacity: 0.997;
      }

      .cls-18 {
        fill: #0aa0d9;
      }

      .cls-19 {
        fill: #2a375a;
      }

      .cls-20 {
        fill: #162241;
      }

      .cls-21 {
        fill: #eebcc5;
      }

      .cls-22 {
        fill: none;
        stroke: #303c5e;
        stroke-miterlimit: 10;
      }

      .cls-23 {
        fill: #d2e0f7;
      }

      .cls-24 {
        fill: url(#linear-gradient-5);
      }

      .cls-25 {
        fill: #9fbbea;
      }
    </style>
    <linearGradient id="linear-gradient" x1="0.003" y1="0.501" x2="1.004" y2="0.501" gradientUnits="objectBoundingBox">
      <stop offset="0" stop-color="#ead18c" stop-opacity="0"/>
      <stop offset="1" stop-color="#524f63" stop-opacity="0.698"/>
    </linearGradient>
    <linearGradient id="linear-gradient-2" y1="0.5" x2="0.998" y2="0.5" gradientUnits="objectBoundingBox">
      <stop offset="0" stop-color="#0baeed"/>
      <stop offset="1" stop-color="#07a6e3"/>
    </linearGradient>
    <linearGradient id="linear-gradient-3" x1="0.194" y1="1.472" x2="0.716" y2="-0.383" gradientUnits="objectBoundingBox">
      <stop offset="0" stop-color="#08a8e5"/>
      <stop offset="1" stop-color="#08a7e4"/>
    </linearGradient>
    <linearGradient id="linear-gradient-4" x1="-0.002" y1="0.5" x2="0.999" y2="0.5" gradientUnits="objectBoundingBox">
      <stop offset="0" stop-color="#46debf" stop-opacity="0"/>
      <stop offset="1" stop-color="#20c3a2"/>
    </linearGradient>
    <linearGradient id="linear-gradient-5" x1="0.495" y1="0.763" x2="0.565" y2="-2.755" gradientUnits="objectBoundingBox">
      <stop offset="0" stop-color="#d2e0f7" stop-opacity="0"/>
      <stop offset="1" stop-color="#41639b"/>
    </linearGradient>
  </defs>
  <g id="Group_1429" data-name="Group 1429" transform="translate(0 -10.066)">
    <g id="Group_1416" data-name="Group 1416" transform="translate(0 10.066)">
      <path id="Path_2495" data-name="Path 2495" class="cls-1" d="M73.3,32.82l25.28,4.109L86.508,25.877,92.189,19.5l21.872,19.555a5.047,5.047,0,0,1-3.551,8.5l-30.535.85Z" transform="translate(30.803 8.038)"/>
      <path id="Path_2496" data-name="Path 2496" class="cls-2" d="M92.551,75.276l-.426,164.231-8.663.709L77.354,100.782l-7.953.567L61.163,238.94l-8.663-.567L53.636,72.3Z" transform="translate(22.063 30.056)"/>
      <path id="Path_2497" data-name="Path 2497" class="cls-1" d="M84.226,29.278,55.111,28A9.587,9.587,0,0,0,47.3,31.4L55.821,98l39.767.85L91.9,37.78S85.362,29.278,84.226,29.278Z" transform="translate(19.877 11.58)"/>
      <path id="Path_2498" data-name="Path 2498" class="cls-3" d="M83.688,21.383c-1.562,1.275-3.693,2.409-3.977,4.393a3.954,3.954,0,0,0,2.7,4.109,7.081,7.081,0,0,0,5.113-.425,9.19,9.19,0,0,0,5.255-6.377c.284-1.984-.568-5.951-2.982-6.66C87.1,15.715,85.677,19.825,83.688,21.383Z" transform="translate(33.481 6.722)"/>
      <path id="Path_2499" data-name="Path 2499" class="cls-2" d="M57.5,189.5l-16.9,4.96.568,1.417,24.57-2.692.426-3.117Z" transform="translate(17.062 78.929)"/>
      <path id="Path_2500" data-name="Path 2500" class="cls-4" d="M20.025,36.623l-2.7-4.534L20.309,26s1.562-4.251,1.562-5.668c0-1.275-1.278-3.259-2.7-.85a33.407,33.407,0,0,1-2.7,4.251L8.521,11.967a1.438,1.438,0,0,0-.994-.567h0a1.305,1.305,0,0,0-1.136,1.842l1.846,3.4a1.189,1.189,0,0,1-1.7,1.559l-.426-.283A4.377,4.377,0,0,0,0,19.052v.283L.142,23.3a8.85,8.85,0,0,0,3.267,6.518C8.1,33.647,16.333,40.307,16.617,39.74,16.9,39.032,20.025,36.623,20.025,36.623Z" transform="translate(0 4.661)"/>
      <path id="Path_2501" data-name="Path 2501" class="cls-4" d="M78.937,10.973a2.708,2.708,0,0,0-3.267.992,3.9,3.9,0,0,0-.284,3.543,4.991,4.991,0,0,0,5.4,3.259,4.375,4.375,0,0,0,3.693-4.818,4.724,4.724,0,0,0-2.982-3.543,7.078,7.078,0,0,0-4.829.142" transform="translate(31.558 4.096)"/>
      <path id="Path_2502" data-name="Path 2502" class="cls-4" d="M78.24,12.5,91.307,22.844s.284,5.668-2.84,6.235C87.472,29.646,75.4,16.893,75.4,16.893Z" transform="translate(31.686 5.119)"/>
      <path id="Path_2503" data-name="Path 2503" class="cls-2" d="M74.3,190.967l.426,2.692L95.888,197.2s.994-1.7.426-1.842-13.35-4.96-13.35-4.96Z" transform="translate(31.224 79.304)"/>
      <path id="Path_2504" data-name="Path 2504" class="cls-5" d="M59.7,18.9l.71,18.138a4.4,4.4,0,0,0,3.551,4.251h0A4.336,4.336,0,0,0,68.932,37.6l.852-15.729Z" transform="translate(25.088 7.788)"/>
      <g id="Group_1415" data-name="Group 1415" transform="translate(98.822 9.937)">
        <rect id="Rectangle_517" data-name="Rectangle 517" class="cls-2" width="9.365" height="19.694" transform="translate(3.611 0.047) rotate(10.539)"/>
        <rect id="Rectangle_518" data-name="Rectangle 518" class="cls-2" width="8.371" height="19.694" transform="translate(3.611 0) rotate(10.539)"/>
      </g>
      <path id="Path_2505" data-name="Path 2505" class="cls-3" d="M59.321,30.259a8.036,8.036,0,0,0-1.42,1.559c-.142.425,5.113,8.5,5.113,8.5l3.551-5.526,4.4,5.526,1.846-10.061-2.982-.709-3.267,3.826L60.741,28.7Z" transform="translate(24.331 11.875)"/>
      <path id="Path_2506" data-name="Path 2506" class="cls-6" d="M64.63,33,62.5,36.543l1.562,2.834L63.21,41.36l.852,26.781,2.982,3.4,2.7-3.259L66.9,41.36,65.34,39.093,67.329,36.4Z" transform="translate(26.265 13.668)"/>
      <path id="Path_2507" data-name="Path 2507" class="cls-4" d="M54.823,7.392c-1.846,4.251-1.7,9.069-.71,13.6.994,4.96,3.125,9.777,6.959,13.036s9.942,4.109,13.918.992c2.414-1.842,3.693-4.676,4.687-7.51,1.846-5.668,2.13-12.045-.142-17.429C75.275.023,59.936-4.511,54.823,7.392Z" transform="translate(22.438 0.025)"/>
      <path id="Path_2508" data-name="Path 2508" class="cls-1" d="M65.811,49.571,34.424,59.632,11.7,34.976,17.381,30.3,38.4,47.446l23.86-17,3.977,7.085Z" transform="translate(4.917 12.542)"/>
      <path id="Path_2509" data-name="Path 2509" class="cls-3" d="M9.2,34.36l2.414,3.826,10.652-6.235L18.005,27.7Z" transform="translate(3.866 11.458)"/>
      <path id="Path_2510" data-name="Path 2510" class="cls-4" d="M51.153,10.975a3.517,3.517,0,0,0-1.846,3.684,8.5,8.5,0,0,0,1.846,3.968,6.47,6.47,0,0,0,1.7,1.7,6.094,6.094,0,0,0,2.272.709,2.956,2.956,0,0,0,2.7-.709,2.73,2.73,0,0,0,.426-1.417c.284-2.409-.284-3.4-1.7-5.1C55.271,12.108,53.567,9.983,51.153,10.975Z" transform="translate(20.711 4.378)"/>
      <path id="Path_2511" data-name="Path 2511" class="cls-2" d="M58.83,15.7a7.972,7.972,0,0,1-3.551,6.377,14.339,14.339,0,0,1-2.84-7.368,13.19,13.19,0,0,1,2.13-9.494,13.182,13.182,0,0,1,9.8-5.1A24.932,24.932,0,0,1,75.447,2.24c1.562.567,3.409,1.275,4.687.142a8.4,8.4,0,0,1,.994,3.684,4.969,4.969,0,0,1-.71,2.834C79.424,10.317,78,11.875,76.3,12.159,63.943,14.851,58.262,8.191,58.12,8.475A5.5,5.5,0,0,0,58.4,10.6,19.548,19.548,0,0,1,58.83,15.7Z" transform="translate(21.981 -0.066)"/>
    </g>
    <g id="Group_1419" data-name="Group 1419" transform="translate(146.92 48.849)">
      <path id="Path_2512" data-name="Path 2512" class="cls-7" d="M206.889,128.85l-3.551-68.158s-17.611-.992-22.724-.992c-2.84,0-7.669,1.417-11.5,2.551-3.551,1.134-6.533.992-8.379,4.393L131.9,121.765l17.753,1.7,5.965-6.66-2.983-4.534,10.794-25.364-.142,42.935Z" transform="translate(-91.491 -23.982)"/>
      <path id="Path_2513" data-name="Path 2513" class="cls-8" d="M159.373,71.8,140.2,106.092l5.965,6.943a11.275,11.275,0,0,0,4.687-.283l.994-1.134-2.982-4.534,10.794-25.364Z" transform="translate(-88.003 -18.936)"/>
      <path id="Path_2514" data-name="Path 2514" class="cls-4" d="M170.6,99.884c-.71-.283-6.675-3.684-11.078-3.684s-9.8,4.676-9.8,4.676-.71,2.409,2.272,1.984l4.971-.709s-5.113,2.692-1.7,3.259,18.037,0,18.037,0Z" transform="translate(-84.032 -8.761)"/>
      <path id="Path_2515" data-name="Path 2515" class="cls-6" d="M180.41,107.009H123.6V102.9h56.81a2.182,2.182,0,0,1,2.13,2.126h0A2.062,2.062,0,0,1,180.41,107.009Z" transform="translate(-94.979 -5.967)"/>
      <path id="Path_2516" data-name="Path 2516" class="cls-9" d="M173.241,119.645H118.419a5.169,5.169,0,0,1-5.113-3.968L103.649,79.26a5.333,5.333,0,0,1,5.113-6.66h47.862a5.169,5.169,0,0,1,5.113,3.968Z" transform="translate(-103.432 -18.602)"/>
      <path id="Path_2517" data-name="Path 2517" class="cls-10" d="M108.777,72.6a5.2,5.2,0,0,0-5.113,6.66l9.658,36.417a5.518,5.518,0,0,0,1.846,2.834L148.544,72.6Z" transform="translate(-103.448 -18.602)"/>
      <path id="Path_2518" data-name="Path 2518" class="cls-3" d="M132.584,92.751A3.248,3.248,0,0,1,129.176,97a6.108,6.108,0,0,1-5.539-4.251,3.248,3.248,0,0,1,3.409-4.251A5.791,5.791,0,0,1,132.584,92.751Z" transform="translate(-95.016 -11.972)"/>
      <path id="Path_2519" data-name="Path 2519" class="cls-5" d="M164.9,55.16c.426.992,3.977,14.453,3.977,14.453A4.311,4.311,0,0,0,173,71.6c2.982-.283,4.119-4.393,4.119-4.393L172,50.2Z" transform="translate(-77.623 -27.943)"/>
      <path id="Path_2520" data-name="Path 2520" class="cls-4" d="M187.66,52.721c0,9.352-9.942,19.555-19.173,19.555C159.113,72.275,154,61.931,154,52.721a16.83,16.83,0,0,1,33.66,0Z" transform="translate(-82.204 -33.865)"/>
      <path id="Path_2521" data-name="Path 2521" class="cls-3" d="M167.388,61.5,165.4,66.6l1.278,5.385,3.977-5.668,3.977,6.377,4.4-7.794-2.982-5.1s-1.42,3.4-4.687,4.109A3.129,3.129,0,0,1,167.388,61.5Z" transform="translate(-77.413 -23.94)"/>
      <path id="Path_2522" data-name="Path 2522" class="cls-2" d="M170.193,64.5l-2.982,3.684,1.42,2.126-2.13,4.676.426,30.749,2.982,6.093,4.261-6.8-.994-29.332L170.9,70.168l1.7-2.551Z" transform="translate(-76.951 -21.98)"/>
      <path id="Path_2523" data-name="Path 2523" class="cls-11" d="M190.928,70.5l.994,53.846-25.422-.283Z" transform="translate(-76.951 -19.478)"/>
      <path id="Path_2524" data-name="Path 2524" class="cls-7" d="M188.5,60.4l2.272,50.729L167.2,115.947l3.267,6.093,33.66,1.984-4.545-50.162a14.632,14.632,0,0,0-8.237-12.045Z" transform="translate(-76.656 -23.69)"/>
      <path id="Path_2525" data-name="Path 2525" class="cls-3" d="M164.4,98.8l4.687.425,4.119,6.943-7.811.567Z" transform="translate(-77.833 -7.677)"/>
      <path id="Path_2526" data-name="Path 2526" class="cls-2" d="M160.213,115,118.6,125.628l21.162,83.036L147,204.98l-6.249-71.417,37.21-11.619-21.588,12.328L156.8,202h6.533s18.321-66.316,20.025-66.316c1.846,0,32.523-20.4,32.523-20.4Z" transform="translate(-97.08 -0.921)"/>
      <path id="Path_2527" data-name="Path 2527" class="cls-12" d="M118.036,188.994l28.973-2.126.852-9.069L116.9,184.885Z" transform="translate(-97.794 25.267)"/>
      <path id="Path_2528" data-name="Path 2528" class="cls-12" d="M134.3,194.679l5.823.708,16.333-6.235.426-12.753h-6.533l-2.983,8.077-8.805,5.385Z" transform="translate(-90.482 24.683)"/>
      <path id="Path_2529" data-name="Path 2529" class="cls-2" d="M153.9,47.4c-.71,1.275-1.278,2.692-.852,3.968.568,1.559,2.556,2.126,4.261,2.267,2.84.283,5.823.425,8.663.425a27.045,27.045,0,0,0,5.823-.567c3.125-.708,5.823-2.267,8.663-3.826,1.988-1.134,4.119-2.551,4.545-4.676.284-2.267-1.278-4.251-2.7-5.81a24.179,24.179,0,0,0-2.7-2.692,12.349,12.349,0,0,0-8.947-1.842C162.843,35.778,157.446,40.879,153.9,47.4Z" transform="translate(-82.667 -34.493)"/>
      <path id="Path_2530" data-name="Path 2530" class="cls-2" d="M174.106,50.444a1.73,1.73,0,0,1,2.272-.992,2.521,2.521,0,0,1,1.562,2.126,4.64,4.64,0,0,1-.568,2.692c-.142.425-.426.85-.568,1.275a3.113,3.113,0,0,0-.142,1.134c0,1.7,0,3.259.142,4.96,1.42-.567,2.13-1.842,2.84-3.117,1.562-2.834,3.125-5.81,2.84-9.069a15.7,15.7,0,0,0-2.84-7.368,4.413,4.413,0,0,0-.994-1.275,3.212,3.212,0,0,0-2.272-.283,15.534,15.534,0,0,0-2.13,1.134c-.71.425-1.278.85-1.988,1.275a5.883,5.883,0,0,0-1.7,1.559c-.568,1.275.284,1.842.994,2.551C172.117,47.327,171.407,55.545,174.106,50.444Z" transform="translate(-75.325 -32.013)"/>
      <g id="Group_1417" data-name="Group 1417" transform="translate(68.14 23.815)">
        <path id="Path_2531" data-name="Path 2531" class="cls-13" d="M157.212,59.944a6.368,6.368,0,0,1-5.539-4.251,3.647,3.647,0,0,1,.284-3.259,3.036,3.036,0,0,1,2.414-1.134,6.368,6.368,0,0,1,5.539,4.251,3.647,3.647,0,0,1-.284,3.259A2.671,2.671,0,0,1,157.212,59.944Zm-2.84-7.935a1.955,1.955,0,0,0-1.846.85,2.95,2.95,0,0,0-.142,2.692,5.78,5.78,0,0,0,4.971,3.826,1.955,1.955,0,0,0,1.846-.85,2.95,2.95,0,0,0,.142-2.692A5.78,5.78,0,0,0,154.372,52.008Z" transform="translate(-151.426 -51.3)"/>
      </g>
      <g id="Group_1418" data-name="Group 1418" transform="translate(79.36 23.815)">
        <path id="Path_2532" data-name="Path 2532" class="cls-13" d="M165.112,59.944a6.368,6.368,0,0,1-5.539-4.251,3.647,3.647,0,0,1,.284-3.259,3.036,3.036,0,0,1,2.414-1.134,6.368,6.368,0,0,1,5.539,4.251,3.647,3.647,0,0,1-.284,3.259A2.671,2.671,0,0,1,165.112,59.944Zm-2.84-7.935a1.955,1.955,0,0,0-1.846.85,2.95,2.95,0,0,0-.142,2.692,5.78,5.78,0,0,0,4.971,3.826,1.955,1.955,0,0,0,1.846-.85,2.95,2.95,0,0,0,.142-2.692A5.78,5.78,0,0,0,162.272,52.008Z" transform="translate(-159.326 -51.3)"/>
      </g>
    </g>
    <g id="Group_1420" data-name="Group 1420" transform="translate(264.874 19.599)">
      <path id="Path_2533" data-name="Path 2533" class="cls-2" d="M207.633,32.034c.142,2.692,1.562,5.243.852,7.794-.568,2.126-2.556,3.543-3.125,5.668-.71,2.409.568,4.818,1.7,6.943.994,1.842,2.414,3.826,4.4,3.826a6.065,6.065,0,0,0,2.556-.85l5.965-2.976a8.8,8.8,0,0,0,2.414-1.559,9.326,9.326,0,0,0,1.988-3.684c1.562-4.109,2.84-8.5,2.556-12.895s-2.7-8.927-6.959-10.628c-2.272-.85-9.09-1.7-11.078.283-.852.85-.426,1.842-.568,2.976C208.2,28.775,207.491,30.192,207.633,32.034Z" transform="translate(-178.66 -10.143)"/>
      <path id="Path_2534" data-name="Path 2534" class="cls-4" d="M216.293,38.6l-1.988.567a30.168,30.168,0,0,0-14.344,22.814L195.7,130.847l6.391-2.834Z" transform="translate(-182.634 -3.53)"/>
      <path id="Path_2535" data-name="Path 2535" class="cls-9" d="M255.307,38.621,221.221,37.2a40.8,40.8,0,0,0-10.794,1.7l-4.4,1.984,7.669,36.417h0a72.382,72.382,0,0,0-10.084,38.968l4.119,49.737h38.2l4.829-52.429a71.894,71.894,0,0,0-5.823-31.316l-2.13-4.818Z" transform="translate(-179.324 -4.118)"/>
      <path id="Path_2536" data-name="Path 2536" class="cls-14" d="M211.617,54.458a13.075,13.075,0,0,0,3.977,4.393,11.047,11.047,0,0,0,7.669.992,23.372,23.372,0,0,0,7.243-3.117A42.034,42.034,0,0,0,241.585,47.8c2.13-2.551,3.693-6.377,1.988-9.211-1.136-1.842-3.267-2.692-5.4-3.259C227.1,32.211,203.238,38.446,211.617,54.458Z" transform="translate(-176.68 -5.219)"/>
      <path id="Path_2540" data-name="Path 2540" class="cls-5" d="M215,34.546c-.284-.567,3.977,10.769,3.977,10.769s.994,4.676,4.829,3.543c3.977-1.134,1.562-17.713.994-17.854C224.094,30.72,215.288,35.4,215,34.546Z" transform="translate(-174.527 -6.703)"/>
      <path id="Path_2537" data-name="Path 2537" class="cls-4" d="M239.408,30.537c0,9.069-9.658,21.4-18.747,21.4s-14.06-12.328-14.06-21.4a16.4,16.4,0,1,1,32.807,0Z" transform="translate(-178.053 -13.747)"/>
      <path id="Path_2538" data-name="Path 2538" class="cls-4" d="M242.732,38.2,266.45,69.091A6.991,6.991,0,0,1,264.6,79.151L236.909,96.014,233.5,90.629l19.031-15.162a3.346,3.346,0,0,0,.71-4.534L238.9,50.528Z" transform="translate(-166.749 -3.697)"/>
      <path id="Path_2539" data-name="Path 2539" class="cls-4" d="M186.5,107.651h14.913a4.519,4.519,0,0,0,4.545-4.251l.142-1.7Z" transform="translate(-186.5 22.783)"/>
      <path id="Path_2541" data-name="Path 2541" class="cls-2" d="M229.028,28.516c-7.669,4.676-15.623,9.352-24.428,9.919,1.988-2.409,1.562-5.951,1.988-9.211a17.645,17.645,0,0,1,8.1-12.753,18.106,18.106,0,0,1,15.055-1.7,10.05,10.05,0,0,1,4.687,3.259C237.692,22.564,232.579,26.39,229.028,28.516Z" transform="translate(-178.894 -13.851)"/>
      <path id="Path_2542" data-name="Path 2542" class="cls-2" d="M221.762,45.382c.568,2.409,1.988,4.534,2.272,7.085a14.009,14.009,0,0,1-.568,4.818c-.426,1.842-.852,3.826-1.278,5.668a16.014,16.014,0,0,0,7.1-3.543,27.56,27.56,0,0,0,9.8-25.931,39.329,39.329,0,0,0-2.414-7.935,18.123,18.123,0,0,0-2.983-5.668,7.017,7.017,0,0,0-5.4-2.976,8.194,8.194,0,0,0-6.391,3.684,8.63,8.63,0,0,0-1.7,4.818c0,1.7.71,7.652,2.272,8.36a4.107,4.107,0,0,1,5.823,2.126c1.278,3.543-1.846,4.251-3.977,5.385C221.9,42.689,221.194,42.689,221.762,45.382Z" transform="translate(-172.338 -12.579)"/>
      <path id="Path_2543" data-name="Path 2543" class="cls-2" d="M239.127,30.793c1.562,1.275,3.409,2.126,4.829,3.543s2.414,3.543,1.562,5.526A9.187,9.187,0,0,1,243.1,42.7a4.233,4.233,0,0,0-1.562,3.259,4.9,4.9,0,0,0,1.136,2.267c1.278,1.842,2.272,3.968,1.846,6.093a6.323,6.323,0,0,1-2.983,4.109,8.058,8.058,0,0,1-5.113.85,21.593,21.593,0,0,0-2.983-.425c-2.7.142-4.829,2.551-7.527,2.834a4.9,4.9,0,0,1-4.119-1.559,5.13,5.13,0,0,1-1.278-4.251c.426-2.409,2.556-4.251,4.545-5.668,1.988-1.559,4.119-3.4,4.4-5.81.284-1.842-.71-3.684-.426-5.526.284-2.692,2.84-4.676,3.409-7.227.284-1.417-.142-5.243,2.13-5.243C236.286,26.542,237.849,29.8,239.127,30.793Z" transform="translate(-172.234 -8.618)"/>
      <path id="Path_2544" data-name="Path 2544" class="cls-2" d="M221.061,28.8a26.579,26.579,0,0,1-1.7,2.551l-2.556,3.4a18.443,18.443,0,0,0,.568-6.8c0-.283-.142-.709,0-.992a2.132,2.132,0,0,1,1.278-1.417c.852-.567,2.84-2.267,3.693-1.134C222.907,25.121,221.487,27.955,221.061,28.8Z" transform="translate(-173.767 -9.606)"/>
    </g>
    <g id="Group_1422" data-name="Group 1422" transform="translate(330.632 46.922)">
      <path id="Path_2545" data-name="Path 2545" class="cls-15" d="M234.362,71.7,232.8,72.975l5.4,6.377Z" transform="translate(-232.8 -17.05)"/>
      <path id="Path_2546" data-name="Path 2546" class="cls-7" d="M337.389,129.642l-3.551-68.158S316.227,57.8,311.114,57.8c-2.84,0-7.669,1.417-11.5,2.551a14.7,14.7,0,0,0-8.379,7.085L262.4,122.557l17.753,1.7,5.965-6.66-2.983-4.534L293.929,87.7l-.142,42.935Z" transform="translate(-220.361 -22.847)"/>
      <path id="Path_2547" data-name="Path 2547" class="cls-4" d="M323.292,51.421a16.831,16.831,0,0,1-16.9,16.862c-5.113,0-8.806-5.385-11.788-8.927-2.556-2.976-4.4-3.826-4.4-7.935,0-9.352,6.959-16.721,16.333-16.721A16.68,16.68,0,0,1,323.292,51.421Z" transform="translate(-208.678 -32.479)"/>
      <path id="Path_2548" data-name="Path 2548" class="cls-2" d="M304.38,119.645H245.3L232.8,72.6h58.94Z" transform="translate(-232.8 -16.675)"/>
      <path id="Path_2549" data-name="Path 2549" class="cls-3" d="M303.918,120.02H246.682L233.9,71.7l57.8,1.275Z" transform="translate(-232.338 -17.05)"/>
      <rect id="Rectangle_519" data-name="Rectangle 519" class="cls-15" width="40.477" height="3.401" transform="translate(13.066 99.569)"/>
      <path id="Path_2550" data-name="Path 2550" class="cls-16" d="M304.425,114.045l22.582-10.769L325.161,67l-3.977.283L291.927,97.891s-4.4,11.336-7.527,20.4v8.36l30.393-.567Z" transform="translate(-211.116 -19.01)"/>
      <path id="Path_2551" data-name="Path 2551" class="cls-9" d="M283.488,106.081H251.959L245,79.3l31.813.85Z" transform="translate(-227.673 -13.881)"/>
      <path id="Path_2552" data-name="Path 2552" class="cls-2" d="M290.713,115,249.1,125.628l21.162,83.036,7.243-3.684-6.249-71.417,37.21-11.619-21.588,12.328L287.3,202h6.533s18.321-66.316,20.025-66.316c1.846,0,32.523-20.4,32.523-20.4Z" transform="translate(-225.95 1.006)"/>
      <path id="Path_2553" data-name="Path 2553" class="cls-12" d="M248.536,188.994l28.973-2.126.852-9.069L247.4,184.885Z" transform="translate(-226.665 27.194)"/>
      <path id="Path_2554" data-name="Path 2554" class="cls-13" d="M294.217,64.4a44.452,44.452,0,0,0,1.846,9.636,2.961,2.961,0,0,0,.994,1.842c1.136.85,2.84.142,4.119-.709a22.157,22.157,0,0,0,5.681-5.243,10.025,10.025,0,0,0,2.272-4.393c.284-1.559,0-3.543-1.278-4.534-1.988-1.7-6.107-1.559-8.521-1.7C295.779,59.3,293.791,60.717,294.217,64.4Z" transform="translate(-207.014 -22.221)"/>
      <path id="Path_2555" data-name="Path 2555" class="cls-12" d="M264.8,194.679l5.823.708,16.475-6.235.284-12.753h-6.533l-2.983,8.077-8.806,5.385Z" transform="translate(-219.352 26.61)"/>
      <path id="Path_2556" data-name="Path 2556" class="cls-5" d="M297.578,52.959,296.3,67.129s.994,5.951,4.545,4.96,3.977-3.684,3.977-3.684l1.562-17Z" transform="translate(-206.115 -25.515)"/>
      <path id="Path_2557" data-name="Path 2557" class="cls-2" d="M312.824,46.69c2.7-.142,5.4-.283,7.811-1.417s4.4-3.543,4.4-6.093c0-2.692-2.84-5.1-5.255-4.393-.568.142-1.136.567-1.7.708a5.03,5.03,0,0,1-2.84-.283c-6.817-1.984-14.486-3.4-20.878-.142a7.386,7.386,0,0,0-2.983,2.551,10.145,10.145,0,0,0-.71,2.976c-.284,2.692-.426,5.526-.568,8.219,1.846-.992,3.693-2.126,5.539-2.976s3.125,0,5.113.425A68.825,68.825,0,0,0,312.824,46.69Z" transform="translate(-208.72 -33.133)"/>
      <path id="Path_2558" data-name="Path 2558" class="cls-17" d="M297.043,39.521a6.45,6.45,0,0,0-4.971,1.417,15.456,15.456,0,0,0-2.272,7.085,8.7,8.7,0,0,1,.284,2.692,11.209,11.209,0,0,0,.568,2.409c.994,1.417,2.556,2.409,4.119,4.251,0,.142.142.142.142.283,1.7-2.834,4.261-9.211,4.829-9.919.71-.992,3.267-3.968,2.841-5.243C302.156,41.08,298.179,39.663,297.043,39.521Z" transform="translate(-208.846 -30.499)"/>
      <path id="Path_2559" data-name="Path 2559" class="cls-4" d="M296.44,44.509c-.142-.142-.284-.425-.426-.567a1.8,1.8,0,0,0-.852-.142,3.986,3.986,0,0,0-3.125.992,5.028,5.028,0,0,0-.568,1.275,9.151,9.151,0,0,0-.142,3.4c.142,1.7.994,3.684,2.7,3.968a3.034,3.034,0,0,0,2.84-.85C299.565,50.318,298.145,47.059,296.44,44.509Z" transform="translate(-208.244 -28.685)"/>
      <path id="Path_2560" data-name="Path 2560" class="cls-2" d="M316.314,52.156a5.71,5.71,0,0,1,2.7-.142,1.971,1.971,0,0,1,1.7,1.842c0,.425-.142.85-.142,1.275-.284,1.275.284,2.692.71,3.968.994,2.692,1.7,6.093,0,8.5-1.562,2.267-4.687,2.834-7.385,2.834a21.008,21.008,0,0,1-18.463-14.028,14.013,14.013,0,0,1-.284-8.36c.284-.85.994-1.842,1.846-1.417a10.208,10.208,0,0,0,5.4,7.51C307.508,56.407,311.485,53.29,316.314,52.156Z" transform="translate(-206.813 -27.547)"/>
      <g id="Group_1421" data-name="Group 1421" transform="translate(1.562 54.65)">
        <path id="Path_2561" data-name="Path 2561" class="cls-2" d="M235.746,73.117l54.821,1.275L301.929,118.6H247.676l-11.93-45.486M233.9,71.7l12.782,48.462h57.094L291.7,73.117,233.9,71.7Z" transform="translate(-233.9 -71.7)"/>
      </g>
      <path id="Path_2562" data-name="Path 2562" class="cls-3" d="M323.1,106.8H242v-3.4h81.1a1.639,1.639,0,0,1,1.7,1.7h0A1.725,1.725,0,0,1,323.1,106.8Z" transform="translate(-228.934 -3.831)"/>
      <path id="Path_2563" data-name="Path 2563" class="cls-9" d="M282.051,106.8H242v-3.4h40.051a1.639,1.639,0,0,1,1.7,1.7h0A1.725,1.725,0,0,1,282.051,106.8Z" transform="translate(-228.934 -3.831)"/>
      <path id="Path_2564" data-name="Path 2564" class="cls-7" d="M328.207,60.4l-14.77,38.968-37.636,4.96,1.42,7.51,48.146-1.559,13.066-34.15a8.312,8.312,0,0,0,.284-5.243,14.891,14.891,0,0,0-7.669-8.927Z" transform="translate(-214.73 -21.762)"/>
      <path id="Path_2565" data-name="Path 2565" class="cls-4" d="M281.919,94.569,261.61,83.8a2.145,2.145,0,0,0,.568,2.976c1.562,1.275,6.675,5.1,6.675,5.1v2.976c1.7,5.526,6.959,8.077,12.64,7.51l1.846-.142Z" transform="translate(-220.849 -12.005)"/>
    </g>
    <g id="Group_1423" data-name="Group 1423" transform="translate(441.074 36.358)">
      <path id="Path_2566" data-name="Path 2566" class="cls-5" d="M341.159,107.718H317.015s-.71-1.7,3.125-2.409,14.77-.992,14.77-.992l2.841-3.117,3.835.992Z" transform="translate(-307.874 5.815)"/>
      <path id="Path_2569" data-name="Path 2569" class="cls-5" d="M351.555,61.456c.71.709,1.562,1.559,2.556,1.417a2.555,2.555,0,0,0,1.278-.567A23.168,23.168,0,0,0,358.23,59.9a3.508,3.508,0,0,0,1.136-1.984,4.129,4.129,0,0,0-.284-1.275c-1.7-3.826-5.255-6.8-6.391-10.769-.568-1.842-.568-3.826-1.278-5.526-.568-1.842-2.13-3.543-3.977-3.543a6.443,6.443,0,0,0-3.125,1.134,10.809,10.809,0,0,0,.568,17.854A30.855,30.855,0,0,1,351.555,61.456Z" transform="translate(-298.244 -21.04)"/>
      <path id="Path_2567" data-name="Path 2567" class="cls-18" d="M355.648,55.45,329.8,124.883l6.391,1.559,39.767-67.591s-1.136-4.393-7.811-8.644C361.329,46.1,355.648,55.45,355.648,55.45Z" transform="translate(-302.48 -15.884)"/>
      <path id="Path_2568" data-name="Path 2568" class="cls-4" d="M357.708,33.474a16.954,16.954,0,0,0-23.292-5.1,17.274,17.274,0,0,0-7.669,13.036c-.284,2.551-.284,3.543.852,5.951s3.977,5.81,2.272,10.628a2.788,2.788,0,0,0,1.278,3.4c1.278.567,2.556-.85,3.835-.992,2.414-.142,7.243,3.543,8.948,5.1a5.684,5.684,0,0,0,2.556,1.417,3.619,3.619,0,0,0,2.414-.567c3.693-1.984,5.965-5.81,7.811-9.494,1.7-3.543,3.267-7.227,3.551-11.053A16.567,16.567,0,0,0,357.708,33.474Z" transform="translate(-303.829 -25.649)"/>
      <path id="Path_2570" data-name="Path 2570" class="cls-2" d="M334.075,28.4a16.921,16.921,0,0,0-6.675,8.644c3.267,1.559,11.5-1.984,13.776-3.259a15.9,15.9,0,0,0,7.669,14.17c2.983,1.7,6.533,2.551,9.374,4.251a26.135,26.135,0,0,0,1.562-6.377A16.1,16.1,0,0,0,357.367,33.5,16.706,16.706,0,0,0,334.075,28.4Z" transform="translate(-303.488 -25.678)"/>
      <path id="Path_2571" data-name="Path 2571" class="cls-4" d="M338.616,41.22c-.994-1.7,0-4.109,1.846-5.1a5.276,5.276,0,0,1,5.539.992,7.123,7.123,0,0,1,1.846,5.526c-.142,2.551-1.988,5.243-4.545,5.1a4.5,4.5,0,0,1-3.409-2.126,18.046,18.046,0,0,1-1.562-3.826" transform="translate(-298.94 -21.492)"/>
      <path id="Path_2572" data-name="Path 2572" class="cls-13" d="M358.256,49.626,353.427,44.1,345.9,57.987l2.7,8.927,10.084-11.336Z" transform="translate(-295.714 -17.996)"/>
      <path id="Path_2573" data-name="Path 2573" class="cls-9" d="M363.66,49.115l45.164,50.162-27.695,24.231-33.8-52c-3.409-4.96,1.846-16.012,5.255-20.972h0A7.669,7.669,0,0,1,363.66,49.115Z" transform="translate(-295.578 -16.634)"/>
      <path id="Path_2574" data-name="Path 2574" class="cls-19" d="M396.932,237.887l-12.072-68.3L370.8,108.231,398.495,84l-1.562,84.879,6.817,65.607Z" transform="translate(-285.25 -1.357)"/>
      <path id="Path_2575" data-name="Path 2575" class="cls-2" d="M399.083,84,376.359,240.012l-6.959-.992,1.988-130.789Z" transform="translate(-285.838 -1.357)"/>
      <path id="Path_2576" data-name="Path 2576" class="cls-20" d="M361.551,199.643l18.179-.708,1.136-5.526-5.255-.708L358,197.66l.426,2.409Z" transform="translate(-290.629 43.971)"/>
      <path id="Path_2577" data-name="Path 2577" class="cls-20" d="M400.178,190.492l.426,5.385-21.02,1.275-.284-1.7,18.747-5.951Z" transform="translate(-281.678 42.637)"/>
      <path id="Path_2578" data-name="Path 2578" class="cls-4" d="M334.9,107.76H310.615s-.71-1.7,3.125-2.409,15.623-.992,15.623-.992l1.988-3.259,5.255,1.984Z" transform="translate(-310.563 5.774)"/>
      <path id="Path_2579" data-name="Path 2579" class="cls-9" d="M363.977,52.573,345.514,87.29l-22.014,38.4,7.1.283,19.6-27.065,26.132-33.158a8.961,8.961,0,0,0,2.414-11.194h0A9.048,9.048,0,0,0,363.977,52.573Z" transform="translate(-305.127 -15.7)"/>
      <path id="Path_2580" data-name="Path 2580" class="cls-18" d="M362.51,92.007c-.568-7.085-2.982-28.907-2.982-28.907L352,75.853Z" transform="translate(-293.15 -10.073)"/>
    </g>
    <g id="Group_1424" data-name="Group 1424" transform="translate(288.024 175.823)">
      <path id="Path_2581" data-name="Path 2581" class="cls-4" d="M224.271,124.1c-1.278,0-11.078,4.109-11.078,4.109l7.669,63.34a46.061,46.061,0,0,1-5.823,1.842c-3.835,1.134-7.243,1.417-10.51,3.684-.284.142-.284,1.134-.426,1.417-.142.709.852.992,1.562,1.134,4.545.142,9.232.283,13.776,0,2.983-.142,5.255-1.559,7.953-2.976,1.562-.708,2.13-3.117,1.988-4.109C229.384,192.258,225.408,124.1,224.271,124.1Z" transform="translate(-202.258 -124.1)"/>
      <path id="Path_2582" data-name="Path 2582" class="cls-2" d="M216.292,177.2c4.4-.425,10.368-2.409,13.776-5.1.284,2.976-.568,5.668-6.107,7.085-6.391,1.7-13.35,3.4-19.741,1.559-.71-.142-1.42-.567-1.42-1.275a1.224,1.224,0,0,1,.426-.85c1.136-1.559,4.545-4.251,6.533-3.543.994.283,1.846,1.559,2.983,1.842A7.443,7.443,0,0,0,216.292,177.2Z" transform="translate(-202.8 -104.084)"/>
    </g>
    <g id="Group_1425" data-name="Group 1425" transform="translate(310.038 175.823)">
      <path id="Path_2583" data-name="Path 2583" class="cls-21" d="M218.3,177.4" transform="translate(-218.3 -101.874)"/>
      <path id="Path_2584" data-name="Path 2584" class="cls-4" d="M239.691,192.541c0-.283-3.977-68.441-5.113-68.441-1.278,0-11.078,4.109-11.078,4.109l7.669,63.34a59.923,59.923,0,0,0,4.261,9.777,19.877,19.877,0,0,0,7.669,7.652,1.606,1.606,0,0,0,1.136.142,1.073,1.073,0,0,0,.284-.567c.568-1.842-.284-3.826-.994-5.668C242.247,199.626,239.975,196.084,239.691,192.541Z" transform="translate(-216.115 -124.1)"/>
      <path id="Path_2585" data-name="Path 2585" class="cls-2" d="M231.125,180.844c1.988,3.684,4.4,7.368,8.237,9.069a3.618,3.618,0,0,0,1.988.425,2.431,2.431,0,0,0,1.846-1.984,4.836,4.836,0,0,0-.142-2.834,19.672,19.672,0,0,0-1.7-3.968,1.71,1.71,0,0,0-.71-.708,1.755,1.755,0,0,0-1.136.567,3.276,3.276,0,0,1-3.409,0,8.758,8.758,0,0,1-2.556-2.551c-1.42-1.984-2.7-5.526-4.687-6.66C228.142,175.176,229.7,178.293,231.125,180.844Z" transform="translate(-213.94 -104.042)"/>
    </g>
    <g id="Group_1426" data-name="Group 1426" transform="translate(214.03 202.604)">
      <ellipse id="Ellipse_109" data-name="Ellipse 109" class="cls-2" cx="4.687" cy="4.676" rx="4.687" ry="4.676" transform="translate(0 55.688)"/>
      <ellipse id="Ellipse_110" data-name="Ellipse 110" class="cls-2" cx="4.687" cy="4.676" rx="4.687" ry="4.676" transform="translate(56.81 55.688)"/>
      <path id="Path_2586" data-name="Path 2586" class="cls-2" d="M179.274,186.978a4.687,4.687,0,1,1-4.687-4.676A4.546,4.546,0,0,1,179.274,186.978Z" transform="translate(-142.631 -126.614)"/>
      <path id="Path_2587" data-name="Path 2587" class="cls-22" d="M154,203.364v-2.409a9.959,9.959,0,0,1,9.942-9.919H182.4V143" transform="translate(-149.313 -143)"/>
      <path id="Path_2588" data-name="Path 2588" class="cls-22" d="M202.047,203.364v-2.409a9.959,9.959,0,0,0-9.942-9.919H173.5V143" transform="translate(-141.119 -143)"/>
      <line id="Line_76" data-name="Line 76" class="cls-22" y1="12.328" transform="translate(31.955 48.036)"/>
      <rect id="Rectangle_520" data-name="Rectangle 520" class="cls-2" width="10.51" height="23.806" transform="translate(26.843 23.806)"/>
      <rect id="Rectangle_521" data-name="Rectangle 521" class="cls-2" width="6.675" height="27.065" transform="translate(28.547 0.425)"/>
    </g>
    <g id="Group_1427" data-name="Group 1427" transform="translate(395.252 202.604)">
      <ellipse id="Ellipse_111" data-name="Ellipse 111" class="cls-2" cx="4.687" cy="4.676" rx="4.687" ry="4.676" transform="translate(0 55.688)"/>
      <ellipse id="Ellipse_112" data-name="Ellipse 112" class="cls-2" cx="4.687" cy="4.676" rx="4.687" ry="4.676" transform="translate(56.81 55.688)"/>
      <ellipse id="Ellipse_113" data-name="Ellipse 113" class="cls-2" cx="4.687" cy="4.676" rx="4.687" ry="4.676" transform="translate(27.127 55.688)"/>
      <path id="Path_2589" data-name="Path 2589" class="cls-22" d="M281.6,203.364v-2.409a9.959,9.959,0,0,1,9.942-9.919h18.605V143" transform="translate(-276.913 -143)"/>
      <path id="Path_2590" data-name="Path 2590" class="cls-22" d="M329.647,203.364v-2.409a9.959,9.959,0,0,0-9.942-9.919H301.1V143" transform="translate(-268.719 -143)"/>
      <line id="Line_77" data-name="Line 77" class="cls-22" y1="12.328" transform="translate(31.813 48.036)"/>
      <rect id="Rectangle_522" data-name="Rectangle 522" class="cls-2" width="10.51" height="23.806" transform="translate(26.843 23.806)"/>
      <rect id="Rectangle_523" data-name="Rectangle 523" class="cls-2" width="6.675" height="27.065" transform="translate(28.547 0.425)"/>
    </g>
    <g id="Group_1428" data-name="Group 1428" transform="translate(130.094 149.892)">
      <rect id="Rectangle_524" data-name="Rectangle 524" class="cls-23" width="324.24" height="51.296" transform="translate(12.64 5.101)"/>
      <rect id="Rectangle_525" data-name="Rectangle 525" class="cls-2" width="5.397" height="130.648" transform="translate(13.066 5.526)"/>
      <rect id="Rectangle_526" data-name="Rectangle 526" class="cls-2" width="5.397" height="130.648" transform="translate(335.034 5.526)"/>
      <path id="Path_2591" data-name="Path 2591" class="cls-24" d="M428.559,139.641,100.2,109.6H428.559Z" transform="translate(-87.986 -104.215)"/>
      <rect id="Rectangle_527" data-name="Rectangle 527" class="cls-25" width="352.645" height="8.644"/>
    </g>
  </g>
</svg>
