<svg xmlns="http://www.w3.org/2000/svg" xmlns:xlink="http://www.w3.org/1999/xlink" viewBox="0 0 90 90">
  <defs>
    <style>
      .cls-1 {
        fill: url(#linear-gradient);
      }

      .cls-2 {
        fill: #1abffe;
      }

      .cls-3 {
        fill: #a1deff;
      }

      .cls-4 {
        fill: #46debf;
      }

      .cls-5 {
        fill: #ff8820;
      }
    </style>
    <linearGradient id="linear-gradient" x1="0.5" x2="0.5" y2="1" gradientUnits="objectBoundingBox">
      <stop offset="0" stop-color="#f1f3f8"/>
      <stop offset="1" stop-color="#f1f3f8" stop-opacity="0"/>
    </linearGradient>
  </defs>
  <g id="_1" data-name="1" transform="translate(-836 -1819)">
    <path id="Path_653" data-name="Path 653" class="cls-1" d="M67.417,0c24.82,0,22.47,20.147,22.47,45S47.3,90,22.477,90,.007,69.853.007,45,42.6,0,67.417,0Z" transform="translate(836.053 1819)"/>
    <g id="settings" transform="translate(835.478 1829)">
      <path id="Path_2592" data-name="Path 2592" class="cls-2" d="M54.189,22.453a25.018,25.018,0,0,0-2.333-5.821l2-4.657-7-6.819-4.667,2a22.513,22.513,0,0,0-5.833-2.329L34.689,0H24.855L23.022,4.823a25.131,25.131,0,0,0-5.833,2.329l-4.667-2L5.689,11.975l2,4.657a22.412,22.412,0,0,0-2.333,5.821L.522,24.283V34.1l4.833,1.83a25.018,25.018,0,0,0,2.333,5.821l-2,4.657,7,6.819,4.667-2a22.513,22.513,0,0,0,5.833,2.329l1.833,4.823h9.667l1.833-4.823a25.131,25.131,0,0,0,5.833-2.329l4.667,2,7-6.819-2-4.657a22.412,22.412,0,0,0,2.333-5.821l4.833-1.83V24.283Zm-24.5,18.628a11.975,11.975,0,1,1,12-11.975A11.938,11.938,0,0,1,29.689,41.081Z"/>
      <g id="Group_1430" data-name="Group 1430" transform="translate(11.772 11.227)">
        <path id="Path_2593" data-name="Path 2593" class="cls-3" d="M125.134,124.568a11.888,11.888,0,0,1-16.833,0l-4.333,4.324a18.012,18.012,0,0,0,25.5-25.447l-4.333,4.324A11.828,11.828,0,0,1,125.134,124.568Z" transform="translate(-98.717 -98.206)"/>
        <path id="Path_2594" data-name="Path 2594" class="cls-3" d="M76.3,75.77a18.042,18.042,0,0,0,0,25.447l4.333-4.324a11.891,11.891,0,0,1,16.833-16.8L101.8,75.77A18.134,18.134,0,0,0,76.3,75.77Z" transform="translate(-71.053 -70.531)"/>
      </g>
      <path id="Path_2595" data-name="Path 2595" class="cls-4" d="M223.886,351.093a8.056,8.056,0,0,0,0-2.827l1.667-1.663-1.667-4.158h-2.333a22.6,22.6,0,0,0-2-2V338.12l-4.167-1.663-1.667,1.663a8.105,8.105,0,0,0-2.833,0l-1.667-1.663-4.167,1.663v2.329a22.611,22.611,0,0,0-2,2H200.72l-1.667,4.158,1.667,1.663a8.056,8.056,0,0,0,0,2.827l-1.667,1.663,1.667,4.158h2.333a22.6,22.6,0,0,0,2,2v2.329l4.167,1.663,1.667-1.663a8.105,8.105,0,0,0,2.833,0l1.667,1.663,4.167-1.663V358.91a22.606,22.606,0,0,0,2-2h2.333l1.667-4.158Zm-13.333,3.493a5.376,5.376,0,1,1,7-2.994A5.315,5.315,0,0,1,210.553,354.586Z" transform="translate(-166.864 -282.902)"/>
      <path id="Path_2596" data-name="Path 2596" class="cls-5" d="M360.767,214.212a8.056,8.056,0,0,0,0-2.827l1.667-1.663-1.667-4.158h-2.333a22.606,22.606,0,0,0-2-2v-2.329l-4.167-1.663-1.667,1.663a8.105,8.105,0,0,0-2.833,0l-1.667-1.663-4.167,1.663v2.329a22.6,22.6,0,0,0-2,2H337.6l-1.667,4.158,1.667,1.663a8.057,8.057,0,0,0,0,2.827l-1.667,1.663,1.667,4.158h2.333a22.6,22.6,0,0,0,2,2v2.329l4.167,1.663,1.667-1.663a8.106,8.106,0,0,0,2.833,0l1.667,1.663,4.167-1.663v-2.329a22.6,22.6,0,0,0,2-2h2.333l1.667-4.158Zm-13.5,3.659a5.376,5.376,0,1,1,7-2.994A5.223,5.223,0,0,1,347.267,217.871Z" transform="translate(-281.912 -167.809)"/>
    </g>
  </g>
</svg>
