<svg xmlns="http://www.w3.org/2000/svg" viewBox="0 0 166.395 118.411">
  <defs>
    <style>
      .cls-1 {
        fill: #ffbb80;
      }

      .cls-2 {
        fill: #31a7db;
      }

      .cls-3 {
        fill: #293557;
      }

      .cls-4 {
        fill: #253152;
      }

      .cls-5 {
        fill: #303c5e;
      }

      .cls-6 {
        fill: #f4ad70;
      }

      .cls-7 {
        fill: #66efa2;
      }

      .cls-8 {
        fill: #47df89;
      }

      .cls-9 {
        fill: none;
        stroke: #e7eaf4;
        stroke-width: 2px;
      }
    </style>
  </defs>
  <g id="_1" data-name="1" transform="translate(-46.345 0.074)">
    <g id="Group_1536" data-name="Group 1536" transform="translate(115.087 103.163)">
      <path id="Path_2711" data-name="Path 2711" class="cls-1" d="M5.239,4.032C2.392,2.709-3.075-2.624-8.438-7.5L-9.777-3.9l8.619,7.956c1.908.8,4.956.913,6.4-.023" transform="translate(9.777 7.504)"/>
    </g>
    <g id="Group_1537" data-name="Group 1537" transform="translate(123.565 114.358)">
      <path id="Path_2712" data-name="Path 2712" class="cls-2" d="M2.105,0A11.129,11.129,0,0,1-3.929.268c.032.626.049,2.3.069,2.895a.845.845,0,0,0,.746.81s13.256.088,13.235-.39C9.972.215,3.048.547,2.105,0" transform="translate(3.929)"/>
    </g>
    <g id="Group_1538" data-name="Group 1538" transform="translate(131.431 103.163)">
      <path id="Path_2713" data-name="Path 2713" class="cls-1" d="M5.239,4.032C2.392,2.709-3.075-2.624-8.439-7.5L-9.777-3.9l8.619,7.956c1.908.8,4.955.913,6.4-.023" transform="translate(9.777 7.504)"/>
    </g>
    <g id="Group_1539" data-name="Group 1539" transform="translate(139.907 114.358)">
      <path id="Path_2714" data-name="Path 2714" class="cls-2" d="M2.105,0A11.129,11.129,0,0,1-3.929.268c.032.626.049,2.3.069,2.895a.845.845,0,0,0,.746.81s13.256.088,13.236-.39C9.972.215,3.048.547,2.105,0" transform="translate(3.929)"/>
    </g>
    <g id="Group_1540" data-name="Group 1540" transform="translate(72.403 62.924)">
      <path id="Path_2715" data-name="Path 2715" class="cls-3" d="M12.619,9.414c1.822,1.842,18.254,14.725,26.494,20.4a11.049,11.049,0,0,0,2.708-2.68c-5.749-6.5-18.056-21.207-20.978-24.248C17.572-1.829-6.424-15.007-11.19-16.754c-5.142-1.883-10.493-.169-11.957,3.828s1.153,9.449,6.3,11.332c3.325,1.219,28.24,9.762,29.47,11.008" transform="translate(23.549 17.519)"/>
    </g>
    <g id="Group_1541" data-name="Group 1541" transform="translate(72.555 63.074)">
      <path id="Path_2716" data-name="Path 2716" class="cls-4" d="M5.032.58c-.863-.4-1.571-.713-2.064-.895C-2.173-2.2-7.527-.484-8.987,3.514s1.152,9.449,6.294,11.332c1.668.612,8.774,3.067,15.6,5.521A42.8,42.8,0,0,1,5.032.58" transform="translate(9.391 1.08)"/>
    </g>
    <g id="Group_1542" data-name="Group 1542" transform="translate(66.205 69.016)">
      <path id="Path_2717" data-name="Path 2717" class="cls-5" d="M11.993,5.055C9.93,2.081-.377-4.257-8.9-8.973a3.547,3.547,0,0,0-3.787.249c-2.531,1.8-5.187,3.447-7.825,5.1A3.472,3.472,0,0,0-22.133-.369c.029.329.052.658.068.992.018.417-.307.3-.315.707C-14.49,4.1,2.759,10.563,3.77,11.585,5.591,13.427,22.162,26.559,30.4,32.229a7.865,7.865,0,0,0,3.514-2.461c-5.749-6.5-19-21.671-21.924-24.713" transform="translate(22.38 9.406)"/>
    </g>
    <g id="Group_1543" data-name="Group 1543" transform="translate(58.879 31.167)">
      <path id="Path_2718" data-name="Path 2718" class="cls-6" d="M2.351.393c9.916,9.2,31.054,10.2,44.537,9.693a1.141,1.141,0,0,1,.33,2.255c-15.853,3.044-37.03,3.842-49.965-5.821C-6.968,3.368-2.2-3.037,2.026.121a4.016,4.016,0,0,1,.326.272" transform="translate(4.388 0.731)"/>
    </g>
    <g id="Group_1544" data-name="Group 1544" transform="translate(58.943 31.266)">
      <path id="Path_2719" data-name="Path 2719" class="cls-7" d="M5.133,1.841c-1.451-.715-7.1-3.51-8.229-4.388l-.057-.045c-.091-.071-.184-.137-.283-.2a3.984,3.984,0,0,0-5.509,1.2A3.993,3.993,0,0,0-7.75,3.921,50.129,50.129,0,0,0-2.767,6.73c1.138.55,2.3,1.05,3.474,1.525.2-.835,4.437-6.409,4.426-6.414" transform="translate(9.579 3.426)"/>
    </g>
    <g id="Group_1545" data-name="Group 1545" transform="translate(47.769 31.383)">
      <path id="Path_2720" data-name="Path 2720" class="cls-1" d="M12.591,11.432-5.061,27.094c-2.129-.767-4.084-8.623-7.523-15.775C-16.3,3.586-20.665-4.8-23.047-9.322a3.9,3.9,0,0,1,1.531-5.206l11.061-6.257A3.753,3.753,0,0,1-5.5-19.629C-3.218-16.273-.034-8.477,3.85-2.759c3.943,5.8,8.741,14.192,8.741,14.192" transform="translate(23.496 21.274)"/>
    </g>
    <g id="Group_1546" data-name="Group 1546" transform="translate(47.655 31.319)">
      <path id="Path_2721" data-name="Path 2721" class="cls-8" d="M4.626.173l-1.8,1.016A4.772,4.772,0,0,1,.275,6.025a4.758,4.758,0,0,1-5.457-.306l-1.64.929a3.56,3.56,0,0,0-1.4,4.758c2.344,4.443,6.816,13.028,10.616,20.93,3.439,7.15,5.176,14.622,7.523,15.775,7.865-5.428,17.888-11,18.817-15.953,0,0-12.236-18.081-19.318-30.867A3.506,3.506,0,0,0,4.626.173" transform="translate(8.633 0.321)"/>
    </g>
    <g id="Group_1547" data-name="Group 1547" transform="translate(109.069 39.745)">
      <path id="Path_2722" data-name="Path 2722" class="cls-6" d="M1.553,1.59s-3.043,1.384-3.774.593S-3.294.729-2.187-.376a11.335,11.335,0,0,1,4.5-2.441,8.662,8.662,0,0,1,4.088.243c.879.789-1.625,1.161-2.831,1.4S1.037-.545,1.315,0,3.866-.082,4.393.439,1.553,1.59,1.553,1.59" transform="translate(2.898 2.959)"/>
    </g>
    <g id="Group_1548" data-name="Group 1548" transform="translate(47.792 22.175)">
      <path id="Path_2723" data-name="Path 2723" class="cls-5" d="M1.778,2.866l-.24.045A3.365,3.365,0,0,1-2.393.229l-.925-4.89L.227-5.333Z" transform="translate(3.318 5.333)"/>
    </g>
    <g id="Group_1549" data-name="Group 1549" transform="translate(52.297 29.305)">
      <path id="Path_2724" data-name="Path 2724" class="cls-1" d="M2.156,2.071-3.442,4.4l-.582-.681.3-7.278L.832-3.854Z" transform="translate(4.024 3.854)"/>
    </g>
    <g id="Group_1550" data-name="Group 1550" transform="translate(52.478 29.304)">
      <path id="Path_2725" data-name="Path 2725" class="cls-6" d="M1.631,0-2.923.292l-.121,2.923c1.209.935,2.611,1.942,4.23,1.634a2.867,2.867,0,0,0,1.37-.735Z" transform="translate(3.044)"/>
    </g>
    <g id="Group_1551" data-name="Group 1551" transform="translate(48.84 20.333)">
      <path id="Path_2726" data-name="Path 2726" class="cls-1" d="M2.656,4.278h0A5.532,5.532,0,0,1-3.809-.134l-1.147-6.06L4.368-7.961A48.284,48.284,0,0,1,5.187.092c-.055,2.494-1,3.9-2.531,4.186" transform="translate(4.956 7.961)"/>
    </g>
    <g id="Group_1552" data-name="Group 1552" transform="translate(48.783 24.186)">
      <path id="Path_2727" data-name="Path 2727" class="cls-5" d="M.611,0-1.141.332l.151.795L.762.795Z" transform="translate(1.141)"/>
    </g>
    <g id="Group_1553" data-name="Group 1553" transform="translate(48.466 24.799)">
      <path id="Path_2728" data-name="Path 2728" class="cls-1" d="M1.007.669c.224,1.182-.16,2.248-.859,2.38S-1.612,1.778-1.836.6A1.411,1.411,0,0,1-.661-1.232c.7-.132,1.444.718,1.668,1.9" transform="translate(1.878 1.246)"/>
    </g>
    <g id="Group_1554" data-name="Group 1554" transform="translate(47.768 17.271)">
      <path id="Path_2729" data-name="Path 2729" class="cls-5" d="M4.017,1.9A5.34,5.34,0,0,0,3.712-.451S3.237-3.164,2.079-3.478c-1.054-.286-2.585.627-3.591,1.055a19.322,19.322,0,0,1-3.145.595A3.49,3.49,0,0,0-7.436,2.247l.14.733,1.818,1.135.713,1.341.124-.023A1.152,1.152,0,0,0-3.713,4.16,1.818,1.818,0,0,1-2.34,2.041L.454,1.514c1.7-.323,2.757.423,3,1.7L3.567,4.3Z" transform="translate(7.497 3.532)"/>
    </g>
    <g id="Group_1555" data-name="Group 1555" transform="translate(74.838 0.845)">
      <path id="Path_2730" data-name="Path 2730" class="cls-9" d="M47.976,0-89.531,58.935" transform="translate(89.531)"/>
    </g>
    <g id="Group_1556" data-name="Group 1556" transform="translate(46.562 38.334)">
      <path id="Path_2731" data-name="Path 2731" class="cls-1" d="M5.606,3.22C10.52,6.041,15.16,6.882,20.153,7.39,28.765,8.432,44.038,3.179,42.5,3.646a1.141,1.141,0,0,1,.866,2.1c-6.782,3.608-16.042,7.392-23.2,7.446l-3.632.066C4.627,12.813-5.348,6.656-9.744.364a3.983,3.983,0,0,1,.981-5.542C-4.3-8.3-3.17-1.779,5.606,3.22" transform="translate(10.461 5.992)"/>
    </g>
    <g id="Group_1557" data-name="Group 1557" transform="translate(46.345 38.126)">
      <path id="Path_2732" data-name="Path 2732" class="cls-7" d="M4.547,2.449A47.494,47.494,0,0,1-1.091-2.863l.075.092-2.2-1.662S-5.559-5.3-7.763-2.454c-1.762,2.272.247,4.735.247,4.735C-7.246,2.63-6.041,5.74.421,9.393c0,0,4.6-6.566,4.127-6.944" transform="translate(8.486 4.557)"/>
    </g>
    <g id="Group_1558" data-name="Group 1558" transform="translate(98.646 45.751)">
      <path id="Path_2733" data-name="Path 2733" class="cls-1" d="M1.2.33S-2.074,1-2.2,2.074-2.214,3.882-.667,4.123a11.345,11.345,0,0,0,5.076-.678A8.717,8.717,0,0,0,7.571.841c.247-1.158-2,.017-3.11.533s-2.424.987-2.52.38S4.053.321,4.173-.411,1.2.33,1.2.33" transform="translate(2.238 0.615)"/>
    </g>
  </g>
</svg>
