<svg xmlns="http://www.w3.org/2000/svg" xmlns:xlink="http://www.w3.org/1999/xlink" viewBox="0 0 295 255.603">
  <defs>
    <style>
      .cls-1 {
        opacity: 0.5;
      }

      .cls-1, .cls-2 {
        fill: url(#linear-gradient);
      }
    </style>
    <linearGradient id="linear-gradient" x1="0.5" x2="0.5" y2="1" gradientUnits="objectBoundingBox">
      <stop offset="0" stop-color="#24ca6c"/>
      <stop offset="1" stop-color="#47dfc0"/>
    </linearGradient>
  </defs>
  <g id="Group_670" data-name="Group 670" transform="translate(-234.807 -1705.995)">
    <path id="Path_87" data-name="Path 87" class="cls-1" d="M123.973-107.991c26.077,3.47,48.619,10.255,66.833,20.583,22.108,12.535,37.922,30.939,51.358,59.9,24.209,52.191,48.667,133.056-7.946,163.993-26.608,14.54-65.659,6.327-104.413,0C86.6,129.436,43.613,121.841,15.713,96.246-36.927,47.953-35.314-32.432-5.144-64.729c10.608-11.356,16.671-26.864,48.95-37.679S91.685-112.288,123.973-107.991Z" transform="translate(261 1817)"/>
    <path id="Path_122" data-name="Path 122" class="cls-2" d="M123.973-107.991c26.077,3.47,30.619,21.255,48.833,31.583,22.108,12.535,55.922,19.939,69.358,48.9,24.209,52.191,48.667,133.056-7.946,163.993-26.608,14.54-59.659-6.571-98.413-12.9-43.207-7.054-92.194-1.75-120.093-27.346C-36.927,47.953-35.314-32.432-5.144-64.729c10.608-11.356,26.671-6.864,58.95-17.679S91.685-112.288,123.973-107.991Z" transform="translate(261 1817)"/>
  </g>
</svg>
