<svg xmlns="http://www.w3.org/2000/svg" xmlns:xlink="http://www.w3.org/1999/xlink" viewBox="0 0 295 255.343">
  <defs>
    <style>
      .cls-1 {
        opacity: 0.5;
      }

      .cls-1, .cls-2 {
        fill: url(#linear-gradient);
      }
    </style>
    <linearGradient id="linear-gradient" x1="0.5" x2="0.5" y2="1" gradientUnits="objectBoundingBox">
      <stop offset="0" stop-color="#ff8820"/>
      <stop offset="1" stop-color="#f1e213"/>
    </linearGradient>
  </defs>
  <g id="Group_670" data-name="Group 670" transform="translate(-234.807 -1707.591)">
    <path id="Path_121" data-name="Path 121" class="cls-1" d="M123.973-107.991c26.077,3.47,51.619,6.255,69.833,16.583,22.108,12.535,34.922,34.939,48.358,63.9,24.209,52.191,48.667,133.056-7.946,163.993-29.155,15.933-76.188,8.751-118.413,0-39.631-8.214-74.563-16.822-100.093-40.244C-36.927,47.953-35.314-32.432-5.144-64.729,18.483-90.022,65.374-115.789,123.973-107.991Z" transform="translate(261 1817)"/>
    <path id="Path_87" data-name="Path 87" class="cls-2" d="M123.973-107.991c26.077,3.47,34.619,32.934,52.833,43.262,22.108,12.535,51.922,8.259,65.358,37.225,24.209,52.191,48.667,133.056-7.946,163.993-29.155,15.933-68.021-12.147-110.246-20.9-39.631-8.214-82.729,4.076-108.26-19.346C-36.927,47.953-35.314-32.432-5.144-64.729,18.483-90.022,65.374-115.789,123.973-107.991Z" transform="translate(261 1817)"/>
  </g>
</svg>
