<svg xmlns="http://www.w3.org/2000/svg" xmlns:xlink="http://www.w3.org/1999/xlink" viewBox="0 0 293.032 224.413">
  <defs>
    <style>
      .cls-1 {
        opacity: 0.5;
      }

      .cls-1, .cls-2 {
        fill: url(#linear-gradient);
      }
    </style>
    <linearGradient id="linear-gradient" x1="0.5" x2="0.5" y2="1" gradientUnits="objectBoundingBox">
      <stop offset="0" stop-color="#1abffe"/>
      <stop offset="1" stop-color="#26e7ee"/>
    </linearGradient>
  </defs>
  <g id="Group_670" data-name="Group 670" transform="translate(-234.784 -1732.735)">
    <path id="Path_120" data-name="Path 120" class="cls-1" d="M117.807-78.409c58.6,7.8,100.149-1.286,124.358,50.9,13.1,28.235,24.273,55.361,24.642,88.1.309,27.477-6.6,61.7-32.588,75.9-27.231,14.881-64.7-19.987-104.413-26.9C87.539,102.235,43.034,121.31,15.713,96.246a129.544,129.544,0,0,1-38.2-65.724C-31.452-6.816-23.7-44.867-5.144-64.729,18.483-90.022,59.207-86.206,117.807-78.409Z" transform="translate(261 1817)"/>
    <path id="Path_87" data-name="Path 87" class="cls-2" d="M111.807-64.729c58.6,7.8,106.149-14.966,130.358,37.225,13.1,28.235-8.314,52.361-7.946,85.1.309,27.477,25.985,64.7,0,78.9-27.231,14.881-64.7-19.987-104.413-26.9C87.539,102.235,43.034,121.31,15.713,96.246a129.544,129.544,0,0,1-38.2-65.724C-31.452-6.816-23.7-44.867-5.144-64.729,18.483-90.022,53.207-72.527,111.807-64.729Z" transform="translate(261 1817)"/>
  </g>
</svg>
