<svg xmlns="http://www.w3.org/2000/svg" viewBox="0 0 17 21">
  <defs>
    <style>
      .cls-1 {
        fill: #303c5e;
      }
    </style>
  </defs>
  <g id="android-logo" transform="translate(-42.544)">
    <g id="Group_1728" data-name="Group 1728" transform="translate(42.544 0)">
      <path id="Path_2859" data-name="Path 2859" class="cls-1" d="M43.787,179.141a1.174,1.174,0,0,0-.881.379,1.268,1.268,0,0,0-.362.909v5.427a1.283,1.283,0,0,0,.362.921,1.174,1.174,0,0,0,.881.379,1.156,1.156,0,0,0,.876-.379,1.3,1.3,0,0,0,.356-.921v-5.427a1.267,1.267,0,0,0-.362-.909A1.161,1.161,0,0,0,43.787,179.141Z" transform="translate(-42.544 -172.339)"/>
      <path id="Path_2860" data-name="Path 2860" class="cls-1" d="M130.982,1.931l.857-1.653a.17.17,0,0,0-.06-.252.164.164,0,0,0-.241.076l-.869,1.666a5.816,5.816,0,0,0-4.854,0L124.945.1A.164.164,0,0,0,124.7.026a.17.17,0,0,0-.06.252l.857,1.653a5.381,5.381,0,0,0-2.077,1.937,5.054,5.054,0,0,0-.773,2.72h11.168a5.055,5.055,0,0,0-.773-2.72A5.405,5.405,0,0,0,130.982,1.931Zm-4.956,2.4a.443.443,0,0,1-.332.145.423.423,0,0,1-.326-.145.52.52,0,0,1,0-.694.425.425,0,0,1,.326-.145.444.444,0,0,1,.332.145.5.5,0,0,1,0,.694Zm5.089,0a.424.424,0,0,1-.326.145.443.443,0,0,1-.332-.145.5.5,0,0,1,0-.694.444.444,0,0,1,.332-.145.425.425,0,0,1,.326.145.52.52,0,0,1,0,.694Z" transform="translate(-119.741 0)"/>
      <path id="Path_2861" data-name="Path 2861" class="cls-1" d="M123.971,193.855a1.371,1.371,0,0,0,.386.984,1.254,1.254,0,0,0,.942.4h.894l.012,2.865a1.284,1.284,0,0,0,.362.921,1.161,1.161,0,0,0,.869.379,1.174,1.174,0,0,0,.881-.379,1.284,1.284,0,0,0,.362-.921v-2.865h1.666v2.865a1.284,1.284,0,0,0,.362.921,1.215,1.215,0,0,0,1.763,0,1.283,1.283,0,0,0,.362-.921v-2.865h.906a1.242,1.242,0,0,0,.93-.4,1.371,1.371,0,0,0,.386-.984V185.45H123.971Z" transform="translate(-121.013 -178.408)"/>
      <path id="Path_2862" data-name="Path 2862" class="cls-1" d="M443.607,179.141a1.17,1.17,0,0,0-.869.372,1.263,1.263,0,0,0-.362.915v5.427a1.283,1.283,0,0,0,.362.921,1.161,1.161,0,0,0,.869.379,1.174,1.174,0,0,0,.881-.379,1.283,1.283,0,0,0,.362-.921v-5.427a1.263,1.263,0,0,0-.362-.915A1.184,1.184,0,0,0,443.607,179.141Z" transform="translate(-427.851 -172.339)"/>
    </g>
  </g>
</svg>
