<svg xmlns="http://www.w3.org/2000/svg" viewBox="0 0 18 21">
  <defs>
    <style>
      .cls-1 {
        fill: #303c5e;
      }
    </style>
  </defs>
  <path id="Apple_logo_black" class="cls-1" d="M34.393,20.364a11.362,11.362,0,0,1-1.149,2.03,10.359,10.359,0,0,1-1.48,1.758,2.9,2.9,0,0,1-1.9.823,4.837,4.837,0,0,1-1.757-.412,5.117,5.117,0,0,0-1.892-.411,5.291,5.291,0,0,0-1.945.411A5.308,5.308,0,0,1,22.587,25a2.726,2.726,0,0,1-1.945-.845,10.88,10.88,0,0,1-1.548-1.82,12.5,12.5,0,0,1-1.637-3.2,11.519,11.519,0,0,1-.687-3.808A6.86,6.86,0,0,1,17.7,11.69a5.4,5.4,0,0,1,1.946-1.935,5.3,5.3,0,0,1,2.631-.73,6.288,6.288,0,0,1,2.035.465,6.632,6.632,0,0,0,1.614.467,9.787,9.787,0,0,0,1.79-.549,6.01,6.01,0,0,1,2.433-.425A5.192,5.192,0,0,1,34.2,11.078a4.546,4.546,0,0,0-.906,7.359,4.877,4.877,0,0,0,1.48.954Q34.592,19.9,34.393,20.364ZM30.269,4.419A4.437,4.437,0,0,1,29.1,7.358a4.007,4.007,0,0,1-3.307,1.6,3.214,3.214,0,0,1-.025-.4,4.561,4.561,0,0,1,1.24-2.969,4.767,4.767,0,0,1,1.51-1.114A4.564,4.564,0,0,1,30.247,4a3.749,3.749,0,0,1,.022.42Z" transform="translate(-16.77 -3.999)"/>
</svg>
