<svg xmlns="http://www.w3.org/2000/svg" viewBox="0 0 21 14">
  <defs>
    <style>
      .cls-1 {
        fill: #303c5e;
      }
    </style>
  </defs>
  <path id="Microsoft_logo_azure" class="cls-1" d="M12.469,7.9a1.469,1.469,0,0,0-1.247.8H3.478A2.423,2.423,0,0,1,1.116,6.237,2.423,2.423,0,0,1,3.478,3.782H4.594a3.531,3.531,0,0,1,.2-.8c.066-.066.066-.2.131-.265A3.119,3.119,0,0,1,7.678,1.062a3.189,3.189,0,0,1,2.559,1.327,4.879,4.879,0,0,1,1.05-.332A4.074,4.074,0,0,0,7.678,0,4.291,4.291,0,0,0,3.741,2.72H3.478A3.536,3.536,0,0,0,0,6.3,3.478,3.478,0,0,0,3.478,9.82h7.809a1.321,1.321,0,0,0,1.247.8,1.34,1.34,0,0,0,1.313-1.393A1.3,1.3,0,0,0,12.469,7.9ZM16.8,5.175A4.727,4.727,0,0,0,7.875,6.3,3.805,3.805,0,0,0,5.184,7.9h5.709a1.983,1.983,0,0,1,1.641-.8,2.142,2.142,0,0,1,2.1,2.19,2.185,2.185,0,0,1-2.1,2.19,2.181,2.181,0,0,1-1.641-.8H4.528A3.812,3.812,0,0,0,8.2,14h8.531A4.3,4.3,0,0,0,21,9.621,4.386,4.386,0,0,0,16.8,5.175Z"/>
</svg>
