<svg xmlns="http://www.w3.org/2000/svg" xmlns:xlink="http://www.w3.org/1999/xlink" viewBox="0 0 90 90">
  <defs>
    <style>
      .cls-1 {
        fill: url(#linear-gradient);
      }

      .cls-2 {
        fill: #e7eaf4;
      }

      .cls-3 {
        fill: #dee1eb;
      }

      .cls-4 {
        fill: #ff8820;
      }

      .cls-5 {
        fill: #f70;
      }

      .cls-6 {
        fill: #fff;
      }

      .cls-7 {
        fill: #d0d3dd;
      }
    </style>
    <linearGradient id="linear-gradient" x1="0.5" x2="0.5" y2="1" gradientUnits="objectBoundingBox">
      <stop offset="0" stop-color="#f1f3f8"/>
      <stop offset="1" stop-color="#f1f3f8" stop-opacity="0"/>
    </linearGradient>
  </defs>
  <g id="_1" data-name="1" transform="translate(-836 -1819)">
    <path id="Path_653" data-name="Path 653" class="cls-1" d="M67.417,0c24.82,0,22.47,20.147,22.47,45S47.3,90,22.477,90,.007,69.853.007,45,42.6,0,67.417,0Z" transform="translate(836.053 1819)"/>
    <g id="css" transform="translate(805 1829)">
      <path id="Path_3090" data-name="Path 3090" class="cls-2" d="M121.667,18.75V77.656A2.316,2.316,0,0,1,119.333,80h-56A2.316,2.316,0,0,1,61,77.656V2.344A2.316,2.316,0,0,1,63.333,0H103Z" transform="translate(-25.333)"/>
      <path id="Path_3091" data-name="Path 3091" class="cls-3" d="M286.333,18.75V77.656A2.316,2.316,0,0,1,284,80H256V0h11.667Z" transform="translate(-190)"/>
      <path id="Path_3092" data-name="Path 3092" class="cls-4" d="M94,151H38a7.006,7.006,0,0,0-7,7.031v28.125a7.006,7.006,0,0,0,7,7.031H94a7.006,7.006,0,0,0,7-7.031V158.031A7.006,7.006,0,0,0,94,151Z" transform="translate(0 -127.406)"/>
      <path id="Path_3093" data-name="Path 3093" class="cls-5" d="M291,158.031v28.125a7.006,7.006,0,0,1-7,7.031H256V151h28A7.006,7.006,0,0,1,291,158.031Z" transform="translate(-190 -127.406)"/>
      <path id="Path_3094" data-name="Path 3094" class="cls-6" d="M102.667,234.438a7.023,7.023,0,0,1-7-7.031,2.34,2.34,0,0,0-2.333-2.344,2.344,2.344,0,0,1,0-4.687,2.34,2.34,0,0,0,2.333-2.344,7.023,7.023,0,0,1,7-7.031,2.344,2.344,0,0,1,0,4.688,2.34,2.34,0,0,0-2.333,2.344,7.026,7.026,0,0,1-1.786,4.688,7.025,7.025,0,0,1,1.786,4.688,2.34,2.34,0,0,0,2.333,2.344,2.344,2.344,0,0,1,0,4.688Z" transform="translate(-50.667 -178.031)"/>
      <path id="Path_3095" data-name="Path 3095" class="cls-2" d="M333.333,234.438a2.344,2.344,0,0,1,0-4.687,2.34,2.34,0,0,0,2.333-2.344,7.026,7.026,0,0,1,1.786-4.687,7.026,7.026,0,0,1-1.786-4.687,2.34,2.34,0,0,0-2.333-2.344,2.344,2.344,0,0,1,0-4.687,7.023,7.023,0,0,1,7,7.031,2.34,2.34,0,0,0,2.333,2.344,2.344,2.344,0,0,1,0,4.688,2.34,2.34,0,0,0-2.333,2.344A7.023,7.023,0,0,1,333.333,234.438Z" transform="translate(-253.333 -178.031)"/>
      <ellipse id="Ellipse_196" data-name="Ellipse 196" class="cls-6" cx="2.333" cy="2.344" rx="2.333" ry="2.344" transform="translate(54.333 42.344)"/>
      <ellipse id="Ellipse_197" data-name="Ellipse 197" class="cls-2" cx="2.333" cy="2.344" rx="2.333" ry="2.344" transform="translate(73 42.344)"/>
      <path id="Path_3096" data-name="Path 3096" class="cls-6" d="M245.667,273.344A2.333,2.333,0,1,1,243.333,271,2.316,2.316,0,0,1,245.667,273.344Z" transform="translate(-177.333 -228.656)"/>
      <path id="Path_3097" data-name="Path 3097" class="cls-7" d="M348.983,14.749l-14-14.062A2.326,2.326,0,0,0,333.333,0H331V16.406a2.339,2.339,0,0,0,2.333,2.344h16.333V16.406A2.347,2.347,0,0,0,348.983,14.749Z" transform="translate(-253.333)"/>
      <path id="Path_3098" data-name="Path 3098" class="cls-2" d="M258.333,273.344A2.316,2.316,0,0,1,256,275.688V271A2.316,2.316,0,0,1,258.333,273.344Z" transform="translate(-190 -228.656)"/>
    </g>
  </g>
</svg>
