<svg xmlns="http://www.w3.org/2000/svg" xmlns:xlink="http://www.w3.org/1999/xlink" viewBox="0 0 90 90.002">
  <defs>
    <style>
      .cls-1 {
        fill: url(#linear-gradient);
      }

      .cls-2 {
        fill: #fbda80;
      }

      .cls-3 {
        fill: #f7bc18;
      }

      .cls-4 {
        fill: #edb109;
      }

      .cls-5 {
        fill: #ff8820;
      }

      .cls-6 {
        fill: #e87713;
      }

      .cls-7 {
        fill: #ffa250;
      }

      .cls-8 {
        fill: #495c92;
      }

      .cls-9 {
        fill: #ffce4a;
      }

      .cls-10 {
        fill: #303c5e;
      }

      .cls-11 {
        fill: #d09b07;
      }
    </style>
    <linearGradient id="linear-gradient" x1="0.5" x2="0.5" y2="1" gradientUnits="objectBoundingBox">
      <stop offset="0" stop-color="#f1f3f8"/>
      <stop offset="1" stop-color="#f1f3f8" stop-opacity="0"/>
    </linearGradient>
  </defs>
  <g id="_1" data-name="1" transform="translate(-836 -1819)">
    <path id="Path_653" data-name="Path 653" class="cls-1" d="M67.417,0c24.82,0,22.47,20.147,22.47,45S47.3,90,22.477,90,.007,69.853.007,45,42.6,0,67.417,0Z" transform="translate(836.053 1819)"/>
    <g id="design" transform="translate(835.994 1829)">
      <path id="Path_3053" data-name="Path 3053" class="cls-2" d="M41.55,262.676,18.627,285.6a6.987,6.987,0,0,1-9.936,0l-3.328-3.281-.047-.047v-.047L2.081,278.99a6.988,6.988,0,0,1,0-9.936s.609-.609,1.641-1.687l6.937,3.609-3.609-6.89c.984-1.031,1.879-1.879,3-3.051l3.609.281-.281-3.609c1.125-1.125,2.25-2.2,3.328-3.281l6.89,3.562-3.562-6.89c2.766-2.812,4.828-4.827,4.968-4.968l8.249,8.249Z" transform="translate(-0.001 -207.671)"/>
      <path id="Path_3054" data-name="Path 3054" class="cls-3" d="M70.213,307.222,47.289,330.145a6.987,6.987,0,0,1-9.936,0l-3.328-3.281-.047-.047v-.047l27.939-27.845Z" transform="translate(-28.664 -252.218)"/>
      <path id="Path_3055" data-name="Path 3055" class="cls-2" d="M284.576,18.6c0,.047-22.638,22.669-23.154,23.138l-8.249-8.249-8.3-8.3c.234-.281,2.25-2.25,4.968-4.968l6.89,3.609L253.126,16.9l3.328-3.328,3.609.281-.281-3.562c1.172-1.172,2.25-2.234,3.234-3.265l6.937,3.609L266.343,3.7c.937-.937,1.594-1.547,1.688-1.64a7.029,7.029,0,0,1,9.936,0l3.281,3.328.094.047,3.234,3.234A7.072,7.072,0,0,1,284.576,18.6Z" transform="translate(-206.609 0)"/>
      <path id="Path_3056" data-name="Path 3056" class="cls-3" d="M329.375,47.927c0,.047-22.638,22.669-23.154,23.138l-8.249-8.249,28.169-28.06,3.234,3.234A7.073,7.073,0,0,1,329.375,47.927Z" transform="translate(-251.408 -29.325)"/>
      <g id="Group_1745" data-name="Group 1745" transform="translate(3.72 3.696)">
        <path id="Path_3057" data-name="Path 3057" class="cls-4" d="M71.077,329.265a2.343,2.343,0,0,0,1.657-4l-4.972-4.972-3.314,3.314,4.972,4.972A2.336,2.336,0,0,0,71.077,329.265Z" transform="translate(-58.093 -273.943)"/>
        <path id="Path_3058" data-name="Path 3058" class="cls-4" d="M35.4,372.621a2.377,2.377,0,0,1-1.687.7,2.274,2.274,0,0,1-1.641-.7l-.047-.047-8.249-8.249c.844-.844,2.015-1.969,3.328-3.281l8.249,8.2.047.047A2.406,2.406,0,0,1,35.4,372.621Z" transform="translate(-23.778 -308.326)"/>
        <path id="Path_3059" data-name="Path 3059" class="cls-4" d="M118.471,289.5a2.266,2.266,0,0,1-3.281,0l-.047-.047-8.249-8.2c1.172-1.219,2.3-2.3,3.328-3.328l8.249,8.249v.047A2.265,2.265,0,0,1,118.471,289.5Z" transform="translate(-93.907 -238.196)"/>
        <path id="Path_3060" data-name="Path 3060" class="cls-4" d="M325.605,74.741a2.343,2.343,0,0,0,1.657-4L322.29,65.77l-3.314,3.314,4.972,4.971A2.336,2.336,0,0,0,325.605,74.741Z" transform="translate(-272.85 -59.19)"/>
        <path id="Path_3061" data-name="Path 3061" class="cls-4" d="M372.586,35.281a2.3,2.3,0,0,1-1.64.656,2.38,2.38,0,0,1-1.641-.609l-.047-.047-8.3-8.3c1.359-1.313,2.484-2.437,3.328-3.328l8.3,8.3c.047.047.047.047.047.094A2.382,2.382,0,0,1,372.586,35.281Z" transform="translate(-308.276 -23.657)"/>
        <path id="Path_3062" data-name="Path 3062" class="cls-4" d="M288.251,119.771a2.379,2.379,0,0,1-3.281,0h-.047l-8.249-8.3c.984-1.031,2.109-2.156,3.281-3.328l8.343,8.343A2.307,2.307,0,0,1,288.251,119.771Z" transform="translate(-237.158 -94.945)"/>
      </g>
      <path id="Path_3063" data-name="Path 3063" class="cls-5" d="M132.593,115.932l-3.609,12.983L116,132.524,68.743,85.257l1.969-8.624,3-3,3-3,8.577-1.969Z" transform="translate(-57.997 -57.936)"/>
      <path id="Path_3064" data-name="Path 3064" class="cls-6" d="M128.984,155.743,116,159.352,68.743,112.085l1.969-8.624,3-3Z" transform="translate(-57.997 -84.764)"/>
      <path id="Path_3065" data-name="Path 3065" class="cls-7" d="M152.017,152.137a2.353,2.353,0,0,1-1.64.7,2.379,2.379,0,0,1-1.688-.7L96.745,100.183a2.32,2.32,0,0,1,0-3.328,2.406,2.406,0,0,1,3.328,0l51.945,51.954A2.406,2.406,0,0,1,152.017,152.137Z" transform="translate(-81.03 -81.158)"/>
      <path id="Path_3066" data-name="Path 3066" class="cls-5" d="M152.017,155.743a2.353,2.353,0,0,1-1.64.7,2.379,2.379,0,0,1-1.688-.7L96.745,103.79a2.32,2.32,0,0,1,0-3.328Z" transform="translate(-81.03 -84.764)"/>
      <path id="Path_3067" data-name="Path 3067" class="cls-8" d="M391.105,374.542c-.375-.375-2.859-2.906-3.328-3.374l-8.3,8.3-8.3,8.3,3.375,3.374a7.072,7.072,0,0,0,9.936,0l3.328-3.328,3.281-3.328A6.987,6.987,0,0,0,391.105,374.542Z" transform="translate(-313.181 -313.172)"/>
      <path id="Path_3068" data-name="Path 3068" class="cls-2" d="M27.292,10.78l-8.249,8.3-8.3,8.3L.185,3.219A2.244,2.244,0,0,1,.7.734,2.33,2.33,0,0,1,3.185.219Z" transform="translate(0 -0.051)"/>
      <path id="Path_3069" data-name="Path 3069" class="cls-9" d="M.7,4.372,19.043,22.714l-8.3,8.3L.185,6.856A2.244,2.244,0,0,1,.7,4.372Z" transform="translate(0 -3.689)"/>
      <path id="Path_3070" data-name="Path 3070" class="cls-10" d="M387.825,432.6,384.5,435.93a7.072,7.072,0,0,1-9.936,0l-3.375-3.374,8.3-8.3Z" transform="translate(-313.182 -357.967)"/>
      <g id="Group_1746" data-name="Group 1746" transform="translate(11.97 12.086)">
        <path id="Path_3071" data-name="Path 3071" class="cls-11" d="M79.947,413.583a2.406,2.406,0,0,1,0,3.328,2.377,2.377,0,0,1-1.687.7,2.274,2.274,0,0,1-1.641-.7l-.047-.047,3.328-3.328Z" transform="translate(-76.572 -361.006)"/>
        <path id="Path_3072" data-name="Path 3072" class="cls-11" d="M163.014,330.767a2.265,2.265,0,0,1,0,3.281,2.266,2.266,0,0,1-3.281,0l-.047-.047,3.328-3.281v.047Z" transform="translate(-146.699 -291.13)"/>
        <path id="Path_3073" data-name="Path 3073" class="cls-11" d="M333.1,161.541a2.306,2.306,0,0,1-.047,3.281,2.379,2.379,0,0,1-3.281,0Z" transform="translate(-290.205 -148.386)"/>
        <path id="Path_3074" data-name="Path 3074" class="cls-11" d="M417.636,80.585a2.3,2.3,0,0,1-1.64.656,2.38,2.38,0,0,1-1.641-.609l3.328-3.281A2.382,2.382,0,0,1,417.636,80.585Z" transform="translate(-361.575 -77.351)"/>
      </g>
    </g>
  </g>
</svg>
