<svg xmlns="http://www.w3.org/2000/svg" viewBox="0 0 44 50">
  <defs>
    <style>
      .cls-1 {
        fill: #e7eaf4;
      }

      .cls-2 {
        fill: #dee1eb;
      }

      .cls-3 {
        fill: #ffcda1;
      }

      .cls-4 {
        fill: #ff8820;
      }
    </style>
  </defs>
  <g id="cloud-computing" transform="translate(0 0.002)">
    <path id="Path_3042" data-name="Path 3042" class="cls-1" d="M47.115,17.608A9.087,9.087,0,0,1,39.27,26.58c-.158.021.97.011-13.654.055l-13.35.042a8.025,8.025,0,0,1-.588-16.037,1,1,0,0,0,.9-.766A13.062,13.062,0,0,1,37.312,8.061a1.006,1.006,0,0,0,.915.617A9.052,9.052,0,0,1,47.115,17.608Zm0,0" transform="translate(-3.658)"/>
    <path id="Path_3043" data-name="Path 3043" class="cls-2" d="M241.448,17.641a9.087,9.087,0,0,1-7.845,8.972c-.158.021.97.011-13.654.055L219.863.035a12.979,12.979,0,0,1,11.781,8.059,1.006,1.006,0,0,0,.915.617A9.052,9.052,0,0,1,241.448,17.641Zm0,0" transform="translate(-197.991 -0.033)"/>
    <path id="Path_3044" data-name="Path 3044" class="cls-3" d="M41.019,117.5l-.011-3.48a4.384,4.384,0,0,0-1.537-8.527,4.48,4.48,0,0,0-4.206,2.926l-9.074.028a4.463,4.463,0,0,0-2.715-2.648l-.031-9.755a6.037,6.037,0,1,0-3.018.01l.031,9.755a4.461,4.461,0,0,0-2.7,2.665l-9.074.028a4.48,4.48,0,0,0-4.224-2.9,4.384,4.384,0,0,0-1.482,8.536l.011,3.48a4.384,4.384,0,0,0,1.536,8.527,4.384,4.384,0,0,0,1.482-8.536L6,114.132a4.457,4.457,0,0,0,2.7-2.665l9.074-.028a4.458,4.458,0,0,0,2.715,2.648l.011,3.48a4.478,4.478,0,1,0,3.018-.009l-.011-3.48a4.455,4.455,0,0,0,2.7-2.665l9.074-.028a4.459,4.459,0,0,0,2.715,2.648l.011,3.48a4.478,4.478,0,1,0,3.018-.01Zm-36.5,5.682a1.432,1.432,0,1,1,1.454-1.437A1.448,1.448,0,0,1,4.519,123.186Zm-.038-11.755a1.432,1.432,0,1,1,1.454-1.436A1.447,1.447,0,0,1,4.481,111.431ZM18.9,90.324a3.018,3.018,0,1,1,3.028,2.953A2.994,2.994,0,0,1,18.9,90.324Zm3.123,32.808a1.432,1.432,0,1,1,1.454-1.436A1.447,1.447,0,0,1,22.023,123.132Zm-.038-11.755a1.432,1.432,0,1,1,1.454-1.436A1.446,1.446,0,0,1,21.985,111.377Zm17.542,11.7a1.432,1.432,0,1,1,1.454-1.436A1.447,1.447,0,0,1,39.527,123.078Zm-.037-11.755a1.432,1.432,0,1,1,1.454-1.437A1.447,1.447,0,0,1,39.49,111.323Zm0,0" transform="translate(0 -76.151)"/>
    <path id="Path_3045" data-name="Path 3045" class="cls-4" d="M239.245,117.5l-.011-3.48A4.384,4.384,0,0,0,237.7,105.5a4.48,4.48,0,0,0-4.206,2.926l-9.074.028A4.464,4.464,0,0,0,221.7,105.8l-.031-9.755a5.914,5.914,0,0,0-1.547-11.658l.01,2.962a2.963,2.963,0,1,1,.019,5.925l.049,15.235a1.432,1.432,0,1,1,.009,2.864l.028,8.892a1.432,1.432,0,1,1,.009,2.864l.01,2.962a4.384,4.384,0,0,0,1.481-8.536l-.011-3.48a4.457,4.457,0,0,0,2.7-2.665l9.074-.028a4.46,4.46,0,0,0,2.715,2.648l.011,3.48a4.478,4.478,0,1,0,3.018-.009Zm-1.492,5.574a1.432,1.432,0,1,1,1.454-1.436A1.447,1.447,0,0,1,237.754,123.078Zm-.037-11.755a1.432,1.432,0,1,1,1.454-1.437A1.447,1.447,0,0,1,237.716,111.323Zm0,0" transform="translate(-198.226 -76.151)"/>
  </g>
</svg>
