<svg xmlns="http://www.w3.org/2000/svg" xmlns:xlink="http://www.w3.org/1999/xlink" viewBox="0 0 90 90">
  <defs>
    <style>
      .cls-1 {
        fill: url(#linear-gradient);
      }

      .cls-2 {
        fill: #ffcda1;
      }

      .cls-3 {
        fill: #ff8820;
      }

      .cls-4 {
        fill: #e8954c;
      }

      .cls-5 {
        fill: #cb6c19;
      }

      .cls-6 {
        fill: #fff;
      }

      .cls-7 {
        fill: #eef6ff;
      }

      .cls-8 {
        fill: #aa5913;
      }

      .cls-9 {
        fill: #303c5e;
        font-size: 17px;
        font-family: SegoeUI-Bold, Segoe UI;
        font-weight: 700;
      }
    </style>
    <linearGradient id="linear-gradient" x1="0.5" x2="0.5" y2="1" gradientUnits="objectBoundingBox">
      <stop offset="0" stop-color="#f1f3f8"/>
      <stop offset="1" stop-color="#f1f3f8" stop-opacity="0"/>
    </linearGradient>
  </defs>
  <g id="_1" data-name="1" transform="translate(-836 -1819)">
    <path id="Path_653" data-name="Path 653" class="cls-1" d="M67.417,0c24.82,0,22.47,20.147,22.47,45S47.3,90,22.477,90,.007,69.853.007,45,42.6,0,67.417,0Z" transform="translate(836.053 1819)"/>
    <g id="www" transform="translate(819.063 1849)">
      <path id="Path_2863" data-name="Path 2863" class="cls-2" d="M49,51.5v49.1c0,.531.966.965.966.965h78.068s.966-.434.966-.965V51.5Z" transform="translate(-32.063 -41.564)"/>
      <path id="Path_2864" data-name="Path 2864" class="cls-3" d="M52.834,100.6V51.5H49v49.1a.968.968,0,0,0,.966.965H53.8A.968.968,0,0,1,52.834,100.6Z" transform="translate(-32.063 -41.564)"/>
      <path id="Path_2866" data-name="Path 2866" class="cls-4" d="M127.068,0H50.932A1.936,1.936,0,0,0,49,1.929v8.2h80v-8.2A1.936,1.936,0,0,0,127.068,0Z" transform="translate(-32.063 0)"/>
      <g id="Group_1729" data-name="Group 1729" transform="translate(16.938)">
        <path id="Path_2867" data-name="Path 2867" class="cls-5" d="M54.767,0H50.932A1.936,1.936,0,0,0,49,1.929v8.2h3.834v-8.2A1.936,1.936,0,0,1,54.767,0Z" transform="translate(-49 0)"/>
        <path id="Path_2868" data-name="Path 2868" class="cls-5" d="M392.356,0H377.831V10.129h16.458v-8.2A1.937,1.937,0,0,0,392.356,0Z" transform="translate(-314.289 0)"/>
      </g>
      <path id="Path_2874" data-name="Path 2874" class="cls-6" d="M76.942,20.027a1.448,1.448,0,1,1,1.024-.423A1.467,1.467,0,0,1,76.942,20.027Z" transform="translate(-53.436 -13.828)"/>
      <path id="Path_2875" data-name="Path 2875" class="cls-6" d="M101.536,20.027a1.447,1.447,0,1,1,1.026-.425A1.456,1.456,0,0,1,101.536,20.027Z" transform="translate(-73.278 -13.828)"/>
      <path id="Path_2876" data-name="Path 2876" class="cls-6" d="M126.141,20.027a1.447,1.447,0,1,1,1.024-.423A1.458,1.458,0,0,1,126.141,20.027Z" transform="translate(-93.128 -13.828)"/>
      <path id="Path_2877" data-name="Path 2877" class="cls-6" d="M184.217,74.579a.581.581,0,0,0-.58-.579H139.58a.581.581,0,0,0-.58.579v5.016a.581.581,0,0,0,.58.579h44.058a.581.581,0,0,0,.58-.579Z" transform="translate(-104.671 -59.723)"/>
      <path id="Path_2878" data-name="Path 2878" class="cls-7" d="M142.834,79.595V74.579a.581.581,0,0,1,.58-.579H139.58a.581.581,0,0,0-.58.579v5.016a.581.581,0,0,0,.58.579h3.834A.581.581,0,0,1,142.834,79.595Z" transform="translate(-104.671 -59.723)"/>
      <path id="Path_2879" data-name="Path 2879" class="cls-8" d="M406.587,20.027h-4.638a1.447,1.447,0,1,1,0-2.894h4.638a1.447,1.447,0,1,1,0,2.894Z" transform="translate(-315.64 -13.828)"/>
      <text id="APP" class="cls-9" transform="translate(40.938 44)"><tspan x="0" y="0">APP</tspan></text>
    </g>
  </g>
</svg>
