<svg xmlns="http://www.w3.org/2000/svg" xmlns:xlink="http://www.w3.org/1999/xlink" viewBox="0 0 90 90">
  <defs>
    <style>
      .cls-1 {
        fill: url(#linear-gradient);
      }

      .cls-2 {
        fill: #cdd1dd;
      }

      .cls-3 {
        fill: #b9bdcb;
      }

      .cls-4 {
        fill: #f7e38b;
      }

      .cls-5 {
        fill: #e7eaf4;
      }

      .cls-6 {
        fill: #ffcf00;
      }

      .cls-7 {
        fill: #dee1eb;
      }

      .cls-8 {
        fill: #e6c11e;
      }

      .cls-9 {
        fill: #d6ae00;
      }
    </style>
    <linearGradient id="linear-gradient" x1="0.5" x2="0.5" y2="1" gradientUnits="objectBoundingBox">
      <stop offset="0" stop-color="#f1f3f8"/>
      <stop offset="1" stop-color="#f1f3f8" stop-opacity="0"/>
    </linearGradient>
  </defs>
  <g id="_1" data-name="1" transform="translate(-836 -1819)">
    <path id="Path_653" data-name="Path 653" class="cls-1" d="M67.417,0c24.82,0,22.47,20.147,22.47,45S47.3,90,22.477,90,.007,69.853.007,45,42.6,0,67.417,0Z" transform="translate(836.053 1819)"/>
    <g id="email" transform="translate(836 1829)">
      <path id="Path_3143" data-name="Path 3143" class="cls-2" d="M82.681,33.813l-7.984,24L44.228,76.25l-.937-.609L9.9,53.969l-6-20.156c.094-.094.094-.187.187-.281L41.744.562a2.409,2.409,0,0,1,3.094,0L82.494,33.531C82.587,33.625,82.587,33.719,82.681,33.813Z" transform="translate(-3.291)"/>
      <path id="Path_3144" data-name="Path 3144" class="cls-3" d="M295.391,33.813l-7.984,24L256.938,76.25,256,75.641V0a2.33,2.33,0,0,1,1.547.563L295.2,33.531C295.3,33.625,295.3,33.719,295.391,33.813Z" transform="translate(-216 0)"/>
      <path id="Path_3145" data-name="Path 3145" class="cls-4" d="M140.219,61H93.344A2.321,2.321,0,0,0,91,63.344v59.313A2.321,2.321,0,0,0,93.344,125h46.875a2.321,2.321,0,0,0,2.344-2.344V63.344A2.321,2.321,0,0,0,140.219,61Z" transform="translate(-76.781 -51.469)"/>
      <path id="Path_3146" data-name="Path 3146" class="cls-5" d="M.614,216.316A2.315,2.315,0,0,0,0,217.829v42.344A2.312,2.312,0,0,0,.6,261.7l26.009-10.259V238.923Z" transform="translate(0 -182.517)"/>
      <path id="Path_3147" data-name="Path 3147" class="cls-6" d="M281.781,63.344v59.313A2.321,2.321,0,0,1,279.438,125H256V61h23.438A2.321,2.321,0,0,1,281.781,63.344Z" transform="translate(-216 -51.469)"/>
      <path id="Path_3148" data-name="Path 3148" class="cls-7" d="M367.708,216.314l-25.993,22.607,3.73,15.652,22.279,7.125a2.313,2.313,0,0,0,.6-1.527V217.827A2.314,2.314,0,0,0,367.708,216.314Z" transform="translate(-288.322 -182.515)"/>
      <path id="Path_3149" data-name="Path 3149" class="cls-7" d="M82.681,383.8a2.335,2.335,0,0,1-1.734.8H5.634a2.335,2.335,0,0,1-1.734-.8L29.884,361l13.406,11.719L56.7,361Z" transform="translate(-3.291 -304.594)"/>
      <path id="Path_3150" data-name="Path 3150" class="cls-5" d="M295.391,383.8a2.335,2.335,0,0,1-1.734.8H256V372.719L269.406,361Z" transform="translate(-216 -304.594)"/>
      <g id="Group_1755" data-name="Group 1755" transform="translate(23.594 23.594)">
        <path id="Path_3151" data-name="Path 3151" class="cls-8" d="M183.813,153.344a2.321,2.321,0,0,1-2.344,2.344H153.344a2.344,2.344,0,0,1,0-4.687h28.125A2.321,2.321,0,0,1,183.813,153.344Z" transform="translate(-151 -151)"/>
        <path id="Path_3152" data-name="Path 3152" class="cls-8" d="M183.813,213.344a2.321,2.321,0,0,1-2.344,2.344H153.344a2.344,2.344,0,0,1,0-4.687h28.125A2.321,2.321,0,0,1,183.813,213.344Z" transform="translate(-151 -201.625)"/>
        <path id="Path_3153" data-name="Path 3153" class="cls-8" d="M183.813,273.344a2.321,2.321,0,0,1-2.344,2.344H153.344a2.344,2.344,0,0,1,0-4.687h28.125A2.321,2.321,0,0,1,183.813,273.344Z" transform="translate(-151 -252.25)"/>
      </g>
      <g id="Group_1756" data-name="Group 1756" transform="translate(40 23.594)">
        <path id="Path_3154" data-name="Path 3154" class="cls-9" d="M270.063,275.688H256V271h14.063a2.344,2.344,0,0,1,0,4.688Z" transform="translate(-256 -252.25)"/>
        <path id="Path_3155" data-name="Path 3155" class="cls-9" d="M270.063,215.688H256V211h14.063a2.344,2.344,0,0,1,0,4.688Z" transform="translate(-256 -201.625)"/>
        <path id="Path_3156" data-name="Path 3156" class="cls-9" d="M270.063,155.688H256V151h14.063a2.344,2.344,0,0,1,0,4.688Z" transform="translate(-256 -151)"/>
      </g>
    </g>
  </g>
</svg>
