<svg xmlns="http://www.w3.org/2000/svg" xmlns:xlink="http://www.w3.org/1999/xlink" viewBox="0 0 90 90">
  <defs>
    <style>
      .cls-1 {
        fill: url(#linear-gradient);
      }

      .cls-2 {
        fill: #ff8820;
      }

      .cls-3 {
        fill: #f70;
      }

      .cls-4 {
        fill: #1abffe;
      }

      .cls-5 {
        fill: #00a9e9;
      }
    </style>
    <linearGradient id="linear-gradient" x1="0.5" x2="0.5" y2="1" gradientUnits="objectBoundingBox">
      <stop offset="0" stop-color="#f1f3f8"/>
      <stop offset="1" stop-color="#f1f3f8" stop-opacity="0"/>
    </linearGradient>
  </defs>
  <g id="_1" data-name="1" transform="translate(-836 -1819)">
    <path id="Path_653" data-name="Path 653" class="cls-1" d="M67.417,0c24.82,0,22.47,20.147,22.47,45S47.3,90,22.477,90,.007,69.853.007,45,42.6,0,67.417,0Z" transform="translate(836.053 1819)"/>
    <g id="profits" transform="translate(836 1816.488)">
      <path id="Path_3615" data-name="Path 3615" class="cls-2" d="M2.344,69.529a2.328,2.328,0,0,1-1.657-.691,2.368,2.368,0,0,1,0-3.335L28.969,37.2a2.333,2.333,0,0,1,3.314,0L44.688,49.684,76,18.333a2.333,2.333,0,0,1,3.314,0,2.368,2.368,0,0,1,0,3.335L46.345,54.687a2.333,2.333,0,0,1-3.314,0L30.626,42.2,4,68.838A2.328,2.328,0,0,1,2.344,69.529Z" transform="translate(-0.001 -0.119)"/>
      <path id="Path_3616" data-name="Path 3616" class="cls-3" d="M433.719,31.651a2.35,2.35,0,0,1-2.344-2.358V22.217h-7.031a2.359,2.359,0,0,1,0-4.717h9.375a2.35,2.35,0,0,1,2.344,2.358v9.434A2.35,2.35,0,0,1,433.719,31.651Z" transform="translate(-356.063)"/>
      <path id="Path_3617" data-name="Path 3617" class="cls-4" d="M16.562,306.289.687,322.108A2.364,2.364,0,0,0,0,323.775v9.748a2.35,2.35,0,0,0,2.344,2.358H16.562l2.634-2.064V308.939Z" transform="translate(0 -243.382)"/>
      <path id="Path_3618" data-name="Path 3618" class="cls-5" d="M122.7,227.512l-2.637-5.012a2.328,2.328,0,0,0-1.657.691L106,235.674v29.593h14.062l3.32-1.966Z" transform="translate(-89.438 -172.767)"/>
      <path id="Path_3619" data-name="Path 3619" class="cls-4" d="M210.062,235.674l-12.405-12.483a2.183,2.183,0,0,0-.221-.148A2.319,2.319,0,0,0,196,222.5v42.767h14.062l2.734-3.046V239.206Z" transform="translate(-165.374 -172.767)"/>
      <path id="Path_3620" data-name="Path 3620" class="cls-5" d="M300.063,216.289,286,230.44v29.593h14.063l3.571-3.931V219.725Z" transform="translate(-241.313 -167.533)"/>
      <path id="Path_3621" data-name="Path 3621" class="cls-4" d="M376,189.405h14.219a2.35,2.35,0,0,0,2.344-2.358v-52.2a2.356,2.356,0,0,0-1.447-2.179,2.321,2.321,0,0,0-2.554.511L376,145.661Z" transform="translate(-317.25 -96.905)"/>
    </g>
  </g>
</svg>
