<svg id="layers" xmlns="http://www.w3.org/2000/svg" viewBox="0 0 50 50">
  <defs>
    <style>
      .cls-1 {
        fill: #ffcda1;
      }

      .cls-2 {
        fill: #ff8820;
      }

      .cls-3 {
        fill: #bce9f7;
      }

      .cls-4 {
        fill: #1abffe;
      }

      .cls-5 {
        fill: #06a5e2;
      }

      .cls-6 {
        fill: #f7ecbc;
      }

      .cls-7 {
        fill: #ffcf00;
      }

      .cls-8 {
        fill: #e8af00;
      }
    </style>
  </defs>
  <path id="Path_2963" data-name="Path 2963" class="cls-1" d="M50,321.859a1.5,1.5,0,0,1-.82,1.318L25.644,334.994a1.491,1.491,0,0,1-1.289,0L.82,323.178a1.469,1.469,0,0,1,0-2.637L10,316H40l9.18,4.541A1.5,1.5,0,0,1,50,321.859Z" transform="translate(0 -285.141)"/>
  <path id="Path_2964" data-name="Path 2964" class="cls-2" d="M281,321.859a1.5,1.5,0,0,1-.82,1.318l-23.535,11.816a1.6,1.6,0,0,1-.644.146V316h15l9.18,4.541A1.5,1.5,0,0,1,281,321.859Z" transform="translate(-231 -285.141)"/>
  <path id="Path_2965" data-name="Path 2965" class="cls-3" d="M50,201.859a1.5,1.5,0,0,1-.82,1.318L40,207.719l-2.959-.029-.322,1.67L25.644,214.9a1.491,1.491,0,0,1-1.289,0l-11.074-5.537-.322-1.67L10,207.719.82,203.178a1.469,1.469,0,0,1,0-2.637L10,196H40l9.18,4.541A1.5,1.5,0,0,1,50,201.859Z" transform="translate(0 -176.859)"/>
  <g id="Group_1734" data-name="Group 1734" transform="translate(20.604 19.141)">
    <path id="Path_2966" data-name="Path 2966" class="cls-4" d="M281,201.859a1.5,1.5,0,0,1-.82,1.318L271,207.719l-2.959-.029-.322,1.67L256.644,214.9a1.6,1.6,0,0,1-.644.146V196h15l9.18,4.541A1.5,1.5,0,0,1,281,201.859Z" transform="translate(-251.604 -196)"/>
    <path id="Path_2967" data-name="Path 2967" class="cls-5" d="M219.626,241.867a1.474,1.474,0,0,1-1.963.674l-2.285-1.436-2.285,1.436A1.467,1.467,0,0,1,211.8,239.9l2.93-1.758a1.49,1.49,0,0,1,1.289,0l2.93,1.758A1.482,1.482,0,0,1,219.626,241.867Z" transform="translate(-210.982 -233.898)"/>
  </g>
  <path id="Path_2968" data-name="Path 2968" class="cls-5" d="M260.248,241.866a1.474,1.474,0,0,1-1.963.674L256,241.1V238a1.6,1.6,0,0,1,.644.147l2.93,1.758A1.482,1.482,0,0,1,260.248,241.866Z" transform="translate(-231 -214.757)"/>
  <path id="Path_2969" data-name="Path 2969" class="cls-6" d="M50,13.281a1.5,1.5,0,0,1-.82,1.318L40,19.141l-2.959-.029-.322,1.67L25.644,26.318a1.491,1.491,0,0,1-1.289,0L13.281,20.781l-.322-1.67L10,19.141.82,14.6a1.469,1.469,0,0,1,0-2.637L24.356.146a1.491,1.491,0,0,1,1.289,0L49.18,11.963A1.5,1.5,0,0,1,50,13.281Z"/>
  <path id="Path_2970" data-name="Path 2970" class="cls-7" d="M256.644,26.318a1.6,1.6,0,0,1-.644.146V0a1.6,1.6,0,0,1,.644.146L280.18,11.963a1.469,1.469,0,0,1,0,2.637L271,19.141l-2.959-.029-.322,1.67Z" transform="translate(-231)"/>
  <path id="Path_2971" data-name="Path 2971" class="cls-8" d="M327.609,165.044a1.465,1.465,0,0,0,.655,1.966l3.931,1.965,3.276-1.638-5.9-2.948A1.467,1.467,0,0,0,327.609,165.044Z" transform="translate(-295.477 -148.196)"/>
  <path id="Path_2972" data-name="Path 2972" class="cls-8" d="M109.662,167.01a1.465,1.465,0,0,0-1.31-2.621l-5.9,2.948,3.276,1.638Z" transform="translate(-92.45 -148.197)"/>
  <path id="Path_2973" data-name="Path 2973" class="cls-8" d="M219.626,124.574a1.478,1.478,0,0,1-1.318.82,1.6,1.6,0,0,1-.644-.146l-2.285-1.143-2.285,1.143a1.467,1.467,0,0,1-1.289-2.637l2.93-1.465a1.491,1.491,0,0,1,1.289,0l2.93,1.465A1.482,1.482,0,0,1,219.626,124.574Z" transform="translate(-190.378 -109.184)"/>
  <path id="Path_2974" data-name="Path 2974" class="cls-5" d="M109.662,287a1.465,1.465,0,0,0-1.31-2.621l-5.9,2.948,3.276,1.638Z" transform="translate(-92.45 -256.47)"/>
  <path id="Path_2975" data-name="Path 2975" class="cls-5" d="M327.609,285.036a1.465,1.465,0,0,0,.655,1.966l3.931,1.965,3.276-1.638-5.9-2.948A1.465,1.465,0,0,0,327.609,285.036Z" transform="translate(-295.477 -256.469)"/>
  <path id="Path_2976" data-name="Path 2976" class="cls-8" d="M260.248,124.574a1.478,1.478,0,0,1-1.318.82,1.6,1.6,0,0,1-.644-.146L256,124.105V121a1.594,1.594,0,0,1,.644.146l2.93,1.465A1.482,1.482,0,0,1,260.248,124.574Z" transform="translate(-231 -109.184)"/>
</svg>
