<svg xmlns="http://www.w3.org/2000/svg" xmlns:xlink="http://www.w3.org/1999/xlink" viewBox="0 0 90 90">
  <defs>
    <style>
      .cls-1 {
        fill: url(#linear-gradient);
      }

      .cls-2 {
        fill: #e7eaf4;
      }

      .cls-3 {
        fill: #dee1eb;
      }

      .cls-4 {
        fill: #a1deff;
      }

      .cls-5 {
        fill: #7bd1ff;
      }

      .cls-6 {
        fill: #1abffe;
      }

      .cls-7 {
        fill: #4ca6e8;
      }

      .cls-8 {
        fill: #ffcda1;
      }

      .cls-9 {
        fill: #ff8820;
      }

      .cls-10 {
        fill: #fff;
      }

      .cls-11 {
        fill: #ffe5ce;
      }
    </style>
    <linearGradient id="linear-gradient" x1="0.5" x2="0.5" y2="1" gradientUnits="objectBoundingBox">
      <stop offset="0" stop-color="#f1f3f8"/>
      <stop offset="1" stop-color="#f1f3f8" stop-opacity="0"/>
    </linearGradient>
  </defs>
  <g id="_1" data-name="1" transform="translate(-836 -1819)">
    <path id="Path_653" data-name="Path 653" class="cls-1" d="M67.417,0c24.82,0,22.47,20.147,22.47,45S47.3,90,22.477,90,.007,69.853.007,45,42.6,0,67.417,0Z" transform="translate(836.053 1819)"/>
    <g id="map" transform="translate(836 1810.95)">
      <path id="Path_3133" data-name="Path 3133" class="cls-2" d="M78.406,102.874,61.75,97.52q-1.547-.493-3.094-.845l-8.672-1.832a2.739,2.739,0,0,0-.609-.094,1.726,1.726,0,0,0-.8.235l-8.11,3.523a26.908,26.908,0,0,0-3.843,1.973,25.521,25.521,0,0,1-22.782,1.972L3.234,98.272A2.339,2.339,0,0,0,0,100.432V147.4a2.3,2.3,0,0,0,1.453,2.16c11.156,4.509,14.922,6.434,22,6.434a30.133,30.133,0,0,0,16.172-4.7A25.6,25.6,0,0,1,60.766,149L76.906,154.3A2.344,2.344,0,0,0,80,152.1V105.129A2.387,2.387,0,0,0,78.406,102.874Z" transform="translate(0 -57.944)"/>
      <path id="Path_3134" data-name="Path 3134" class="cls-3" d="M346.625,105.129V152.1a2.344,2.344,0,0,1-3.094,2.207L327.391,149A24.774,24.774,0,0,0,316,147.916V94.749a2.73,2.73,0,0,1,.609.094l8.672,1.832q1.547.352,3.094.845l16.656,5.354A2.387,2.387,0,0,1,346.625,105.129Z" transform="translate(-266.625 -57.944)"/>
      <path id="Path_3135" data-name="Path 3135" class="cls-4" d="M132.25,182.092v27.147c-7.735-2.583-13.828-3.288-18.75-3.006-9.656.611-14.719,5.073-18.891,6.763-7.922,3.288-13.828.141-18.609-1.785V184.346a37.168,37.168,0,0,0,30.891-3.71,17.375,17.375,0,0,1,6.609-2.442,18.3,18.3,0,0,1,8.719.611Z" transform="translate(-64.125 -128.097)"/>
      <path id="Path_3136" data-name="Path 3136" class="cls-5" d="M334.75,182.092v27.147c-7.735-2.583-13.828-3.288-18.75-3.006V178.194a18.3,18.3,0,0,1,8.719.611Z" transform="translate(-266.625 -128.097)"/>
      <path id="Path_3137" data-name="Path 3137" class="cls-6" d="M120.343,167.242l-10.031-3.288a20.8,20.8,0,0,0-9.469-.8,20.473,20.473,0,0,0-7.875,2.865A35.179,35.179,0,0,1,64.046,169.5,2.327,2.327,0,0,0,61,171.7v26.865a2.343,2.343,0,0,0,1.453,2.161c7.031,2.818,12.7,5.025,20.39,1.832,4.969-2.066,9.563-6.012,18-6.622,4.594-.329,10.36.329,18,2.865a2.344,2.344,0,0,0,3.094-2.208V169.45A2.284,2.284,0,0,0,120.343,167.242Zm-3.094,11.836h-7.031a2.348,2.348,0,0,0,0,4.7h7.031v9.534a39.665,39.665,0,0,0-14.062-2.113v-9.769a2.344,2.344,0,1,0-4.688,0v10.145c-10.312,1.5-12.75,4.7-17.437,6.622a14.525,14.525,0,0,1-5.813,1.221c-3.094,0-6.047-1.033-9.562-2.442v-8.5h4.688v2.348a2.344,2.344,0,1,0,4.688,0v-4.7a2.323,2.323,0,0,0-2.344-2.348H65.687V174.8a39.323,39.323,0,0,0,14.063.658v10.662a2.323,2.323,0,0,0,2.344,2.348h9.375a2.348,2.348,0,0,0,0-4.7H84.437v-9.159a39.738,39.738,0,0,0,11.015-4.6,15.457,15.457,0,0,1,5.391-2.067,15.965,15.965,0,0,1,8.016.47l8.39,2.724Z" transform="translate(-51.468 -115.454)"/>
      <path id="Path_3138" data-name="Path 3138" class="cls-7" d="M337.094,169.45V196.6A2.344,2.344,0,0,1,334,198.8c-7.641-2.536-13.406-3.194-18-2.865V179.078a2.323,2.323,0,0,1,2.344,2.348V191.2a39.665,39.665,0,0,1,14.063,2.113v-9.534h-7.031a2.348,2.348,0,0,1,0-4.7h7.031v-7.937l-8.39-2.724a15.963,15.963,0,0,0-8.016-.47v-4.791a20.8,20.8,0,0,1,9.469.8l10.031,3.288A2.284,2.284,0,0,1,337.094,169.45Z" transform="translate(-266.625 -115.455)"/>
      <path id="Path_3139" data-name="Path 3139" class="cls-8" d="M252.719,26.05A11.735,11.735,0,0,0,241,37.792a12.193,12.193,0,0,0,1.547,5.871l8.156,14.09a2.317,2.317,0,0,0,4.031,0l8.156-14.09a12.193,12.193,0,0,0,1.547-5.871A11.735,11.735,0,0,0,252.719,26.05Z" transform="translate(-203.344 0)"/>
      <path id="Path_3140" data-name="Path 3140" class="cls-9" d="M327.718,37.792a12.193,12.193,0,0,1-1.547,5.871l-8.156,14.09A2.228,2.228,0,0,1,316,58.927V26.05A11.735,11.735,0,0,1,327.718,37.792Z" transform="translate(-266.624 0)"/>
      <path id="Path_3141" data-name="Path 3141" class="cls-10" d="M305.688,88.4a2.344,2.344,0,1,1-2.344-2.348A2.323,2.323,0,0,1,305.688,88.4Z" transform="translate(-253.969 -50.607)"/>
      <path id="Path_3142" data-name="Path 3142" class="cls-11" d="M316,90.747v-4.7a2.348,2.348,0,0,1,0,4.7Z" transform="translate(-266.625 -50.607)"/>
    </g>
  </g>
</svg>
