<svg xmlns="http://www.w3.org/2000/svg" xmlns:xlink="http://www.w3.org/1999/xlink" viewBox="0 0 90 90">
  <defs>
    <style>
      .cls-1 {
        fill: url(#linear-gradient);
      }

      .cls-2 {
        fill: #fff;
      }

      .cls-3 {
        fill: #ce6000;
      }

      .cls-4 {
        fill: #ff8820;
      }

      .cls-5 {
        fill: #f70;
      }
    </style>
    <linearGradient id="linear-gradient" x1="0.5" x2="0.5" y2="1" gradientUnits="objectBoundingBox">
      <stop offset="0" stop-color="#f1f3f8"/>
      <stop offset="1" stop-color="#f1f3f8" stop-opacity="0"/>
    </linearGradient>
  </defs>
  <g id="_1" data-name="1" transform="translate(-836 -1819)">
    <path id="Path_653" data-name="Path 653" class="cls-1" d="M67.417,0c24.82,0,22.47,20.147,22.47,45S47.3,90,22.477,90,.007,69.853.007,45,42.6,0,67.417,0Z" transform="translate(836.053 1819)"/>
    <g id="phone-book" transform="translate(820.485 1829)">
      <path id="Path_3157" data-name="Path 3157" class="cls-2" d="M208.215,160.122l-4.958-4.968-7.423,7.438,4.966,4.976-9.988,10.008-4.966-4.976-7.42,7.435L183.384,185c3.661,3.668,12.188,1.072,19.045-5.8S211.876,163.79,208.215,160.122Z" transform="translate(-137.508 -130.911)"/>
      <g id="Group_1757" data-name="Group 1757" transform="translate(15.515 19.394)">
        <path id="Path_3158" data-name="Path 3158" class="cls-3" d="M26.4,124.121H19.144a3.636,3.636,0,0,0,0,7.273H26.4a3.636,3.636,0,0,0,0-7.273Z" transform="translate(-15.515 -124.121)"/>
        <path id="Path_3159" data-name="Path 3159" class="cls-3" d="M26.4,232.727H19.144a3.636,3.636,0,0,0,0,7.273H26.4a3.636,3.636,0,0,0,0-7.273Z" transform="translate(-15.515 -215.757)"/>
        <path id="Path_3160" data-name="Path 3160" class="cls-3" d="M26.4,341.333H19.144a3.636,3.636,0,0,0,0,7.273H26.4a3.636,3.636,0,0,0,0-7.273Z" transform="translate(-15.515 -307.394)"/>
      </g>
      <path id="Path_3161" data-name="Path 3161" class="cls-4" d="M126.174,0H77.787A15.76,15.76,0,0,0,62.061,15.757v3.636H65.69a3.636,3.636,0,0,1,0,7.273H62.061v9.7H65.69a3.636,3.636,0,0,1,0,7.273H62.061v9.7H65.69a3.636,3.636,0,0,1,0,7.273H62.061v3.636A15.759,15.759,0,0,0,77.787,80h48.387a3.633,3.633,0,0,0,3.629-3.636V3.636A3.633,3.633,0,0,0,126.174,0ZM104.209,48.294a29.1,29.1,0,0,1-8.277,5.913c-4.416,2.025-8.514,2.143-10.767-.114l-4.958-4.968,7.42-7.435,4.966,4.976,3.339-3.346,6.648-6.662-4.966-4.976,7.423-7.438L110,29.211C113.657,32.879,111.066,41.423,104.209,48.294Z" transform="translate(-39.288)"/>
      <path id="Path_3162" data-name="Path 3162" class="cls-5" d="M85.165,54.092l-4.958-4.968,7.42-7.435,4.966,4.976,3.339-3.346V0H77.787A15.76,15.76,0,0,0,62.061,15.757v3.636H65.69a3.636,3.636,0,0,1,0,7.273H62.061v9.7H65.69a3.636,3.636,0,0,1,0,7.273H62.061v9.7H65.69a3.636,3.636,0,0,1,0,7.273H62.061v3.636A15.759,15.759,0,0,0,77.787,80H95.932V54.207C91.516,56.232,87.418,56.35,85.165,54.092Z" transform="translate(-39.288)"/>
      <path id="Path_3163" data-name="Path 3163" class="cls-3" d="M208.215,160.122l-4.958-4.968-7.423,7.438,4.966,4.976-6.648,6.662-3.34,3.346-4.966-4.976-7.42,7.435L183.383,185c2.253,2.258,6.351,2.139,10.767.114a29.1,29.1,0,0,0,8.277-5.913C209.285,172.334,211.875,163.79,208.215,160.122Z" transform="translate(-137.507 -130.911)"/>
    </g>
  </g>
</svg>
