<svg id="server" xmlns="http://www.w3.org/2000/svg" viewBox="0 0 50 50">
  <defs>
    <style>
      .cls-1 {
        fill: #e7eaf4;
      }

      .cls-2 {
        fill: #dee1eb;
      }

      .cls-3 {
        fill: #435074;
      }

      .cls-4 {
        fill: #303c5e;
      }

      .cls-5 {
        fill: #fff;
      }

      .cls-6 {
        fill: #ffcda1;
      }

      .cls-7 {
        fill: #1abffe;
      }

      .cls-8 {
        fill: #76e2f8;
      }

      .cls-9 {
        fill: #ff8820;
      }

      .cls-10 {
        fill: #27314e;
      }
    </style>
  </defs>
  <path id="Path_2977" data-name="Path 2977" class="cls-1" d="M50,204.214A11.883,11.883,0,0,1,38.184,216.03H11.816a11.737,11.737,0,0,1-2.4-23.242A16.219,16.219,0,0,1,15.332,184H34.668a16.219,16.219,0,0,1,5.918,8.789A11.789,11.789,0,0,1,50,204.214Z" transform="translate(0 -166.03)"/>
  <path id="Path_2978" data-name="Path 2978" class="cls-2" d="M281,204.214a11.883,11.883,0,0,1-11.816,11.816H256V184h9.668a16.219,16.219,0,0,1,5.918,8.789A11.789,11.789,0,0,1,281,204.214Z" transform="translate(-231 -166.03)"/>
  <path id="Path_2979" data-name="Path 2979" class="cls-3" d="M171.508,123.93V145.9H151V123.93l2.93-2.93h14.648Z" transform="translate(-136.254 -109.184)"/>
  <path id="Path_2980" data-name="Path 2980" class="cls-4" d="M266.254,123.93V145.9H256V121h7.324Z" transform="translate(-231 -109.184)"/>
  <rect id="Rectangle_608" data-name="Rectangle 608" class="cls-1" width="14.648" height="21.973" transform="translate(17.676 14.746)"/>
  <rect id="Rectangle_609" data-name="Rectangle 609" class="cls-5" width="7.324" height="21.973" transform="translate(25 14.746)"/>
  <path id="Path_2981" data-name="Path 2981" class="cls-6" d="M243.93,302.465A1.465,1.465,0,1,1,242.465,301,1.451,1.451,0,0,1,243.93,302.465Z" transform="translate(-217.465 -271.605)"/>
  <g id="Group_1735" data-name="Group 1735" transform="translate(3.027)">
    <path id="Path_2982" data-name="Path 2982" class="cls-7" d="M92.465,5.957A1.464,1.464,0,0,1,91,4.492V1.465a1.465,1.465,0,0,1,2.93,0V4.492A1.464,1.464,0,0,1,92.465,5.957Z" transform="translate(-85.141)"/>
    <path id="Path_2983" data-name="Path 2983" class="cls-7" d="M32.465,186.859A1.464,1.464,0,0,1,31,185.395v-2.93a1.465,1.465,0,0,1,2.93,0v2.93A1.464,1.464,0,0,1,32.465,186.859Z" transform="translate(-31 -163.324)"/>
    <path id="Path_2984" data-name="Path 2984" class="cls-7" d="M92.465,99.789A1.464,1.464,0,0,1,91,98.324V92.465a1.465,1.465,0,0,1,2.93,0v5.859A1.464,1.464,0,0,1,92.465,99.789Z" transform="translate(-85.141 -82.113)"/>
  </g>
  <g id="Group_1736" data-name="Group 1736" transform="translate(38.184)">
    <path id="Path_2985" data-name="Path 2985" class="cls-7" d="M392.465,5.957A1.464,1.464,0,0,1,391,4.492V1.465a1.465,1.465,0,0,1,2.93,0V4.492A1.464,1.464,0,0,1,392.465,5.957Z" transform="translate(-391)"/>
    <path id="Path_2986" data-name="Path 2986" class="cls-7" d="M392.465,99.789A1.464,1.464,0,0,1,391,98.324V92.465a1.465,1.465,0,0,1,2.93,0v5.859A1.464,1.464,0,0,1,392.465,99.789Z" transform="translate(-391 -82.113)"/>
  </g>
  <path id="Path_2987" data-name="Path 2987" class="cls-8" d="M32.465,69.789A1.464,1.464,0,0,1,31,68.324V62.465a1.465,1.465,0,0,1,2.93,0v5.859A1.464,1.464,0,0,1,32.465,69.789Z" transform="translate(-27.973 -55.043)"/>
  <g id="Group_1737" data-name="Group 1737" transform="translate(44.043 5.957)">
    <path id="Path_2988" data-name="Path 2988" class="cls-7" d="M452.465,186.859A1.464,1.464,0,0,1,451,185.395v-2.93a1.465,1.465,0,0,1,2.93,0v2.93A1.464,1.464,0,0,1,452.465,186.859Z" transform="translate(-451 -169.281)"/>
    <path id="Path_2989" data-name="Path 2989" class="cls-7" d="M452.465,69.789A1.464,1.464,0,0,1,451,68.324V62.465a1.465,1.465,0,0,1,2.93,0v5.859A1.464,1.464,0,0,1,452.465,69.789Z" transform="translate(-451 -61)"/>
  </g>
  <path id="Path_2990" data-name="Path 2990" class="cls-6" d="M215.395,181a4.395,4.395,0,1,0,4.395,4.395A4.389,4.389,0,0,0,215.395,181Z" transform="translate(-190.395 -163.324)"/>
  <path id="Path_2991" data-name="Path 2991" class="cls-9" d="M260.395,185.395A4.389,4.389,0,0,1,256,189.789V181A4.389,4.389,0,0,1,260.395,185.395Z" transform="translate(-231 -163.324)"/>
  <path id="Path_2992" data-name="Path 2992" class="cls-9" d="M256,303.93V301a1.465,1.465,0,0,1,0,2.93Z" transform="translate(-231 -271.605)"/>
  <path id="Path_2993" data-name="Path 2993" class="cls-4" d="M147.367,362.465a1.451,1.451,0,0,1-1.465,1.465H122.465a1.465,1.465,0,0,1,0-2.93H145.9A1.451,1.451,0,0,1,147.367,362.465Z" transform="translate(-109.184 -325.746)"/>
  <path id="Path_2994" data-name="Path 2994" class="cls-10" d="M269.184,362.465a1.451,1.451,0,0,1-1.465,1.465H256V361h11.719A1.451,1.451,0,0,1,269.184,362.465Z" transform="translate(-231 -325.746)"/>
  <path id="Path_2995" data-name="Path 2995" class="cls-4" d="M171.508,65.395v4.395H151V65.395A4.389,4.389,0,0,1,155.395,61h11.719A4.389,4.389,0,0,1,171.508,65.395Z" transform="translate(-136.254 -55.043)"/>
  <path id="Path_2996" data-name="Path 2996" class="cls-10" d="M266.254,65.395v4.395H256V61h5.859A4.389,4.389,0,0,1,266.254,65.395Z" transform="translate(-231 -55.043)"/>
</svg>
