<svg id="shield" xmlns="http://www.w3.org/2000/svg" viewBox="0 0 46 50">
  <defs>
    <style>
      .cls-1 {
        fill: #ffcda1;
      }

      .cls-2 {
        fill: #ff8820;
      }

      .cls-3 {
        fill: #e8954c;
      }

      .cls-4 {
        fill: #cb6c19;
      }
    </style>
  </defs>
  <path id="Path_2959" data-name="Path 2959" class="cls-1" d="M44.553.1h-.013a1.462,1.462,0,0,0-1.459,1.44A4.451,4.451,0,0,1,38.658,5.9H28.886A4.444,4.444,0,0,1,24.46,1.5a1.459,1.459,0,0,0-2.918,0,4.443,4.443,0,0,1-4.425,4.4H7.344A4.436,4.436,0,0,1,2.918,1.465,1.459,1.459,0,1,0,0,1.465v20.75a26.392,26.392,0,0,0,6.768,17.2A35.424,35.424,0,0,0,22.673,49.931a1.453,1.453,0,0,0,.9,0A35.615,35.615,0,0,0,39.23,39.482,26.108,26.108,0,0,0,46,22.451V1.564A1.462,1.462,0,0,0,44.553.1Zm0,0"/>
  <path id="Path_2960" data-name="Path 2960" class="cls-2" d="M258,.558h-.013A1.462,1.462,0,0,0,256.531,2a4.451,4.451,0,0,1-4.424,4.362h-9.772a4.444,4.444,0,0,1-4.425-4.4A1.462,1.462,0,0,0,236.451.508h0s0,49.946,0,49.946q.059,0,.117,0a1.461,1.461,0,0,0,.455-.073A35.616,35.616,0,0,0,252.68,39.941a26.109,26.109,0,0,0,6.77-17.031V2.023A1.462,1.462,0,0,0,258,.558Zm0,0" transform="translate(-213.449 -0.458)"/>
  <path id="Path_2961" data-name="Path 2961" class="cls-3" d="M142.126,140.531a2.361,2.361,0,0,0-3.335,0L125.64,153.716l-5-5.015a2.361,2.361,0,1,0-3.335,3.344l6.667,6.686a2.364,2.364,0,0,0,3.338,0l14.817-14.856A2.376,2.376,0,0,0,142.126,140.531Zm0,0" transform="translate(-105.272 -126.184)"/>
  <path id="Path_2962" data-name="Path 2962" class="cls-4" d="M250.3,140.531a2.361,2.361,0,0,0-3.335,0l-10.519,10.544v6.69l13.854-13.89A2.376,2.376,0,0,0,250.3,140.531Zm0,0" transform="translate(-213.449 -126.184)"/>
</svg>
