<svg id="shopping-cart" xmlns="http://www.w3.org/2000/svg" viewBox="0 0 50 48">
  <defs>
    <style>
      .cls-1 {
        fill: #bce9f7;
      }

      .cls-2 {
        fill: #1abffe;
      }
    </style>
  </defs>
  <path id="Path_2938" data-name="Path 2938" class="cls-1" d="M46.085,7.8H24.31a3.931,3.931,0,0,0-2.764,6.71,3.881,3.881,0,0,0,2.764,1.151H39.335L33.023,26.75H15.432V4.173c.005-.083.008-.161.008-.235A3.941,3.941,0,0,0,11.518,0c-.068,0-.137,0-.213.007H3.915a3.931,3.931,0,0,0-2.764,6.71A3.881,3.881,0,0,0,3.915,7.866H7.6v22.67c0,.048,0,.1,0,.143A3.928,3.928,0,0,0,9.993,34.3a3.863,3.863,0,0,0,1.523.311H35.29a3.854,3.854,0,0,0,1.553-.324l.095-.043.006,0,.039-.018A3.892,3.892,0,0,0,38.7,32.629L49.428,13.766a3.928,3.928,0,0,0-.579-4.819A3.881,3.881,0,0,0,46.085,7.8Zm0,0"/>
  <path id="Path_2939" data-name="Path 2939" class="cls-2" d="M274.04,80.406a3.882,3.882,0,0,0-2.764-1.151H249.562v7.861h14.964L258.214,98.21h-8.651v7.861h10.918a3.854,3.854,0,0,0,1.553-.324l.095-.043.006,0,.039-.018a3.892,3.892,0,0,0,1.714-1.595l10.732-18.863a3.929,3.929,0,0,0-.579-4.82Zm0,0" transform="translate(-225.191 -71.459)"/>
  <path id="Path_2940" data-name="Path 2940" class="cls-1" d="M104.333,383.3a5.38,5.38,0,1,1-5.379-5.418A5.4,5.4,0,0,1,104.333,383.3Zm0,0" transform="translate(-84.436 -340.722)"/>
  <path id="Path_2941" data-name="Path 2941" class="cls-2" d="M154.04,383.3a5.4,5.4,0,0,1-5.379,5.418V377.887A5.4,5.4,0,0,1,154.04,383.3Zm0,0" transform="translate(-134.143 -340.722)"/>
  <path id="Path_2942" data-name="Path 2942" class="cls-1" d="M263.372,383.3a5.38,5.38,0,1,1-5.379-5.418A5.4,5.4,0,0,1,263.372,383.3Zm0,0" transform="translate(-227.944 -340.722)"/>
  <path id="Path_2943" data-name="Path 2943" class="cls-2" d="M313.079,383.3a5.4,5.4,0,0,1-5.379,5.418V377.887A5.4,5.4,0,0,1,313.079,383.3Zm0,0" transform="translate(-277.651 -340.722)"/>
</svg>
