<svg xmlns="http://www.w3.org/2000/svg" xmlns:xlink="http://www.w3.org/1999/xlink" viewBox="0 0 90 90">
  <defs>
    <style>
      .cls-1 {
        fill: url(#linear-gradient);
      }

      .cls-2 {
        fill: #fbda80;
      }

      .cls-3 {
        fill: #f7bc18;
      }

      .cls-4 {
        fill: #edb109;
      }

      .cls-5 {
        fill: #d09b07;
      }

      .cls-6 {
        fill: #ff8820;
      }

      .cls-7 {
        fill: #f70;
      }

      .cls-8 {
        fill: #d0e9ff;
      }

      .cls-9 {
        fill: #bce9f7;
      }

      .cls-10 {
        fill: #1abffe;
      }

      .cls-11 {
        fill: #495c92;
      }

      .cls-12 {
        fill: #00a9e9;
      }

      .cls-13 {
        fill: #303c5e;
      }
    </style>
    <linearGradient id="linear-gradient" x1="0.5" x2="0.5" y2="1" gradientUnits="objectBoundingBox">
      <stop offset="0" stop-color="#f1f3f8"/>
      <stop offset="1" stop-color="#f1f3f8" stop-opacity="0"/>
    </linearGradient>
  </defs>
  <g id="_1" data-name="1" transform="translate(-836 -1819)">
    <path id="Path_653" data-name="Path 653" class="cls-1" d="M67.417,0c24.82,0,22.47,20.147,22.47,45S47.3,90,22.477,90,.007,69.853.007,45,42.6,0,67.417,0Z" transform="translate(836.053 1819)"/>
    <g id="launch" transform="translate(835.988 1828.988)">
      <path id="Path_3638" data-name="Path 3638" class="cls-2" d="M32.205,319.717a16.273,16.273,0,0,1-4.266,7.408c-4.876,4.829-22.915,10.585-24.93,11.194a2.341,2.341,0,0,1-2.3-.61,2.4,2.4,0,0,1-.61-2.344c.61-1.969,6.412-19.961,11.24-24.837a16.278,16.278,0,0,1,7.408-4.267l6.7,6.7Z" transform="translate(0 -258.409)"/>
      <g id="Group_1832" data-name="Group 1832" transform="translate(0.711 53.104)">
        <path id="Path_3639" data-name="Path 3639" class="cls-3" d="M29.229,349.172l6.751,6.751a16.273,16.273,0,0,1-4.266,7.408C26.838,368.16,8.8,373.915,6.783,374.524a2.341,2.341,0,0,1-2.3-.61Z" transform="translate(-4.486 -347.718)"/>
        <path id="Path_3640" data-name="Path 3640" class="cls-4" d="M110.662,343.853l-6.611,6.657a2.518,2.518,0,0,1-1.641.656,2.544,2.544,0,0,1-1.688-.656v-.047a2.349,2.349,0,0,1,0-3.282l6.658-6.611a2.212,2.212,0,0,1,3.235,0h.047A2.267,2.267,0,0,1,110.662,343.853Z" transform="translate(-85.122 -339.867)"/>
      </g>
      <path id="Path_3641" data-name="Path 3641" class="cls-5" d="M114.269,344.369a2.266,2.266,0,0,1,0,3.282l-6.611,6.657a2.518,2.518,0,0,1-1.641.656,2.544,2.544,0,0,1-1.688-.656v-.047l9.893-9.892Z" transform="translate(-88.018 -290.561)"/>
      <path id="Path_3642" data-name="Path 3642" class="cls-6" d="M52.543,147.547c-16.649,0-21.9,14.075-22.324,14.546a2.345,2.345,0,0,0,2.092,3.4l15.145,1.339,7.973-19.287H52.543Z" transform="translate(-25.274 -124.493)"/>
      <path id="Path_3643" data-name="Path 3643" class="cls-7" d="M241.013,325.913l1.135,14.969a2.347,2.347,0,0,0,3.4,2.092c.469-.421,14.546-5.775,14.546-22.324v-2.887Z" transform="translate(-203.344 -268.113)"/>
      <path id="Path_3644" data-name="Path 3644" class="cls-6" d="M123.912,276.794c-2.485,1.266-4.97,2.485-7.314,3.657a2.361,2.361,0,0,1-2.719-.422l-13.221-13.221a2.36,2.36,0,0,1-.422-2.719c1.172-2.344,2.391-4.829,3.657-7.314.75-1.453,6.189,1.782,6.939.281l12.8,12.8C122.13,270.605,125.365,276.044,123.912,276.794Z" transform="translate(-84.346 -216.329)"/>
      <path id="Path_3645" data-name="Path 3645" class="cls-7" d="M163.28,315.078c-2.485,1.266-4.97,2.485-7.314,3.657a2.361,2.361,0,0,1-2.719-.422l-6.61-6.61,9.986-9.939L163,308.139C161.5,308.889,164.734,314.328,163.28,315.078Z" transform="translate(-123.715 -254.613)"/>
      <path id="Path_3646" data-name="Path 3646" class="cls-8" d="M183.542,33.845a41.842,41.842,0,0,1-11.815,20.3c-6.892,6.657-17.909,12.471-26.676,16.878l-9.986-9.986L125.032,51c4.407-8.767,10.221-19.832,16.878-26.676a41.844,41.844,0,0,1,20.3-11.815l4.735,1.735a15.051,15.051,0,0,0,14.862,14.862Z" transform="translate(-105.486 -10.558)"/>
      <path id="Path_3647" data-name="Path 3647" class="cls-9" d="M237.72,99.668a41.842,41.842,0,0,1-11.815,20.3c-6.892,6.657-17.909,12.471-26.676,16.878l-9.986-9.986L225.53,90.526a15.225,15.225,0,0,0,10.455,4.407Z" transform="translate(-159.664 -76.381)"/>
      <path id="Path_3648" data-name="Path 3648" class="cls-10" d="M272.29,113.516a11.7,11.7,0,0,0-16.55,16.55v.047a11.719,11.719,0,1,0,16.55-16.6Z" transform="translate(-212.893 -92.901)"/>
      <path id="Path_3649" data-name="Path 3649" class="cls-6" d="M384.307,23.287c-.375,0-1.453-.047-1.828-.047A19.693,19.693,0,0,1,363.023,3.784c0-.375-.047-1.453-.047-1.828A73.258,73.258,0,0,1,383.933.08a2.241,2.241,0,0,1,2.25,2.251A75,75,0,0,1,384.307,23.287Z" transform="translate(-306.251 0)"/>
      <path id="Path_3650" data-name="Path 3650" class="cls-11" d="M231.035,258.94a2.321,2.321,0,1,1,0-3.282A2.266,2.266,0,0,1,231.035,258.94Z" transform="translate(-191.563 -215.118)"/>
      <path id="Path_3651" data-name="Path 3651" class="cls-7" d="M415.7,27.264c-.375,0-1.453-.047-1.828-.047a19.667,19.667,0,0,1-13.69-5.766L416.918,4.713a2.234,2.234,0,0,1,.656,1.594A74.983,74.983,0,0,1,415.7,27.264Z" transform="translate(-337.642 -3.977)"/>
      <path id="Path_3652" data-name="Path 3652" class="cls-12" d="M290.709,148.53a11.743,11.743,0,0,1-16.55,0v-.047l16.55-16.55A11.715,11.715,0,0,1,290.709,148.53Z" transform="translate(-231.311 -111.319)"/>
      <path id="Path_3653" data-name="Path 3653" class="cls-13" d="M234.833,262.737a2.266,2.266,0,0,1-3.282,0l3.282-3.282A2.266,2.266,0,0,1,234.833,262.737Z" transform="translate(-195.361 -218.915)"/>
    </g>
  </g>
</svg>
