<svg xmlns="http://www.w3.org/2000/svg" xmlns:xlink="http://www.w3.org/1999/xlink" viewBox="0 0 402 354">
  <defs>
    <style>
      .cls-1 {
        fill: #5d6ea3;
      }

      .cls-2 {
        fill: #2d303b;
      }

      .cls-2, .cls-34 {
        opacity: 0.3;
      }

      .cls-3 {
        fill: #24ca6c;
      }

      .cls-32, .cls-4 {
        fill: #ff8820;
      }

      .cls-5 {
        fill: #ffcf00;
      }

      .cls-6 {
        fill: #d1d9fe;
      }

      .cls-34, .cls-7 {
        fill: #fff;
      }

      .cls-8 {
        fill: #1abffe;
      }

      .cls-9 {
        fill: #e2ebf4;
      }

      .cls-10 {
        fill: #e7eafe;
      }

      .cls-11 {
        fill: #e2781b;
      }

      .cls-12 {
        fill: #d2dcf7;
      }

      .cls-13 {
        fill: #bcc4db;
      }

      .cls-14 {
        fill: #dd6e0e;
      }

      .cls-15 {
        fill: #ffb17a;
      }

      .cls-16 {
        fill: #37456c;
      }

      .cls-17 {
        fill: #ffa260;
      }

      .cls-18 {
        fill: #b6d0ff;
      }

      .cls-19 {
        fill: #3972d8;
      }

      .cls-20 {
        fill: #ffaf84;
      }

      .cls-21 {
        fill: #2a385d;
      }

      .cls-22 {
        clip-path: url(#clip-path);
      }

      .cls-23 {
        opacity: 0.1;
      }

      .cls-24 {
        fill: #d1aa00;
      }

      .cls-25 {
        fill: #f7f7f7;
      }

      .cls-26 {
        fill: #f57b10;
      }

      .cls-27 {
        fill: #e8bc00;
      }

      .cls-28 {
        fill: #bf9c04;
      }

      .cls-29 {
        fill: #c9a300;
      }

      .cls-30 {
        fill: #e06800;
      }

      .cls-31 {
        clip-path: url(#clip-path-2);
      }

      .cls-32 {
        opacity: 0.7;
      }

      .cls-33 {
        fill: #43cbff;
        opacity: 0.4;
      }
    </style>
    <clipPath id="clip-path">
      <path id="Path_4386" data-name="Path 4386" d="M132.612,169.792s-1.55-41.48-4.405-63.678a65.462,65.462,0,0,0,14.853.314,31.928,31.928,0,0,0,11.928-3.074c1.637-.821,3.657-1.8,12.015-17.867.313-.594.627-1.188.94-1.816l-2.229-1.624q.34-.943.627-1.781c.017-.07.052-.14.07-.21.488-1.519.923-2.759,1.219-3.6.609-1.694.975-2.393,1.532-3.668.54-1.275,5.781-1.292,7.923-2.742,2.229-1.485,1.968-5.292,1.062-7.772a3.847,3.847,0,0,0-.261-.454c.4-.262.818-.524,1.236-.8,3.065-2.061,5.607-7.178,1.045-3.65a45.856,45.856,0,0,1-5.206,3.336,8.166,8.166,0,0,0-3.2,1.292c-1.2.8-7.017,4.908-8.585,10.13-.766,1.642-1.55,3.283-2.368,4.89l-.522,1.048a.061.061,0,0,1-.017.035l-.714-.506-.94,1.834c-5.816,11.178-8.428,13.518-8.828,13.832-4.336,2.061-14.662,1.188-22.9-.489a23.676,23.676,0,0,0-4.423-.978H110.69a11.264,11.264,0,0,1-.592-4.471C121.625,89.5,124.846,76.7,124.846,67.673a18.7,18.7,0,0,0-2.734-9.85c4.388-3.371,3.4-11.073,3.4-11.073s-.313,2.777-6.687-.1c-11.98-5.414-24.186-2.55-27.53,0-3.274,2.5-3.709,5.082-2.7,7.161-2.647,2.393-4.388,5.676-4.405,8.086-.052,8.75,4.614,17.587,10.326,20.12a15.255,15.255,0,0,0,4.249,3.493,29.928,29.928,0,0,0,.3,6.322H88.924a4.007,4.007,0,0,0-3.9,3.091h0s-3.761,17.972-6.182,29.481c-.575-.681-1.219-1.45-1.933-2.323-.435-.541-.905-1.118-1.41-1.747l-.644.524c-.087-.1-.157-.192-.244-.3-.226-.279-.453-.576-.679-.856-2.02-2.55-4.075-5.292-5.938-7.859-.052-.07-.1-.122-.157-.192-.1-.122-.226-.262-.331-.367a1.959,1.959,0,0,0-.348-.314,3.2,3.2,0,0,0-.383-.3,2.768,2.768,0,0,0-.383-.227,2,2,0,0,0-.435-.21,1.719,1.719,0,0,0-.418-.157,3.062,3.062,0,0,0-.47-.122,3.477,3.477,0,0,0-.418-.07,4.571,4.571,0,0,0-.488-.035,3.631,3.631,0,0,0-.435.017c-.157,0-.313.035-.488.052-.139.035-.3.07-.453.1a4.35,4.35,0,0,0-.435.157,3.526,3.526,0,0,0-.453.192,1.31,1.31,0,0,1-.226.1,29.866,29.866,0,0,1-4.771,1.642,9.624,9.624,0,0,0-6.216,5.082c-1.045,2.463,2.229,2.725,4.893,2.725,1.968,0,6.948-2.707,8.6-3.3q2.507,3.615,4.527,6.549c.209.3.418.594.609.891.174.279.348.524.522.786l-3.187,2.567c.488.611.958,1.205,1.41,1.764,6.756,8.3,10.239,11.23,13.7,11.248H81.8a7.294,7.294,0,0,0,1.6-.192,6.151,6.151,0,0,0,1.776-.734,6.41,6.41,0,0,0,2.943-4.227c.07-.314.157-.7.244-1.153.279-1.327.679-3.214,1.167-5.449,1.846,15.631,4.684,18.827,2.56,41.148m-.017-.035c-.226,1.24-.4,2.445-.557,3.633H90.7v.873h.731a62.623,62.623,0,0,0,1.376,22.058c.348,7.335,1.637,39.873.47,54.509-1.236,15.526-2.351,58.56-2.386,59.032h1.724l-.122,1.956-.3-.035c-.993-.14-1.167.541-1.654,1.362-1.619,2.707-3.012,8.3-.052,8.3,6.025,0,4.928-.262,7.348-.21,1.637.035,3.274.21,8.672.21.279,0,.54,0,.784-.017.087,0,.157.017.244.017,5.938,0,6.843-.367,9.264-.419,2.4-.07,6.373.419,11.789.419s5.206-1.9,1.376-2.463c-3.587-.524-10.57-3.947-12.868-5.851a2.194,2.194,0,0,0-1.027-.454l.662-2.113.993.07c1.985-5.327,17.587-47.016,17.221-66.105-.279-14.723-1.828-45.427-2.09-50.422a184.747,184.747,0,0,0-.226-24.311M110.446,311.87l-.4-.052a2.442,2.442,0,0,0-2.455,1.118,22.187,22.187,0,0,0-2.177,4.611,39.387,39.387,0,0,1-6.182-4.4,2.334,2.334,0,0,0-1.149-.489l.453-2.759h1.376c.035-.472,8.289-42.318,9.525-57.74,1.062-13.256,1.95-39.681,2.316-51.347,2.229,10.339,6.774,32.468,7,44.012.261,13.57-.784,24.905-9.856,65.2l1.915.14Z" transform="translate(-50.486 -43.568)"/>
    </clipPath>
    <clipPath id="clip-path-2">
      <path id="Path_4412" data-name="Path 4412" d="M274.754,131.019c0-3.738-3.918-11.282-8.846-19.142-.244-.4-.5-.8-.766-1.205l1.01-.629-.836-1.345-2.49-4.017c-3.6-5.833-6.512-10.3-6.634-10.479a6.26,6.26,0,0,0-4.91-2.847,5.066,5.066,0,0,0-1.149.035,4.95,4.95,0,0,0-.5-.052H239.475a31.709,31.709,0,0,0,.331-6.724c4.022-2.131,6.913-7,8.41-11.37a2.015,2.015,0,0,0,.8-.437,6.215,6.215,0,0,0,2.194-4.751,6.123,6.123,0,0,0-1.167-3.6,12.755,12.755,0,0,0-.122-2.759c-.627-3.51-2.612-10.828-7.453-12.994,1.271-4.943-8.585-4.157-15.672-3.2-2.873.384-2.124-1.31-2.124-1.31a31.241,31.241,0,0,0-7.749,3.074c-.818-.489-1.01-2.166-1.01-2.166a4.378,4.378,0,0,0-1.567,3.493,6.422,6.422,0,0,0,3.448,5.816,23.144,23.144,0,0,0-4.162,8.366,2.266,2.266,0,0,0-1.5.541,6.24,6.24,0,0,0,0,9.5,2.346,2.346,0,0,0,1.95.524c1.637,4.873,6.739,12.592,14.4,13.151a13.115,13.115,0,0,1-.662,4.855H215.985a6.456,6.456,0,0,0-2,.279,6.338,6.338,0,0,0-4.266,4.646c-.052.21-1.2,5.414-2.542,12.138l-.94,4.663-.313,1.537.836.175c-.087.454-.192.908-.279,1.362-2.229,10.584-4.614,22.285-5.311,27.036-1.445,9.9-16.89,17.867-22.724,20.1-.087.035-.174.087-.261.122a3.163,3.163,0,0,0-.54.279,4.314,4.314,0,0,0-.453.332c-.087.07-.174.122-.261.192a.38.38,0,0,1-.087.07l-.035.035c-1.236,1.153-6.094,6.043-5.485,12.016.209,2.113.3,2.9,1.741,3.511-13.2.384-18.527,1.974-21.5,7.37-1.48,2.672-2.438,7.091,1.289,12.942,5.677,8.89,19.729,20.8,30.8,29.516a133.189,133.189,0,0,0,4.423,18.478,11.777,11.777,0,0,1-1.149.908c-3.134,2.148-2.542,3.877,1.985,1.746,3.2,10.13,7.209,20.539,10.848,30.04-.226,3.144-1.776,9.484-5.189,11.684-3.274,2.1-2.229,3.7,2.734,1.572,4.44-1.886,6.861-6.776,8.515-8.523s2.542-2.2,6.512-6.619c3.047-3.388-3.256-5.082-6.338-5.676h-.052a225.308,225.308,0,0,1-5.468-28.555,82.042,82.042,0,0,0,7.679-3.353c4.092-2.008-1.132-5.921-3.779-7.632-.035-.017-.07-.017-.087-.035l.244-.3c-1.532-1.24-3.43-3.021-5.555-5.117-.244-5.309-.122-9.571.435-12,2.455-10.671,18.632-17.325,30.333-20.521h15.01s3.883-7.2,2.525-21.011h.3V173.9h-.4c-.157-1.467-.366-2.969-.662-4.576h0c-.122-1.747-.174-3.79-.157-6.043a16.162,16.162,0,0,0,4.545,2.6,5.022,5.022,0,0,0,1.585.262c2,0,2.978-3.039,3.657-5.03.871-2.515-2.629-4.8-5.137-5.676a1.689,1.689,0,0,1-.192-.087C264.567,144.677,274.754,136.59,274.754,131.019Zm-93.229,46.09c-.07-.681-1.323-7.021-.209-8.226,10.047-4.262,19.833-6.794,25.284-14.042-.453,8.523-.679,14.426-.679,14.479h0s-.192,4.366-.174,10.566c-3.918-.017-7.592-.052-10.988-.07-5.294-.035-9.943-.07-14.017-.07A2.882,2.882,0,0,0,181.525,177.109ZM170.12,196.234c5.711-.3,14.348-.245,23.385-.175a32.912,32.912,0,0,0-9.769,15.928C178.722,206.346,173.846,200.67,170.12,196.234Zm76.773-46.352c.923-12.732,2.769-27.769,4.475-39.7.244.384.47.768.714,1.17l2.49,4.034.836,1.345,1.48-.926c.4.611.818,1.257,1.184,1.869,3.674,5.816,6.391,10.689,6.948,12.819C263.435,133.569,255.164,142.162,246.893,149.881Z" transform="translate(-150.248 -44.2)"/>
    </clipPath>
  </defs>
  <g id="Group_2572" data-name="Group 2572" transform="translate(-9.506)">
    <path id="Path_4345" data-name="Path 4345" class="cls-1" d="M28.84,187.141c0,49.985,36.619,74.611,84.226,74.611s90.773-35.175,90.773-85.16-53.458-96.058-99.2-82.819C54.193,108.356,28.84,137.139,28.84,187.141Z" transform="translate(14.332 68.286)"/>
    <path id="Path_4346" data-name="Path 4346" class="cls-2" d="M168.515,30.11c-6.826,0-10.187-7.545-13.443-14.845C151.8,7.929,148.717,1.013,142.535,1.013c-6.164,0-9.264,6.916-12.52,14.252-3.256,7.3-6.634,14.845-13.443,14.845s-10.187-7.545-13.443-14.845C99.856,7.929,96.774,1.013,90.61,1.013S81.347,7.929,78.09,15.264c-3.256,7.3-6.617,14.845-13.443,14.845S54.461,22.565,51.2,15.264C47.931,7.929,44.849,1.013,38.685,1.013a.506.506,0,0,1-.5-.506A.492.492,0,0,1,38.668,0C45.476,0,48.854,7.545,52.11,14.845,55.384,22.181,58.466,29.1,64.63,29.1s9.264-6.916,12.52-14.252C80.406,7.545,83.767,0,90.593,0s10.187,7.545,13.443,14.845c3.274,7.335,6.356,14.252,12.52,14.252s9.264-6.916,12.537-14.252C132.366,7.545,135.727,0,142.553,0S152.739,7.545,156,14.845c3.274,7.335,6.356,14.252,12.52,14.252a.506.506,0,0,1,0,1.013Z" transform="translate(21.255)"/>
    <g id="Group_2548" data-name="Group 2548" transform="translate(9.506 134.638)">
      <path id="Path_4347" data-name="Path 4347" class="cls-3" d="M13.152,146.461A51.59,51.59,0,0,1,24.54,90.975,50.85,50.85,0,0,1,49.893,77.09l5.468,25.045a25.886,25.886,0,0,0-18.44,34.825Z" transform="translate(-9.506 -77.09)"/>
      <path id="Path_4348" data-name="Path 4348" class="cls-4" d="M89.9,164.022a51.16,51.16,0,0,1-36.306,15.09,51.658,51.658,0,0,1-6.965-.472,51.133,51.133,0,0,1-29.358-14.618c-.4-.4-.784-.821-1.167-1.24l18.667-17.517a25.8,25.8,0,1,0,30.211-40.833l11.318-23a50.85,50.85,0,0,1,13.6,9.763A51.624,51.624,0,0,1,89.9,164.022Z" transform="translate(-4.619 -73.85)"/>
      <path id="Path_4349" data-name="Path 4349" class="cls-5" d="M65.007,83.707l-11.318,23A25.429,25.429,0,0,0,42.3,104.036a25.792,25.792,0,0,0-5.5.594L31.33,79.585c1.323-.3,2.664-.541,4-.716a49.642,49.642,0,0,1,7-.489,50.943,50.943,0,0,1,14.453,2.1A49.868,49.868,0,0,1,65.007,83.707Z" transform="translate(6.671 -76.127)"/>
      <path id="Path_4350" data-name="Path 4350" class="cls-6" d="M20.451,141.694a50.76,50.76,0,0,1-10.221-16.1L34,116.09a25.606,25.606,0,0,0,5.119,8.086Z" transform="translate(-8.97 -47.976)"/>
    </g>
    <g id="Group_2549" data-name="Group 2549" transform="translate(92.693 15.749)">
      <path id="Path_4351" data-name="Path 4351" class="cls-1" d="M307.834,133.74a498.715,498.715,0,0,0-218.41,0,7.814,7.814,0,0,1-9.333-5.711Q68.782,80.742,57.455,33.438c-.993-4.122,2.333-8.471,7.47-9.606a610.915,610.915,0,0,1,267.444,0c5.119,1.153,8.463,5.5,7.47,9.606Q328.53,80.725,317.2,128.029a7.854,7.854,0,0,1-9.368,5.711" transform="translate(-57.279 -9.018)"/>
      <path id="Path_4352" data-name="Path 4352" class="cls-7" d="M82.49,118.94Q72.8,75.583,63.127,32.191c-.522-2.305,1.341-4.681,4.162-5.292a602.855,602.855,0,0,1,254.141,0c2.821.611,4.684,2.987,4.162,5.292q-9.69,43.383-19.363,86.749a4.361,4.361,0,0,1-5.206,3.231,506,506,0,0,0-213.325,0,4.347,4.347,0,0,1-5.206-3.231" transform="translate(-53.009 -5.78)"/>
      <path id="Path_4353" data-name="Path 4353" class="cls-8" d="M153.887,25.427q-1.41,35.052-2.8,70.1c-.592-.017-1.2-.052-1.794-.07q1.28-35.052,2.56-70.122c.679.035,1.358.07,2.037.087" transform="translate(10.927 3.167)"/>
      <path id="Path_4354" data-name="Path 4354" class="cls-9" d="M79.948,53.37l5.8,30.18c-.592.122-1.184.227-1.776.349q-2.951-15.09-5.92-30.162C78.694,53.615,79.321,53.492,79.948,53.37Z" transform="translate(-41.882 24.092)"/>
      <path id="Path_4355" data-name="Path 4355" class="cls-9" d="M104.241,53.76,106.9,77.233c-.592.07-1.184.14-1.794.21q-1.384-11.737-2.751-23.456c.644-.07,1.254-.157,1.881-.227" transform="translate(-23.862 24.383)"/>
      <path id="Path_4356" data-name="Path 4356" class="cls-9" d="M127.418,37.2q.914,24.7,1.811,49.426c-.592.017-1.2.052-1.794.07q-.993-24.7-1.985-49.426C126.112,37.235,126.773,37.217,127.418,37.2Z" transform="translate(-6.745 12.021)"/>
      <path id="Path_4357" data-name="Path 4357" class="cls-9" d="M180.306,35.247q-3.291,28.084-6.582,56.185c-.592-.07-1.184-.14-1.794-.21q3.187-28.11,6.391-56.2C179,35.09,179.661,35.16,180.306,35.247Z" transform="translate(27.71 10.394)"/>
      <path id="Path_4358" data-name="Path 4358" class="cls-9" d="M203.554,49.574q-3.683,18.731-7.348,37.445c-.592-.122-1.184-.227-1.776-.349q3.6-18.731,7.209-37.48c.644.122,1.271.262,1.915.384" transform="translate(44.389 20.972)"/>
      <path id="Path_4359" data-name="Path 4359" class="cls-10" d="M288.686,83.162c-.035.175-.07.349-.1.506.035-.157.07-.332.1-.506h0M77.711,40.495a16.694,16.694,0,0,0-3.291.332c.1.576.226,1.135.331,1.712a14.775,14.775,0,0,1,2.856-.279c8.863,0,15.219,8.436,21.575,17.343,6.669,9.344,13.182,19.019,22.95,19.019a15.6,15.6,0,0,0,1.776-.1l-.209-1.729c-.522.052-1.045.087-1.55.087-8.759,0-14.7-8.907-21.331-18.251-6.3-8.942-13.2-18.129-23.107-18.129m172.98-6.811c-10.622,0-17.047,10.13-22.881,19.945-6.025,10.095-11.353,19.666-20.495,19.91-.017.576-.052,1.17-.07,1.747,10.291-.175,16.177-10.671,22.271-20.818,5.868-9.8,11.771-19.037,21.226-19.037a15,15,0,0,1,1.741.1c10.483,1.24,14.348,12.208,18,23.735,3.5,10.933,6.739,22.128,16.037,25.15.1-.576.226-1.153.331-1.729-8.167-2.812-11.075-13.029-14.522-23.84-3.639-11.579-7.853-23.63-19.677-25.045a15.066,15.066,0,0,0-1.968-.122M164.027,30.33c-.226,0-.453,0-.679.017-11.876.489-16.978,12.191-21.488,23.456-4.249,10.549-7.94,20.5-16.3,22.67.07.576.139,1.17.192,1.747,9.525-2.253,13.6-13.2,17.918-23.84,4.527-11.213,9.211-21.849,19.746-22.285.192,0,.383-.017.592-.017,10.152,0,15.532,10.042,20.826,20.661C190.129,63.3,195.178,74.2,205.4,75.2c.017-.576.052-1.17.07-1.747-9.055-.978-13.634-10.916-18.858-21.43C181.335,41.368,175.45,30.33,164.027,30.33" transform="translate(-44.573 6.892)"/>
      <path id="Path_4360" data-name="Path 4360" class="cls-11" d="M149.7,55.02c-.017.576-.035,1.17-.07,1.747.313.035.627.052.94.07.209,0,.435.017.644.017h.261c.017-.576.052-1.17.07-1.747H151.2c-.192,0-.366,0-.557-.017a8.515,8.515,0,0,1-.94-.07" transform="translate(11.179 25.324)"/>
      <path id="Path_4361" data-name="Path 4361" class="cls-12" d="M104.566,56.74a14.191,14.191,0,0,1-1.794.332h-.052l.209,1.729h.052a14.5,14.5,0,0,0,1.776-.314c-.052-.576-.122-1.17-.192-1.747" transform="translate(-23.595 26.608)"/>
      <path id="Path_4362" data-name="Path 4362" class="cls-12" d="M196.571,60.31c-.1.576-.226,1.153-.331,1.729a14.465,14.465,0,0,0,1.811.472c.07-.4.157-.8.244-1.205.035-.175.07-.349.1-.506a17.415,17.415,0,0,1-1.828-.489" transform="translate(45.73 29.273)"/>
      <path id="Path_4363" data-name="Path 4363" class="cls-8" d="M77.693,25.693A2.626,2.626,0,1,1,74.646,23.7,2.562,2.562,0,0,1,77.693,25.693Z" transform="translate(-46.001 1.907)"/>
      <path id="Path_4364" data-name="Path 4364" class="cls-8" d="M83.24,24.72a2.618,2.618,0,1,1-3.012-2.043A2.582,2.582,0,0,1,83.24,24.72Z" transform="translate(-41.884 1.15)"/>
      <path id="Path_4365" data-name="Path 4365" class="cls-8" d="M88.806,23.84a2.619,2.619,0,1,1-2.978-2.1A2.577,2.577,0,0,1,88.806,23.84Z" transform="translate(-37.767 0.458)"/>
    </g>
    <g id="Group_2556" data-name="Group 2556" transform="translate(80.845 76.092)">
      <g id="Group_2553" data-name="Group 2553" transform="translate(0 0)">
        <g id="Group_2550" data-name="Group 2550" transform="translate(38.273 256.95)">
          <path id="Path_4366" data-name="Path 4366" class="cls-13" d="M74.48,205.308l.975-14.618,6.739.716L79.7,206.339Z" transform="translate(-70.954 -190.69)"/>
          <path id="Path_4367" data-name="Path 4367" class="cls-14" d="M81.762,198.014a2.419,2.419,0,0,1,1.167.489c2.3,1.9,5.137,4.087,7.192,4.873,3.483,1.327,5.5,3.441.087,3.441s-7.052-.175-8.672-.21c-2.4-.052-1.323.21-7.348.21-2.96,0-1.567-5.589.052-8.3.488-.821.662-1.5,1.654-1.362Z" transform="translate(-72.455 -185.875)"/>
        </g>
        <g id="Group_2551" data-name="Group 2551" transform="translate(54.618 257.317)">
          <path id="Path_4368" data-name="Path 4368" class="cls-13" d="M84.51,205.152,87.575,190.9l6.756.716-4.6,14.566Z" transform="translate(-79.864 -190.9)"/>
          <path id="Path_4369" data-name="Path 4369" class="cls-4" d="M92.652,198.011a2.419,2.419,0,0,1,1.167.489c2.3,1.9,9.281,5.327,12.868,5.851,3.848.559,4.04,2.463-1.376,2.463s-9.368-.489-11.789-.419c-2.4.07-3.326.419-9.264.419-4.545,0-1.585-5.816.052-8.523a2.426,2.426,0,0,1,2.455-1.118Z" transform="translate(-81.842 -186.24)"/>
        </g>
        <path id="Path_4370" data-name="Path 4370" class="cls-15" d="M151.858,52a45.855,45.855,0,0,1-5.206,3.336,8.166,8.166,0,0,0-3.2,1.292c-1.2.8-7.017,4.908-8.585,10.13-.766,1.642-1.55,3.283-2.368,4.89l-.522,1.048c-.174.332-.331.646-.488.961-.818,1.554-1.619,3.056-2.42,4.471-3.047,5.484-5.816,9.641-7.1,10.462-4.7,2.375-18.876.786-27.425-1.118a4.837,4.837,0,0,0-2.072,9.449,107.21,107.21,0,0,0,21.07,2.55c4.806,0,9.455-.576,12.764-2.253,3.448-1.747,6.774-8.872,9.246-15.387.557-1.432,1.062-2.847,1.515-4.157.348-1,.679-1.921.975-2.777.017-.07.052-.14.07-.21.488-1.519.923-2.759,1.219-3.6.609-1.694.975-2.393,1.532-3.668.54-1.275,5.781-1.292,7.923-2.742,2.229-1.485,1.968-5.292,1.062-7.772a3.846,3.846,0,0,0-.261-.454c.4-.262.818-.524,1.236-.8C153.878,53.572,156.421,48.455,151.858,52Z" transform="translate(-22.159 -38.182)"/>
        <path id="Path_4371" data-name="Path 4371" class="cls-15" d="M108.31,65.1c0-10.025-7.435-18.059-17.43-18.059A18.145,18.145,0,0,0,72.77,65.2c0,6.969,3.709,14.653,9.455,17.71-.226,4.454.226,9.361,3,13.762,2.943,4.681,3.517,5.624,3.552,5.711a5.693,5.693,0,1,0,9.769-5.851s-.47-.786-3.709-5.938c-.8-1.275-1.341-2.672-1.289-5.833C105.088,86.93,108.31,74.128,108.31,65.1Z" transform="translate(-33.949 -40.976)"/>
        <path id="Path_4372" data-name="Path 4372" class="cls-16" d="M76.581,145.758s-4.928-12.522-1.759-29.918H115.36a183.086,183.086,0,0,1,.157,25.482Z" transform="translate(-33.215 10.384)"/>
        <path id="Path_4373" data-name="Path 4373" class="cls-16" d="M83.772,124.62h-.139c-4.405,0-9.647,0-8.1,9.728.07.384,1.863,39.558.54,56.011-1.236,15.526-2.351,58.56-2.386,59.032h9c.035-.472,8.289-42.318,9.525-57.74,1.358-16.959,2.438-55.452,2.473-57.041C94.777,130.121,88.247,124.707,83.772,124.62Z" transform="translate(-33.267 16.938)"/>
        <path id="Path_4374" data-name="Path 4374" class="cls-16" d="M107.945,132.2c-.313-4.471-4.7-6.9-9.159-6.549-4.458.314-13.443,3.86-13.129,8.331.017.332,7.923,34.284,8.219,49.6.261,13.57-.784,24.905-9.856,65.2l8.828.594c1.985-5.327,17.587-47.016,17.221-66.105C109.774,167.553,108.05,133.6,107.945,132.2Z" transform="translate(-25.609 17.686)"/>
        <path id="Path_4375" data-name="Path 4375" class="cls-15" d="M95.13,75.394s-6.6,31.577-7.836,37.41a5.464,5.464,0,0,1-4.231,4.331,5.883,5.883,0,0,1-1.428.192c-1.915,0-3.831-2.934-9.612-11.527-.174-.262-.366-.541-.557-.821-.679-1-1.393-2.061-2.159-3.214-.192-.3-.4-.594-.609-.891q-2.011-2.934-4.527-6.549c-1.654.594-6.634,3.3-8.6,3.3-2.664,0-5.938-.262-4.893-2.725a9.624,9.624,0,0,1,6.216-5.082,29.868,29.868,0,0,0,4.771-1.642,1.312,1.312,0,0,0,.226-.1,3.529,3.529,0,0,1,.453-.192,4.347,4.347,0,0,1,.435-.157c.157-.035.313-.07.453-.1.174-.017.331-.052.488-.052a3.629,3.629,0,0,1,.435-.017,4.578,4.578,0,0,1,.488.035,3.478,3.478,0,0,1,.418.07,3.066,3.066,0,0,1,.47.122,1.72,1.72,0,0,1,.418.157,2,2,0,0,1,.435.21,2.771,2.771,0,0,1,.383.227,3.205,3.205,0,0,1,.383.3,1.958,1.958,0,0,1,.348.314c.1.1.226.245.331.367.052.07.1.122.157.192,1.863,2.567,3.918,5.309,5.938,7.859.226.279.453.576.679.856.836,1.048,1.654,2.061,2.438,3,.226.262.435.524.644.786.575.681,1.114,1.31,1.637,1.886.313-1.5.662-3.144,1.01-4.855.052-.227.1-.472.157-.716,2.3-11.038,5.224-24.94,5.224-24.94Z" transform="translate(-50.476 -21.283)"/>
        <path id="Path_4376" data-name="Path 4376" class="cls-17" d="M69.915,91.8l-5.659,3.755c-.174-.262-.366-.541-.557-.821-.679-1-1.393-2.061-2.159-3.214-.192-.3-.4-.594-.609-.891l5.224-3.476c.226.279.453.576.679.856.836,1.048,1.654,2.061,2.438,3C69.5,91.272,69.706,91.534,69.915,91.8Z" transform="translate(-42.726 -11.033)"/>
        <path id="Path_4377" data-name="Path 4377" class="cls-8" d="M151.142,64.1c-5.816,11.178-8.428,13.518-8.828,13.832-4.336,2.061-14.662,1.188-22.9-.489a23.676,23.676,0,0,0-4.423-.978H81.421a4.007,4.007,0,0,0-3.9,3.091h0s-3.761,17.972-6.182,29.481c-.575-.681-1.219-1.45-1.933-2.323l-8.846,7.108c6.756,8.3,10.239,11.23,13.7,11.248H74.3a7.294,7.294,0,0,0,1.6-.192,6.151,6.151,0,0,0,1.776-.734,6.411,6.411,0,0,0,2.943-4.227c.261-1.223.766-3.633,1.393-6.654,1.846,15.666,4.7,18.845,2.577,41.183h40.537s-1.55-41.48-4.405-63.678a65.463,65.463,0,0,0,14.853.314A31.928,31.928,0,0,0,147.5,88.01c1.637-.821,3.657-1.8,12.015-17.867Z" transform="translate(-43 -28.24)"/>
        <path id="Path_4378" data-name="Path 4378" class="cls-18" d="M70.006,89.257,61.16,96.365c-.453-.559-.923-1.153-1.41-1.764L68.6,87.51C69.1,88.139,69.571,88.715,70.006,89.257Z" transform="translate(-43.6 -10.765)"/>
        <path id="Path_4379" data-name="Path 4379" class="cls-17" d="M119.867,65.759c-.017.07-.052.14-.07.21-.3.856-.627,1.781-.975,2.777l-5.572-4.017c.157-.314.313-.629.488-.961l.522-1.048Z" transform="translate(-3.942 -29.271)"/>
        <path id="Path_4380" data-name="Path 4380" class="cls-18" d="M121.913,69.128c-.313.629-.627,1.223-.94,1.816l-8.393-6.06.94-1.834Z" transform="translate(-4.438 -29.024)"/>
        <path id="Path_4381" data-name="Path 4381" class="cls-19" d="M74.743,99.842c-.644,3-1.149,5.379-1.41,6.619a6.41,6.41,0,0,1-2.943,4.227L72.427,82.15C73.211,87.582,74.012,93.642,74.743,99.842Z" transform="translate(-35.713 -14.766)"/>
        <path id="Path_4382" data-name="Path 4382" class="cls-4" d="M111.151,46.75s-.313,2.777-6.687-.1c-11.98-5.414-24.186-2.55-27.53,0-3.274,2.5-3.709,5.082-2.7,7.161-2.647,2.393-4.388,5.676-4.405,8.086-.052,10.339,6.443,20.853,13.512,20.853,11.284,0,16.246-13.78,15.6-21.727-.052-.7-.122-1.415-.192-2.131.366.07.714.14,1.08.21C113.084,61.6,111.151,46.75,111.151,46.75Z" transform="translate(-36.128 -43.568)"/>
        <path id="Path_4383" data-name="Path 4383" class="cls-20" d="M82.99,60.138a6.215,6.215,0,0,0,2.194,4.751,2.455,2.455,0,0,0,3.988-1.939V57.327a2.455,2.455,0,0,0-3.988-1.939A6.215,6.215,0,0,0,82.99,60.138Z" transform="translate(-26.373 -35.16)"/>
        <g id="Group_2552" data-name="Group 2552" transform="translate(40.232 125.141)">
          <path id="Path_4384" data-name="Path 4384" class="cls-21" d="M88.486,255.744l-.836-.262c.139-.437,12.659-40.781,14.157-47.243,1.045-4.471,2.751-12.942,2.49-19.491-.209-5.536-3.239-50.055-3.256-50.509.575-5.379.871-22.844.871-23.019l.871.017c0,.175-.3,17.675-.871,23.019.035.367,3.047,44.92,3.274,50.457.261,6.654-1.463,15.212-2.507,19.736C101.145,214.928,88.625,255.29,88.486,255.744Z" transform="translate(-63.15 -115.22)"/>
          <rect id="Rectangle_804" data-name="Rectangle 804" class="cls-21" width="13.565" height="0.873" transform="translate(0 4.733)"/>
        </g>
      </g>
      <g id="Group_2555" data-name="Group 2555" transform="translate(0.017)">
        <g id="Group_2554" data-name="Group 2554" class="cls-22">
          <path id="Path_4385" data-name="Path 4385" class="cls-23" d="M112.513,41.366C97.138,25.787,83.434,19.709,63.879,20.477c-14.888.594-30.333,2.934-38.726,24.084-12.816,32.275,14.54,50.265,10.274,82.61C31.77,154.994,7.583,154.854.827,184.108c-3.517,15.264,4,35.734,22.9,57.128,33.328,37.742,107.646,43.488,128.681-35.7C167.765,147.9,144.571,73.833,112.513,41.366Z" transform="translate(-87.919 -60.853)"/>
        </g>
      </g>
    </g>
    <g id="Group_2567" data-name="Group 2567" transform="translate(189.736 77.196)">
      <g id="_x3C_grupa_x3E__1_" transform="translate(70.047 99.691)">
        <g id="Group_2558" data-name="Group 2558">
          <g id="Group_2557" data-name="Group 2557">
            <path id="Path_4387" data-name="Path 4387" class="cls-24" d="M165.065,135.739h48.321a2.083,2.083,0,0,0,2.037-2.847l-8.1-28.765a4.036,4.036,0,0,0-3.622-2.847H155.384a2.083,2.083,0,0,0-2.037,2.847l8.08,28.765A4.039,4.039,0,0,0,165.065,135.739Z" transform="translate(-153.237 -101.28)"/>
            <path id="Path_4388" data-name="Path 4388" class="cls-5" d="M165.665,135.739h48.321a2.083,2.083,0,0,0,2.037-2.847l-8.08-28.765a4.039,4.039,0,0,0-3.639-2.847H155.984a2.083,2.083,0,0,0-2.037,2.847l8.1,28.765A4.018,4.018,0,0,0,165.665,135.739Z" transform="translate(-152.793 -101.28)"/>
          </g>
          <path id="Path_4389" data-name="Path 4389" class="cls-25" d="M162.863,126.859l-5.311-18.88a3.2,3.2,0,0,1,3.065-4.069H198.7a3.173,3.173,0,0,1,3.065,2.323l5.311,18.88a3.2,3.2,0,0,1-3.065,4.069H165.927A3.2,3.2,0,0,1,162.863,126.859Z" transform="translate(-150.129 -99.317)"/>
        </g>
        <g id="Group_2559" data-name="Group 2559" transform="translate(9.717 34.441)">
          <path id="Path_4390" data-name="Path 4390" class="cls-24" d="M158.839,121.541a1.482,1.482,0,0,0,1.393.961h51.02a1.517,1.517,0,0,0,1.393-.961.394.394,0,0,0-.366-.541H159.222A.416.416,0,0,0,158.839,121.541Z" transform="translate(-158.818 -121)"/>
          <path id="Path_4391" data-name="Path 4391" class="cls-24" d="M166.462,121.541a1.482,1.482,0,0,0,1.393.961h51.02a1.517,1.517,0,0,0,1.393-.961A.394.394,0,0,0,219.9,121H166.845A.4.4,0,0,0,166.462,121.541Z" transform="translate(-153.172 -121)"/>
          <path id="Path_4392" data-name="Path 4392" class="cls-24" d="M179.11,121.01v.245a.506.506,0,0,0,.5.506h8.672a.506.506,0,0,0,.5-.506v-.245Z" transform="translate(-143.775 -120.993)"/>
        </g>
      </g>
      <g id="Group_2563" data-name="Group 2563" transform="translate(64.807 0)">
        <path id="Path_4393" data-name="Path 4393" class="cls-26" d="M231.853,127.54a8.107,8.107,0,0,0-9.194-6.864c-4.754.7-46.667,7.632-52.953,34.948-3.831,16.662,7.47,45.532,16.333,68.673l7.7-2.288c-6.408-19.736-10.308-53.688-8.236-62.735,3.239-14.042,30.3-21.15,39.527-22.53A8.1,8.1,0,0,0,231.853,127.54Z" transform="translate(-136.357 12.827)"/>
        <path id="Path_4394" data-name="Path 4394" class="cls-15" d="M223.619,62.093a1.653,1.653,0,0,0-.3-.175c-1.881-8.016-9.037-16.068-17.6-16.068-8.445,0-15.515,7.877-17.517,15.719a2.265,2.265,0,0,0-1.5.541,6.24,6.24,0,0,0,0,9.5,2.346,2.346,0,0,0,1.95.524c1.637,4.873,6.739,12.592,14.4,13.151.052,3.021-.47,4.855-1.306,6.2-3.239,5.17-3.709,5.956-3.709,5.956a5.7,5.7,0,0,0,9.786,5.833c.052-.1.644-1.048,3.57-5.711,2.769-4.4,3.256-9.693,3.012-14.164,4.022-2.131,6.913-7,8.41-11.37a2.015,2.015,0,0,0,.8-.437,6.215,6.215,0,0,0,2.194-4.751A6.1,6.1,0,0,0,223.619,62.093Z" transform="translate(-124.814 -42.968)"/>
        <path id="Path_4395" data-name="Path 4395" class="cls-4" d="M221.064,142.317s4.945-9.082,1.759-26.477H182.285s-.575,13.239.348,26.477Z" transform="translate(-126.595 9.28)"/>
        <path id="Path_4396" data-name="Path 4396" class="cls-4" d="M214.329,121.973c-7.279,0-13.791-.052-19.572-.1-29.933-.227-38.97-.3-43.219,7.423-1.48,2.672-2.438,7.091,1.289,12.942,9.438,14.793,42.087,37.969,45.6,40.833l6.025-7.562c-7.818-6.34-24.761-25.866-34.338-37.2,5.955-.314,15.062-.245,24.5-.157,5.816.052,12.363.087,19.694.087a8.13,8.13,0,0,0,.017-16.26Z" transform="translate(-150.228 13.731)"/>
        <path id="Path_4397" data-name="Path 4397" class="cls-15" d="M235.838,110.536c0-3.738-3.918-11.282-8.846-19.142-4-6.357-8.619-12.907-12.154-17.779a4.822,4.822,0,1,0-7.784,5.694c4.214,5.781,8.619,12.278,12.119,17.884,3.674,5.816,6.391,10.689,6.948,12.819-1.828,3.528-12.468,14.339-21.784,22.74-.139.14-.261.279-.383.419-.07.07-.139.157-.209.227-.139.192-.261.4-.383.611-.035.07-.087.122-.122.192a5.461,5.461,0,0,0-.261.681c-.017.07-.052.122-.07.192a4.5,4.5,0,0,0-.122.7.887.887,0,0,0-.035.227,4.012,4.012,0,0,0,.017.646,1.507,1.507,0,0,0,.017.279,3.257,3.257,0,0,0,.122.594,2.035,2.035,0,0,0,.07.314c.07.192.157.367.226.559.052.1.087.21.139.314a4.768,4.768,0,0,0,.366.524,2.958,2.958,0,0,0,.174.245c.017.017.035.052.052.07l.035.035.017.017c.8.926,4.022,4.436,7.923,5.8a5.022,5.022,0,0,0,1.585.262c2,0,2.978-3.039,3.657-5.03.871-2.515-2.629-4.8-5.137-5.676a1.693,1.693,0,0,1-.192-.087C225.651,124.194,235.838,116.107,235.838,110.536Z" transform="translate(-111.296 -23.717)"/>
        <path id="Path_4398" data-name="Path 4398" class="cls-17" d="M225.555,91.394l-5.311,3.93-2.507,1.869c-3.5-5.606-7.905-12.1-12.119-17.884a4.822,4.822,0,1,1,7.784-5.694C216.918,78.488,221.55,85.037,225.555,91.394Z" transform="translate(-109.86 -23.717)"/>
        <path id="Path_4399" data-name="Path 4399" class="cls-27" d="M225.97,89.895l-5.781,3.6-4.945,3.091-.836-1.345-2.49-4.034c-1.759-2.864-3.361-5.4-4.545-7.231-1.167-1.834-1.915-2.987-1.933-3a6.312,6.312,0,0,1,4.231-9.693,5.6,5.6,0,0,1,1.428-.07,6.26,6.26,0,0,1,4.91,2.847c.122.175,3.03,4.646,6.634,10.479l2.49,4.017Z" transform="translate(-110.048 -24.051)"/>
        <path id="Path_4400" data-name="Path 4400" class="cls-28" d="M220.2,93.493l-4.945,3.091-.836-1.345-2.49-4.034c-1.759-2.864-3.361-5.4-4.545-7.231-1.167-1.834-1.915-2.987-1.933-3a6.312,6.312,0,0,1,4.231-9.693,5.6,5.6,0,0,1,1.428-.07,8.9,8.9,0,0,1,2.316,3.441c.122.3,2.751,7.318,5.92,16.417Z" transform="translate(-110.041 -24.051)"/>
        <path id="Path_4401" data-name="Path 4401" class="cls-5" d="M229.869,75.888c-2.8,16.208-8.323,56.919-7.122,73.3H182.21s.435-10.951,1.254-24.661c1.062-18.234,2.786-41.3,4.945-50.02.035-.122.052-.245.087-.349a3.975,3.975,0,0,1,3.866-2.969h33.555A3.994,3.994,0,0,1,229.869,75.888Z" transform="translate(-126.519 -24.052)"/>
        <path id="Path_4402" data-name="Path 4402" class="cls-16" d="M213.535,51.745c-3.831,4.96-26.485,8.034-26.485-3.144a4.378,4.378,0,0,1,1.567-3.493s.192,1.694,1.01,2.166a31.584,31.584,0,0,1,7.749-3.074s-.749,1.694,2.124,1.31C207.806,44.41,219.891,43.5,213.535,51.745Z" transform="translate(-122.932 -44.2)"/>
        <path id="Path_4403" data-name="Path 4403" class="cls-29" d="M198.062,81.751c0,.052-.244,1.572-.592,4.017-.348,2.463-.836,5.868-1.323,9.641l-.714,5.362-12.5,22.809c1.062-18.234,2.786-41.3,4.945-50.02a4.943,4.943,0,0,1,1.619-.838,5.4,5.4,0,0,1,3.326,0,7.758,7.758,0,0,1,4.928,5.2A7.9,7.9,0,0,1,198.062,81.751Z" transform="translate(-125.986 -23.104)"/>
        <path id="Path_4404" data-name="Path 4404" class="cls-16" d="M196.663,46.889c-4.144,1.1-7.714,8.366-8.08,12.662-.7,7.947,5.276,20.364,17.587,20.364,14.7,0,16.107-15.719,15.393-19.666-.714-3.965-3.134-12.767-9.438-13.553C208.329,46.208,201.1,45.719,196.663,46.889Z" transform="translate(-121.835 -42.732)"/>
        <path id="Path_4405" data-name="Path 4405" class="cls-15" d="M209.75,72.64c-.017-.035-.017-.035-.035-.017a5.2,5.2,0,0,0-1.428-.524,6.105,6.105,0,0,0-3.274.14A6.176,6.176,0,0,0,202.3,73.95c-.017.017-.052.035-.052.07a5.326,5.326,0,0,0-.418,1.188c-.174.768-2.194,9.973-4.318,20.242-2.229,10.584-4.614,22.285-5.311,27.036-1.445,9.9-16.891,17.867-22.724,20.1-.087.035-.174.087-.261.122a3.161,3.161,0,0,0-.54.279,4.314,4.314,0,0,0-.453.332c-.087.07-.174.122-.261.192a.379.379,0,0,1-.087.07l-.035.035c-1.236,1.153-6.095,6.043-5.485,12.016.244,2.5.3,3.144,2.647,3.842a12.233,12.233,0,0,0,3.674.367c2.664,0,4.179-.768,3.918-3.423-.07-.681-1.323-7.021-.209-8.226,13.739-5.833,27.025-8.383,29.376-24.294.627-4.279,2.769-14.863,4.841-24.87,2.333-11.143,4.6-21.552,4.649-21.762A4.9,4.9,0,0,0,209.75,72.64Z" transform="translate(-141.279 -23.493)"/>
        <path id="Path_4406" data-name="Path 4406" class="cls-17" d="M196.251,77.268c-.052.21-2.316,10.619-4.649,21.762l-9.072-3.58c2.124-10.269,4.144-19.474,4.318-20.242a5.327,5.327,0,0,1,.418-1.188c0-.035.035-.052.052-.07a6.177,6.177,0,0,1,2.716-1.712,6.105,6.105,0,0,1,3.274-.14,5.2,5.2,0,0,1,1.428.524c.017-.017.017-.017.035.017A4.931,4.931,0,0,1,196.251,77.268Z" transform="translate(-126.282 -23.493)"/>
        <path id="Path_4407" data-name="Path 4407" class="cls-27" d="M182.21,94.48l12.381,2.48.313-1.537.94-4.663c.662-3.283,1.289-6.235,1.741-8.366s.749-3.458.749-3.493a6.151,6.151,0,0,0-.139-3.283,6.334,6.334,0,0,0-4.632-4.279,6.1,6.1,0,0,0-3.274.14,6.338,6.338,0,0,0-4.266,4.646c-.052.21-1.2,5.414-2.542,12.138l-.94,4.663Z" transform="translate(-126.519 -24.06)"/>
        <g id="Group_2560" data-name="Group 2560" transform="translate(5.505 124.683)">
          <rect id="Rectangle_805" data-name="Rectangle 805" class="cls-30" width="13.565" height="0.873" transform="translate(78.237 5.03)"/>
          <path id="Path_4408" data-name="Path 4408" class="cls-30" d="M195.216,184.385c-14.54-10.724-31.778-27.42-39.283-38.022-2.542-3.6-3.187-6.707-1.9-9.2,1.95-3.772,8.132-5.851,17.43-5.851,3.152,0,8.532.017,14.1.052,5.973.035,12.154.052,16.037.052,7.4,0,7.4-3.493,7.4-4.8V115.59h.871v11.02c0,3.772-2.786,5.676-8.271,5.676-3.883,0-10.065-.035-16.037-.052-5.572-.017-10.953-.052-14.1-.052-8.828,0-14.905,1.956-16.664,5.379-1.132,2.183-.5,4.978,1.828,8.3,7.453,10.531,24.6,27.141,39.092,37.812Z" transform="translate(-153.389 -115.59)"/>
        </g>
        <g id="Group_2561" data-name="Group 2561" transform="translate(34.707 189.212)">
          <path id="Path_4409" data-name="Path 4409" class="cls-16" d="M181.949,156.315a2.332,2.332,0,0,0-.836.961c-1.219,2.725-5.99,8.89-8.985,10.933-3.2,2.2.7,7.123,5.561,4.73s6.977-7.456,9.171-8.452c2.194-1.013,1.167-1.326,6.478-3.945,4.092-2.008-1.132-5.921-3.779-7.632a2.448,2.448,0,0,0-2.7.07Z" transform="translate(-170.159 -152.537)"/>
        </g>
        <g id="Group_2562" data-name="Group 2562" transform="translate(42.419 229.068)">
          <path id="Path_4410" data-name="Path 4410" class="cls-16" d="M182.114,181.4a2.39,2.39,0,0,0-.418,1.205c-.122,2.987-2.669,7.527-6.221,9.815-3.274,2.1,2.857,4.35,7.819,2.219,4.44-1.886,2.773-5.2,4.427-6.951s2.542-2.2,6.512-6.619c3.047-3.388-3.256-5.082-6.338-5.676a2.474,2.474,0,0,0-2.49,1.083Z" transform="translate(-174.588 -175.358)"/>
        </g>
      </g>
      <g id="Group_2565" data-name="Group 2565" transform="translate(64.841)">
        <g id="Group_2564" data-name="Group 2564" class="cls-31">
          <path id="Path_4411" data-name="Path 4411" class="cls-23" d="M293.173,65.3C277.8,49.717,264.094,43.639,244.539,44.407c-14.888.594-30.333,2.934-38.726,24.084-12.816,32.276,14.54,50.265,10.274,82.61-3.657,27.822-27.843,27.682-34.6,56.919-3.517,15.265,4,35.734,22.9,57.128,33.328,37.742,107.646,43.488,128.681-35.7C348.407,171.833,325.231,97.763,293.173,65.3Z" transform="translate(-127.712 -44.093)"/>
        </g>
      </g>
      <g id="Group_2566" data-name="Group 2566" transform="translate(0 151.16)">
        <rect id="Rectangle_806" data-name="Rectangle 806" class="cls-8" width="43.062" height="125.626" transform="translate(119.052)"/>
        <rect id="Rectangle_807" data-name="Rectangle 807" class="cls-32" width="43.062" height="29.761" transform="translate(178.708 95.866)"/>
        <rect id="Rectangle_808" data-name="Rectangle 808" class="cls-32" width="43.062" height="51.889" transform="translate(59.395 73.755)"/>
        <rect id="Rectangle_809" data-name="Rectangle 809" class="cls-32" width="43.062" height="83.902" transform="translate(0 41.724)"/>
      </g>
    </g>
    <g id="Group_2571" data-name="Group 2571" transform="translate(23.565 11.405)">
      <g id="Group_2568" data-name="Group 2568" transform="translate(169.689 147.702)">
        <rect id="Rectangle_810" data-name="Rectangle 810" class="cls-4" width="23.473" height="7.283" transform="translate(4.928 10.759)"/>
        <rect id="Rectangle_811" data-name="Rectangle 811" class="cls-8" width="2.525" height="63.451"/>
        <rect id="Rectangle_812" data-name="Rectangle 812" class="cls-4" width="14.331" height="7.283" transform="translate(4.928 21.238)"/>
        <rect id="Rectangle_813" data-name="Rectangle 813" class="cls-4" width="19.677" height="7.283" transform="translate(22.654 21.238)"/>
        <rect id="Rectangle_814" data-name="Rectangle 814" class="cls-4" width="9.316" height="7.283" transform="translate(4.928 31.717)"/>
        <rect id="Rectangle_815" data-name="Rectangle 815" class="cls-4" width="10.012" height="7.283" transform="translate(4.928 52.675)"/>
        <rect id="Rectangle_816" data-name="Rectangle 816" class="cls-4" width="23.978" height="7.283" transform="translate(21.191 52.675)"/>
      </g>
      <g id="Group_2569" data-name="Group 2569" transform="translate(0 51.138)">
        <rect id="Rectangle_817" data-name="Rectangle 817" class="cls-4" width="43.079" height="7.283" transform="translate(4.928)"/>
        <rect id="Rectangle_818" data-name="Rectangle 818" class="cls-8" width="2.525" height="63.451"/>
        <rect id="Rectangle_819" data-name="Rectangle 819" class="cls-4" width="49.331" height="7.283" transform="translate(4.928 10.479)"/>
        <rect id="Rectangle_820" data-name="Rectangle 820" class="cls-4" width="32.492" height="7.283" transform="translate(4.928 20.958)"/>
        <rect id="Rectangle_821" data-name="Rectangle 821" class="cls-4" width="6.199" height="7.283" transform="translate(4.928 41.916)"/>
        <rect id="Rectangle_822" data-name="Rectangle 822" class="cls-4" width="14.836" height="7.283" transform="translate(14.992 41.916)"/>
      </g>
      <g id="Group_2570" data-name="Group 2570" transform="translate(289.245)">
        <path id="Path_4485" data-name="Path 4485" class="cls-16" d="M.022.012,5.323,0,5.309,9.665l-5.3.008Z" transform="matrix(0.707, -0.707, 0.707, 0.707, 41.001, 44.928)"/>
        <path id="Path_4414" data-name="Path 4414" class="cls-4" d="M236.253,59.19h0a4.661,4.661,0,0,1-6.739-.14L209.89,37.6l4.858-4.873,21.366,19.683A4.715,4.715,0,0,1,236.253,59.19Z" transform="translate(-164.268 13.029)"/>
        <path id="Path_4415" data-name="Path 4415" class="cls-33" d="M232.371,31.715a23.564,23.564,0,0,1-38.378,18.408,22.8,22.8,0,0,1-3.848-3.93,24.9,24.9,0,0,1-1.881-2.829,23.614,23.614,0,0,1-3-9.8c-.052-.611-.07-1.223-.07-1.851A23.638,23.638,0,0,1,208.794,8.05c.627,0,1.254.035,1.863.07a23.114,23.114,0,0,1,9.751,3,24.06,24.06,0,0,1,2.821,1.886,23.711,23.711,0,0,1,9.142,18.705Z" transform="translate(-182.571 -5.395)"/>
        <path id="Path_4416" data-name="Path 4416" class="cls-34" d="M220.379,11.094,188.235,43.335a23.614,23.614,0,0,1-3-9.8L210.628,8.09A23.114,23.114,0,0,1,220.379,11.094Z" transform="translate(-182.541 -5.365)"/>
        <path id="Path_4417" data-name="Path 4417" class="cls-34" d="M225.032,14.75,191.878,48a22.8,22.8,0,0,1-3.848-3.93L221.114,10.89A22.189,22.189,0,0,1,225.032,14.75Z" transform="translate(-180.473 -3.275)"/>
        <path id="Path_4418" data-name="Path 4418" class="cls-8" d="M209.9,59.1A26.257,26.257,0,0,1,183.69,32.815a26.185,26.185,0,0,1,44.734-18.583h0a26.324,26.324,0,0,1,0,37.166A25.93,25.93,0,0,1,209.9,59.1Zm0-47.3A21.057,21.057,0,0,0,195.061,47.73,21.006,21.006,0,0,0,224.715,17.97h0A20.721,20.721,0,0,0,209.9,11.8Z" transform="translate(-183.69 -6.53)"/>
      </g>
    </g>
  </g>
</svg>
