<svg id="Group_2649" data-name="Group 2649" xmlns="http://www.w3.org/2000/svg" xmlns:xlink="http://www.w3.org/1999/xlink" viewBox="0 0 344.996 354">
  <defs>
    <style>
      .cls-1 {
        fill: #f6f6f9;
      }

      .cls-2 {
        opacity: 0.1;
      }

      .cls-15, .cls-3 {
        opacity: 0.91;
      }

      .cls-3 {
        fill: url(#linear-gradient);
      }

      .cls-4 {
        fill: #37456c;
      }

      .cls-26, .cls-5 {
        fill: #1abffe;
      }

      .cls-6 {
        opacity: 0.83;
      }

      .cls-7 {
        clip-path: url(#clip-path);
      }

      .cls-8 {
        fill: #fff;
      }

      .cls-11, .cls-9 {
        fill: #ffb17a;
      }

      .cls-10, .cls-11 {
        opacity: 0.2;
      }

      .cls-12 {
        fill: #24325a;
      }

      .cls-13 {
        fill: #fda261;
      }

      .cls-14 {
        fill: #ff8820;
      }

      .cls-15 {
        fill: url(#linear-gradient-2);
      }

      .cls-16 {
        clip-path: url(#clip-path-2);
      }

      .cls-17, .cls-18, .cls-19, .cls-20, .cls-23 {
        opacity: 0.28;
      }

      .cls-17 {
        fill: url(#linear-gradient-3);
      }

      .cls-18 {
        fill: url(#linear-gradient-4);
      }

      .cls-19 {
        fill: url(#linear-gradient-5);
      }

      .cls-20 {
        fill: url(#linear-gradient-6);
      }

      .cls-21 {
        fill: #dfe4f4;
      }

      .cls-22, .cls-25, .cls-27 {
        fill: none;
        stroke-miterlimit: 10;
      }

      .cls-22, .cls-27 {
        stroke: #fff;
      }

      .cls-22, .cls-25 {
        stroke-linecap: round;
      }

      .cls-22 {
        stroke-linejoin: round;
        stroke-width: 2px;
      }

      .cls-23 {
        fill: url(#linear-gradient-7);
      }

      .cls-24 {
        fill: #beedff;
      }

      .cls-25 {
        stroke: #1abffe;
      }

      .cls-26 {
        opacity: 0.68;
      }
    </style>
    <linearGradient id="linear-gradient" x1="0.431" y1="0.243" x2="0.431" y2="1.665" gradientUnits="objectBoundingBox">
      <stop offset="0" stop-color="#fff"/>
      <stop offset="1" stop-color="#bcc4db"/>
    </linearGradient>
    <clipPath id="clip-path">
      <path id="Path_4556" data-name="Path 4556" d="M17.8-.016c9.83-.009,17.793,6.588,17.786,14.733S27.6,29.473,17.773,29.482-.02,22.894-.013,14.749,7.969-.007,17.8-.016Z" transform="matrix(0.739, -0.673, 0.673, 0.739, 0, 23.987)"/>
    </clipPath>
    <linearGradient id="linear-gradient-2" x1="0.463" y1="0.242" x2="0.463" y2="1.665" xlink:href="#linear-gradient"/>
    <clipPath id="clip-path-2">
      <path id="Path_4559" data-name="Path 4559" d="M13.657-.012C21.2-.019,27.308,7.351,27.3,16.448S21.171,32.925,13.629,32.931-.022,25.569-.014,16.472,6.115-.005,13.657-.012Z" transform="matrix(0.673, -0.739, 0.739, 0.673, 0, 20.213)"/>
    </clipPath>
    <linearGradient id="linear-gradient-3" x1="0.5" y1="0.88" x2="0.5" y2="0.247" gradientUnits="objectBoundingBox">
      <stop offset="0" stop-color="#fff"/>
      <stop offset="1" stop-color="#ff8820"/>
    </linearGradient>
    <linearGradient id="linear-gradient-4" x1="0.5" y1="0.009" x2="0.5" y2="0.624" gradientUnits="objectBoundingBox">
      <stop offset="0" stop-color="#fff"/>
      <stop offset="1" stop-color="#1abffe"/>
    </linearGradient>
    <linearGradient id="linear-gradient-5" x1="0.5" y1="0.009" x2="0.5" y2="0.624" xlink:href="#linear-gradient-4"/>
    <linearGradient id="linear-gradient-6" x1="0.5" y1="0.88" x2="0.5" y2="0.247" xlink:href="#linear-gradient-3"/>
    <linearGradient id="linear-gradient-7" y1="0.5" x2="1" y2="0.5" gradientUnits="objectBoundingBox">
      <stop offset="0" stop-color="#fff"/>
      <stop offset="1" stop-color="#37456c"/>
    </linearGradient>
  </defs>
  <ellipse id="Ellipse_209" data-name="Ellipse 209" class="cls-1" cx="48.845" cy="9.58" rx="48.845" ry="9.58" transform="translate(21.645 334.841)"/>
  <ellipse id="Ellipse_210" data-name="Ellipse 210" class="cls-1" cx="48.845" cy="9.58" rx="48.845" ry="9.58" transform="translate(207.507 334.841)"/>
  <path id="Path_4488" data-name="Path 4488" class="cls-2" d="M227.97,44.71A25.382,25.382,0,0,0,203.79,77.6L192.15,87.633l16.179-1.579A25.325,25.325,0,1,0,227.97,44.71Z" transform="translate(90.975 21.284)"/>
  <g id="Group_2627" data-name="Group 2627" transform="translate(83.516 108.991)">
    <path id="Path_4489" data-name="Path 4489" class="cls-3" d="M139.9,126.623H56.68l9.9-52.783H149.8Z" transform="translate(-56.68 -73.84)"/>
    <g id="Group_2623" data-name="Group 2623" transform="translate(52.765 13.093)">
      <path id="Path_4490" data-name="Path 4490" class="cls-4" d="M119.37,83.758H94.69l.192-1.048h24.68Z" transform="translate(-91.448 -82.71)"/>
      <path id="Path_4491" data-name="Path 4491" class="cls-4" d="M118.82,86.678H94.14l.192-1.048h24.68Z" transform="translate(-91.709 -81.32)"/>
      <path id="Path_4492" data-name="Path 4492" class="cls-4" d="M118.27,89.6H93.59l.192-1.048h24.68Z" transform="translate(-91.969 -79.93)"/>
      <path id="Path_4493" data-name="Path 4493" class="cls-4" d="M117.72,92.518H93.04l.192-1.048h24.68Z" transform="translate(-92.23 -78.54)"/>
      <path id="Path_4494" data-name="Path 4494" class="cls-4" d="M117.17,95.438H92.49L92.7,94.39h24.68Z" transform="translate(-92.49 -77.15)"/>
      <path id="Path_4495" data-name="Path 4495" class="cls-4" d="M110.637,102.058H102.43l.206-1.048h8.192Z" transform="translate(-87.784 -73.998)"/>
    </g>
    <path id="Path_4496" data-name="Path 4496" class="cls-5" d="M67.144,76.321a1.49,1.49,0,0,1-1.4,1.181.956.956,0,0,1-.958-1.181,1.491,1.491,0,0,1,1.4-1.181A.956.956,0,0,1,67.144,76.321Z" transform="translate(-52.851 -73.221)"/>
    <path id="Path_4497" data-name="Path 4497" class="cls-5" d="M70.7,76.321A1.491,1.491,0,0,1,69.3,77.5a.956.956,0,0,1-.958-1.181,1.491,1.491,0,0,1,1.4-1.181A.956.956,0,0,1,70.7,76.321Z" transform="translate(-51.166 -73.221)"/>
    <path id="Path_4498" data-name="Path 4498" class="cls-5" d="M74.264,76.321a1.491,1.491,0,0,1-1.4,1.181.956.956,0,0,1-.958-1.181,1.491,1.491,0,0,1,1.4-1.181A.956.956,0,0,1,74.264,76.321Z" transform="translate(-49.48 -73.221)"/>
    <g id="Group_2626" data-name="Group 2626" class="cls-6" transform="translate(9.571 2.656)">
      <path id="Path_4555" data-name="Path 4555" class="cls-5" d="M17.8-.016c9.83-.009,17.793,6.588,17.786,14.733S27.6,29.473,17.773,29.482-.02,22.894-.013,14.749,7.969-.007,17.8-.016Z" transform="matrix(0.739, -0.673, 0.673, 0.739, 0, 23.987)"/>
      <g id="Group_2625" data-name="Group 2625" transform="translate(0)">
        <g id="Group_2624" data-name="Group 2624" class="cls-7">
          <path id="Path_4499" data-name="Path 4499" class="cls-8" d="M86.641,90.465A6.98,6.98,0,0,1,80.084,96a4.47,4.47,0,0,1-4.494-5.535,6.98,6.98,0,0,1,6.557-5.535A4.464,4.464,0,0,1,86.641,90.465Z" transform="translate(-57.342 -71.217)"/>
          <path id="Path_4500" data-name="Path 4500" class="cls-8" d="M93.776,106.292c-1.326,7.085-8.148,12.842-15.221,12.842s-11.729-5.742-10.4-12.842S76.3,93.45,83.373,93.45,95.117,99.207,93.776,106.292Z" transform="translate(-60.926 -67.161)"/>
        </g>
      </g>
    </g>
  </g>
  <g id="Group_2628" data-name="Group 2628" transform="translate(40.638 80.064)">
    <path id="Path_4501" data-name="Path 4501" class="cls-4" d="M51.772,221.68s-4,13.775,3.035,17.849,22.465,4.352,25.108-1.553-11.876-7.926-17.2-10.539l-.589-5.757Z" transform="translate(-16.586 25.465)"/>
    <path id="Path_4502" data-name="Path 4502" class="cls-5" d="M66.272,133.88l1.945,133.966H56.724s-12.7-52.473-6.454-67.795L39.19,133.88H66.272Z" transform="translate(-22.083 -16.331)"/>
    <path id="Path_4503" data-name="Path 4503" class="cls-2" d="M66.267,133.88H39.2l11.08,66.171c-2.166,5.314-2.048,15.085-.972,25.58l18.654,22.8Z" transform="translate(-22.078 -16.331)"/>
    <path id="Path_4504" data-name="Path 4504" class="cls-4" d="M32.03,223.09s-6.169,12.275,0,17.006,21.8,6.462,24.675,1.917-10.795-10.555-16.1-13.167l.972-5.757Z" transform="translate(-27.58 26.137)"/>
    <path id="Path_4505" data-name="Path 4505" class="cls-5" d="M71.543,132.78,60.227,199.925,41.219,268.37H29.8s3.654-65.7,15.442-72.548L35.93,132.78Z" transform="translate(-26.529 -16.855)"/>
    <path id="Path_4506" data-name="Path 4506" class="cls-2" d="M68.793,137.356l.781-4.576H33.96l.81,5.447,34.1,4.369Z" transform="translate(-24.559 -16.855)"/>
    <path id="Path_4507" data-name="Path 4507" class="cls-9" d="M70.57,105.877a38.993,38.993,0,0,1,6.395-7.442c3.5-3.13,8.379-6.66,10.224-7s-2.541,2.59-3.387,6.038,2.608,5.037,0,7.753-6.837,2.937-6.837,2.937l-2.932,3.262Z" transform="translate(-7.226 -36.344)"/>
    <path id="Path_4508" data-name="Path 4508" class="cls-8" d="M52.835,95.02,62.486,114.8l18.978-12.827,4.774,7.277s-16.488,31.071-23.752,28.8S48.93,119.36,48.93,119.36Z" transform="translate(-17.472 -34.831)"/>
    <path id="Path_4509" data-name="Path 4509" class="cls-10" d="M62.486,114.789,52.835,95.01l-3.9,24.34s6.292,16.4,13.556,18.687a2.214,2.214,0,0,0,.53.089L71.783,108.5Z" transform="translate(-17.472 -34.835)"/>
    <path id="Path_4510" data-name="Path 4510" class="cls-9" d="M65.593,65.384A43.054,43.054,0,0,1,67.05,78.36c-.384,5.173-1.066,8.723-3.688,11.63s-5.654.137-6.611,1.273S54.218,99.2,54.218,99.2L41.6,98.138l1.3-11.321s-7.073-8.473-4.966-18.908S63.722,55.687,65.593,65.384Z" transform="translate(-22.862 -51.971)"/>
    <path id="Path_4511" data-name="Path 4511" class="cls-11" d="M49.075,74.907,39.1,74.39A25.684,25.684,0,0,0,42.165,79.5l-1.3,11.321,12.613,1.063s1.385-8.074,2.343-9.211a3.052,3.052,0,0,1,2.078-.635C53.083,80.678,48.707,75.158,49.075,74.907Z" transform="translate(-22.126 -44.651)"/>
    <path id="Path_4512" data-name="Path 4512" class="cls-4" d="M67.7,70.977s-2.637,1.579-8.016-1.963c0,0-3.581,6.465-6.719,5.653,0,0-.162,4.62-.81,4.945s-2-3.365-3.359-3.631-5.422.188-4.008,4.2S48.8,84.2,48.8,84.2l-4.2,4.89s-5.452-1.771-6.527-6.273c0,0-6.94-6.79-2.77-11.572,0,0-4.612-3.912,6.13-8.635,0,0,2.52-9.373,7.559-5.048,0,0,9.253-6.923,11.581-.768,0,0,11.935-.974,12.686,5.491s-2.122,8.044-2.122,8.044.648,5.329-2.652,5.653Z" transform="translate(-24.557 -54.242)"/>
    <path id="Path_4513" data-name="Path 4513" class="cls-4" d="M36.506,99.5s-6.292-1.52-5.2-8.251,9.9-9.771,27.981-5.535c2.137.5,3.8,4.015,2.387,7.056,0,0,5.805,14.288,7.588,26.023s2.77,23.956,4.715,29.654.324,12.059-5.039,12.059H35.932c-6.527,0-7.367-9.122-4.759-18.583S37.6,106.295,36.506,99.5Z" transform="translate(-26.531 -40.186)"/>
    <path id="Path_4514" data-name="Path 4514" class="cls-8" d="M52.081,91.971c10.314,2.2,3.138,22.657,1.076,28.517s-4.332,11.085-1.076,15.646a69.952,69.952,0,0,0,9.018,9.609l-3.846,8.148s-21.468-2.775-26.581-9.122-2.21-20.576,2.21-30.318S44.434,90.333,52.081,91.971Z" transform="translate(-27.401 -36.343)"/>
    <path id="Path_4515" data-name="Path 4515" class="cls-12" d="M47.505,138.816h0a.514.514,0,0,1-.25-.679l5.231-11.351a.513.513,0,0,1,.678-.251h0a.514.514,0,0,1,.25.679l-5.231,11.351A.522.522,0,0,1,47.505,138.816Z" transform="translate(-18.287 -19.85)"/>
  </g>
  <g id="Group_2629" data-name="Group 2629" transform="translate(197.134 77.56)">
    <path id="Path_4516" data-name="Path 4516" class="cls-5" d="M171.686,125.65,167.87,131.1s-4.347,59.234-3.183,76.193,5.953,67.042,5.953,67.042l-21.38,10.273L180.5,283s-3.153-5.934-.972-21.595c3.418-24.606,2.284-39.765-1.621-51.824,0,0,12.686-67.145,16.591-81.817Z" transform="translate(-126.466 -17.745)"/>
    <path id="Path_4517" data-name="Path 4517" class="cls-2" d="M184.731,136.1l-19.376,75.057c1.724,21.152,5.275,58.2,5.275,58.2l-21.38,10.273,31.237-1.609s-3.153-5.934-.972-21.595c3.418-24.606,2.284-39.765-1.621-51.824,0,0,6.085-32.193,11.125-56.872Z" transform="translate(-126.47 -12.77)"/>
    <path id="Path_4518" data-name="Path 4518" class="cls-9" d="M180.841,209.72h-12.51c1.238,13.506,2.3,24.576,2.3,24.576l-21.38,10.273,31.237-1.609s-3.153-5.934-.972-21.595C180.075,217.218,180.517,213.366,180.841,209.72Z" transform="translate(-126.47 22.276)"/>
    <path id="Path_4519" data-name="Path 4519" class="cls-5" d="M171.42,124.215S177.844,189,180.1,205.825s14.617,61.8,14.941,66.363-7.161,20.547-7.161,20.547,16.267-10.775,20.172-15.986c0,0-6.277-6.2-6.071-12.059s-2.063-47.012-8.251-58.879c0,0,3.9-40.075,4.877-48.3s1.3-28.1-2.284-33.314h-24.9Z" transform="translate(-115.974 -18.435)"/>
    <path id="Path_4520" data-name="Path 4520" class="cls-2" d="M200.952,124.21H176.036s.118,1.122.309,3.1l-10.535-.974-3.816,5.447s-.118,1.668-.324,4.5c13.792,3.026,32.961,1.018,41.935-.221C203.222,130.867,202.411,126.321,200.952,124.21Z" transform="translate(-120.59 -18.431)"/>
    <path id="Path_4521" data-name="Path 4521" class="cls-8" d="M178.772,52.552c10.565-.28,11.876,9.284,13.5,19.4s2.77,13.683,6.513,18.421,1.3,8.635,4.715,13.358,15.781,21.845.81,28.355-24.238.649-28.629-8.148-6.189-14.347-11.552-18.583S158.6,92.641,162,86.767s2.608-10.6,1.459-17.432C162.342,62.5,166.733,52.877,178.772,52.552Z" transform="translate(-121.513 -52.546)"/>
    <path id="Path_4522" data-name="Path 4522" class="cls-10" d="M185.637,99.742c.4-9.963-3.4-12.3-6.852-20.414S166.732,65.97,166.732,65.97a8.539,8.539,0,0,0-2.564,1.447c.589,4.635.471,8.473-2.151,12.974-3.418,5.86-3.256,14.347,2.122,18.583,3.256,2.568,5.187,5.624,7.191,9.58C179.006,109.189,185.327,107.3,185.637,99.742Z" transform="translate(-121.512 -46.155)"/>
    <path id="Path_4523" data-name="Path 4523" class="cls-9" d="M179.114,85.04s-3.787,1.535-5.953,9.565-8.576,34.982-8.576,34.982L145.062,154.68a24.722,24.722,0,0,0-7.043,1.742c-2.593,1.314-4.365,3.284-4.229,4.015s2.284-.325,4.774-1.092c0,0-5.857,5.7-4.774,7.6s4.984,2.362,9.106,0,4.877-4.236,7.382-9.447l24.3-24.768s4.774-24.561,6.719-30.1S179.114,85.04,179.114,85.04Z" transform="translate(-133.79 -37.077)"/>
    <path id="Path_4524" data-name="Path 4524" class="cls-10" d="M171.439,85.04s-3.787,1.535-5.953,9.565-8.561,34.982-8.561,34.982l-6.925,8.9,16.9-5.757s4.774-24.561,6.719-30.1S171.439,85.04,171.439,85.04Z" transform="translate(-126.115 -37.077)"/>
    <path id="Path_4525" data-name="Path 4525" class="cls-9" d="M164.48,68.459a37.3,37.3,0,0,0,9.106-4.236s-1.709,2.686-.737,2.686,6.837-6.2,6.837-6.2-.81,12.148,5.2,17.594v14.51H174.47l-.206-6.273a8.933,8.933,0,0,1-2.372.649c-.81,0-5.467-5.137-5.231-10.421C166.838,73.2,165.541,68.961,164.48,68.459Z" transform="translate(-119.26 -48.659)"/>
    <path id="Path_4526" data-name="Path 4526" class="cls-13" d="M171.13,80.419l.192,5.757c7.529-1.889,8.207-12.576,8.207-12.576A13.364,13.364,0,0,1,171.13,80.419Z" transform="translate(-116.111 -42.523)"/>
    <path id="Path_4527" data-name="Path 4527" class="cls-14" d="M173.978,84.473V80.65h14s-.413,3.5.81,4.325,8.222,2.362,9.931,5.535,3.551,17.535,1.3,29.58-2.107,14.259-.236,18.406,4.715,9.86,5.039,14.022c0,0-27.244,4.886-42.539,0,0,0,7.073-17.358,6.2-26.052s-6.395-11.631-7.264-16.738,3.359-12.487,3.359-12.487-.221-8.369,1.621-10.111C167.672,85.7,173.978,84.473,173.978,84.473Z" transform="translate(-120.86 -39.167)"/>
    <path id="Path_4528" data-name="Path 4528" class="cls-2" d="M204.424,141.812c-.324-4.162-3.168-9.86-5.039-14.022-1.724-3.838-1.989-6.022-.236-15.838l-36.586-8.812h0c1.974,3.188,4.921,6.465,5.54,12.605.869,8.694-6.2,26.052-6.2,26.052C177.165,146.7,204.424,141.812,204.424,141.812Z" transform="translate(-120.481 -28.461)"/>
    <path id="Path_4529" data-name="Path 4529" class="cls-9" d="M202.327,86.31s-4.465,2.495-4.14,11.041,2.873,25.993,2.873,25.993l-29.233-1.387s-7.559-4.974-10.653-5.7-10.255-.413-10.491,1.225,7.485,4.162,7.485,4.162l3.418,3.5s-5.688-1.786-5.938-.9,6.424,5.7,15.368,3.424c0,0,37.352,6.568,39.783,4.886,2.962-2.037-1.459-27.056-2.033-30.805S206.585,89.233,202.327,86.31Z" transform="translate(-125.795 -36.473)"/>
    <path id="Path_4530" data-name="Path 4530" class="cls-9" d="M189.751,233.748c.324,4.561-7.161,20.547-7.161,20.547s16.267-10.775,20.172-15.986c0,0-6.277-6.2-6.071-12.059.088-2.465-.265-11.174-1.164-21.3l-11.92,2.731C186.789,220.537,189.589,231.607,189.751,233.748Z" transform="translate(-110.685 20.005)"/>
    <path id="Path_4531" data-name="Path 4531" class="cls-4" d="M178.812,226.37a11.006,11.006,0,0,1-4.224,1.1,9.137,9.137,0,0,1-3.969-1.1s-23.908,3.807-21.38,10.273,21,2.568,28.389,0S179.151,232.481,178.812,226.37Z" transform="translate(-126.475 30.202)"/>
    <path id="Path_4532" data-name="Path 4532" class="cls-4" d="M202.762,229.7c-.4-3.038-2.976-2.937-4.759-6.672-4.126,4.384-8.251,2.111-8.251,2.111.324,4.561-13.472,18.57-7.411,20.629,4.121,1.4,12.385-5.143,17.258-10.588C201.6,232.949,203.16,232.74,202.762,229.7Z" transform="translate(-110.685 28.612)"/>
  </g>
  <g id="Group_2634" data-name="Group 2634" transform="translate(176.815 127.929)">
    <path id="Path_4533" data-name="Path 4533" class="cls-15" d="M129.165,135.527h77.018L197.018,86.67H120Z" transform="translate(-120 -86.67)"/>
    <g id="Group_2630" data-name="Group 2630" transform="translate(11.331 12.104)">
      <path id="Path_4534" data-name="Path 4534" class="cls-4" d="M127.867,95.844h22.839l-.177-.974H127.69Z" transform="translate(-127.69 -94.87)"/>
      <path id="Path_4535" data-name="Path 4535" class="cls-4" d="M128.382,98.539H151.22l-.177-.959H128.19Z" transform="translate(-127.453 -93.58)"/>
      <path id="Path_4536" data-name="Path 4536" class="cls-4" d="M128.892,101.254H151.73l-.177-.974H128.7Z" transform="translate(-127.212 -92.295)"/>
      <path id="Path_4537" data-name="Path 4537" class="cls-4" d="M129.387,103.954H152.24l-.192-.974H129.21Z" transform="translate(-126.97 -91.009)"/>
      <path id="Path_4538" data-name="Path 4538" class="cls-4" d="M129.9,106.654H152.75l-.192-.974H129.72Z" transform="translate(-126.729 -89.724)"/>
      <path id="Path_4539" data-name="Path 4539" class="cls-4" d="M131.047,112.784h7.588l-.177-.974H130.87Z" transform="translate(-126.184 -86.806)"/>
    </g>
    <path id="Path_4540" data-name="Path 4540" class="cls-14" d="M169.527,88.962a1.38,1.38,0,0,0,1.3,1.092.875.875,0,0,0,.884-1.092,1.38,1.38,0,0,0-1.3-1.092A.875.875,0,0,0,169.527,88.962Z" transform="translate(-96.561 -86.099)"/>
    <path id="Path_4541" data-name="Path 4541" class="cls-14" d="M166.225,88.962a1.38,1.38,0,0,0,1.3,1.092.875.875,0,0,0,.884-1.092,1.38,1.38,0,0,0-1.3-1.092A.882.882,0,0,0,166.225,88.962Z" transform="translate(-98.122 -86.099)"/>
    <path id="Path_4542" data-name="Path 4542" class="cls-14" d="M162.937,88.962a1.38,1.38,0,0,0,1.3,1.092.875.875,0,0,0,.884-1.092,1.38,1.38,0,0,0-1.3-1.092A.875.875,0,0,0,162.937,88.962Z" transform="translate(-99.681 -86.099)"/>
    <g id="Group_2633" data-name="Group 2633" class="cls-6" transform="translate(34.595 2.464)">
      <path id="Path_4557" data-name="Path 4557" class="cls-14" d="M13.657-.012C21.2-.019,27.308,7.351,27.3,16.448S21.171,32.925,13.629,32.931-.022,25.569-.014,16.472,6.115-.005,13.657-.012Z" transform="matrix(0.673, -0.739, 0.739, 0.673, 0, 20.213)"/>
      <g id="Group_2632" data-name="Group 2632" transform="translate(0)">
        <g id="Group_2631" data-name="Group 2631" class="cls-16">
          <path id="Path_4558" data-name="Path 4558" class="cls-8" d="M4.661,0c2.574,0,4.658,2.511,4.656,5.614s-2.092,5.62-4.666,5.622S-.008,8.721,0,5.618,2.087,0,4.661,0Z" transform="matrix(0.673, -0.739, 0.739, 0.673, 13.432, 17.473)"/>
          <path id="Path_4543" data-name="Path 4543" class="cls-8" d="M151.907,116.7c1.238,6.568,7.544,11.882,14.086,11.882s10.859-5.314,9.636-11.882-7.544-11.882-14.086-11.882S150.684,110.134,151.907,116.7Z" transform="translate(-139.587 -80.494)"/>
        </g>
      </g>
    </g>
  </g>
  <rect id="Rectangle_823" data-name="Rectangle 823" class="cls-17" width="25.27" height="108.991" transform="translate(101.875)"/>
  <rect id="Rectangle_824" data-name="Rectangle 824" class="cls-18" width="25.27" height="108.991" transform="translate(134.969)"/>
  <rect id="Rectangle_825" data-name="Rectangle 825" class="cls-19" width="25.27" height="108.991" transform="translate(190.017 18.938)"/>
  <rect id="Rectangle_826" data-name="Rectangle 826" class="cls-20" width="25.27" height="108.991" transform="translate(220.444 18.938)"/>
  <g id="Group_2636" data-name="Group 2636" transform="translate(154.172 58.466)">
    <path id="Path_4544" data-name="Path 4544" class="cls-5" d="M118.556,56.19a2.731,2.731,0,1,0,2.726,2.731A2.732,2.732,0,0,0,118.556,56.19Z" transform="translate(-99.331 -31.717)"/>
    <g id="Group_2635" data-name="Group 2635">
      <path id="Path_4545" data-name="Path 4545" class="cls-5" d="M119.982,51.55a9.429,9.429,0,0,0-6.66,2.745,1.758,1.758,0,0,0-.015,2.45h0a1.721,1.721,0,0,0,2.475.074,5.969,5.969,0,0,1,8.428,0,1.747,1.747,0,0,0,2.475-.074h0a1.758,1.758,0,0,0-.015-2.45A9.589,9.589,0,0,0,119.982,51.55Z" transform="translate(-100.757 -33.926)"/>
      <path id="Path_4546" data-name="Path 4546" class="cls-5" d="M123.857,39.61a27,27,0,0,0-18.713,7.543,1.757,1.757,0,0,0-.029,2.45l.177.177a1.756,1.756,0,0,0,2.461.1,23.234,23.234,0,0,1,32.225,0,1.73,1.73,0,0,0,2.461-.1l.177-.177a1.744,1.744,0,0,0-.029-2.45A27.035,27.035,0,0,0,123.857,39.61Z" transform="translate(-104.632 -39.61)"/>
      <path id="Path_4547" data-name="Path 4547" class="cls-5" d="M121.73,46.11a17.448,17.448,0,0,0-11.994,4.768,1.915,1.915,0,0,0-.1,2.7h0a1.866,1.866,0,0,0,2.652.059,13.771,13.771,0,0,1,18.89,0,1.878,1.878,0,0,0,2.652-.059h0a1.915,1.915,0,0,0-.1-2.7A17.448,17.448,0,0,0,121.73,46.11Z" transform="translate(-102.505 -36.516)"/>
    </g>
  </g>
  <ellipse id="Ellipse_216" data-name="Ellipse 216" class="cls-21" cx="23.089" cy="23.13" rx="23.089" ry="23.13" transform="translate(298.818 222.012)"/>
  <ellipse id="Ellipse_217" data-name="Ellipse 217" class="cls-21" cx="14.867" cy="14.893" rx="14.867" ry="14.893" transform="translate(0 82.467)"/>
  <path id="Path_4548" data-name="Path 4548" class="cls-5" d="M226.57,41.84A25.382,25.382,0,0,0,202.39,74.726L190.75,84.763l16.179-1.579A25.325,25.325,0,1,0,226.57,41.84Z" transform="translate(90.312 19.918)"/>
  <path id="Path_4549" data-name="Path 4549" class="cls-22" d="M234.627,59.828H232.77a3.984,3.984,0,0,0-3.978-3.985,4.178,4.178,0,0,0-.972.133,6.639,6.639,0,0,0-12.053-1.314,6.156,6.156,0,0,0-1.061-.1,5.719,5.719,0,0,0-5.688,5.269h-.663a4.162,4.162,0,0,0,0,8.325h26.272a4.162,4.162,0,0,0,0-8.325Z" transform="translate(96.68 24.454)"/>
  <g id="Group_2643" data-name="Group 2643" transform="translate(110.23 205.008)">
    <path id="Path_4550" data-name="Path 4550" class="cls-23" d="M152.38,140.79H81.389a4.793,4.793,0,0,0-4.789,4.8v74.776a4.793,4.793,0,0,0,4.789,4.8H152.38a4.793,4.793,0,0,0,4.789-4.8V145.587A4.8,4.8,0,0,0,152.38,140.79Z" transform="translate(-73.963 -137.986)"/>
    <path id="Path_4551" data-name="Path 4551" class="cls-8" d="M150.575,138.89H79.6a4.793,4.793,0,0,0-4.789,4.8v74.776a4.793,4.793,0,0,0,4.789,4.8H150.59a4.793,4.793,0,0,0,4.789-4.8V143.687A4.805,4.805,0,0,0,150.575,138.89Z" transform="translate(-74.81 -138.89)"/>
    <path id="Path_4552" data-name="Path 4552" class="cls-5" d="M150.575,138.89H79.6a4.793,4.793,0,0,0-4.789,4.8v6.923h80.569v-6.923A4.805,4.805,0,0,0,150.575,138.89Z" transform="translate(-74.81 -138.89)"/>
    <g id="Group_2637" data-name="Group 2637" transform="translate(3.743 4.413)">
      <ellipse id="Ellipse_218" data-name="Ellipse 218" class="cls-8" cx="1.606" cy="1.609" rx="1.606" ry="1.609" transform="translate(0 0)"/>
      <ellipse id="Ellipse_219" data-name="Ellipse 219" class="cls-8" cx="1.606" cy="1.609" rx="1.606" ry="1.609" transform="translate(7.279 0)"/>
      <path id="Path_4553" data-name="Path 4553" class="cls-8" d="M90.442,143.489a1.606,1.606,0,1,1-1.606-1.609A1.593,1.593,0,0,1,90.442,143.489Z" transform="translate(-72.672 -141.88)"/>
    </g>
    <g id="Group_2638" data-name="Group 2638" transform="translate(68.295 3.867)">
      <rect id="Rectangle_827" data-name="Rectangle 827" class="cls-8" width="5.157" height="0.679"/>
      <rect id="Rectangle_828" data-name="Rectangle 828" class="cls-8" width="5.157" height="0.679" transform="translate(0 1.653)"/>
      <rect id="Rectangle_829" data-name="Rectangle 829" class="cls-8" width="5.157" height="0.679" transform="translate(0 3.321)"/>
    </g>
    <g id="Group_2640" data-name="Group 2640" transform="translate(8.988 19.292)">
      <rect id="Rectangle_830" data-name="Rectangle 830" class="cls-2" width="62.578" height="22.908" transform="translate(1.149 1.417)"/>
      <rect id="Rectangle_831" data-name="Rectangle 831" class="cls-24" width="62.578" height="22.908"/>
      <g id="Group_2639" data-name="Group 2639" transform="translate(4.42 5.55)">
        <line id="Line_113" data-name="Line 113" class="cls-25" x2="51.689"/>
        <line id="Line_114" data-name="Line 114" class="cls-25" x2="51.689" transform="translate(0 3.926)"/>
        <line id="Line_115" data-name="Line 115" class="cls-25" x2="51.689" transform="translate(0 7.867)"/>
        <line id="Line_116" data-name="Line 116" class="cls-25" x2="22.721" transform="translate(0 11.808)"/>
      </g>
    </g>
    <g id="Group_2642" data-name="Group 2642" transform="translate(8.988 51.381)">
      <rect id="Rectangle_832" data-name="Rectangle 832" class="cls-2" width="62.578" height="22.908" transform="translate(1.149 1.417)"/>
      <rect id="Rectangle_833" data-name="Rectangle 833" class="cls-24" width="62.578" height="22.908"/>
      <g id="Group_2641" data-name="Group 2641" transform="translate(4.42 5.55)">
        <line id="Line_117" data-name="Line 117" class="cls-25" x2="51.689"/>
        <line id="Line_118" data-name="Line 118" class="cls-25" x2="51.689" transform="translate(0 3.926)"/>
        <line id="Line_119" data-name="Line 119" class="cls-25" x2="51.689" transform="translate(0 7.867)"/>
        <line id="Line_120" data-name="Line 120" class="cls-25" x2="22.721" transform="translate(0 11.808)"/>
      </g>
    </g>
  </g>
  <g id="Group_2644" data-name="Group 2644" transform="translate(173.971 229.997)">
    <ellipse id="Ellipse_220" data-name="Ellipse 220" class="cls-26" cx="14.749" cy="14.775" rx="14.749" ry="14.775"/>
    <path id="Path_4554" data-name="Path 4554" class="cls-8" d="M139.434,165.636l-15.6-3.926,3.919,15.646,2.844-2.849,16.8,18.524,7.706-7.7L136.6,168.485Z" transform="translate(-115.343 -153.016)"/>
  </g>
  <g id="Group_2645" data-name="Group 2645" transform="translate(298.818 188.033)">
    <line id="Line_121" data-name="Line 121" class="cls-27" x2="7.677" transform="translate(0 3.838)"/>
    <line id="Line_122" data-name="Line 122" class="cls-27" y2="7.69" transform="translate(3.831)"/>
  </g>
  <g id="Group_2646" data-name="Group 2646" transform="translate(123.299 181.627)">
    <line id="Line_123" data-name="Line 123" class="cls-27" x2="7.677" transform="translate(0 3.838)"/>
    <line id="Line_124" data-name="Line 124" class="cls-27" y2="7.69" transform="translate(3.846)"/>
  </g>
  <g id="Group_2647" data-name="Group 2647" transform="translate(207.331 288.345)">
    <line id="Line_125" data-name="Line 125" class="cls-27" x2="7.677" transform="translate(0 3.852)"/>
    <line id="Line_126" data-name="Line 126" class="cls-27" y2="7.69" transform="translate(3.831)"/>
  </g>
  <g id="Group_2648" data-name="Group 2648" transform="translate(24.003 182.853)">
    <line id="Line_127" data-name="Line 127" class="cls-27" x2="7.677" transform="translate(0 3.852)"/>
    <line id="Line_128" data-name="Line 128" class="cls-27" y2="7.69" transform="translate(3.846)"/>
  </g>
</svg>
