<svg xmlns="http://www.w3.org/2000/svg" xmlns:xlink="http://www.w3.org/1999/xlink" viewBox="0 0 396 360">
  <defs>
    <style>
      .cls-1 {
        fill: none;
      }

      .cls-2 {
        clip-path: url(#clip-path);
      }

      .cls-3 {
        fill: #354367;
      }

      .cls-4 {
        fill: #fff;
      }

      .cls-5 {
        fill: #0e93c6;
      }

      .cls-6 {
        fill: #3e4c72;
      }

      .cls-7 {
        fill: #dfdfeb;
      }

      .cls-8 {
        fill: #ffbb80;
      }

      .cls-9 {
        fill: #47df89;
      }

      .cls-10 {
        fill: #f4ad70;
      }

      .cls-11 {
        fill: #2ac3a3;
      }

      .cls-12 {
        fill: #fbfbfe;
      }

      .cls-13 {
        fill: #f07306;
      }

      .cls-14 {
        fill: #ff8820;
      }

      .cls-15 {
        fill: #303c5e;
      }

      .cls-16 {
        fill: #46debf;
      }

      .cls-17 {
        fill: #ebe8eb;
      }

      .cls-18 {
        fill: #fdd976;
      }

      .cls-19 {
        fill: #8bacdd;
      }

      .cls-20 {
        fill: #9fbbea;
      }

      .cls-21 {
        fill: #d2e0f7;
      }

      .cls-22 {
        fill: #b9cbff;
      }

      .cls-23 {
        fill: #3b6cf7;
      }
    </style>
    <clipPath id="clip-path">
      <path id="Path_2178" data-name="Path 2178" class="cls-1" d="M0-338.441H396v360H0Z" transform="translate(0 338.441)"/>
    </clipPath>
  </defs>
  <g id="_6" data-name="6" transform="translate(-1050 -1768)">
    <g id="Group_1269" data-name="Group 1269" transform="translate(1050 2106.441)">
      <g id="Group_1268" data-name="Group 1268" class="cls-2" transform="translate(0 -338.441)">
        <g id="Group_1216" data-name="Group 1216" transform="translate(0 0)">
          <path id="Path_2112" data-name="Path 2112" class="cls-3" d="M.344,17.579H384.906a5.734,5.734,0,0,0,5.719-5.717V-270.249a5.734,5.734,0,0,0-5.719-5.717H.344a5.735,5.735,0,0,0-5.719,5.717V11.862A5.735,5.735,0,0,0,.344,17.579" transform="translate(5.375 275.966)"/>
        </g>
        <g id="Group_1217" data-name="Group 1217" transform="translate(0 0)">
          <path id="Path_2113" data-name="Path 2113" class="cls-4" d="M23.447,0H-361.115a5.734,5.734,0,0,0-5.719,5.717V19.592h396V5.717A5.734,5.734,0,0,0,23.447,0" transform="translate(366.834)"/>
        </g>
        <g id="Group_1218" data-name="Group 1218" transform="translate(14.121 5.374)">
          <path id="Path_2114" data-name="Path 2114" class="cls-5" d="M.516.258A4.3,4.3,0,0,1-3.8,4.535,4.3,4.3,0,0,1-8.076.223,4.3,4.3,0,0,1-3.762-4.055,4.3,4.3,0,0,1,.516.258" transform="translate(8.076 4.055)"/>
        </g>
        <g id="Group_1219" data-name="Group 1219" transform="translate(27.488 5.428)">
          <path id="Path_2115" data-name="Path 2115" class="cls-5" d="M.516.258A4.3,4.3,0,0,1-3.8,4.537,4.3,4.3,0,0,1-8.076.223,4.3,4.3,0,0,1-3.762-4.055,4.3,4.3,0,0,1,.516.258" transform="translate(8.076 4.055)"/>
        </g>
        <g id="Group_1220" data-name="Group 1220" transform="translate(40.854 5.484)">
          <path id="Path_2116" data-name="Path 2116" class="cls-5" d="M.516.258A4.3,4.3,0,0,1-3.8,4.535,4.3,4.3,0,0,1-8.076.223,4.3,4.3,0,0,1-3.762-4.055,4.3,4.3,0,0,1,.516.258" transform="translate(8.076 4.055)"/>
        </g>
        <path id="Path_2117" data-name="Path 2117" class="cls-6" d="M363.327-220.793H28.97v-80.5H363.327Z" transform="translate(1.852 340.807)"/>
        <path id="Path_2118" data-name="Path 2118" class="cls-6" d="M103.733-165.045H28.97v-47.423h74.763Z" transform="translate(1.852 346.466)"/>
        <path id="Path_2119" data-name="Path 2119" class="cls-6" d="M361.924-133.678H28.97v-6.615H361.924Z" transform="translate(1.852 351.063)"/>
        <path id="Path_2120" data-name="Path 2120" class="cls-6" d="M361.924-96.551H28.97v-6.615H361.924Z" transform="translate(1.852 353.428)"/>
        <path id="Path_2121" data-name="Path 2121" class="cls-6" d="M361.924-81.448H28.97v-6.614H361.924Z" transform="translate(1.852 354.39)"/>
        <path id="Path_2122" data-name="Path 2122" class="cls-6" d="M361.924-149.41H28.97v-6.615H361.924Z" transform="translate(1.852 350.061)"/>
        <path id="Path_2123" data-name="Path 2123" class="cls-6" d="M184.849-165.045H110.086v-47.423h74.763Z" transform="translate(7.037 346.466)"/>
        <path id="Path_2124" data-name="Path 2124" class="cls-6" d="M265.965-165.045H191.2v-47.423h74.763Z" transform="translate(12.221 346.466)"/>
        <path id="Path_2125" data-name="Path 2125" class="cls-6" d="M347.08-165.045H272.317v-47.423H347.08Z" transform="translate(17.406 346.466)"/>
        <g id="Group_1225" data-name="Group 1225" transform="translate(252.093 324.964)">
          <path id="Path_2127" data-name="Path 2127" class="cls-7" d="M0,1.36A222.346,222.346,0,0,0,33.039,4.08,202.864,202.864,0,0,0,64.2,1.36L62.958-1.4C57.49-13.538,36.8-8.817,32.1-21.342,28.186-8.817,6.712-13.538,1.245-1.4Z" transform="translate(0 21.342)"/>
        </g>
        <path id="Path_2128" data-name="Path 2128" class="cls-7" d="M263.441-19.516h8.612v-80.626h-8.612Z" transform="translate(16.839 353.621)"/>
        <g id="Group_1226" data-name="Group 1226" transform="translate(270.738 319.278)">
          <path id="Path_2129" data-name="Path 2129" class="cls-8" d="M.72.492-3.036-7.725l-8.235,3.032L-8.986,3.76Z" transform="translate(11.271 7.725)"/>
        </g>
        <g id="Group_1227" data-name="Group 1227" transform="translate(252.395 327.37)">
          <path id="Path_2130" data-name="Path 2130" class="cls-9" d="M1.822,0,3.8,6.714l-8.7,2.75s-19.654,8.249-23.316,4.425c-1.677-1.753,4.721-3.483,8.827-6.2S-8.84,1.132-8.84,1.132A41.476,41.476,0,0,0,1.822,0" transform="translate(28.498)"/>
        </g>
        <g id="Group_1228" data-name="Group 1228" transform="translate(228.991 330.695)">
          <path id="Path_2131" data-name="Path 2131" class="cls-8" d="M.615.536-.668-8.407l-8.757.584L-9.619.931Z" transform="translate(9.619 8.407)"/>
        </g>
        <g id="Group_1229" data-name="Group 1229" transform="translate(206.377 337.589)">
          <path id="Path_2132" data-name="Path 2132" class="cls-9" d="M1.975.115v7l-9.128.181S-28.337,9.661-30.77,4.958C-31.883,2.8-25.258,2.95-20.551,1.5s11.979-3.31,11.979-3.31A41.41,41.41,0,0,0,1.975.115" transform="translate(30.894 1.808)"/>
        </g>
        <g id="Group_1230" data-name="Group 1230" transform="translate(153.151 156.619)">
          <path id="Path_2133" data-name="Path 2133" class="cls-10" d="M.415,1.728l12.1-4.012L23.222.425C29.252-1.141,31.258-1.054,43.6-4.229A168.391,168.391,0,0,0,66-12.253l8.873-14.873c5.742.521,17.8,6.784,17.8,6.784s-16.5,22.44-21.194,24S35.113,9.09,23.039,7.7c-3.8-.436-11.245-4.46-11.245-4.46L2.248,4.83-5.195,9.854-6.5,8.777l2.962-3.242Z" transform="translate(6.495 27.126)"/>
        </g>
        <g id="Group_1231" data-name="Group 1231" transform="translate(231.127 128.296)">
          <path id="Path_2134" data-name="Path 2134" class="cls-11" d="M.754,0s15.382,2.574,15.12,16.4C15.7,25.411,3.347,42.236,3.347,42.236s-6.786-9.395-15.137-12c0,0,5.425-15.908,7.084-20.883A23.486,23.486,0,0,1,.754,0" transform="translate(11.79)"/>
        </g>
        <path id="Path_2135" data-name="Path 2135" class="cls-7" d="M253.138-85.912h30.534V-102.35H253.138Z" transform="translate(16.18 353.48)"/>
        <g id="Group_1232" data-name="Group 1232" transform="translate(270.17 122.954)">
          <path id="Path_2136" data-name="Path 2136" class="cls-7" d="M.195,3.847Q-2.06-25.982-3.045-55.885c18.875-8.4,60.978-4.652,64.916,7.814C66.048-34.844,50.126,2.81,50.126,16.9s5.48,24.267,6.263,30.529a15.565,15.565,0,0,1-3.132,10.958H5c-1.23-18.2-3.428-36.379-4.8-54.54" transform="translate(3.045 60.395)"/>
        </g>
        <g id="Group_1233" data-name="Group 1233" transform="translate(270.092 122.953)">
          <path id="Path_2137" data-name="Path 2137" class="cls-12" d="M.2,3.847Q-2.151-27.239-3.118-58.406c20.743-4.847,53.7-.623,57.163,10.335C58.223-34.844,42.3,2.81,42.3,16.9s5.481,24.267,6.264,30.529a15.566,15.566,0,0,1-3.131,10.958H5C3.77,40.184,1.572,22.009.2,3.847" transform="translate(3.118 60.396)"/>
        </g>
        <g id="Group_1234" data-name="Group 1234" transform="translate(235.652 241.737)">
          <path id="Path_2138" data-name="Path 2138" class="cls-12" d="M0,.891H82.354A8.465,8.465,0,0,0,90.82-7.575v-6.407H0Z" transform="translate(0 13.982)"/>
        </g>
        <g id="Group_1235" data-name="Group 1235" transform="translate(206.532 205.468)">
          <path id="Path_2139" data-name="Path 2139" class="cls-13" d="M2.784.125S-40.664,25.935-43.248,36.59C-46.33,49.305-25.493,124.6-25.493,124.6c4.914,3.307,14.025,2.19,17.376-.817,0,0-16.763-64.432-14.936-68.736,4.471-10.537,42.54-23.093,54.545-34.573S44.541-1.962,44.541-1.962Z" transform="translate(43.559 1.962)"/>
        </g>
        <g id="Group_1236" data-name="Group 1236" transform="translate(228.267 196.013)">
          <path id="Path_2140" data-name="Path 2140" class="cls-14" d="M4.463,0s14.8,30.851,1.489,43.375C-.141,49.109-36.6,43.9-38.684,49.638l22.008,73.1s-3.881,2.358-11.711,6.273c0,0-45.791-80.68-41.093-91.117S-33.2,21.457-31.637,15.716A126.974,126.974,0,0,0-29.027.583Z" transform="translate(69.817)"/>
        </g>
        <g id="Group_1237" data-name="Group 1237" transform="translate(237.425 81.022)">
          <path id="Path_2141" data-name="Path 2141" class="cls-8" d="M.141,1.875C1.086,5.458,2.765,9.4,6.282,10.57c3.233,1.072,6.668-.657,9.593-2.4,3.443-2.05,6.935-4.3,9.136-7.644,3.342-5.079,6.044-11.284,5.669-17.351-.132-2.144-3.272-4.775-4.574-6.484a9.619,9.619,0,0,0-3.663-2.627,38.271,38.271,0,0,0-10.285-3.215c-5.939-.967-12.543.361-13.73,6.881C-2.985-14.51-1.85-5.673.141,1.875" transform="translate(2.202 29.435)"/>
        </g>
        <g id="Group_1240" data-name="Group 1240" transform="translate(245.857 93.104)">
          <path id="Path_2144" data-name="Path 2144" class="cls-15" d="M.34.063A4.608,4.608,0,1,0,4.959,4.671,4.619,4.619,0,0,0,.34.063m0,10.262A5.654,5.654,0,1,1,6,4.671,5.665,5.665,0,0,1,.34,10.324" transform="translate(5.324 0.983)"/>
        </g>
        <g id="Group_1241" data-name="Group 1241" transform="translate(242.159 93.579)">
          <path id="Path_2145" data-name="Path 2145" class="cls-15" d="M.05.13-.785-.5a3.841,3.841,0,0,1,2.9-1.529A4.436,4.436,0,0,1,5.544-.66L4.786.062A3.418,3.418,0,0,0,2.173-.986,2.816,2.816,0,0,0,.05.13" transform="translate(0.785 2.037)"/>
        </g>
        <g id="Group_1242" data-name="Group 1242" transform="translate(233.367 93.104)">
          <path id="Path_2146" data-name="Path 2146" class="cls-15" d="M.34.063A4.608,4.608,0,1,0,4.959,4.671,4.618,4.618,0,0,0,.34.063m0,10.262A5.654,5.654,0,1,1,6,4.671,5.664,5.664,0,0,1,.34,10.324" transform="translate(5.323 0.983)"/>
        </g>
        <g id="Group_1243" data-name="Group 1243" transform="translate(245.83 104.404)">
          <path id="Path_2147" data-name="Path 2147" class="cls-8" d="M2.152,1.06S2.086-.113-2.089-1.156c-1.2-.3-2.7-.3-3.649-1.134-3.38-2.956-6.485-8.453-7.637-12.5a3.552,3.552,0,0,1-.18-1.84q-4.232,3.587-8.173,7.5c-.9.892-6.334.387-5.677,1.6.184.338,1.568,3.5,2.931,6.573-2.637,1.726-5.54,3.982-5.54,3.982l-3.655,20.353,10.7,6s12-2.609,19.834-6.784S2.152,1.06,2.152,1.06" transform="translate(33.668 16.635)"/>
        </g>
        <g id="Group_1244" data-name="Group 1244" transform="translate(243.608 119.884)">
          <path id="Path_2148" data-name="Path 2148" class="cls-16" d="M2.031,0A23.629,23.629,0,0,1-8.931,9.132c-7.829,3.392-14.876-6.783-14.876-6.783l-7.9,6.064s-.712,27.743,2.681,42.877S-22.5,87.671-22.5,87.671-19,92.8-14.53,93.1c5.471.37,13.006-3.913,24.913-1.78a66.059,66.059,0,0,0,23.042.29S23.263,41.972,20.914,32.057,12.47,1.826,12.47,1.826A83.766,83.766,0,0,0,2.031,0" transform="translate(31.769)"/>
        </g>
        <g id="Group_1245" data-name="Group 1245" transform="translate(135.945 189.853)">
          <path id="Path_2149" data-name="Path 2149" class="cls-17" d="M.192.236H45.869V-3.705H-3.008v.74a3.2,3.2,0,0,0,3.2,3.2" transform="translate(3.008 3.705)"/>
        </g>
        <g id="Group_1246" data-name="Group 1246" transform="translate(120.628 144.939)">
          <path id="Path_2150" data-name="Path 2150" class="cls-4" d="M1.981,0A3.228,3.228,0,0,1,5.015,2.128L20.537,44.96l-.959.4.253.748-35.5-1.2L-30.784,4.345A3.227,3.227,0,0,1-27.758-.009Z" transform="translate(30.99 0.009)"/>
        </g>
        <g id="Group_1247" data-name="Group 1247" transform="translate(140.848 162.868)">
          <path id="Path_2151" data-name="Path 2151" class="cls-17" d="M.036.445c1.053,4.041,3.117,7.263,4.611,7.2s1.851-3.4.8-7.437S2.328-7.058.834-6.991-1.017-3.6.036.445" transform="translate(0.569 6.992)"/>
        </g>
        <g id="Group_1251" data-name="Group 1251" transform="translate(256.352 94.997)">
          <path id="Path_2155" data-name="Path 2155" class="cls-15" d="M.02.163A17.559,17.559,0,0,0,3.234-.72,14.332,14.332,0,0,0,6.386-1.858a.377.377,0,0,0-.188-.7,11.262,11.262,0,0,0-3.248.806A13.235,13.235,0,0,0-.154-.475C-.41-.307-.344.205.02.163" transform="translate(0.308 2.555)"/>
        </g>
        <g id="Group_1252" data-name="Group 1252" transform="translate(229.113 65.929)">
          <path id="Path_2156" data-name="Path 2156" class="cls-15" d="M1.167,1.414c-5.078-.334-10.42-.364-14.86-2.676C-15.85-2.386-17.786-4.179-18.2-6.441a4.339,4.339,0,0,1,3.712-5.049A3.227,3.227,0,0,0-13-11.728a2.082,2.082,0,0,0,.715-1.625c.552-4.026,3.94-8.086,8.315-7.987,3.568.08,6.89,2.826,10.346,1.994a15.117,15.117,0,0,0,2.97-1.3,15.994,15.994,0,0,1,9.628-1.307c3.426.607,7.058,3.309,6.22,6.447-.281,1.049-1.032,1.96-1.232,3.025-.715,3.8,5.333,5.688,6.529,9.379C31.579.252,28.258,3.6,28.513,7.1c.142,1.944,1.276,4.229-.2,5.612-.79.738-2.138.922-2.668,1.839-.722,1.249.621,2.666.739,4.078.146,1.751-1.854,3.22-3.741,3.071a5.3,5.3,0,0,1-4.2-3.158,11.371,11.371,0,0,1-.738-5.181c3.2-.9,5.163-6.163,2.154-7.509-1.6-.717-3.308,1.023-3.915,2.5C12.765,3.311,7.7,1.414,1.167,1.414" transform="translate(18.264 22.197)"/>
        </g>
        <g id="Group_1253" data-name="Group 1253" transform="translate(234.888 93.061)">
          <path id="Path_2157" data-name="Path 2157" class="cls-15" d="M1.6.275Q.018,3.917-1.565,7.56a7.029,7.029,0,0,1-1.679,2.67,5.466,5.466,0,0,1-4.627.8c-1.589-.322-4.627-1.2-6.243-1.057-3.689.317-6.407,2.084-6.642,2.531-.473.9.192,2.305.206,3.324a5.826,5.826,0,0,1-.705,3.087,10.034,10.034,0,0,1-1.38,1.64c-1.312,1.395-2.492,3.135-2.385,5.045.147,2.611,2.554,4.438,4.734,5.884A12.5,12.5,0,0,0-15.8,33.659a12.468,12.468,0,0,0,3.36.006A33.639,33.639,0,0,0-5.515,32.56,11.268,11.268,0,0,0,.276,28.791a16.672,16.672,0,0,0,2.348-5.479A39.132,39.132,0,0,0,4.533,13.83a67.048,67.048,0,0,0-.785-9.046,49.75,49.75,0,0,1-.169-7.922c.02-.321.054-1.1-.42-1.167-.526-.073-.342.719-.415,1.047A18.935,18.935,0,0,1,1.6.275" transform="translate(25.027 4.309)"/>
        </g>
        <g id="Group_1254" data-name="Group 1254" transform="translate(241.795 109.637)">
          <path id="Path_2158" data-name="Path 2158" class="cls-8" d="M.015.112a2.981,2.981,0,0,0,.613,3.3A1.856,1.856,0,0,0,2.078,4,1.092,1.092,0,0,0,3.07,2.926c-.016-.2-.1-.415.01-.583a.619.619,0,0,1,.519-.2c.72-.038,1.6.007,1.938.645.1.194.138.419.255.605a1.474,1.474,0,0,0,1.415.454A8.216,8.216,0,0,0,9.4,3.357a2.5,2.5,0,0,0,.978-.577,1.066,1.066,0,0,0,.277-1.052,1.586,1.586,0,0,0-.636-.686C7.762-.562,1.831-3.817.015.112" transform="translate(0.239 1.752)"/>
        </g>
        <g id="Group_1256" data-name="Group 1256" transform="translate(274.95 199.201)">
          <path id="Path_2160" data-name="Path 2160" class="cls-12" d="M.005,2.814S-1.5-39.3,7.9-42.083,38-44.069,38-44.069l1.881,7.548S12.795-38.507,9.033-33.341s0,36.553,0,36.553Z" transform="translate(0.083 44.174)"/>
        </g>
        <g id="Group_1257" data-name="Group 1257" transform="translate(192.359 149.886)">
          <path id="Path_2161" data-name="Path 2161" class="cls-8" d="M.415,2.053l12.1-4.012L23.222.751C29.252-.816,31.257-.729,43.6-3.9A168.256,168.256,0,0,0,66-11.929L79.583-32.222c5.742.523,13.092,12.206,13.092,12.206s-16.5,22.44-21.2,24S30.947,9.709,18.874,8.324c-3.8-.435-10.527-4.6-10.527-4.6l-6.1,1.429-7.443,5.023L-6.5,9.1-3.534,5.86Z" transform="translate(6.495 32.222)"/>
        </g>
        <g id="Group_1258" data-name="Group 1258" transform="translate(276.104 121.71)">
          <path id="Path_2162" data-name="Path 2162" class="cls-11" d="M.706,0s16.181,2.609,15.92,16.438C16.456,25.446,4.1,42.27,4.1,42.27s-6.785-9.394-15.136-12c0,0,6.525-12.785,7.046-18S.706,0,.706,0" transform="translate(11.038)"/>
        </g>
        <g id="Group_1259" data-name="Group 1259" transform="translate(172.154 189.853)">
          <path id="Path_2163" data-name="Path 2163" class="cls-4" d="M.192.236H45.871V-3.705H-3.008v.74a3.2,3.2,0,0,0,3.2,3.2" transform="translate(3.008 3.705)"/>
        </g>
        <path id="Path_2164" data-name="Path 2164" class="cls-17" d="M188.152-157.558h16.292v-1.221H188.152Z" transform="translate(12.026 349.886)"/>
        <path id="Path_2165" data-name="Path 2165" class="cls-17" d="M183.589-157.558H186v-1.221h-2.41Z" transform="translate(11.735 349.886)"/>
        <g id="Group_1260" data-name="Group 1260" transform="translate(95.325 158.139)">
          <path id="Path_2166" data-name="Path 2166" class="cls-4" d="M.132,1.144-2.062-15.024l.789-2.941L.49-15.5,2.52.984Z" transform="translate(2.062 17.965)"/>
        </g>
        <g id="Group_1261" data-name="Group 1261" transform="translate(108.159 159.541)">
          <path id="Path_2167" data-name="Path 2167" class="cls-4" d="M0,1.124,2.3-15.03l1.561-2.615,1.025,2.852L2.342,1.62Z" transform="translate(0 17.645)"/>
        </g>
        <g id="Group_1262" data-name="Group 1262" transform="translate(100.746 160.401)">
          <path id="Path_2168" data-name="Path 2168" class="cls-4" d="M0,1.148.2-15.4l1.413-2.61L2.826-15.36,2.6,1.17Z" transform="translate(0 18.014)"/>
        </g>
        <g id="Group_1263" data-name="Group 1263" transform="translate(95.791 174.785)">
          <path id="Path_2169" data-name="Path 2169" class="cls-18" d="M.888,1.243H-11.628L-13.9-19.507H2.542Z" transform="translate(13.897 19.507)"/>
        </g>
        <g id="Group_1264" data-name="Group 1264" transform="translate(235.109 205.526)">
          <path id="Path_2170" data-name="Path 2170" class="cls-12" d="M2.232,8.8h3l-33.79-146.983h-6.364Z" transform="translate(34.923 138.181)"/>
        </g>
        <g id="Group_1265" data-name="Group 1265" transform="translate(180.704 205.527)">
          <path id="Path_2171" data-name="Path 2171" class="cls-12" d="M0,8.71H3l21.74-145.444H18.376Z" transform="translate(0 136.734)"/>
        </g>
        <g id="Group_1266" data-name="Group 1266" transform="translate(107.916 205.527)">
          <path id="Path_2172" data-name="Path 2172" class="cls-12" d="M1.637,8.763h3L-19.252-137.569h-6.363Z" transform="translate(25.615 137.569)"/>
        </g>
        <g id="Group_1267" data-name="Group 1267" transform="translate(50.984 205.527)">
          <path id="Path_2173" data-name="Path 2173" class="cls-12" d="M0,8.67H3L31.752-136.107H25.388Z" transform="translate(0 136.107)"/>
        </g>
        <path id="Path_2174" data-name="Path 2174" class="cls-19" d="M94.882-144.829H253.391V-151.4H94.882Z" transform="translate(6.065 350.356)"/>
        <path id="Path_2175" data-name="Path 2175" class="cls-20" d="M47.107-144.829H193.281V-151.4H47.107Z" transform="translate(3.011 350.356)"/>
        <path id="Path_2176" data-name="Path 2176" class="cls-20" d="M98.2-147.774H267.723v-8.794H98.2Z" transform="translate(6.276 350.026)"/>
        <path id="Path_2177" data-name="Path 2177" class="cls-21" d="M26.216-147.774H183.408v-8.794H26.216Z" transform="translate(1.676 350.026)"/>
      </g>
    </g>
    <g id="Group_1290" data-name="Group 1290" transform="translate(799 28.008)">
      <g id="Group_1288" data-name="Group 1288" transform="translate(542.446 1768)">
        <g id="Group_1270" data-name="Group 1270">
          <path id="Path_2185" data-name="Path 2185" class="cls-4" d="M111.7,67.483V9.7h86.1V52.684a4.015,4.015,0,0,1-4.022,4.026H123.984Z" transform="translate(-111.7 0.856)"/>
          <path id="Path_2186" data-name="Path 2186" class="cls-12" d="M194.1,0H115.4a3.747,3.747,0,0,0-3.7,3.856V11h86.1V3.856A3.747,3.747,0,0,0,194.1,0Z" transform="translate(-111.7)"/>
        </g>
        <g id="Group_1271" data-name="Group 1271" transform="translate(6.088 3.156)">
          <ellipse id="Ellipse_74" data-name="Ellipse 74" class="cls-7" cx="2.392" cy="2.394" rx="2.392" ry="2.394" transform="translate(15.111)"/>
          <ellipse id="Ellipse_75" data-name="Ellipse 75" class="cls-7" cx="2.392" cy="2.394" rx="2.392" ry="2.394" transform="translate(7.61)"/>
          <ellipse id="Ellipse_76" data-name="Ellipse 76" class="cls-7" cx="2.392" cy="2.394" rx="2.392" ry="2.394"/>
        </g>
      </g>
      <g id="Group_1289" data-name="Group 1289" transform="translate(566.58 1782.8)">
        <path id="Path_2206" data-name="Path 2206" class="cls-15" d="M151.4,31.991h0V13.6a18.29,18.29,0,0,0,.761,36.563,21.089,21.089,0,0,0,2.609-.218c-.326-1.523-.544-3.156-.87-4.788C152.6,38.629,151.4,31.991,151.4,31.991Z" transform="translate(-133.9 -13.6)"/>
        <path id="Path_2207" data-name="Path 2207" class="cls-22" d="M151.3,29.379l8.153-13.494A18.632,18.632,0,0,0,151.3,13.6Z" transform="translate(-132.384 -13.6)"/>
        <path id="Path_2208" data-name="Path 2208" class="cls-23" d="M160.649,16.4,151.3,31.635c.761,4.244,2.283,12.188,3.261,17.846A18.226,18.226,0,0,0,168.8,32.4V30.982A18.468,18.468,0,0,0,160.649,16.4Z" transform="translate(-132.384 -13.353)"/>
      </g>
    </g>
    <g id="Group_1293" data-name="Group 1293" transform="translate(134.262 -31.598)">
      <g id="Group_1291" data-name="Group 1291" transform="translate(1050 1847.598)">
        <g id="Group_1280" data-name="Group 1280">
          <path id="Path_2200" data-name="Path 2200" class="cls-4" d="M63.581,110.794V36H0V91.6a5.207,5.207,0,0,0,5.216,5.221H47.792Z" transform="translate(0 -22.452)"/>
          <path id="Path_2201" data-name="Path 2201" class="cls-12" d="M4.793,26.4H58.788a4.838,4.838,0,0,1,4.793,4.958V40.4H0V31.213A4.8,4.8,0,0,1,4.793,26.4Z" transform="translate(0 -26.4)"/>
        </g>
        <g id="Group_1281" data-name="Group 1281" transform="translate(10.573 3.951)">
          <ellipse id="Ellipse_80" data-name="Ellipse 80" class="cls-7" cx="3.102" cy="3.105" rx="3.102" ry="3.105" transform="translate(0 0)"/>
          <ellipse id="Ellipse_81" data-name="Ellipse 81" class="cls-7" cx="3.102" cy="3.105" rx="3.102" ry="3.105" transform="translate(9.728 0)"/>
          <path id="Path_2202" data-name="Path 2202" class="cls-7" d="M27.5,32.3a3.1,3.1,0,1,1-3.1-3.1A3.228,3.228,0,0,1,27.5,32.3Z" transform="translate(-1.845 -29.2)"/>
        </g>
      </g>
      <g id="Group_1292" data-name="Group 1292" transform="translate(1057.541 1866.82)">
        <ellipse id="Ellipse_82" data-name="Ellipse 82" class="cls-12" cx="18.058" cy="18.042" rx="18.058" ry="18.042" transform="matrix(0.228, -0.974, 0.974, 0.228, 0, 35.16)"/>
      </g>
      <path id="Path_2211" data-name="Path 2211" class="cls-23" d="M35.621,65.076H33.506V59.854a2.115,2.115,0,1,0-4.229,0v5.221h-2.82V57.314a2.115,2.115,0,1,0-4.229,0v7.762h-2.82V50.117a2.115,2.115,0,1,0-4.229,0V65.076H13.064a.564.564,0,0,0,0,1.129H35.2a.607.607,0,0,0,.564-.564C36.184,65.358,35.9,65.076,35.621,65.076Z" transform="translate(1055.122 1830.08)"/>
    </g>
    <g id="Group_1296" data-name="Group 1296" transform="translate(51 27.692)">
      <g id="Group_1294" data-name="Group 1294" transform="translate(1223.494 1771.015)">
        <path id="Path_2198" data-name="Path 2198" class="cls-4" d="M101.586,26.313H62.764A5.171,5.171,0,0,1,57.6,21.143V6.169A5.171,5.171,0,0,1,62.764,1h38.821a5.171,5.171,0,0,1,5.164,5.169V21.321A5.136,5.136,0,0,1,101.586,26.313Z" transform="translate(-57.6 -1)"/>
        <path id="Path_2199" data-name="Path 2199" class="cls-4" d="M63,13.3v9.448L73.685,13.3Z" transform="translate(-53.384 8.626)"/>
      </g>
      <g id="Group_1295" data-name="Group 1295" transform="translate(1234.179 1781.176)">
        <ellipse id="Ellipse_83" data-name="Ellipse 83" class="cls-7" cx="2.671" cy="2.674" rx="2.671" ry="2.674"/>
        <path id="Path_2209" data-name="Path 2209" class="cls-7" d="M74.942,9.374a2.671,2.671,0,1,1-5.342,0A2.74,2.74,0,0,1,72.271,6.7,2.525,2.525,0,0,1,74.942,9.374Z" transform="translate(-58.915 -6.7)"/>
        <ellipse id="Ellipse_84" data-name="Ellipse 84" class="cls-7" cx="2.671" cy="2.674" rx="2.671" ry="2.674" transform="translate(21.548)"/>
      </g>
    </g>
  </g>
</svg>
