<svg xmlns="http://www.w3.org/2000/svg" xmlns:xlink="http://www.w3.org/1999/xlink" viewBox="0 0 560 400.031">
  <defs>
    <style>
      .cls-1, .cls-2 {
        fill: none;
      }

      .cls-1, .cls-3 {
        clip-rule: evenodd;
      }

      .cls-3, .cls-4 {
        fill: #43537e;
      }

      .cls-5 {
        fill: #14ba5c;
      }

      .cls-31, .cls-6 {
        fill: #07a7e3;
      }

      .cls-7 {
        clip-path: url(#clip-path);
      }

      .cls-8 {
        clip-path: url(#clip-path-2);
      }

      .cls-9 {
        fill: #354367;
      }

      .cls-10 {
        clip-path: url(#clip-path-3);
      }

      .cls-11 {
        clip-path: url(#clip-path-4);
      }

      .cls-12 {
        clip-path: url(#clip-path-5);
      }

      .cls-13 {
        clip-path: url(#clip-path-7);
      }

      .cls-14 {
        clip-path: url(#clip-path-9);
      }

      .cls-15 {
        fill: #1abffe;
      }

      .cls-16 {
        fill: #ff973c;
      }

      .cls-17 {
        fill: #ff8820;
      }

      .cls-18 {
        fill: #ffd7cf;
      }

      .cls-19 {
        fill: #ffb17a;
      }

      .cls-20 {
        fill: url(#linear-gradient);
      }

      .cls-21 {
        fill: url(#linear-gradient-2);
      }

      .cls-22 {
        fill: url(#linear-gradient-3);
      }

      .cls-23 {
        fill: #24ca6c;
      }

      .cls-24 {
        fill: #4acdff;
      }

      .cls-25 {
        fill: url(#linear-gradient-4);
      }

      .cls-26 {
        fill: #47df89;
      }

      .cls-27 {
        fill: url(#linear-gradient-5);
      }

      .cls-28 {
        fill: #cdd2e3;
      }

      .cls-29 {
        fill: #e7eaf4;
      }

      .cls-30 {
        clip-path: url(#clip-path-11);
      }

      .cls-31 {
        fill-rule: evenodd;
      }

      .cls-32 {
        clip-path: url(#clip-path-12);
      }

      .cls-33 {
        clip-path: url(#clip-path-13);
      }

      .cls-34 {
        fill: #f0780f;
      }

      .cls-35 {
        clip-path: url(#clip-path-14);
      }

      .cls-36 {
        clip-path: url(#clip-path-16);
      }
    </style>
    <clipPath id="clip-path">
      <path id="Path_4659" data-name="Path 4659" class="cls-1" d="M104.3-380.993c-47.523,0-96.733-47.264-64.362-120.536C72.021-574.865,24.178-593.88,4.394-638.873c-20.312-44.6,32.588-134.169,147.456-73.954C266.363-652.675,277-609,355.023-630.709c77.747-21.966,129.73-67.994,186.362-37.938,56.653,29.97-41.378,113.589-20.654,161.355,20.585,47.761,77.307,126.3,0,126.3Z" transform="translate(-0.137 732.993)"/>
    </clipPath>
    <clipPath id="clip-path-2">
      <path id="Path_4658" data-name="Path 4658" class="cls-2" d="M-3405-2074.146H425.979V-4518H-3405Z" transform="translate(3405 4518)"/>
    </clipPath>
    <clipPath id="clip-path-3">
      <path id="Path_4662" data-name="Path 4662" class="cls-3" d="M1067.213-357.582a19.211,19.211,0,0,0,19.213-19.209A19.211,19.211,0,0,0,1067.213-396,19.211,19.211,0,0,0,1048-376.791,19.211,19.211,0,0,0,1067.213-357.582Z" transform="translate(-1048 396)"/>
    </clipPath>
    <clipPath id="clip-path-4">
      <path id="Path_4661" data-name="Path 4661" class="cls-4" d="M-3405-2074.146H425.979V-4518H-3405Z" transform="translate(3405 4518)"/>
    </clipPath>
    <clipPath id="clip-path-5">
      <path id="Path_4665" data-name="Path 4665" class="cls-3" d="M156.016-474.978a24.013,24.013,0,0,0,24.016-24.011A24.013,24.013,0,0,0,156.016-523,24.013,24.013,0,0,0,132-498.989,24.013,24.013,0,0,0,156.016-474.978Z" transform="translate(-132 523)"/>
    </clipPath>
    <clipPath id="clip-path-7">
      <path id="Path_4668" data-name="Path 4668" class="cls-3" d="M101.811-352.384a16.809,16.809,0,0,0,16.811-16.808A16.809,16.809,0,0,0,101.811-386,16.809,16.809,0,0,0,85-369.192,16.809,16.809,0,0,0,101.811-352.384Z" transform="translate(-85 386)"/>
    </clipPath>
    <clipPath id="clip-path-9">
      <path id="Path_4671" data-name="Path 4671" class="cls-3" d="M62.008-437.989a12.007,12.007,0,0,0,12.008-12.006A12.007,12.007,0,0,0,62.008-462,12.007,12.007,0,0,0,50-449.994,12.007,12.007,0,0,0,62.008-437.989Z" transform="translate(-50 462)"/>
    </clipPath>
    <linearGradient id="linear-gradient" x1="-0.001" y1="0.5" x2="1" y2="0.5" gradientUnits="objectBoundingBox">
      <stop offset="0" stop-color="#fff"/>
      <stop offset="0.151" stop-color="#f1f6fb"/>
      <stop offset="0.423" stop-color="#deeaf7"/>
      <stop offset="0.702" stop-color="#d3e3f4"/>
      <stop offset="1" stop-color="#cfe1f3"/>
    </linearGradient>
    <linearGradient id="linear-gradient-2" x1="0.5" y1="0.001" x2="0.5" y2="1" xlink:href="#linear-gradient"/>
    <linearGradient id="linear-gradient-3" x1="0" y1="0.5" x2="1" y2="0.5" xlink:href="#linear-gradient"/>
    <linearGradient id="linear-gradient-4" x1="0.631" y1="-0.017" x2="0.455" y2="0.657" xlink:href="#linear-gradient"/>
    <linearGradient id="linear-gradient-5" x1="0.931" y1="-0.079" x2="0.169" y2="0.782" xlink:href="#linear-gradient"/>
    <clipPath id="clip-path-11">
      <path id="Path_4672" data-name="Path 4672" d="M.062.161l120.2.029.011,46.069L.073,46.23Z" transform="translate(0)"/>
    </clipPath>
    <clipPath id="clip-path-12">
      <path id="Path_2854" data-name="Path 2854" class="cls-2" d="M22.742.036A22.86,22.86,0,0,0,.037,23.065h0A22.887,22.887,0,0,0,22.753,46.1h0a22.443,22.443,0,0,0,15.373-6.077l-7.247,0a18.278,18.278,0,0,1-8.127,1.893h0A18.726,18.726,0,0,1,4.167,23.068h0A18.7,18.7,0,0,1,22.743,4.226h0A18.58,18.58,0,0,1,39.629,15.2h4.463A22.751,22.751,0,0,0,22.742.036Z" transform="translate(0 0)"/>
    </clipPath>
    <clipPath id="clip-path-13">
      <path id="Path_2856" data-name="Path 2856" class="cls-2" d="M22.664,21.506a22.443,22.443,0,0,0,15.373-6.079l-7.247,0a18.278,18.278,0,0,1-8.127,1.893h0A18.432,18.432,0,0,1,8.754,10.964h0A23.066,23.066,0,0,1,0,0H0A22.862,22.862,0,0,0,22.664,21.506" transform="translate(0 0)"/>
    </clipPath>
    <clipPath id="clip-path-14">
      <path id="Rectangle_606" data-name="Rectangle 606" class="cls-5" d="M.029,0H2.6l.005,21.562H.034Z" transform="translate(0 0)"/>
    </clipPath>
    <clipPath id="clip-path-16">
      <path id="Rectangle_606-2" data-name="Rectangle 606" class="cls-6" d="M.029,0H2.6l.005,21.562H.034Z" transform="translate(0 0)"/>
    </clipPath>
  </defs>
  <g id="Group_2857" data-name="Group 2857" transform="translate(-886 -1727.97)">
    <g id="Group_2704" data-name="Group 2704" transform="translate(885.863 2484.993)">
      <g id="Group_2695" data-name="Group 2695" class="cls-7" transform="translate(0.137 -732.993)">
        <g id="Group_2694" data-name="Group 2694" class="cls-8" transform="translate(-1635.532 -1817.647)">
          <path id="Path_4657" data-name="Path 4657" class="cls-9" d="M-4.863-737.993h564.8v356.8H-4.863Z" transform="translate(1637.994 2553.239)"/>
        </g>
      </g>
      <g id="Group_2697" data-name="Group 2697" class="cls-10" transform="translate(503.439 -571.161)">
        <g id="Group_2696" data-name="Group 2696" class="cls-11" transform="translate(-2138.835 -1979.479)">
          <path id="Path_4660" data-name="Path 4660" class="cls-4" d="M1043-401h43.228v43.22H1043Z" transform="translate(1093.434 2378.078)"/>
        </g>
      </g>
      <g id="Group_2699" data-name="Group 2699" class="cls-12" transform="translate(63.472 -632.15)">
        <g id="Group_2698" data-name="Group 2698" class="cls-11" transform="translate(-1698.868 -1918.49)">
          <path id="Path_4663" data-name="Path 4663" class="cls-4" d="M127-528h52.834v52.825H127Z" transform="translate(1569.467 2444.089)"/>
        </g>
      </g>
      <g id="Group_2701" data-name="Group 2701" class="cls-13" transform="translate(40.898 -566.359)">
        <g id="Group_2700" data-name="Group 2700" class="cls-11" transform="translate(-1676.293 -1984.281)">
          <path id="Path_4666" data-name="Path 4666" class="cls-4" d="M80-391h38.425v38.418H80Z" transform="translate(1593.892 2372.88)"/>
        </g>
      </g>
      <g id="Group_2703" data-name="Group 2703" class="cls-14" transform="translate(24.087 -602.856)">
        <g id="Group_2702" data-name="Group 2702" class="cls-11" transform="translate(-1659.483 -1947.784)">
          <path id="Path_4669" data-name="Path 4669" class="cls-4" d="M45-467H73.819v28.813H45Z" transform="translate(1612.081 2412.383)"/>
        </g>
      </g>
    </g>
    <g id="Group_2693" data-name="Group 2693" transform="translate(1014 1721.177)">
      <g id="Group_2688" data-name="Group 2688" transform="translate(142.986 111.756)">
        <path id="Path_4637" data-name="Path 4637" class="cls-15" d="M180.734,192.89a14.416,14.416,0,0,1-6.073,8.737c-4.267,2.843-6.377,5.75-4.555,7.523,0,0,21.351.208,21.7-2.46.575-4.313-2.285-13.785-2.285-13.785h-8.79Z" transform="translate(-41.631 -24.141)"/>
        <path id="Path_4638" data-name="Path 4638" class="cls-15" d="M158.926,194.4c-2.653,1.038-3.26,3.163-7.719,7.507s-7.511,4.536-6.025,6.6,17.787.24,17.787.24,7.192-1.054,7.016-5.4a14.8,14.8,0,0,0-2.4-7.444Z" transform="translate(-56.373 -23.239)"/>
        <path id="Path_4623" data-name="Path 4623" class="cls-16" d="M151.536,147.7c-1.135,4.968-5.4,34.822-6.68,38.911s.8,12.587,3.34,20.765c2.541,8.162,7.3,27.075,7.3,27.075s9.877,2.236,13.616,0c0,0-1.726-13.114-3.931-27.075s-4.251-14.3-1.518-23.145c2.717-8.849,7.847-23.465,10.564-29.6s-.24-22.81-.24-22.81-19.194,8.1-21.112,9.983C150.992,143.688,152.175,144.9,151.536,147.7Z" transform="translate(-56.574 -60.62)"/>
        <path id="Path_4624" data-name="Path 4624" class="cls-17" d="M156.962,135.91c-.176,2.939,4.139,16.868,5.945,19.44,1.822,2.556,8.854,24.791,11.123,34.55s5.673,17.235,7.256,23.593,5.45,22.011,5.45,22.011,12.034.687,12.034,0-1.358-8.4-2.717-20.19c-1.358-11.8-6.584-22.459-7.256-32.442-.687-9.983,0-34.486-5.673-47.649S156.962,135.91,156.962,135.91Z" transform="translate(-49.103 -61.979)"/>
        <g id="Group_2687" data-name="Group 2687" transform="translate(60.552)">
          <path id="Path_4625" data-name="Path 4625" class="cls-18" d="M142.414,97.16s4.667,5.511,7.32,7.06c2.669,1.549,13.76,0,13.76,0s-3.772,11.086-8.87,14.184-14.639,2.22-14.639,2.22a22.535,22.535,0,0,0,1.326-7.763c-.224-3.578-6.2-6.214-6.2-6.214Z" transform="translate(-122.723 -81.324)"/>
          <path id="Path_4626" data-name="Path 4626" class="cls-19" d="M142.414,97.16s4.667,5.511,7.32,7.06c2.669,1.549,13.76,0,13.76,0s-3.772,11.086-8.87,14.184-14.639,2.22-14.639,2.22a22.535,22.535,0,0,0,1.326-7.763c-.224-3.578-6.2-6.214-6.2-6.214Z" transform="translate(-122.723 -81.324)"/>
          <path id="Path_4627" data-name="Path 4627" class="cls-19" d="M128.3,99.731s2.445,4.712,2.989,5.479c.559.783,1.438,2.556,2.221,3.658a24.736,24.736,0,0,0,6.552,4.984c1.55.559,3.884-.335,5.1-2a46.637,46.637,0,0,0,3.548-7.092c.895-2,0-7.316,0-7.316s-.112-4.105-6.552-4.441a73.848,73.848,0,0,0-9.877,0Z" transform="translate(-126.796 -83.895)"/>
          <path id="Path_4628" data-name="Path 4628" class="cls-17" d="M128.863,103.082c.719.7,1.55,1.054,4-.064,2.445-1.1,2.221-5.064,6.872-6.214,1.678-.415,2.445.511,2.877,3.131l.447,2.636,1.264.511a5.8,5.8,0,0,1,1.166-4.281c1.55-1.773,4.271,3.929,2,4.953s2.651,2.379,2.651,2.379,0-1.326,1.55-5.543-1.438-10.191-4.667-11.533c-4.507-1.869-4.874-1.1-4.874-1.1s-5.4-2.763-10.947,2.62C126.338,95.3,126.737,101.005,128.863,103.082Z" transform="translate(-127.359 -87.246)"/>
        </g>
        <path id="Path_4629" data-name="Path 4629" class="cls-20" d="M139.027,111.328l.447-1.438s5.226,3.85,6.361,3.85c0,0,5.114-10.239,3.979-12.284a20.382,20.382,0,0,0,5.226-.256c3.772-.607,5.45,0,5.45,0s5.338,22.3,9.189,29.327,8.167,13.162,8.167,13.162l.911,6.581s-2.717,5.111-10.436,7.539l-7.719,2.444s2.046-10.894-4.986-19.967-19.066-23.145-19.066-23.145Z" transform="translate(-61.309 -79.071)"/>
        <path id="Path_4630" data-name="Path 4630" class="cls-19" d="M90.889,136.526a8.811,8.811,0,0,0,3.532-1.47c.991-.863,2.221-1.789,3.468-1.6,1.263.192,2.653.91,2.381,1.517s-3.2,1.342-3.724,2.2-1.662,2.2-1.662,3.53a18.553,18.553,0,0,1-.927,4.057,6.849,6.849,0,0,0-3.74-.479C88.22,144.641,90.889,136.526,90.889,136.526Z" transform="translate(-89.467 -59.656)"/>
        <path id="Path_4631" data-name="Path 4631" class="cls-19" d="M93.338,136.018c2.078-.527,6.536-.8,7.671,0a22.344,22.344,0,0,1,4.331,4.856c.4.926,1.6.687.991,1.533s-1.2,2.987-2.062,3.913a2.626,2.626,0,0,1-3.228.655c-1.247-.591-3.564-.99-4.906-1.917-1.326-.926-2.861-1.725-4.187-1.533a9,9,0,0,1-2.477,0s1.279-5.782.943-6.453C90.093,136.417,93.338,136.018,93.338,136.018Z" transform="translate(-89.47 -58.413)"/>
        <path id="Path_4632" data-name="Path 4632" class="cls-19" d="M105.587,134.828a70.149,70.149,0,0,1-8.79,0c-1.6-.256-2.925,1.741-4.123,2.8-1.2,1.07.671,1.773,1.87,1.693,1.2-.1,2.8-1.9,3.868-1.6s2.4,2.556,3.6,4.025,1.326,2.556,2.669,2.476c1.326-.08,2-1.565,4.667-2.811a60.2,60.2,0,0,0,6.265-3.642l-3.324-5.287C112.252,132.464,108.256,134.652,105.587,134.828Z" transform="translate(-87.784 -60.226)"/>
        <path id="Path_4633" data-name="Path 4633" class="cls-21" d="M106.6,133.28c-2.126.4-5.993,1.054-5.993,1.054s1.071,4.361,1.326,6.581a21.275,21.275,0,0,0,.671,3.466,35.293,35.293,0,0,0,7.463-2.572c2.525-1.47,6.52-6.1,6.52-6.1Z" transform="translate(-82.807 -59.748)"/>
        <path id="Path_4634" data-name="Path 4634" class="cls-15" d="M153.828,111.93c-2.046,2.22-9.877,11.086-16.077,16.964-6.185,5.878-10.867,7.507-19.529,11.165a159.234,159.234,0,0,1-15.9,5.974s2.509,7.028,3.644,10.463c0,0,18.507-4.137,27.472-7.859s30.652-22.459,30.652-22.459Z" transform="translate(-81.784 -72.501)"/>
        <path id="Path_4635" data-name="Path 4635" class="cls-15" d="M146.48,101.637s1.358,20.334,1.023,24.759,5.45,11.229,8.167,17.363c2.717,6.118,10.212,17.107,13.281,17.395s17.372-.272,23.157-5.495c0,0-5.114-8.4-10.9-19.056-5.865-10.782-9.541-17.667-12.258-24.647-2.717-7-10.9-12.076-10.9-12.076A42.279,42.279,0,0,0,146.48,101.637Z" transform="translate(-55.37 -79.699)"/>
        <path id="Path_4636" data-name="Path 4636" class="cls-15" d="M140.217,107.44a71.146,71.146,0,0,0,7.719,10.127,70.566,70.566,0,0,0,7.112,7.076s6.968,8.8,9.237,12.2,4.171,5.91,4.123,8.737,1.087,8.322-2.765,13.945c0,0-.224,2.492-8.167,2.715a115.5,115.5,0,0,0,1.135-12.252c.224-7.268-3.132-7.028-7.687-11.565-4.571-4.536-9.557-9.073-12.514-12.938-2.957-3.85-3.852-10.894-3.852-10.894S135.9,109.548,140.217,107.44Z" transform="translate(-62.499 -75.183)"/>
        <path id="Path_4639" data-name="Path 4639" class="cls-19" d="M180.1,135.249a16.155,16.155,0,0,1,2.7,5.7,10.068,10.068,0,0,0,1.5,3.85c.447.5,2.557.8,2.557.8s.447,1.645,1.5,1.8c1.055.144.895-.144,2.11,0,1.2.144,1.358-.607,2.557-1.054s1.055-.4,1.806-1.549.3-1.709-1.055-3.466a43.174,43.174,0,0,0-4.81-5.351c-2.11-2-4.235-6.294-4.235-6.294Z" transform="translate(-35.26 -61.893)"/>
        <path id="Path_4640" data-name="Path 4640" class="cls-22" d="M179.18,133.7l2.7,5.7a7.423,7.423,0,0,0,7.527-3.594l-5.594-7.651Z" transform="translate(-35.81 -62.807)"/>
        <path id="Path_4641" data-name="Path 4641" class="cls-15" d="M156.1,99.88a49.765,49.765,0,0,1,18.379,9.153,234.077,234.077,0,0,1,17.708,17.012c2.381,2.38,13.616,23.928,13.616,23.928s-3.4,1.581-8.518,4.313a153.767,153.767,0,0,1-13.616-19.36c-3.388-5.591-17.723-12.188-25.714-15.814C149.98,115.5,145.2,102.627,156.1,99.88Z" transform="translate(-53.42 -79.699)"/>
      </g>
      <path id="Path_4642" data-name="Path 4642" class="cls-19" d="M59.642,122.127c1.662-.831,10.084-1.821,10.532-.5a22.7,22.7,0,0,1,2.276,7.13,33.984,33.984,0,0,1-.693,8.907c-.16.91-1.582,1.821-4.491,2.236s-4.155,2.572-5.737,4.9-3.692,9.472-3.692,9.472L45.53,147.3s3.628-5.239,4.043-7.811,1.406-7.316,1.406-7.316Z" transform="translate(27.234 44.664)"/>
      <g id="Group_2689" data-name="Group 2689" transform="translate(43.317 189.505)">
        <path id="Path_4643" data-name="Path 4643" class="cls-23" d="M42.772,177.57a15.932,15.932,0,0,0,4.267,4.664,10.157,10.157,0,0,1,3,2.859,6.959,6.959,0,0,1-.224,2.668s1.358,1.038,1.1,2.077c-.256,1.022-.479.783-.8,1.949s-1.071,1.022-1.95,1.965-.767.815-2.126,1.086c-1.358.256-1.694-.367-2.8-2.284a44.111,44.111,0,0,1-3.132-6.485c-1.055-2.7-4.219-6.309-4.219-6.309Z" transform="translate(-21.844 -111.041)"/>
        <path id="Path_4644" data-name="Path 4644" class="cls-23" d="M41.708,176.13l4.267,4.664a7.416,7.416,0,0,1-6.185,5.591L34.82,178.3Z" transform="translate(-22.49 -111.901)"/>
        <path id="Path_4645" data-name="Path 4645" class="cls-23" d="M54.41,135.92s-6.233,3.338-13.377,11.213-13.121,17.587-13.7,20.909c-2.365,13.593,14.1,40.4,14.1,40.4s2.845-2.444,7.431-5.99c0,0-4.491-17.475-3.852-26.787.447-6.517,9.077-17.874,16.477-22.586S65.581,137.134,54.41,135.92Z" transform="translate(-27.105 -135.92)"/>
      </g>
      <path id="Path_4646" data-name="Path 4646" class="cls-17" d="M53.533,119.643c-5.769-.224-7.751,1.773-7.975,7.747s1.294,6.294,2.189,8.083c2.158,4.377,1.55,7.252,1.55,7.252s1.79,1.054,5.562.623c3.772-.447,4.427-2.875,5.769-3.993a17.336,17.336,0,0,0,2.221-2.22,6.083,6.083,0,0,1-2.653-3.546c-.447-2.22,1.326-3.227,2.653-1.725l1.326,1.5s1.326.048.879-2.524,0-3.243,1.1-4.568,4-2.444,4-2.444-2.445-5.543-7.32-6.421C57.976,116.544,53.533,119.643,53.533,119.643Z" transform="translate(27.237 42.436)"/>
      <path id="Path_4647" data-name="Path 4647" class="cls-17" d="M71.98,215.229c-.831,2.668.991,7.731,1.6,9.776.607,2.061,2.8,1.406,8.183,1.2s12.977-.4,14.783-.8-1.167-5.127-3.388-5.782c-3.66-1.086-7.831-2.859-8.79-4.792s-4.187-1.789-4.187-1.789Z" transform="translate(42.927 99.651)"/>
      <path id="Path_4648" data-name="Path 4648" class="cls-15" d="M36.958,169.14c-4.555,4.073-4.762,12.252-2.046,19.743s5.721,8.849,14.032,9.185,28,11.117,29.278,13.737C84.2,224.1,95.85,247.074,95.85,247.074s5.45,2.38,12.258-3.4c0,0-4.251-14.7-8.438-27.362C94.476,200.576,92,197.908,86.8,192.828c-3.164-3.1-21.271-16.532-28.655-21.292C50.782,166.76,42.3,164.38,36.958,169.14Z" transform="translate(19.824 71.879)"/>
      <path id="Path_4649" data-name="Path 4649" class="cls-17" d="M22.907,230.67s-1.71.687-3.58,3.913-4.938,4.089-1.534,7.14c3.4,3.067,8.167,8,9.7,8.162,1.534.176,10.276.847,11.986,0s-.336-2.907-2.653-5.271c-1.886-1.917-4.826-5.447-5-6.469a39.9,39.9,0,0,1,.272-5.271Z" transform="translate(9.727 110.183)"/>
      <path id="Path_4650" data-name="Path 4650" class="cls-24" d="M34.257,173.945c-2.845,5.335-.575,12.252,1.47,23.832,2.046,11.565,2.349,21.963,3.036,27.41s-2.11,6.23-8.934,19.5A187.362,187.362,0,0,0,19.25,269.53s4.155,6.262,10.6,7.955c0,0,12.913-19.535,18.347-28.033a57.5,57.5,0,0,0,8.518-22.538c1.406-8.961,4.81-31.42,4.555-47.409s-11.571-11.341-16-10.99C40.841,168.834,37.884,167.141,34.257,173.945Z" transform="translate(11.514 72.521)"/>
      <path id="Path_4651" data-name="Path 4651" class="cls-25" d="M45.54,136.056s1.31-2.684,1.438-3.083,2.3-.335,6.393,0,8.167,4.84,8.167,4.84l-5.769,3.546Z" transform="translate(27.24 51.66)"/>
      <path id="Path_4652" data-name="Path 4652" class="cls-26" d="M61.77,133.967c3.308.176,8.63,3.179,9.765,4.313s5.8,5.335,4.667,15.654c-.863,7.859-5.45,21.261-6.313,26.2-.975,5.527-3.116,14.248-6.073,16.053-2.957,1.821-3.548,3.929-13.392,3.626-7.4-.224-21.783-5.671-21.783-5.671s1.918-5.639,4.059-12.475c5.753-18.337,17.58-41.738,21.064-47.089C54.5,133.44,59.021,133.823,61.77,133.967Z" transform="translate(17.131 52.311)"/>
      <path id="Path_4653" data-name="Path 4653" class="cls-27" d="M88.77,135.868l3.852-.958a7.733,7.733,0,0,1,1.55,6.693c-.911,4.057-.927,2.46-.927,2.46l-3.74,1.118Z" transform="translate(53.098 52.982)"/>
      <path id="Path_4654" data-name="Path 4654" class="cls-26" d="M54.078,150.36c2.669,1.054,3.692,1.214,14.351,1.422s12.306,2.2,19.433,1.422c8.886-.974,27.057-6.246,27.057-6.246s1.646-7.8-.895-12.028c0,0-24.276,5.607-31.212,4.377s-19.481-3.322-24.388-4.105c-4.89-.783-10.356.256-9.988,6.357C48.676,145.185,50.5,148.923,54.078,150.36Z" transform="translate(28.962 52.994)"/>
      <path id="Path_4655" data-name="Path 4655" class="cls-19" d="M92.514,143.243a14.075,14.075,0,0,0,5.45,2.2c1.071,0,2.525-1.6,2.925-2.2s-.463-.99-.991-1.07c-.527-.064-.463-1.565-1.406-1.486-.927.08-.623-.7-1.742-.639s-.655-.543-1.726-.607-1.71.99-2.525,1.725C91.715,141.917,91.651,142.684,92.514,143.243Z" transform="translate(54.963 55.687)"/>
      <g id="Group_2690" data-name="Group 2690" transform="translate(111.918 324.927)">
        <rect id="Rectangle_834" data-name="Rectangle 834" class="cls-28" width="64.326" height="81.895"/>
        <rect id="Rectangle_835" data-name="Rectangle 835" class="cls-29" width="64.326" height="81.895" transform="translate(21.607)"/>
      </g>
      <g id="Group_2691" data-name="Group 2691" transform="translate(218.068 294.019)">
        <rect id="Rectangle_836" data-name="Rectangle 836" class="cls-28" width="64.326" height="112.804"/>
        <rect id="Rectangle_837" data-name="Rectangle 837" class="cls-29" width="64.326" height="112.804" transform="translate(21.607)"/>
      </g>
      <g id="Group_2692" data-name="Group 2692" transform="translate(8.806 358.136)">
        <rect id="Rectangle_838" data-name="Rectangle 838" class="cls-28" width="64.326" height="48.687"/>
        <rect id="Rectangle_839" data-name="Rectangle 839" class="cls-29" width="64.326" height="48.687" transform="translate(21.607)"/>
      </g>
      <path id="Path_4656" data-name="Path 4656" class="cls-15" d="M0,163.912l51.828-43.943,11.011,17.379,56-38.48,15.63,21,48.456-39.31L198.6,97.239l42.926-30.557,7.431,8.13L259.2,46.3l-31.052,2.524,6.92,9.935-37.525,28.72L181.07,66.746,135.683,110.88l-19.1-26.644-52.627,48.1-13.68-22.075Z" transform="translate(0 0.052)"/>
      <g id="Logo_Small_1" data-name="Logo Small – 1" class="cls-30" transform="matrix(0.799, -0.602, 0.602, 0.799, 38.163, 79.044)">
        <path id="Path_2844" data-name="Path 2844" class="cls-23" d="M25.023,5.963h-5v4.221h5l0,8.158a15.292,15.292,0,0,0,.269,3.013h0a9.434,9.434,0,0,0,.8,2.389h0c.141.292.308.61.508.952h0a7.956,7.956,0,0,0,.733,1.056h0a10.576,10.576,0,0,0,3.616,2.919h0a10.082,10.082,0,0,0,4.387.952h0a10.7,10.7,0,0,0,2.394-.261h0V24.906c-.076.031-.152.061-.23.09h0a5.755,5.755,0,0,1-1.192.316h0a7.034,7.034,0,0,1-1.085.089h0a5.75,5.75,0,0,1-2.6-.615h0a7.3,7.3,0,0,1-2.3-1.913h0a5.143,5.143,0,0,1-.968-1.833h0a8.05,8.05,0,0,1-.308-2.289h0l0-8.565h4.675V5.966H29.039v-1.7A4.09,4.09,0,0,0,25.017.04h0ZM48.729,8.725a8.171,8.171,0,0,0-1.715.143h0a10.3,10.3,0,0,0-4.753,2.12h0a10.428,10.428,0,0,0-3.847,8.1h0v.144a10.418,10.418,0,0,0,.137,1.69h0a10.777,10.777,0,0,0,.421,1.72h0a9.5,9.5,0,0,0,.64,1.461h0a14.929,14.929,0,0,0,1,1.6h0A10.335,10.335,0,0,0,48.7,29.613h.146a10.968,10.968,0,0,0,3.327-.51h0a9.242,9.242,0,0,0,3.014-1.655h0a10.472,10.472,0,0,0,3-3.7h0a10.418,10.418,0,0,0,.965-4.484h0V19.11a11.328,11.328,0,0,0-.509-3.379h0a9.219,9.219,0,0,0-1.666-3.063h0A10.4,10.4,0,0,0,53.3,9.675h0a10.338,10.338,0,0,0-4.436-.958H48.72ZM46.555,25.18a6.027,6.027,0,0,1-1.9-1.244h0a6.539,6.539,0,0,1-1.588-2.215h0a6.536,6.536,0,0,1-.513-2.577h0a6.036,6.036,0,0,1,.1-1.046h0a7.765,7.765,0,0,1,.3-1.1h0a5.057,5.057,0,0,1,.39-.9h0a8.419,8.419,0,0,1,.708-1.075h0a6.286,6.286,0,0,1,4.743-2.263h0a5.935,5.935,0,0,1,2.2.417h0a6.165,6.165,0,0,1,1.994,1.313h0a6.9,6.9,0,0,1,1.559,2.186h0a5.956,5.956,0,0,1,.484,2.532h0a6.2,6.2,0,0,1-.107,1.11h0c-.063.307-.122.55-.175.733h0a6.927,6.927,0,0,1-.918,1.873h0a6.3,6.3,0,0,1-1.485,1.5h0a6.18,6.18,0,0,1-1.7.877h0a5.5,5.5,0,0,1-1.671.267h-.4a5.655,5.655,0,0,1-2.022-.382M5.868,9.735a10.974,10.974,0,0,0-3.736,3.131h0a6.39,6.39,0,0,0-.9,1.437h0a4.6,4.6,0,0,0-.39.827h0q-.183.476-.366,1.086h0a14.493,14.493,0,0,0-.429,3.949h0l0,9.439H4.209l0-9.89a7.5,7.5,0,0,1,1.1-4.187h0a6.5,6.5,0,0,1,3.351-2.487h0A4.594,4.594,0,0,1,9.6,12.8h0a5.565,5.565,0,0,1,.83-.069h0a5.787,5.787,0,0,1,.835.069h0a4.76,4.76,0,0,1,.953.238h0a6.515,6.515,0,0,1,3.347,2.489h0a7.5,7.5,0,0,1,1.1,4.188h0l0,9.89h4.162l0-9.439a14.485,14.485,0,0,0-.431-3.949h0c-.122-.407-.25-.763-.372-1.071h0c-.127-.312-.255-.59-.386-.842h0c-.108-.193-.224-.412-.362-.654h0a5.569,5.569,0,0,0-.528-.783h0a10.215,10.215,0,0,0-8.315-4.154h0A10.192,10.192,0,0,0,5.875,9.735" transform="translate(29.477 8.346)"/>
        <path id="Path_2850" data-name="Path 2850" class="cls-15" d="M.03,19.093h0v.089a10.419,10.419,0,0,0,.137,1.69h0a10.832,10.832,0,0,0,.42,1.72h0a9.494,9.494,0,0,0,.64,1.461h0a14.928,14.928,0,0,0,1,1.6h0a10.335,10.335,0,0,0,8.086,3.908h.146a10.966,10.966,0,0,0,3.327-.51h0A9.24,9.24,0,0,0,16.8,27.4h0a10.478,10.478,0,0,0,3-3.7h0a10.411,10.411,0,0,0,.966-4.484h0V19.06a11.329,11.329,0,0,0-.509-3.379h0A11.019,11.019,0,0,0,18.6,12.618h0c-5.094-5.255-9.762-.441-10.255.449h0A5.777,5.777,0,0,1,10.4,12.7h0a5.933,5.933,0,0,1,2.2.417h0a6.16,6.16,0,0,1,1.994,1.313h0a6.9,6.9,0,0,1,1.559,2.186h0a5.956,5.956,0,0,1,.484,2.532h0a6.208,6.208,0,0,1-.107,1.11h0c-.063.307-.122.55-.175.733h0a6.945,6.945,0,0,1-.918,1.873h0a6.3,6.3,0,0,1-1.485,1.5h0a6.179,6.179,0,0,1-1.7.877h0a5.5,5.5,0,0,1-1.671.267H10.2a5.651,5.651,0,0,1-2.022-.382h0a6.027,6.027,0,0,1-1.9-1.244h0a6.538,6.538,0,0,1-1.588-2.215h0a6.535,6.535,0,0,1-.513-2.577h.016l0-14.863A4.209,4.209,0,0,0,.022,0h0Z" transform="translate(90.662 8.401)"/>
        <g id="Group_1697" data-name="Group 1697" transform="translate(90.668 8.403)">
          <path id="Path_2851" data-name="Path 2851" class="cls-31" d="M4.188,27.512a12.742,12.742,0,0,1-1.958-1.853,14.961,14.961,0,0,1-1-1.6A9.518,9.518,0,0,1,.588,22.6a10.77,10.77,0,0,1-.42-1.72,10.415,10.415,0,0,1-.138-1.69V19.1h0L.026,0H.239L.345.007l.1.009.1.012.1.015.1.017.1.02L.946.1l.1.025.1.027.1.03.1.032.1.035.1.037.094.039L1.729.37,1.82.413l.09.045L2,.507l.088.05.086.052.085.054.084.056.082.058.081.06L2.585.9l.078.064h0l.076.065.074.067.073.069.071.071.07.073.068.074.066.076.065.077.063.079.061.08.059.082.057.083.055.085c.018.028.036.057.053.086s.035.058.051.087l.049.089h0c.016.03.032.06.047.09l.045.092c.015.031.029.062.043.093s.028.062.04.094.026.063.039.1l.036.1c.012.032.023.065.034.1l.032.1c.011.035.02.066.029.1l.027.1c.009.033.017.067.024.1s.015.068.022.1.013.069.02.1.012.069.017.1.01.07.015.1.008.07.012.106.007.071.009.106.005.071.007.107,0,.072,0,.108,0,.072,0,.108l0,14.87H4.151q0,.319.028.63Z" transform="translate(0 0)"/>
        </g>
        <path id="Path_2852" data-name="Path 2852" class="cls-2" d="M.062.161l120.2.029.011,46.069L.073,46.23Z" transform="translate(0 0)"/>
        <path id="Path_2854-2" data-name="Path 2854" class="cls-2" d="M22.742.036A22.86,22.86,0,0,0,.037,23.065h0A22.887,22.887,0,0,0,22.753,46.1h0a22.443,22.443,0,0,0,15.373-6.077l-7.247,0a18.278,18.278,0,0,1-8.127,1.893h0A18.726,18.726,0,0,1,4.167,23.068h0A18.7,18.7,0,0,1,22.743,4.226h0A18.58,18.58,0,0,1,39.629,15.2h4.463A22.751,22.751,0,0,0,22.742.036Z" transform="translate(0.03 0.131)"/>
        <g id="Group_1700" data-name="Group 1700" class="cls-32" transform="translate(0.03 0.131)">
          <g id="Group_1699" data-name="Group 1699" transform="translate(-22.395 17.676) rotate(-38.257)">
            <path id="Path_2853" data-name="Path 2853" class="cls-17" d="M28.536.023,122.92,74.446,94.413,110.639.029,36.213Z" transform="translate(0 0)"/>
          </g>
        </g>
        <g id="Group_1702" data-name="Group 1702" class="cls-33" transform="translate(0.119 24.73)">
          <g id="Group_1701" data-name="Group 1701" transform="matrix(0.611, 0.792, -0.792, 0.611, 75.261, -82.591)">
            <path id="Path_2855" data-name="Path 2855" class="cls-34" d="M-.08,95.076,73.376-.062l36.478,28.133L36.4,123.209Z" transform="translate(0 0)"/>
          </g>
        </g>
        <g id="Group_1715" data-name="Group 1715" transform="translate(19.543 8.38)">
          <path id="Rectangle_601" data-name="Rectangle 601" class="cls-23" d="M0,0H.573A5.011,5.011,0,0,1,5.582,5.01V6.582H5.012A5.011,5.011,0,0,1,0,1.573Z" transform="translate(0.031 0.007)"/>
          <path id="Rectangle_602" data-name="Rectangle 602" class="cls-23" d="M.022,0H.593A5.011,5.011,0,0,1,5.6,5.01l0,16.545H5.036A5.011,5.011,0,0,1,.026,16.545Z" transform="translate(0.013 8.019)"/>
          <g id="Mask_Group_1" data-name="Mask Group 1" class="cls-35" transform="translate(3.011 8.017)">
            <path id="Rectangle_607" data-name="Rectangle 607" class="cls-5" d="M.022,0H.593A5.011,5.011,0,0,1,5.6,5.01l0,16.545H5.036A5.011,5.011,0,0,1,.026,16.545Z" transform="translate(-2.998 0.002)"/>
          </g>
          <g id="Mask_Group_2" data-name="Mask Group 2" class="cls-35" transform="translate(3.009 0.005)">
            <path id="Rectangle_608" data-name="Rectangle 608" class="cls-5" d="M0,0H.573A5.011,5.011,0,0,1,5.582,5.01V6.582H5.012A5.011,5.011,0,0,1,0,1.573Z" transform="translate(-2.978 0.002)"/>
          </g>
        </g>
        <g id="Group_1716" data-name="Group 1716" transform="translate(114.698 8.404)">
          <path id="Rectangle_601-2" data-name="Rectangle 601" class="cls-15" d="M0,0H.573A5.011,5.011,0,0,1,5.582,5.01V6.582H5.012A5.011,5.011,0,0,1,0,1.573Z" transform="translate(0.031 0.007)"/>
          <path id="Rectangle_602-2" data-name="Rectangle 602" class="cls-15" d="M.022,0H.593A5.011,5.011,0,0,1,5.6,5.01l0,16.545H5.036A5.011,5.011,0,0,1,.026,16.545Z" transform="translate(0.013 8.019)"/>
          <g id="Mask_Group_1-2" data-name="Mask Group 1" class="cls-36" transform="translate(3.011 8.017)">
            <path id="Rectangle_607-2" data-name="Rectangle 607" class="cls-6" d="M.022,0H.593A5.011,5.011,0,0,1,5.6,5.01l0,16.545H5.036A5.011,5.011,0,0,1,.026,16.545Z" transform="translate(-2.998 0.002)"/>
          </g>
          <g id="Mask_Group_2-2" data-name="Mask Group 2" class="cls-36" transform="translate(3.009 0.005)">
            <path id="Rectangle_608-2" data-name="Rectangle 608" class="cls-6" d="M0,0H.573A5.011,5.011,0,0,1,5.582,5.01V6.582H5.012A5.011,5.011,0,0,1,0,1.573Z" transform="translate(-2.978 0.002)"/>
          </g>
        </g>
      </g>
    </g>
  </g>
</svg>
