<svg xmlns="http://www.w3.org/2000/svg" xmlns:xlink="http://www.w3.org/1999/xlink" viewBox="0 0 561 409.201">
  <defs>
    <style>
      .cls-1 {
        fill: #f1f4f9;
      }

      .cls-2 {
        clip-path: url(#clip-path);
      }

      .cls-3 {
        fill: #dfe0f3;
      }

      .cls-4 {
        fill: #bcc4db;
      }

      .cls-5 {
        fill: #1abffe;
      }

      .cls-6 {
        fill: #fff;
      }

      .cls-11, .cls-23, .cls-7 {
        fill: none;
        stroke-miterlimit: 10;
      }

      .cls-7 {
        stroke: #e7eaf4;
        stroke-linecap: round;
        stroke-linejoin: round;
      }

      .cls-23, .cls-7 {
        stroke-width: 2px;
      }

      .cls-8 {
        fill: #e8e9f9;
      }

      .cls-9 {
        fill: #445586;
      }

      .cls-10 {
        fill: #37456c;
      }

      .cls-11, .cls-23 {
        stroke: #37456c;
      }

      .cls-11 {
        stroke-width: 2.496px;
      }

      .cls-12 {
        fill: #ffb17a;
      }

      .cls-13 {
        fill: #fda261;
      }

      .cls-14 {
        fill: #80dcff;
      }

      .cls-15 {
        fill: #de7111;
      }

      .cls-16 {
        fill: #ff8820;
      }

      .cls-17 {
        fill: #c6cde2;
      }

      .cls-18 {
        fill: #acb4cc;
      }

      .cls-19 {
        fill: #9da4bc;
      }

      .cls-20 {
        fill: #ecf2f5;
      }

      .cls-21 {
        fill: #47df89;
      }

      .cls-22 {
        fill: #24ca6c;
      }
    </style>
    <clipPath id="clip-path">
      <path id="Path_4565" data-name="Path 4565" d="M333.782,143.881C258.688,98.506,223.241-40.906,107.322,42.4-8.6,125.723,39.456,296.88,150.563,338.27c111.086,41.39,254.025,18.006,294.24-58.9C513.518,147.975,384.165,174.32,333.782,143.881Z" transform="translate(-40.462 -16.381)"/>
    </clipPath>
  </defs>
  <g id="Group_2686" data-name="Group 2686" transform="translate(0.55)">
    <g id="Group_2685" data-name="Group 2685" transform="translate(0.45)">
      <path id="Path_4563" data-name="Path 4563" class="cls-1" d="M333.782,143.881C258.688,98.506,223.241-40.906,107.322,42.4-8.6,125.723,39.456,296.88,150.563,338.27c111.086,41.39,254.025,18.006,294.24-58.9C513.518,147.975,384.165,174.32,333.782,143.881Z" transform="translate(46.656 19.285)"/>
      <g id="Group_2654" data-name="Group 2654" transform="translate(87.118 35.666)">
        <g id="Group_2653" data-name="Group 2653" class="cls-2">
          <path id="Path_4564" data-name="Path 4564" class="cls-3" d="M35.28,252.222s64.034-64.208,170.983-33.748S376.179,222.828,362.919,61.36c0,0,150.32,20.967,131.051,127.785C470.586,318.8,168.661,368.271,35.28,252.222Z" transform="translate(-46.563 36.573)"/>
        </g>
      </g>
      <g id="Group_2661" data-name="Group 2661" transform="translate(62.989 50.862)">
        <g id="Group_2655" data-name="Group 2655">
          <path id="Path_4566" data-name="Path 4566" class="cls-4" d="M182.466,33.114V95.733a9.757,9.757,0,0,1-9.776,9.754H39.156a9.757,9.757,0,0,1-9.776-9.754V33.114a9.757,9.757,0,0,1,9.776-9.754H172.689A9.757,9.757,0,0,1,182.466,33.114Z" transform="translate(-29.38 -23.36)"/>
        </g>
        <g id="Group_2657" data-name="Group 2657">
          <path id="Path_4567" data-name="Path 4567" class="cls-5" d="M182.466,33.114v5.421H29.38V33.114a9.757,9.757,0,0,1,9.776-9.754H172.689A9.757,9.757,0,0,1,182.466,33.114Z" transform="translate(-29.38 -23.36)"/>
          <g id="Group_2656" data-name="Group 2656" transform="translate(6.575 6.27)">
            <circle id="Ellipse_221" data-name="Ellipse 221" class="cls-6" cx="2.047" cy="2.047" r="2.047" transform="translate(0 0)"/>
            <path id="Path_4568" data-name="Path 4568" class="cls-6" d="M40.263,28.287a2.047,2.047,0,1,1-2.047-2.047A2.044,2.044,0,0,1,40.263,28.287Z" transform="translate(-27.962 -26.24)"/>
            <path id="Path_4569" data-name="Path 4569" class="cls-6" d="M44.033,28.287a2.047,2.047,0,1,1-2.047-2.047A2.044,2.044,0,0,1,44.033,28.287Z" transform="translate(-23.523 -26.24)"/>
          </g>
        </g>
        <path id="Path_4570" data-name="Path 4570" class="cls-6" d="M70.651,63H39.907A1.8,1.8,0,0,1,38.1,61.194V36.307A1.8,1.8,0,0,1,39.907,34.5H70.651a1.8,1.8,0,0,1,1.807,1.807V61.194A1.789,1.789,0,0,1,70.651,63Z" transform="translate(-19.114 -10.245)"/>
        <g id="Group_2658" data-name="Group 2658" transform="translate(16.83 61.792)">
          <path id="Path_4571" data-name="Path 4571" class="cls-6" d="M152.2,56.051H39.266A2.147,2.147,0,0,1,37.11,53.9h0a2.147,2.147,0,0,1,2.156-2.156H152.18a2.147,2.147,0,0,1,2.156,2.156h0A2.128,2.128,0,0,1,152.2,56.051Z" transform="translate(-37.11 -51.74)"/>
        </g>
        <g id="Group_2659" data-name="Group 2659" transform="translate(61.247 45.484)">
          <path id="Path_4572" data-name="Path 4572" class="cls-6" d="M128.185,48.561H59.666a2.147,2.147,0,0,1-2.156-2.156h0a2.147,2.147,0,0,1,2.156-2.156h68.5a2.147,2.147,0,0,1,2.156,2.156h0A2.142,2.142,0,0,1,128.185,48.561Z" transform="translate(-57.51 -44.25)"/>
        </g>
        <g id="Group_2660" data-name="Group 2660" transform="translate(61.247 30.156)">
          <path id="Path_4573" data-name="Path 4573" class="cls-6" d="M102.1,41.521H59.666a2.147,2.147,0,0,1-2.156-2.156h0a2.147,2.147,0,0,1,2.156-2.156H102.1a2.147,2.147,0,0,1,2.156,2.156h0A2.16,2.16,0,0,1,102.1,41.521Z" transform="translate(-57.51 -37.21)"/>
        </g>
      </g>
      <path id="Path_4574" data-name="Path 4574" class="cls-7" d="M.45,91.058a54.911,54.911,0,0,1,4.028-4.18c2.743-2.373,5.9-6.554,16-3.462.784.24,1.546.566,2.308.871.893.37,3.658.392,6.467-1.851,4.485-3.571,6.249-6.249,12.389-6.336,7.163-.087,8.274,8.818,13.848,11.1,3.549,1.459,12.868,2.9,14.806,3.549Z" transform="translate(-0.45 89.592)"/>
      <path id="Path_4575" data-name="Path 4575" class="cls-8" d="M174.82,40.058a108.728,108.728,0,0,1,7.9-8.23c5.421-4.659,11.627-12.89,31.484-6.815a47.246,47.246,0,0,1,4.529,1.72c1.742.74,7.163.762,12.715-3.658,8.818-7.011,12.28-12.3,24.364-12.454,14.065-.2,16.286,17.353,27.216,21.838,6.967,2.852,25.3,5.7,29.11,6.967Z" transform="translate(204.835 12.502)"/>
      <g id="Group_2662" data-name="Group 2662" transform="translate(130.093 102.05)">
        <path id="Path_4576" data-name="Path 4576" class="cls-6" d="M129.136,49.766l-1.023-2.9-1.023,2.9a10.259,10.259,0,0,1-5.639,5.748h0a10.132,10.132,0,0,1,5.639,5.748l1.023,2.9,1.023-2.9a10.2,10.2,0,0,1,5.639-5.748h0A10.2,10.2,0,0,1,129.136,49.766Z" transform="translate(11.909 -46.87)"/>
        <path id="Path_4577" data-name="Path 4577" class="cls-6" d="M87.036,126.066l-1.023-2.9-1.023,2.9a10.259,10.259,0,0,1-5.639,5.748h0a10.131,10.131,0,0,1,5.639,5.748l1.023,2.9,1.023-2.9a10.2,10.2,0,0,1,5.639-5.748h0A10.259,10.259,0,0,1,87.036,126.066Z" transform="translate(-37.655 42.958)"/>
        <path id="Path_4578" data-name="Path 4578" class="cls-6" d="M211.853,117.5l-.675-1.916L210.5,117.5a6.681,6.681,0,0,1-3.723,3.788h0a6.748,6.748,0,0,1,3.723,3.788l.675,1.916.675-1.916a6.682,6.682,0,0,1,3.723-3.788h0A6.616,6.616,0,0,1,211.853,117.5Z" transform="translate(112.368 34.022)"/>
        <path id="Path_4579" data-name="Path 4579" class="cls-6" d="M65.273,73.206,64.6,71.29l-.675,1.916A6.682,6.682,0,0,1,60.2,76.994h0a6.748,6.748,0,0,1,3.723,3.788L64.6,82.7l.675-1.916A6.682,6.682,0,0,1,69,76.994h0A6.748,6.748,0,0,1,65.273,73.206Z" transform="translate(-60.2 -18.12)"/>
      </g>
      <g id="Group_2666" data-name="Group 2666" transform="translate(282.526)">
        <path id="Path_4580" data-name="Path 4580" class="cls-5" d="M200.036,0H136.481a6.272,6.272,0,0,0-6.271,6.271V40.607a6.272,6.272,0,0,0,6.271,6.271H139.9V62.6l15.7-15.72h44.417a6.272,6.272,0,0,0,6.271-6.271V6.271A6.24,6.24,0,0,0,200.036,0Z" transform="translate(-130.21)"/>
        <g id="Group_2663" data-name="Group 2663" transform="translate(13.086 33.639)">
          <path id="Path_4581" data-name="Path 4581" class="cls-6" d="M138.31,15.45h15a2.091,2.091,0,0,1,2.09,2.09h0a2.091,2.091,0,0,1-2.09,2.09h-15a2.091,2.091,0,0,1-2.09-2.09h0A2.091,2.091,0,0,1,138.31,15.45Z" transform="translate(-136.22 -15.45)"/>
        </g>
        <g id="Group_2664" data-name="Group 2664" transform="translate(13.086 23.145)">
          <path id="Path_4582" data-name="Path 4582" class="cls-6" d="M138.31,10.63h27.63a2.091,2.091,0,0,1,2.09,2.09h0a2.091,2.091,0,0,1-2.09,2.09H138.31a2.091,2.091,0,0,1-2.09-2.09h0A2.091,2.091,0,0,1,138.31,10.63Z" transform="translate(-136.22 -10.63)"/>
        </g>
        <g id="Group_2665" data-name="Group 2665" transform="translate(13.107 12.955)">
          <path id="Path_4583" data-name="Path 4583" class="cls-6" d="M138.3,5.95h47.509a2.091,2.091,0,0,1,2.09,2.09h0a2.091,2.091,0,0,1-2.09,2.09H138.32a2.091,2.091,0,0,1-2.09-2.09h0A2.059,2.059,0,0,1,138.3,5.95Z" transform="translate(-136.23 -5.95)"/>
        </g>
      </g>
      <g id="Group_2668" data-name="Group 2668" transform="translate(311.851 156.71)">
        <path id="Path_4584" data-name="Path 4584" class="cls-9" d="M144.18,208.985h73.593a28.953,28.953,0,0,0,28.784-25.8L257.16,72.73H183.611l-1.5,64.056Z" transform="translate(-143.089 -71.085)"/>
        <g id="Group_2667" data-name="Group 2667">
          <path id="Path_4585" data-name="Path 4585" class="cls-10" d="M144.77,208.677c18.9-.762,37.8-1.089,56.719-1.393l14.174-.109c1.154-.022,2.439.022,3.462-.065a22.785,22.785,0,0,0,3.2-.327,24.217,24.217,0,0,0,6.14-1.785,26.533,26.533,0,0,0,15.5-19.051c.37-1.981.566-4.442.806-6.771l.7-7.054,1.393-14.109c.893-9.406,1.916-18.812,2.918-28.2q2.939-28.185,6.314-56.348a1.685,1.685,0,0,1,3.353.327c-1.328,18.855-2.874,37.711-4.529,56.544-.806,9.428-1.589,18.834-2.5,28.261l-1.328,14.109-.675,7.054c-.24,2.373-.37,4.616-.849,7.294A31.518,31.518,0,0,1,230.642,210.2a30.905,30.905,0,0,1-7.468,2.047,25.569,25.569,0,0,1-3.854.327c-1.328.065-2.417,0-3.614.022l-14.174-.109c-18.9-.3-37.8-.631-56.719-1.393a1.177,1.177,0,0,1-1.132-1.241A1.126,1.126,0,0,1,144.77,208.677Z" transform="translate(-143.679 -71.975)"/>
        </g>
        <line id="Line_129" data-name="Line 129" class="cls-11" y2="78.012" transform="translate(43.178 139.968)"/>
      </g>
      <g id="Group_2679" data-name="Group 2679" transform="translate(131.702 83.117)">
        <path id="Path_4621" data-name="Path 4621" class="cls-10" d="M0,0H237.216V3.68H0Z" transform="translate(237.216 144.171) rotate(180)"/>
        <path id="Path_4586" data-name="Path 4586" class="cls-12" d="M164.375,178.85l2.526,9.036-12.258,3.723-3.832-11.148Z" transform="translate(44.866 127.442)"/>
        <path id="Path_4587" data-name="Path 4587" class="cls-12" d="M123.05,175.85v7.229h10.865l1.2-7.229Z" transform="translate(12.185 123.91)"/>
        <g id="Group_2671" data-name="Group 2671" transform="translate(131.403 65.583)">
          <g id="Group_2669" data-name="Group 2669" transform="translate(0 11.061)">
            <path id="Path_4588" data-name="Path 4588" class="cls-13" d="M200.581,86.862l-16.4,40.454-.37.893a6.189,6.189,0,0,1-5.748,3.854l-46.681-.327a3.415,3.415,0,0,1-.479-6.793l46.18-6.75-6.118,4.747L182.009,80.7a9.8,9.8,0,0,1,18.964,4.942A7.26,7.26,0,0,1,200.581,86.862Z" transform="translate(-113.402 -73.376)"/>
            <path id="Path_4589" data-name="Path 4589" class="cls-13" d="M144.369,96.857l-15.938-.327c-3.941,0-7.142,3.549-7.142,7.947h23.275Z" transform="translate(-121.29 -46.117)"/>
          </g>
          <g id="Group_2670" data-name="Group 2670" transform="translate(61.378)">
            <path id="Path_4590" data-name="Path 4590" class="cls-14" d="M149.48,97.764,175,103.991l4.18-22.753a11,11,0,0,0-9.384-12.824h0a11.2,11.2,0,0,0-12.149,7.142Z" transform="translate(-149.48 -68.296)"/>
          </g>
        </g>
        <path id="Path_4591" data-name="Path 4591" class="cls-15" d="M210.206,102.14l-78.622,39.91A20.591,20.591,0,0,0,120.349,161.6l5.922,101.026h12.062l16.286-108.1,61.225-42.98Z" transform="translate(8.963 37.132)"/>
        <path id="Path_4592" data-name="Path 4592" class="cls-10" d="M166.972,39.471s21.86-7.425,33.334,13.26a22.274,22.274,0,0,0,2.286,3.418c2.33,2.743,7.185,7.816,12.541,9.471,21.272,6.532,34.728,46.725-7.6,50.317-52.974,4.485-68.019-5.966-60.442-27.086,5.4-15.067.588-25.757.588-25.757Z" transform="translate(38.328 -38.174)"/>
        <path id="Path_4593" data-name="Path 4593" class="cls-5" d="M175.284,63.56l-11.3,5.03a18.467,18.467,0,0,0-10.974,17.07c.174,14.849,3.549,51.711,16.09,65.8h38.233c5.922-26.106,2.5-66.255,2.5-66.255A18.9,18.9,0,0,0,193.2,65.694Z" transform="translate(47.456 -8.288)"/>
        <g id="Group_2674" data-name="Group 2674" transform="translate(181.411 1.297)">
          <g id="Group_2673" data-name="Group 2673">
            <g id="Group_2672" data-name="Group 2672" transform="translate(7.189 12.607)">
              <path id="Path_4594" data-name="Path 4594" class="cls-12" d="M169.783,86.633h0a7.319,7.319,0,0,1-8.1-6.336L158.57,56l14.544-1.7,3.092,24.124A7.33,7.33,0,0,1,169.783,86.633Z" transform="translate(-134.598 -33.093)"/>
              <path id="Path_4595" data-name="Path 4595" class="cls-12" d="M170.748,85.58l-.588.065a17.7,17.7,0,0,1-19.835-15.263L147.56,49.219l35.686-4.659,2.765,21.163A17.71,17.71,0,0,1,170.748,85.58Z" transform="translate(-147.56 -44.56)"/>
            </g>
            <path id="Path_4596" data-name="Path 4596" class="cls-10" d="M191.052,64.44,188,70.754s-4.05,3.505-5.2-5.313c-.98-7.468-6.4-6.184-6.4-6.184s-18.594,14.065-29.5,4.42c-8.622-7.621,5.313-21.555,21.25-24.908l20.9,9.123Z" transform="translate(-144.258 -38.77)"/>
            <path id="Path_4597" data-name="Path 4597" class="cls-12" d="M163.4,57.149a5.9,5.9,0,1,0,5.138-6.575A5.89,5.89,0,0,0,163.4,57.149Z" transform="translate(-121.77 -24.925)"/>
            <path id="Path_4598" data-name="Path 4598" class="cls-6" d="M165.594,55.159a1.063,1.063,0,1,0,.936-1.176A1.057,1.057,0,0,0,165.594,55.159Z" transform="translate(-119.148 -20.867)"/>
          </g>
        </g>
        <path id="Path_4600" data-name="Path 4600" class="cls-16" d="M236.081,103.93H197.848l-61.16,36.949a16.79,16.79,0,0,0-6.684,21.1l46.942,106.687,13.565-1.589L165.275,164.132c21.163-.893,60.485-4.093,70.762-15.546C253.456,129.187,236.081,103.93,236.081,103.93Z" transform="translate(18.709 39.239)"/>
        <g id="Group_2675" data-name="Group 2675" transform="translate(54.995 76.217)">
          <path id="Path_4601" data-name="Path 4601" class="cls-4" d="M155.616,73.18l21.816,58.613H106.539L86.356,76.577a2.521,2.521,0,0,1,2.373-3.4Z" transform="translate(-86.197 -73.18)"/>
          <path id="Path_4602" data-name="Path 4602" class="cls-17" d="M118.08,73.18h3.4a4.352,4.352,0,0,1,4.093,2.852l20.575,55.761h-6.227Z" transform="translate(-48.661 -73.18)"/>
          <path id="Path_4603" data-name="Path 4603" class="cls-18" d="M100.747,105.749h65.58V100.11H95.63v.523A5.111,5.111,0,0,0,100.747,105.749Z" transform="translate(-75.092 -41.475)"/>
          <path id="Path_4604" data-name="Path 4604" class="cls-19" d="M128.1,105.761h43.742a2.825,2.825,0,0,0,2.831-2.83h0a2.825,2.825,0,0,0-2.831-2.83H128.1Z" transform="translate(-36.865 -41.487)"/>
          <path id="Path_4605" data-name="Path 4605" class="cls-20" d="M116.71,89.587c1.35,4.05-.283,8.23-3.614,9.341s-7.12-1.285-8.47-5.334.283-8.23,3.614-9.341C111.594,83.164,115.382,85.537,116.71,89.587Z" transform="translate(-65.058 -60.455)"/>
        </g>
        <g id="Group_2678" data-name="Group 2678" transform="translate(161.21 64.12)">
          <g id="Group_2676" data-name="Group 2676" transform="translate(0 11.344)">
            <path id="Path_4606" data-name="Path 4606" class="cls-12" d="M214.38,86.39l-16.417,41.238-.37.914a6.261,6.261,0,0,1-5.813,3.919l-46.681-.3a3.447,3.447,0,0,1-3.418-3.462,3.482,3.482,0,0,1,2.939-3.4l46.18-6.837-6.184,4.812,11-43a9.891,9.891,0,0,1,19.16,4.921A7.7,7.7,0,0,1,214.38,86.39Z" transform="translate(-127.092 -72.834)"/>
            <path id="Path_4607" data-name="Path 4607" class="cls-12" d="M158.059,96.707l-15.938-.327c-3.941,0-7.142,3.614-7.142,8.1h23.275Z" transform="translate(-134.98 -45.114)"/>
          </g>
          <g id="Group_2677" data-name="Group 2677" transform="translate(61.378)">
            <path id="Path_4608" data-name="Path 4608" class="cls-14" d="M163.17,97.619l25.518,6.358,4.18-23.166a11.188,11.188,0,0,0-9.384-13.064h0a11.17,11.17,0,0,0-12.149,7.272Z" transform="translate(-163.17 -67.624)"/>
          </g>
        </g>
        <path id="Path_4609" data-name="Path 4609" class="cls-10" d="M161.378,181.393l-5.944,5.879s-6.463-1.486-10.551,0a9.233,9.233,0,0,0-5.8,5.944l-.675,1.938a1.455,1.455,0,0,0,1.415,1.938l43.067-1.045a2.442,2.442,0,0,0,2.373-2.635l-3.4-12.193-6.51,1.546a7.988,7.988,0,0,1-6.532-.675l-2.308-1.35A4.278,4.278,0,0,0,161.378,181.393Z" transform="translate(30.162 128.992)"/>
        <path id="Path_4610" data-name="Path 4610" class="cls-10" d="M132.988,177.505l-5.944,5.879s-3.924-2.169-7.074-2.169a9.081,9.081,0,0,0-5.524,2.169c-1.372.327-3.3,4.616-3.754,5.944l-.675,1.938a1.455,1.455,0,0,0,1.415,1.938l38.974-.827a2.442,2.442,0,0,0,2.373-2.635l-1-12.476-4.812,1.589a7.988,7.988,0,0,1-6.532-.675l-2.308-1.35A4.314,4.314,0,0,0,132.988,177.505Z" transform="translate(-3.262 124.41)"/>
      </g>
      <g id="Group_2683" data-name="Group 2683" transform="translate(437.114 88.137)">
        <path id="Path_4611" data-name="Path 4611" class="cls-16" d="M207.938,84.962H317.369a6.732,6.732,0,0,0,6.728-6.728V47.208a6.732,6.732,0,0,0-6.728-6.728H207.938a6.732,6.732,0,0,0-6.728,6.728V78.234A6.732,6.732,0,0,0,207.938,84.962Z" transform="translate(-201.21 -40.48)"/>
        <g id="Group_2682" data-name="Group 2682" transform="translate(13.39 9.515)">
          <path id="Path_4612" data-name="Path 4612" class="cls-6" d="M241.272,70.346h22.644a2.114,2.114,0,0,0,2.112-2.112V46.962a2.114,2.114,0,0,0-2.112-2.112H241.272a2.114,2.114,0,0,0-2.112,2.112V68.234A2.114,2.114,0,0,0,241.272,70.346Z" transform="translate(-169.922 -44.85)"/>
          <g id="Group_2681" data-name="Group 2681" transform="translate(0 1.655)">
            <path id="Path_4613" data-name="Path 4613" class="cls-6" d="M209.189,49.268h58.46a1.84,1.84,0,0,0,1.829-1.829h0a1.84,1.84,0,0,0-1.829-1.829h-58.46a1.84,1.84,0,0,0-1.829,1.829h0A1.812,1.812,0,0,0,209.189,49.268Z" transform="translate(-207.36 -45.61)"/>
            <g id="Group_2680" data-name="Group 2680" transform="translate(0 9.253)">
              <path id="Path_4614" data-name="Path 4614" class="cls-6" d="M226.659,53.518h20.4a1.84,1.84,0,0,0,1.829-1.829h0a1.84,1.84,0,0,0-1.829-1.829h-20.4a1.84,1.84,0,0,0-1.829,1.829h0A1.84,1.84,0,0,0,226.659,53.518Z" transform="translate(-186.793 -49.86)"/>
              <path id="Path_4615" data-name="Path 4615" class="cls-6" d="M209.189,53.518h24.386a1.84,1.84,0,0,0,1.829-1.829h0a1.84,1.84,0,0,0-1.829-1.829H209.189a1.84,1.84,0,0,0-1.829,1.829h0A1.826,1.826,0,0,0,209.189,53.518Z" transform="translate(-207.36 -49.86)"/>
            </g>
            <path id="Path_4616" data-name="Path 4616" class="cls-6" d="M215.909,57.768h43.829a1.84,1.84,0,0,0,1.829-1.829h0a1.84,1.84,0,0,0-1.829-1.829H215.909a1.84,1.84,0,0,0-1.829,1.829h0A1.826,1.826,0,0,0,215.909,57.768Z" transform="translate(-199.449 -35.603)"/>
          </g>
        </g>
      </g>
      <g id="Group_2684" data-name="Group 2684" transform="translate(154.196 179.692)">
        <path id="Path_4617" data-name="Path 4617" class="cls-21" d="M79.572,104.547s18.028.065,14.283-18.507C93.877,86.04,74.956,87.912,79.572,104.547Z" transform="translate(-62.35 -78.398)"/>
        <path id="Path_4618" data-name="Path 4618" class="cls-21" d="M86.25,104.2s-18.268.065-14.457-18.725C71.771,85.48,90.931,87.374,86.25,104.2Z" transform="translate(-71.27 -79.057)"/>
        <path id="Path_4619" data-name="Path 4619" class="cls-22" d="M81.375,107.743s-13.3-13.39,2.4-25.213C83.77,82.53,96.355,98.119,81.375,107.743Z" transform="translate(-65.568 -82.53)"/>
        <path id="Path_4620" data-name="Path 4620" class="cls-16" d="M101.006,93.39H71.83l4.638,20.249H96Z" transform="translate(-70.61 -69.745)"/>
      </g>
    </g>
    <line id="Line_130" data-name="Line 130" class="cls-23" y2="142.896" transform="translate(243.022 227.288)"/>
  </g>
</svg>
