<svg xmlns="http://www.w3.org/2000/svg" viewBox="0 0 13 15">
  <defs>
    <style>
      .cls-1 {
        fill: #787f95;
      }
    </style>
  </defs>
  <g id="github-big-logo" transform="translate(-47.949 0)">
    <g id="Group_1814" data-name="Group 1814" transform="translate(47.949 0)">
      <path id="Path_3536" data-name="Path 3536" class="cls-1" d="M60.841,6.29a7.941,7.941,0,0,0,.107-1.171A3.821,3.821,0,0,0,59.8,2.3,2.967,2.967,0,0,0,59.6.031c-.546-.179-1.9.461-2.639.912a10.559,10.559,0,0,0-4.709.084c-1.763-1.165-2.7-.987-2.7-.987A3.2,3.2,0,0,0,49.4,2.5,3.169,3.169,0,0,0,48.389,4.94a6.976,6.976,0,0,0,.056.874c.5,2.423,2.581,3.469,4.625,3.649a1.687,1.687,0,0,0-.728,1.1,2.555,2.555,0,0,1-1.769.131c-.847-.247-1.171-1.795-2.44-1.574-.274.047-.22.214.018.357a2.365,2.365,0,0,1,1.031,1.134,2.066,2.066,0,0,0,2.1,1.316,6.953,6.953,0,0,0,.967-.062s.011,1.2.011,1.673c0,.54-.79.692-.79.951,0,.1.262.113.472.113.415,0,1.28-.319,1.28-.881,0-.446.008-1.946.008-2.208a.828.828,0,0,1,.333-.756s.041,3.063-.08,3.473c-.142.483-.4.414-.4.629,0,.321,1.039.078,1.384-.624a17.094,17.094,0,0,0,.147-3.552l.278-.006s0,1.376-.006,2c-.01.651-.083,1.474.336,1.862.275.255,1.118.7,1.118.294,0-.237-.59-.434-.59-1.077V10.8c.358,0,.433.974.433.974l.129,1.809s-.086.66.773.936c.3.1.952.125.982-.04s-.781-.409-.789-.92c0-.311.015-.493.015-1.847s-.2-1.853-.883-2.252C58.4,9.267,60.469,8.447,60.841,6.29Z" transform="translate(-47.949 0)"/>
    </g>
  </g>
</svg>
