<svg xmlns="http://www.w3.org/2000/svg" viewBox="0 0 15 15">
  <defs>
    <style>
      .cls-1 {
        fill: #787f95;
      }
    </style>
  </defs>
  <path id="instagram" class="cls-1" d="M744.972,723.478a2.487,2.487,0,1,1,2.487,2.482,2.484,2.484,0,0,1-2.487-2.482m-1.345,0a3.832,3.832,0,1,0,3.832-3.822,3.827,3.827,0,0,0-3.832,3.822m6.92-3.974a.9.9,0,1,0,.9-.893.895.895,0,0,0-.9.893m-6.1,10.033a4.129,4.129,0,0,1-1.386-.256,2.439,2.439,0,0,1-1.417-1.413c-.444-1.135-.3-6.527-.257-7.4a3.185,3.185,0,0,1,.815-2.239c.746-.745,1.711-1.109,8.275-.813a3.2,3.2,0,0,1,2.244.813c.746.744,1.116,1.716.815,8.255a4.114,4.114,0,0,1-.257,1.382c-.675,1.731-2.229,1.972-8.833,1.669m-.062-13.459a4.134,4.134,0,0,0-4.341,4.33c-.035.754-.236,6.452.347,7.945a3.783,3.783,0,0,0,2.183,2.177,5.487,5.487,0,0,0,1.811.346c6.645.3,9.109.137,10.148-2.523a5.435,5.435,0,0,0,.347-1.807c.3-6.663-.05-8.107-1.208-9.264-.919-.917-2-1.54-9.287-1.2" transform="translate(-739.981 -715.987)"/>
</svg>
