<svg xmlns="http://www.w3.org/2000/svg" viewBox="0 0 15 15">
  <defs>
    <style>
      .cls-1 {
        fill: #787f95;
      }
    </style>
  </defs>
  <path id="skype" class="cls-1" d="M629.844,730.833a3.451,3.451,0,0,0-1.883-.269,7.139,7.139,0,0,1-7.325-5.183c-.375-1.381.049-2.6-.376-3.938a4.114,4.114,0,0,1,5.613-5.083c.274.135.445.168,1.506.168a6,6,0,0,1,1.814.168,7.2,7.2,0,0,1,4.826,3.837,6.7,6.7,0,0,1,.65,3.77,1.971,1.971,0,0,0,.1,1.245,4.119,4.119,0,0,1-4.895,5.285h-.033Zm-.924-2.592c2.947-.614,3.334-3.3,2.191-4.544-.548-.606-1.369-.942-3.32-1.413-.89-.207-2.575-.6-1.951-1.515a1.705,1.705,0,0,1,1.4-.572c2.358-.16,1.865,2.4,3.492,1.649.753-.37.684-1.582-.137-2.289-1.8-1.462-6.948-1.445-6.948,1.75,0,3.11,4.47,2.419,5.613,3.669.591.726-.041,1.9-1.916,1.818-2.132-.156-1.566-2.154-2.875-2.154-.993,0-1.335.808-.821,1.851.888,1.813,3.384,2.148,5.305,1.751h-.034Z" transform="translate(-619.997 -715.963)"/>
</svg>
