<svg xmlns="http://www.w3.org/2000/svg" viewBox="0 0 15 11.997">
  <defs>
    <style>
      .cls-1 {
        fill: #787f95;
      }
    </style>
  </defs>
  <path id="twitter" class="cls-1" d="M464.729,811.009a8.625,8.625,0,0,0,8.756-8.619c0-.131,0-.262-.009-.391a6.21,6.21,0,0,0,1.536-1.568,6.225,6.225,0,0,1-1.768.477,3.049,3.049,0,0,0,1.353-1.675,6.222,6.222,0,0,1-1.954.735,3.115,3.115,0,0,0-4.354-.131,3,3,0,0,0-.89,2.894,8.784,8.784,0,0,1-6.343-3.165,3,3,0,0,0,.953,4.044,3.092,3.092,0,0,1-1.4-.379v.038a3.043,3.043,0,0,0,2.469,2.969,3.119,3.119,0,0,1-1.39.052,3.075,3.075,0,0,0,2.875,2.1,6.239,6.239,0,0,1-3.822,1.3,6.362,6.362,0,0,1-.733-.044,8.815,8.815,0,0,0,4.717,1.358" transform="translate(-460.012 -799.012)"/>
</svg>
