<svg xmlns="http://www.w3.org/2000/svg" viewBox="0 0 15 11">
  <defs>
    <style>
      .cls-1 {
        fill: #787f95;
      }
    </style>
  </defs>
  <path id="youtube" class="cls-1" d="M714.307,719.922a1.934,1.934,0,0,0-1.165-.724,78.2,78.2,0,0,0-11.324,0,1.96,1.96,0,0,0-1,.528c-1.209,1.175-.83,7.479-.539,8.5a2.273,2.273,0,0,0,.48.971,1.911,1.911,0,0,0,1.013.552,68.21,68.21,0,0,0,11.342.037,1.933,1.933,0,0,0,1.042-.559C715.278,728.055,715.2,721.4,714.307,719.922Zm-8.327,6.6v-4.41c1.494.736,2.651,1.448,4.02,2.216C708.871,724.986,707.474,725.721,705.98,726.524Z" transform="translate(-699.988 -718.992)"/>
</svg>
