<svg xmlns="http://www.w3.org/2000/svg" xmlns:xlink="http://www.w3.org/1999/xlink" viewBox="0 0 496.894 407.294">
  <defs>
    <style>
      .cls-1 {
        fill: #bcc4db;
        opacity: 0.3;
      }

      .cls-2 {
        fill: #fff;
      }

      .cls-3 {
        fill: #cef5ed;
      }

      .cls-4 {
        fill: #787f95;
      }

      .cls-5, .cls-7 {
        fill: #3dd9a8;
      }

      .cls-5, .cls-6 {
        opacity: 0.2;
      }

      .cls-8 {
        fill: #d89f03;
      }

      .cls-9 {
        fill: url(#linear-gradient);
      }

      .cls-10 {
        fill: #ffbb80;
      }

      .cls-11 {
        fill: #f7bc18;
      }

      .cls-12 {
        fill: #303c5e;
      }

      .cls-13 {
        fill: #212b4a;
      }

      .cls-14 {
        fill: #2fba9e;
      }

      .cls-15 {
        fill: #f4ad70;
      }

      .cls-16 {
        fill: #46debf;
      }

      .cls-17 {
        fill: #e3e0d6;
      }

      .cls-18 {
        fill: #f7f5ef;
      }

      .cls-19 {
        fill: url(#linear-gradient-2);
      }
    </style>
    <linearGradient id="linear-gradient" x1="0.5" x2="0.5" y2="1" gradientUnits="objectBoundingBox">
      <stop offset="0" stop-color="#24ca6c"/>
      <stop offset="1" stop-color="#47dfc0"/>
    </linearGradient>
    <linearGradient id="linear-gradient-2" x1="0.5" x2="0.5" y2="1" gradientUnits="objectBoundingBox">
      <stop offset="0" stop-color="#ff8820"/>
      <stop offset="1" stop-color="#f1e213"/>
    </linearGradient>
  </defs>
  <g id="Group_681" data-name="Group 681" transform="translate(-14.824 0.011)">
    <path id="Path_1255" data-name="Path 1255" class="cls-1" d="M436.423,247.614H44.6L57.764,238.5H449.586Z" transform="translate(8.291 43.794)"/>
    <g id="Group_671" data-name="Group 671" transform="translate(68.664 37.523)">
      <rect id="Rectangle_270" data-name="Rectangle 270" class="cls-2" width="389.333" height="244.653" transform="translate(0 0.118)"/>
      <g id="Group_670" data-name="Group 670" transform="translate(198.046 45.806)">
        <rect id="Rectangle_271" data-name="Rectangle 271" class="cls-3" width="166.975" height="6.865" rx="3.432" transform="translate(0 45.806)"/>
        <rect id="Rectangle_272" data-name="Rectangle 272" class="cls-3" width="166.975" height="6.865" rx="3.432" transform="translate(0 68.65)"/>
        <rect id="Rectangle_273" data-name="Rectangle 273" class="cls-3" width="166.975" height="6.865" rx="3.432" transform="translate(0 91.612)"/>
        <rect id="Rectangle_274" data-name="Rectangle 274" class="cls-3" width="166.975" height="6.865" rx="3.432" transform="translate(0 22.962)"/>
        <rect id="Rectangle_275" data-name="Rectangle 275" class="cls-3" width="166.975" height="6.865" rx="3.432"/>
      </g>
      <rect id="Rectangle_276" data-name="Rectangle 276" class="cls-4" width="389.333" height="25.211"/>
      <rect id="Rectangle_277" data-name="Rectangle 277" class="cls-2" width="54.907" height="8.049" rx="4.024" transform="translate(229.473 8.522)"/>
    </g>
    <g id="Group_673" data-name="Group 673" transform="translate(68.664 37.523)">
      <path id="Path_1256" data-name="Path 1256" class="cls-5" d="M275.5,124.179s11.266,21.9,32.375,28.762l10.91,43.557,13.638-20.95-9.25-30.064s-20.4-2.841-26.564-7.457S277.635,119.8,277.635,119.8Z" transform="translate(-17.447 -15.524)"/>
      <path id="Path_1257" data-name="Path 1257" class="cls-5" d="M96.7,87.567s9.724-35.153,24.667-55.867l7.353.118L105.357,96.444Z" transform="translate(-50.687 -31.7)"/>
      <g id="Group_672" data-name="Group 672" class="cls-6" transform="translate(126.062)">
        <path id="Path_1258" data-name="Path 1258" class="cls-7" d="M181.751,73.955S174.4,48.862,164.2,31.7l13.282.237,19.686,43.2Z" transform="translate(-164.2 -31.7)"/>
      </g>
      <path id="Path_1259" data-name="Path 1259" class="cls-5" d="M245.747,140.9l-34.391,9.706L57.9,194.044l.474-38.112Z" transform="translate(-57.9 -11.649)"/>
    </g>
    <path id="Path_1260" data-name="Path 1260" class="cls-8" d="M25.7,140.731s27.157-6.865,33.8-32.431l4.862,3.906a49.836,49.836,0,0,1-26.92,33.733Z" transform="translate(4.778 19.887)"/>
    <rect id="Rectangle_278" data-name="Rectangle 278" class="cls-9" width="187.751" height="99.969" transform="translate(53.563 103.146) rotate(-10.644)"/>
    <g id="Group_675" data-name="Group 675" transform="translate(0 127.302)">
      <g id="Group_674" data-name="Group 674" transform="translate(14.824)">
        <path id="Path_1261" data-name="Path 1261" class="cls-10" d="M80.043,134.8c-.949-2.012-3.795-.947-6.167.473.237-.829.356-1.775-.237-1.775-1.3,0-2.965,4.143-2.965,4.143L70.2,141.43l3.321,1.539C75.3,140.483,81.822,138.471,80.043,134.8Z" transform="translate(-1.773 -102.787)"/>
        <path id="Path_1262" data-name="Path 1262" class="cls-11" d="M19.122,260l8.3,3.2q.356.178.356.355a.711.711,0,0,1,.119.473c0,.118,0,.118-.119.237a.652.652,0,0,1-.593.355l-14.587.592.712-4.853Z" transform="translate(-12.481 -79.56)"/>
        <path id="Path_1263" data-name="Path 1263" class="cls-8" d="M12.737,263.3l-.237,1.184,14.587-.592c.356,0,.593-.355.712-.592H12.737Z" transform="translate(-12.5 -78.954)"/>
        <path id="Path_1264" data-name="Path 1264" class="cls-12" d="M50.83,174.038S78.581,221.5,75.616,277.013l-6.641,1.3s-4.862-52.434-29.41-79.3c0,0-1.9,40.124-19.567,78.355H13s14.942-69.36,5.692-100.134L39.683,166.7Z" transform="translate(-12.407 -96.691)"/>
        <path id="Path_1265" data-name="Path 1265" class="cls-10" d="M36.387,122.111s-1.423-2.367-2.372-1.3-.119,4.024,1.779,4.734a5.765,5.765,0,0,1-1.779,2.012c-1.542,1.3-4.506.947-4.506.947s-2.135,5.918-2.609,7.457a13.416,13.416,0,0,0,5.574.237,4.433,4.433,0,0,1,4.032.947l.119-4.616a4.446,4.446,0,0,0,4.032-.592c2.016-1.539,5.692-11.244,1.66-16.807,0,0-4.269-.947-5.337,1.539-.712,1.894.237,5.208.237,5.208Z" transform="translate(-9.823 -106.193)"/>
        <path id="Path_1266" data-name="Path 1266" class="cls-12" d="M43.241,116.368s4.151-.237,2.965-4.024c-.712-2.486-6.167-5.563-10.673-4.616-3.676.71-4.625,2.722-4.625,2.722s-3.913-.355-6.048,2.6c-2.135,3.077.119,7.575-.356,11.008s-4.032,4.379-1.9,6.392,10.91,3.669,13.282,1.539c2.49-2.13.83-5.208.83-5.208s-2.016-2.012-1.66-3.551c.237-.829.949-1.42,2.253.473l1.067-.118a20.107,20.107,0,0,1,.83-4.853C40.039,116.723,43.241,116.368,43.241,116.368Z" transform="translate(-10.747 -107.552)"/>
        <path id="Path_1267" data-name="Path 1267" class="cls-11" d="M18.04,183.79s-2.965-30.182,1.9-41.308,7-11.244,16.01-10.653c9.013.473,15.891,8.167,22.3,10.3s13.756.947,22.3-4.143l2.965,5.326s-8.539,5.918-16.365,8.285c-7.827,2.249-19.686-2.722-19.686-2.722a304.275,304.275,0,0,0,2.609,31.721C50.06,180.476,31.678,188.288,18.04,183.79Z" transform="translate(-11.636 -103.129)"/>
        <path id="Path_1268" data-name="Path 1268" class="cls-8" d="M38.6,144.9l5.337,13.967c-.593-7.693-.593-12.428-.593-12.428Z" transform="translate(-7.648 -100.694)"/>
        <path id="Path_1269" data-name="Path 1269" class="cls-11" d="M66.922,260l8.3,3.2q.356.178.356.355a.711.711,0,0,1,.119.473.614.614,0,0,1-.237.473.436.436,0,0,1-.356.118l-14.349.592L60.4,261.3Z" transform="translate(-3.595 -79.56)"/>
        <path id="Path_1270" data-name="Path 1270" class="cls-8" d="M60.4,263.3l.119,1.184,14.349-.592c.356,0,.593-.355.712-.592H60.4Z" transform="translate(-3.595 -78.954)"/>
        <path id="Path_1271" data-name="Path 1271" class="cls-13" d="M32.037,224.77a221.974,221.974,0,0,0,4.151-30.064L31.8,190.8S32.512,207.844,32.037,224.77Z" transform="translate(-8.912 -92.266)"/>
      </g>
    </g>
    <g id="Group_677" data-name="Group 677" transform="translate(319.281 133.408)">
      <g id="Group_676" data-name="Group 676">
        <path id="Path_1272" data-name="Path 1272" class="cls-10" d="M281.647,122.285s1.067-6.865-.474-7.93-1.779,3.2-1.779,3.2-6.641-7.22-9.487-4.024,4.032,9.351,6.878,12.073l4.981,1.894v-5.208Z" transform="translate(-269.23 -112.71)"/>
        <path id="Path_1273" data-name="Path 1273" class="cls-10" d="M355.205,158.4l-.474,3.551s-2.253,5.918-1.186,7.22,1.9-4.024,2.49-2.6,1.3,6.273,2.728,6.983c1.423.829,5.574-5.445.83-13.73Z" transform="translate(-253.608 -104.321)"/>
        <path id="Path_1274" data-name="Path 1274" class="cls-14" d="M323.2,146.115,327.232,137s28.106-1.184,38.068,26.75l-4.981,2.13S350.12,141.972,323.2,146.115Z" transform="translate(-259.196 -108.252)"/>
        <path id="Path_1275" data-name="Path 1275" class="cls-11" d="M353.379,254.116l-1.542,13.375a.651.651,0,0,0,.356.592.626.626,0,0,0,.83-.237l8.064-15.624-5.218-2.722-4.269,1.539Z" transform="translate(-253.917 -87.594)"/>
        <path id="Path_1276" data-name="Path 1276" class="cls-8" d="M352.037,267.734a.626.626,0,0,0,.83-.237l8.064-15.624-.83-.473-8.3,16.1A.255.255,0,0,0,352.037,267.734Z" transform="translate(-253.879 -87.245)"/>
        <path id="Path_1277" data-name="Path 1277" class="cls-11" d="M313.345,268.177l-12.689,4.735a.651.651,0,0,0-.356.592.635.635,0,0,0,.593.592h17.67v-5.918l-3.321-3.077Z" transform="translate(-263.454 -84.73)"/>
        <path id="Path_1278" data-name="Path 1278" class="cls-10" d="M312.666,189.049s-15.061,59.3-.356,94.689l5.218-.118s-9.606-57.642,7-79.3c16.247-21.187,9.962.355,9.962.355s-4.744,36.929,27.394,62.14l2.253-4.616s-28.106-31.6-17.551-61.785c.593-1.539-4.862-19.411-4.862-19.411Z" transform="translate(-262.419 -100.172)"/>
        <path id="Path_1279" data-name="Path 1279" class="cls-15" d="M346.409,199.771c.356-1.184-2.49-11.481-3.914-16.571-3.558.118-7.946.237-12.452.355l-17.551,4.971a247.555,247.555,0,0,0-5.692,33.851l10.436-1.894c1.542-6.51,3.795-12.428,7.115-16.807,16.247-21.187,9.962.355,9.962.355a66.905,66.905,0,0,0,.712,16.689l9.131-4.853A42.679,42.679,0,0,1,346.409,199.771Z" transform="translate(-262.245 -99.768)"/>
        <path id="Path_1280" data-name="Path 1280" class="cls-11" d="M312.075,180.279s-5.93,15.505-13.875,34.088c0,0,41.862,15.742,59.058-11.481,0,0-6.285-20.121-11.978-29.827L324.408,170.1Z" transform="translate(-263.844 -102.173)"/>
        <path id="Path_1281" data-name="Path 1281" class="cls-10" d="M313.595,126.911s1.423-2.367,2.372-1.3.119,4.024-1.779,4.734a5.765,5.765,0,0,0,1.779,2.012c1.66,1.3,4.506.947,4.506.947s2.135,5.918,2.609,7.457a13.416,13.416,0,0,1-5.574.237,4.433,4.433,0,0,0-4.032.947l-1.3-4.5s-.83.829-2.728-.71c-2.016-1.539-5.692-11.244-1.66-16.807,0,0,4.269-.947,5.337,1.539.712,1.894-.237,5.208-.237,5.208Z" transform="translate(-262.399 -111.418)"/>
        <path id="Path_1282" data-name="Path 1282" class="cls-16" d="M336.1,139.956s-10.2-.592-19.212-.355-30.359-8.759-36.407-18.7l-4.981,3.2s8.3,17.4,37.712,25.211c0,0,4.151,29.354,3.083,40.124,0,0,25.971.355,33.324-7.22C349.619,181.974,346.3,150.964,336.1,139.956Z" transform="translate(-268.064 -111.207)"/>
        <path id="Path_1283" data-name="Path 1283" class="cls-12" d="M322.111,119.387s-.474-5.445-7.471-4.261-10.792,4.616-8.539,7.457c2.253,2.959,6.285,1.894,6.878,4.971.712,3.077-1.9,6.865.83,10.061,2.728,3.314-1.542,9.824,3.083,15.624s21.228,0,21.109-7.812c-.237-7.812-7.353-7.338-10.555-12.428C324.128,127.909,327.685,123.411,322.111,119.387Z" transform="translate(-262.496 -112.298)"/>
        <path id="Path_1284" data-name="Path 1284" class="cls-8" d="M300.3,272.155a.635.635,0,0,0,.593.592h17.67V271.8H300.419C300.419,271.918,300.3,272.037,300.3,272.155Z" transform="translate(-263.454 -83.5)"/>
        <path id="Path_1285" data-name="Path 1285" class="cls-14" d="M307.3,144.7s1.186,8.522,2.135,18.109c1.186-7.693,3.558-16.689,3.558-16.689Z" transform="translate(-262.152 -106.837)"/>
      </g>
    </g>
    <g id="Group_679" data-name="Group 679" transform="translate(178.36 183.107)">
      <path id="Path_1286" data-name="Path 1286" class="cls-17" d="M212.4,342.7v1.184l14.349.473a.664.664,0,0,0,.712-.592h0Z" transform="translate(-138.874 -120.181)"/>
      <g id="Group_678" data-name="Group 678" transform="translate(2.016)">
        <path id="Path_1287" data-name="Path 1287" class="cls-18" d="M159.453,334.326l.237,8.877c0,.237,0,.355-.119.473s-.237.237-.356.237h-.237a.6.6,0,0,1-.593-.473L152.1,330.3l4.744-1.3Z" transform="translate(-152.1 -122.696)"/>
        <path id="Path_1288" data-name="Path 1288" class="cls-17" d="M153.286,329.9l-1.186.355,6.285,13.138a.613.613,0,0,0,.83.355h0Z" transform="translate(-152.1 -122.531)"/>
        <path id="Path_1289" data-name="Path 1289" class="cls-18" d="M219.178,339.7l7.946,3.788q.356.178.356.355a.36.36,0,0,1,0,.473c0,.237-.119.355-.356.473-.119.118-.237.118-.474.118l-14.349-.473v-3.906Z" transform="translate(-140.909 -120.732)"/>
        <path id="Path_1290" data-name="Path 1290" class="cls-12" d="M202.35,261.687s29.055,36.929,27.987,95.636l-7.471.473s-6.522-55.748-29.885-72.555c0,0,5.337,45.214-34.154,66.164l-2.728-6.983s33.205-29.827,15.535-82.143L182.783,246.3Z" transform="translate(-151.356 -137.881)"/>
        <path id="Path_1291" data-name="Path 1291" class="cls-17" d="M174.5,225.593s23.837,1.3,32.731-25.093l5.574,2.131s-3.558,20.358-22.651,28.407Z" transform="translate(-147.936 -146.291)"/>
        <path id="Path_1292" data-name="Path 1292" class="cls-10" d="M182.187,210.911s-1.423-2.367-2.372-1.3-.119,4.024,1.779,4.734a5.765,5.765,0,0,1-1.779,2.012c-1.66,1.3-4.506.947-4.506.947s-2.135,5.918-2.609,7.457a13.416,13.416,0,0,0,5.574.237,4.433,4.433,0,0,1,4.032.947l.119-4.616a4.446,4.446,0,0,0,4.032-.592c2.016-1.539,5.692-11.244,1.66-16.807,0,0-4.269-.947-5.337,1.539-.712,1.894.237,5.208.237,5.208Z" transform="translate(-148.27 -145.694)"/>
        <path id="Path_1293" data-name="Path 1293" class="cls-12" d="M189.148,205.293a2.428,2.428,0,0,0,1.423-2.486c-.237-1.775-2.846-7.693-8.539-6.273-5.574,1.42-12.1,4.734-13.994,4.143s-.356,7.338.949,11.244c1.423,3.788,4.862,7.457,8.064,7.812s7.353-2.367,7.115-3.432c-.356-1.065-1.779-1.065-2.253-2.959s1.186-1.657,2.253-.355l.712-.592C184.879,212.276,182.863,203.517,189.148,205.293Z" transform="translate(-149.302 -147.059)"/>
        <path id="Path_1294" data-name="Path 1294" class="cls-18" d="M191.69,225.289s-13.757-5.208-20.16-.947c-6.285,4.261-1.779,30.419-2.253,45.806,0,0,17.2,5.208,30.834-.473,0,0-2.609-25.684-2.846-31.484,0,0,29.055.473,38.661-33.733L229.4,202.8C229.52,202.8,220.982,234.521,191.69,225.289Z" transform="translate(-149.116 -145.868)"/>
        <path id="Path_1295" data-name="Path 1295" class="cls-19" d="M196.9,204.767l8.894-50.067,41.032,5.445-7.59,50.185Z" transform="translate(-143.771 -154.7)"/>
        <path id="Path_1296" data-name="Path 1296" class="cls-10" d="M226.422,205.09s5.337-2.367,5.337-4.853-4.032,1.065-4.032,1.065l-7.471-.947-.356,3.2Z" transform="translate(-139.496 -146.501)"/>
        <path id="Path_1297" data-name="Path 1297" class="cls-10" d="M202.29,201.514s-1.9-4.5-.949-6.155c.949-1.775,2.49,3.2,2.49,3.2l6.285.829-2.253,4.261Z" transform="translate(-142.995 -147.305)"/>
        <path id="Path_1298" data-name="Path 1298" class="cls-13" d="M186.755,301.193a75.905,75.905,0,0,0,1.423-21.542L181.3,276.1S184.739,289.12,186.755,301.193Z" transform="translate(-146.672 -132.409)"/>
        <path id="Path_1299" data-name="Path 1299" class="cls-17" d="M194.508,241.806c-.356-3.906-.593-7.338-.712-9.114l-7-.592C186.919,232.1,190.713,236.834,194.508,241.806Z" transform="translate(-145.649 -140.488)"/>
      </g>
    </g>
    <g id="Group_680" data-name="Group 680" transform="translate(119.668 -0.011)">
      <path id="Path_1300" data-name="Path 1300" class="cls-10" d="M103.745,70.775s-5.692,9.232-.949,12.073,7.946-6.628,7.946-6.628l3.439-.473-2.609-3.077L107.184,69Z" transform="translate(-100.908 12.682)"/>
      <path id="Path_1301" data-name="Path 1301" class="cls-16" d="M159.868,13.441c-.949-.118,3.676-2.722,2.609-2.841-1.542-.118-27.157,9.351-27.157,9.351S116.938,27.052,103.3,81.5l7.708,1.775s8.894-31.366,25.26-47.7H172.2s-.712-2.722-1.779-5.918c17.314,10.416,29.292,37.876,29.292,37.876l7.234-1.42C190.938,17.347,159.868,13.441,159.868,13.441Z" transform="translate(-100.464 1.959)"/>
      <path id="Path_1302" data-name="Path 1302" class="cls-10" d="M125.337,14.308s-2.253,2.6.474,7.693,12.452,7.812,15.773,5.09c2.965-2.486,3.795-7.812,1.66-11.481,0,0,.119-4.143-1.66-5.8-2.372-2.249-3.558,1.539-3.558,1.539S130.2,6.615,125.337,14.308Z" transform="translate(-96.529 1.684)"/>
      <path id="Path_1303" data-name="Path 1303" class="cls-12" d="M138,1.3a10.9,10.9,0,0,0-10.436,0c-5.811,2.959-7.471,12.9-10.792,15.86s1.423,7.575,7.59,4.971c4.151-1.775,7.353-7.1,9.962-8.759a6.9,6.9,0,0,1,5.455-.473s1.423-1.539,2.728-.71S145,17.046,145,17.046s-.593,4.024,1.186,6.51,10.436,2.012,13.994-2.367c4.032-4.971,1.9-12.783-2.372-13.493-3.558-.592-6.167,1.42-8.776-1.775S141.557-2.365,138,1.3Z" transform="translate(-98.162 0.011)"/>
      <path id="Path_1304" data-name="Path 1304" class="cls-14" d="M136.081,28,131.1,32.379h11.385Z" transform="translate(-95.296 5.154)"/>
      <path id="Path_1305" data-name="Path 1305" class="cls-10" d="M184.686,59.02,183.5,61.861l2.135-.355s.356,10.061,4.744,8.877,1.66-12.783,1.66-12.783Z" transform="translate(-85.554 10.589)"/>
    </g>
    <rect id="Rectangle_279" data-name="Rectangle 279" class="cls-2" width="54.907" height="8.049" rx="4.024" transform="translate(367.275 46.045)"/>
    <g id="Group_669" data-name="Group 669" transform="translate(413.881 80.014)">
      <path id="Path_1254" data-name="Path 1254" class="cls-12" d="M441.619,255.084h5.218L388.491,67.6h-5.218l9.25,29.59H363.349L354.1,67.6H349l58.347,187.484h5.218l-7.59-24.619h29.173Zm-56.568-88.416h29.173l8.183,26.158H393.234Zm27.276-5.681H383.154l-8.183-26.158h29.173ZM394.3,102.872l8.183,26.158H373.311l-8.183-26.158Zm8.776,121.912-8.183-26.158h29.173l8.183,26.158Z" transform="translate(-349 -67.6)"/>
    </g>
  </g>
</svg>
