<svg xmlns="http://www.w3.org/2000/svg" viewBox="0 0 600 417.184">
  <defs>
    <style>
      .cls-1 {
        fill: #f6f8fe;
      }

      .cls-2 {
        fill: #303c5e;
      }

      .cls-3 {
        fill: #ffbb80;
      }

      .cls-4 {
        fill: #eac1ce;
      }

      .cls-5 {
        fill: #fdfefe;
      }

      .cls-6 {
        fill: #46debf;
      }

      .cls-7 {
        fill: #ff8820;
      }

      .cls-8 {
        fill: #202a46;
      }

      .cls-9 {
        fill: #fff;
      }

      .cls-10 {
        fill: #27234c;
      }

      .cls-11 {
        fill: #e48f9b;
      }

      .cls-12, .cls-13, .cls-14, .cls-15, .cls-16, .cls-17, .cls-18, .cls-19, .cls-20 {
        fill: none;
        stroke-miterlimit: 10;
      }

      .cls-12 {
        stroke: #0f1e51;
        stroke-width: 0.25px;
      }

      .cls-13, .cls-14, .cls-15, .cls-16, .cls-17, .cls-18, .cls-19, .cls-20 {
        stroke: #bcc4db;
      }

      .cls-14 {
        stroke-dasharray: 2.979 2.979;
      }

      .cls-15 {
        stroke-dasharray: 3.019 3.019;
      }

      .cls-16 {
        stroke-dasharray: 3.033 3.033;
      }

      .cls-17 {
        stroke-dasharray: 2.895 2.895;
      }

      .cls-18 {
        stroke-dasharray: 2.953 2.953;
      }

      .cls-19 {
        stroke-dasharray: 3.026 3.026;
      }

      .cls-20 {
        stroke-dasharray: 2.977 2.977;
      }
    </style>
  </defs>
  <g id="Group_651" data-name="Group 651" transform="translate(0.038)">
    <g id="Group_577" data-name="Group 577" transform="translate(-0.038 37.98)">
      <path id="Path_963" data-name="Path 963" class="cls-1" d="M82.555,64.353a16.585,16.585,0,0,0-7.808-.976c-2.37,2.231-6.553,2.789-9.76,3.067a46.936,46.936,0,0,0-11.293-8.226C51.045,56.824,47.838,55.429,47,52.5c-1.394-4.6-9.341-6.553-14.082-5.438-6-1.673-12.827.418-17.707,4.462-2.091,1.673.279,6,2.091,8.087s4.183,4.322,3.625,6.971C18.7,67.7,15.631,67.838,13.26,67.7c-1.534,0-2.928-.418-4.322.139a2.639,2.639,0,0,0-1.952,3.067c-.976,1.673-2.091,2.51-.976,4.183.837,1.255,2.37,2.231,2.37,3.764A2.985,2.985,0,0,1,6.289,81.5c-1.115.558-2.231.837-3.346,1.394C-.264,84.848-.264,89.449.154,93.214c2.091,2.51,2.37,6.832,1.394,9.9-.418,1.115-.976,2.37-.558,3.625.418,1.394,2.091,1.813,3.346,2.231,2.928.7,6.414,1.394,8.644-.558,6.135-5.019,15.616-2.51,23.423-.7,2.649.558,5.438,1.534,7.111,3.9,2.091,3.067,1.255,7.25-.558,10.457-1.673,3.207-4.183,6.135-5.3,9.62-.976,3.346-.7,6.832-.418,10.178.418,4.183.837,8.644,3.207,12.13a23.1,23.1,0,0,1,3.9,13.385c-.139,3.486-1.394,7.111-1.115,10.6.558,6.414,6.135,11.293,11.851,14.361a27.526,27.526,0,0,1,13.106,15.2c.976,3.207,1.394,6.692,2.231,9.9a28.448,28.448,0,0,0,9.62,14.5c3.346,2.649,8.784,3.625,13.106,4.322,2.231.418,4.6.7,6.135,2.231.7.7,1.255,1.534,2.091,2.231,3.486,3.486,10.039,2.091,13.524,5.438a25.652,25.652,0,0,1,2.37,3.067,10.955,10.955,0,0,0,9.063,3.9c-.837,2.649,2.37,5.716,1.394,8.226-.837,2.091-3.067,2.928-4.74,4.462-2.789,2.649-3.207,6.971-2.091,10.6,1.255,3.625,3.764,6.553,6.274,9.481,4.74,5.3,10.457,7.808,15.616,12.688,4.74,4.462,5.856,11.851,4.74,18.265s-3.9,12.548-5.856,18.822c-3.764,11.712-4.74,24.539-1.115,36.251s12.13,22.169,23.423,26.77c1.255.558,2.789-.418,3.764-1.394a3.164,3.164,0,0,0,.418-3.764c-2.091-3.764-5.716-6.971-8.366-10.317a6.225,6.225,0,0,1-1.673-3.625c.139-1.534,1.394-2.649,2.37-3.764a10.527,10.527,0,0,0,2.231-6.414c0-2.231-1.255-4.322-1.255-6.414.139-2.091,1.255-4.462,3.346-5.159a22.294,22.294,0,0,0,2.928-.7c2.928-1.255,2.51-5.856,4.6-8.226.976-1.115,2.51-1.673,3.764-2.37,5.716-2.788,10.457-8.226,11.015-14.5.418-5.019-1.394-11.154,2.37-14.5,3.486-3.067,8.923-.976,13.524-1.813,1.813-.279,3.067-2.091,4.043-3.764a9.437,9.437,0,0,0,.7-5.577c-.418-2.37-1.394-4.6-1.115-6.832.279-3.207,2.928-5.856,4.88-8.366a26.665,26.665,0,0,0,4.88-10.457c.976-4.322-1.813-9.481-5.716-11.572s-8.5-2.231-12.967-2.37-9.2-.418-12.827-3.067c-3.346-2.37-5.159-6.135-7.808-9.341-4.462-5.3-10.875-8.226-17.149-11.154-2.37-1.115-5.019-2.231-7.39-1.394a23.249,23.249,0,0,1-2.788,1.115c-2.788.558-5.019-2.091-7.39-3.346-5.159-2.788-12.409,1.255-12.967,6.971-2.649.976-7.529.139-9.063-2.231-1.115-1.673-1.534-4.043-3.346-4.88-.976-.418-2.231-.279-3.067-.976-1.394-1.115-.279-3.346,0-5.019.418-2.788-1.673-5.438-4.322-6.692-2.51-1.255-5.577-1.394-8.366-1.394-2.789-.139-5.856-.279-8.366-1.534-5.019-2.51-6.971-9.2-4.88-14.361,2.231-5.159,7.808-8.226,13.385-8.087,5.438.139,11.154,4.183,11.154,9.62,0,1.394,2.231,1.534,3.486.837a4.831,4.831,0,0,0,2.091-3.346,34.85,34.85,0,0,1,.7-4.043,7.8,7.8,0,0,1,7.25-5.3c3.346,0,5.716-3.346,8.087-5.577,2.37-2.37,3.764-5.856,2.788-9.063-.558-1.673-1.673-3.486-1.115-5.159.418-1.394,1.813-2.091,3.067-2.649a26.868,26.868,0,0,1,11.433-2.091c3.346.139,5.159-1.952,6.832-4.88,1.255-2.091,1.813-4.74,3.764-6.135,2.928-2.091,7.111-.279,10.736-.558,5.3-.418,9.481-6.414,7.947-11.433-.7-2.51-2.37-4.462-3.764-6.553a27.466,27.466,0,0,1-3.9-9.62c-.7-3.207-.837-6.692-2.928-9.063-3.207.139-7.25,0-10.039,1.534-.558-3.346-1.255-6.832-3.207-9.481-2.091-2.649-6-4.183-8.923-2.51-2.789,1.673-3.486,5.577-2.928,8.784s1.813,6.414,1.813,9.62c-.139,3.346-2.37,6.971-5.716,6.832-1.673,0-3.207-1.115-4.462-2.37-1.673-1.673-3.067-3.9-5.3-5.019-1.673-.837-3.625-.837-5.438-1.255a12.2,12.2,0,0,1-8.784-14.779c1.673-6.135,9.063-10.039,15.2-8.087,7.39-2.649,10.317-11.991,7.39-19.241S127.728,78.713,119.921,78.3c-2.231-.139-4.6.139-6.832-.418-6.274-1.534-9.62-8.5-15.058-11.991C94.824,63.655,86.6,65.886,82.555,64.353Z" transform="translate(0.038 -19.654)"/>
      <path id="Path_964" data-name="Path 964" class="cls-1" d="M130.456,49.492c-2.37,3.625.279,8.644,3.764,11.293s7.947,4.183,10.736,7.668c4.462,5.438,3.207,13.664.7,20.217-2.51,6.692-5.856,13.385-5.019,20.356a25.316,25.316,0,0,0,3.486,9.341c1.673,2.788,4.043,5.438,7.25,6.135,4.043.976,8.087-1.394,11.015-4.183,3.067-2.788,5.716-6.135,9.341-7.947,5.3-2.649,12.13-1.673,16.731-5.3,5.716-4.6,4.88-13.245,6.414-20.5,2.649-11.991,13.106-20.914,17.149-32.486a17.4,17.4,0,0,0,1.255-7.111c-.139-7.808-6.692-14.221-14.082-16.87-9.063-3.207-18.265-1.255-27.467-1.673-5.019-.279-10.6-2.37-15.476-.279-7.529,3.207-5.3,10.6-10.317,15.058C141.749,47.261,133.8,44.333,130.456,49.492Z" transform="translate(51.129 -27.241)"/>
      <path id="Path_965" data-name="Path 965" class="cls-1" d="M315.732,90.426c-4.322-4.183-11.433-.139-15.894,3.9s-8.923,7.947-13.385,11.991c-3.346,3.067-6.971,6.135-11.433,6.832s-9.76-2.091-9.9-6.553c3.067-2.928,9.063,1.394,11.851-1.673,2.51-2.788-1.115-6.692-4.322-8.5-5.856-3.346-11.851-6.832-18.683-7.808-6.692-.976-14.361,1.394-17.846,7.111-2.928,5.019-2.37,11.433-5.438,16.452-1.813,3.067-4.88,5.3-6.971,8.366-2.091,2.928-2.928,7.39-.418,10.039,2.091,2.091,5.577,2.091,7.668,4.183,1.534,1.673,2.091,4.322,4.183,5.159,2.37.976,5.019-1.255,5.577-3.764s-.279-5.159-.7-7.668c-1.255-7.529,2.649-16.87,10.178-17.986,1.673,0,2.37,2.51,1.534,4.043s-2.231,2.649-3.067,4.183a5.707,5.707,0,0,0,3.346,7.808c3.346.837,8.784.139,8.366,3.486-.418,3.625-7.111,1.255-9.2,4.183-1.255,1.673-.139,4.183-.139,6.274,0,4.183-4.6,6.832-8.784,7.25-4.183.279-8.366-.976-12.548-.558s-8.644,3.346-8.5,7.529a113.821,113.821,0,0,1-17.846,6.553c.279,4.462,8.784,4.88,8.784,9.481,0,2.649-3.346,4.183-6.135,3.9-2.649-.139-5.438-1.255-8.087-.558-4.6,1.255-6.135,7.529-3.625,11.572,2.51,3.9,7.668,5.577,12.409,5.159,1.813-.139,3.9-.7,5.019-2.091s1.255-3.346,1.673-5.019a11.3,11.3,0,0,1,8.226-7.947c2.231-.558,4.88-.558,6.135-2.51a18.191,18.191,0,0,1,9.2,13.8c1.673,2.091,5.3-.558,4.88-3.207s-2.649-4.462-4.462-6.414-3.346-4.88-1.952-7.111a25.808,25.808,0,0,1,17.568,18.822,4.863,4.863,0,0,0,2.928-7.25c.976-2.091,4.322-.837,5.3,1.115s.837,4.6,2.37,6.414c4.043,5.3,15.058-1.115,18.4,4.6,2.37,4.043-2.928,8.784-7.668,8.644-4.6-.139-8.923-2.788-13.524-3.207-5.159-.558-10.178,1.673-15.2,2.231-5.159.558-11.433-1.394-12.548-6.414-.279-1.394-.139-2.788-.837-4.043-.976-1.673-3.346-2.091-5.3-1.813-8.5.976-17.149,9.76-24.26,4.88-4.462,8.784-15.476,11.991-21.611,19.8-6.692,8.366-6.135,21.332.418,29.837,6.414,8.5,17.986,12.548,28.582,11.154,2.37-.279,5.019-.837,7.25.139s3.625,3.067,5.577,4.6c1.813,1.534,5.019,2.37,6.553.418a15.267,15.267,0,0,0,1.255,13.664c2.789,4.322,7.947,7.668,7.808,12.827,0,2.649-1.534,5.019-2.37,7.529-3.346,11.712,10.457,21.193,12.688,33.183.558,3.207.558,7.111,3.346,8.923a9.056,9.056,0,0,0,4.322,1.115c7.668.558,17.428-1.813,18.962-9.341a34.075,34.075,0,0,0,.139-6.553,18.455,18.455,0,0,1,10.039-15.755c1.534-.837,3.346-1.394,4.6-2.649,2.788-2.789,2.231-7.39.7-11.015-1.394-3.625-3.486-7.25-3.067-11.154.837-6.274,7.529-9.481,12.548-13.245a36.18,36.18,0,0,0,14.221-23.7C307.645,246.3,299,248.116,293.7,243.1a21.763,21.763,0,0,1-4.043-6.414c-3.346-6.971-6.553-13.8-9.9-20.774a4.448,4.448,0,0,1-.558-2.928c.976-2.51,4.88-.418,6.274,1.813A218.588,218.588,0,0,1,299.7,240.447a57.332,57.332,0,0,0,23.7-10.317c2.231-1.673,4.462-3.625,5.159-6.274s-.7-6.135-3.346-6.553a24.679,24.679,0,0,0-3.207.139c-6.414.7-11.991-4.183-16.313-9.2,2.928-3.207,8.087-1.394,12.13.418a88.757,88.757,0,0,0,22.169,6.832,15.084,15.084,0,0,1,5.577,1.534,13.663,13.663,0,0,1,3.207,2.37,66.476,66.476,0,0,1,18.683,30.255c3.346.7,5.716-3.346,6-6.832s-.139-7.39,2.37-9.76c1.952-1.952,5.159-2.091,6.832-4.322,2.091-2.649.976-7.111,3.486-9.481,3.207-2.928,8.226.7,9.9,4.6s2.231,8.784,5.856,11.154c1.952-.279,3.765-.558,5.716-.837a44.085,44.085,0,0,0,9.341,26.909c3.207-1.673,1.813-6.692-.279-9.76s-4.043-7.668-1.115-9.9c4.043,0,5.856,5.577,9.76,6.553s7.39-3.625,6.692-7.668c-.7-3.9-4.043-6.832-7.529-8.784-3.207-3.486,1.394-8.923,6-9.76s9.62.558,13.8-1.534c5.019-2.51,6.692-9.063,5.577-14.5s-4.322-10.178-6.971-15.058c-2.231-4.183-3.346-10.736.976-12.548,1.115-.558,2.51-.418,3.765-.558,16.592-.7,30.395-18.265,27.048-34.577-.7-3.067-1.812-6.135-4.043-8.366-3.9-4.043-10.6-5.019-13.664-9.76-3.625-5.856.837-13.664,6.692-17.428,5.716-3.764,12.827-5.438,18.265-9.76,1.394,0,2.231-1.394,2.51-2.928a16.8,16.8,0,0,0,0-2.649,5.989,5.989,0,0,1,4.183-5.577,5.9,5.9,0,0,1,6.553,2.51c1.673,2.649.976,6-.279,8.784s-2.928,5.577-3.207,8.5c-.279,3.067,1.394,6.553,4.462,6.971,3.764.418,6.135-4.043,6.414-7.668.279-3.764-.418-7.808,1.534-11.015,3.067-4.74,11.433-5.856,11.712-11.572.139-4.6-5.577-7.25-6.692-11.712-.418-1.813,0-3.625.139-5.577a20.935,20.935,0,0,0-7.808-18.265A21.168,21.168,0,0,0,481.788,44c-2.091.7-4.183,1.813-6.414,2.37-3.207.837-6.553.558-9.9.418-6-.418-11.851-.837-17.846-1.255-5.3-.418-11.015-.7-15.616,1.813-6.832,3.625-10.736,12.688-18.544,13.524-5.438.7-10.317-3.067-15.476-5.159a25.845,25.845,0,0,0-25.1,3.9c-2.649-1.255-1.813-5.159-2.649-7.947-.976-2.928-4.043-4.6-7.111-4.88s-6,.7-8.923,1.534c-6.274,2.091-13.385,5.438-13.943,11.991-.139,1.813.279,3.764-.558,5.438-1.115,2.37-4.043,3.207-5.856,5.019-2.231,2.231-2.51,5.577-2.649,8.784-.139,3.067-.139,6.414-1.952,9.063C327.444,91.4,317.963,92.657,315.732,90.426Z" transform="translate(69.553 -21.048)"/>
      <path id="Path_966" data-name="Path 966" class="cls-1" d="M360.042,208.893c1.394,2.091,3.764,3.346,6.135,4.322,2.788,1.255,6.274,2.091,8.784.418,1.673-1.115,7.529-9.2,7.947-10.875.837-3.346-.279-3.207-3.625-3.764C373.705,197.739,353.767,199.83,360.042,208.893Z" transform="translate(141.524 40.343)"/>
      <path id="Path_967" data-name="Path 967" class="cls-1" d="M347.335,208.208c7.668,14.082,23.563,23.284,39.6,23.145,1.115-1.115-.558-2.928-1.952-3.486-4.043-1.673-8.365-2.51-12.548-4.043-4.183-1.394-8.226-3.625-10.736-7.25a53.475,53.475,0,0,1-2.51-4.88c-2.37-4.74-11.991-16.592-17.986-13.664C342.734,201.1,345.383,204.722,347.335,208.208Z" transform="translate(134.572 39.913)"/>
      <path id="Path_968" data-name="Path 968" class="cls-1" d="M380.818,231.289c-2.091,2.37-4.043,5.159-6.971,5.856-1.812.418-3.625,0-5.438.418-5.3,1.255-6.414,8.226-5.3,13.524,1.255,5.3,3.625,10.736,1.673,15.755a7.917,7.917,0,0,0-.976,3.067,4.663,4.663,0,0,0,1.952,3.207c4.74,3.625,11.572.976,16.87-1.813s11.572-6,16.87-3.067c5.577,3.067,6.135,10.875,9.62,16.173,3.067,4.74,9.76,7.529,14.5,4.6a13.5,13.5,0,0,0,3.9-4.043c2.37-3.067,4.74-6.274,7.111-9.341,3.207-4.043,6.414-8.5,6.971-13.664,1.115-9.9-7.668-17.846-15.616-23.981-.418-3.207-.837-6.414-2.51-9.2-3.207-5.577-9.9-6.135-8.087,1.673-5.159.139-9.341-7.529-15.2-8.226C393.505,221.39,385.279,226.27,380.818,231.289Z" transform="translate(143.056 49.596)"/>
    </g>
    <g id="Group_579" data-name="Group 579" transform="translate(154.219 215.133)">
      <path id="Path_969" data-name="Path 969" class="cls-2" d="M119.148,206.1s-.279,5.3-.7,5.716a1.584,1.584,0,0,1-2.231-.279c-.418-.7,1.115-5.3,1.115-5.3Z" transform="translate(-108.413 -133.878)"/>
      <path id="Path_970" data-name="Path 970" class="cls-3" d="M127.975,172.5l1.673,10.317-1.255,20.774-1.115,15.476c-.139.7.279,1.115-.418,1.255h0a1.523,1.523,0,0,1-1.813-1.673l.418-16.313.558-15.058-3.625.279L120.725,205.4l-2.091,14.082-1.534.418.418-15.337,1.673-20.5.976-6.692,3.486-.7Z" transform="translate(-108.037 -147.125)"/>
      <path id="Path_971" data-name="Path 971" class="cls-2" d="M124.991,206.118l3.764,1.952-.279.418a3.53,3.53,0,0,1-2.37-.279l-3.207-1.394V205.7Z" transform="translate(-105.751 -134.035)"/>
      <path id="Path_972" data-name="Path 972" class="cls-2" d="M123.19,175.623l-4.74,7.39-2.649,19.1s8.226,2.649,11.851.7c3.625-2.091,3.486-3.067,3.486-3.067l-.7-16.452L126.4,172.138c-.139-1.394-.558-3.486-1.952-3.764l-.558-1.673-3.625.976h.418c-1.115.7-.279.279-.7,1.534Z" transform="translate(-108.55 -149.411)"/>
      <path id="Path_973" data-name="Path 973" class="cls-4" d="M119.4,165.458l6-.558-1.813,6.135Z" transform="translate(-107.131 -150.121)"/>
      <path id="Path_974" data-name="Path 974" class="cls-2" d="M117.5,160.738a5.438,5.438,0,1,0,5.438-5.438A5.444,5.444,0,0,0,117.5,160.738Z" transform="translate(-107.88 -153.906)"/>
      <path id="Path_975" data-name="Path 975" class="cls-2" d="M116.8,157.367a3.067,3.067,0,1,0,3.067-3.067A3.095,3.095,0,0,0,116.8,157.367Z" transform="translate(-108.156 -154.3)"/>
      <path id="Path_976" data-name="Path 976" class="cls-1" d="M124.279,164.8s9.341,8.784,9.481,8.366,4.462-7.947,4.462-7.947l1.255.7-4.183,10.039a1.593,1.593,0,0,1-2.091.837l-9.2-3.764Z" transform="translate(-105.317 -150.16)"/>
      <path id="Path_977" data-name="Path 977" class="cls-3" d="M123.1,156a4.642,4.642,0,0,1,4.6,4.6v2.928a4.6,4.6,0,0,1-9.2,0V160.6A4.642,4.642,0,0,1,123.1,156Z" transform="translate(-107.485 -153.63)"/>
      <path id="Path_978" data-name="Path 978" class="cls-2" d="M123.1,156a4.642,4.642,0,0,0-4.6,4.6v2.37a4.047,4.047,0,0,0,2.37-3.764,3.07,3.07,0,0,0-.139-1.115,4.321,4.321,0,0,0,2.37.7,4.169,4.169,0,0,0,3.207-1.534A5.077,5.077,0,0,0,123.1,156Z" transform="translate(-107.485 -153.63)"/>
      <path id="Path_979" data-name="Path 979" class="cls-1" d="M129.035,175.815l1.394-1.952a2.962,2.962,0,0,0,.139-3.207l-.837-1.534c-1.255-1.534-1.255-4.043-2.649-4.322l-9.2.837-.279.139c-.7.558-1.115,3.625-.139,6.692a23.075,23.075,0,0,0,2.789,4.322l-2.51,6.971a3.725,3.725,0,0,0,2.788,1.255c2.51.139,7.947-.139,9.62-1.255Z" transform="translate(-108.121 -150.16)"/>
      <path id="Path_980" data-name="Path 980" class="cls-5" d="M117.4,165.6" transform="translate(-107.919 -149.845)"/>
      <path id="Path_981" data-name="Path 981" class="cls-1" d="M119.371,165.6,112.4,176.754l2.51,11.851,1.952.279-.418-11.851,5.856-7.668Z" transform="translate(-109.89 -149.845)"/>
      <path id="Path_982" data-name="Path 982" class="cls-6" d="M112.552,181.6l9.341,3.346-1.673,8.923-9.62-3.625Z" transform="translate(-110.6 -143.537)"/>
      <circle id="Ellipse_52" data-name="Ellipse 52" class="cls-3" cx="1.534" cy="1.534" r="1.534" transform="translate(4.322 38.481)"/>
      <g id="Group_578" data-name="Group 578" transform="translate(30.348 10.68)">
        <rect id="Rectangle_229" data-name="Rectangle 229" class="cls-2" width="0.418" height="7.668" transform="matrix(0.638, -0.77, 0.77, 0.638, 0, 0.322)"/>
      </g>
      <circle id="Ellipse_53" data-name="Ellipse 53" class="cls-3" cx="1.534" cy="1.534" r="1.534" transform="translate(32.347 13.106)"/>
    </g>
    <g id="Group_581" data-name="Group 581" transform="translate(499.594 29.419)">
      <path id="Path_983" data-name="Path 983" class="cls-2" d="M376.2,71.5s.279,5.159.7,5.577a1.584,1.584,0,0,0,2.231-.279c.418-.7-1.115-5.159-1.115-5.159Z" transform="translate(-351.261 -1.23)"/>
      <path id="Path_984" data-name="Path 984" class="cls-2" d="M370.352,38.9,368.4,47.126l.558,21.611,2.091,15.616c.139.7-.279.976.418,1.115h0a1.546,1.546,0,0,0,1.813-1.534V53.4l1.813.139,1.394,17.428,2.928,13.664,1.534.279-.418-14.919-.139-22.866L378.02,43.5l-3.346-.7Z" transform="translate(-354.336 -14.082)"/>
      <path id="Path_985" data-name="Path 985" class="cls-2" d="M371.325,71.518,367.7,73.47l.279.418a3.53,3.53,0,0,0,2.37-.279l3.207-1.394V71.1Z" transform="translate(-354.612 -1.387)"/>
      <path id="Path_986" data-name="Path 986" class="cls-4" d="M376.856,31.958,371,31.4l1.813,5.856Z" transform="translate(-353.311 -17.039)"/>
      <path id="Path_987" data-name="Path 987" class="cls-2" d="M380,27.4a5.3,5.3,0,1,1-5.3-5.3A5.209,5.209,0,0,1,380,27.4Z" transform="translate(-353.942 -20.706)"/>
      <path id="Path_988" data-name="Path 988" class="cls-2" d="M379.356,24.028a2.928,2.928,0,1,1-2.928-2.928A2.945,2.945,0,0,1,379.356,24.028Z" transform="translate(-352.325 -21.1)"/>
      <path id="Path_989" data-name="Path 989" class="cls-6" d="M374.679,31.4s-9.063,8.5-9.2,8.226c-.139-.418-4.322-7.808-4.322-7.808l-1.255.7,4.043,9.76a1.486,1.486,0,0,0,1.952.837l8.923-3.764Z" transform="translate(-357.687 -17.039)"/>
      <path id="Path_990" data-name="Path 990" class="cls-3" d="M374.162,22.8a4.4,4.4,0,0,0-4.462,4.462V30.05a4.462,4.462,0,0,0,8.923,0V27.262A4.586,4.586,0,0,0,374.162,22.8Z" transform="translate(-353.823 -20.43)"/>
      <path id="Path_991" data-name="Path 991" class="cls-2" d="M373.767,22.8a4.4,4.4,0,0,1,4.462,4.462v2.231a3.849,3.849,0,0,1-2.37-3.625,2.067,2.067,0,0,1,.139-.976,4.213,4.213,0,0,1-2.231.7,3.7,3.7,0,0,1-3.067-1.534A3.893,3.893,0,0,1,373.767,22.8Z" transform="translate(-353.429 -20.43)"/>
      <path id="Path_992" data-name="Path 992" class="cls-6" d="M369.734,42.036l-1.394-1.952a3.029,3.029,0,0,1-.139-3.067l.837-1.534c1.115-1.534,1.255-3.9,2.51-4.183l8.923.837.279.139c.7.418,1.115,3.486.139,6.553a22.093,22.093,0,0,1-2.649,4.183l2.37,6.832a3.725,3.725,0,0,1-2.789,1.255c-2.37.139-7.668-.139-9.341-1.255Z" transform="translate(-354.555 -17.079)"/>
      <path id="Path_993" data-name="Path 993" class="cls-5" d="M377.1,32.1" transform="translate(-350.906 -16.763)"/>
      <path id="Path_994" data-name="Path 994" class="cls-6" d="M377.888,32.1l6.832,10.875-2.51,11.572-1.813.279.279-11.572L375.1,35.725Z" transform="translate(-351.694 -16.763)"/>
      <path id="Path_995" data-name="Path 995" class="cls-7" d="M384.963,47.7,375.9,50.907l1.534,8.644,9.342-3.486Z" transform="translate(-351.379 -10.613)"/>
      <circle id="Ellipse_54" data-name="Ellipse 54" class="cls-4" cx="1.534" cy="1.534" r="1.534" transform="translate(28.285 37.366)"/>
      <g id="Group_580" data-name="Group 580" transform="translate(0 10.363)">
        <rect id="Rectangle_230" data-name="Rectangle 230" class="cls-2" width="7.39" height="0.418" transform="matrix(0.77, -0.638, 0.638, 0.77, 0, 4.717)"/>
      </g>
      <circle id="Ellipse_55" data-name="Ellipse 55" class="cls-3" cx="1.534" cy="1.534" r="1.534" transform="translate(0.958 12.688)"/>
    </g>
    <g id="Group_584" data-name="Group 584" transform="translate(359.732 95.479)">
      <g id="Group_582" data-name="Group 582" transform="translate(34.717)">
        <path id="Path_996" data-name="Path 996" class="cls-8" d="M293.491,78.4,291.4,95.968l4.6-.139s2.928-3.625,2.928-4.322c0-.558,2.928-2.37,1.255-4.322C298.65,85.092,293.491,78.4,293.491,78.4Z" transform="translate(-279.549 -64.57)"/>
        <path id="Path_997" data-name="Path 997" class="cls-2" d="M298.623,75.8l-4.043.837a2.91,2.91,0,0,0-1.534,2.231L289.7,102.012l2.37.139,3.346-18.683Z" transform="translate(-280.219 -65.595)"/>
        <path id="Path_998" data-name="Path 998" class="cls-2" d="M294.076,81.4l-.976,9.2.837,17.289,1.813,14.221a1.513,1.513,0,0,0,1.115,1.115h0a1.3,1.3,0,0,0,1.534-1.394l-.418-13.943-.418-12.827,3.067.279,1.394,13.8,1.813,19.1a1.782,1.782,0,0,0,1.673,1.534h0a1.907,1.907,0,0,0,2.091-2.091l-1.534-19.1-.976-17.01-2.37-5.019-2.928-.7Z" transform="translate(-278.879 -63.387)"/>
        <path id="Path_999" data-name="Path 999" class="cls-5" d="M294.255,78.236a2.632,2.632,0,0,1,3.486-2.091c.7.139,5.577.418,5.577.418l1.534,2.789-.7,2.37.7,12.688s-5.856,1.673-7.808.837A16.161,16.161,0,0,1,293,92.318l.837-13.245Z" transform="translate(-278.918 -65.521)"/>
        <path id="Path_1000" data-name="Path 1000" class="cls-2" d="M296.643,110.818,292.6,112.77l.558.139a5.763,5.763,0,0,0,2.649-.279l2.789-1.255V110.4Z" transform="translate(-279.076 -51.953)"/>
        <path id="Path_1001" data-name="Path 1001" class="cls-2" d="M301.3,115.5a30.828,30.828,0,0,0,.7,4.043,1.378,1.378,0,0,0,1.952-.279c.418-.558-.976-4.462-.976-4.462Z" transform="translate(-275.646 -50.219)"/>
        <path id="Path_1002" data-name="Path 1002" class="cls-5" d="M295.5,75.912c0-.139.279-1.394.279-1.394a33.881,33.881,0,0,1,3.764,0c.139.279.558,4.322.558,4.322s-2.928-.139-3.067-.139a11.054,11.054,0,0,1-1.255-.558Z" transform="translate(-277.932 -66.125)"/>
        <path id="Path_1003" data-name="Path 1003" class="cls-6" d="M295.7,75.5l1.813.139-.976,1.534Z" transform="translate(-277.854 -65.713)"/>
        <path id="Path_1004" data-name="Path 1004" class="cls-6" d="M294.9,87.754l.7,1.534,1.534-1.394V76.6l-.558.139Z" transform="translate(-278.169 -65.279)"/>
        <path id="Path_1005" data-name="Path 1005" class="cls-3" d="M298.485,68.5a3.749,3.749,0,0,0-4.043,3.346l-.139,2.37a3.711,3.711,0,1,0,7.39.7l.139-2.37A3.714,3.714,0,0,0,298.485,68.5Z" transform="translate(-278.408 -68.475)"/>
        <path id="Path_1006" data-name="Path 1006" class="cls-2" d="M301.456,72.412a3.7,3.7,0,0,0-3.346-3.9,3.806,3.806,0,0,0-2.51.7,6.088,6.088,0,0,0,2.091,1.394l1.673.837A9.612,9.612,0,0,0,301.456,72.412Z" transform="translate(-277.893 -68.48)"/>
        <path id="Path_1007" data-name="Path 1007" class="cls-2" d="M300.013,71.952A4.454,4.454,0,0,0,299.6,70a1.982,1.982,0,0,0-.279.837,2.9,2.9,0,0,0,.139,1.534c.139.279.139.558.418.7a.137.137,0,0,1,.139.139Z" transform="translate(-276.451 -67.881)"/>
        <path id="Path_1008" data-name="Path 1008" class="cls-2" d="M306.847,76.3c-.976.7-22.447,16.313-22.447,16.313l.558,1.952,22.866-13.106.7-2.37Z" transform="translate(-282.309 -65.397)"/>
        <path id="Path_1009" data-name="Path 1009" class="cls-2" d="M298.4,76l.976,23.981,6.414-1.813-2.928-18.962-.418-1.673a2.883,2.883,0,0,0-1.952-1.394Z" transform="translate(-276.789 -65.516)"/>
        <path id="Path_1010" data-name="Path 1010" class="cls-3" d="M292.625,96.413a1.813,1.813,0,1,1-1.813-1.813A1.846,1.846,0,0,1,292.625,96.413Z" transform="translate(-280.495 -58.183)"/>
        <path id="Path_1011" data-name="Path 1011" class="cls-3" d="M286.525,89.313a1.813,1.813,0,1,1-1.813-1.813A1.846,1.846,0,0,1,286.525,89.313Z" transform="translate(-282.9 -60.982)"/>
      </g>
      <g id="Group_583" data-name="Group 583" transform="translate(0 1.952)">
        <path id="Path_1012" data-name="Path 1012" class="cls-9" d="M272.162,83.2l18.544,11.433.558-1.952S273.974,78.734,273,78.037L271.6,77.2H268.4l-.7,2.789a13.4,13.4,0,0,0,.976,2.789A16.834,16.834,0,0,0,272.162,83.2Z" transform="translate(-254.176 -66.995)"/>
        <path id="Path_1013" data-name="Path 1013" class="cls-9" d="M272.082,77.1l-4.043.279a7.235,7.235,0,0,0-2.51,2.231L258,89.788l8.784,9.341.837-4.043-5.856-5.3,6.692-7.25Z" transform="translate(-258 -67.034)"/>
        <path id="Path_1014" data-name="Path 1014" class="cls-2" d="M274.894,90l1.673,1.394v16.731l-1.812,14.221a1.513,1.513,0,0,1-1.115,1.115h0a1.3,1.3,0,0,1-1.534-1.394l.418-13.943.418-12.827-3.067.279-1.394,13.8-1.813,19.1A1.782,1.782,0,0,1,265,130.019h0a1.907,1.907,0,0,1-2.091-2.091l1.534-19.1.976-17.01,2.37-5.019,2.928-.7Z" transform="translate(-256.072 -63.486)"/>
        <path id="Path_1015" data-name="Path 1015" class="cls-9" d="M274.739,80.457c-.279-1.673-1.255-3.486-2.928-2.928-.7.139-5.577.418-5.577.418L264.7,80.736l.7,2.37-.7,12.688s5.856,1.673,7.808.837c1.813-.837,3.486-1.813,3.486-1.813l-.558-10.875Z" transform="translate(-255.359 -66.905)"/>
        <path id="Path_1016" data-name="Path 1016" class="cls-2" d="M271.352,112.318l4.043,1.952-.558.139a5.763,5.763,0,0,1-2.649-.279l-2.788-1.255V111.9Z" transform="translate(-253.506 -53.314)"/>
        <path id="Path_1017" data-name="Path 1017" class="cls-2" d="M265.771,116.9a30.829,30.829,0,0,1-.7,4.043,1.378,1.378,0,0,1-1.952-.279c-.418-.558.976-4.462.976-4.462Z" transform="translate(-256.012 -51.619)"/>
        <path id="Path_1018" data-name="Path 1018" class="cls-5" d="M272.1,77.312c0-.139-.279-1.394-.279-1.394a33.882,33.882,0,0,0-3.764,0c-.139.279-.558,4.322-.558,4.322s2.928-.139,3.067-.139a11.056,11.056,0,0,0,1.255-.558Z" transform="translate(-254.255 -67.525)"/>
        <path id="Path_1019" data-name="Path 1019" class="cls-7" d="M271.713,76.7l-1.813.139.976,1.534Z" transform="translate(-253.308 -67.192)"/>
        <path id="Path_1020" data-name="Path 1020" class="cls-7" d="M272.77,88.954l-.837,1.534L270.4,89.093V77.8l.558.139Z" transform="translate(-253.111 -66.758)"/>
        <path id="Path_1021" data-name="Path 1021" class="cls-3" d="M269.955,70A3.749,3.749,0,0,1,274,73.349l.139,2.37a3.711,3.711,0,1,1-7.39.7l-.139-2.37A3.566,3.566,0,0,1,269.955,70Z" transform="translate(-254.619 -69.836)"/>
        <path id="Path_1022" data-name="Path 1022" class="cls-2" d="M266.5,73.812a3.7,3.7,0,0,1,3.346-3.9,3.806,3.806,0,0,1,2.51.7A6.088,6.088,0,0,1,270.267,72l-1.673.837A5.754,5.754,0,0,1,266.5,73.812Z" transform="translate(-254.651 -69.88)"/>
        <path id="Path_1023" data-name="Path 1023" class="cls-2" d="M266.5,73.352a4.453,4.453,0,0,1,.418-1.952,2.355,2.355,0,0,1,.279.7,2.9,2.9,0,0,1-.139,1.534c-.139.279-.139.558-.418.7a.137.137,0,0,0-.139.139Z" transform="translate(-254.649 -69.281)"/>
        <circle id="Ellipse_56" data-name="Ellipse 56" class="cls-3" cx="1.813" cy="1.813" r="1.813" transform="translate(7.668 28.749)"/>
        <circle id="Ellipse_57" data-name="Ellipse 57" class="cls-3" cx="1.813" cy="1.813" r="1.813" transform="translate(34.577 24.008)"/>
      </g>
    </g>
    <g id="Group_587" data-name="Group 587" transform="translate(34.871 32.738)">
      <g id="Group_585" data-name="Group 585" transform="translate(34.717)">
        <path id="Path_1024" data-name="Path 1024" class="cls-10" d="M60.491,33.4,58.4,50.968l4.6-.139s2.928-3.625,2.928-4.322c0-.558,2.928-2.37,1.255-4.322C65.65,40.092,60.491,33.4,60.491,33.4Z" transform="translate(-46.549 -19.57)"/>
        <path id="Path_1025" data-name="Path 1025" class="cls-10" d="M65.623,30.8l-4.043.837a2.91,2.91,0,0,0-1.534,2.231L56.7,57.012l2.37.139,3.346-18.683Z" transform="translate(-47.219 -20.595)"/>
        <path id="Path_1026" data-name="Path 1026" class="cls-10" d="M61.076,36.4,60.1,45.6l.837,17.289,1.813,14.221a1.513,1.513,0,0,0,1.115,1.115h0A1.3,1.3,0,0,0,65.4,76.833L64.98,62.891l-.418-12.827,3.067.279,1.394,13.8,1.813,19.1a1.782,1.782,0,0,0,1.673,1.534h0A1.907,1.907,0,0,0,74.6,82.689L72.927,63.727l-.976-17.01L69.581,41.7,66.653,41Z" transform="translate(-45.879 -18.387)"/>
        <path id="Path_1027" data-name="Path 1027" class="cls-5" d="M61.255,33.236a2.632,2.632,0,0,1,3.486-2.091c.7.139,5.577.418,5.577.418l1.534,2.789-.7,2.37.7,12.688s-5.856,1.673-7.808.837A19.768,19.768,0,0,1,60,47.318l.837-13.245Z" transform="translate(-45.918 -20.521)"/>
        <path id="Path_1028" data-name="Path 1028" class="cls-10" d="M63.643,65.818,59.6,67.77l.558.139a5.763,5.763,0,0,0,2.649-.279L65.6,66.376V65.4Z" transform="translate(-46.076 -6.953)"/>
        <path id="Path_1029" data-name="Path 1029" class="cls-10" d="M68.3,70.5A30.832,30.832,0,0,0,69,74.54a1.378,1.378,0,0,0,1.952-.279c.418-.558-.976-4.462-.976-4.462Z" transform="translate(-42.646 -5.219)"/>
        <path id="Path_1030" data-name="Path 1030" class="cls-5" d="M62.5,30.912c0-.139.279-1.394.279-1.394a33.88,33.88,0,0,1,3.764,0c.139.279.558,4.322.558,4.322s-2.928-.139-3.067-.139a11.057,11.057,0,0,1-1.255-.558Z" transform="translate(-44.932 -21.125)"/>
        <path id="Path_1031" data-name="Path 1031" class="cls-11" d="M62.7,30.5l1.813.139-.976,1.534Z" transform="translate(-44.854 -20.713)"/>
        <path id="Path_1032" data-name="Path 1032" class="cls-11" d="M61.9,42.754l.7,1.534,1.534-1.394V31.6l-.558.139Z" transform="translate(-45.169 -20.279)"/>
        <path id="Path_1033" data-name="Path 1033" class="cls-4" d="M65.485,23.5a3.749,3.749,0,0,0-4.043,3.346l-.139,2.37a3.711,3.711,0,0,0,7.39.7l.139-2.37A3.714,3.714,0,0,0,65.485,23.5Z" transform="translate(-45.408 -23.475)"/>
        <path id="Path_1034" data-name="Path 1034" class="cls-10" d="M68.456,27.412a3.7,3.7,0,0,0-3.346-3.9,3.806,3.806,0,0,0-2.51.7A6.088,6.088,0,0,0,64.691,25.6l1.673.837A9.612,9.612,0,0,0,68.456,27.412Z" transform="translate(-44.893 -23.48)"/>
        <path id="Path_1035" data-name="Path 1035" class="cls-10" d="M67.013,26.952A4.453,4.453,0,0,0,66.6,25a2.355,2.355,0,0,0-.279.7,2.9,2.9,0,0,0,.139,1.534c.139.279.139.558.418.7a.137.137,0,0,1,.139.139Z" transform="translate(-43.451 -22.881)"/>
        <path id="Path_1036" data-name="Path 1036" class="cls-10" d="M73.847,31.3C72.871,32,51.4,47.613,51.4,47.613l.558,1.952L74.823,36.459l.7-2.37Z" transform="translate(-49.309 -20.397)"/>
        <path id="Path_1037" data-name="Path 1037" class="cls-10" d="M65.4,31l.976,23.981,6.414-1.813L69.862,34.207l-.418-1.673a2.883,2.883,0,0,0-1.952-1.394Z" transform="translate(-43.789 -20.516)"/>
        <path id="Path_1038" data-name="Path 1038" class="cls-4" d="M59.625,51.413A1.813,1.813,0,1,1,57.813,49.6,1.846,1.846,0,0,1,59.625,51.413Z" transform="translate(-47.495 -13.183)"/>
        <path id="Path_1039" data-name="Path 1039" class="cls-4" d="M53.525,44.313A1.813,1.813,0,1,1,51.713,42.5,1.846,1.846,0,0,1,53.525,44.313Z" transform="translate(-49.9 -15.982)"/>
      </g>
      <g id="Group_586" data-name="Group 586" transform="translate(0 1.952)">
        <path id="Path_1040" data-name="Path 1040" class="cls-10" d="M39.162,38.2,57.705,49.628l.558-1.952S40.974,33.734,40,33.037L38.6,32.2H35.4l-.7,2.789a13.4,13.4,0,0,0,.976,2.789A16.834,16.834,0,0,0,39.162,38.2Z" transform="translate(-21.176 -21.995)"/>
        <path id="Path_1041" data-name="Path 1041" class="cls-10" d="M39.082,32.1l-4.043.279a7.236,7.236,0,0,0-2.51,2.231L25,44.788l8.784,9.341.837-4.043-5.856-5.3,6.692-7.25Z" transform="translate(-25 -22.034)"/>
        <path id="Path_1042" data-name="Path 1042" class="cls-10" d="M41.894,45,43.567,46.4V63.129L41.755,77.351a1.513,1.513,0,0,1-1.115,1.115h0a1.3,1.3,0,0,1-1.534-1.394l.418-13.943L39.942,50.3l-3.067.279-1.394,13.8-1.813,19.1A1.782,1.782,0,0,1,32,85.019h0A1.907,1.907,0,0,1,29.9,82.928l1.534-19.1.976-17.01,2.37-5.019,2.928-.7Z" transform="translate(-23.072 -18.486)"/>
        <path id="Path_1043" data-name="Path 1043" class="cls-10" d="M41.739,35.457c-.279-1.673-1.255-3.486-2.928-2.928-.7.139-5.577.418-5.577.418L31.7,35.736l.7,2.37-.7,12.688s5.856,1.673,7.808.837c1.813-.837,3.486-1.813,3.486-1.813L42.3,38.8Z" transform="translate(-22.359 -21.905)"/>
        <path id="Path_1044" data-name="Path 1044" class="cls-10" d="M38.352,67.318,42.4,69.27l-.558.139a5.763,5.763,0,0,1-2.649-.279L36.4,67.876V66.9Z" transform="translate(-20.506 -8.314)"/>
        <path id="Path_1045" data-name="Path 1045" class="cls-10" d="M32.771,71.9a30.832,30.832,0,0,1-.7,4.043,1.378,1.378,0,0,1-1.952-.279C29.7,75.1,31.1,71.2,31.1,71.2Z" transform="translate(-23.011 -6.619)"/>
        <path id="Path_1046" data-name="Path 1046" class="cls-5" d="M39.1,32.312c0-.139-.279-1.394-.279-1.394a33.881,33.881,0,0,0-3.764,0c-.139.279-.558,2.928-.558,2.928S37.567,35.1,37.707,35.1a11.057,11.057,0,0,0,1.255-.558Z" transform="translate(-21.255 -22.525)"/>
        <path id="Path_1047" data-name="Path 1047" class="cls-11" d="M38.713,31.7l-1.813.139.976,1.534Z" transform="translate(-20.308 -22.192)"/>
        <path id="Path_1048" data-name="Path 1048" class="cls-4" d="M36.955,25A3.749,3.749,0,0,1,41,28.349l.139,2.37a3.711,3.711,0,0,1-7.39.7l-.139-2.37A3.566,3.566,0,0,1,36.955,25Z" transform="translate(-21.619 -24.836)"/>
        <path id="Path_1049" data-name="Path 1049" class="cls-10" d="M33.5,28.812a3.7,3.7,0,0,1,3.346-3.9,3.806,3.806,0,0,1,2.51.7A6.088,6.088,0,0,1,37.267,27l-1.673.837A5.755,5.755,0,0,1,33.5,28.812Z" transform="translate(-21.651 -24.88)"/>
        <path id="Path_1050" data-name="Path 1050" class="cls-10" d="M33.5,28.352a4.453,4.453,0,0,1,.418-1.952,1.982,1.982,0,0,1,.279.837,2.9,2.9,0,0,1-.139,1.534c-.139.279-.139.558-.418.7a.137.137,0,0,0-.139.139Z" transform="translate(-21.649 -24.281)"/>
        <circle id="Ellipse_58" data-name="Ellipse 58" class="cls-4" cx="1.813" cy="1.813" r="1.813" transform="translate(7.668 28.749)"/>
        <circle id="Ellipse_59" data-name="Ellipse 59" class="cls-4" cx="1.813" cy="1.813" r="1.813" transform="translate(34.577 24.008)"/>
        <path id="Path_1051" data-name="Path 1051" class="cls-5" d="M34.5,33.118,38.962,43.3,39.24,38l-.418-5.3Z" transform="translate(-21.255 -21.797)"/>
        <path id="Path_1052" data-name="Path 1052" class="cls-11" d="M39.77,43.954l-.837,1.534L37.4,44.093V32.8l.558.139Z" transform="translate(-20.111 -21.758)"/>
      </g>
    </g>
    <g id="Group_589" data-name="Group 589" transform="translate(73.632 117.954)">
      <path id="Path_1053" data-name="Path 1053" class="cls-2" d="M59.048,139.8s-.279,5.3-.7,5.716a1.584,1.584,0,0,1-2.231-.279c-.418-.7,1.115-5.3,1.115-5.3Z" transform="translate(-51.519 -62.837)"/>
      <path id="Path_1054" data-name="Path 1054" class="cls-2" d="M67.975,106.3l1.673,10.317-1.255,20.774-1.115,15.476c-.139.7.279,1.115-.418,1.255h0a1.523,1.523,0,0,1-1.813-1.673l.418-16.313.558-15.058-3.625.279L60.725,139.2l-2.091,14.082L57.1,153.7l.418-15.337,1.673-20.5.976-6.692,3.486-.7Z" transform="translate(-51.105 -76.045)"/>
      <path id="Path_1055" data-name="Path 1055" class="cls-2" d="M64.891,139.818l3.764,1.952-.279.418a3.53,3.53,0,0,1-2.37-.279L62.8,140.515V139.4Z" transform="translate(-48.857 -62.995)"/>
      <g id="Group_588" data-name="Group 588" transform="translate(5.577 7.668)">
        <path id="Path_1056" data-name="Path 1056" class="cls-2" d="M56.8,93.167A3.067,3.067,0,1,0,59.867,90.1,3.007,3.007,0,0,0,56.8,93.167Z" transform="translate(-56.8 -90.1)"/>
        <path id="Path_1057" data-name="Path 1057" class="cls-3" d="M63.449,98.694s.7,4.88.279,5.3-2.231-.837-2.37-1.115c-.139-1.255-.558-5.577-.558-5.577Z" transform="translate(-55.223 -87.261)"/>
        <path id="Path_1058" data-name="Path 1058" class="cls-3" d="M58.951,97.684c.7,2.649,3.067,4.462,5.3,3.9,2.37-.558,3.625-3.207,3.067-5.856-.7-2.649-3.067-4.462-5.3-3.9C59.648,92.386,58.254,94.9,58.951,97.684Z" transform="translate(-56.023 -89.458)"/>
        <path id="Path_1059" data-name="Path 1059" class="cls-9" d="M64.89,99.615s-.139,3.486-.418,3.207a23.985,23.985,0,0,1-2.091-2.788L58.894,104.5l1.534,8.087-2.928,4.88c6.274,5.159,12.548.279,12.548.279l-1.394-6.692a3.066,3.066,0,0,1,.279-1.952l.558-1.115a3.066,3.066,0,0,0,.279-1.952l-.558-2.928.139-4.6Z" transform="translate(-56.524 -86.788)"/>
        <path id="Path_1060" data-name="Path 1060" class="cls-2" d="M61.01,93.87c1.115-.139,2.37-.279,3.486-.418.558-.139,1.115-.139,1.534-.279A4.234,4.234,0,0,0,63.1,91.5a5.99,5.99,0,0,0-3.207,1.394c-.279.279-.7.558-.837.976a4.952,4.952,0,0,0-.558,1.255c0,1.534.139,3.486,1.394,4.6.139-.418.558-1.255.418-1.673s-.837-.7-.976-1.115a1.583,1.583,0,0,1,.418-1.115c.418-.139.837.837,1.115,1.115A10.218,10.218,0,0,0,61.01,93.87Z" transform="translate(-56.13 -89.548)"/>
        <path id="Path_1061" data-name="Path 1061" class="cls-12" d="M64.11,94.973A1.494,1.494,0,0,0,65.5,96.367c.7,0,.976-.837.837-1.673A1.494,1.494,0,0,0,64.946,93.3C64.249,93.3,63.97,94.137,64.11,94.973Z" transform="translate(-53.932 -88.838)"/>
        <path id="Path_1062" data-name="Path 1062" class="cls-12" d="M62.108,95.573A1.494,1.494,0,0,0,63.5,96.967a1.408,1.408,0,0,0,.837-1.673A1.494,1.494,0,0,0,62.944,93.9,1.408,1.408,0,0,0,62.108,95.573Z" transform="translate(-54.718 -88.602)"/>
      </g>
      <path id="Path_1063" data-name="Path 1063" class="cls-9" d="M75.739,85.8,72.114,96.257l-6.135,7.529-.279,4.88,9.2-10.457s3.067-10.317,2.788-10.736A15.89,15.89,0,0,0,75.739,85.8Z" transform="translate(-47.714 -84.127)"/>
      <path id="Path_1064" data-name="Path 1064" class="cls-9" d="M62.981,102.755l-.7-1.255-1.673,1.952-5.3,9.76L53.5,122s1.952,1.255,2.091.7a50.836,50.836,0,0,1,3.067-8.5,72.525,72.525,0,0,1,4.6-7.111Z" transform="translate(-52.524 -77.937)"/>
      <circle id="Ellipse_60" data-name="Ellipse 60" class="cls-3" cx="1.534" cy="1.534" r="1.534" transform="translate(27.746)"/>
      <circle id="Ellipse_61" data-name="Ellipse 61" class="cls-3" cx="1.534" cy="1.534" r="1.534" transform="translate(0 44.198)"/>
    </g>
    <path id="Path_1065" data-name="Path 1065" class="cls-6" d="M313.373,138.387a8.087,8.087,0,1,1-8.087-8.087A8.183,8.183,0,0,1,313.373,138.387Z" transform="translate(117.187 51.371)"/>
    <path id="Path_1066" data-name="Path 1066" class="cls-6" d="M400.973,242.787a8.087,8.087,0,1,1-8.087-8.087A8.093,8.093,0,0,1,400.973,242.787Z" transform="translate(151.723 92.531)"/>
    <path id="Path_1067" data-name="Path 1067" class="cls-6" d="M370.573,115.987a8.087,8.087,0,1,1-8.087-8.087A8.092,8.092,0,0,1,370.573,115.987Z" transform="translate(139.738 42.54)"/>
    <path id="Path_1068" data-name="Path 1068" class="cls-6" d="M178.573,60.887a8.087,8.087,0,1,1-8.087-8.087A8.092,8.092,0,0,1,178.573,60.887Z" transform="translate(64.042 20.817)"/>
    <path id="Path_1069" data-name="Path 1069" class="cls-6" d="M54.673,75.387A8.087,8.087,0,1,1,46.587,67.3,8.092,8.092,0,0,1,54.673,75.387Z" transform="translate(15.194 26.533)"/>
    <path id="Path_1070" data-name="Path 1070" class="cls-6" d="M137.273,226.787a8.087,8.087,0,1,1-8.087-8.087A8.092,8.092,0,0,1,137.273,226.787Z" transform="translate(47.759 86.223)"/>
    <path id="Path_1071" data-name="Path 1071" class="cls-6" d="M91.673,136.287a8.087,8.087,0,1,1-8.087-8.087A8.092,8.092,0,0,1,91.673,136.287Z" transform="translate(29.781 50.543)"/>
    <path id="Path_1072" data-name="Path 1072" class="cls-6" d="M223.473,180.487a8.087,8.087,0,1,1-8.087-8.087A8.092,8.092,0,0,1,223.473,180.487Z" transform="translate(81.744 67.969)"/>
    <g id="Group_591" data-name="Group 591" transform="translate(60.526 53.909)">
      <g id="Group_590" data-name="Group 590">
        <path id="Path_1073" data-name="Path 1073" class="cls-13" d="M43.4,72.673A14.765,14.765,0,0,1,44.794,71" transform="translate(-43.4 -25.917)"/>
        <path id="Path_1074" data-name="Path 1074" class="cls-14" d="M46.3,80.681A126.792,126.792,0,0,1,217.654,64.786" transform="translate(-42.257 -38.665)"/>
        <path id="Path_1075" data-name="Path 1075" class="cls-13" d="M170.3,58.379l1.673,1.255a16.41,16.41,0,0,1,1.394-1.534" transform="translate(6.631 -31.003)"/>
        <path id="Path_1076" data-name="Path 1076" class="cls-15" d="M174.6,58.339c14.221-12.967,58-37.924,53.818,158.108" transform="translate(8.326 -34.31)"/>
        <path id="Path_1077" data-name="Path 1077" class="cls-13" d="M213.2,170.9v2.091" transform="translate(23.544 13.468)"/>
      </g>
    </g>
    <g id="Group_593" data-name="Group 593" transform="translate(296.851 183.139)">
      <g id="Group_592" data-name="Group 592">
        <path id="Path_1078" data-name="Path 1078" class="cls-13" d="M303.452,136.3a10.928,10.928,0,0,0-1.952-.7" transform="translate(-177.969 -129.679)"/>
        <path id="Path_1079" data-name="Path 1079" class="cls-16" d="M331.914,135.88A96.787,96.787,0,0,0,214.1,189.419" transform="translate(-212.427 -131.353)"/>
        <path id="Path_1080" data-name="Path 1080" class="cls-13" d="M213.737,174.4c-.279.7-.558,1.255-.837,1.952" transform="translate(-212.9 -114.382)"/>
      </g>
    </g>
    <g id="Group_595" data-name="Group 595" transform="translate(423.171 154.345)">
      <g id="Group_594" data-name="Group 594">
        <path id="Path_1081" data-name="Path 1081" class="cls-13" d="M356.652,113.7a10.927,10.927,0,0,0-1.952-.7" transform="translate(-283.314 -109.795)"/>
        <path id="Path_1082" data-name="Path 1082" class="cls-17" d="M370.509,112.652A56.609,56.609,0,0,0,304.7,143.046" transform="translate(-303.027 -110.701)"/>
        <path id="Path_1083" data-name="Path 1083" class="cls-13" d="M304.337,135.3c-.279.7-.558,1.255-.837,1.952" transform="translate(-303.5 -101.003)"/>
      </g>
    </g>
    <g id="Group_597" data-name="Group 597" transform="translate(112.113 171.835)">
      <g id="Group_596" data-name="Group 596">
        <path id="Path_1084" data-name="Path 1084" class="cls-13" d="M212.676,176.213c-.279-.558-.7-1.255-.976-1.813" transform="translate(-28.635 -103.078)"/>
        <path id="Path_1085" data-name="Path 1085" class="cls-18" d="M260.349,190.943A136.3,136.3,0,0,0,83,136.985" transform="translate(-79.375 -123.246)"/>
        <path id="Path_1086" data-name="Path 1086" class="cls-13" d="M82.213,133.8c-.558.279-1.255.7-1.813.976" transform="translate(-80.4 -119.084)"/>
      </g>
    </g>
    <g id="Group_598" data-name="Group 598" transform="translate(248.053 181.108)">
      <path id="Path_1087" data-name="Path 1087" class="cls-2" d="M191.7,180.137s.418,4.183.837,4.74a1.584,1.584,0,0,0,2.231-.279c.418-.7-1.115-5.3-1.115-5.3Z" transform="translate(-172.459 -110.418)"/>
      <path id="Path_1088" data-name="Path 1088" class="cls-2" d="M183.255,145.1,182,155.975l.976,20.356,2.091,16.731a1.636,1.636,0,0,0,1.255,1.394h0a1.523,1.523,0,0,0,1.813-1.673l-.418-16.313-.558-15.058,3.625.279L192.457,178l2.091,15.616a2.112,2.112,0,0,0,2.091,1.813h0a2.343,2.343,0,0,0,2.51-2.51l-1.813-15.616.279-25.654-4.322-.139-3.486-.7Z" transform="translate(-176.284 -123.902)"/>
      <path id="Path_1089" data-name="Path 1089" class="cls-2" d="M186.14,179.618l-4.74,2.37.7.139a4.752,4.752,0,0,0,3.067-.418l3.207-1.394V179.2Z" transform="translate(-176.52 -110.458)"/>
      <path id="Path_1090" data-name="Path 1090" class="cls-2" d="M185.8,138.4l-1.673.976a6.267,6.267,0,0,0-3.207,4.322l-1.115,5.716,6.692,2.37,2.091-5.856Z" transform="translate(-177.151 -126.543)"/>
      <path id="Path_1091" data-name="Path 1091" class="cls-2" d="M206.539,167.619l-8.226-25.1a5.74,5.74,0,0,0-4.74-3.9l-2.928-.418-5.716.139-2.231,2.928L182,157.3s1.255,4.322,6.832,4.183c5.438-.279,8.784-6.135,8.784-6.135v-1.394c2.788,6,7.111,14.779,7.111,14.779Z" transform="translate(-176.284 -126.622)"/>
      <path id="Path_1092" data-name="Path 1092" class="cls-5" d="M188.3,139.234l-2.231,9.9L184.4,138.815l.7-.976,1.813-.139Z" transform="translate(-175.337 -126.819)"/>
      <path id="Path_1093" data-name="Path 1093" class="cls-3" d="M201.783,161.1A2.091,2.091,0,1,1,199.691,159,1.973,1.973,0,0,1,201.783,161.1Z" transform="translate(-170.133 -118.425)"/>
      <path id="Path_1094" data-name="Path 1094" class="cls-5" d="M184.139,138.991,184,137.318l1.952-.418,3.207.139.7,1.813-2.649,2.37s-.558-1.115-.7-1.115a17.408,17.408,0,0,0-1.673,1.115Z" transform="translate(-175.495 -127.134)"/>
      <path id="Path_1095" data-name="Path 1095" class="cls-6" d="M184.739,139.376l1.115-.976.976.837-.7,1.952,1.813,11.433-1.813,1.673L184.6,152.9l.837-11.851Z" transform="translate(-175.259 -126.543)"/>
      <path id="Path_1096" data-name="Path 1096" class="cls-7" d="M179,143.2l9.9.7,1.255,12.13-9.2-.976Z" transform="translate(-177.466 -124.651)"/>
      <path id="Path_1097" data-name="Path 1097" class="cls-3" d="M181.246,148.752a1.773,1.773,0,0,1-1.673,1.952,1.865,1.865,0,0,1-1.673-1.952,1.773,1.773,0,0,1,1.673-1.952A1.955,1.955,0,0,1,181.246,148.752Z" transform="translate(-177.9 -123.231)"/>
      <path id="Path_1098" data-name="Path 1098" class="cls-3" d="M191.662,135.339c.139,3.207-1.952,5.856-4.6,5.856-2.788.139-5.019-2.37-5.159-5.438-.139-3.207,1.952-5.856,4.6-5.856C189.152,129.762,191.522,132.132,191.662,135.339Z" transform="translate(-176.325 -129.896)"/>
      <path id="Path_1099" data-name="Path 1099" class="cls-10" d="M182.4,132.41a5.981,5.981,0,0,0,6.135.418,6.191,6.191,0,0,0,1.534-1.115A5.125,5.125,0,0,0,186.3,129.9,4.446,4.446,0,0,0,182.4,132.41Z" transform="translate(-176.126 -129.894)"/>
      <path id="Path_1100" data-name="Path 1100" class="cls-10" d="M187.533,130.7a5.724,5.724,0,0,0,.837,5.856l.837.837a4.475,4.475,0,0,0,.279-2.37A5.753,5.753,0,0,0,187.533,130.7Z" transform="translate(-174.288 -129.579)"/>
    </g>
    <g id="Group_600" data-name="Group 600" transform="translate(177.225 211.237)">
      <g id="Group_599" data-name="Group 599">
        <path id="Path_1101" data-name="Path 1101" class="cls-13" d="M127.1,225.552c.139-.7.418-1.394.558-1.952" transform="translate(-127.1 -123.082)"/>
        <path id="Path_1102" data-name="Path 1102" class="cls-19" d="M128.4,239.031a96.739,96.739,0,0,1,113.074-62.323" transform="translate(-126.587 -142.557)"/>
        <path id="Path_1103" data-name="Path 1103" class="cls-13" d="M211,176.676c.7.139,1.394.418,1.952.558a16.41,16.41,0,0,1,1.394-1.534" transform="translate(-94.022 -141.967)"/>
        <path id="Path_1104" data-name="Path 1104" class="cls-20" d="M215.6,182.311c21.332-19.8,118.233-91.881,241.624,89.79" transform="translate(-92.209 -151.505)"/>
        <path id="Path_1105" data-name="Path 1105" class="cls-13" d="M389.8,239.2a11.632,11.632,0,0,1,1.115,1.673" transform="translate(-23.53 -116.932)"/>
      </g>
    </g>
    <g id="Group_636" data-name="Group 636" transform="translate(545.028 257.379)">
      <path id="Path_1127" data-name="Path 1127" class="cls-2" d="M400.688,235.537s-.418,4.183-.837,4.74A1.584,1.584,0,0,1,397.62,240c-.418-.7,1.115-5.3,1.115-5.3Z" transform="translate(-388.279 -164.848)"/>
      <path id="Path_1128" data-name="Path 1128" class="cls-2" d="M413.237,200l1.255,11.015-.976,20.5-2.091,16.87a1.637,1.637,0,0,1-1.255,1.394h0a1.685,1.685,0,0,1-1.952-1.673l.418-16.592.558-15.2-3.625.279L403.9,233.044,401.8,248.8a2.112,2.112,0,0,1-2.091,1.813h0a2.343,2.343,0,0,1-2.51-2.51l1.813-15.755-.279-25.933,4.322-.139,3.486-.7Z" transform="translate(-388.419 -178.529)"/>
      <path id="Path_1129" data-name="Path 1129" class="cls-2" d="M407.47,235.018l4.74,2.37-.7.139a4.752,4.752,0,0,1-3.067-.418l-3.346-1.394V234.6Z" transform="translate(-385.302 -164.887)"/>
      <path id="Path_1130" data-name="Path 1130" class="cls-2" d="M408.288,193.3l1.673.976a6.821,6.821,0,0,1,3.346,4.462l1.115,5.716-6.692,2.37-2.231-6Z" transform="translate(-385.144 -181.17)"/>
      <path id="Path_1131" data-name="Path 1131" class="cls-2" d="M391.8,222.937l8.366-25.375a5.9,5.9,0,0,1,4.88-4.043l2.928-.418,5.716.139,2.37,2.928.7,16.173a6.52,6.52,0,0,1-6.832,4.183c-5.438-.279-8.923-6.274-8.923-6.274v-1.394c-2.789,6-7.111,14.918-7.111,14.918Z" transform="translate(-390.545 -181.249)"/>
      <path id="Path_1132" data-name="Path 1132" class="cls-5" d="M404.4,194.173l2.231,10.039,1.673-10.457-.7-.976-1.813-.279Z" transform="translate(-385.578 -181.485)"/>
      <path id="Path_1133" data-name="Path 1133" class="cls-3" d="M390.9,216.191a2.091,2.091,0,1,0,4.183,0,2.091,2.091,0,1,0-4.183,0Z" transform="translate(-390.9 -172.97)"/>
      <path id="Path_1134" data-name="Path 1134" class="cls-5" d="M409.156,193.931l.139-1.813L407.2,191.7l-3.207.139-.7,1.813,2.649,2.51.7-1.115a17.405,17.405,0,0,1,1.673,1.115Z" transform="translate(-386.011 -181.801)"/>
      <path id="Path_1135" data-name="Path 1135" class="cls-2" d="M407.846,194.276l-1.115-.976-.976.837.7,1.952L404.5,207.8l1.952,1.534,1.534-1.394-.837-11.991Z" transform="translate(-385.538 -181.17)"/>
      <path id="Path_1136" data-name="Path 1136" class="cls-6" d="M415.793,198.1l-9.9.837L404.5,211.206l9.341-.976Z" transform="translate(-385.538 -179.278)"/>
      <path id="Path_1137" data-name="Path 1137" class="cls-3" d="M411.3,203.752a1.693,1.693,0,1,0,1.673-1.952A1.955,1.955,0,0,0,411.3,203.752Z" transform="translate(-382.857 -177.819)"/>
      <path id="Path_1138" data-name="Path 1138" class="cls-3" d="M402.7,190.177c-.139,3.207,1.952,5.856,4.74,6s5.159-2.37,5.3-5.577-1.952-5.856-4.74-6A5.641,5.641,0,0,0,402.7,190.177Z" transform="translate(-386.25 -184.6)"/>
      <path id="Path_1139" data-name="Path 1139" class="cls-10" d="M411.368,187.21a5.686,5.686,0,0,1-6.135.418,6.192,6.192,0,0,1-1.534-1.115,5.126,5.126,0,0,1,3.765-1.813A4.722,4.722,0,0,1,411.368,187.21Z" transform="translate(-385.854 -184.561)"/>
      <path id="Path_1140" data-name="Path 1140" class="cls-10" d="M404.691,185.5a5.688,5.688,0,0,1-.837,5.856l-.837.837a6.512,6.512,0,0,1-.418-2.37A6.4,6.4,0,0,1,404.691,185.5Z" transform="translate(-386.287 -184.245)"/>
    </g>
    <g id="Group_637" data-name="Group 637" transform="translate(218.355)">
      <path id="Path_1141" data-name="Path 1141" class="cls-1" d="M203.168,4.3H159.946A3.393,3.393,0,0,0,156.6,7.646a3.393,3.393,0,0,0,3.346,3.346h43.222a3.393,3.393,0,0,0,3.346-3.346A3.393,3.393,0,0,0,203.168,4.3Z" transform="translate(-156.6 1.695)"/>
      <path id="Path_1142" data-name="Path 1142" class="cls-1" d="M215.468,0H172.246A3.393,3.393,0,0,0,168.9,3.346a3.393,3.393,0,0,0,3.346,3.346h43.222a3.393,3.393,0,0,0,3.346-3.346A3.49,3.49,0,0,0,215.468,0Z" transform="translate(-151.751)"/>
      <path id="Path_1143" data-name="Path 1143" class="cls-1" d="M224.668,8.9H181.446a3.346,3.346,0,0,0,0,6.692h43.222a3.346,3.346,0,1,0,0-6.692Z" transform="translate(-148.124 3.509)"/>
    </g>
    <g id="Group_638" data-name="Group 638" transform="translate(535.129 216.388)">
      <path id="Path_1144" data-name="Path 1144" class="cls-1" d="M403.949,164.2h35.135a2.649,2.649,0,0,0,0-5.3H403.949a2.647,2.647,0,0,0-2.649,2.649A2.564,2.564,0,0,0,403.949,164.2Z" transform="translate(-376.901 -153.741)"/>
      <path id="Path_1145" data-name="Path 1145" class="cls-1" d="M393.949,167.7h35.135a2.649,2.649,0,1,0,0-5.3H393.949a2.649,2.649,0,0,0,0,5.3Z" transform="translate(-380.843 -152.361)"/>
      <path id="Path_1146" data-name="Path 1146" class="cls-1" d="M386.449,160.5h35.135a2.649,2.649,0,1,0,0-5.3H386.449a2.649,2.649,0,1,0,0,5.3Z" transform="translate(-383.8 -155.2)"/>
    </g>
    <g id="Group_639" data-name="Group 639" transform="translate(394.17 369.198)">
      <path id="Path_1147" data-name="Path 1147" class="cls-1" d="M320.484,268.3H285.349a2.649,2.649,0,0,0,0,5.3h35.135a2.647,2.647,0,0,0,2.649-2.649A2.742,2.742,0,0,0,320.484,268.3Z" transform="translate(-282.7 -263.42)"/>
      <path id="Path_1148" data-name="Path 1148" class="cls-1" d="M330.384,264.8H295.249a2.649,2.649,0,0,0,0,5.3h35.135a2.649,2.649,0,1,0,0-5.3Z" transform="translate(-278.797 -264.8)"/>
      <path id="Path_1149" data-name="Path 1149" class="cls-1" d="M337.984,272.1H302.849a2.649,2.649,0,0,0,0,5.3h35.135a2.649,2.649,0,1,0,0-5.3Z" transform="translate(-275.801 -261.922)"/>
    </g>
    <g id="Group_640" data-name="Group 640" transform="translate(103.05 4.043)">
      <path id="Path_1150" data-name="Path 1150" class="cls-1" d="M119.184,2.9H84.049a2.649,2.649,0,1,0,0,5.3h35.135a2.647,2.647,0,0,0,2.649-2.649A2.561,2.561,0,0,0,119.184,2.9Z" transform="translate(-70.943 -2.9)"/>
      <path id="Path_1151" data-name="Path 1151" class="cls-1" d="M111.684,6.7H76.549A2.647,2.647,0,0,0,73.9,9.349,2.742,2.742,0,0,0,76.549,12h35.135a2.649,2.649,0,0,0,0-5.3Z" transform="translate(-73.9 -1.402)"/>
    </g>
    <path id="Path_1152" data-name="Path 1152" class="cls-1" d="M80.384,274.2H45.249a2.649,2.649,0,1,0,0,5.3H80.384a2.649,2.649,0,1,0,0-5.3Z" transform="translate(16.81 108.104)"/>
    <path id="Path_1153" data-name="Path 1153" class="cls-1" d="M37.188,246H12.649a2.649,2.649,0,0,0,0,5.3H37.188a2.647,2.647,0,0,0,2.649-2.649A2.564,2.564,0,0,0,37.188,246Z" transform="translate(3.958 96.986)"/>
    <path id="Path_1154" data-name="Path 1154" class="cls-1" d="M45.848,242.2h-24.4a2.649,2.649,0,1,0,0,5.3H45.988a2.647,2.647,0,0,0,2.649-2.649A2.681,2.681,0,0,0,45.848,242.2Z" transform="translate(7.427 95.488)"/>
    <path id="Path_1155" data-name="Path 1155" class="cls-1" d="M192.088,247.6H167.549a2.649,2.649,0,1,0,0,5.3h24.539a2.649,2.649,0,1,0,0-5.3Z" transform="translate(65.027 97.617)"/>
    <path id="Path_1156" data-name="Path 1156" class="cls-1" d="M188.388,251.4H163.849a2.649,2.649,0,0,0,0,5.3h24.539a2.647,2.647,0,0,0,2.649-2.649A2.742,2.742,0,0,0,188.388,251.4Z" transform="translate(63.569 99.115)"/>
  </g>
</svg>
