<svg xmlns="http://www.w3.org/2000/svg" xmlns:xlink="http://www.w3.org/1999/xlink" viewBox="0 0 90 90">
  <defs>
    <style>
      .cls-1 {
        fill: url(#linear-gradient);
      }

      .cls-2 {
        fill: #ebb10f;
      }

      .cls-3 {
        fill: #1abffe;
      }

      .cls-4 {
        fill: #00a9e9;
      }

      .cls-5 {
        fill: #303c5e;
      }

      .cls-6 {
        fill: #ff8820;
      }

      .cls-7 {
        fill: #fff;
      }

      .cls-8 {
        fill: #e87510;
      }

      .cls-9 {
        fill: #495c92;
      }

      .cls-10 {
        fill: #b6dedc;
      }

      .cls-11 {
        fill: #fbda80;
      }

      .cls-12 {
        fill: #f7bc18;
      }
    </style>
    <linearGradient id="linear-gradient" x1="0.5" x2="0.5" y2="1" gradientUnits="objectBoundingBox">
      <stop offset="0" stop-color="#f1f3f8"/>
      <stop offset="1" stop-color="#f1f3f8" stop-opacity="0"/>
    </linearGradient>
  </defs>
  <g id="_1" data-name="1" transform="translate(-836 -1819)">
    <path id="Path_653" data-name="Path 653" class="cls-1" d="M67.417,0c24.82,0,22.47,20.147,22.47,45S47.3,90,22.477,90,.007,69.853.007,45,42.6,0,67.417,0Z" transform="translate(836.053 1819)"/>
    <g id="software" transform="translate(836 1829)">
      <path id="Path_701" data-name="Path 701" class="cls-2" d="M398.212,374.249a5.333,5.333,0,0,1,0,7.543l-3.771,3.771a5.333,5.333,0,0,1-7.542-7.543l3.771-3.771A5.333,5.333,0,0,1,398.212,374.249Z" transform="translate(-321.114 -310.573)"/>
      <path id="Path_702" data-name="Path 702" class="cls-3" d="M176,0h50.667V37.333H176Z" transform="translate(-146.667)"/>
      <path id="Path_703" data-name="Path 703" class="cls-4" d="M395.857,19.041V0H379.028A30.741,30.741,0,0,1,395.857,19.041Z" transform="translate(-315.857)"/>
      <g id="Group_455" data-name="Group 455" transform="translate(0 37.333)">
        <path id="Path_704" data-name="Path 704" class="cls-5" d="M0,424H34.667v9.333H0Z" transform="translate(0 -390.667)"/>
        <path id="Path_705" data-name="Path 705" class="cls-5" d="M226.667,229.333V224H176v5.333h22.667v8H188V244h26.667v-6.667H204v-8Z" transform="translate(-146.667 -224)"/>
      </g>
      <path id="Path_706" data-name="Path 706" class="cls-6" d="M38.667,184a14.667,14.667,0,1,0,14.667,14.667A14.667,14.667,0,0,0,38.667,184Zm2,18.131a4,4,0,1,1,1.464-5.464,4,4,0,0,1-1.464,5.464Z" transform="translate(-20 -153.333)"/>
      <g id="Group_456" data-name="Group 456" transform="translate(69.333 2.667)">
        <path id="Path_707" data-name="Path 707" class="cls-5" d="M416,16h2.667v2.667H416Z" transform="translate(-416 -16)"/>
        <path id="Path_708" data-name="Path 708" class="cls-5" d="M448,16h2.667v2.667H448Z" transform="translate(-442.667 -16)"/>
      </g>
      <g id="Group_457" data-name="Group 457" transform="translate(2.667 58.667)">
        <path id="Path_709" data-name="Path 709" class="cls-5" d="M16,352h2.667v9.333H16Z" transform="translate(-16 -352)"/>
        <path id="Path_710" data-name="Path 710" class="cls-5" d="M184,352h2.667v9.333H184Z" transform="translate(-156 -352)"/>
        <path id="Path_711" data-name="Path 711" class="cls-5" d="M152,376h2.667v5.333H152Z" transform="translate(-129.333 -372)"/>
        <path id="Path_712" data-name="Path 712" class="cls-5" d="M48,376h2.667v5.333H48Z" transform="translate(-42.667 -372)"/>
        <path id="Path_713" data-name="Path 713" class="cls-5" d="M80,392h2.667v2.667H80Z" transform="translate(-69.333 -385.333)"/>
        <path id="Path_714" data-name="Path 714" class="cls-5" d="M120,392h2.667v2.667H120Z" transform="translate(-102.667 -385.333)"/>
      </g>
      <path id="Path_715" data-name="Path 715" class="cls-7" d="M274.665,43.9l-4.291-1.167a9.29,9.29,0,0,0-.759-1.821l2.214-3.866-2.081-2.081-3.865,2.215a9.283,9.283,0,0,0-1.821-.759L262.9,32.129a13.394,13.394,0,0,0-2.948,0L258.78,36.42a9.275,9.275,0,0,0-1.821.759l-3.866-2.214-2.081,2.081,2.214,3.866a9.286,9.286,0,0,0-.759,1.821L248.177,43.9a13.393,13.393,0,0,0,0,2.948l4.291,1.167a9.275,9.275,0,0,0,.759,1.821L251.013,53.7l2.081,2.081,3.865-2.215a9.283,9.283,0,0,0,1.821.759l1.166,4.291a13.39,13.39,0,0,0,2.948,0h0l1.167-4.291a9.284,9.284,0,0,0,1.821-.759l3.866,2.215,2.081-2.081-2.215-3.866a9.285,9.285,0,0,0,.759-1.821l4.291-1.167h0a13.4,13.4,0,0,0,0-2.948Zm-13.244,5.474a4,4,0,1,1,4-4A4,4,0,0,1,261.421,49.373Z" transform="translate(-206.746 -26.706)"/>
      <path id="Path_716" data-name="Path 716" class="cls-8" d="M72,224a8,8,0,1,0,8,8A8,8,0,0,0,72,224Zm2,11.464A4,4,0,1,1,75.464,230,4,4,0,0,1,74,235.464Z" transform="translate(-53.333 -186.667)"/>
      <path id="Path_717" data-name="Path 717" class="cls-9" d="M16.457,424a17.305,17.305,0,0,0,29.181,0Z" transform="translate(-13.714 -353.333)"/>
      <path id="Path_718" data-name="Path 718" class="cls-10" d="M479.293,222.13h.118v-.374C479.373,221.881,479.333,222.005,479.293,222.13Z" transform="translate(-399.411 -184.797)"/>
      <path id="Path_719" data-name="Path 719" class="cls-11" d="M393.915,378.746l3.919,3.472-3.359,3.368a5.332,5.332,0,1,1-7.547-7.533h0l2.84-2.827.933-.947a5.343,5.343,0,0,1,7.547,0Z" transform="translate(-321.142 -310.6)"/>
      <path id="Path_720" data-name="Path 720" class="cls-12" d="M398.035,394.08l-3.347,3.347a5.336,5.336,0,1,1-7.547-7.547h0l2.907-2.893Z" transform="translate(-321.316 -322.489)"/>
    </g>
  </g>
</svg>
