<svg xmlns="http://www.w3.org/2000/svg" xmlns:xlink="http://www.w3.org/1999/xlink" viewBox="0 0 90 90">
  <defs>
    <style>
      .cls-1 {
        fill: url(#linear-gradient);
      }

      .cls-2 {
        fill: #1abffe;
      }

      .cls-3 {
        fill: #303c5e;
      }

      .cls-4 {
        fill: #46debf;
      }

      .cls-5 {
        fill: #ff8820;
      }

      .cls-6 {
        fill: #f7bc18;
      }

      .cls-7 {
        fill: #e4ae19;
      }

      .cls-8 {
        fill: #e7e8ec;
      }

      .cls-9 {
        fill: #00a9e9;
      }
    </style>
    <linearGradient id="linear-gradient" x1="0.5" x2="0.5" y2="1" gradientUnits="objectBoundingBox">
      <stop offset="0" stop-color="#f1f3f8"/>
      <stop offset="1" stop-color="#f1f3f8" stop-opacity="0"/>
    </linearGradient>
  </defs>
  <g id="_1" data-name="1" transform="translate(-836 -1819)">
    <path id="Path_653" data-name="Path 653" class="cls-1" d="M67.417,0c24.82,0,22.47,20.147,22.47,45S47.3,90,22.477,90,.007,69.853.007,45,42.6,0,67.417,0Z" transform="translate(836.053 1819)"/>
    <g id="management" transform="translate(833 1826.73)">
      <path id="Path_776" data-name="Path 776" class="cls-2" d="M52.409,38.893V35.255l-2.974-1.3a13.674,13.674,0,0,0-.7-2.2l1.639-2.792a16.426,16.426,0,0,0-2.133-2.944l-3.146.712a13.571,13.571,0,0,0-1.845-1.348l-.3-3.248A16.022,16.022,0,0,0,39.53,21l-2.144,2.458H35.1L32.957,21a16.019,16.019,0,0,0-3.423,1.137l-.3,3.248a13.581,13.581,0,0,0-1.845,1.348l-3.146-.712a16.427,16.427,0,0,0-2.133,2.944l1.638,2.792a13.672,13.672,0,0,0-.7,2.2l-2.974,1.3v3.639l2.974,1.3a13.68,13.68,0,0,0,.7,2.2l-1.639,2.792a16.426,16.426,0,0,0,2.133,2.944l3.146-.712a13.578,13.578,0,0,0,1.845,1.348l.3,3.248a16.021,16.021,0,0,0,3.423,1.137L35.1,50.69h2.285l2.144,2.458a16.026,16.026,0,0,0,3.423-1.137l.3-3.248A13.59,13.59,0,0,0,45.1,47.415l3.146.712a16.428,16.428,0,0,0,2.133-2.944L48.74,42.39a13.668,13.668,0,0,0,.7-2.2ZM36.243,46.45a9.377,9.377,0,1,1,9.492-9.376,9.435,9.435,0,0,1-9.492,9.376Z" transform="translate(6.079 6.351)"/>
      <path id="Path_777" data-name="Path 777" class="cls-3" d="M11.18,30.961a3.985,3.985,0,0,0,1.032-4.417,4.086,4.086,0,0,0-7.578,0,3.985,3.985,0,0,0,1.032,4.417A4.011,4.011,0,0,0,3,34.72V44.1H13.847V34.72a4.011,4.011,0,0,0-2.667-3.759Z" transform="translate(0 7.365)"/>
      <path id="Path_778" data-name="Path 778" class="cls-4" d="M43.983,56.037H42.5a8.094,8.094,0,0,0-6.657-6.576V48H33.135v1.46a8.094,8.094,0,0,0-6.657,6.576H25v2.679h1.478a8.094,8.094,0,0,0,6.657,6.576v1.46h2.712v-1.46A8.094,8.094,0,0,0,42.5,58.716h1.478Zm-8.136,6.507V61.395H33.135v1.149a5.383,5.383,0,0,1-3.875-3.828h1.163V56.037H29.26a5.383,5.383,0,0,1,3.875-3.828v1.149h2.712V52.209a5.383,5.383,0,0,1,3.875,3.828H38.559v2.679h1.163a5.383,5.383,0,0,1-3.875,3.828Z" transform="translate(7.831 15.517)"/>
      <path id="Path_779" data-name="Path 779" class="cls-5" d="M60.491,33.716H56.424a2.679,2.679,0,1,1,0-5.358h8.136V25.679H60.491V23H57.779v2.679H56.424a5.358,5.358,0,1,0,0,10.716h4.068a2.679,2.679,0,1,1,0,5.358H52.356v2.679h5.424v2.679h2.712V44.432a5.358,5.358,0,1,0,0-10.716Z" transform="translate(17.085 7.03)"/>
      <path id="Path_780" data-name="Path 780" class="cls-6" d="M33.779,3A6.613,6.613,0,0,0,27,9.432a6.428,6.428,0,0,0,4.068,5.889v6.432h5.424V15.321a6.428,6.428,0,0,0,4.068-5.889A6.613,6.613,0,0,0,33.779,3Z" transform="translate(8.542 0.24)"/>
      <path id="Path_781" data-name="Path 781" class="cls-7" d="M30,13h5.424v5.358H30Z" transform="translate(9.61 3.635)"/>
      <g id="Group_463" data-name="Group 463" transform="translate(28.763 2.27)">
        <path id="Path_782" data-name="Path 782" class="cls-6" d="M22,7h2.712V9.679H22Z" transform="translate(-22 -0.672)"/>
        <path id="Path_783" data-name="Path 783" class="cls-6" d="M40,7h2.712V9.679H40Z" transform="translate(-15.593 -0.672)"/>
        <path id="Path_784" data-name="Path 784" class="cls-6" d="M0,0,2.7.016l.016,2.7L.016,2.7Z" transform="translate(22.49 1.917) rotate(-45)"/>
        <path id="Path_785" data-name="Path 785" class="cls-6" d="M0,0,2.7.016l.016,2.7L.016,2.7Z" transform="translate(0.795 1.917) rotate(-45)"/>
        <path id="Path_786" data-name="Path 786" class="cls-6" d="M0,0,2.7.016l.016,2.7L.016,2.7Z" transform="translate(0.795 13.025) rotate(-45)"/>
        <path id="Path_787" data-name="Path 787" class="cls-6" d="M0,0,2.7.016l.016,2.7L.016,2.7Z" transform="translate(22.49 13.025) rotate(-45)"/>
      </g>
      <path id="Path_788" data-name="Path 788" class="cls-8" d="M26.645,61.781A34.967,34.967,0,0,1,8.164,43.672L10.648,42.6A32.288,32.288,0,0,0,27.71,59.318Z" transform="translate(1.838 13.684)"/>
      <path id="Path_789" data-name="Path 789" class="cls-8" d="M42.685,61.67,41.6,59.214A32.308,32.308,0,0,0,58.419,42.6L60.9,43.672a34.993,34.993,0,0,1-18.218,18Z" transform="translate(13.739 13.684)"/>
      <path id="Path_790" data-name="Path 790" class="cls-8" d="M56.577,25.486a32.371,32.371,0,0,0-13.169-13.01l1.29-2.356a35.055,35.055,0,0,1,14.265,14.09Z" transform="translate(14.383 2.657)"/>
      <path id="Path_791" data-name="Path 791" class="cls-8" d="M11.506,25.486,9.12,24.211a35.064,35.064,0,0,1,14.264-14.09l1.29,2.356a32.36,32.36,0,0,0-13.167,13.01Z" transform="translate(2.178 2.657)"/>
      <path id="Path_792" data-name="Path 792" class="cls-9" d="M35.2,24a12.056,12.056,0,1,0,12.2,12.055A12.13,12.13,0,0,0,35.2,24Zm0,21.432a9.377,9.377,0,1,1,9.492-9.376A9.435,9.435,0,0,1,35.2,45.432Z" transform="translate(7.119 7.369)"/>
    </g>
  </g>
</svg>
