<svg xmlns="http://www.w3.org/2000/svg" viewBox="0 0 361.281 322.547">
  <defs>
    <style>
      .cls-1 {
        fill: #dcf5ff;
      }

      .cls-2 {
        fill: #1abffe;
      }

      .cls-3 {
        fill: #f6aa69;
      }

      .cls-4 {
        fill: #e6730e;
      }

      .cls-5 {
        fill: #ffbb80;
      }

      .cls-6 {
        fill: #303c5e;
      }

      .cls-7 {
        fill: #0091c8;
      }

      .cls-8 {
        fill: #31c8a9;
      }

      .cls-9 {
        fill: #2db79a;
      }

      .cls-10 {
        fill: #46debf;
      }

      .cls-11 {
        fill: #ff8820;
      }

      .cls-12 {
        fill: #f57b11;
      }

      .cls-13 {
        fill: #f6ab69;
      }

      .cls-14 {
        fill: #cd5014;
      }

      .cls-15 {
        fill: #fab9af;
      }

      .cls-16, .cls-17, .cls-34, .cls-36, .cls-37 {
        fill: none;
        stroke-miterlimit: 10;
      }

      .cls-16, .cls-34 {
        stroke: #303c5e;
      }

      .cls-16, .cls-17 {
        stroke-linecap: round;
        stroke-width: 2.203px;
      }

      .cls-17 {
        stroke: #bcc4db;
      }

      .cls-18 {
        fill: #787f95;
      }

      .cls-19 {
        fill: #fff;
      }

      .cls-20 {
        fill: #9aa1b7;
      }

      .cls-21 {
        fill: #a9aebd;
      }

      .cls-22 {
        fill: #b0b4bf;
      }

      .cls-23 {
        fill: #afb2be;
      }

      .cls-24 {
        opacity: 0.09;
      }

      .cls-25 {
        fill: #2fd1b0;
      }

      .cls-26 {
        fill: #232d4a;
      }

      .cls-27 {
        fill: #171f34;
      }

      .cls-28 {
        fill: #fa968c;
      }

      .cls-29 {
        fill: #21bf9f;
      }

      .cls-30 {
        fill: #eaebee;
      }

      .cls-31 {
        fill: #e0e6f8;
      }

      .cls-32 {
        fill: #bcc4db;
      }

      .cls-33 {
        fill: #eff3ff;
      }

      .cls-34 {
        stroke-width: 1.159px;
      }

      .cls-35 {
        fill: #86f1db;
      }

      .cls-36 {
        stroke: #c8e6eb;
        stroke-width: 1.273px;
      }

      .cls-37 {
        stroke: #87afb9;
        stroke-width: 2.546px;
      }

      .cls-38 {
        fill: #dfad81;
      }

      .cls-39 {
        fill: #cf9969;
      }

      .cls-40 {
        fill: #f6c090;
      }

      .cls-41 {
        fill: #eeaf77;
      }

      .cls-42 {
        fill: #b2e9ff;
      }

      .cls-43 {
        fill: #88dbfc;
      }
    </style>
  </defs>
  <g id="Group_668" data-name="Group 668" transform="translate(0.181 0.022)">
    <g id="Group_652" data-name="Group 652" transform="translate(62.221 -0.022)">
      <path id="Path_1164" data-name="Path 1164" class="cls-1" d="M158.347.006,52.276,15.654a4.04,4.04,0,0,0-3.463,4.617l6.669,45.147A4.04,4.04,0,0,0,60.1,68.881L166.17,53.234a4.04,4.04,0,0,0,3.463-4.617L162.964,3.6A4.088,4.088,0,0,0,158.347.006Z" transform="translate(-48.754 0.022)"/>
      <rect id="Rectangle_231" data-name="Rectangle 231" class="cls-2" width="26.421" height="31.167" transform="matrix(0.989, -0.146, 0.146, 0.989, 8.951, 25.724)"/>
      <rect id="Rectangle_232" data-name="Rectangle 232" class="cls-2" width="34.887" height="2.95" transform="matrix(0.989, -0.146, 0.146, 0.989, 44.01, 20.537)"/>
      <rect id="Rectangle_233" data-name="Rectangle 233" class="cls-2" width="53.356" height="2.95" transform="matrix(0.989, -0.146, 0.146, 0.989, 45.394, 29.704)"/>
      <rect id="Rectangle_234" data-name="Rectangle 234" class="cls-2" width="53.356" height="2.95" transform="matrix(0.989, -0.146, 0.146, 0.989, 46.69, 38.947)"/>
      <rect id="Rectangle_235" data-name="Rectangle 235" class="cls-2" width="53.356" height="2.95" transform="matrix(0.989, -0.146, 0.146, 0.989, 48.094, 48.044)"/>
    </g>
    <g id="Group_657" data-name="Group 657" transform="translate(1.1 10.652)">
      <path id="Path_1165" data-name="Path 1165" class="cls-3" d="M63.562,52.191c.77.513,1.026.77,2.309-.513C72.668,44.624,77.8,15,77.542,16.279a1.623,1.623,0,0,1,3.206.385C78.312,79.9,54.968,65.915,43.81,40.52A5.613,5.613,0,1,1,54.2,36.287C55.866,40.9,60.1,49.754,63.562,52.191Z" transform="translate(10.829 -6.403)"/>
      <path id="Path_1166" data-name="Path 1166" class="cls-4" d="M60.86,44.207h0c-1.283-1.924-2.565-3.976-3.591-5.9a51.909,51.909,0,0,1-2.95-6.028v-.128c0-.128-.128-.257-.257-.385a5.681,5.681,0,1,0-10,5.387,70.841,70.841,0,0,0,4.233,6.926c1.026,1.411,2.052,2.95,3.206,4.361C52.138,47.286,58.807,44.977,60.86,44.207Z" transform="translate(10.838 -2.523)"/>
      <path id="Path_1167" data-name="Path 1167" class="cls-5" d="M60.1,83.623c-4.874,5.643-33.347,7.952-33.347,7.952-2.052-2.437,1.026-13.467,1.8-24.754.77-12.185,1.283-25.524,1.411-32.834A5.619,5.619,0,0,1,35.475,28.6H53.559a5.215,5.215,0,0,1,5.259,4.874C59.331,39.246,60.1,49.122,60.87,59,61.768,69,64.461,78.749,60.1,83.623Z" transform="translate(5.953 -2.563)"/>
      <path id="Path_1168" data-name="Path 1168" class="cls-5" d="M40.13,146.683v11.159L39.1,163.228a1.55,1.55,0,0,0,1.539,1.8c4.617.128,16.289.513,16.545,0,1.411-2.437-5.13-3.335-10-5.13-4.874-1.924-1.539-20.393-1.539-20.393Z" transform="translate(9.635 28.776)"/>
      <path id="Path_1169" data-name="Path 1169" class="cls-6" d="M47.184,155.413h0a13.58,13.58,0,0,1-3.976.641,9.83,9.83,0,0,1-3.463-.513l-.641,3.206a1.55,1.55,0,0,0,1.539,1.8c4.617.128,16.289.513,16.545,0C58.727,158.106,52.058,157.208,47.184,155.413Z" transform="translate(9.635 33.257)"/>
      <path id="Path_1170" data-name="Path 1170" class="cls-7" d="M57.4,77.624c.128,7.824-2.822,57.075-8.85,57.2S35.729,85.961,35.6,78.137c-.128-7.7,4.617-14.109,10.646-14.237S57.276,69.929,57.4,77.624Z" transform="translate(8.649 7.412)"/>
      <path id="Path_1171" data-name="Path 1171" class="cls-8" d="M40.218,124.6c-.641,4.233-.641,31.68.257,45.532H45.99c2.95-13.467,6.156-39.632,6.669-43.865v-.128C55.994,111.641,57.533,83.3,57.4,77.652c-.128-7.824-5.259-13.98-11.287-13.852-5.9.257-10.646,6.669-10.517,14.365C35.729,83.039,40.474,122.672,40.218,124.6Z" transform="translate(8.649 7.384)"/>
      <path id="Path_1172" data-name="Path 1172" class="cls-9" d="M50.094,89.937a36.768,36.768,0,0,1,7.183-6.926l.128-.128c.128-2.309.128-4.1.128-5.13C57.4,69.929,52.274,63.772,46.246,63.9S35.472,70.442,35.6,78.137c0,2.565,1.411,14.237,2.565,25.267A106.757,106.757,0,0,1,50.094,89.937Z" transform="translate(8.649 7.412)"/>
      <path id="Path_1173" data-name="Path 1173" class="cls-5" d="M29.83,146.683v11.159L28.8,163.228a1.55,1.55,0,0,0,1.539,1.8c4.617.128,16.289.513,16.545,0,1.411-2.437-5.13-3.335-10-5.13S35.345,139.5,35.345,139.5Z" transform="translate(6.724 28.776)"/>
      <path id="Path_1174" data-name="Path 1174" class="cls-6" d="M36.884,155.413h0a13.58,13.58,0,0,1-3.976.641,9.83,9.83,0,0,1-3.463-.513l-.641,3.206a1.55,1.55,0,0,0,1.539,1.8c4.617.128,16.289.513,16.545,0C48.427,158.106,41.758,157.208,36.884,155.413Z" transform="translate(6.724 33.257)"/>
      <path id="Path_1175" data-name="Path 1175" class="cls-7" d="M46.922,77.624c.128,7.824-2.822,57.075-8.85,57.2S26.657,85.7,26.4,78.009c-.128-7.824,3.206-13.98,9.363-14.109C41.664,63.772,46.666,69.929,46.922,77.624Z" transform="translate(6.049 7.412)"/>
      <path id="Path_1176" data-name="Path 1176" class="cls-10" d="M29.664,124.6c-.641,4.233-.641,31.68.257,45.532h5.515c2.95-13.467,6.156-39.632,6.669-43.865v-.128c3.335-14.493,6.156-42.967,6.028-48.739C48,69.572,41.592,63.672,35.564,63.8S26.073,70.213,26.2,77.909C26.457,82.911,29.92,122.672,29.664,124.6Z" transform="translate(5.992 7.384)"/>
      <path id="Path_1177" data-name="Path 1177" class="cls-11" d="M53.675,28.7h-2.95a6.914,6.914,0,0,1-6.541,4.233A6.733,6.733,0,0,1,37.643,28.7H34.949a4.983,4.983,0,0,0-5,4.874c-.128,7.183-.641,20.906-1.411,33.219-.77,11.287-3.848,21.676-1.667,24.754,0,0,28.474-2.309,33.347-7.952,4.233-4.874,1.667-14.622.77-24.5-.77-9.876-1.667-19.88-2.18-25.652A5.075,5.075,0,0,0,53.675,28.7Z" transform="translate(5.965 -2.535)"/>
      <path id="Path_1178" data-name="Path 1178" class="cls-3" d="M75.217,15.354s.128,3.976-1.154,4.746-2.309,1.026-3.463-.9a15.566,15.566,0,0,1-1.8-7.054,4.43,4.43,0,0,1,.257-2.18A3.157,3.157,0,0,1,71.626,8.3c1.154.128,1.539,1.026.385,1.283-.513.128-.513.77-.513,1.411-.128,1.8,0,3.72.9,3.463S74.7,10.224,75.6,10.609C76.757,10.993,75.217,15.354,75.217,15.354Z" transform="translate(18.027 -8.3)"/>
      <path id="Path_1179" data-name="Path 1179" class="cls-5" d="M37.645,31.093c.257.385.77.9,1.154,1.411s.9,1.026,1.283,1.539C52.267,47.51,69.2,56.873,87.41,55.206a64.3,64.3,0,0,0,8.465-1.283H96A1.638,1.638,0,0,1,97.029,57C70.993,68.93,42.647,55.975,28.667,38.019a5.67,5.67,0,1,1,8.978-6.926Z" transform="translate(6.348 -2.491)"/>
      <g id="Group_653" data-name="Group 653" transform="translate(33.538 26.113)">
        <path id="Path_1180" data-name="Path 1180" class="cls-12" d="M46.3,39.87a110.745,110.745,0,0,1-8.978-9.748s-2.309-2.693-7.054-.77c-3.72,1.539-2.95,6.028-2.95,6.028.128.641,2.309,6.926,11.03,13.467C38.473,48.848,46.938,40.383,46.3,39.87Z" transform="translate(-27.249 -28.66)"/>
      </g>
      <path id="Path_1181" data-name="Path 1181" class="cls-6" d="M41.267,26.143l-.385.128a4.726,4.726,0,0,1-5.643-3.591L33.7,15.754l5-1.154Z" transform="translate(8.113 -6.52)"/>
      <g id="Group_654" data-name="Group 654" transform="translate(44.506 16.802)">
        <path id="Path_1182" data-name="Path 1182" class="cls-5" d="M45.163,30.763H35.8L38.493,21.4l6.413.77Z" transform="translate(-35.8 -21.4)"/>
      </g>
      <path id="Path_1183" data-name="Path 1183" class="cls-13" d="M44.6,22.17l-6.413-.77L36.9,25.761c1.411,1.667,3.591,4.1,5.9,4.1a3.876,3.876,0,0,0,2.052-.641Z" transform="translate(9.017 -4.598)"/>
      <path id="Path_1184" data-name="Path 1184" class="cls-5" d="M46.187,29.743h0a7.82,7.82,0,0,1-9.363-5.9L34.9,15.25,47.982,12.3a63.345,63.345,0,0,1,1.539,11.415C49.522,27.178,48.239,29.23,46.187,29.743Z" transform="translate(8.452 -7.17)"/>
      <rect id="Rectangle_236" data-name="Rectangle 236" class="cls-14" width="2.565" height="1.154" transform="matrix(0.976, -0.217, 0.217, 0.976, 43.378, 11.441)"/>
      <path id="Path_1185" data-name="Path 1185" class="cls-5" d="M38.723,20.173c.385,1.667-.128,3.206-1.154,3.463S35,21.969,34.618,20.3a2.085,2.085,0,0,1,1.539-2.693C37.312,17.351,38.338,18.506,38.723,20.173Z" transform="translate(8.349 -5.68)"/>
      <path id="Path_1186" data-name="Path 1186" class="cls-6" d="M50.119,16.323a7.3,7.3,0,0,0-.513-3.335h0a5.272,5.272,0,0,0-6.669-2.822,8.174,8.174,0,0,1-.9.257L37.55,11.449a4.875,4.875,0,0,0-3.72,5.9l.257,1.026,2.693,1.539,1.026,1.924h.128a1.57,1.57,0,0,0,1.283-1.8,2.638,2.638,0,0,1,1.8-3.078l3.976-.9c2.437-.513,3.976.513,4.361,2.309l.257,1.539Z" transform="translate(8.111 -7.858)"/>
      <path id="Path_1187" data-name="Path 1187" class="cls-15" d="M85.473,47.591s-4.746.385-5.13,1.8c-.385,1.539-.385,2.565,1.8,3.206a15.64,15.64,0,0,0,7.311,0,14.65,14.65,0,0,0,5-3.078c.513-1.539-2.822-.385-4.489.128s-3.591.9-3.591,0,3.206-1.667,3.591-2.565C90.09,46.052,85.473,47.591,85.473,47.591Z" transform="translate(21.239 2.559)"/>
      <g id="Group_655" data-name="Group 655" transform="translate(0 59.128)">
        <line id="Line_25" data-name="Line 25" class="cls-16" x1="45.532" y2="248.823"/>
        <line id="Line_26" data-name="Line 26" class="cls-16" y1="248.823" x2="45.532" transform="translate(53.997)"/>
        <line id="Line_27" data-name="Line 27" class="cls-16" x1="52.715" transform="translate(42.454 16.032)"/>
        <line id="Line_28" data-name="Line 28" class="cls-16" x1="53.484" transform="translate(38.221 40.145)"/>
        <line id="Line_29" data-name="Line 29" class="cls-16" x1="52.971" transform="translate(33.86 64.386)"/>
        <line id="Line_30" data-name="Line 30" class="cls-16" x1="52.586" transform="translate(29.5 88.499)"/>
        <line id="Line_31" data-name="Line 31" class="cls-16" x1="53.228" transform="translate(25.139 112.612)"/>
        <line id="Line_32" data-name="Line 32" class="cls-16" x1="53.997" transform="translate(20.778 136.34)"/>
        <line id="Line_33" data-name="Line 33" class="cls-16" x1="53.228" transform="translate(16.289 160.966)"/>
        <line id="Line_34" data-name="Line 34" class="cls-16" x1="53.228" transform="translate(12.569 185.078)"/>
        <line id="Line_35" data-name="Line 35" class="cls-16" x1="53.356" transform="translate(7.183 209.063)"/>
      </g>
      <g id="Group_656" data-name="Group 656" transform="translate(45.532 59.128)">
        <line id="Line_36" data-name="Line 36" class="cls-17" x2="45.147" y2="249.465" transform="translate(53.997)"/>
        <line id="Line_37" data-name="Line 37" class="cls-17" x1="45.276" y1="249.465"/>
        <line id="Line_38" data-name="Line 38" class="cls-17" x2="52.586" transform="translate(4.361 16.032)"/>
        <line id="Line_39" data-name="Line 39" class="cls-17" x2="53.484" transform="translate(7.824 40.145)"/>
        <line id="Line_40" data-name="Line 40" class="cls-17" x2="52.971" transform="translate(12.698 64.386)"/>
        <line id="Line_41" data-name="Line 41" class="cls-17" x2="52.715" transform="translate(17.443 88.499)"/>
        <line id="Line_42" data-name="Line 42" class="cls-17" x2="53.228" transform="translate(21.291 112.612)"/>
        <line id="Line_43" data-name="Line 43" class="cls-17" x2="54.125" transform="translate(24.754 136.34)"/>
        <line id="Line_44" data-name="Line 44" class="cls-17" x2="53.099" transform="translate(30.141 160.966)"/>
        <line id="Line_45" data-name="Line 45" class="cls-17" x2="53.356" transform="translate(33.732 185.078)"/>
        <line id="Line_46" data-name="Line 46" class="cls-17" x2="53.356" transform="translate(38.35 209.063)"/>
      </g>
      <path id="Path_1188" data-name="Path 1188" class="cls-6" d="M36.1,13.169c-.257,2.437,8.465,5.515,10.774,5.772a4.384,4.384,0,0,0,4.746-3.848,4.265,4.265,0,0,0-3.591-4.874C45.592,9.834,36.358,10.732,36.1,13.169Z" transform="translate(8.79 -7.782)"/>
    </g>
    <path id="Path_1189" data-name="Path 1189" class="cls-5" d="M269.608,183.57s-3.207,1.539-5,1.026-.513-1.283-.128-1.026,2.309-.77,2.309-.77A6.543,6.543,0,0,1,269.608,183.57Z" transform="translate(74.202 51.664)"/>
    <path id="Path_1190" data-name="Path 1190" class="cls-13" d="M101.586,119.033s-.385,4.617-1.924,5c-1.411.385-2.437.257-3.078-1.8a15.09,15.09,0,0,1,.128-7.183,11.907,11.907,0,0,1,3.078-4.746c1.539-.513.257,2.822-.257,4.361-.513,1.667-1.026,3.463-.128,3.591.9,0,1.667-3.206,2.693-3.463C103.125,114.416,101.586,119.033,101.586,119.033Z" transform="translate(26.876 31.165)"/>
    <g id="Group_662" data-name="Group 662" transform="translate(137.696 67.086)">
      <path id="Path_1191" data-name="Path 1191" class="cls-18" d="M250.481,298.3V60.509a8.266,8.266,0,0,0-8.209-8.209H115.809a8.266,8.266,0,0,0-8.209,8.209V298.173H250.481Z" transform="translate(-107.6 -52.3)"/>
      <path id="Path_1192" data-name="Path 1192" class="cls-18" d="M250.481,249.389a8.266,8.266,0,0,1-8.209,8.209H115.809a8.266,8.266,0,0,1-8.209-8.209V227.2H250.481Z" transform="translate(-107.6 -2.874)"/>
      <rect id="Rectangle_237" data-name="Rectangle 237" class="cls-19" width="124.796" height="207.395" transform="translate(9.106 16.93)"/>
      <rect id="Rectangle_238" data-name="Rectangle 238" class="cls-20" width="124.796" height="13.595" transform="translate(8.978 16.93)"/>
      <path id="Path_1193" data-name="Path 1193" class="cls-21" d="M174.256,241.078a8.978,8.978,0,1,1-8.978-8.978A8.923,8.923,0,0,1,174.256,241.078Z" transform="translate(-93.838 -1.49)"/>
      <g id="Group_658" data-name="Group 658" transform="translate(17.572 22.958)">
        <rect id="Rectangle_239" data-name="Rectangle 239" class="cls-22" width="47.328" height="1.667"/>
      </g>
      <g id="Group_659" data-name="Group 659" transform="translate(126.336 22.061)">
        <rect id="Rectangle_240" data-name="Rectangle 240" class="cls-22" width="4.104" height="3.848"/>
      </g>
      <g id="Group_660" data-name="Group 660" transform="translate(118.127 22.061)">
        <rect id="Rectangle_241" data-name="Rectangle 241" class="cls-23" width="4.104" height="3.848"/>
      </g>
      <g id="Group_661" data-name="Group 661" transform="translate(110.047 22.061)">
        <rect id="Rectangle_242" data-name="Rectangle 242" class="cls-22" width="4.104" height="3.848"/>
      </g>
    </g>
    <rect id="Rectangle_243" data-name="Rectangle 243" class="cls-10" width="14.365" height="37.58" transform="translate(251.719 115.696)"/>
    <rect id="Rectangle_244" data-name="Rectangle 244" class="cls-10" width="14.365" height="63.873" transform="translate(239.406 115.696)"/>
    <path id="Path_1194" data-name="Path 1194" class="cls-24" d="M210.029,86H102.8a4.052,4.052,0,0,0-4.1,4.1v45.532a4.052,4.052,0,0,0,4.1,4.1H210.029a4.052,4.052,0,0,0,4.1-4.1V90.1A4.052,4.052,0,0,0,210.029,86Z" transform="translate(27.581 24.309)"/>
    <path id="Path_1195" data-name="Path 1195" class="cls-19" d="M210.029,84.7H102.8a4.052,4.052,0,0,0-4.1,4.1v45.532a4.052,4.052,0,0,0,4.1,4.1H210.029a4.052,4.052,0,0,0,4.1-4.1V88.8A4.052,4.052,0,0,0,210.029,84.7Z" transform="translate(27.581 23.942)"/>
    <path id="Path_1196" data-name="Path 1196" class="cls-5" d="M276.2,245.519v.641c.128,1.539-.385,5-1.283,6.156,1.283-.128,6.156-.9,8.593-8.209a10.409,10.409,0,0,0-1.283-1.154,7.712,7.712,0,0,0-1.667-1.154,8.194,8.194,0,0,1-2.693-2.437L272.226,230l-1.026,6.285,3.591,5.387A7.755,7.755,0,0,1,276.2,245.519Z" transform="translate(76.329 65.003)"/>
    <path id="Path_1197" data-name="Path 1197" class="cls-6" d="M278.24,252.456c1.026-.385,6.413-8.978,6.413-8.978a1.168,1.168,0,0,0-.128-1.539c-.513-.385-1.026-1.026-1.667-1.539-1.283,4.361-4.233,9.106-7.952,8.722-1.539-.128-4.233,1.154-4.1,3.463A29.388,29.388,0,0,0,278.24,252.456Z" transform="translate(76.215 67.942)"/>
    <path id="Path_1198" data-name="Path 1198" class="cls-13" d="M91.6,143.384c7.7-2.18,14.878-24.241,14.365-22.958.641-1.8,3.463-1.026,3.078.77a91.733,91.733,0,0,1-3.848,15.263c-3.463,10.261-10.9,18.213-21.291,14.237-7.567-3.078-14.237-11.928-17.956-18.726a5.648,5.648,0,0,1,2.18-7.567,5.466,5.466,0,0,1,7.7,2.693C78.387,132.61,85.7,145.308,91.6,143.384Z" transform="translate(18.138 33.749)"/>
    <path id="Path_1199" data-name="Path 1199" class="cls-25" d="M83.126,137.52s-6.285-9.363-7.054-11.159v-.128c0-.128-.128-.257-.257-.385a5.594,5.594,0,0,0-9.876,5.259,68.109,68.109,0,0,0,4.1,6.8c1.026,1.411,2.052,2.822,3.206,4.233C74.02,141.111,81.2,138.161,83.126,137.52Z" transform="translate(18.144 34.739)"/>
    <path id="Path_1200" data-name="Path 1200" class="cls-5" d="M81.863,176.669c-4.874,5.515-32.706,7.824-32.706,7.824-2.052-2.437.9-13.211,1.667-24.241.77-11.928,1.283-25.139,1.411-32.193a5.393,5.393,0,0,1,5.387-5.259h17.7a5.286,5.286,0,0,1,5.259,4.746c.513,5.643,1.283,15.391,2.052,25.011C83.4,162.432,85.968,171.923,81.863,176.669Z" transform="translate(13.379 34.709)"/>
    <path id="Path_1201" data-name="Path 1201" class="cls-5" d="M47.764,238.241,44.3,249.656l-.9,5.387a1.532,1.532,0,0,0,1.411,1.8c4.489.128,16.032.385,16.289,0,1.411-2.309-5.13-3.206-9.876-5.13-2.309-.9,1.8-12.185,1.8-12.185a10.082,10.082,0,0,0-3.206-7.824Z" transform="translate(11.95 65.483)"/>
    <path id="Path_1202" data-name="Path 1202" class="cls-6" d="M51.227,247.313h0a12.3,12.3,0,0,1-3.976.641,9.112,9.112,0,0,1-3.335-.513l-.513,3.206a1.532,1.532,0,0,0,1.411,1.8c4.489.128,16.032.385,16.289,0C62.643,250.006,56.1,249.108,51.227,247.313Z" transform="translate(11.95 69.879)"/>
    <path id="Path_1203" data-name="Path 1203" class="cls-26" d="M56.276,214.1c-1.539,4.233-7.7,32.065-9.876,46.43l5.643,1.154c6.028-13.082,15.006-38.991,16.545-43.223v-.128c6.541-14.109,14.493-42.454,15.648-48.354,1.539-7.952-2.18-15.391-8.337-16.545s-12.441,4.233-13.98,12.185C60.893,170.749,57.046,212.177,56.276,214.1Z" transform="translate(12.802 43.322)"/>
    <path id="Path_1204" data-name="Path 1204" class="cls-27" d="M68.941,183.006a35.635,35.635,0,0,1,11.287-7.567c.641-2.309,1.026-4.233,1.283-5.259,1.539-7.952-2.18-15.391-8.337-16.545s-12.441,4.233-13.98,12.185c-.513,2.309-1.539,12.569-2.693,22.958A100.057,100.057,0,0,1,68.941,183.006Z" transform="translate(15.656 43.378)"/>
    <path id="Path_1205" data-name="Path 1205" class="cls-5" d="M71.6,237.122l2.437,11.8-.9,5.387a1.532,1.532,0,0,0,1.411,1.8c4.489.128,16.032.385,16.289,0,1.411-2.309-5.13-3.206-9.876-5.13C76.6,246.485,76.6,234.3,76.6,234.3Z" transform="translate(19.923 66.218)"/>
    <path id="Path_1206" data-name="Path 1206" class="cls-6" d="M80.627,247.313h0a12.3,12.3,0,0,1-3.976.641,9.112,9.112,0,0,1-3.335-.513l-.513,3.206a1.532,1.532,0,0,0,1.411,1.8c4.489.128,16.032.385,16.289,0C91.914,250.006,85.373,249.108,80.627,247.313Z" transform="translate(20.258 69.879)"/>
    <path id="Path_1207" data-name="Path 1207" class="cls-6" d="M65.66,218.368c.641,4.233,8.08,30.013,12.826,42.967l5.13-1.539c-.9-13.6-5.259-39.119-5.772-43.223v-.128c-.9-14.622-6.028-42.2-7.7-47.584-2.309-7.311-10-11.159-15.648-9.363s-7.183,8.593-4.874,15.9C51.167,179.89,65.4,216.444,65.66,218.368Z" transform="translate(13.422 44.955)"/>
    <path id="Path_1208" data-name="Path 1208" class="cls-10" d="M75.55,122.8H72.729a7.062,7.062,0,0,1-12.826,0H57.338a5.05,5.05,0,0,0-5,4.746c-.257,7.054-.641,20.521-1.411,32.706-.77,11.03-3.72,21.291-1.667,24.241,0,0,29.5-1.924,34.758-6.926,1.667-1.667-.385-15.263-1.283-25.011-.77-9.748-1.667-19.624-2.052-25.139A5.349,5.349,0,0,0,75.55,122.8Z" transform="translate(13.407 34.709)"/>
    <path id="Path_1209" data-name="Path 1209" class="cls-5" d="M100.126,137.228c12.441-5.643,14.237-11.543,16.417-8.978a1.56,1.56,0,0,1,0,2.052c-23.087,28.858-52.073,20.65-65.8,1.539-4.233-5.9,4.617-12.441,8.978-6.413C70.755,140.178,85.889,143.513,100.126,137.228Z" transform="translate(13.714 34.774)"/>
    <g id="Group_663" data-name="Group 663" transform="translate(63.24 157.585)">
      <path id="Path_1210" data-name="Path 1210" class="cls-25" d="M68.34,133.685a122.978,122.978,0,0,1-8.85-9.363s-2.309-2.693-6.926-.77c-3.72,1.539-2.95,5.9-2.95,5.9.128.641,2.437,6.669,11.03,12.954C60.645,142.407,68.982,134.2,68.34,133.685Z" transform="translate(-49.549 -122.86)"/>
    </g>
    <path id="Path_1211" data-name="Path 1211" class="cls-6" d="M63.367,120.315l-.385.128a4.79,4.79,0,0,1-5.643-3.591l-1.539-6.8,4.874-1.154Z" transform="translate(15.458 30.781)"/>
    <g id="Group_664" data-name="Group 664" transform="translate(73.951 148.274)">
      <path id="Path_1212" data-name="Path 1212" class="cls-5" d="M67.135,124.835H57.9l2.693-9.235,6.285.77Z" transform="translate(-57.9 -115.6)"/>
    </g>
    <path id="Path_1213" data-name="Path 1213" class="cls-28" d="M66.567,116.37l-6.285-.77L59,119.961c1.411,1.539,3.463,4.1,5.772,4.1a3.876,3.876,0,0,0,2.052-.641Z" transform="translate(16.362 32.674)"/>
    <path id="Path_1214" data-name="Path 1214" class="cls-5" d="M68.159,123.859h0a7.751,7.751,0,0,1-9.235-5.9L57,109.622,69.954,106.8a76.211,76.211,0,0,1,1.539,11.159C71.493,121.293,70.211,123.345,68.159,123.859Z" transform="translate(15.797 30.187)"/>
    <rect id="Rectangle_245" data-name="Rectangle 245" class="cls-6" width="2.437" height="1.154" transform="matrix(0.976, -0.217, 0.217, 0.976, 72.848, 143.182)"/>
    <path id="Path_1215" data-name="Path 1215" class="cls-5" d="M60.794,114.473c.385,1.667-.128,3.078-1.154,3.335s-2.565-1.667-2.822-3.335a1.9,1.9,0,0,1,1.539-2.565C59.383,111.651,60.41,112.806,60.794,114.473Z" transform="translate(15.722 31.621)"/>
    <path id="Path_1216" data-name="Path 1216" class="cls-6" d="M71.953,110.682a6.77,6.77,0,0,0-.513-3.206h0a4.958,4.958,0,0,0-6.541-2.693,8.171,8.171,0,0,1-.9.257l-4.361,1.026a5.01,5.01,0,0,0-3.72,5.772l.257,1.026,2.565,1.539,1.026,1.8H59.9a1.678,1.678,0,0,0,1.283-1.8,2.433,2.433,0,0,1,1.8-2.95l3.848-.9c2.309-.513,3.848.513,4.233,2.18l.257,1.539Z" transform="translate(15.466 29.512)"/>
    <path id="Path_1217" data-name="Path 1217" class="cls-6" d="M58.2,107.588c-.257,2.437,8.337,5.387,10.517,5.643a4.193,4.193,0,0,0,4.617-3.848,4.265,4.265,0,0,0-3.591-4.874C67.564,104.253,58.586,105.151,58.2,107.588Z" transform="translate(16.135 29.528)"/>
    <path id="Path_1218" data-name="Path 1218" class="cls-19" d="M237.016,108.8a10.879,10.879,0,0,1,.385,6.669,10.9,10.9,0,0,0,2.437,10.517,31.909,31.909,0,0,1,1.539-7.054C242.275,116.624,241.634,109.954,237.016,108.8Z" transform="translate(66.647 30.752)"/>
    <path id="Path_1219" data-name="Path 1219" class="cls-19" d="M244.372,108.214s-5,3.078-4.361,7.311c0,0-2.693-1.924-3.206-8.337C236.292,102.7,244.372,108.214,244.372,108.214Z" transform="translate(66.602 29.799)"/>
    <path id="Path_1220" data-name="Path 1220" class="cls-19" d="M271.432,127.182a10.112,10.112,0,0,1-5.515-5.515,16.659,16.659,0,0,0-8.209-8.978,5.028,5.028,0,0,1-3.078-4.489h-5v3.72c-6.8,1.539-11.928,8.465-11.928,16.8,0,9.106,6.156,16.545,13.852,17.059,1.154,8.209,7.183,14.493,14.493,14.493,8.08,0,14.75-7.7,14.75-17.059C280.923,135.9,276.947,129.619,271.432,127.182Z" transform="translate(66.862 30.583)"/>
    <path id="Path_1221" data-name="Path 1221" class="cls-5" d="M249.638,137.21c-9.235,16.032-28.73,8.337-43.993-3.206a1.591,1.591,0,0,1,1.667-2.693c13.724,6.541,32.834,12.569,34.117-2.437v-.257C242.071,120.151,258.488,121.819,249.638,137.21Z" transform="translate(57.617 34.92)"/>
    <path id="Path_1222" data-name="Path 1222" class="cls-5" d="M233.186,176.143c4.746,5.387,32.065,7.7,32.065,7.7,2.052-2.309-7.439-29.115-7.439-29.115s4.489-19.367,4.361-26.293a5.344,5.344,0,0,0-5.259-5.13H239.6a5.163,5.163,0,0,0-5.13,4.746c-.513,5.515,6.8,26.165,6.8,26.165S229.082,171.4,233.186,176.143Z" transform="translate(65.347 34.85)"/>
    <path id="Path_1223" data-name="Path 1223" class="cls-5" d="M247.224,253a15.021,15.021,0,0,0,6.541-1.411l-.641-3.848c0-.257-.128-.641,0-.9l.385-9.235a3.908,3.908,0,0,0-1.667-3.335h0a2,2,0,0,0-3.078,1.667c.257,4.746.257,12.313-2.565,13.211-.77.257-5.9,2.052-6.8,2.309A19.732,19.732,0,0,0,247.224,253Z" transform="translate(67.342 66.116)"/>
    <path id="Path_1224" data-name="Path 1224" class="cls-6" d="M246.754,248.226a43.886,43.886,0,0,1-5.9-.513h-.77c-2.18.77-3.591,1.539-2.95,2.822.257.513,11.543.257,16.032.128a1.532,1.532,0,0,0,1.411-1.8l-.257-1.667A29.9,29.9,0,0,1,246.754,248.226Z" transform="translate(66.658 69.863)"/>
    <path id="Path_1225" data-name="Path 1225" class="cls-5" d="M251.826,210.726c3.206,4.746,29.628,40.915,31.039,39.5,1.154-1.283-17.828-41.684-21.035-46.3-3.206-4.746-8.337-5.643-11.159-3.72C247.978,202.132,248.619,206.108,251.826,210.726Z" transform="translate(70.051 56.316)"/>
    <path id="Path_1226" data-name="Path 1226" class="cls-5" d="M240.551,209.5c.641,3.72,5.515,24.241,8.722,37.452,1.667,6.669,2.309,11.543,2.95,11.287,1.539-.641,1.154-45.276.128-50.919s-4.489-9.748-7.824-9.106C241.449,198.856,239.653,203.858,240.551,209.5Z" transform="translate(67.602 56.002)"/>
    <path id="Path_1227" data-name="Path 1227" class="cls-28" d="M233.409,171.21c.385,7.439,7.183,54.639,12.954,54.254s8.465-47.969,8.08-55.408-5.515-13.211-11.287-12.954C237.257,157.487,232.9,163.771,233.409,171.21Z" transform="translate(65.638 44.4)"/>
    <path id="Path_1228" data-name="Path 1228" class="cls-25" d="M250.643,259.425c.641.385,4.1.513,4.746,0,.385-13.724-.257-36.554-.9-40.4-.128-.385-.128-.9-.257-1.283a47.255,47.255,0,0,1-1.539-16.93c1.411-12.954,1.924-26.934,1.667-30.654-.385-7.439-5.515-13.211-11.287-12.954-5.772.385-9.876,6.028-9.876,13.467C233.2,188.754,250.515,259.168,250.643,259.425Z" transform="translate(65.59 44.428)"/>
    <path id="Path_1229" data-name="Path 1229" class="cls-29" d="M244.23,182.625a150.706,150.706,0,0,1,8.722,15.263c1.154-12.056,1.667-24.369,1.411-27.832-.385-7.439-5.515-13.211-11.287-12.954-5.772.385-9.876,6.028-9.876,13.467a13.189,13.189,0,0,0,.128,2.18,34.736,34.736,0,0,1,9.876,8.978A3.458,3.458,0,0,1,244.23,182.625Z" transform="translate(65.59 44.4)"/>
    <path id="Path_1230" data-name="Path 1230" class="cls-15" d="M240.3,169.824c.128,7.439,8.465,50.149,14.365,50.021,5.772-.128,7.952-43.1,7.824-50.534s-6.028-13.339-11.8-13.211C244.79,156.1,240.172,162.257,240.3,169.824Z" transform="translate(67.596 44.119)"/>
    <path id="Path_1231" data-name="Path 1231" class="cls-10" d="M284.463,255.758c-4.746-11.8-17.443-36.041-20.008-39.632-1.667-2.309-1.8-41.428-1.8-46.815-.128-7.439-6.028-13.339-11.8-13.211s-11.287,6.156-11.159,13.6c.128,6.156,6.156,38.991,14.75,53.356,2.309,3.72,18.726,26.165,26.678,35.656A7.281,7.281,0,0,0,284.463,255.758Z" transform="translate(67.427 44.119)"/>
    <path id="Path_1232" data-name="Path 1232" class="cls-11" d="M257.814,154.752s4.489-19.88,4.361-26.806A4.845,4.845,0,0,0,257.3,123.2h-2.565a6.481,6.481,0,0,1-6.285,3.976,6.668,6.668,0,0,1-6.285-3.976h-2.437c2.693,5.643-4.233,6.926-2.822,17.443,1.924,6.8,4.233,13.467,4.233,13.467s-12.056,17.315-7.952,22.061c4.746,5.387,32.065,7.7,32.065,7.7C267.3,180.917,257.814,154.752,257.814,154.752Z" transform="translate(65.346 34.822)"/>
    <g id="Group_665" data-name="Group 665" transform="translate(310.975 149.941)">
      <path id="Path_1233" data-name="Path 1233" class="cls-5" d="M242.7,126.263l7.952-.77-2.565-8.593-5.13.513Z" transform="translate(-242.7 -116.9)"/>
    </g>
    <path id="Path_1234" data-name="Path 1234" class="cls-13" d="M242.957,117.441l5.13-.641.77,2.693c-1.154,1.283-2.565,4.1-4.489,4.1a2.578,2.578,0,0,1-1.667-.513Z" transform="translate(68.275 33.013)"/>
    <path id="Path_1235" data-name="Path 1235" class="cls-5" d="M243.833,124.274c1.667,0,3.591-.9,6.156-3.078a7.609,7.609,0,0,0,2.565-5.13V107.6H239.6a22.759,22.759,0,0,0,0,8.978C240.242,119.913,242.422,124.274,243.833,124.274Z" transform="translate(67.27 30.413)"/>
    <rect id="Rectangle_246" data-name="Rectangle 246" class="cls-19" width="2.437" height="1.154" transform="translate(320.508 142.348) rotate(180)"/>
    <path id="Path_1236" data-name="Path 1236" class="cls-5" d="M247.9,113.678c0,1.667.77,2.95,1.8,2.95s2.052-2.18,2.052-3.848a1.919,1.919,0,0,0-2.052-2.18C248.67,110.6,247.9,112.011,247.9,113.678Z" transform="translate(69.744 31.261)"/>
    <path id="Path_1237" data-name="Path 1237" class="cls-6" d="M250.138,105.012h-4.361a6.214,6.214,0,0,1-3.335-.9,3.755,3.755,0,0,0-4.874.9c-1.026,1.539-1.411,3.463,1.411,5.387,1.411.9,3.591-.128,4.874.385h4.1a2.523,2.523,0,0,1,2.437,2.437,1.54,1.54,0,0,0,1.539,1.411h.128l.641-1.924,2.18-1.924v-1.026A4.819,4.819,0,0,0,250.138,105.012Z" transform="translate(66.609 29.282)"/>
    <path id="Path_1238" data-name="Path 1238" class="cls-5" d="M203.319,130.222s1.667,4.233,3.206,4.1c1.411-.128,2.437-.385,2.437-2.565a14.672,14.672,0,0,0-2.18-6.669,11.629,11.629,0,0,0-4.233-3.591c-1.667,0,.513,2.693,1.411,4.1,1.026,1.411,1.924,3.078,1.154,3.335s-2.437-2.437-3.463-2.437S203.319,130.222,203.319,130.222Z" transform="translate(56.609 34.341)"/>
    <path id="Path_1239" data-name="Path 1239" class="cls-6" d="M240.071,109.164c.77,1.8.385,2.822,6.541,4.361,6.156,1.411,7.7-.257,10,2.437,0,0-1.8-4.874-5.259-5.9s-8.978-.77-11.543-4.361A8.953,8.953,0,0,0,240.071,109.164Z" transform="translate(67.441 29.875)"/>
    <path id="Path_1240" data-name="Path 1240" class="cls-5" d="M259.667,126c6.669,11.672,13.467,35.656,12.954,64.514a1.56,1.56,0,0,1-1.539,1.539,1.626,1.626,0,0,1-1.539-1.283c-8.209-41.3-19.367-59.384-19.367-59.384C246.585,125.107,256.076,119.848,259.667,126Z" transform="translate(70.162 34.839)"/>
    <path id="Path_1241" data-name="Path 1241" class="cls-5" d="M104.325,125.5s-4.489,1.026-4.617,2.565,0,2.565,2.18,2.822a16.041,16.041,0,0,0,7.054-1.154,13.486,13.486,0,0,0,4.361-3.72c.257-1.667-2.822.128-4.361.9s-3.335,1.411-3.463.641c-.128-.9,2.95-2.052,3.078-3.078C108.686,123.32,104.325,125.5,104.325,125.5Z" transform="translate(27.856 35.087)"/>
    <path id="Path_1242" data-name="Path 1242" class="cls-6" d="M70.956,114.6a9.733,9.733,0,0,1-.128,2.052,1.669,1.669,0,0,1-2.565,1.026,1.58,1.58,0,0,0-1.283-.257,2,2,0,0,0-1.026.77,2.81,2.81,0,0,1-4.233.385A7.739,7.739,0,0,1,60.7,117.55a1.972,1.972,0,0,0-1.8-.77h0l1.026,5.13a7.46,7.46,0,0,0,8.722,5.9c2.052-.385,3.206-2.437,3.078-5.9A70.5,70.5,0,0,0,70.956,114.6Z" transform="translate(16.334 32.391)"/>
    <path id="Path_1243" data-name="Path 1243" class="cls-13" d="M102.1,113.7c-1.026.257-1.8,3.463-2.693,3.463-.513,0-.513-.641-.385-1.539A12.8,12.8,0,0,1,96.2,118.7a6.942,6.942,0,0,0,.385,2.437c.641,2.052,1.667,2.18,3.078,1.8s1.924-5,1.924-5S103.126,113.446,102.1,113.7Z" transform="translate(26.875 32.135)"/>
    <rect id="Rectangle_247" data-name="Rectangle 247" class="cls-10" width="26.421" height="31.167" transform="translate(134.362 119.416)"/>
    <rect id="Rectangle_248" data-name="Rectangle 248" class="cls-30" width="34.887" height="2.95" transform="translate(169.761 119.416)"/>
    <rect id="Rectangle_249" data-name="Rectangle 249" class="cls-30" width="53.356" height="2.95" transform="translate(169.761 128.65)"/>
    <rect id="Rectangle_250" data-name="Rectangle 250" class="cls-30" width="53.356" height="2.95" transform="translate(169.761 137.885)"/>
    <rect id="Rectangle_251" data-name="Rectangle 251" class="cls-30" width="53.356" height="2.95" transform="translate(169.761 147.12)"/>
    <g id="Group_666" data-name="Group 666" transform="translate(328.29 233.695)">
      <rect id="Rectangle_252" data-name="Rectangle 252" class="cls-31" width="21.035" height="26.678" transform="translate(1.796 8.722)"/>
      <rect id="Rectangle_253" data-name="Rectangle 253" class="cls-32" width="21.035" height="6.285" transform="translate(1.796 8.722)"/>
      <path id="Path_1244" data-name="Path 1244" class="cls-33" d="M280.826,193.233H256.2V191.18a2.162,2.162,0,0,1,2.18-2.18h20.393a2.162,2.162,0,0,1,2.18,2.18v2.052Z" transform="translate(-256.2 -180.278)"/>
      <path id="Path_1245" data-name="Path 1245" class="cls-34" d="M258.7,190.922a8.722,8.722,0,1,1,17.443,0" transform="translate(-255.493 -182.2)"/>
      <path id="Path_1246" data-name="Path 1246" class="cls-35" d="M270.7,202.339h0a1.753,1.753,0,0,1-1.8-1.8V189h3.591v11.543A1.753,1.753,0,0,1,270.7,202.339Z" transform="translate(-252.611 -180.278)"/>
      <path id="Path_1247" data-name="Path 1247" class="cls-35" d="M268.183,194.643h0a1.285,1.285,0,0,1-1.283-1.283V189h2.693v4.233A1.516,1.516,0,0,1,268.183,194.643Z" transform="translate(-253.176 -180.278)"/>
    </g>
    <path id="Path_1248" data-name="Path 1248" class="cls-5" d="M264.375,185.713c.9-.385,1.539-3.463,2.309-3.591.385,0,.513.385.513,1.026a22.036,22.036,0,0,1,2.565.641,13.079,13.079,0,0,0-.513-5.9c-.77-2.052-1.8-1.924-3.078-1.539-1.411.385-1.539,5-1.539,5S263.478,186.1,264.375,185.713Z" transform="translate(74.304 49.777)"/>
    <g id="Group_667" data-name="Group 667" transform="translate(246.46 130.189)">
      <path id="Path_1249" data-name="Path 1249" class="cls-36" d="M192.4,105.5h25.011a3.722,3.722,0,0,1,3.72,3.72V112.3a3.722,3.722,0,0,1-3.72,3.72h-7.054a3.585,3.585,0,0,0-3.591,3.591v15.263" transform="translate(-192.4 -100.37)"/>
      <path id="Path_1250" data-name="Path 1250" class="cls-35" d="M216.332,111.889H195.939a1.482,1.482,0,0,1-1.539-1.539v-7.311a1.482,1.482,0,0,1,1.539-1.539h20.393a1.482,1.482,0,0,1,1.539,1.539v7.311A1.655,1.655,0,0,1,216.332,111.889Z" transform="translate(-191.835 -101.5)"/>
      <line id="Line_47" data-name="Line 47" class="cls-37" y2="11.672" transform="translate(14.237 23.6)"/>
    </g>
    <path id="Path_1251" data-name="Path 1251" class="cls-15" d="M202.157,125.6s4.1,1.539,4.233,2.95-2.309,2.309-2.309,2.309S201,127.267,202.157,125.6Z" transform="translate(56.744 35.5)"/>
    <rect id="Rectangle_254" data-name="Rectangle 254" class="cls-30" width="101.966" height="16.545" transform="translate(158.218 190.856)"/>
    <rect id="Rectangle_255" data-name="Rectangle 255" class="cls-30" width="101.966" height="16.545" transform="translate(158.218 215.097)"/>
    <rect id="Rectangle_256" data-name="Rectangle 256" class="cls-30" width="101.966" height="16.545" transform="translate(158.218 239.338)"/>
    <rect id="Rectangle_257" data-name="Rectangle 257" class="cls-30" width="101.966" height="16.545" transform="translate(158.218 263.451)"/>
    <rect id="Rectangle_258" data-name="Rectangle 258" class="cls-38" width="61.565" height="41.684" transform="translate(240.047 279.996)"/>
    <rect id="Rectangle_259" data-name="Rectangle 259" class="cls-39" width="12.441" height="41.684" transform="translate(240.077 321.838) rotate(180)"/>
    <rect id="Rectangle_260" data-name="Rectangle 260" class="cls-40" width="62.334" height="5.9" transform="translate(240.047 279.996)"/>
    <rect id="Rectangle_261" data-name="Rectangle 261" class="cls-41" width="13.595" height="5.9" transform="translate(240.051 286.047) rotate(180)"/>
    <rect id="Rectangle_262" data-name="Rectangle 262" class="cls-1" width="61.693" height="3.335" transform="translate(235.943 276.79)"/>
    <rect id="Rectangle_263" data-name="Rectangle 263" class="cls-2" width="61.693" height="3.335" transform="translate(233.763 273.455)"/>
    <rect id="Rectangle_264" data-name="Rectangle 264" class="cls-42" width="61.693" height="3.335" transform="translate(233.25 266.786)"/>
    <rect id="Rectangle_265" data-name="Rectangle 265" class="cls-43" width="61.693" height="3.335" transform="translate(236.456 263.451)"/>
    <rect id="Rectangle_266" data-name="Rectangle 266" class="cls-1" width="61.693" height="3.335" transform="translate(238.252 270.121)"/>
  </g>
</svg>
