<svg xmlns="http://www.w3.org/2000/svg" xmlns:xlink="http://www.w3.org/1999/xlink" viewBox="0 0 90 90">
  <defs>
    <style>
      .cls-1 {
        fill: url(#linear-gradient);
      }

      .cls-2 {
        fill: #3b486a;
      }

      .cls-3 {
        fill: #303c5e;
      }

      .cls-4 {
        fill: #d0e9ff;
      }

      .cls-5 {
        fill: #bce9f7;
      }

      .cls-6 {
        fill: #ff8820;
      }

      .cls-7 {
        fill: #f70;
      }

      .cls-8 {
        fill: #fff;
      }

      .cls-9 {
        fill: #ffe0c4;
      }
    </style>
    <linearGradient id="linear-gradient" x1="0.5" x2="0.5" y2="1" gradientUnits="objectBoundingBox">
      <stop offset="0" stop-color="#f1f3f8"/>
      <stop offset="1" stop-color="#f1f3f8" stop-opacity="0"/>
    </linearGradient>
  </defs>
  <g id="_1" data-name="1" transform="translate(-836 -1819)">
    <path id="Path_653" data-name="Path 653" class="cls-1" d="M67.417,0c24.82,0,22.47,20.147,22.47,45S47.3,90,22.477,90,.007,69.853.007,45,42.6,0,67.417,0Z" transform="translate(836.053 1819)"/>
    <g id="verification" transform="translate(817.1 1828.988)">
      <path id="Path_3603" data-name="Path 3603" class="cls-2" d="M70.858,57.59v58.049c0,7.207-13.07,10.976-25.978,10.976h0c-12.91,0-25.978-3.77-25.978-10.976V57.59a2.342,2.342,0,0,1,2.339-2.342H68.519A2.342,2.342,0,0,1,70.858,57.59Z" transform="translate(0 -46.615)"/>
      <path id="Path_3604" data-name="Path 3604" class="cls-3" d="M211.352,57.59v58.049c0,7.207-13.069,10.976-25.978,10.976h0V55.248h23.64A2.342,2.342,0,0,1,211.352,57.59Z" transform="translate(-140.494 -46.616)"/>
      <g id="Group_1826" data-name="Group 1826" transform="translate(18.9)">
        <path id="Path_3605" data-name="Path 3605" class="cls-4" d="M70.858,10.975c0,7.207-13.07,10.976-25.978,10.976h0c-12.91,0-25.978-3.77-25.978-10.976S31.968,0,44.878,0h0C57.789,0,70.858,3.77,70.858,10.975Z" transform="translate(-18.9)"/>
        <path id="Path_3606" data-name="Path 3606" class="cls-4" d="M70.858,167.361v13.4c0,7.205-13.07,10.976-25.978,10.976h0c-12.91,0-25.978-3.771-25.978-10.976v-14.57c0,7.205,13.068,10.976,25.978,10.976h0C57.053,177.169,69.495,173.785,70.858,167.361Z" transform="translate(-18.9 -140.225)"/>
        <path id="Path_3607" data-name="Path 3607" class="cls-4" d="M70.858,349.965v13.355c0,7.207-13.07,10.976-25.978,10.976h0c-12.91,0-25.978-3.77-25.978-10.976V348.8c0,7.205,13.068,10.976,25.978,10.976h0C57.053,359.771,69.495,356.389,70.858,349.965Z" transform="translate(-18.9 -294.296)"/>
      </g>
      <g id="Group_1827" data-name="Group 1827" transform="translate(44.878)">
        <path id="Path_3608" data-name="Path 3608" class="cls-5" d="M185.373,21.951h0V0h0c12.909,0,25.978,3.77,25.978,10.975S198.282,21.951,185.373,21.951Z" transform="translate(-185.371)"/>
        <path id="Path_3609" data-name="Path 3609" class="cls-5" d="M211.352,173.668v13.4c0,7.205-13.069,10.976-25.978,10.976h0v-14.57h0C197.546,183.476,209.989,180.092,211.352,173.668Z" transform="translate(-185.372 -146.532)"/>
        <path id="Path_3610" data-name="Path 3610" class="cls-5" d="M211.352,356.281v13.355c0,7.207-13.069,10.976-25.978,10.976h0V366.088h0C197.546,366.088,209.989,362.705,211.352,356.281Z" transform="translate(-185.372 -300.612)"/>
      </g>
      <path id="Path_3611" data-name="Path 3611" class="cls-6" d="M299.3,160v20.742a8.331,8.331,0,0,1-4.521,7.438l-9.551,5.62-.067.034a8.41,8.41,0,0,1-7.556,0l-.131-.072-9.487-5.583a8.334,8.334,0,0,1-4.521-7.438V160a3.639,3.639,0,0,1,2.667-3.5l14.578-4.265a2.589,2.589,0,0,1,.674-.087,2.636,2.636,0,0,1,.672.087l.058.016,14.521,4.249A3.637,3.637,0,0,1,299.3,160Z" transform="translate(-206.4 -128.368)"/>
      <path id="Path_3612" data-name="Path 3612" class="cls-7" d="M396.2,160V180.74a8.331,8.331,0,0,1-4.521,7.438l-9.551,5.62-.067.034a8.369,8.369,0,0,1-3.777.9V152.141a2.636,2.636,0,0,1,.672.087l.058.016,14.522,4.249A3.637,3.637,0,0,1,396.2,160Z" transform="translate(-303.305 -128.369)"/>
      <path id="Path_3613" data-name="Path 3613" class="cls-8" d="M336.97,249.308l-8.453,7.831-1.1,1.02c-.019.019-.041.034-.061.052l-.083.07c-.033.025-.066.048-.1.072s-.058.042-.089.061-.07.042-.1.063-.059.034-.091.05-.076.036-.115.053-.058.027-.087.039-.083.03-.125.044-.056.02-.084.028c-.045.012-.092.023-.137.033-.027.006-.051.014-.076.019-.052.009-.1.016-.156.022l-.062.009c-.072.006-.145.009-.218.009h0a2.243,2.243,0,0,1-.229-.011l-.066-.009c-.055-.008-.109-.014-.164-.025l-.08-.02c-.048-.011-.1-.022-.145-.036-.03-.009-.058-.02-.087-.031s-.087-.03-.131-.048-.061-.028-.09-.042-.081-.038-.12-.059-.062-.036-.094-.055-.072-.044-.108-.067-.062-.045-.092-.069-.067-.05-.1-.078-.058-.052-.086-.078-.042-.036-.062-.056L320,253.918a2.341,2.341,0,1,1,3.308-3.314l2.583,2.586,2.626-2.433,5.275-4.888a2.342,2.342,0,0,1,3.179,3.439Z" transform="translate(-253.533 -206.927)"/>
      <path id="Path_3614" data-name="Path 3614" class="cls-9" d="M386.742,249.309l-8.453,7.831v-6.382l5.275-4.888a2.341,2.341,0,0,1,3.178,3.439Z" transform="translate(-303.306 -206.928)"/>
    </g>
  </g>
</svg>
