<svg xmlns="http://www.w3.org/2000/svg" xmlns:xlink="http://www.w3.org/1999/xlink" viewBox="0 0 90 90">
  <defs>
    <style>
      .cls-1 {
        fill: url(#linear-gradient);
      }

      .cls-2 {
        fill: #1abffe;
      }

      .cls-3 {
        fill: #00a9e9;
      }

      .cls-4 {
        fill: #f2d1a5;
      }

      .cls-5 {
        fill: #f2bb88;
      }

      .cls-6 {
        fill: #6d4432;
      }

      .cls-7 {
        fill: #59311f;
      }

      .cls-8 {
        fill: #ff8c05;
      }

      .cls-9 {
        fill: #f63;
      }

      .cls-10 {
        fill: #ff8820;
      }

      .cls-11 {
        fill: #f70;
      }

      .cls-12 {
        fill: #ffc364;
      }

      .cls-13 {
        fill: #ff9b32;
      }
    </style>
    <linearGradient id="linear-gradient" x1="0.5" x2="0.5" y2="1" gradientUnits="objectBoundingBox">
      <stop offset="0" stop-color="#f1f3f8"/>
      <stop offset="1" stop-color="#f1f3f8" stop-opacity="0"/>
    </linearGradient>
  </defs>
  <g id="_1" data-name="1" transform="translate(-836 -1819)">
    <path id="Path_653" data-name="Path 653" class="cls-1" d="M67.417,0c24.82,0,22.47,20.147,22.47,45S47.3,90,22.477,90,.007,69.853.007,45,42.6,0,67.417,0Z" transform="translate(836.053 1819)"/>
    <g id="satisfied" transform="translate(836 1844.987)">
      <path id="Path_3544" data-name="Path 3544" class="cls-2" d="M342.9,244.429a15.707,15.707,0,0,0-4.883-.859H323.511c-4.18.064-7.035,1.359-9.548,4.328a2.417,2.417,0,0,0-.511,2.087,2.386,2.386,0,0,0,1.345,1.661c3.923,1.763,6.558,6.407,6.558,11.555v.8a2.377,2.377,0,0,0,2.359,2.394h18.354A2.377,2.377,0,0,0,344.426,264v-17.33A2.394,2.394,0,0,0,342.9,244.429Zm0,0" transform="translate(-264.426 -204.951)"/>
      <path id="Path_3545" data-name="Path 3545" class="cls-3" d="M436.6,244.429a15.707,15.707,0,0,0-4.883-.859h-7.275v22.82h11.323A2.376,2.376,0,0,0,438.122,264v-17.33A2.394,2.394,0,0,0,436.6,244.429Zm0,0" transform="translate(-358.122 -204.951)"/>
      <path id="Path_3546" data-name="Path 3546" class="cls-4" d="M382.246,216.3a2.344,2.344,0,0,0-1.668-.7H377.6v-2.873a2.377,2.377,0,0,0-2.359-2.393h-3.42a2.376,2.376,0,0,0-2.358,2.382l-.013,2.884h-3.018a2.342,2.342,0,0,0-1.668.7,2.408,2.408,0,0,0-.69,1.693c0,2.869.923,3.981,2.6,6.029a8.787,8.787,0,0,0,6.857,3.392c5.276,0,9.41-3.243,9.412-9.42A2.414,2.414,0,0,0,382.246,216.3Zm0,0" transform="translate(-307.184 -176.986)"/>
      <path id="Path_3547" data-name="Path 3547" class="cls-2" d="M30.307,247.726a13.525,13.525,0,0,0-9.39-4.156H6.409a12.829,12.829,0,0,0-4.989,1.1,2.4,2.4,0,0,0-1.42,2.2V264a2.376,2.376,0,0,0,2.358,2.393H20.605A2.376,2.376,0,0,0,22.964,264v-.8c0-5.186,2.66-9.84,6.618-11.582a2.387,2.387,0,0,0,1.379-1.752A2.416,2.416,0,0,0,30.307,247.726Zm0,0" transform="translate(0 -204.951)"/>
      <path id="Path_3548" data-name="Path 3548" class="cls-3" d="M103.974,247.726a13.525,13.525,0,0,0-9.39-4.156H87.309v22.82h6.964A2.376,2.376,0,0,0,96.63,264v-.8c0-5.186,2.66-9.84,6.618-11.582a2.387,2.387,0,0,0,1.379-1.752A2.416,2.416,0,0,0,103.974,247.726Zm0,0" transform="translate(-73.667 -204.951)"/>
      <path id="Path_3549" data-name="Path 3549" class="cls-4" d="M45.113,216.3a2.344,2.344,0,0,0-1.668-.7h-2.98v-2.873a2.376,2.376,0,0,0-2.359-2.393h-3.42a2.376,2.376,0,0,0-2.358,2.382l-.013,2.884H29.3a2.342,2.342,0,0,0-1.668.7,2.411,2.411,0,0,0-.69,1.693c0,2.869.923,3.981,2.6,6.029a8.787,8.787,0,0,0,6.857,3.392c5.276,0,9.41-3.243,9.412-9.421A2.414,2.414,0,0,0,45.113,216.3Zm0,0" transform="translate(-22.729 -176.986)"/>
      <path id="Path_3550" data-name="Path 3550" class="cls-5" d="M433.184,216.3a2.344,2.344,0,0,0-1.668-.7h-2.98v-2.873a2.377,2.377,0,0,0-2.359-2.393h-1.736v17.08h.021c5.276,0,9.411-3.243,9.412-9.42A2.414,2.414,0,0,0,433.184,216.3Zm0,0" transform="translate(-358.122 -176.986)"/>
      <path id="Path_3551" data-name="Path 3551" class="cls-4" d="M367.838,95.52H366.3a9.941,9.941,0,0,0-9.856,10v2.188a10.625,10.625,0,1,0,21.248,0v-2.188A9.941,9.941,0,0,0,367.838,95.52Zm0,0" transform="translate(-300.751 -80.374)"/>
      <path id="Path_3552" data-name="Path 3552" class="cls-5" d="M425.209,95.52h-.768v22.97a10.715,10.715,0,0,0,10.624-10.781v-2.188A9.941,9.941,0,0,0,425.209,95.52Zm0,0" transform="translate(-358.122 -80.374)"/>
      <path id="Path_3553" data-name="Path 3553" class="cls-6" d="M367.205,103.2l10.488,4.511v-2.188a9.941,9.941,0,0,0-9.856-10H366.3a9.941,9.941,0,0,0-9.856,10v2.851Zm0,0" transform="translate(-300.751 -80.374)"/>
      <path id="Path_3554" data-name="Path 3554" class="cls-7" d="M425.209,95.52h-.768v7.743l.135-.065,10.488,4.511v-2.188A9.941,9.941,0,0,0,425.209,95.52Zm0,0" transform="translate(-358.122 -80.374)"/>
      <path id="Path_3555" data-name="Path 3555" class="cls-2" d="M395.074,11.117a2.332,2.332,0,0,1-1.668-.7L390.5,7.467a2.419,2.419,0,0,1,0-3.385,2.335,2.335,0,0,1,3.336,0l1.238,1.257L399.643.7a2.335,2.335,0,0,1,3.336,0,2.419,2.419,0,0,1,0,3.385l-6.238,6.329A2.332,2.332,0,0,1,395.074,11.117Zm0,0" transform="translate(-328.902)"/>
      <path id="Path_3556" data-name="Path 3556" class="cls-3" d="M432.2.7a2.335,2.335,0,0,0-3.336,0L424.441,5.19v5.92a2.332,2.332,0,0,0,1.521-.694L432.2,4.087A2.417,2.417,0,0,0,432.2.7Zm0,0" transform="translate(-358.122)"/>
      <path id="Path_3557" data-name="Path 3557" class="cls-5" d="M96.051,216.3a2.344,2.344,0,0,0-1.668-.7H91.4v-2.873a2.376,2.376,0,0,0-2.359-2.393H87.309v17.08h.021c5.276,0,9.41-3.243,9.412-9.421A2.414,2.414,0,0,0,96.051,216.3Zm0,0" transform="translate(-73.667 -176.986)"/>
      <path id="Path_3558" data-name="Path 3558" class="cls-4" d="M30.7,95.52H29.168a9.941,9.941,0,0,0-9.856,10v2.188a10.625,10.625,0,1,0,21.248,0v-2.188A9.94,9.94,0,0,0,30.7,95.52Zm0,0" transform="translate(-16.295 -80.374)"/>
      <path id="Path_3559" data-name="Path 3559" class="cls-5" d="M88.076,95.52h-.768v22.97a10.715,10.715,0,0,0,10.624-10.781v-2.188A9.94,9.94,0,0,0,88.076,95.52Zm0,0" transform="translate(-73.667 -80.374)"/>
      <path id="Path_3560" data-name="Path 3560" class="cls-8" d="M30.073,103.2l10.488,4.511v-2.188a9.941,9.941,0,0,0-9.857-10H29.168a9.941,9.941,0,0,0-9.856,10v2.851Zm0,0" transform="translate(-16.295 -80.374)"/>
      <path id="Path_3561" data-name="Path 3561" class="cls-9" d="M88.076,95.52h-.768v7.743l.136-.065,10.488,4.511v-2.188A9.941,9.941,0,0,0,88.076,95.52Zm0,0" transform="translate(-73.667 -80.374)"/>
      <path id="Path_3562" data-name="Path 3562" class="cls-2" d="M56.423,11.117a2.332,2.332,0,0,1-1.667-.7L51.849,7.467a2.417,2.417,0,0,1,0-3.385,2.335,2.335,0,0,1,3.336,0l1.238,1.257L60.992.7a2.335,2.335,0,0,1,3.336,0,2.419,2.419,0,0,1,0,3.385l-6.237,6.329A2.334,2.334,0,0,1,56.423,11.117Zm0,0" transform="translate(-43.165)"/>
      <path id="Path_3563" data-name="Path 3563" class="cls-3" d="M94.83.7a2.335,2.335,0,0,0-3.336,0L87.309,4.949v6.133a2.332,2.332,0,0,0,1.284-.667L94.83,4.087A2.419,2.419,0,0,0,94.83.7Zm0,0" transform="translate(-73.667)"/>
      <path id="Path_3564" data-name="Path 3564" class="cls-10" d="M157.606,267.107a15.187,15.187,0,0,0-6.793-6.256,12.783,12.783,0,0,0-5.083-1.14h0c-.751,0-13.766,0-14.509,0h0a12.8,12.8,0,0,0-4.986,1.1,15.146,15.146,0,0,0-6.86,6.252,19.018,19.018,0,0,0-2.6,9.721v3.357a2.377,2.377,0,0,0,2.359,2.393h38.682a2.376,2.376,0,0,0,2.358-2.393v-3.357A19.03,19.03,0,0,0,157.606,267.107Zm0,0" transform="translate(-98.531 -218.531)"/>
      <path id="Path_3565" data-name="Path 3565" class="cls-11" d="M275.075,267.108a15.187,15.187,0,0,0-6.793-6.256,12.783,12.783,0,0,0-5.083-1.14H256v22.822h19.288a2.376,2.376,0,0,0,2.358-2.393v-3.357A19.03,19.03,0,0,0,275.075,267.108Zm0,0" transform="translate(-216 -218.532)"/>
      <path id="Path_3566" data-name="Path 3566" class="cls-4" d="M213.32,232.452a2.342,2.342,0,0,0-1.668-.7h-2.98v-2.873a2.376,2.376,0,0,0-2.358-2.393h-3.42a2.376,2.376,0,0,0-2.359,2.393v2.873H197.5a2.341,2.341,0,0,0-1.668.7,2.412,2.412,0,0,0-.691,1.693c0,2.869.923,3.981,2.6,6.029a8.786,8.786,0,0,0,6.857,3.392c5.276,0,9.41-3.243,9.412-9.421A2.408,2.408,0,0,0,213.32,232.452Zm0,0" transform="translate(-164.653 -190.574)"/>
      <path id="Path_3567" data-name="Path 3567" class="cls-5" d="M264.667,232.452a2.342,2.342,0,0,0-1.668-.7h-2.98v-2.873a2.376,2.376,0,0,0-2.358-2.393H256v17.08c5.25-.022,9.356-3.264,9.358-9.42A2.412,2.412,0,0,0,264.667,232.452Zm0,0" transform="translate(-216 -190.574)"/>
      <path id="Path_3568" data-name="Path 3568" class="cls-4" d="M198.7,111.8h-1.536a9.941,9.941,0,0,0-9.856,10v2.188a10.625,10.625,0,1,0,21.248,0v-2.188A9.941,9.941,0,0,0,198.7,111.8Zm0,0" transform="translate(-158.038 -94.077)"/>
      <path id="Path_3569" data-name="Path 3569" class="cls-5" d="M256.659,111.8H256v22.967a10.716,10.716,0,0,0,10.515-10.778v-2.188A9.941,9.941,0,0,0,256.659,111.8Zm0,0" transform="translate(-216 -94.077)"/>
      <path id="Path_3570" data-name="Path 3570" class="cls-12" d="M198.065,119.483l10.488,4.511v-2.188a9.941,9.941,0,0,0-9.857-10h-1.536a9.941,9.941,0,0,0-9.856,10v2.851Zm0,0" transform="translate(-158.038 -94.077)"/>
      <path id="Path_3571" data-name="Path 3571" class="cls-13" d="M256.659,111.809H256v7.69l.027-.013L266.515,124V121.81A9.941,9.941,0,0,0,256.659,111.809Zm0,0" transform="translate(-216 -94.08)"/>
      <path id="Path_3572" data-name="Path 3572" class="cls-2" d="M222.363,26.621a2.332,2.332,0,0,1-1.668-.7l-2.906-2.949a2.419,2.419,0,0,1,0-3.385,2.334,2.334,0,0,1,3.336,0l1.238,1.256,4.57-4.637a2.335,2.335,0,0,1,3.336,0,2.419,2.419,0,0,1,0,3.385l-6.238,6.329A2.334,2.334,0,0,1,222.363,26.621Zm0,0" transform="translate(-183.177 -13.046)"/>
      <path id="Path_3573" data-name="Path 3573" class="cls-3" d="M263.092,16.206a2.335,2.335,0,0,0-3.336,0L256,20.017v6.455a2.341,2.341,0,0,0,.854-.552l6.238-6.329A2.419,2.419,0,0,0,263.092,16.206Zm0,0" transform="translate(-216 -13.046)"/>
    </g>
  </g>
</svg>
