<svg xmlns="http://www.w3.org/2000/svg" xmlns:xlink="http://www.w3.org/1999/xlink" viewBox="0 0 90 90">
  <defs>
    <style>
      .cls-1 {
        fill: url(#linear-gradient);
      }

      .cls-2 {
        fill: #d0e9ff;
      }

      .cls-3 {
        fill: #bce9f7;
      }

      .cls-4 {
        fill: #ffcda1;
      }

      .cls-5 {
        fill: #e8954c;
      }

      .cls-6 {
        fill: #ff8820;
      }

      .cls-7 {
        fill: #fff;
      }

      .cls-8 {
        fill: #ebf6ff;
      }

      .cls-9 {
        fill: #1abffe;
      }
    </style>
    <linearGradient id="linear-gradient" x1="0.5" x2="0.5" y2="1" gradientUnits="objectBoundingBox">
      <stop offset="0" stop-color="#f1f3f8"/>
      <stop offset="1" stop-color="#f1f3f8" stop-opacity="0"/>
    </linearGradient>
  </defs>
  <g id="_1" data-name="1" transform="translate(-836 -1819)">
    <path id="Path_653" data-name="Path 653" class="cls-1" d="M67.417,0c24.82,0,22.47,20.147,22.47,45S47.3,90,22.477,90,.007,69.853.007,45,42.6,0,67.417,0Z" transform="translate(836.053 1819)"/>
    <g id="web" transform="translate(836 1840.488)">
      <path id="Path_3593" data-name="Path 3593" class="cls-2" d="M80,3.4V65.6a2.912,2.912,0,0,1-2.922,2.9H2.92A2.911,2.911,0,0,1,0,65.6V3.4A2.911,2.911,0,0,1,2.92.5H77.078A2.913,2.913,0,0,1,80,3.4Zm0,0"/>
      <path id="Path_3594" data-name="Path 3594" class="cls-3" d="M296.01,3.4V65.6a2.912,2.912,0,0,1-2.922,2.9H256.012V.5h37.076A2.913,2.913,0,0,1,296.01,3.4Zm0,0" transform="translate(-216.01)"/>
      <path id="Path_3595" data-name="Path 3595" class="cls-4" d="M80,3.4V11H47.956l-5,4.1H0V3.4A2.911,2.911,0,0,1,2.92.5H77.078A2.913,2.913,0,0,1,80,3.4Zm0,0"/>
      <g id="Group_1825" data-name="Group 1825" transform="translate(7.639 5.682)">
        <path id="Path_3596" data-name="Path 3596" class="cls-5" d="M99.23,38.607c-.075,0-.153,0-.23-.011a2.26,2.26,0,0,1-.228-.034c-.073-.015-.148-.034-.222-.056a2.074,2.074,0,0,1-.215-.077,2.223,2.223,0,0,1-.208-.1,2.276,2.276,0,0,1-.2-.118,2.136,2.136,0,0,1-.186-.135,2.276,2.276,0,0,1-.17-.153,2.147,2.147,0,0,1-.154-.171,1.969,1.969,0,0,1-.138-.183c-.042-.064-.081-.128-.117-.195s-.068-.137-.1-.206-.055-.142-.076-.214a1.657,1.657,0,0,1-.056-.221,2.194,2.194,0,0,1-.035-.224,2.228,2.228,0,0,1-.012-.229,2.2,2.2,0,0,1,.012-.228,2.166,2.166,0,0,1,.035-.226,1.765,1.765,0,0,1,.056-.22c.022-.073.048-.144.076-.214s.062-.139.1-.206A2.231,2.231,0,0,1,97.282,35c.043-.064.089-.125.138-.184a2.344,2.344,0,0,1,.325-.322,2.247,2.247,0,0,1,.186-.136,1.991,1.991,0,0,1,.2-.116c.068-.036.137-.068.208-.1a2.212,2.212,0,0,1,.215-.076,1.855,1.855,0,0,1,.222-.056A1.943,1.943,0,0,1,99,33.973a2.346,2.346,0,0,1,.461,0,1.962,1.962,0,0,1,.227.034,1.854,1.854,0,0,1,.223.056c.071.022.145.047.215.076s.14.062.208.1a2.152,2.152,0,0,1,.2.116,1.95,1.95,0,0,1,.184.136,2.063,2.063,0,0,1,.172.153,1.932,1.932,0,0,1,.154.169c.049.059.094.121.137.184s.082.128.117.195a2.111,2.111,0,0,1,.1.206,2.031,2.031,0,0,1,.078.214c.022.073.041.146.056.22a2.166,2.166,0,0,1,.035.226c.007.076.011.152.011.228s0,.153-.011.229a2.194,2.194,0,0,1-.035.224c-.016.074-.034.149-.056.221a2.136,2.136,0,0,1-.078.214,2.047,2.047,0,0,1-.1.206c-.035.067-.076.131-.117.195a2.077,2.077,0,0,1-.137.183,2.272,2.272,0,0,1-.154.171c-.055.053-.111.105-.172.153a1.94,1.94,0,0,1-.184.135c-.064.042-.129.082-.2.118a2.212,2.212,0,0,1-.208.1,2.238,2.238,0,0,1-.215.077c-.074.022-.148.041-.223.056a2.29,2.29,0,0,1-.227.034C99.385,38.6,99.307,38.607,99.23,38.607Zm0,0" transform="translate(-89.387 -33.962)"/>
        <path id="Path_3597" data-name="Path 3597" class="cls-5" d="M51.23,38.607c-.076,0-.153,0-.229-.011a2.209,2.209,0,0,1-.228-.034c-.075-.015-.148-.034-.222-.056a2.074,2.074,0,0,1-.215-.077,2.212,2.212,0,0,1-.208-.1c-.067-.036-.134-.076-.2-.118a2.233,2.233,0,0,1-.186-.135,2.038,2.038,0,0,1-.17-.153,2.272,2.272,0,0,1-.154-.171,1.963,1.963,0,0,1-.137-.183c-.042-.064-.081-.128-.117-.195s-.069-.137-.1-.206-.054-.142-.076-.214a1.867,1.867,0,0,1-.056-.221,2.191,2.191,0,0,1-.034-.224,2.229,2.229,0,0,1-.013-.229,2.2,2.2,0,0,1,.013-.228,2.164,2.164,0,0,1,.034-.226,1.879,1.879,0,0,1,.056-.22c.022-.073.049-.144.076-.214s.063-.139.1-.206A2.231,2.231,0,0,1,49.282,35c.042-.064.089-.125.137-.184a2.145,2.145,0,0,1,.154-.169,2.038,2.038,0,0,1,.17-.153,2.247,2.247,0,0,1,.186-.136,2.073,2.073,0,0,1,.2-.116c.067-.036.137-.068.208-.1s.142-.054.215-.076a1.807,1.807,0,0,1,.222-.056A2.209,2.209,0,0,1,51,33.973a2.346,2.346,0,0,1,.461,0,2.251,2.251,0,0,1,.226.034,1.8,1.8,0,0,1,.223.056c.072.022.145.048.215.076s.141.062.208.1a2.238,2.238,0,0,1,.2.116,2.032,2.032,0,0,1,.184.136,2.27,2.27,0,0,1,.172.153,1.939,1.939,0,0,1,.155.169c.048.059.093.121.135.184a2.106,2.106,0,0,1,.119.195,1.93,1.93,0,0,1,.1.206,2.178,2.178,0,0,1,.078.214c.021.073.04.146.056.22s.026.15.034.226a2.194,2.194,0,0,1,.011.228,2.225,2.225,0,0,1-.011.229c-.008.074-.019.15-.034.224s-.035.149-.056.221-.049.144-.078.214a2.047,2.047,0,0,1-.1.206c-.036.067-.076.131-.119.195a1.947,1.947,0,0,1-.135.183,2.2,2.2,0,0,1-.327.324,2.021,2.021,0,0,1-.184.135c-.064.042-.13.082-.2.118a2.153,2.153,0,0,1-.208.1,2.181,2.181,0,0,1-.215.077c-.073.022-.148.041-.223.056a2.251,2.251,0,0,1-.226.034C51.385,38.6,51.307,38.607,51.23,38.607Zm0,0" transform="translate(-48.887 -33.962)"/>
        <path id="Path_3598" data-name="Path 3598" class="cls-5" d="M148.227,38.607c-.075,0-.153,0-.229-.011a2.209,2.209,0,0,1-.228-.034c-.073-.015-.148-.034-.222-.056a2.074,2.074,0,0,1-.215-.077,2.212,2.212,0,0,1-.208-.1c-.067-.036-.134-.076-.2-.118a2.127,2.127,0,0,1-.186-.135,2.046,2.046,0,0,1-.171-.153,2.272,2.272,0,0,1-.154-.171,1.963,1.963,0,0,1-.137-.183c-.042-.064-.081-.128-.117-.195s-.069-.137-.1-.206-.055-.142-.077-.214a1.867,1.867,0,0,1-.056-.221,2.191,2.191,0,0,1-.034-.224,2.229,2.229,0,0,1-.013-.229,2.2,2.2,0,0,1,.013-.228,2.164,2.164,0,0,1,.034-.226,1.879,1.879,0,0,1,.056-.22c.022-.073.049-.144.077-.214s.062-.139.1-.206a2.231,2.231,0,0,1,.117-.195c.042-.064.089-.125.137-.184a2.145,2.145,0,0,1,.154-.169,2.046,2.046,0,0,1,.171-.153,2.14,2.14,0,0,1,.186-.136,2.073,2.073,0,0,1,.2-.116c.067-.036.137-.068.208-.1s.142-.054.215-.076a1.894,1.894,0,0,1,.222-.056,2.209,2.209,0,0,1,.228-.034,2.346,2.346,0,0,1,.461,0c.076.008.151.019.228.034a1.855,1.855,0,0,1,.222.056c.074.022.145.048.215.076s.141.062.208.1a2.073,2.073,0,0,1,.2.116,2.237,2.237,0,0,1,.186.136,2.038,2.038,0,0,1,.17.153,1.932,1.932,0,0,1,.154.169c.049.059.094.121.138.184s.081.128.117.195a2.106,2.106,0,0,1,.1.206,1.9,1.9,0,0,1,.078.214c.022.073.041.146.057.22s.026.15.034.226a2.194,2.194,0,0,1,.011.228c0,.076,0,.153-.011.229s-.019.15-.034.224-.035.149-.057.221a1.994,1.994,0,0,1-.078.214,2.042,2.042,0,0,1-.1.206c-.036.067-.077.131-.117.195a2.211,2.211,0,0,1-.138.183,2.147,2.147,0,0,1-.154.171,2.276,2.276,0,0,1-.17.153,2.224,2.224,0,0,1-.186.135c-.063.042-.13.082-.2.118a2.153,2.153,0,0,1-.208.1,2.024,2.024,0,0,1-.215.077c-.073.022-.148.041-.222.056s-.152.027-.228.034S148.3,38.607,148.227,38.607Zm0,0" transform="translate(-130.727 -33.962)"/>
      </g>
      <path id="Path_3599" data-name="Path 3599" class="cls-6" d="M296.01,3.4V11H263.966l-5,4.1h-2.953V.5h37.076A2.913,2.913,0,0,1,296.01,3.4Zm0,0" transform="translate(-216.01)"/>
      <path id="Path_3600" data-name="Path 3600" class="cls-7" d="M172.047,165.614a19.018,19.018,0,0,1-19.078,18.912h0a18.912,18.912,0,1,1,0-37.822h0A19.016,19.016,0,0,1,172.047,165.614Zm0,0" transform="translate(-112.967 -123.563)"/>
      <path id="Path_3601" data-name="Path 3601" class="cls-8" d="M275.09,165.614a19.018,19.018,0,0,1-19.078,18.912V146.7A19.016,19.016,0,0,1,275.09,165.614Zm0,0" transform="translate(-216.01 -123.563)"/>
      <path id="Path_3602" data-name="Path 3602" class="cls-9" d="M275.09,165.614H256.012V146.7A19.016,19.016,0,0,1,275.09,165.614Zm0,0" transform="translate(-216.01 -123.563)"/>
    </g>
  </g>
</svg>
