<svg xmlns="http://www.w3.org/2000/svg" viewBox="0 0 48 50">
  <defs>
    <style>
      .cls-1 {
        fill: #b6f068;
      }

      .cls-2 {
        fill: #6de661;
      }
    </style>
  </defs>
  <g id="android" transform="translate(-12.5)">
    <g id="Group_1803" data-name="Group 1803" transform="translate(12.5)">
      <path id="Path_3486" data-name="Path 3486" class="cls-1" d="M143.225,167H118.978a1.472,1.472,0,0,0-1.478,1.465v20.779a1.472,1.472,0,0,0,1.478,1.465h1.873V196.3a4.436,4.436,0,0,0,8.871,0v-5.588h2.957V196.3a4.436,4.436,0,0,0,8.871,0v-5.588h1.676a1.472,1.472,0,0,0,1.478-1.465V168.465A1.472,1.472,0,0,0,143.225,167Z" transform="translate(-107.151 -150.691)"/>
      <path id="Path_3487" data-name="Path 3487" class="cls-1" d="M16.935,167a4.42,4.42,0,0,0-4.435,4.395v8.691a4.436,4.436,0,0,0,8.871,0v-8.691A4.42,4.42,0,0,0,16.935,167Z" transform="translate(-12.5 -150.691)"/>
      <path id="Path_3488" data-name="Path 3488" class="cls-1" d="M144.369.429a1.488,1.488,0,0,0-2.091,0l-2.611,2.587a13.671,13.671,0,0,0-17.022-.087l-2.523-2.5a1.488,1.488,0,0,0-2.091,0,1.455,1.455,0,0,0,0,2.072l2.512,2.489a13.337,13.337,0,0,0-3.044,8.487,1.472,1.472,0,0,0,1.478,1.465h24.246a1.472,1.472,0,0,0,1.478-1.465A13.334,13.334,0,0,0,141.747,5.1l2.622-2.6A1.455,1.455,0,0,0,144.369.429Z" transform="translate(-107.151)"/>
    </g>
    <g id="Group_1804" data-name="Group 1804" transform="translate(36.5 0)">
      <path id="Path_3489" data-name="Path 3489" class="cls-2" d="M268.074,167H256v23.709h1.528V196.3a4.436,4.436,0,0,0,8.871,0v-5.588h1.676a1.472,1.472,0,0,0,1.478-1.465V168.465A1.472,1.472,0,0,0,268.074,167Z" transform="translate(-256 -150.691)"/>
      <path id="Path_3490" data-name="Path 3490" class="cls-2" d="M413.935,167a4.42,4.42,0,0,0-4.435,4.395v8.691a4.436,4.436,0,0,0,8.871,0v-8.691A4.42,4.42,0,0,0,413.935,167Z" transform="translate(-394.371 -150.691)"/>
      <path id="Path_3491" data-name="Path 3491" class="cls-2" d="M269.218,2.5a1.455,1.455,0,0,0,0-2.072,1.488,1.488,0,0,0-2.091,0l-2.611,2.587A13.614,13.614,0,0,0,256,0V14.942h12.074a1.472,1.472,0,0,0,1.478-1.465A13.334,13.334,0,0,0,266.6,5.1Z" transform="translate(-256 -0.001)"/>
    </g>
  </g>
</svg>
