<svg xmlns="http://www.w3.org/2000/svg" viewBox="0 0 42 50">
  <defs>
    <style>
      .cls-1 {
        fill: #303c5e;
      }
    </style>
  </defs>
  <g id="apple" transform="translate(-27.875)">
    <path id="XMLID_229_" class="cls-1" d="M30.043,78.844C25.7,86.18,28.46,97.311,33.265,104.061c2.4,3.374,4.826,6.4,8.152,6.4.063,0,.126,0,.19,0a10.286,10.286,0,0,0,3.783-.981,10.6,10.6,0,0,1,4.482-1.034,9.962,9.962,0,0,1,4.266,1,9.241,9.241,0,0,0,4.087.953c3.746-.068,6.046-3.336,8.076-6.22a27.247,27.247,0,0,0,3.538-7.051l.014-.044a.406.406,0,0,0-.224-.5l-.031-.013A10.487,10.487,0,0,1,63.091,87c-.056-5.53,4.341-8.459,5.223-8.99l.041-.025a.409.409,0,0,0,.185-.263.4.4,0,0,0-.065-.312,12.271,12.271,0,0,0-9.561-5.051c-.272-.026-.552-.04-.834-.04a17.042,17.042,0,0,0-6,1.458,9.85,9.85,0,0,1-2.875.836,9.605,9.605,0,0,1-2.973-.846,14.73,14.73,0,0,0-5.241-1.295h-.133A12.905,12.905,0,0,0,30.043,78.844Z" transform="translate(0 -60.464)"/>
    <path id="XMLID_230_" class="cls-1" d="M159.808,0a11.849,11.849,0,0,0-7.747,3.866c-1.619,1.824-3.2,4.865-2.783,7.931a.416.416,0,0,0,.385.355c.179.014.362.02.545.021a10.021,10.021,0,0,0,7.312-3.649A11.076,11.076,0,0,0,160.243.365.42.42,0,0,0,159.808,0Z" transform="translate(-100.889)"/>
  </g>
</svg>
