<svg xmlns="http://www.w3.org/2000/svg" viewBox="0 0 41.873 42.188">
  <defs>
    <style>
      .cls-1 {
        fill: #a1deff;
      }

      .cls-2 {
        fill: #1abffe;
      }
    </style>
  </defs>
  <g id="Group_1760" data-name="Group 1760" transform="translate(-19.063 -28.281)">
    <path id="Path_2606" data-name="Path 2606" class="cls-1" d="M162.68,205.375l-3.375-1.969a18.352,18.352,0,0,0,0-2.625l3.375-1.968a2.328,2.328,0,0,0,.891-3.187l-4.687-8.157a2.61,2.61,0,0,0-1.453-1.078,2.4,2.4,0,0,0-1.781.234l-3.422,2.015a15.537,15.537,0,0,0-2.25-1.312v-3.984A2.321,2.321,0,0,0,147.633,181h-9.375a2.321,2.321,0,0,0-2.344,2.344v3.984a15.6,15.6,0,0,0-2.25,1.312l-3.422-2.015a2.4,2.4,0,0,0-1.781-.234,2.61,2.61,0,0,0-1.453,1.078l-4.687,8.157a2.328,2.328,0,0,0,.891,3.187l3.375,1.968a18.352,18.352,0,0,0,0,2.625l-3.375,1.969a2.328,2.328,0,0,0-.891,3.187l4.688,8.157a2.613,2.613,0,0,0,1.453,1.078,2.65,2.65,0,0,0,1.781-.234l3.422-2.016a15.537,15.537,0,0,0,2.25,1.312v3.985a2.321,2.321,0,0,0,2.344,2.344h9.375a2.321,2.321,0,0,0,2.344-2.344v-3.984a15.66,15.66,0,0,0,2.25-1.312l3.422,2.015a2.645,2.645,0,0,0,1.781.234,2.615,2.615,0,0,0,1.453-1.078l4.688-8.156A2.328,2.328,0,0,0,162.68,205.375Zm-19.734,3.75a7.031,7.031,0,1,1,7.031-7.031A7.022,7.022,0,0,1,142.945,209.125Zm0,0" transform="translate(-102.945 -152.719)"/>
    <path id="Path_2607" data-name="Path 2607" class="cls-2" d="M276.625,208.562l-4.687,8.157a2.613,2.613,0,0,1-1.453,1.078,2.65,2.65,0,0,1-1.781-.234l-3.422-2.016a15.537,15.537,0,0,1-2.25,1.312v3.985a2.321,2.321,0,0,1-2.344,2.344H256V209.125a7.031,7.031,0,0,0,0-14.062V181h4.688a2.321,2.321,0,0,1,2.344,2.344v3.984a15.537,15.537,0,0,1,2.25,1.312l3.422-2.015a2.4,2.4,0,0,1,1.781-.234,2.61,2.61,0,0,1,1.453,1.078l4.688,8.157a2.328,2.328,0,0,1-.891,3.187l-3.375,1.968a18.352,18.352,0,0,1,0,2.625l3.375,1.969A2.328,2.328,0,0,1,276.625,208.562Zm0,0" transform="translate(-216 -152.719)"/>
  </g>
</svg>
